%TF.GenerationSoftware,KiCad,Pcbnew,9.0.1*%
%TF.CreationDate,2025-06-04T18:11:17+03:00*%
%TF.ProjectId,pcb_no_div,7063625f-6e6f-45f6-9469-762e6b696361,rev?*%
%TF.SameCoordinates,Original*%
%TF.FileFunction,Copper,L1,Top*%
%TF.FilePolarity,Positive*%
%FSLAX46Y46*%
G04 Gerber Fmt 4.6, Leading zero omitted, Abs format (unit mm)*
G04 Created by KiCad (PCBNEW 9.0.1) date 2025-06-04 18:11:17*
%MOMM*%
%LPD*%
G01*
G04 APERTURE LIST*
%TA.AperFunction,ComponentPad*%
%ADD10C,1.600000*%
%TD*%
%TA.AperFunction,ComponentPad*%
%ADD11O,1.600000X1.600000*%
%TD*%
%TA.AperFunction,ComponentPad*%
%ADD12R,1.100000X1.100000*%
%TD*%
%TA.AperFunction,ComponentPad*%
%ADD13C,1.100000*%
%TD*%
%TA.AperFunction,ComponentPad*%
%ADD14R,1.160000X1.160000*%
%TD*%
%TA.AperFunction,ComponentPad*%
%ADD15C,1.160000*%
%TD*%
%TA.AperFunction,ComponentPad*%
%ADD16R,1.000000X1.000000*%
%TD*%
%TA.AperFunction,ComponentPad*%
%ADD17C,1.400000*%
%TD*%
%TA.AperFunction,ComponentPad*%
%ADD18O,1.400000X1.400000*%
%TD*%
%TA.AperFunction,ComponentPad*%
%ADD19R,3.200000X3.200000*%
%TD*%
%TA.AperFunction,ComponentPad*%
%ADD20O,3.200000X3.200000*%
%TD*%
%TA.AperFunction,WasherPad*%
%ADD21C,6.000000*%
%TD*%
%TA.AperFunction,ComponentPad*%
%ADD22R,2.000000X1.905000*%
%TD*%
%TA.AperFunction,ComponentPad*%
%ADD23O,2.000000X1.905000*%
%TD*%
%TA.AperFunction,ComponentPad*%
%ADD24R,1.700000X1.700000*%
%TD*%
%TA.AperFunction,ComponentPad*%
%ADD25R,1.600000X1.600000*%
%TD*%
%TA.AperFunction,ViaPad*%
%ADD26C,0.600000*%
%TD*%
%TA.AperFunction,Conductor*%
%ADD27C,0.127000*%
%TD*%
%TA.AperFunction,Conductor*%
%ADD28C,0.500000*%
%TD*%
G04 APERTURE END LIST*
D10*
%TO.P,R_B1,1*%
%TO.N,VDD*%
X77000000Y-63000000D03*
D11*
%TO.P,R_B1,2*%
%TO.N,Net-(IC1-INPUT2-)*%
X77000000Y-55380000D03*
%TD*%
D12*
%TO.P,C_H3,1,+*%
%TO.N,Net-(C_H3-+)*%
X72000000Y-88000000D03*
D13*
%TO.P,C_H3,2,-*%
%TO.N,GND*%
X72000000Y-90000000D03*
%TD*%
D14*
%TO.P,IC1,1,OUTPUT1*%
%TO.N,GND*%
X98810000Y-43000000D03*
D15*
%TO.P,IC1,2,INPUT1-*%
X96270000Y-43000000D03*
%TO.P,IC1,3,INPUT1+*%
X93730000Y-43000000D03*
%TO.P,IC1,4,GND*%
X91190000Y-43000000D03*
%TO.P,IC1,5,INPUT2+*%
%TO.N,Net-(C_H1-+)*%
X91190000Y-50620000D03*
%TO.P,IC1,6,INPUT2-*%
%TO.N,Net-(IC1-INPUT2-)*%
X93730000Y-50620000D03*
%TO.P,IC1,7,OUTPUT2*%
%TO.N,Net-(IC1-OUTPUT2)*%
X96270000Y-50620000D03*
%TO.P,IC1,8,VCC*%
%TO.N,Net-(C_H2-+)*%
X98810000Y-50620000D03*
%TD*%
D16*
%TO.P,TP9,1,1*%
%TO.N,Net-(NMOS_2-G)*%
X101350000Y-65500000D03*
%TD*%
%TO.P,TP6,1,1*%
%TO.N,Net-(IC2-INPUT2-)*%
X72000000Y-77620000D03*
%TD*%
D10*
%TO.P,R_B6,1*%
%TO.N,Net-(IC2-INPUT2-)*%
X77000000Y-82380000D03*
D11*
%TO.P,R_B6,2*%
%TO.N,GND*%
X77000000Y-90000000D03*
%TD*%
D10*
%TO.P,R_B5,1*%
%TO.N,VDD*%
X77000000Y-70000000D03*
D11*
%TO.P,R_B5,2*%
%TO.N,Net-(IC2-INPUT2-)*%
X77000000Y-77620000D03*
%TD*%
D17*
%TO.P,R_B3,1*%
%TO.N,VDD*%
X82000000Y-63000000D03*
D18*
%TO.P,R_B3,2*%
%TO.N,Net-(C_H2-+)*%
X82000000Y-57920000D03*
%TD*%
D19*
%TO.P,D1,1*%
%TO.N,VDD*%
X109000000Y-63000000D03*
D20*
%TO.P,D1,2*%
%TO.N,Net-(NMOS_2-D)*%
X109000000Y-43000000D03*
%TD*%
D16*
%TO.P,TP8,1,1*%
%TO.N,Net-(NMOS_3-D)*%
X118500000Y-90000000D03*
%TD*%
D21*
%TO.P,H3,*%
%TO.N,*%
X125800000Y-42400000D03*
%TD*%
D14*
%TO.P,IC2,1,OUTPUT1*%
%TO.N,GND*%
X91190000Y-90000000D03*
D15*
%TO.P,IC2,2,INPUT1-*%
X93730000Y-90000000D03*
%TO.P,IC2,3,INPUT1+*%
X96270000Y-90000000D03*
%TO.P,IC2,4,GND*%
X98810000Y-90000000D03*
%TO.P,IC2,5,INPUT2+*%
%TO.N,Net-(C_H3-+)*%
X98810000Y-82380000D03*
%TO.P,IC2,6,INPUT2-*%
%TO.N,Net-(IC2-INPUT2-)*%
X96270000Y-82380000D03*
%TO.P,IC2,7,OUTPUT2*%
%TO.N,Net-(IC2-OUTPUT2)*%
X93730000Y-82380000D03*
%TO.P,IC2,8,VCC*%
%TO.N,Net-(C_H4-+)*%
X91190000Y-82380000D03*
%TD*%
D22*
%TO.P,NMOS_2,1,D*%
%TO.N,Net-(NMOS_2-D)*%
X117600000Y-52000000D03*
D23*
%TO.P,NMOS_2,2,G*%
%TO.N,Net-(NMOS_2-G)*%
X117600000Y-54540000D03*
%TO.P,NMOS_2,3,S*%
%TO.N,GND*%
X117600000Y-57080000D03*
%TD*%
D16*
%TO.P,TP10,1,1*%
%TO.N,Net-(NMOS_3-G)*%
X101350000Y-68600000D03*
%TD*%
D21*
%TO.P,H1,*%
%TO.N,*%
X54800000Y-42400000D03*
%TD*%
%TO.P,H2,*%
%TO.N,*%
X125800000Y-88400000D03*
%TD*%
D12*
%TO.P,C_H2,1,+*%
%TO.N,Net-(C_H2-+)*%
X87000000Y-45000000D03*
D13*
%TO.P,C_H2,2,-*%
%TO.N,GND*%
X87000000Y-43000000D03*
%TD*%
D17*
%TO.P,R_B7,1*%
%TO.N,VDD*%
X82000000Y-70000000D03*
D18*
%TO.P,R_B7,2*%
%TO.N,Net-(C_H4-+)*%
X82000000Y-75080000D03*
%TD*%
D16*
%TO.P,TP4,1,1*%
%TO.N,Net-(NMOS_2-D)*%
X109000000Y-38100000D03*
%TD*%
D19*
%TO.P,D2,1*%
%TO.N,VDD*%
X109000000Y-70000000D03*
D20*
%TO.P,D2,2*%
%TO.N,Net-(NMOS_3-D)*%
X109000000Y-90000000D03*
%TD*%
D10*
%TO.P,R_A2,1*%
%TO.N,VDD*%
X67000000Y-70000000D03*
D11*
%TO.P,R_A2,2*%
%TO.N,Net-(C_H3-+)*%
X67000000Y-77620000D03*
%TD*%
D16*
%TO.P,TP3,1,1*%
%TO.N,Net-(C_H2-+)*%
X85000000Y-65500000D03*
%TD*%
D21*
%TO.P,H4,*%
%TO.N,*%
X54800000Y-88400000D03*
%TD*%
D16*
%TO.P,TP5,1,1*%
%TO.N,Net-(C_H3-+)*%
X62700000Y-82400000D03*
%TD*%
D24*
%TO.P,OUTPUT+2,1,Pin_1*%
%TO.N,VDD*%
X125000000Y-67700000D03*
%TD*%
D16*
%TO.P,TP2,1,1*%
%TO.N,Net-(IC1-INPUT2-)*%
X72000000Y-55500000D03*
%TD*%
D24*
%TO.P,GNT_PIN1,1,Pin_1*%
%TO.N,GND*%
X125000000Y-77600000D03*
%TD*%
%TO.P,OUTPUT+1,1,Pin_1*%
%TO.N,VDD*%
X125000000Y-57000000D03*
%TD*%
D17*
%TO.P,R_B4,1*%
%TO.N,Net-(C_H2-+)*%
X85000000Y-57920000D03*
D18*
%TO.P,R_B4,2*%
%TO.N,Net-(IC1-OUTPUT2)*%
X90080000Y-57920000D03*
%TD*%
D10*
%TO.P,R_out_comp2,1*%
%TO.N,Net-(NMOS_2-G)*%
X101350000Y-57920000D03*
D11*
%TO.P,R_out_comp2,2*%
%TO.N,Net-(IC1-OUTPUT2)*%
X93730000Y-57920000D03*
%TD*%
D24*
%TO.P,OUTPUT-1,1,Pin_1*%
%TO.N,Net-(NMOS_2-D)*%
X125000000Y-52000000D03*
%TD*%
D25*
%TO.P,Zener_H1,1,K*%
%TO.N,Net-(C_H2-+)*%
X82000000Y-50620000D03*
D11*
%TO.P,Zener_H1,2,A*%
%TO.N,GND*%
X82000000Y-43000000D03*
%TD*%
D24*
%TO.P,OUTPUT-2,1,Pin_1*%
%TO.N,Net-(NMOS_3-D)*%
X125000000Y-72300000D03*
%TD*%
D16*
%TO.P,TP7,1,1*%
%TO.N,Net-(C_H4-+)*%
X85000000Y-68600000D03*
%TD*%
D25*
%TO.P,Zener_H2,1,K*%
%TO.N,Net-(C_H4-+)*%
X82000000Y-82380000D03*
D11*
%TO.P,Zener_H2,2,A*%
%TO.N,GND*%
X82000000Y-90000000D03*
%TD*%
D17*
%TO.P,R_B8,1*%
%TO.N,Net-(C_H4-+)*%
X85000000Y-75080000D03*
D18*
%TO.P,R_B8,2*%
%TO.N,Net-(IC2-OUTPUT2)*%
X90080000Y-75080000D03*
%TD*%
D25*
%TO.P,Zener_A2,1,K*%
%TO.N,Net-(C_H3-+)*%
X67000000Y-82380000D03*
D11*
%TO.P,Zener_A2,2,A*%
%TO.N,GND*%
X67000000Y-90000000D03*
%TD*%
D10*
%TO.P,R_B2,1*%
%TO.N,Net-(IC1-INPUT2-)*%
X77000000Y-50620000D03*
D11*
%TO.P,R_B2,2*%
%TO.N,GND*%
X77000000Y-43000000D03*
%TD*%
D22*
%TO.P,NMOS_3,1,D*%
%TO.N,Net-(NMOS_3-D)*%
X117600000Y-76000000D03*
D23*
%TO.P,NMOS_3,2,G*%
%TO.N,Net-(NMOS_3-G)*%
X117600000Y-78540000D03*
%TO.P,NMOS_3,3,S*%
%TO.N,GND*%
X117600000Y-81080000D03*
%TD*%
D10*
%TO.P,R_out_comp3,1*%
%TO.N,Net-(NMOS_3-G)*%
X101350000Y-75080000D03*
D11*
%TO.P,R_out_comp3,2*%
%TO.N,Net-(IC2-OUTPUT2)*%
X93730000Y-75080000D03*
%TD*%
D19*
%TO.P,TVS1001,1,K*%
%TO.N,VDD*%
X58000000Y-58200000D03*
D20*
%TO.P,TVS1001,2,A*%
%TO.N,GND*%
X58000000Y-78200000D03*
%TD*%
D25*
%TO.P,Zener_A1,1,K*%
%TO.N,Net-(C_H1-+)*%
X67000000Y-50620000D03*
D11*
%TO.P,Zener_A1,2,A*%
%TO.N,GND*%
X67000000Y-43000000D03*
%TD*%
D24*
%TO.P,VDD_PIN1,1,Pin_1*%
%TO.N,VDD*%
X125000000Y-63000000D03*
%TD*%
D12*
%TO.P,C_H4,1,+*%
%TO.N,Net-(C_H4-+)*%
X87000000Y-88000000D03*
D13*
%TO.P,C_H4,2,-*%
%TO.N,GND*%
X87000000Y-90000000D03*
%TD*%
D10*
%TO.P,R_A1,1*%
%TO.N,VDD*%
X67000000Y-63000000D03*
D11*
%TO.P,R_A1,2*%
%TO.N,Net-(C_H1-+)*%
X67000000Y-55380000D03*
%TD*%
D12*
%TO.P,C_H1,1,+*%
%TO.N,Net-(C_H1-+)*%
X72000000Y-45000000D03*
D13*
%TO.P,C_H1,2,-*%
%TO.N,GND*%
X72000000Y-43000000D03*
%TD*%
D16*
%TO.P,TP1,1,1*%
%TO.N,Net-(C_H1-+)*%
X62700000Y-53000000D03*
%TD*%
D26*
%TO.N,Net-(C_H1-+)*%
X91200000Y-53000000D03*
X72000000Y-53000000D03*
X67000000Y-53000000D03*
%TO.N,Net-(C_H2-+)*%
X82000000Y-53800000D03*
X98800000Y-53800000D03*
X87000000Y-53800000D03*
%TO.N,Net-(C_H3-+)*%
X72000000Y-79200000D03*
X72000000Y-82300000D03*
X98700000Y-79300000D03*
%TO.N,Net-(C_H4-+)*%
X87000000Y-82380000D03*
%TO.N,VDD*%
X64300000Y-58200000D03*
X64200000Y-63000000D03*
%TO.N,Net-(NMOS_2-D)*%
X117600000Y-43000000D03*
%TO.N,Net-(NMOS_3-D)*%
X117600000Y-72300000D03*
X114800000Y-76000000D03*
X114800000Y-90000000D03*
%TO.N,Net-(IC1-OUTPUT2)*%
X93800000Y-55800000D03*
X96200000Y-55800000D03*
%TO.N,Net-(IC1-INPUT2-)*%
X93800000Y-52000000D03*
X77000000Y-52000000D03*
%TO.N,Net-(IC2-INPUT2-)*%
X96300000Y-79900000D03*
X77000000Y-79900000D03*
%TO.N,Net-(NMOS_2-G)*%
X101400000Y-54600000D03*
%TO.N,Net-(NMOS_3-G)*%
X101400000Y-78600000D03*
%TD*%
D27*
%TO.N,Net-(C_H1-+)*%
X62700000Y-53000000D02*
X67000000Y-53000000D01*
X72000000Y-53000000D02*
X91200000Y-53000000D01*
X72000000Y-53000000D02*
X67000000Y-53000000D01*
%TO.N,Net-(C_H2-+)*%
X98800000Y-53800000D02*
X87000000Y-53800000D01*
X85000000Y-57920000D02*
X82000000Y-57920000D01*
X87000000Y-53800000D02*
X82000000Y-53800000D01*
%TO.N,Net-(C_H3-+)*%
X98600000Y-79200000D02*
X98700000Y-79300000D01*
X66980000Y-82400000D02*
X67000000Y-82380000D01*
X72000000Y-79200000D02*
X98600000Y-79200000D01*
X71920000Y-82380000D02*
X72000000Y-82300000D01*
X67000000Y-82380000D02*
X71920000Y-82380000D01*
X62700000Y-82400000D02*
X66980000Y-82400000D01*
%TO.N,Net-(C_H4-+)*%
X87000000Y-82380000D02*
X91190000Y-82380000D01*
X82000000Y-82380000D02*
X87000000Y-82380000D01*
X82000000Y-75080000D02*
X85000000Y-75080000D01*
%TO.N,VDD*%
X82000000Y-63000000D02*
X77000000Y-63000000D01*
X77000000Y-63000000D02*
X67000000Y-63000000D01*
D28*
X109000000Y-63000000D02*
X82000000Y-63000000D01*
D27*
X109055000Y-62945000D02*
X109000000Y-63000000D01*
X125000000Y-63000000D02*
X109000000Y-63000000D01*
X109000000Y-70000000D02*
X122700000Y-70000000D01*
X64300000Y-58200000D02*
X58000000Y-58200000D01*
X67000000Y-63000000D02*
X64200000Y-63000000D01*
X122700000Y-70000000D02*
X125000000Y-67700000D01*
X67000000Y-70000000D02*
X109000000Y-70000000D01*
%TO.N,Net-(NMOS_2-D)*%
X117600000Y-52000000D02*
X125000000Y-52000000D01*
X117600000Y-43000000D02*
X109000000Y-43000000D01*
%TO.N,Net-(NMOS_3-D)*%
X118500000Y-90000000D02*
X114800000Y-90000000D01*
X117600000Y-76000000D02*
X114800000Y-76000000D01*
X125000000Y-72300000D02*
X117600000Y-72300000D01*
X114800000Y-90000000D02*
X109000000Y-90000000D01*
%TO.N,Net-(IC1-OUTPUT2)*%
X96200000Y-55800000D02*
X93800000Y-55800000D01*
X93730000Y-57920000D02*
X90080000Y-57920000D01*
%TO.N,Net-(IC1-INPUT2-)*%
X93800000Y-52000000D02*
X77000000Y-52000000D01*
X76880000Y-55500000D02*
X77000000Y-55380000D01*
X72000000Y-55500000D02*
X76880000Y-55500000D01*
%TO.N,Net-(IC2-INPUT2-)*%
X72000000Y-77620000D02*
X77000000Y-77620000D01*
X77000000Y-79900000D02*
X96300000Y-79900000D01*
%TO.N,Net-(IC2-OUTPUT2)*%
X90080000Y-75080000D02*
X93730000Y-75080000D01*
%TO.N,Net-(NMOS_2-G)*%
X101460000Y-54540000D02*
X117600000Y-54540000D01*
X101400000Y-54600000D02*
X101350000Y-54650000D01*
X101400000Y-54600000D02*
X101460000Y-54540000D01*
%TO.N,Net-(NMOS_3-G)*%
X117600000Y-78540000D02*
X101460000Y-78540000D01*
X101460000Y-78540000D02*
X101400000Y-78600000D01*
%TD*%
%TA.AperFunction,Conductor*%
%TO.N,GND*%
G36*
X132242539Y-35920185D02*
G01*
X132288294Y-35972989D01*
X132299500Y-36024500D01*
X132299500Y-94775500D01*
X132279815Y-94842539D01*
X132227011Y-94888294D01*
X132175500Y-94899500D01*
X48424500Y-94899500D01*
X48357461Y-94879815D01*
X48311706Y-94827011D01*
X48300500Y-94775500D01*
X48300500Y-88228031D01*
X51299500Y-88228031D01*
X51299500Y-88571969D01*
X51303449Y-88612066D01*
X51333210Y-88914249D01*
X51400308Y-89251572D01*
X51500150Y-89580706D01*
X51547735Y-89695586D01*
X51616803Y-89862332D01*
X51631770Y-89898464D01*
X51631772Y-89898469D01*
X51793893Y-90201775D01*
X51793904Y-90201793D01*
X51984975Y-90487751D01*
X51984985Y-90487765D01*
X52203176Y-90753632D01*
X52446367Y-90996823D01*
X52446372Y-90996827D01*
X52446373Y-90996828D01*
X52712240Y-91215019D01*
X52998213Y-91406100D01*
X52998222Y-91406105D01*
X52998224Y-91406106D01*
X53301530Y-91568227D01*
X53301532Y-91568227D01*
X53301538Y-91568231D01*
X53619295Y-91699850D01*
X53948422Y-91799690D01*
X54285750Y-91866789D01*
X54628031Y-91900500D01*
X54628034Y-91900500D01*
X54971966Y-91900500D01*
X54971969Y-91900500D01*
X55314250Y-91866789D01*
X55651578Y-91799690D01*
X55980705Y-91699850D01*
X56298462Y-91568231D01*
X56601787Y-91406100D01*
X56887760Y-91215019D01*
X57153627Y-90996828D01*
X57396828Y-90753627D01*
X57615019Y-90487760D01*
X57806100Y-90201787D01*
X57968231Y-89898462D01*
X58029726Y-89750000D01*
X65723391Y-89750000D01*
X66684314Y-89750000D01*
X66679920Y-89754394D01*
X66627259Y-89845606D01*
X66600000Y-89947339D01*
X66600000Y-90052661D01*
X66627259Y-90154394D01*
X66679920Y-90245606D01*
X66684314Y-90250000D01*
X65723391Y-90250000D01*
X65732009Y-90304413D01*
X65795244Y-90499029D01*
X65888140Y-90681349D01*
X66008417Y-90846894D01*
X66008417Y-90846895D01*
X66153104Y-90991582D01*
X66318650Y-91111859D01*
X66500968Y-91204754D01*
X66695578Y-91267988D01*
X66750000Y-91276607D01*
X66750000Y-90315686D01*
X66754394Y-90320080D01*
X66845606Y-90372741D01*
X66947339Y-90400000D01*
X67052661Y-90400000D01*
X67154394Y-90372741D01*
X67245606Y-90320080D01*
X67250000Y-90315686D01*
X67250000Y-91276606D01*
X67304421Y-91267988D01*
X67499031Y-91204754D01*
X67681349Y-91111859D01*
X67846894Y-90991582D01*
X67846895Y-90991582D01*
X67939857Y-90898620D01*
X71454931Y-90898620D01*
X71454932Y-90898621D01*
X71502633Y-90930495D01*
X71502639Y-90930498D01*
X71693725Y-91009649D01*
X71693733Y-91009651D01*
X71896579Y-91049999D01*
X71896583Y-91050000D01*
X72103417Y-91050000D01*
X72103420Y-91049999D01*
X72306266Y-91009651D01*
X72306274Y-91009649D01*
X72497366Y-90930495D01*
X72545066Y-90898621D01*
X72545067Y-90898620D01*
X72000001Y-90353554D01*
X72000000Y-90353554D01*
X71454931Y-90898620D01*
X67939857Y-90898620D01*
X67991582Y-90846895D01*
X67991582Y-90846894D01*
X68040532Y-90779523D01*
X68111859Y-90681349D01*
X68204755Y-90499029D01*
X68267990Y-90304413D01*
X68276609Y-90250000D01*
X67315686Y-90250000D01*
X67320080Y-90245606D01*
X67372741Y-90154394D01*
X67400000Y-90052661D01*
X67400000Y-89947339D01*
X67386399Y-89896579D01*
X70950000Y-89896579D01*
X70950000Y-90103420D01*
X70990348Y-90306266D01*
X70990350Y-90306274D01*
X71069500Y-90497359D01*
X71101377Y-90545067D01*
X71101378Y-90545067D01*
X71646446Y-90000000D01*
X71600368Y-89953922D01*
X71650000Y-89953922D01*
X71650000Y-90046078D01*
X71673852Y-90135095D01*
X71719930Y-90214905D01*
X71785095Y-90280070D01*
X71864905Y-90326148D01*
X71953922Y-90350000D01*
X72046078Y-90350000D01*
X72135095Y-90326148D01*
X72214905Y-90280070D01*
X72280070Y-90214905D01*
X72326148Y-90135095D01*
X72350000Y-90046078D01*
X72350000Y-89999999D01*
X72353554Y-89999999D01*
X72353554Y-90000000D01*
X72898620Y-90545067D01*
X72898621Y-90545066D01*
X72930495Y-90497366D01*
X73009649Y-90306274D01*
X73009651Y-90306266D01*
X73033022Y-90188775D01*
X73033027Y-90188747D01*
X73050000Y-90103414D01*
X73050000Y-89901993D01*
X73032886Y-89810542D01*
X73020843Y-89750000D01*
X75723391Y-89750000D01*
X76684314Y-89750000D01*
X76679920Y-89754394D01*
X76627259Y-89845606D01*
X76600000Y-89947339D01*
X76600000Y-90052661D01*
X76627259Y-90154394D01*
X76679920Y-90245606D01*
X76684314Y-90250000D01*
X75723391Y-90250000D01*
X75732009Y-90304413D01*
X75795244Y-90499029D01*
X75888140Y-90681349D01*
X76008417Y-90846894D01*
X76008417Y-90846895D01*
X76153104Y-90991582D01*
X76318650Y-91111859D01*
X76500968Y-91204754D01*
X76695578Y-91267988D01*
X76750000Y-91276607D01*
X76750000Y-90315686D01*
X76754394Y-90320080D01*
X76845606Y-90372741D01*
X76947339Y-90400000D01*
X77052661Y-90400000D01*
X77154394Y-90372741D01*
X77245606Y-90320080D01*
X77250000Y-90315686D01*
X77250000Y-91276606D01*
X77304421Y-91267988D01*
X77499031Y-91204754D01*
X77681349Y-91111859D01*
X77846894Y-90991582D01*
X77846895Y-90991582D01*
X77991582Y-90846895D01*
X77991582Y-90846894D01*
X78111859Y-90681349D01*
X78204755Y-90499029D01*
X78267990Y-90304413D01*
X78276609Y-90250000D01*
X77315686Y-90250000D01*
X77320080Y-90245606D01*
X77372741Y-90154394D01*
X77400000Y-90052661D01*
X77400000Y-89947339D01*
X77372741Y-89845606D01*
X77320080Y-89754394D01*
X77315686Y-89750000D01*
X78276609Y-89750000D01*
X80723391Y-89750000D01*
X81684314Y-89750000D01*
X81679920Y-89754394D01*
X81627259Y-89845606D01*
X81600000Y-89947339D01*
X81600000Y-90052661D01*
X81627259Y-90154394D01*
X81679920Y-90245606D01*
X81684314Y-90250000D01*
X80723391Y-90250000D01*
X80732009Y-90304413D01*
X80795244Y-90499029D01*
X80888140Y-90681349D01*
X81008417Y-90846894D01*
X81008417Y-90846895D01*
X81153104Y-90991582D01*
X81318650Y-91111859D01*
X81500968Y-91204754D01*
X81695578Y-91267988D01*
X81750000Y-91276607D01*
X81750000Y-90315686D01*
X81754394Y-90320080D01*
X81845606Y-90372741D01*
X81947339Y-90400000D01*
X82052661Y-90400000D01*
X82154394Y-90372741D01*
X82245606Y-90320080D01*
X82250000Y-90315686D01*
X82250000Y-91276606D01*
X82304421Y-91267988D01*
X82499031Y-91204754D01*
X82681349Y-91111859D01*
X82846894Y-90991582D01*
X82846895Y-90991582D01*
X82939857Y-90898620D01*
X86454931Y-90898620D01*
X86454932Y-90898621D01*
X86502633Y-90930495D01*
X86502639Y-90930498D01*
X86693725Y-91009649D01*
X86693733Y-91009651D01*
X86896579Y-91049999D01*
X86896583Y-91050000D01*
X87103417Y-91050000D01*
X87103420Y-91049999D01*
X87306266Y-91009651D01*
X87306274Y-91009649D01*
X87497366Y-90930495D01*
X87545066Y-90898621D01*
X87545067Y-90898620D01*
X87000001Y-90353554D01*
X87000000Y-90353554D01*
X86454931Y-90898620D01*
X82939857Y-90898620D01*
X82991582Y-90846895D01*
X82991582Y-90846894D01*
X83040532Y-90779523D01*
X83111859Y-90681349D01*
X83204755Y-90499029D01*
X83267990Y-90304413D01*
X83276609Y-90250000D01*
X82315686Y-90250000D01*
X82320080Y-90245606D01*
X82372741Y-90154394D01*
X82400000Y-90052661D01*
X82400000Y-89947339D01*
X82386399Y-89896579D01*
X85950000Y-89896579D01*
X85950000Y-90103420D01*
X85990348Y-90306266D01*
X85990350Y-90306274D01*
X86069500Y-90497359D01*
X86101377Y-90545067D01*
X86101378Y-90545067D01*
X86646446Y-90000000D01*
X86600368Y-89953922D01*
X86650000Y-89953922D01*
X86650000Y-90046078D01*
X86673852Y-90135095D01*
X86719930Y-90214905D01*
X86785095Y-90280070D01*
X86864905Y-90326148D01*
X86953922Y-90350000D01*
X87046078Y-90350000D01*
X87135095Y-90326148D01*
X87214905Y-90280070D01*
X87280070Y-90214905D01*
X87326148Y-90135095D01*
X87350000Y-90046078D01*
X87350000Y-89999999D01*
X87353554Y-89999999D01*
X87353554Y-90000001D01*
X87898620Y-90545067D01*
X87898621Y-90545066D01*
X87930495Y-90497366D01*
X88009649Y-90306274D01*
X88009651Y-90306266D01*
X88035864Y-90174483D01*
X88035871Y-90174447D01*
X88050000Y-90103413D01*
X88050000Y-89896583D01*
X88049999Y-89896579D01*
X88009651Y-89693733D01*
X88009649Y-89693725D01*
X87930498Y-89502639D01*
X87930495Y-89502633D01*
X87898621Y-89454932D01*
X87898620Y-89454931D01*
X87353554Y-89999999D01*
X87350000Y-89999999D01*
X87350000Y-89953922D01*
X87326148Y-89864905D01*
X87280070Y-89785095D01*
X87214905Y-89719930D01*
X87135095Y-89673852D01*
X87046078Y-89650000D01*
X86953922Y-89650000D01*
X86864905Y-89673852D01*
X86785095Y-89719930D01*
X86719930Y-89785095D01*
X86673852Y-89864905D01*
X86650000Y-89953922D01*
X86600368Y-89953922D01*
X86101378Y-89454932D01*
X86101377Y-89454932D01*
X86069505Y-89502631D01*
X86069500Y-89502641D01*
X85990350Y-89693725D01*
X85990348Y-89693733D01*
X85950000Y-89896579D01*
X82386399Y-89896579D01*
X82372741Y-89845606D01*
X82320080Y-89754394D01*
X82315686Y-89750000D01*
X83276609Y-89750000D01*
X83267990Y-89695586D01*
X83204755Y-89500970D01*
X83111859Y-89318650D01*
X82991582Y-89153105D01*
X82991582Y-89153104D01*
X82846895Y-89008417D01*
X82681349Y-88888140D01*
X82499029Y-88795244D01*
X82304413Y-88732009D01*
X82250000Y-88723390D01*
X82250000Y-89684314D01*
X82245606Y-89679920D01*
X82154394Y-89627259D01*
X82052661Y-89600000D01*
X81947339Y-89600000D01*
X81845606Y-89627259D01*
X81754394Y-89679920D01*
X81750000Y-89684314D01*
X81750000Y-88723390D01*
X81695586Y-88732009D01*
X81500970Y-88795244D01*
X81318650Y-88888140D01*
X81153105Y-89008417D01*
X81153104Y-89008417D01*
X81008417Y-89153104D01*
X81008417Y-89153105D01*
X80888140Y-89318650D01*
X80795244Y-89500970D01*
X80732009Y-89695586D01*
X80723391Y-89750000D01*
X78276609Y-89750000D01*
X78267990Y-89695586D01*
X78204755Y-89500970D01*
X78111859Y-89318650D01*
X77991582Y-89153105D01*
X77991582Y-89153104D01*
X77846895Y-89008417D01*
X77681349Y-88888140D01*
X77499029Y-88795244D01*
X77304413Y-88732009D01*
X77250000Y-88723390D01*
X77250000Y-89684314D01*
X77245606Y-89679920D01*
X77154394Y-89627259D01*
X77052661Y-89600000D01*
X76947339Y-89600000D01*
X76845606Y-89627259D01*
X76754394Y-89679920D01*
X76750000Y-89684314D01*
X76750000Y-88723390D01*
X76695586Y-88732009D01*
X76500970Y-88795244D01*
X76318650Y-88888140D01*
X76153105Y-89008417D01*
X76153104Y-89008417D01*
X76008417Y-89153104D01*
X76008417Y-89153105D01*
X75888140Y-89318650D01*
X75795244Y-89500970D01*
X75732009Y-89695586D01*
X75723391Y-89750000D01*
X73020843Y-89750000D01*
X73009651Y-89693733D01*
X73009649Y-89693725D01*
X72930498Y-89502639D01*
X72930495Y-89502633D01*
X72898621Y-89454932D01*
X72898620Y-89454931D01*
X72353554Y-89999999D01*
X72350000Y-89999999D01*
X72350000Y-89953922D01*
X72326148Y-89864905D01*
X72280070Y-89785095D01*
X72214905Y-89719930D01*
X72135095Y-89673852D01*
X72046078Y-89650000D01*
X71953922Y-89650000D01*
X71864905Y-89673852D01*
X71785095Y-89719930D01*
X71719930Y-89785095D01*
X71673852Y-89864905D01*
X71650000Y-89953922D01*
X71600368Y-89953922D01*
X71101378Y-89454932D01*
X71101377Y-89454932D01*
X71069505Y-89502631D01*
X71069500Y-89502641D01*
X70990350Y-89693725D01*
X70990348Y-89693733D01*
X70950000Y-89896579D01*
X67386399Y-89896579D01*
X67372741Y-89845606D01*
X67320080Y-89754394D01*
X67315686Y-89750000D01*
X68276609Y-89750000D01*
X68267990Y-89695586D01*
X68204755Y-89500970D01*
X68111859Y-89318650D01*
X67991582Y-89153105D01*
X67991582Y-89153104D01*
X67846895Y-89008417D01*
X67681349Y-88888140D01*
X67499029Y-88795244D01*
X67304413Y-88732009D01*
X67250000Y-88723390D01*
X67250000Y-89684314D01*
X67245606Y-89679920D01*
X67154394Y-89627259D01*
X67052661Y-89600000D01*
X66947339Y-89600000D01*
X66845606Y-89627259D01*
X66754394Y-89679920D01*
X66750000Y-89684314D01*
X66750000Y-88723390D01*
X66695586Y-88732009D01*
X66500970Y-88795244D01*
X66318650Y-88888140D01*
X66153105Y-89008417D01*
X66153104Y-89008417D01*
X66008417Y-89153104D01*
X66008417Y-89153105D01*
X65888140Y-89318650D01*
X65795244Y-89500970D01*
X65732009Y-89695586D01*
X65723391Y-89750000D01*
X58029726Y-89750000D01*
X58099850Y-89580705D01*
X58199690Y-89251578D01*
X58266789Y-88914250D01*
X58300500Y-88571969D01*
X58300500Y-88228031D01*
X58266789Y-87885750D01*
X58199690Y-87548422D01*
X58155314Y-87402135D01*
X70949500Y-87402135D01*
X70949500Y-88597870D01*
X70949501Y-88597876D01*
X70955908Y-88657483D01*
X71006202Y-88792328D01*
X71006206Y-88792335D01*
X71092452Y-88907544D01*
X71092455Y-88907547D01*
X71207664Y-88993793D01*
X71207671Y-88993797D01*
X71246870Y-89008417D01*
X71342517Y-89044091D01*
X71360794Y-89046056D01*
X71425343Y-89072793D01*
X71435218Y-89081664D01*
X72000000Y-89646446D01*
X72000001Y-89646446D01*
X72564780Y-89081664D01*
X72626103Y-89048179D01*
X72639207Y-89046055D01*
X72657483Y-89044091D01*
X72792331Y-88993796D01*
X72907546Y-88907546D01*
X72993796Y-88792331D01*
X73044091Y-88657483D01*
X73050500Y-88597873D01*
X73050499Y-87402135D01*
X85949500Y-87402135D01*
X85949500Y-88597870D01*
X85949501Y-88597876D01*
X85955908Y-88657483D01*
X86006202Y-88792328D01*
X86006206Y-88792335D01*
X86092452Y-88907544D01*
X86092455Y-88907547D01*
X86207664Y-88993793D01*
X86207671Y-88993797D01*
X86246870Y-89008417D01*
X86342517Y-89044091D01*
X86360794Y-89046056D01*
X86425343Y-89072793D01*
X86435218Y-89081664D01*
X87000000Y-89646446D01*
X87000001Y-89646446D01*
X87274291Y-89372155D01*
X90110000Y-89372155D01*
X90110000Y-89750000D01*
X90902599Y-89750000D01*
X90885924Y-89766675D01*
X90835896Y-89853325D01*
X90810000Y-89949972D01*
X90810000Y-90050028D01*
X90835896Y-90146675D01*
X90885924Y-90233325D01*
X90902599Y-90250000D01*
X90110000Y-90250000D01*
X90110000Y-90627844D01*
X90116401Y-90687372D01*
X90116403Y-90687379D01*
X90166645Y-90822086D01*
X90166649Y-90822093D01*
X90252809Y-90937187D01*
X90252812Y-90937190D01*
X90367906Y-91023350D01*
X90367913Y-91023354D01*
X90502620Y-91073596D01*
X90502627Y-91073598D01*
X90562155Y-91079999D01*
X90562172Y-91080000D01*
X90940000Y-91080000D01*
X90940000Y-90287401D01*
X90956675Y-90304076D01*
X91043325Y-90354104D01*
X91139972Y-90380000D01*
X91240028Y-90380000D01*
X91336675Y-90354104D01*
X91423325Y-90304076D01*
X91440000Y-90287401D01*
X91440000Y-91080000D01*
X91817828Y-91080000D01*
X91817844Y-91079999D01*
X91877372Y-91073598D01*
X91877379Y-91073596D01*
X92012086Y-91023354D01*
X92012093Y-91023350D01*
X92127187Y-90937190D01*
X92127190Y-90937187D01*
X92213352Y-90822090D01*
X92263596Y-90687379D01*
X92263598Y-90687372D01*
X92269999Y-90627844D01*
X92270000Y-90627827D01*
X92270000Y-90250000D01*
X91477401Y-90250000D01*
X91494076Y-90233325D01*
X91544104Y-90146675D01*
X91570000Y-90050028D01*
X91570000Y-89949972D01*
X91560628Y-89914996D01*
X92650000Y-89914996D01*
X92650000Y-90085003D01*
X92676593Y-90252902D01*
X92729122Y-90414573D01*
X92729123Y-90414576D01*
X92806302Y-90566045D01*
X92808027Y-90568418D01*
X93350000Y-90026445D01*
X93350000Y-90050028D01*
X93375896Y-90146675D01*
X93425924Y-90233325D01*
X93496675Y-90304076D01*
X93583325Y-90354104D01*
X93679972Y-90380000D01*
X93703553Y-90380000D01*
X93161580Y-90921971D01*
X93163955Y-90923698D01*
X93315423Y-91000876D01*
X93315426Y-91000877D01*
X93477097Y-91053406D01*
X93644997Y-91080000D01*
X93815003Y-91080000D01*
X93982902Y-91053406D01*
X94144573Y-91000877D01*
X94144576Y-91000876D01*
X94296040Y-90923700D01*
X94296042Y-90923699D01*
X94298418Y-90921971D01*
X93756448Y-90380000D01*
X93780028Y-90380000D01*
X93876675Y-90354104D01*
X93963325Y-90304076D01*
X94034076Y-90233325D01*
X94084104Y-90146675D01*
X94110000Y-90050028D01*
X94110000Y-90026447D01*
X94651971Y-90568418D01*
X94653699Y-90566042D01*
X94653700Y-90566040D01*
X94730876Y-90414576D01*
X94730877Y-90414573D01*
X94783406Y-90252902D01*
X94810000Y-90085003D01*
X94810000Y-89914996D01*
X95190000Y-89914996D01*
X95190000Y-90085003D01*
X95216593Y-90252902D01*
X95269122Y-90414573D01*
X95269123Y-90414576D01*
X95346302Y-90566045D01*
X95348027Y-90568418D01*
X95890000Y-90026445D01*
X95890000Y-90050028D01*
X95915896Y-90146675D01*
X95965924Y-90233325D01*
X96036675Y-90304076D01*
X96123325Y-90354104D01*
X96219972Y-90380000D01*
X96243553Y-90380000D01*
X95701580Y-90921971D01*
X95703955Y-90923698D01*
X95855423Y-91000876D01*
X95855426Y-91000877D01*
X96017097Y-91053406D01*
X96184997Y-91080000D01*
X96355003Y-91080000D01*
X96522902Y-91053406D01*
X96684573Y-91000877D01*
X96684576Y-91000876D01*
X96836040Y-90923700D01*
X96836042Y-90923699D01*
X96838418Y-90921971D01*
X96296448Y-90380000D01*
X96320028Y-90380000D01*
X96416675Y-90354104D01*
X96503325Y-90304076D01*
X96574076Y-90233325D01*
X96624104Y-90146675D01*
X96650000Y-90050028D01*
X96650000Y-90026447D01*
X97191971Y-90568418D01*
X97193699Y-90566042D01*
X97193700Y-90566040D01*
X97270876Y-90414576D01*
X97270877Y-90414573D01*
X97323406Y-90252902D01*
X97350000Y-90085003D01*
X97350000Y-89914996D01*
X97730000Y-89914996D01*
X97730000Y-90085003D01*
X97756593Y-90252902D01*
X97809122Y-90414573D01*
X97809123Y-90414576D01*
X97886302Y-90566045D01*
X97888027Y-90568418D01*
X98430000Y-90026445D01*
X98430000Y-90050028D01*
X98455896Y-90146675D01*
X98505924Y-90233325D01*
X98576675Y-90304076D01*
X98663325Y-90354104D01*
X98759972Y-90380000D01*
X98783553Y-90380000D01*
X98241580Y-90921971D01*
X98243955Y-90923698D01*
X98395423Y-91000876D01*
X98395426Y-91000877D01*
X98557097Y-91053406D01*
X98724997Y-91080000D01*
X98895003Y-91080000D01*
X99062902Y-91053406D01*
X99224573Y-91000877D01*
X99224576Y-91000876D01*
X99376040Y-90923700D01*
X99376042Y-90923699D01*
X99378418Y-90921971D01*
X98836448Y-90380000D01*
X98860028Y-90380000D01*
X98956675Y-90354104D01*
X99043325Y-90304076D01*
X99114076Y-90233325D01*
X99164104Y-90146675D01*
X99190000Y-90050028D01*
X99190000Y-90026447D01*
X99731971Y-90568418D01*
X99733699Y-90566042D01*
X99733700Y-90566040D01*
X99810876Y-90414576D01*
X99810877Y-90414573D01*
X99863406Y-90252902D01*
X99890000Y-90085003D01*
X99890000Y-89914997D01*
X99884087Y-89877666D01*
X99884087Y-89877665D01*
X99881658Y-89862332D01*
X106899500Y-89862332D01*
X106899500Y-90137667D01*
X106899501Y-90137684D01*
X106935438Y-90410655D01*
X106935439Y-90410660D01*
X106935440Y-90410666D01*
X106935441Y-90410668D01*
X107006704Y-90676630D01*
X107112075Y-90931017D01*
X107112080Y-90931028D01*
X107182736Y-91053406D01*
X107249751Y-91169479D01*
X107249753Y-91169482D01*
X107249754Y-91169483D01*
X107417370Y-91387926D01*
X107417376Y-91387933D01*
X107612066Y-91582623D01*
X107612072Y-91582628D01*
X107830521Y-91750249D01*
X107983778Y-91838732D01*
X108068971Y-91887919D01*
X108068976Y-91887921D01*
X108068979Y-91887923D01*
X108323368Y-91993295D01*
X108589334Y-92064560D01*
X108862326Y-92100500D01*
X108862333Y-92100500D01*
X109137667Y-92100500D01*
X109137674Y-92100500D01*
X109410666Y-92064560D01*
X109676632Y-91993295D01*
X109931021Y-91887923D01*
X110169479Y-91750249D01*
X110387928Y-91582628D01*
X110582628Y-91387928D01*
X110750249Y-91169479D01*
X110887923Y-90931021D01*
X110993295Y-90676632D01*
X110998848Y-90655904D01*
X111035214Y-90596246D01*
X111098061Y-90565717D01*
X111118623Y-90564000D01*
X114180559Y-90564000D01*
X114247598Y-90583685D01*
X114268240Y-90600319D01*
X114289707Y-90621786D01*
X114289711Y-90621789D01*
X114420814Y-90709390D01*
X114420827Y-90709397D01*
X114566498Y-90769735D01*
X114566503Y-90769737D01*
X114721153Y-90800499D01*
X114721156Y-90800500D01*
X114721158Y-90800500D01*
X114878844Y-90800500D01*
X114878845Y-90800499D01*
X115033497Y-90769737D01*
X115179179Y-90709394D01*
X115310289Y-90621789D01*
X115310292Y-90621786D01*
X115331760Y-90600319D01*
X115393083Y-90566834D01*
X115419441Y-90564000D01*
X117403595Y-90564000D01*
X117470634Y-90583685D01*
X117516389Y-90636489D01*
X117519777Y-90644667D01*
X117556202Y-90742328D01*
X117556206Y-90742335D01*
X117642452Y-90857544D01*
X117642455Y-90857547D01*
X117757664Y-90943793D01*
X117757671Y-90943797D01*
X117892517Y-90994091D01*
X117892516Y-90994091D01*
X117899444Y-90994835D01*
X117952127Y-91000500D01*
X119047872Y-91000499D01*
X119107483Y-90994091D01*
X119242331Y-90943796D01*
X119357546Y-90857546D01*
X119443796Y-90742331D01*
X119494091Y-90607483D01*
X119500500Y-90547873D01*
X119500499Y-89452128D01*
X119494091Y-89392517D01*
X119488755Y-89378211D01*
X119443797Y-89257671D01*
X119443793Y-89257664D01*
X119357547Y-89142455D01*
X119357544Y-89142452D01*
X119242335Y-89056206D01*
X119242328Y-89056202D01*
X119107482Y-89005908D01*
X119107483Y-89005908D01*
X119047883Y-88999501D01*
X119047881Y-88999500D01*
X119047873Y-88999500D01*
X119047864Y-88999500D01*
X117952129Y-88999500D01*
X117952123Y-88999501D01*
X117892516Y-89005908D01*
X117757671Y-89056202D01*
X117757664Y-89056206D01*
X117642455Y-89142452D01*
X117642452Y-89142455D01*
X117556206Y-89257664D01*
X117556202Y-89257671D01*
X117519777Y-89355333D01*
X117477906Y-89411267D01*
X117412441Y-89435684D01*
X117403595Y-89436000D01*
X115419441Y-89436000D01*
X115352402Y-89416315D01*
X115331760Y-89399681D01*
X115310292Y-89378213D01*
X115310288Y-89378210D01*
X115179185Y-89290609D01*
X115179172Y-89290602D01*
X115033501Y-89230264D01*
X115033489Y-89230261D01*
X114878845Y-89199500D01*
X114878842Y-89199500D01*
X114721158Y-89199500D01*
X114721155Y-89199500D01*
X114566510Y-89230261D01*
X114566498Y-89230264D01*
X114420827Y-89290602D01*
X114420814Y-89290609D01*
X114289711Y-89378210D01*
X114289707Y-89378213D01*
X114268240Y-89399681D01*
X114206917Y-89433166D01*
X114180559Y-89436000D01*
X111118623Y-89436000D01*
X111051584Y-89416315D01*
X111005829Y-89363511D01*
X110998848Y-89344094D01*
X110993295Y-89323368D01*
X110887923Y-89068979D01*
X110887920Y-89068974D01*
X110887919Y-89068971D01*
X110817263Y-88946593D01*
X110750249Y-88830521D01*
X110582628Y-88612072D01*
X110582623Y-88612066D01*
X110387933Y-88417376D01*
X110387926Y-88417370D01*
X110265413Y-88323363D01*
X110169483Y-88249754D01*
X110169482Y-88249753D01*
X110169479Y-88249751D01*
X110131859Y-88228031D01*
X122299500Y-88228031D01*
X122299500Y-88571969D01*
X122303449Y-88612066D01*
X122333210Y-88914249D01*
X122400308Y-89251572D01*
X122500150Y-89580706D01*
X122547735Y-89695586D01*
X122616803Y-89862332D01*
X122631770Y-89898464D01*
X122631772Y-89898469D01*
X122793893Y-90201775D01*
X122793904Y-90201793D01*
X122984975Y-90487751D01*
X122984985Y-90487765D01*
X123203176Y-90753632D01*
X123446367Y-90996823D01*
X123446372Y-90996827D01*
X123446373Y-90996828D01*
X123712240Y-91215019D01*
X123998213Y-91406100D01*
X123998222Y-91406105D01*
X123998224Y-91406106D01*
X124301530Y-91568227D01*
X124301532Y-91568227D01*
X124301538Y-91568231D01*
X124619295Y-91699850D01*
X124948422Y-91799690D01*
X125285750Y-91866789D01*
X125628031Y-91900500D01*
X125628034Y-91900500D01*
X125971966Y-91900500D01*
X125971969Y-91900500D01*
X126314250Y-91866789D01*
X126651578Y-91799690D01*
X126980705Y-91699850D01*
X127298462Y-91568231D01*
X127601787Y-91406100D01*
X127887760Y-91215019D01*
X128153627Y-90996828D01*
X128396828Y-90753627D01*
X128615019Y-90487760D01*
X128806100Y-90201787D01*
X128968231Y-89898462D01*
X129099850Y-89580705D01*
X129199690Y-89251578D01*
X129266789Y-88914250D01*
X129300500Y-88571969D01*
X129300500Y-88228031D01*
X129266789Y-87885750D01*
X129199690Y-87548422D01*
X129099850Y-87219295D01*
X128968231Y-86901538D01*
X128806100Y-86598213D01*
X128615019Y-86312240D01*
X128396828Y-86046373D01*
X128396827Y-86046372D01*
X128396823Y-86046367D01*
X128153632Y-85803176D01*
X127887765Y-85584985D01*
X127887764Y-85584984D01*
X127887760Y-85584981D01*
X127601787Y-85393900D01*
X127601782Y-85393897D01*
X127601775Y-85393893D01*
X127298469Y-85231772D01*
X127298464Y-85231770D01*
X126980706Y-85100150D01*
X126651572Y-85000308D01*
X126314248Y-84933210D01*
X126314249Y-84933210D01*
X126056456Y-84907821D01*
X125971969Y-84899500D01*
X125628031Y-84899500D01*
X125549966Y-84907188D01*
X125285750Y-84933210D01*
X124948427Y-85000308D01*
X124619293Y-85100150D01*
X124301535Y-85231770D01*
X124301530Y-85231772D01*
X123998224Y-85393893D01*
X123998206Y-85393904D01*
X123712248Y-85584975D01*
X123712234Y-85584985D01*
X123446367Y-85803176D01*
X123203176Y-86046367D01*
X122984985Y-86312234D01*
X122984975Y-86312248D01*
X122793904Y-86598206D01*
X122793893Y-86598224D01*
X122631772Y-86901530D01*
X122631770Y-86901535D01*
X122500150Y-87219293D01*
X122400308Y-87548427D01*
X122333210Y-87885750D01*
X122321298Y-88006704D01*
X122299500Y-88228031D01*
X110131859Y-88228031D01*
X110074407Y-88194861D01*
X109931028Y-88112080D01*
X109931017Y-88112075D01*
X109676630Y-88006704D01*
X109543649Y-87971072D01*
X109410666Y-87935440D01*
X109410660Y-87935439D01*
X109410655Y-87935438D01*
X109137684Y-87899501D01*
X109137679Y-87899500D01*
X109137674Y-87899500D01*
X108862326Y-87899500D01*
X108862320Y-87899500D01*
X108862315Y-87899501D01*
X108589344Y-87935438D01*
X108589337Y-87935439D01*
X108589334Y-87935440D01*
X108533125Y-87950500D01*
X108323369Y-88006704D01*
X108068982Y-88112075D01*
X108068971Y-88112080D01*
X107830516Y-88249754D01*
X107612073Y-88417370D01*
X107612066Y-88417376D01*
X107417376Y-88612066D01*
X107417370Y-88612073D01*
X107249754Y-88830516D01*
X107112080Y-89068971D01*
X107112075Y-89068982D01*
X107006704Y-89323369D01*
X106935441Y-89589331D01*
X106935438Y-89589344D01*
X106899501Y-89862315D01*
X106899500Y-89862332D01*
X99881658Y-89862332D01*
X99863406Y-89747097D01*
X99810877Y-89585426D01*
X99810876Y-89585423D01*
X99733698Y-89433955D01*
X99731971Y-89431580D01*
X99190000Y-89973551D01*
X99190000Y-89949972D01*
X99164104Y-89853325D01*
X99114076Y-89766675D01*
X99043325Y-89695924D01*
X98956675Y-89645896D01*
X98860028Y-89620000D01*
X98836447Y-89620000D01*
X99378419Y-89078027D01*
X99376045Y-89076302D01*
X99224576Y-88999123D01*
X99224573Y-88999122D01*
X99062902Y-88946593D01*
X98895003Y-88920000D01*
X98724997Y-88920000D01*
X98557097Y-88946593D01*
X98395426Y-88999122D01*
X98395423Y-88999123D01*
X98243962Y-89076298D01*
X98243951Y-89076304D01*
X98241579Y-89078027D01*
X98783554Y-89620000D01*
X98759972Y-89620000D01*
X98663325Y-89645896D01*
X98576675Y-89695924D01*
X98505924Y-89766675D01*
X98455896Y-89853325D01*
X98430000Y-89949972D01*
X98430000Y-89973552D01*
X97888027Y-89431579D01*
X97886304Y-89433951D01*
X97886298Y-89433962D01*
X97809123Y-89585423D01*
X97809122Y-89585426D01*
X97756593Y-89747097D01*
X97730000Y-89914996D01*
X97350000Y-89914996D01*
X97323406Y-89747097D01*
X97270877Y-89585426D01*
X97270876Y-89585423D01*
X97193698Y-89433955D01*
X97191971Y-89431580D01*
X96650000Y-89973551D01*
X96650000Y-89949972D01*
X96624104Y-89853325D01*
X96574076Y-89766675D01*
X96503325Y-89695924D01*
X96416675Y-89645896D01*
X96320028Y-89620000D01*
X96296447Y-89620000D01*
X96838418Y-89078027D01*
X96836045Y-89076302D01*
X96684576Y-88999123D01*
X96684573Y-88999122D01*
X96522902Y-88946593D01*
X96355003Y-88920000D01*
X96184997Y-88920000D01*
X96017097Y-88946593D01*
X95855426Y-88999122D01*
X95855423Y-88999123D01*
X95703962Y-89076298D01*
X95703951Y-89076304D01*
X95701579Y-89078027D01*
X96243554Y-89620000D01*
X96219972Y-89620000D01*
X96123325Y-89645896D01*
X96036675Y-89695924D01*
X95965924Y-89766675D01*
X95915896Y-89853325D01*
X95890000Y-89949972D01*
X95890000Y-89973552D01*
X95348027Y-89431579D01*
X95346304Y-89433951D01*
X95346298Y-89433962D01*
X95269123Y-89585423D01*
X95269122Y-89585426D01*
X95216593Y-89747097D01*
X95190000Y-89914996D01*
X94810000Y-89914996D01*
X94783406Y-89747097D01*
X94730877Y-89585426D01*
X94730876Y-89585423D01*
X94653698Y-89433955D01*
X94651971Y-89431580D01*
X94110000Y-89973551D01*
X94110000Y-89949972D01*
X94084104Y-89853325D01*
X94034076Y-89766675D01*
X93963325Y-89695924D01*
X93876675Y-89645896D01*
X93780028Y-89620000D01*
X93756447Y-89620000D01*
X94298418Y-89078027D01*
X94296045Y-89076302D01*
X94144576Y-88999123D01*
X94144573Y-88999122D01*
X93982902Y-88946593D01*
X93815003Y-88920000D01*
X93644997Y-88920000D01*
X93477097Y-88946593D01*
X93315426Y-88999122D01*
X93315423Y-88999123D01*
X93163962Y-89076298D01*
X93163951Y-89076304D01*
X93161579Y-89078027D01*
X93703554Y-89620000D01*
X93679972Y-89620000D01*
X93583325Y-89645896D01*
X93496675Y-89695924D01*
X93425924Y-89766675D01*
X93375896Y-89853325D01*
X93350000Y-89949972D01*
X93350000Y-89973552D01*
X92808027Y-89431579D01*
X92806304Y-89433951D01*
X92806298Y-89433962D01*
X92729123Y-89585423D01*
X92729122Y-89585426D01*
X92676593Y-89747097D01*
X92650000Y-89914996D01*
X91560628Y-89914996D01*
X91544104Y-89853325D01*
X91494076Y-89766675D01*
X91477401Y-89750000D01*
X92270000Y-89750000D01*
X92270000Y-89372172D01*
X92269999Y-89372155D01*
X92263598Y-89312627D01*
X92263596Y-89312620D01*
X92213353Y-89177911D01*
X92213351Y-89177908D01*
X92127190Y-89062812D01*
X92127187Y-89062809D01*
X92012093Y-88976649D01*
X92012086Y-88976645D01*
X91877379Y-88926403D01*
X91877372Y-88926401D01*
X91817844Y-88920000D01*
X91440000Y-88920000D01*
X91440000Y-89712599D01*
X91423325Y-89695924D01*
X91336675Y-89645896D01*
X91240028Y-89620000D01*
X91139972Y-89620000D01*
X91043325Y-89645896D01*
X90956675Y-89695924D01*
X90940000Y-89712599D01*
X90940000Y-88920000D01*
X90562155Y-88920000D01*
X90502627Y-88926401D01*
X90502620Y-88926403D01*
X90367913Y-88976645D01*
X90367906Y-88976649D01*
X90252812Y-89062809D01*
X90252809Y-89062812D01*
X90166649Y-89177906D01*
X90166645Y-89177913D01*
X90116403Y-89312620D01*
X90116401Y-89312627D01*
X90110000Y-89372155D01*
X87274291Y-89372155D01*
X87564780Y-89081664D01*
X87626103Y-89048179D01*
X87639207Y-89046055D01*
X87657483Y-89044091D01*
X87792331Y-88993796D01*
X87907546Y-88907546D01*
X87993796Y-88792331D01*
X88044091Y-88657483D01*
X88050500Y-88597873D01*
X88050499Y-87402128D01*
X88044091Y-87342517D01*
X87998131Y-87219293D01*
X87993797Y-87207671D01*
X87993793Y-87207664D01*
X87907547Y-87092455D01*
X87907544Y-87092452D01*
X87792335Y-87006206D01*
X87792328Y-87006202D01*
X87657482Y-86955908D01*
X87657483Y-86955908D01*
X87597883Y-86949501D01*
X87597881Y-86949500D01*
X87597873Y-86949500D01*
X87597864Y-86949500D01*
X86402129Y-86949500D01*
X86402123Y-86949501D01*
X86342516Y-86955908D01*
X86207671Y-87006202D01*
X86207664Y-87006206D01*
X86092455Y-87092452D01*
X86092452Y-87092455D01*
X86006206Y-87207664D01*
X86006202Y-87207671D01*
X85955908Y-87342517D01*
X85949501Y-87402116D01*
X85949501Y-87402123D01*
X85949500Y-87402135D01*
X73050499Y-87402135D01*
X73050499Y-87402128D01*
X73044091Y-87342517D01*
X72998131Y-87219293D01*
X72993797Y-87207671D01*
X72993793Y-87207664D01*
X72907547Y-87092455D01*
X72907544Y-87092452D01*
X72792335Y-87006206D01*
X72792328Y-87006202D01*
X72657482Y-86955908D01*
X72657483Y-86955908D01*
X72597883Y-86949501D01*
X72597881Y-86949500D01*
X72597873Y-86949500D01*
X72597864Y-86949500D01*
X71402129Y-86949500D01*
X71402123Y-86949501D01*
X71342516Y-86955908D01*
X71207671Y-87006202D01*
X71207664Y-87006206D01*
X71092455Y-87092452D01*
X71092452Y-87092455D01*
X71006206Y-87207664D01*
X71006202Y-87207671D01*
X70955908Y-87342517D01*
X70949501Y-87402116D01*
X70949501Y-87402123D01*
X70949500Y-87402135D01*
X58155314Y-87402135D01*
X58099850Y-87219295D01*
X57968231Y-86901538D01*
X57806100Y-86598213D01*
X57615019Y-86312240D01*
X57396828Y-86046373D01*
X57396827Y-86046372D01*
X57396823Y-86046367D01*
X57153632Y-85803176D01*
X56887765Y-85584985D01*
X56887764Y-85584984D01*
X56887760Y-85584981D01*
X56601787Y-85393900D01*
X56601782Y-85393897D01*
X56601775Y-85393893D01*
X56298469Y-85231772D01*
X56298464Y-85231770D01*
X55980706Y-85100150D01*
X55651572Y-85000308D01*
X55314248Y-84933210D01*
X55314249Y-84933210D01*
X55056456Y-84907821D01*
X54971969Y-84899500D01*
X54628031Y-84899500D01*
X54549966Y-84907188D01*
X54285750Y-84933210D01*
X53948427Y-85000308D01*
X53619293Y-85100150D01*
X53301535Y-85231770D01*
X53301530Y-85231772D01*
X52998224Y-85393893D01*
X52998206Y-85393904D01*
X52712248Y-85584975D01*
X52712234Y-85584985D01*
X52446367Y-85803176D01*
X52203176Y-86046367D01*
X51984985Y-86312234D01*
X51984975Y-86312248D01*
X51793904Y-86598206D01*
X51793893Y-86598224D01*
X51631772Y-86901530D01*
X51631770Y-86901535D01*
X51500150Y-87219293D01*
X51400308Y-87548427D01*
X51333210Y-87885750D01*
X51321298Y-88006704D01*
X51299500Y-88228031D01*
X48300500Y-88228031D01*
X48300500Y-81852135D01*
X61699500Y-81852135D01*
X61699500Y-82947870D01*
X61699501Y-82947876D01*
X61705908Y-83007483D01*
X61756202Y-83142328D01*
X61756206Y-83142335D01*
X61842452Y-83257544D01*
X61842455Y-83257547D01*
X61957664Y-83343793D01*
X61957671Y-83343797D01*
X62092517Y-83394091D01*
X62092516Y-83394091D01*
X62099444Y-83394835D01*
X62152127Y-83400500D01*
X63247872Y-83400499D01*
X63307483Y-83394091D01*
X63442331Y-83343796D01*
X63557546Y-83257546D01*
X63643796Y-83142331D01*
X63659398Y-83100500D01*
X63680223Y-83044667D01*
X63722094Y-82988733D01*
X63787559Y-82964316D01*
X63796405Y-82964000D01*
X65575501Y-82964000D01*
X65642540Y-82983685D01*
X65688295Y-83036489D01*
X65699501Y-83088000D01*
X65699501Y-83227876D01*
X65705908Y-83287483D01*
X65756202Y-83422328D01*
X65756206Y-83422335D01*
X65842452Y-83537544D01*
X65842455Y-83537547D01*
X65957664Y-83623793D01*
X65957671Y-83623797D01*
X66092517Y-83674091D01*
X66092516Y-83674091D01*
X66099444Y-83674835D01*
X66152127Y-83680500D01*
X67847872Y-83680499D01*
X67907483Y-83674091D01*
X68042331Y-83623796D01*
X68157546Y-83537546D01*
X68243796Y-83422331D01*
X68294091Y-83287483D01*
X68300500Y-83227873D01*
X68300500Y-83068000D01*
X68320185Y-83000961D01*
X68372989Y-82955206D01*
X68424500Y-82944000D01*
X71485337Y-82944000D01*
X71552376Y-82963685D01*
X71554228Y-82964898D01*
X71620821Y-83009394D01*
X71620823Y-83009395D01*
X71620827Y-83009397D01*
X71762309Y-83068000D01*
X71766503Y-83069737D01*
X71921153Y-83100499D01*
X71921156Y-83100500D01*
X71921158Y-83100500D01*
X72078844Y-83100500D01*
X72078845Y-83100499D01*
X72233497Y-83069737D01*
X72379179Y-83009394D01*
X72510289Y-82921789D01*
X72621789Y-82810289D01*
X72709394Y-82679179D01*
X72769737Y-82533497D01*
X72800500Y-82378842D01*
X72800500Y-82277648D01*
X75699500Y-82277648D01*
X75699500Y-82482351D01*
X75731522Y-82684534D01*
X75794781Y-82879223D01*
X75887715Y-83061613D01*
X76008028Y-83227213D01*
X76152786Y-83371971D01*
X76307749Y-83484556D01*
X76318390Y-83492287D01*
X76407212Y-83537544D01*
X76500776Y-83585218D01*
X76500778Y-83585218D01*
X76500781Y-83585220D01*
X76605137Y-83619127D01*
X76695465Y-83648477D01*
X76796557Y-83664488D01*
X76897648Y-83680500D01*
X76897649Y-83680500D01*
X77102351Y-83680500D01*
X77102352Y-83680500D01*
X77304534Y-83648477D01*
X77499219Y-83585220D01*
X77681610Y-83492287D01*
X77807945Y-83400500D01*
X77847213Y-83371971D01*
X77847215Y-83371968D01*
X77847219Y-83371966D01*
X77991966Y-83227219D01*
X77991968Y-83227215D01*
X77991971Y-83227213D01*
X78048259Y-83149738D01*
X78112287Y-83061610D01*
X78205220Y-82879219D01*
X78268477Y-82684534D01*
X78300500Y-82482352D01*
X78300500Y-82277648D01*
X78286285Y-82187902D01*
X78268477Y-82075465D01*
X78218230Y-81920821D01*
X78205220Y-81880781D01*
X78205218Y-81880778D01*
X78205218Y-81880776D01*
X78112287Y-81698390D01*
X78042032Y-81601691D01*
X78042031Y-81601688D01*
X77991971Y-81532787D01*
X77991967Y-81532782D01*
X77991320Y-81532135D01*
X80699500Y-81532135D01*
X80699500Y-83227870D01*
X80699501Y-83227876D01*
X80705908Y-83287483D01*
X80756202Y-83422328D01*
X80756206Y-83422335D01*
X80842452Y-83537544D01*
X80842455Y-83537547D01*
X80957664Y-83623793D01*
X80957671Y-83623797D01*
X81092517Y-83674091D01*
X81092516Y-83674091D01*
X81099444Y-83674835D01*
X81152127Y-83680500D01*
X82847872Y-83680499D01*
X82907483Y-83674091D01*
X83042331Y-83623796D01*
X83157546Y-83537546D01*
X83243796Y-83422331D01*
X83294091Y-83287483D01*
X83300500Y-83227873D01*
X83300500Y-83068000D01*
X83320185Y-83000961D01*
X83372989Y-82955206D01*
X83424500Y-82944000D01*
X86380559Y-82944000D01*
X86447598Y-82963685D01*
X86468240Y-82980319D01*
X86489707Y-83001786D01*
X86489711Y-83001789D01*
X86620814Y-83089390D01*
X86620827Y-83089397D01*
X86748616Y-83142328D01*
X86766503Y-83149737D01*
X86921153Y-83180499D01*
X86921156Y-83180500D01*
X86921158Y-83180500D01*
X87078844Y-83180500D01*
X87078845Y-83180499D01*
X87233497Y-83149737D01*
X87379179Y-83089394D01*
X87510289Y-83001789D01*
X87516964Y-82995114D01*
X87531760Y-82980319D01*
X87593083Y-82946834D01*
X87619441Y-82944000D01*
X90201018Y-82944000D01*
X90268057Y-82963685D01*
X90301335Y-82995113D01*
X90365841Y-83083898D01*
X90486102Y-83204159D01*
X90623695Y-83304126D01*
X90775232Y-83381339D01*
X90936982Y-83433894D01*
X91104963Y-83460500D01*
X91104964Y-83460500D01*
X91275036Y-83460500D01*
X91275037Y-83460500D01*
X91443018Y-83433894D01*
X91604768Y-83381339D01*
X91756305Y-83304126D01*
X91893898Y-83204159D01*
X92014159Y-83083898D01*
X92114126Y-82946305D01*
X92191339Y-82794768D01*
X92243894Y-82633018D01*
X92270500Y-82465037D01*
X92270500Y-82294963D01*
X92649500Y-82294963D01*
X92649500Y-82465037D01*
X92654520Y-82496734D01*
X92676106Y-82633019D01*
X92728658Y-82794761D01*
X92728660Y-82794764D01*
X92728661Y-82794768D01*
X92805874Y-82946305D01*
X92905841Y-83083898D01*
X93026102Y-83204159D01*
X93163695Y-83304126D01*
X93315232Y-83381339D01*
X93476982Y-83433894D01*
X93644963Y-83460500D01*
X93644964Y-83460500D01*
X93815036Y-83460500D01*
X93815037Y-83460500D01*
X93983018Y-83433894D01*
X94144768Y-83381339D01*
X94296305Y-83304126D01*
X94433898Y-83204159D01*
X94554159Y-83083898D01*
X94654126Y-82946305D01*
X94731339Y-82794768D01*
X94783894Y-82633018D01*
X94810500Y-82465037D01*
X94810500Y-82294963D01*
X95189500Y-82294963D01*
X95189500Y-82465037D01*
X95194520Y-82496734D01*
X95216106Y-82633019D01*
X95268658Y-82794761D01*
X95268660Y-82794764D01*
X95268661Y-82794768D01*
X95345874Y-82946305D01*
X95445841Y-83083898D01*
X95566102Y-83204159D01*
X95703695Y-83304126D01*
X95855232Y-83381339D01*
X96016982Y-83433894D01*
X96184963Y-83460500D01*
X96184964Y-83460500D01*
X96355036Y-83460500D01*
X96355037Y-83460500D01*
X96523018Y-83433894D01*
X96684768Y-83381339D01*
X96836305Y-83304126D01*
X96973898Y-83204159D01*
X97094159Y-83083898D01*
X97194126Y-82946305D01*
X97271339Y-82794768D01*
X97323894Y-82633018D01*
X97350500Y-82465037D01*
X97350500Y-82294963D01*
X97729500Y-82294963D01*
X97729500Y-82465037D01*
X97734520Y-82496734D01*
X97756106Y-82633019D01*
X97808658Y-82794761D01*
X97808660Y-82794764D01*
X97808661Y-82794768D01*
X97885874Y-82946305D01*
X97985841Y-83083898D01*
X98106102Y-83204159D01*
X98243695Y-83304126D01*
X98395232Y-83381339D01*
X98556982Y-83433894D01*
X98724963Y-83460500D01*
X98724964Y-83460500D01*
X98895036Y-83460500D01*
X98895037Y-83460500D01*
X99063018Y-83433894D01*
X99224768Y-83381339D01*
X99376305Y-83304126D01*
X99513898Y-83204159D01*
X99634159Y-83083898D01*
X99734126Y-82946305D01*
X99811339Y-82794768D01*
X99863894Y-82633018D01*
X99890500Y-82465037D01*
X99890500Y-82294963D01*
X99863894Y-82126982D01*
X99811339Y-81965232D01*
X99734126Y-81813695D01*
X99634159Y-81676102D01*
X99513898Y-81555841D01*
X99376305Y-81455874D01*
X99224768Y-81378661D01*
X99224764Y-81378660D01*
X99224761Y-81378658D01*
X99063019Y-81326106D01*
X98979027Y-81312803D01*
X98895037Y-81299500D01*
X98724963Y-81299500D01*
X98668969Y-81308368D01*
X98556980Y-81326106D01*
X98395238Y-81378658D01*
X98243694Y-81455874D01*
X98106099Y-81555843D01*
X97985843Y-81676099D01*
X97885874Y-81813694D01*
X97808658Y-81965238D01*
X97756106Y-82126980D01*
X97741190Y-82221155D01*
X97729500Y-82294963D01*
X97350500Y-82294963D01*
X97323894Y-82126982D01*
X97271339Y-81965232D01*
X97194126Y-81813695D01*
X97094159Y-81676102D01*
X96973898Y-81555841D01*
X96836305Y-81455874D01*
X96684768Y-81378661D01*
X96684764Y-81378660D01*
X96684761Y-81378658D01*
X96523019Y-81326106D01*
X96439027Y-81312803D01*
X96355037Y-81299500D01*
X96184963Y-81299500D01*
X96128969Y-81308368D01*
X96016980Y-81326106D01*
X95855238Y-81378658D01*
X95703694Y-81455874D01*
X95566099Y-81555843D01*
X95445843Y-81676099D01*
X95345874Y-81813694D01*
X95268658Y-81965238D01*
X95216106Y-82126980D01*
X95201190Y-82221155D01*
X95189500Y-82294963D01*
X94810500Y-82294963D01*
X94783894Y-82126982D01*
X94731339Y-81965232D01*
X94654126Y-81813695D01*
X94554159Y-81676102D01*
X94433898Y-81555841D01*
X94296305Y-81455874D01*
X94144768Y-81378661D01*
X94144764Y-81378660D01*
X94144761Y-81378658D01*
X93983019Y-81326106D01*
X93899027Y-81312803D01*
X93815037Y-81299500D01*
X93644963Y-81299500D01*
X93588969Y-81308368D01*
X93476980Y-81326106D01*
X93315238Y-81378658D01*
X93163694Y-81455874D01*
X93026099Y-81555843D01*
X92905843Y-81676099D01*
X92805874Y-81813694D01*
X92728658Y-81965238D01*
X92676106Y-82126980D01*
X92661190Y-82221155D01*
X92649500Y-82294963D01*
X92270500Y-82294963D01*
X92243894Y-82126982D01*
X92191339Y-81965232D01*
X92114126Y-81813695D01*
X92014159Y-81676102D01*
X91893898Y-81555841D01*
X91756305Y-81455874D01*
X91604768Y-81378661D01*
X91604764Y-81378660D01*
X91604761Y-81378658D01*
X91443019Y-81326106D01*
X91359027Y-81312803D01*
X91275037Y-81299500D01*
X91104963Y-81299500D01*
X91048969Y-81308368D01*
X90936980Y-81326106D01*
X90775238Y-81378658D01*
X90623694Y-81455874D01*
X90486099Y-81555843D01*
X90365843Y-81676099D01*
X90365843Y-81676100D01*
X90365841Y-81676102D01*
X90306184Y-81758213D01*
X90301336Y-81764886D01*
X90246006Y-81807551D01*
X90201018Y-81816000D01*
X87619441Y-81816000D01*
X87552402Y-81796315D01*
X87531760Y-81779681D01*
X87510292Y-81758213D01*
X87510288Y-81758210D01*
X87379185Y-81670609D01*
X87379172Y-81670602D01*
X87233501Y-81610264D01*
X87233489Y-81610261D01*
X87078845Y-81579500D01*
X87078842Y-81579500D01*
X86921158Y-81579500D01*
X86921155Y-81579500D01*
X86766510Y-81610261D01*
X86766498Y-81610264D01*
X86620827Y-81670602D01*
X86620814Y-81670609D01*
X86489711Y-81758210D01*
X86489707Y-81758213D01*
X86468240Y-81779681D01*
X86406917Y-81813166D01*
X86380559Y-81816000D01*
X83424499Y-81816000D01*
X83357460Y-81796315D01*
X83311705Y-81743511D01*
X83300499Y-81692000D01*
X83300499Y-81532129D01*
X83300498Y-81532123D01*
X83300497Y-81532116D01*
X83294091Y-81472517D01*
X83288007Y-81456206D01*
X83243797Y-81337671D01*
X83243793Y-81337664D01*
X83157547Y-81222455D01*
X83157544Y-81222452D01*
X83042335Y-81136206D01*
X83042328Y-81136202D01*
X82907482Y-81085908D01*
X82907483Y-81085908D01*
X82847883Y-81079501D01*
X82847881Y-81079500D01*
X82847873Y-81079500D01*
X82847864Y-81079500D01*
X81152129Y-81079500D01*
X81152123Y-81079501D01*
X81092516Y-81085908D01*
X80957671Y-81136202D01*
X80957664Y-81136206D01*
X80842455Y-81222452D01*
X80842452Y-81222455D01*
X80756206Y-81337664D01*
X80756202Y-81337671D01*
X80705908Y-81472517D01*
X80699700Y-81530263D01*
X80699501Y-81532123D01*
X80699500Y-81532135D01*
X77991320Y-81532135D01*
X77847213Y-81388028D01*
X77681613Y-81267715D01*
X77681612Y-81267714D01*
X77681610Y-81267713D01*
X77624653Y-81238691D01*
X77499223Y-81174781D01*
X77304534Y-81111522D01*
X77129995Y-81083878D01*
X77102352Y-81079500D01*
X76897648Y-81079500D01*
X76873329Y-81083351D01*
X76695465Y-81111522D01*
X76500776Y-81174781D01*
X76318386Y-81267715D01*
X76152786Y-81388028D01*
X76008028Y-81532786D01*
X75887715Y-81698386D01*
X75794781Y-81880776D01*
X75731522Y-82075465D01*
X75699500Y-82277648D01*
X72800500Y-82277648D01*
X72800500Y-82221158D01*
X72800500Y-82221155D01*
X72800499Y-82221153D01*
X72781767Y-82126982D01*
X72769737Y-82066503D01*
X72769735Y-82066498D01*
X72709397Y-81920827D01*
X72709390Y-81920814D01*
X72621789Y-81789711D01*
X72621786Y-81789707D01*
X72510292Y-81678213D01*
X72510288Y-81678210D01*
X72379185Y-81590609D01*
X72379172Y-81590602D01*
X72233501Y-81530264D01*
X72233489Y-81530261D01*
X72078845Y-81499500D01*
X72078842Y-81499500D01*
X71921158Y-81499500D01*
X71921155Y-81499500D01*
X71766510Y-81530261D01*
X71766498Y-81530264D01*
X71620827Y-81590602D01*
X71620814Y-81590609D01*
X71489711Y-81678210D01*
X71489707Y-81678213D01*
X71388240Y-81779681D01*
X71326917Y-81813166D01*
X71300559Y-81816000D01*
X68424499Y-81816000D01*
X68357460Y-81796315D01*
X68311705Y-81743511D01*
X68300499Y-81692000D01*
X68300499Y-81532129D01*
X68300498Y-81532123D01*
X68300497Y-81532116D01*
X68294091Y-81472517D01*
X68288007Y-81456206D01*
X68243797Y-81337671D01*
X68243793Y-81337664D01*
X68157547Y-81222455D01*
X68157544Y-81222452D01*
X68042335Y-81136206D01*
X68042328Y-81136202D01*
X67907482Y-81085908D01*
X67907483Y-81085908D01*
X67847883Y-81079501D01*
X67847881Y-81079500D01*
X67847873Y-81079500D01*
X67847864Y-81079500D01*
X66152129Y-81079500D01*
X66152123Y-81079501D01*
X66092516Y-81085908D01*
X65957671Y-81136202D01*
X65957664Y-81136206D01*
X65842455Y-81222452D01*
X65842452Y-81222455D01*
X65756206Y-81337664D01*
X65756202Y-81337671D01*
X65705908Y-81472517D01*
X65699700Y-81530263D01*
X65699501Y-81532123D01*
X65699500Y-81532135D01*
X65699500Y-81712000D01*
X65679815Y-81779039D01*
X65627011Y-81824794D01*
X65575500Y-81836000D01*
X63796405Y-81836000D01*
X63729366Y-81816315D01*
X63683611Y-81763511D01*
X63680223Y-81755333D01*
X63643797Y-81657671D01*
X63643793Y-81657664D01*
X63557547Y-81542455D01*
X63557544Y-81542452D01*
X63442335Y-81456206D01*
X63442328Y-81456202D01*
X63307482Y-81405908D01*
X63307483Y-81405908D01*
X63247883Y-81399501D01*
X63247881Y-81399500D01*
X63247873Y-81399500D01*
X63247864Y-81399500D01*
X62152129Y-81399500D01*
X62152123Y-81399501D01*
X62092516Y-81405908D01*
X61957671Y-81456202D01*
X61957664Y-81456206D01*
X61842455Y-81542452D01*
X61842452Y-81542455D01*
X61756206Y-81657664D01*
X61756202Y-81657671D01*
X61705908Y-81792517D01*
X61699501Y-81852116D01*
X61699500Y-81852135D01*
X48300500Y-81852135D01*
X48300500Y-77950000D01*
X55914791Y-77950000D01*
X57237639Y-77950000D01*
X57230743Y-77966649D01*
X57200000Y-78121207D01*
X57200000Y-78278793D01*
X57230743Y-78433351D01*
X57237639Y-78450000D01*
X55914792Y-78450000D01*
X55935930Y-78610565D01*
X56007180Y-78876471D01*
X56112520Y-79130787D01*
X56112527Y-79130802D01*
X56250166Y-79369201D01*
X56417749Y-79587597D01*
X56417757Y-79587606D01*
X56612394Y-79782243D01*
X56612402Y-79782250D01*
X56830798Y-79949833D01*
X57069197Y-80087472D01*
X57069212Y-80087479D01*
X57323528Y-80192819D01*
X57589431Y-80264068D01*
X57589438Y-80264069D01*
X57749999Y-80285206D01*
X57750000Y-80285206D01*
X57750000Y-78962360D01*
X57766649Y-78969257D01*
X57921207Y-79000000D01*
X58078793Y-79000000D01*
X58233351Y-78969257D01*
X58250000Y-78962360D01*
X58250000Y-80285206D01*
X58410561Y-80264069D01*
X58410568Y-80264068D01*
X58676471Y-80192819D01*
X58930787Y-80087479D01*
X58930802Y-80087472D01*
X59169201Y-79949833D01*
X59387597Y-79782250D01*
X59387606Y-79782243D01*
X59582243Y-79587606D01*
X59582250Y-79587597D01*
X59749833Y-79369201D01*
X59887472Y-79130802D01*
X59887479Y-79130787D01*
X59992819Y-78876471D01*
X60064069Y-78610565D01*
X60085208Y-78450000D01*
X58762361Y-78450000D01*
X58769257Y-78433351D01*
X58800000Y-78278793D01*
X58800000Y-78121207D01*
X58769257Y-77966649D01*
X58762361Y-77950000D01*
X60085208Y-77950000D01*
X60064069Y-77789434D01*
X59998538Y-77544870D01*
X59992819Y-77523528D01*
X59990383Y-77517648D01*
X65699500Y-77517648D01*
X65699500Y-77722351D01*
X65731522Y-77924534D01*
X65794781Y-78119223D01*
X65846545Y-78220814D01*
X65887712Y-78301609D01*
X65887715Y-78301613D01*
X66008028Y-78467213D01*
X66152786Y-78611971D01*
X66263067Y-78692093D01*
X66318390Y-78732287D01*
X66431083Y-78789707D01*
X66500776Y-78825218D01*
X66500778Y-78825218D01*
X66500781Y-78825220D01*
X66605137Y-78859127D01*
X66695465Y-78888477D01*
X66796557Y-78904488D01*
X66897648Y-78920500D01*
X66897649Y-78920500D01*
X67102351Y-78920500D01*
X67102352Y-78920500D01*
X67304534Y-78888477D01*
X67499219Y-78825220D01*
X67681610Y-78732287D01*
X67774590Y-78664732D01*
X67847213Y-78611971D01*
X67847215Y-78611968D01*
X67847219Y-78611966D01*
X67991966Y-78467219D01*
X67991968Y-78467215D01*
X67991971Y-78467213D01*
X68068171Y-78362331D01*
X68112287Y-78301610D01*
X68205220Y-78119219D01*
X68268477Y-77924534D01*
X68300500Y-77722352D01*
X68300500Y-77517648D01*
X68289558Y-77448561D01*
X68268477Y-77315465D01*
X68253253Y-77268613D01*
X68205220Y-77120781D01*
X68180434Y-77072135D01*
X70999500Y-77072135D01*
X70999500Y-78167870D01*
X70999501Y-78167876D01*
X71005908Y-78227483D01*
X71056202Y-78362328D01*
X71056206Y-78362335D01*
X71142452Y-78477544D01*
X71142455Y-78477547D01*
X71257664Y-78563793D01*
X71257669Y-78563796D01*
X71274675Y-78570139D01*
X71330608Y-78612011D01*
X71355025Y-78677475D01*
X71340173Y-78745748D01*
X71334444Y-78755211D01*
X71290608Y-78820816D01*
X71290602Y-78820827D01*
X71230264Y-78966498D01*
X71230261Y-78966510D01*
X71199500Y-79121153D01*
X71199500Y-79278846D01*
X71230261Y-79433489D01*
X71230264Y-79433501D01*
X71290602Y-79579172D01*
X71290609Y-79579185D01*
X71378210Y-79710288D01*
X71378213Y-79710292D01*
X71489707Y-79821786D01*
X71489711Y-79821789D01*
X71620814Y-79909390D01*
X71620827Y-79909397D01*
X71766498Y-79969735D01*
X71766503Y-79969737D01*
X71921153Y-80000499D01*
X71921156Y-80000500D01*
X71921158Y-80000500D01*
X72078844Y-80000500D01*
X72078845Y-80000499D01*
X72233497Y-79969737D01*
X72379179Y-79909394D01*
X72510289Y-79821789D01*
X72511117Y-79820961D01*
X72531760Y-79800319D01*
X72593083Y-79766834D01*
X72619441Y-79764000D01*
X76075500Y-79764000D01*
X76142539Y-79783685D01*
X76188294Y-79836489D01*
X76199500Y-79888000D01*
X76199500Y-79978846D01*
X76230261Y-80133489D01*
X76230264Y-80133501D01*
X76290602Y-80279172D01*
X76290609Y-80279185D01*
X76378210Y-80410288D01*
X76378213Y-80410292D01*
X76489707Y-80521786D01*
X76489711Y-80521789D01*
X76620814Y-80609390D01*
X76620827Y-80609397D01*
X76694445Y-80639890D01*
X76766503Y-80669737D01*
X76921153Y-80700499D01*
X76921156Y-80700500D01*
X76921158Y-80700500D01*
X77078844Y-80700500D01*
X77078845Y-80700499D01*
X77233497Y-80669737D01*
X77379179Y-80609394D01*
X77510289Y-80521789D01*
X77510292Y-80521786D01*
X77531760Y-80500319D01*
X77593083Y-80466834D01*
X77619441Y-80464000D01*
X95680559Y-80464000D01*
X95747598Y-80483685D01*
X95768240Y-80500319D01*
X95789707Y-80521786D01*
X95789711Y-80521789D01*
X95920814Y-80609390D01*
X95920827Y-80609397D01*
X95994445Y-80639890D01*
X96066503Y-80669737D01*
X96221153Y-80700499D01*
X96221156Y-80700500D01*
X96221158Y-80700500D01*
X96378844Y-80700500D01*
X96378845Y-80700499D01*
X96533497Y-80669737D01*
X96679179Y-80609394D01*
X96810289Y-80521789D01*
X96921789Y-80410289D01*
X97009394Y-80279179D01*
X97069737Y-80133497D01*
X97100500Y-79978842D01*
X97100500Y-79888000D01*
X97120185Y-79820961D01*
X97172989Y-79775206D01*
X97224500Y-79764000D01*
X97981575Y-79764000D01*
X98048614Y-79783685D01*
X98073788Y-79806096D01*
X98073903Y-79805982D01*
X98075874Y-79807953D01*
X98077432Y-79809340D01*
X98078214Y-79810293D01*
X98189707Y-79921786D01*
X98189711Y-79921789D01*
X98320814Y-80009390D01*
X98320827Y-80009397D01*
X98466498Y-80069735D01*
X98466503Y-80069737D01*
X98621153Y-80100499D01*
X98621156Y-80100500D01*
X98621158Y-80100500D01*
X98778844Y-80100500D01*
X98778845Y-80100499D01*
X98933497Y-80069737D01*
X99079179Y-80009394D01*
X99210289Y-79921789D01*
X99321789Y-79810289D01*
X99409394Y-79679179D01*
X99469737Y-79533497D01*
X99500500Y-79378842D01*
X99500500Y-79221158D01*
X99500500Y-79221155D01*
X99500499Y-79221153D01*
X99481111Y-79123685D01*
X99469737Y-79066503D01*
X99433569Y-78979185D01*
X99409397Y-78920827D01*
X99409390Y-78920814D01*
X99321789Y-78789711D01*
X99321786Y-78789707D01*
X99210292Y-78678213D01*
X99210288Y-78678210D01*
X99120429Y-78618168D01*
X99079185Y-78590609D01*
X99079172Y-78590602D01*
X98933501Y-78530264D01*
X98933489Y-78530261D01*
X98887701Y-78521153D01*
X100599500Y-78521153D01*
X100599500Y-78678846D01*
X100630261Y-78833489D01*
X100630264Y-78833501D01*
X100690602Y-78979172D01*
X100690609Y-78979185D01*
X100778210Y-79110288D01*
X100778213Y-79110292D01*
X100889707Y-79221786D01*
X100889711Y-79221789D01*
X101020814Y-79309390D01*
X101020827Y-79309397D01*
X101165209Y-79369201D01*
X101166503Y-79369737D01*
X101321153Y-79400499D01*
X101321156Y-79400500D01*
X101321158Y-79400500D01*
X101478844Y-79400500D01*
X101478845Y-79400499D01*
X101633497Y-79369737D01*
X101779179Y-79309394D01*
X101910289Y-79221789D01*
X101991760Y-79140317D01*
X102053081Y-79106834D01*
X102079440Y-79104000D01*
X116133145Y-79104000D01*
X116200184Y-79123685D01*
X116243628Y-79171703D01*
X116309783Y-79301538D01*
X116444214Y-79486566D01*
X116605934Y-79648286D01*
X116690864Y-79709991D01*
X116733529Y-79765321D01*
X116739508Y-79834935D01*
X116706902Y-79896730D01*
X116690864Y-79910627D01*
X116606257Y-79972097D01*
X116444597Y-80133757D01*
X116310211Y-80318723D01*
X116206417Y-80522429D01*
X116135765Y-80739871D01*
X116121491Y-80830000D01*
X117109252Y-80830000D01*
X117087482Y-80867708D01*
X117050000Y-81007591D01*
X117050000Y-81152409D01*
X117087482Y-81292292D01*
X117109252Y-81330000D01*
X116121491Y-81330000D01*
X116135765Y-81420128D01*
X116206417Y-81637570D01*
X116310211Y-81841276D01*
X116444597Y-82026242D01*
X116606257Y-82187902D01*
X116791223Y-82322288D01*
X116994929Y-82426082D01*
X117212371Y-82496734D01*
X117350000Y-82518532D01*
X117350000Y-81570747D01*
X117387708Y-81592518D01*
X117527591Y-81630000D01*
X117672409Y-81630000D01*
X117812292Y-81592518D01*
X117850000Y-81570747D01*
X117850000Y-82518531D01*
X117987628Y-82496734D01*
X118205070Y-82426082D01*
X118408776Y-82322288D01*
X118593742Y-82187902D01*
X118755402Y-82026242D01*
X118889788Y-81841276D01*
X118993582Y-81637570D01*
X119064234Y-81420128D01*
X119078509Y-81330000D01*
X118090748Y-81330000D01*
X118112518Y-81292292D01*
X118150000Y-81152409D01*
X118150000Y-81007591D01*
X118112518Y-80867708D01*
X118090748Y-80830000D01*
X119078509Y-80830000D01*
X119064234Y-80739871D01*
X118993582Y-80522429D01*
X118889788Y-80318723D01*
X118755402Y-80133757D01*
X118593742Y-79972097D01*
X118509135Y-79910626D01*
X118466470Y-79855296D01*
X118460491Y-79785682D01*
X118493097Y-79723887D01*
X118509125Y-79709999D01*
X118594066Y-79648286D01*
X118755786Y-79486566D01*
X118890217Y-79301538D01*
X118994048Y-79097758D01*
X119004205Y-79066498D01*
X119064721Y-78880249D01*
X119064721Y-78880248D01*
X119064722Y-78880245D01*
X119100500Y-78654354D01*
X119100500Y-78425646D01*
X119064722Y-78199755D01*
X119064721Y-78199751D01*
X119064721Y-78199750D01*
X118994049Y-77982244D01*
X118929181Y-77854933D01*
X118897621Y-77792993D01*
X118890217Y-77778462D01*
X118757472Y-77595755D01*
X118733994Y-77529953D01*
X118749819Y-77461899D01*
X118799925Y-77413204D01*
X118814455Y-77406692D01*
X118842331Y-77396296D01*
X118957546Y-77310046D01*
X119043796Y-77194831D01*
X119094091Y-77059983D01*
X119100500Y-77000373D01*
X119100500Y-76702155D01*
X123650000Y-76702155D01*
X123650000Y-77350000D01*
X124566988Y-77350000D01*
X124534075Y-77407007D01*
X124500000Y-77534174D01*
X124500000Y-77665826D01*
X124534075Y-77792993D01*
X124566988Y-77850000D01*
X123650000Y-77850000D01*
X123650000Y-78497844D01*
X123656401Y-78557372D01*
X123656403Y-78557379D01*
X123706645Y-78692086D01*
X123706649Y-78692093D01*
X123792809Y-78807187D01*
X123792812Y-78807190D01*
X123907906Y-78893350D01*
X123907913Y-78893354D01*
X124042620Y-78943596D01*
X124042627Y-78943598D01*
X124102155Y-78949999D01*
X124102172Y-78950000D01*
X124750000Y-78950000D01*
X124750000Y-78033012D01*
X124807007Y-78065925D01*
X124934174Y-78100000D01*
X125065826Y-78100000D01*
X125192993Y-78065925D01*
X125250000Y-78033012D01*
X125250000Y-78950000D01*
X125897828Y-78950000D01*
X125897844Y-78949999D01*
X125957372Y-78943598D01*
X125957379Y-78943596D01*
X126092086Y-78893354D01*
X126092093Y-78893350D01*
X126207187Y-78807190D01*
X126207190Y-78807187D01*
X126293350Y-78692093D01*
X126293354Y-78692086D01*
X126343596Y-78557379D01*
X126343598Y-78557372D01*
X126349999Y-78497844D01*
X126350000Y-78497827D01*
X126350000Y-77850000D01*
X125433012Y-77850000D01*
X125465925Y-77792993D01*
X125500000Y-77665826D01*
X125500000Y-77534174D01*
X125465925Y-77407007D01*
X125433012Y-77350000D01*
X126350000Y-77350000D01*
X126350000Y-76702172D01*
X126349999Y-76702155D01*
X126343598Y-76642627D01*
X126343596Y-76642620D01*
X126293354Y-76507913D01*
X126293350Y-76507906D01*
X126207190Y-76392812D01*
X126207187Y-76392809D01*
X126092093Y-76306649D01*
X126092086Y-76306645D01*
X125957379Y-76256403D01*
X125957372Y-76256401D01*
X125897844Y-76250000D01*
X125250000Y-76250000D01*
X125250000Y-77166988D01*
X125192993Y-77134075D01*
X125065826Y-77100000D01*
X124934174Y-77100000D01*
X124807007Y-77134075D01*
X124750000Y-77166988D01*
X124750000Y-76250000D01*
X124102155Y-76250000D01*
X124042627Y-76256401D01*
X124042620Y-76256403D01*
X123907913Y-76306645D01*
X123907906Y-76306649D01*
X123792812Y-76392809D01*
X123792809Y-76392812D01*
X123706649Y-76507906D01*
X123706645Y-76507913D01*
X123656403Y-76642620D01*
X123656401Y-76642627D01*
X123650000Y-76702155D01*
X119100500Y-76702155D01*
X119100499Y-75995690D01*
X119100499Y-74999629D01*
X119100498Y-74999623D01*
X119100497Y-74999616D01*
X119094091Y-74940017D01*
X119043796Y-74805169D01*
X119043795Y-74805168D01*
X119043793Y-74805164D01*
X118957547Y-74689955D01*
X118957544Y-74689952D01*
X118842335Y-74603706D01*
X118842328Y-74603702D01*
X118707482Y-74553408D01*
X118707483Y-74553408D01*
X118647883Y-74547001D01*
X118647881Y-74547000D01*
X118647873Y-74547000D01*
X118647864Y-74547000D01*
X116552129Y-74547000D01*
X116552123Y-74547001D01*
X116492516Y-74553408D01*
X116357671Y-74603702D01*
X116357664Y-74603706D01*
X116242455Y-74689952D01*
X116242452Y-74689955D01*
X116156206Y-74805164D01*
X116156202Y-74805171D01*
X116105908Y-74940017D01*
X116099501Y-74999616D01*
X116099501Y-74999623D01*
X116099500Y-74999635D01*
X116099500Y-75312000D01*
X116079815Y-75379039D01*
X116027011Y-75424794D01*
X115975500Y-75436000D01*
X115419441Y-75436000D01*
X115352402Y-75416315D01*
X115331760Y-75399681D01*
X115310292Y-75378213D01*
X115310288Y-75378210D01*
X115179185Y-75290609D01*
X115179172Y-75290602D01*
X115033501Y-75230264D01*
X115033489Y-75230261D01*
X114878845Y-75199500D01*
X114878842Y-75199500D01*
X114721158Y-75199500D01*
X114721155Y-75199500D01*
X114566510Y-75230261D01*
X114566498Y-75230264D01*
X114420827Y-75290602D01*
X114420814Y-75290609D01*
X114289711Y-75378210D01*
X114289707Y-75378213D01*
X114178213Y-75489707D01*
X114178210Y-75489711D01*
X114090609Y-75620814D01*
X114090602Y-75620827D01*
X114030264Y-75766498D01*
X114030261Y-75766510D01*
X113999500Y-75921153D01*
X113999500Y-76078846D01*
X114030261Y-76233489D01*
X114030264Y-76233501D01*
X114090602Y-76379172D01*
X114090609Y-76379185D01*
X114178210Y-76510288D01*
X114178213Y-76510292D01*
X114289707Y-76621786D01*
X114289711Y-76621789D01*
X114420814Y-76709390D01*
X114420827Y-76709397D01*
X114566498Y-76769735D01*
X114566503Y-76769737D01*
X114721153Y-76800499D01*
X114721156Y-76800500D01*
X114721158Y-76800500D01*
X114878844Y-76800500D01*
X114878845Y-76800499D01*
X115033497Y-76769737D01*
X115179179Y-76709394D01*
X115310289Y-76621789D01*
X115314329Y-76617749D01*
X115331760Y-76600319D01*
X115393083Y-76566834D01*
X115419441Y-76564000D01*
X115975501Y-76564000D01*
X116042540Y-76583685D01*
X116088295Y-76636489D01*
X116099501Y-76688000D01*
X116099501Y-77000376D01*
X116105908Y-77059983D01*
X116156202Y-77194828D01*
X116156206Y-77194835D01*
X116242452Y-77310044D01*
X116242455Y-77310047D01*
X116357664Y-77396293D01*
X116357669Y-77396296D01*
X116385539Y-77406690D01*
X116441473Y-77448561D01*
X116465891Y-77514024D01*
X116451040Y-77582298D01*
X116442525Y-77595759D01*
X116309783Y-77778461D01*
X116243630Y-77908295D01*
X116195656Y-77959091D01*
X116133145Y-77976000D01*
X101944595Y-77976000D01*
X101877556Y-77956315D01*
X101875704Y-77955102D01*
X101779185Y-77890609D01*
X101779172Y-77890602D01*
X101633501Y-77830264D01*
X101633489Y-77830261D01*
X101478845Y-77799500D01*
X101478842Y-77799500D01*
X101321158Y-77799500D01*
X101321155Y-77799500D01*
X101166510Y-77830261D01*
X101166498Y-77830264D01*
X101020827Y-77890602D01*
X101020814Y-77890609D01*
X100889711Y-77978210D01*
X100889707Y-77978213D01*
X100778213Y-78089707D01*
X100778210Y-78089711D01*
X100690609Y-78220814D01*
X100690602Y-78220827D01*
X100630264Y-78366498D01*
X100630261Y-78366510D01*
X100599500Y-78521153D01*
X98887701Y-78521153D01*
X98778845Y-78499500D01*
X98778842Y-78499500D01*
X98621158Y-78499500D01*
X98621155Y-78499500D01*
X98466510Y-78530261D01*
X98466498Y-78530264D01*
X98320827Y-78590602D01*
X98320820Y-78590606D01*
X98308161Y-78599065D01*
X98284159Y-78615102D01*
X98217483Y-78635980D01*
X98215269Y-78636000D01*
X78112704Y-78636000D01*
X78045665Y-78616315D01*
X77999910Y-78563511D01*
X77989966Y-78494353D01*
X78012385Y-78439115D01*
X78068171Y-78362331D01*
X78112287Y-78301610D01*
X78205220Y-78119219D01*
X78268477Y-77924534D01*
X78300500Y-77722352D01*
X78300500Y-77517648D01*
X78289558Y-77448561D01*
X78268477Y-77315465D01*
X78230928Y-77199901D01*
X78205220Y-77120781D01*
X78205218Y-77120778D01*
X78205218Y-77120776D01*
X78159371Y-77030798D01*
X78112287Y-76938390D01*
X78104556Y-76927749D01*
X77991971Y-76772786D01*
X77847213Y-76628028D01*
X77681613Y-76507715D01*
X77681612Y-76507714D01*
X77681610Y-76507713D01*
X77624653Y-76478691D01*
X77499223Y-76414781D01*
X77304534Y-76351522D01*
X77129995Y-76323878D01*
X77102352Y-76319500D01*
X76897648Y-76319500D01*
X76873329Y-76323351D01*
X76695465Y-76351522D01*
X76500776Y-76414781D01*
X76318386Y-76507715D01*
X76152786Y-76628028D01*
X76008028Y-76772786D01*
X75887715Y-76938386D01*
X75862285Y-76988295D01*
X75814310Y-77039091D01*
X75751800Y-77056000D01*
X73096405Y-77056000D01*
X73029366Y-77036315D01*
X72983611Y-76983511D01*
X72980223Y-76975333D01*
X72943797Y-76877671D01*
X72943793Y-76877664D01*
X72857547Y-76762455D01*
X72857544Y-76762452D01*
X72742335Y-76676206D01*
X72742328Y-76676202D01*
X72607482Y-76625908D01*
X72607483Y-76625908D01*
X72547883Y-76619501D01*
X72547881Y-76619500D01*
X72547873Y-76619500D01*
X72547864Y-76619500D01*
X71452129Y-76619500D01*
X71452123Y-76619501D01*
X71392516Y-76625908D01*
X71257671Y-76676202D01*
X71257664Y-76676206D01*
X71142455Y-76762452D01*
X71142452Y-76762455D01*
X71056206Y-76877664D01*
X71056202Y-76877671D01*
X71005908Y-77012517D01*
X70999501Y-77072116D01*
X70999500Y-77072135D01*
X68180434Y-77072135D01*
X68112287Y-76938390D01*
X68112285Y-76938387D01*
X68112284Y-76938385D01*
X67991971Y-76772786D01*
X67847213Y-76628028D01*
X67681613Y-76507715D01*
X67681612Y-76507714D01*
X67681610Y-76507713D01*
X67624653Y-76478691D01*
X67499223Y-76414781D01*
X67304534Y-76351522D01*
X67129995Y-76323878D01*
X67102352Y-76319500D01*
X66897648Y-76319500D01*
X66873329Y-76323351D01*
X66695465Y-76351522D01*
X66500776Y-76414781D01*
X66318386Y-76507715D01*
X66152786Y-76628028D01*
X66008028Y-76772786D01*
X65887715Y-76938386D01*
X65794781Y-77120776D01*
X65731522Y-77315465D01*
X65699500Y-77517648D01*
X59990383Y-77517648D01*
X59887479Y-77269212D01*
X59887472Y-77269197D01*
X59749833Y-77030798D01*
X59582250Y-76812402D01*
X59582243Y-76812394D01*
X59387606Y-76617757D01*
X59387597Y-76617749D01*
X59169201Y-76450166D01*
X58930802Y-76312527D01*
X58930787Y-76312520D01*
X58676471Y-76207180D01*
X58410565Y-76135930D01*
X58250000Y-76114791D01*
X58250000Y-77437639D01*
X58233351Y-77430743D01*
X58078793Y-77400000D01*
X57921207Y-77400000D01*
X57766649Y-77430743D01*
X57750000Y-77437639D01*
X57750000Y-76114791D01*
X57589434Y-76135930D01*
X57323528Y-76207180D01*
X57069212Y-76312520D01*
X57069197Y-76312527D01*
X56830798Y-76450166D01*
X56612402Y-76617749D01*
X56417749Y-76812402D01*
X56250166Y-77030798D01*
X56112527Y-77269197D01*
X56112520Y-77269212D01*
X56007180Y-77523528D01*
X55935930Y-77789434D01*
X55914791Y-77950000D01*
X48300500Y-77950000D01*
X48300500Y-74985513D01*
X80799500Y-74985513D01*
X80799500Y-75174486D01*
X80829059Y-75361118D01*
X80887454Y-75540836D01*
X80971126Y-75705051D01*
X80973240Y-75709199D01*
X81084310Y-75862073D01*
X81217927Y-75995690D01*
X81370801Y-76106760D01*
X81428051Y-76135930D01*
X81539163Y-76192545D01*
X81539165Y-76192545D01*
X81539168Y-76192547D01*
X81635497Y-76223846D01*
X81718881Y-76250940D01*
X81905514Y-76280500D01*
X81905519Y-76280500D01*
X82094486Y-76280500D01*
X82281118Y-76250940D01*
X82334789Y-76233501D01*
X82460832Y-76192547D01*
X82629199Y-76106760D01*
X82782073Y-75995690D01*
X82915690Y-75862073D01*
X83026760Y-75709199D01*
X83026762Y-75709193D01*
X83029301Y-75705051D01*
X83030868Y-75706011D01*
X83073435Y-75660922D01*
X83135967Y-75644000D01*
X83864033Y-75644000D01*
X83931072Y-75663685D01*
X83969277Y-75705922D01*
X83970699Y-75705051D01*
X83973242Y-75709203D01*
X84011319Y-75761610D01*
X84084310Y-75862073D01*
X84217927Y-75995690D01*
X84370801Y-76106760D01*
X84428051Y-76135930D01*
X84539163Y-76192545D01*
X84539165Y-76192545D01*
X84539168Y-76192547D01*
X84635497Y-76223846D01*
X84718881Y-76250940D01*
X84905514Y-76280500D01*
X84905519Y-76280500D01*
X85094486Y-76280500D01*
X85281118Y-76250940D01*
X85334789Y-76233501D01*
X85460832Y-76192547D01*
X85629199Y-76106760D01*
X85782073Y-75995690D01*
X85915690Y-75862073D01*
X86026760Y-75709199D01*
X86112547Y-75540832D01*
X86170940Y-75361118D01*
X86200500Y-75174486D01*
X86200500Y-74985513D01*
X88879500Y-74985513D01*
X88879500Y-75174486D01*
X88909059Y-75361118D01*
X88967454Y-75540836D01*
X89051126Y-75705051D01*
X89053240Y-75709199D01*
X89164310Y-75862073D01*
X89297927Y-75995690D01*
X89450801Y-76106760D01*
X89508051Y-76135930D01*
X89619163Y-76192545D01*
X89619165Y-76192545D01*
X89619168Y-76192547D01*
X89715497Y-76223846D01*
X89798881Y-76250940D01*
X89985514Y-76280500D01*
X89985519Y-76280500D01*
X90174486Y-76280500D01*
X90361118Y-76250940D01*
X90414789Y-76233501D01*
X90540832Y-76192547D01*
X90709199Y-76106760D01*
X90862073Y-75995690D01*
X90995690Y-75862073D01*
X91106760Y-75709199D01*
X91106762Y-75709193D01*
X91109301Y-75705051D01*
X91110868Y-75706011D01*
X91153435Y-75660922D01*
X91215967Y-75644000D01*
X92481800Y-75644000D01*
X92548839Y-75663685D01*
X92592285Y-75711705D01*
X92617715Y-75761613D01*
X92738028Y-75927213D01*
X92882786Y-76071971D01*
X93037749Y-76184556D01*
X93048390Y-76192287D01*
X93129277Y-76233501D01*
X93230776Y-76285218D01*
X93230778Y-76285218D01*
X93230781Y-76285220D01*
X93335137Y-76319127D01*
X93425465Y-76348477D01*
X93444697Y-76351523D01*
X93627648Y-76380500D01*
X93627649Y-76380500D01*
X93832351Y-76380500D01*
X93832352Y-76380500D01*
X94034534Y-76348477D01*
X94229219Y-76285220D01*
X94411610Y-76192287D01*
X94529330Y-76106759D01*
X94577213Y-76071971D01*
X94577215Y-76071968D01*
X94577219Y-76071966D01*
X94721966Y-75927219D01*
X94721968Y-75927215D01*
X94721971Y-75927213D01*
X94774732Y-75854590D01*
X94842287Y-75761610D01*
X94935220Y-75579219D01*
X94998477Y-75384534D01*
X95030500Y-75182352D01*
X95030500Y-74977648D01*
X100049500Y-74977648D01*
X100049500Y-75182351D01*
X100081522Y-75384534D01*
X100144781Y-75579223D01*
X100237715Y-75761613D01*
X100358028Y-75927213D01*
X100502786Y-76071971D01*
X100657749Y-76184556D01*
X100668390Y-76192287D01*
X100749277Y-76233501D01*
X100850776Y-76285218D01*
X100850778Y-76285218D01*
X100850781Y-76285220D01*
X100955137Y-76319127D01*
X101045465Y-76348477D01*
X101064697Y-76351523D01*
X101247648Y-76380500D01*
X101247649Y-76380500D01*
X101452351Y-76380500D01*
X101452352Y-76380500D01*
X101654534Y-76348477D01*
X101849219Y-76285220D01*
X102031610Y-76192287D01*
X102149330Y-76106759D01*
X102197213Y-76071971D01*
X102197215Y-76071968D01*
X102197219Y-76071966D01*
X102341966Y-75927219D01*
X102341968Y-75927215D01*
X102341971Y-75927213D01*
X102394732Y-75854590D01*
X102462287Y-75761610D01*
X102555220Y-75579219D01*
X102618477Y-75384534D01*
X102650500Y-75182352D01*
X102650500Y-74977648D01*
X102618477Y-74775466D01*
X102555220Y-74580781D01*
X102555218Y-74580778D01*
X102555218Y-74580776D01*
X102491105Y-74454949D01*
X102462287Y-74398390D01*
X102454556Y-74387749D01*
X102341971Y-74232786D01*
X102197213Y-74088028D01*
X102031613Y-73967715D01*
X102031612Y-73967714D01*
X102031610Y-73967713D01*
X101974653Y-73938691D01*
X101849223Y-73874781D01*
X101654534Y-73811522D01*
X101479995Y-73783878D01*
X101452352Y-73779500D01*
X101247648Y-73779500D01*
X101223329Y-73783351D01*
X101045465Y-73811522D01*
X100850776Y-73874781D01*
X100668386Y-73967715D01*
X100502786Y-74088028D01*
X100358028Y-74232786D01*
X100237715Y-74398386D01*
X100144781Y-74580776D01*
X100081522Y-74775465D01*
X100049500Y-74977648D01*
X95030500Y-74977648D01*
X94998477Y-74775466D01*
X94935220Y-74580781D01*
X94935218Y-74580778D01*
X94935218Y-74580776D01*
X94871105Y-74454949D01*
X94842287Y-74398390D01*
X94834556Y-74387749D01*
X94721971Y-74232786D01*
X94577213Y-74088028D01*
X94411613Y-73967715D01*
X94411612Y-73967714D01*
X94411610Y-73967713D01*
X94354653Y-73938691D01*
X94229223Y-73874781D01*
X94034534Y-73811522D01*
X93859995Y-73783878D01*
X93832352Y-73779500D01*
X93627648Y-73779500D01*
X93603329Y-73783351D01*
X93425465Y-73811522D01*
X93230776Y-73874781D01*
X93048386Y-73967715D01*
X92882786Y-74088028D01*
X92738028Y-74232786D01*
X92617715Y-74398386D01*
X92592285Y-74448295D01*
X92544310Y-74499091D01*
X92481800Y-74516000D01*
X91215967Y-74516000D01*
X91148928Y-74496315D01*
X91110722Y-74454077D01*
X91109301Y-74454949D01*
X91106757Y-74450796D01*
X91068678Y-74398386D01*
X90995690Y-74297927D01*
X90862073Y-74164310D01*
X90709199Y-74053240D01*
X90540836Y-73967454D01*
X90361118Y-73909059D01*
X90174486Y-73879500D01*
X90174481Y-73879500D01*
X89985519Y-73879500D01*
X89985514Y-73879500D01*
X89798881Y-73909059D01*
X89619163Y-73967454D01*
X89450800Y-74053240D01*
X89402911Y-74088034D01*
X89297927Y-74164310D01*
X89297925Y-74164312D01*
X89297924Y-74164312D01*
X89164312Y-74297924D01*
X89164312Y-74297925D01*
X89164310Y-74297927D01*
X89116610Y-74363579D01*
X89053240Y-74450800D01*
X88967454Y-74619163D01*
X88909059Y-74798881D01*
X88879500Y-74985513D01*
X86200500Y-74985513D01*
X86170940Y-74798881D01*
X86112545Y-74619163D01*
X86049950Y-74496315D01*
X86026760Y-74450801D01*
X85915690Y-74297927D01*
X85782073Y-74164310D01*
X85629199Y-74053240D01*
X85460836Y-73967454D01*
X85281118Y-73909059D01*
X85094486Y-73879500D01*
X85094481Y-73879500D01*
X84905519Y-73879500D01*
X84905514Y-73879500D01*
X84718881Y-73909059D01*
X84539163Y-73967454D01*
X84370800Y-74053240D01*
X84322911Y-74088034D01*
X84217927Y-74164310D01*
X84217925Y-74164312D01*
X84217924Y-74164312D01*
X84084312Y-74297924D01*
X84084312Y-74297925D01*
X84084310Y-74297927D01*
X84056442Y-74336282D01*
X83973242Y-74450796D01*
X83970699Y-74454949D01*
X83969131Y-74453988D01*
X83926565Y-74499078D01*
X83864033Y-74516000D01*
X83135967Y-74516000D01*
X83068928Y-74496315D01*
X83030722Y-74454077D01*
X83029301Y-74454949D01*
X83026757Y-74450796D01*
X82988678Y-74398386D01*
X82915690Y-74297927D01*
X82782073Y-74164310D01*
X82629199Y-74053240D01*
X82460836Y-73967454D01*
X82281118Y-73909059D01*
X82094486Y-73879500D01*
X82094481Y-73879500D01*
X81905519Y-73879500D01*
X81905514Y-73879500D01*
X81718881Y-73909059D01*
X81539163Y-73967454D01*
X81370800Y-74053240D01*
X81322911Y-74088034D01*
X81217927Y-74164310D01*
X81217925Y-74164312D01*
X81217924Y-74164312D01*
X81084312Y-74297924D01*
X81084312Y-74297925D01*
X81084310Y-74297927D01*
X81036610Y-74363579D01*
X80973240Y-74450800D01*
X80887454Y-74619163D01*
X80829059Y-74798881D01*
X80799500Y-74985513D01*
X48300500Y-74985513D01*
X48300500Y-72221153D01*
X116799500Y-72221153D01*
X116799500Y-72378846D01*
X116830261Y-72533489D01*
X116830264Y-72533501D01*
X116890602Y-72679172D01*
X116890609Y-72679185D01*
X116978210Y-72810288D01*
X116978213Y-72810292D01*
X117089707Y-72921786D01*
X117089711Y-72921789D01*
X117220814Y-73009390D01*
X117220827Y-73009397D01*
X117366498Y-73069735D01*
X117366503Y-73069737D01*
X117521153Y-73100499D01*
X117521156Y-73100500D01*
X117521158Y-73100500D01*
X117678844Y-73100500D01*
X117678845Y-73100499D01*
X117833497Y-73069737D01*
X117979179Y-73009394D01*
X118110289Y-72921789D01*
X118110292Y-72921786D01*
X118131760Y-72900319D01*
X118193083Y-72866834D01*
X118219441Y-72864000D01*
X123525501Y-72864000D01*
X123592540Y-72883685D01*
X123638295Y-72936489D01*
X123649501Y-72988000D01*
X123649501Y-73197876D01*
X123655908Y-73257483D01*
X123706202Y-73392328D01*
X123706206Y-73392335D01*
X123792452Y-73507544D01*
X123792455Y-73507547D01*
X123907664Y-73593793D01*
X123907671Y-73593797D01*
X124042517Y-73644091D01*
X124042516Y-73644091D01*
X124049444Y-73644835D01*
X124102127Y-73650500D01*
X125897872Y-73650499D01*
X125957483Y-73644091D01*
X126092331Y-73593796D01*
X126207546Y-73507546D01*
X126293796Y-73392331D01*
X126344091Y-73257483D01*
X126350500Y-73197873D01*
X126350499Y-71402128D01*
X126344091Y-71342517D01*
X126293796Y-71207669D01*
X126293795Y-71207668D01*
X126293793Y-71207664D01*
X126207547Y-71092455D01*
X126207544Y-71092452D01*
X126092335Y-71006206D01*
X126092328Y-71006202D01*
X125957482Y-70955908D01*
X125957483Y-70955908D01*
X125897883Y-70949501D01*
X125897881Y-70949500D01*
X125897873Y-70949500D01*
X125897864Y-70949500D01*
X124102129Y-70949500D01*
X124102123Y-70949501D01*
X124042516Y-70955908D01*
X123907671Y-71006202D01*
X123907664Y-71006206D01*
X123792455Y-71092452D01*
X123792452Y-71092455D01*
X123706206Y-71207664D01*
X123706202Y-71207671D01*
X123655908Y-71342517D01*
X123649501Y-71402116D01*
X123649501Y-71402123D01*
X123649500Y-71402135D01*
X123649500Y-71612000D01*
X123629815Y-71679039D01*
X123577011Y-71724794D01*
X123525500Y-71736000D01*
X118219441Y-71736000D01*
X118152402Y-71716315D01*
X118131760Y-71699681D01*
X118110292Y-71678213D01*
X118110288Y-71678210D01*
X117979185Y-71590609D01*
X117979172Y-71590602D01*
X117833501Y-71530264D01*
X117833489Y-71530261D01*
X117678845Y-71499500D01*
X117678842Y-71499500D01*
X117521158Y-71499500D01*
X117521155Y-71499500D01*
X117366510Y-71530261D01*
X117366498Y-71530264D01*
X117220827Y-71590602D01*
X117220814Y-71590609D01*
X117089711Y-71678210D01*
X117089707Y-71678213D01*
X116978213Y-71789707D01*
X116978210Y-71789711D01*
X116890609Y-71920814D01*
X116890602Y-71920827D01*
X116830264Y-72066498D01*
X116830261Y-72066510D01*
X116799500Y-72221153D01*
X48300500Y-72221153D01*
X48300500Y-69897648D01*
X65699500Y-69897648D01*
X65699500Y-70102351D01*
X65731522Y-70304534D01*
X65794781Y-70499223D01*
X65887715Y-70681613D01*
X66008028Y-70847213D01*
X66152786Y-70991971D01*
X66291089Y-71092452D01*
X66318390Y-71112287D01*
X66433503Y-71170940D01*
X66500776Y-71205218D01*
X66500778Y-71205218D01*
X66500781Y-71205220D01*
X66605137Y-71239127D01*
X66695465Y-71268477D01*
X66796557Y-71284488D01*
X66897648Y-71300500D01*
X66897649Y-71300500D01*
X67102351Y-71300500D01*
X67102352Y-71300500D01*
X67304534Y-71268477D01*
X67499219Y-71205220D01*
X67681610Y-71112287D01*
X67799330Y-71026759D01*
X67847213Y-70991971D01*
X67847215Y-70991968D01*
X67847219Y-70991966D01*
X67991966Y-70847219D01*
X67991968Y-70847215D01*
X67991971Y-70847213D01*
X68107644Y-70688000D01*
X68112287Y-70681610D01*
X68137715Y-70631705D01*
X68185690Y-70580909D01*
X68248200Y-70564000D01*
X75751800Y-70564000D01*
X75818839Y-70583685D01*
X75862285Y-70631705D01*
X75887715Y-70681613D01*
X76008028Y-70847213D01*
X76152786Y-70991971D01*
X76291089Y-71092452D01*
X76318390Y-71112287D01*
X76433503Y-71170940D01*
X76500776Y-71205218D01*
X76500778Y-71205218D01*
X76500781Y-71205220D01*
X76605137Y-71239127D01*
X76695465Y-71268477D01*
X76796557Y-71284488D01*
X76897648Y-71300500D01*
X76897649Y-71300500D01*
X77102351Y-71300500D01*
X77102352Y-71300500D01*
X77304534Y-71268477D01*
X77499219Y-71205220D01*
X77681610Y-71112287D01*
X77799330Y-71026759D01*
X77847213Y-70991971D01*
X77847215Y-70991968D01*
X77847219Y-70991966D01*
X77991966Y-70847219D01*
X77991968Y-70847215D01*
X77991971Y-70847213D01*
X78107644Y-70688000D01*
X78112287Y-70681610D01*
X78137715Y-70631705D01*
X78185690Y-70580909D01*
X78248200Y-70564000D01*
X80864033Y-70564000D01*
X80931072Y-70583685D01*
X80969277Y-70625922D01*
X80970699Y-70625051D01*
X80973242Y-70629203D01*
X81011319Y-70681610D01*
X81084310Y-70782073D01*
X81217927Y-70915690D01*
X81370801Y-71026760D01*
X81450347Y-71067290D01*
X81539163Y-71112545D01*
X81539165Y-71112545D01*
X81539168Y-71112547D01*
X81635497Y-71143846D01*
X81718881Y-71170940D01*
X81905514Y-71200500D01*
X81905519Y-71200500D01*
X82094486Y-71200500D01*
X82281118Y-71170940D01*
X82460832Y-71112547D01*
X82629199Y-71026760D01*
X82782073Y-70915690D01*
X82915690Y-70782073D01*
X83026760Y-70629199D01*
X83026762Y-70629193D01*
X83029301Y-70625051D01*
X83030868Y-70626011D01*
X83073435Y-70580922D01*
X83135967Y-70564000D01*
X106775501Y-70564000D01*
X106842540Y-70583685D01*
X106888295Y-70636489D01*
X106899501Y-70688000D01*
X106899501Y-71647876D01*
X106905908Y-71707483D01*
X106956202Y-71842328D01*
X106956206Y-71842335D01*
X107042452Y-71957544D01*
X107042455Y-71957547D01*
X107157664Y-72043793D01*
X107157671Y-72043797D01*
X107292517Y-72094091D01*
X107292516Y-72094091D01*
X107299444Y-72094835D01*
X107352127Y-72100500D01*
X110647872Y-72100499D01*
X110707483Y-72094091D01*
X110842331Y-72043796D01*
X110957546Y-71957546D01*
X111043796Y-71842331D01*
X111094091Y-71707483D01*
X111100500Y-71647873D01*
X111100500Y-70688000D01*
X111120185Y-70620961D01*
X111172989Y-70575206D01*
X111224500Y-70564000D01*
X122774251Y-70564000D01*
X122774253Y-70564000D01*
X122917696Y-70525565D01*
X123046304Y-70451313D01*
X123151313Y-70346304D01*
X123151313Y-70346302D01*
X123161517Y-70336099D01*
X123161521Y-70336094D01*
X124410797Y-69086818D01*
X124472120Y-69053333D01*
X124498478Y-69050499D01*
X125897871Y-69050499D01*
X125897872Y-69050499D01*
X125957483Y-69044091D01*
X126092331Y-68993796D01*
X126207546Y-68907546D01*
X126293796Y-68792331D01*
X126344091Y-68657483D01*
X126350500Y-68597873D01*
X126350499Y-66802128D01*
X126344091Y-66742517D01*
X126293796Y-66607669D01*
X126293795Y-66607668D01*
X126293793Y-66607664D01*
X126207547Y-66492455D01*
X126207544Y-66492452D01*
X126092335Y-66406206D01*
X126092328Y-66406202D01*
X125957482Y-66355908D01*
X125957483Y-66355908D01*
X125897883Y-66349501D01*
X125897881Y-66349500D01*
X125897873Y-66349500D01*
X125897864Y-66349500D01*
X124102129Y-66349500D01*
X124102123Y-66349501D01*
X124042516Y-66355908D01*
X123907671Y-66406202D01*
X123907664Y-66406206D01*
X123792455Y-66492452D01*
X123792452Y-66492455D01*
X123706206Y-66607664D01*
X123706202Y-66607671D01*
X123655908Y-66742517D01*
X123649501Y-66802116D01*
X123649501Y-66802123D01*
X123649500Y-66802135D01*
X123649500Y-68201521D01*
X123629815Y-68268560D01*
X123613181Y-68289202D01*
X122502703Y-69399681D01*
X122441380Y-69433166D01*
X122415022Y-69436000D01*
X111224499Y-69436000D01*
X111157460Y-69416315D01*
X111111705Y-69363511D01*
X111100499Y-69312000D01*
X111100499Y-68352129D01*
X111100498Y-68352123D01*
X111100497Y-68352116D01*
X111094091Y-68292517D01*
X111079308Y-68252883D01*
X111043797Y-68157671D01*
X111043793Y-68157664D01*
X110957547Y-68042455D01*
X110957544Y-68042452D01*
X110842335Y-67956206D01*
X110842328Y-67956202D01*
X110707482Y-67905908D01*
X110707483Y-67905908D01*
X110647883Y-67899501D01*
X110647881Y-67899500D01*
X110647873Y-67899500D01*
X110647864Y-67899500D01*
X107352129Y-67899500D01*
X107352123Y-67899501D01*
X107292516Y-67905908D01*
X107157671Y-67956202D01*
X107157664Y-67956206D01*
X107042455Y-68042452D01*
X107042452Y-68042455D01*
X106956206Y-68157664D01*
X106956202Y-68157671D01*
X106905908Y-68292517D01*
X106899501Y-68352116D01*
X106899501Y-68352123D01*
X106899500Y-68352135D01*
X106899500Y-69312000D01*
X106879815Y-69379039D01*
X106827011Y-69424794D01*
X106775500Y-69436000D01*
X102437453Y-69436000D01*
X102370414Y-69416315D01*
X102324659Y-69363511D01*
X102314715Y-69294353D01*
X102321271Y-69268667D01*
X102327265Y-69252593D01*
X102344091Y-69207483D01*
X102350500Y-69147873D01*
X102350499Y-68052128D01*
X102344091Y-67992517D01*
X102330546Y-67956202D01*
X102293797Y-67857671D01*
X102293793Y-67857664D01*
X102207547Y-67742455D01*
X102207544Y-67742452D01*
X102092335Y-67656206D01*
X102092328Y-67656202D01*
X101957482Y-67605908D01*
X101957483Y-67605908D01*
X101897883Y-67599501D01*
X101897881Y-67599500D01*
X101897873Y-67599500D01*
X101897864Y-67599500D01*
X100802129Y-67599500D01*
X100802123Y-67599501D01*
X100742516Y-67605908D01*
X100607671Y-67656202D01*
X100607664Y-67656206D01*
X100492455Y-67742452D01*
X100492452Y-67742455D01*
X100406206Y-67857664D01*
X100406202Y-67857671D01*
X100355908Y-67992517D01*
X100350540Y-68042452D01*
X100349501Y-68052123D01*
X100349500Y-68052135D01*
X100349500Y-69147870D01*
X100349501Y-69147876D01*
X100355908Y-69207483D01*
X100378729Y-69268667D01*
X100383713Y-69338359D01*
X100350228Y-69399682D01*
X100288905Y-69433166D01*
X100262547Y-69436000D01*
X86087453Y-69436000D01*
X86020414Y-69416315D01*
X85974659Y-69363511D01*
X85964715Y-69294353D01*
X85971271Y-69268667D01*
X85977265Y-69252593D01*
X85994091Y-69207483D01*
X86000500Y-69147873D01*
X86000499Y-68052128D01*
X85994091Y-67992517D01*
X85980546Y-67956202D01*
X85943797Y-67857671D01*
X85943793Y-67857664D01*
X85857547Y-67742455D01*
X85857544Y-67742452D01*
X85742335Y-67656206D01*
X85742328Y-67656202D01*
X85607482Y-67605908D01*
X85607483Y-67605908D01*
X85547883Y-67599501D01*
X85547881Y-67599500D01*
X85547873Y-67599500D01*
X85547864Y-67599500D01*
X84452129Y-67599500D01*
X84452123Y-67599501D01*
X84392516Y-67605908D01*
X84257671Y-67656202D01*
X84257664Y-67656206D01*
X84142455Y-67742452D01*
X84142452Y-67742455D01*
X84056206Y-67857664D01*
X84056202Y-67857671D01*
X84005908Y-67992517D01*
X84000540Y-68042452D01*
X83999501Y-68052123D01*
X83999500Y-68052135D01*
X83999500Y-69147870D01*
X83999501Y-69147876D01*
X84005908Y-69207483D01*
X84028729Y-69268667D01*
X84033713Y-69338359D01*
X84000228Y-69399682D01*
X83938905Y-69433166D01*
X83912547Y-69436000D01*
X83135967Y-69436000D01*
X83068928Y-69416315D01*
X83030722Y-69374077D01*
X83029301Y-69374949D01*
X83026757Y-69370796D01*
X82971217Y-69294353D01*
X82915690Y-69217927D01*
X82782073Y-69084310D01*
X82629199Y-68973240D01*
X82460836Y-68887454D01*
X82281118Y-68829059D01*
X82094486Y-68799500D01*
X82094481Y-68799500D01*
X81905519Y-68799500D01*
X81905514Y-68799500D01*
X81718881Y-68829059D01*
X81539163Y-68887454D01*
X81370800Y-68973240D01*
X81322911Y-69008034D01*
X81217927Y-69084310D01*
X81217925Y-69084312D01*
X81217924Y-69084312D01*
X81084312Y-69217924D01*
X81084312Y-69217925D01*
X81084310Y-69217927D01*
X81056442Y-69256282D01*
X80973242Y-69370796D01*
X80970699Y-69374949D01*
X80969131Y-69373988D01*
X80926565Y-69419078D01*
X80864033Y-69436000D01*
X78248200Y-69436000D01*
X78181161Y-69416315D01*
X78137715Y-69368295D01*
X78124485Y-69342331D01*
X78112287Y-69318390D01*
X78094823Y-69294353D01*
X77991971Y-69152786D01*
X77847213Y-69008028D01*
X77681613Y-68887715D01*
X77681612Y-68887714D01*
X77681610Y-68887713D01*
X77624653Y-68858691D01*
X77499223Y-68794781D01*
X77304534Y-68731522D01*
X77129995Y-68703878D01*
X77102352Y-68699500D01*
X76897648Y-68699500D01*
X76873329Y-68703351D01*
X76695465Y-68731522D01*
X76500776Y-68794781D01*
X76318386Y-68887715D01*
X76152786Y-69008028D01*
X76008028Y-69152786D01*
X75887715Y-69318386D01*
X75862285Y-69368295D01*
X75814310Y-69419091D01*
X75751800Y-69436000D01*
X68248200Y-69436000D01*
X68181161Y-69416315D01*
X68137715Y-69368295D01*
X68124485Y-69342331D01*
X68112287Y-69318390D01*
X68094823Y-69294353D01*
X67991971Y-69152786D01*
X67847213Y-69008028D01*
X67681613Y-68887715D01*
X67681612Y-68887714D01*
X67681610Y-68887713D01*
X67624653Y-68858691D01*
X67499223Y-68794781D01*
X67304534Y-68731522D01*
X67129995Y-68703878D01*
X67102352Y-68699500D01*
X66897648Y-68699500D01*
X66873329Y-68703351D01*
X66695465Y-68731522D01*
X66500776Y-68794781D01*
X66318386Y-68887715D01*
X66152786Y-69008028D01*
X66008028Y-69152786D01*
X65887715Y-69318386D01*
X65794781Y-69500776D01*
X65731522Y-69695465D01*
X65699500Y-69897648D01*
X48300500Y-69897648D01*
X48300500Y-64952135D01*
X83999500Y-64952135D01*
X83999500Y-66047870D01*
X83999501Y-66047876D01*
X84005908Y-66107483D01*
X84056202Y-66242328D01*
X84056206Y-66242335D01*
X84142452Y-66357544D01*
X84142455Y-66357547D01*
X84257664Y-66443793D01*
X84257671Y-66443797D01*
X84392517Y-66494091D01*
X84392516Y-66494091D01*
X84399444Y-66494835D01*
X84452127Y-66500500D01*
X85547872Y-66500499D01*
X85607483Y-66494091D01*
X85742331Y-66443796D01*
X85857546Y-66357546D01*
X85943796Y-66242331D01*
X85994091Y-66107483D01*
X86000500Y-66047873D01*
X86000499Y-64952135D01*
X100349500Y-64952135D01*
X100349500Y-66047870D01*
X100349501Y-66047876D01*
X100355908Y-66107483D01*
X100406202Y-66242328D01*
X100406206Y-66242335D01*
X100492452Y-66357544D01*
X100492455Y-66357547D01*
X100607664Y-66443793D01*
X100607671Y-66443797D01*
X100742517Y-66494091D01*
X100742516Y-66494091D01*
X100749444Y-66494835D01*
X100802127Y-66500500D01*
X101897872Y-66500499D01*
X101957483Y-66494091D01*
X102092331Y-66443796D01*
X102207546Y-66357546D01*
X102293796Y-66242331D01*
X102344091Y-66107483D01*
X102350500Y-66047873D01*
X102350499Y-64952128D01*
X102344091Y-64892517D01*
X102325374Y-64842335D01*
X102293797Y-64757671D01*
X102293793Y-64757664D01*
X102207547Y-64642455D01*
X102207544Y-64642452D01*
X102092335Y-64556206D01*
X102092328Y-64556202D01*
X101957482Y-64505908D01*
X101957483Y-64505908D01*
X101897883Y-64499501D01*
X101897881Y-64499500D01*
X101897873Y-64499500D01*
X101897864Y-64499500D01*
X100802129Y-64499500D01*
X100802123Y-64499501D01*
X100742516Y-64505908D01*
X100607671Y-64556202D01*
X100607664Y-64556206D01*
X100492455Y-64642452D01*
X100492452Y-64642455D01*
X100406206Y-64757664D01*
X100406202Y-64757671D01*
X100355908Y-64892517D01*
X100349501Y-64952116D01*
X100349501Y-64952123D01*
X100349500Y-64952135D01*
X86000499Y-64952135D01*
X86000499Y-64952128D01*
X85994091Y-64892517D01*
X85975374Y-64842335D01*
X85943797Y-64757671D01*
X85943793Y-64757664D01*
X85857547Y-64642455D01*
X85857544Y-64642452D01*
X85742335Y-64556206D01*
X85742328Y-64556202D01*
X85607482Y-64505908D01*
X85607483Y-64505908D01*
X85547883Y-64499501D01*
X85547881Y-64499500D01*
X85547873Y-64499500D01*
X85547864Y-64499500D01*
X84452129Y-64499500D01*
X84452123Y-64499501D01*
X84392516Y-64505908D01*
X84257671Y-64556202D01*
X84257664Y-64556206D01*
X84142455Y-64642452D01*
X84142452Y-64642455D01*
X84056206Y-64757664D01*
X84056202Y-64757671D01*
X84005908Y-64892517D01*
X83999501Y-64952116D01*
X83999501Y-64952123D01*
X83999500Y-64952135D01*
X48300500Y-64952135D01*
X48300500Y-62921153D01*
X63399500Y-62921153D01*
X63399500Y-63078846D01*
X63430261Y-63233489D01*
X63430264Y-63233501D01*
X63490602Y-63379172D01*
X63490609Y-63379185D01*
X63578210Y-63510288D01*
X63578213Y-63510292D01*
X63689707Y-63621786D01*
X63689711Y-63621789D01*
X63820814Y-63709390D01*
X63820827Y-63709397D01*
X63920060Y-63750500D01*
X63966503Y-63769737D01*
X64121153Y-63800499D01*
X64121156Y-63800500D01*
X64121158Y-63800500D01*
X64278844Y-63800500D01*
X64278845Y-63800499D01*
X64433497Y-63769737D01*
X64579179Y-63709394D01*
X64710289Y-63621789D01*
X64711117Y-63620961D01*
X64731760Y-63600319D01*
X64793083Y-63566834D01*
X64819441Y-63564000D01*
X65751800Y-63564000D01*
X65818839Y-63583685D01*
X65862285Y-63631705D01*
X65887715Y-63681613D01*
X66008028Y-63847213D01*
X66152786Y-63991971D01*
X66290928Y-64092335D01*
X66318390Y-64112287D01*
X66433503Y-64170940D01*
X66500776Y-64205218D01*
X66500778Y-64205218D01*
X66500781Y-64205220D01*
X66605137Y-64239127D01*
X66695465Y-64268477D01*
X66796557Y-64284488D01*
X66897648Y-64300500D01*
X66897649Y-64300500D01*
X67102351Y-64300500D01*
X67102352Y-64300500D01*
X67304534Y-64268477D01*
X67499219Y-64205220D01*
X67681610Y-64112287D01*
X67799330Y-64026759D01*
X67847213Y-63991971D01*
X67847215Y-63991968D01*
X67847219Y-63991966D01*
X67991966Y-63847219D01*
X67991968Y-63847215D01*
X67991971Y-63847213D01*
X68048259Y-63769738D01*
X68112287Y-63681610D01*
X68137715Y-63631705D01*
X68185690Y-63580909D01*
X68248200Y-63564000D01*
X75751800Y-63564000D01*
X75818839Y-63583685D01*
X75862285Y-63631705D01*
X75887715Y-63681613D01*
X76008028Y-63847213D01*
X76152786Y-63991971D01*
X76290928Y-64092335D01*
X76318390Y-64112287D01*
X76433503Y-64170940D01*
X76500776Y-64205218D01*
X76500778Y-64205218D01*
X76500781Y-64205220D01*
X76605137Y-64239127D01*
X76695465Y-64268477D01*
X76796557Y-64284488D01*
X76897648Y-64300500D01*
X76897649Y-64300500D01*
X77102351Y-64300500D01*
X77102352Y-64300500D01*
X77304534Y-64268477D01*
X77499219Y-64205220D01*
X77681610Y-64112287D01*
X77799330Y-64026759D01*
X77847213Y-63991971D01*
X77847215Y-63991968D01*
X77847219Y-63991966D01*
X77991966Y-63847219D01*
X77991968Y-63847215D01*
X77991971Y-63847213D01*
X78048259Y-63769738D01*
X78112287Y-63681610D01*
X78137715Y-63631705D01*
X78185690Y-63580909D01*
X78248200Y-63564000D01*
X80864033Y-63564000D01*
X80931072Y-63583685D01*
X80969277Y-63625922D01*
X80970699Y-63625051D01*
X80973242Y-63629203D01*
X81011319Y-63681610D01*
X81084310Y-63782073D01*
X81217927Y-63915690D01*
X81370801Y-64026760D01*
X81450347Y-64067290D01*
X81539163Y-64112545D01*
X81539165Y-64112545D01*
X81539168Y-64112547D01*
X81635497Y-64143846D01*
X81718881Y-64170940D01*
X81905514Y-64200500D01*
X81905519Y-64200500D01*
X82094486Y-64200500D01*
X82281118Y-64170940D01*
X82460832Y-64112547D01*
X82629199Y-64026760D01*
X82782073Y-63915690D01*
X82910944Y-63786819D01*
X82972267Y-63753334D01*
X82998625Y-63750500D01*
X106775501Y-63750500D01*
X106842540Y-63770185D01*
X106888295Y-63822989D01*
X106899501Y-63874500D01*
X106899501Y-64647876D01*
X106905908Y-64707483D01*
X106956202Y-64842328D01*
X106956206Y-64842335D01*
X107042452Y-64957544D01*
X107042455Y-64957547D01*
X107157664Y-65043793D01*
X107157671Y-65043797D01*
X107292517Y-65094091D01*
X107292516Y-65094091D01*
X107299444Y-65094835D01*
X107352127Y-65100500D01*
X110647872Y-65100499D01*
X110707483Y-65094091D01*
X110842331Y-65043796D01*
X110957546Y-64957546D01*
X111043796Y-64842331D01*
X111094091Y-64707483D01*
X111100500Y-64647873D01*
X111100500Y-63688000D01*
X111120185Y-63620961D01*
X111172989Y-63575206D01*
X111224500Y-63564000D01*
X123525501Y-63564000D01*
X123592540Y-63583685D01*
X123638295Y-63636489D01*
X123649501Y-63688000D01*
X123649501Y-63897876D01*
X123655908Y-63957483D01*
X123706202Y-64092328D01*
X123706206Y-64092335D01*
X123792452Y-64207544D01*
X123792455Y-64207547D01*
X123907664Y-64293793D01*
X123907671Y-64293797D01*
X124042517Y-64344091D01*
X124042516Y-64344091D01*
X124049444Y-64344835D01*
X124102127Y-64350500D01*
X125897872Y-64350499D01*
X125957483Y-64344091D01*
X126092331Y-64293796D01*
X126207546Y-64207546D01*
X126293796Y-64092331D01*
X126344091Y-63957483D01*
X126350500Y-63897873D01*
X126350499Y-62102128D01*
X126344091Y-62042517D01*
X126331227Y-62008028D01*
X126293797Y-61907671D01*
X126293793Y-61907664D01*
X126207547Y-61792455D01*
X126207544Y-61792452D01*
X126092335Y-61706206D01*
X126092328Y-61706202D01*
X125957482Y-61655908D01*
X125957483Y-61655908D01*
X125897883Y-61649501D01*
X125897881Y-61649500D01*
X125897873Y-61649500D01*
X125897864Y-61649500D01*
X124102129Y-61649500D01*
X124102123Y-61649501D01*
X124042516Y-61655908D01*
X123907671Y-61706202D01*
X123907664Y-61706206D01*
X123792455Y-61792452D01*
X123792452Y-61792455D01*
X123706206Y-61907664D01*
X123706202Y-61907671D01*
X123655908Y-62042517D01*
X123651415Y-62084312D01*
X123649501Y-62102123D01*
X123649500Y-62102135D01*
X123649500Y-62312000D01*
X123629815Y-62379039D01*
X123577011Y-62424794D01*
X123525500Y-62436000D01*
X111224499Y-62436000D01*
X111157460Y-62416315D01*
X111111705Y-62363511D01*
X111100499Y-62312000D01*
X111100499Y-61352129D01*
X111100498Y-61352123D01*
X111100497Y-61352116D01*
X111094091Y-61292517D01*
X111043796Y-61157669D01*
X111043795Y-61157668D01*
X111043793Y-61157664D01*
X110957547Y-61042455D01*
X110957544Y-61042452D01*
X110842335Y-60956206D01*
X110842328Y-60956202D01*
X110707482Y-60905908D01*
X110707483Y-60905908D01*
X110647883Y-60899501D01*
X110647881Y-60899500D01*
X110647873Y-60899500D01*
X110647864Y-60899500D01*
X107352129Y-60899500D01*
X107352123Y-60899501D01*
X107292516Y-60905908D01*
X107157671Y-60956202D01*
X107157664Y-60956206D01*
X107042455Y-61042452D01*
X107042452Y-61042455D01*
X106956206Y-61157664D01*
X106956202Y-61157671D01*
X106905908Y-61292517D01*
X106899501Y-61352116D01*
X106899501Y-61352123D01*
X106899500Y-61352135D01*
X106899500Y-62125500D01*
X106879815Y-62192539D01*
X106827011Y-62238294D01*
X106775500Y-62249500D01*
X82998625Y-62249500D01*
X82931586Y-62229815D01*
X82910944Y-62213181D01*
X82782075Y-62084312D01*
X82782073Y-62084310D01*
X82629199Y-61973240D01*
X82460836Y-61887454D01*
X82281118Y-61829059D01*
X82094486Y-61799500D01*
X82094481Y-61799500D01*
X81905519Y-61799500D01*
X81905514Y-61799500D01*
X81718881Y-61829059D01*
X81539163Y-61887454D01*
X81370800Y-61973240D01*
X81322911Y-62008034D01*
X81217927Y-62084310D01*
X81217925Y-62084312D01*
X81217924Y-62084312D01*
X81084312Y-62217924D01*
X81084312Y-62217925D01*
X81084310Y-62217927D01*
X81061371Y-62249500D01*
X80973242Y-62370796D01*
X80970699Y-62374949D01*
X80969131Y-62373988D01*
X80926565Y-62419078D01*
X80864033Y-62436000D01*
X78248200Y-62436000D01*
X78181161Y-62416315D01*
X78137715Y-62368295D01*
X78132390Y-62357846D01*
X78112287Y-62318390D01*
X78062236Y-62249500D01*
X77991971Y-62152786D01*
X77847213Y-62008028D01*
X77681613Y-61887715D01*
X77681612Y-61887714D01*
X77681610Y-61887713D01*
X77624653Y-61858691D01*
X77499223Y-61794781D01*
X77304534Y-61731522D01*
X77129995Y-61703878D01*
X77102352Y-61699500D01*
X76897648Y-61699500D01*
X76873329Y-61703351D01*
X76695465Y-61731522D01*
X76500776Y-61794781D01*
X76318386Y-61887715D01*
X76152786Y-62008028D01*
X76008028Y-62152786D01*
X75887715Y-62318386D01*
X75862285Y-62368295D01*
X75814310Y-62419091D01*
X75751800Y-62436000D01*
X68248200Y-62436000D01*
X68181161Y-62416315D01*
X68137715Y-62368295D01*
X68132390Y-62357846D01*
X68112287Y-62318390D01*
X68062236Y-62249500D01*
X67991971Y-62152786D01*
X67847213Y-62008028D01*
X67681613Y-61887715D01*
X67681612Y-61887714D01*
X67681610Y-61887713D01*
X67624653Y-61858691D01*
X67499223Y-61794781D01*
X67304534Y-61731522D01*
X67129995Y-61703878D01*
X67102352Y-61699500D01*
X66897648Y-61699500D01*
X66873329Y-61703351D01*
X66695465Y-61731522D01*
X66500776Y-61794781D01*
X66318386Y-61887715D01*
X66152786Y-62008028D01*
X66008028Y-62152786D01*
X65887715Y-62318386D01*
X65862285Y-62368295D01*
X65814310Y-62419091D01*
X65751800Y-62436000D01*
X64819441Y-62436000D01*
X64752402Y-62416315D01*
X64731760Y-62399681D01*
X64710292Y-62378213D01*
X64710288Y-62378210D01*
X64579185Y-62290609D01*
X64579172Y-62290602D01*
X64433501Y-62230264D01*
X64433489Y-62230261D01*
X64278845Y-62199500D01*
X64278842Y-62199500D01*
X64121158Y-62199500D01*
X64121155Y-62199500D01*
X63966510Y-62230261D01*
X63966498Y-62230264D01*
X63820827Y-62290602D01*
X63820814Y-62290609D01*
X63689711Y-62378210D01*
X63689707Y-62378213D01*
X63578213Y-62489707D01*
X63578210Y-62489711D01*
X63490609Y-62620814D01*
X63490602Y-62620827D01*
X63430264Y-62766498D01*
X63430261Y-62766510D01*
X63399500Y-62921153D01*
X48300500Y-62921153D01*
X48300500Y-56552135D01*
X55899500Y-56552135D01*
X55899500Y-59847870D01*
X55899501Y-59847876D01*
X55905908Y-59907483D01*
X55956202Y-60042328D01*
X55956206Y-60042335D01*
X56042452Y-60157544D01*
X56042455Y-60157547D01*
X56157664Y-60243793D01*
X56157671Y-60243797D01*
X56292517Y-60294091D01*
X56292516Y-60294091D01*
X56299444Y-60294835D01*
X56352127Y-60300500D01*
X59647872Y-60300499D01*
X59707483Y-60294091D01*
X59842331Y-60243796D01*
X59957546Y-60157546D01*
X60043796Y-60042331D01*
X60094091Y-59907483D01*
X60100500Y-59847873D01*
X60100500Y-58888000D01*
X60120185Y-58820961D01*
X60172989Y-58775206D01*
X60224500Y-58764000D01*
X63680559Y-58764000D01*
X63747598Y-58783685D01*
X63768240Y-58800319D01*
X63789707Y-58821786D01*
X63789711Y-58821789D01*
X63920814Y-58909390D01*
X63920827Y-58909397D01*
X64011031Y-58946760D01*
X64066503Y-58969737D01*
X64221153Y-59000499D01*
X64221156Y-59000500D01*
X64221158Y-59000500D01*
X64378844Y-59000500D01*
X64378845Y-59000499D01*
X64533497Y-58969737D01*
X64679179Y-58909394D01*
X64810289Y-58821789D01*
X64921789Y-58710289D01*
X65009394Y-58579179D01*
X65069737Y-58433497D01*
X65100500Y-58278842D01*
X65100500Y-58121158D01*
X65100500Y-58121155D01*
X65100499Y-58121153D01*
X65069738Y-57966510D01*
X65069737Y-57966503D01*
X65066001Y-57957483D01*
X65028978Y-57868099D01*
X65011337Y-57825513D01*
X80799500Y-57825513D01*
X80799500Y-58014486D01*
X80829059Y-58201118D01*
X80887454Y-58380836D01*
X80957614Y-58518531D01*
X80973240Y-58549199D01*
X81084310Y-58702073D01*
X81217927Y-58835690D01*
X81370801Y-58946760D01*
X81415896Y-58969737D01*
X81539163Y-59032545D01*
X81539165Y-59032545D01*
X81539168Y-59032547D01*
X81635497Y-59063846D01*
X81718881Y-59090940D01*
X81905514Y-59120500D01*
X81905519Y-59120500D01*
X82094486Y-59120500D01*
X82281118Y-59090940D01*
X82460832Y-59032547D01*
X82629199Y-58946760D01*
X82782073Y-58835690D01*
X82915690Y-58702073D01*
X83026760Y-58549199D01*
X83026762Y-58549193D01*
X83029301Y-58545051D01*
X83030868Y-58546011D01*
X83073435Y-58500922D01*
X83135967Y-58484000D01*
X83864033Y-58484000D01*
X83931072Y-58503685D01*
X83969277Y-58545922D01*
X83970699Y-58545051D01*
X83973242Y-58549203D01*
X83995026Y-58579185D01*
X84084310Y-58702073D01*
X84217927Y-58835690D01*
X84370801Y-58946760D01*
X84415896Y-58969737D01*
X84539163Y-59032545D01*
X84539165Y-59032545D01*
X84539168Y-59032547D01*
X84635497Y-59063846D01*
X84718881Y-59090940D01*
X84905514Y-59120500D01*
X84905519Y-59120500D01*
X85094486Y-59120500D01*
X85281118Y-59090940D01*
X85460832Y-59032547D01*
X85629199Y-58946760D01*
X85782073Y-58835690D01*
X85915690Y-58702073D01*
X86026760Y-58549199D01*
X86112547Y-58380832D01*
X86170940Y-58201118D01*
X86173033Y-58187902D01*
X86200500Y-58014486D01*
X86200500Y-57825513D01*
X88879500Y-57825513D01*
X88879500Y-58014486D01*
X88909059Y-58201118D01*
X88967454Y-58380836D01*
X89037614Y-58518531D01*
X89053240Y-58549199D01*
X89164310Y-58702073D01*
X89297927Y-58835690D01*
X89450801Y-58946760D01*
X89495896Y-58969737D01*
X89619163Y-59032545D01*
X89619165Y-59032545D01*
X89619168Y-59032547D01*
X89715497Y-59063846D01*
X89798881Y-59090940D01*
X89985514Y-59120500D01*
X89985519Y-59120500D01*
X90174486Y-59120500D01*
X90361118Y-59090940D01*
X90540832Y-59032547D01*
X90709199Y-58946760D01*
X90862073Y-58835690D01*
X90995690Y-58702073D01*
X91106760Y-58549199D01*
X91106762Y-58549193D01*
X91109301Y-58545051D01*
X91110868Y-58546011D01*
X91153435Y-58500922D01*
X91215967Y-58484000D01*
X92481800Y-58484000D01*
X92548839Y-58503685D01*
X92592285Y-58551705D01*
X92617715Y-58601613D01*
X92738028Y-58767213D01*
X92882786Y-58911971D01*
X93037749Y-59024556D01*
X93048390Y-59032287D01*
X93163503Y-59090940D01*
X93230776Y-59125218D01*
X93230778Y-59125218D01*
X93230781Y-59125220D01*
X93335137Y-59159127D01*
X93425465Y-59188477D01*
X93526557Y-59204488D01*
X93627648Y-59220500D01*
X93627649Y-59220500D01*
X93832351Y-59220500D01*
X93832352Y-59220500D01*
X94034534Y-59188477D01*
X94229219Y-59125220D01*
X94411610Y-59032287D01*
X94529330Y-58946759D01*
X94577213Y-58911971D01*
X94577215Y-58911968D01*
X94577219Y-58911966D01*
X94721966Y-58767219D01*
X94721968Y-58767215D01*
X94721971Y-58767213D01*
X94774732Y-58694590D01*
X94842287Y-58601610D01*
X94935220Y-58419219D01*
X94998477Y-58224534D01*
X95030500Y-58022352D01*
X95030500Y-57817648D01*
X100049500Y-57817648D01*
X100049500Y-58022351D01*
X100081522Y-58224534D01*
X100144781Y-58419223D01*
X100208691Y-58544653D01*
X100226280Y-58579172D01*
X100237715Y-58601613D01*
X100358028Y-58767213D01*
X100502786Y-58911971D01*
X100657749Y-59024556D01*
X100668390Y-59032287D01*
X100783503Y-59090940D01*
X100850776Y-59125218D01*
X100850778Y-59125218D01*
X100850781Y-59125220D01*
X100955137Y-59159127D01*
X101045465Y-59188477D01*
X101146557Y-59204488D01*
X101247648Y-59220500D01*
X101247649Y-59220500D01*
X101452351Y-59220500D01*
X101452352Y-59220500D01*
X101654534Y-59188477D01*
X101849219Y-59125220D01*
X102031610Y-59032287D01*
X102149330Y-58946759D01*
X102197213Y-58911971D01*
X102197215Y-58911968D01*
X102197219Y-58911966D01*
X102341966Y-58767219D01*
X102341968Y-58767215D01*
X102341971Y-58767213D01*
X102394732Y-58694590D01*
X102462287Y-58601610D01*
X102555220Y-58419219D01*
X102618477Y-58224534D01*
X102650500Y-58022352D01*
X102650500Y-57817648D01*
X102618477Y-57615465D01*
X102577908Y-57490609D01*
X102555220Y-57420781D01*
X102555218Y-57420778D01*
X102555218Y-57420776D01*
X102518764Y-57349232D01*
X102490661Y-57294077D01*
X102462287Y-57238390D01*
X102399819Y-57152409D01*
X102341971Y-57072786D01*
X102197213Y-56928028D01*
X102031613Y-56807715D01*
X102031612Y-56807714D01*
X102031610Y-56807713D01*
X101974653Y-56778691D01*
X101849223Y-56714781D01*
X101654534Y-56651522D01*
X101479995Y-56623878D01*
X101452352Y-56619500D01*
X101247648Y-56619500D01*
X101223329Y-56623351D01*
X101045465Y-56651522D01*
X100850776Y-56714781D01*
X100668386Y-56807715D01*
X100502786Y-56928028D01*
X100358028Y-57072786D01*
X100237715Y-57238386D01*
X100144781Y-57420776D01*
X100081522Y-57615465D01*
X100049500Y-57817648D01*
X95030500Y-57817648D01*
X94998477Y-57615465D01*
X94957908Y-57490609D01*
X94935220Y-57420781D01*
X94935218Y-57420778D01*
X94935218Y-57420776D01*
X94892182Y-57336315D01*
X94842287Y-57238390D01*
X94779819Y-57152409D01*
X94721971Y-57072786D01*
X94577213Y-56928028D01*
X94411613Y-56807715D01*
X94411612Y-56807714D01*
X94411610Y-56807713D01*
X94352409Y-56777548D01*
X94229217Y-56714778D01*
X94224726Y-56712919D01*
X94225424Y-56711231D01*
X94221769Y-56708732D01*
X94209824Y-56706025D01*
X94193464Y-56689378D01*
X94174203Y-56676208D01*
X94169436Y-56664928D01*
X94160850Y-56656192D01*
X94156086Y-56633341D01*
X94147004Y-56611850D01*
X94149091Y-56599784D01*
X94146592Y-56587792D01*
X94154938Y-56565995D01*
X94158917Y-56543004D01*
X94167812Y-56532376D01*
X94171578Y-56522543D01*
X94192491Y-56502891D01*
X94196750Y-56497804D01*
X94198999Y-56496150D01*
X94310289Y-56421789D01*
X94338411Y-56393666D01*
X94345996Y-56388091D01*
X94370346Y-56379248D01*
X94393083Y-56366834D01*
X94409355Y-56365084D01*
X94411670Y-56364244D01*
X94413440Y-56364645D01*
X94419441Y-56364000D01*
X95580559Y-56364000D01*
X95647598Y-56383685D01*
X95668240Y-56400319D01*
X95689707Y-56421786D01*
X95689711Y-56421789D01*
X95820814Y-56509390D01*
X95820827Y-56509397D01*
X95957469Y-56565995D01*
X95966503Y-56569737D01*
X96121153Y-56600499D01*
X96121156Y-56600500D01*
X96121158Y-56600500D01*
X96278844Y-56600500D01*
X96278845Y-56600499D01*
X96433497Y-56569737D01*
X96579179Y-56509394D01*
X96710289Y-56421789D01*
X96821789Y-56310289D01*
X96909394Y-56179179D01*
X96918911Y-56156204D01*
X96939743Y-56105909D01*
X96969737Y-56033497D01*
X97000500Y-55878842D01*
X97000500Y-55721158D01*
X97000500Y-55721155D01*
X97000499Y-55721153D01*
X96969738Y-55566510D01*
X96969737Y-55566503D01*
X96936627Y-55486567D01*
X96909397Y-55420827D01*
X96909390Y-55420814D01*
X96821789Y-55289711D01*
X96821786Y-55289707D01*
X96710292Y-55178213D01*
X96710288Y-55178210D01*
X96579185Y-55090609D01*
X96579172Y-55090602D01*
X96433501Y-55030264D01*
X96433489Y-55030261D01*
X96278845Y-54999500D01*
X96278842Y-54999500D01*
X96121158Y-54999500D01*
X96121155Y-54999500D01*
X95966510Y-55030261D01*
X95966498Y-55030264D01*
X95820827Y-55090602D01*
X95820814Y-55090609D01*
X95689711Y-55178210D01*
X95689707Y-55178213D01*
X95668240Y-55199681D01*
X95606917Y-55233166D01*
X95580559Y-55236000D01*
X94419441Y-55236000D01*
X94352402Y-55216315D01*
X94331760Y-55199681D01*
X94310292Y-55178213D01*
X94310288Y-55178210D01*
X94179185Y-55090609D01*
X94179172Y-55090602D01*
X94033501Y-55030264D01*
X94033489Y-55030261D01*
X93878845Y-54999500D01*
X93878842Y-54999500D01*
X93721158Y-54999500D01*
X93721155Y-54999500D01*
X93566510Y-55030261D01*
X93566498Y-55030264D01*
X93420827Y-55090602D01*
X93420814Y-55090609D01*
X93289711Y-55178210D01*
X93289707Y-55178213D01*
X93178213Y-55289707D01*
X93178210Y-55289711D01*
X93090609Y-55420814D01*
X93090602Y-55420827D01*
X93030264Y-55566498D01*
X93030261Y-55566510D01*
X92999500Y-55721153D01*
X92999500Y-55878846D01*
X93030261Y-56033489D01*
X93030264Y-56033501D01*
X93090602Y-56179172D01*
X93090609Y-56179185D01*
X93178210Y-56310288D01*
X93178213Y-56310292D01*
X93289710Y-56421789D01*
X93352890Y-56464004D01*
X93397695Y-56517616D01*
X93406402Y-56586941D01*
X93376248Y-56649968D01*
X93322319Y-56685036D01*
X93230780Y-56714779D01*
X93048386Y-56807715D01*
X92882786Y-56928028D01*
X92738028Y-57072786D01*
X92617715Y-57238386D01*
X92592285Y-57288295D01*
X92544310Y-57339091D01*
X92481800Y-57356000D01*
X91215967Y-57356000D01*
X91148928Y-57336315D01*
X91110722Y-57294077D01*
X91109301Y-57294949D01*
X91106757Y-57290796D01*
X91068678Y-57238386D01*
X90995690Y-57137927D01*
X90862073Y-57004310D01*
X90709199Y-56893240D01*
X90540836Y-56807454D01*
X90361118Y-56749059D01*
X90174486Y-56719500D01*
X90174481Y-56719500D01*
X89985519Y-56719500D01*
X89985514Y-56719500D01*
X89798881Y-56749059D01*
X89619163Y-56807454D01*
X89450800Y-56893240D01*
X89402911Y-56928034D01*
X89297927Y-57004310D01*
X89297925Y-57004312D01*
X89297924Y-57004312D01*
X89164312Y-57137924D01*
X89164312Y-57137925D01*
X89164310Y-57137927D01*
X89116610Y-57203579D01*
X89053240Y-57290800D01*
X88967454Y-57459163D01*
X88909059Y-57638881D01*
X88879500Y-57825513D01*
X86200500Y-57825513D01*
X86170940Y-57638881D01*
X86122762Y-57490606D01*
X86112547Y-57459168D01*
X86112545Y-57459165D01*
X86112545Y-57459163D01*
X86046733Y-57330000D01*
X86026760Y-57290801D01*
X85915690Y-57137927D01*
X85782073Y-57004310D01*
X85629199Y-56893240D01*
X85460836Y-56807454D01*
X85281118Y-56749059D01*
X85094486Y-56719500D01*
X85094481Y-56719500D01*
X84905519Y-56719500D01*
X84905514Y-56719500D01*
X84718881Y-56749059D01*
X84539163Y-56807454D01*
X84370800Y-56893240D01*
X84322911Y-56928034D01*
X84217927Y-57004310D01*
X84217925Y-57004312D01*
X84217924Y-57004312D01*
X84084312Y-57137924D01*
X84084312Y-57137925D01*
X84084310Y-57137927D01*
X84056442Y-57176282D01*
X83973242Y-57290796D01*
X83970699Y-57294949D01*
X83969131Y-57293988D01*
X83926565Y-57339078D01*
X83864033Y-57356000D01*
X83135967Y-57356000D01*
X83068928Y-57336315D01*
X83030722Y-57294077D01*
X83029301Y-57294949D01*
X83026757Y-57290796D01*
X82988678Y-57238386D01*
X82915690Y-57137927D01*
X82782073Y-57004310D01*
X82629199Y-56893240D01*
X82460836Y-56807454D01*
X82281118Y-56749059D01*
X82094486Y-56719500D01*
X82094481Y-56719500D01*
X81905519Y-56719500D01*
X81905514Y-56719500D01*
X81718881Y-56749059D01*
X81539163Y-56807454D01*
X81370800Y-56893240D01*
X81322911Y-56928034D01*
X81217927Y-57004310D01*
X81217925Y-57004312D01*
X81217924Y-57004312D01*
X81084312Y-57137924D01*
X81084312Y-57137925D01*
X81084310Y-57137927D01*
X81036610Y-57203579D01*
X80973240Y-57290800D01*
X80887454Y-57459163D01*
X80829059Y-57638881D01*
X80799500Y-57825513D01*
X65011337Y-57825513D01*
X65009395Y-57820824D01*
X65009394Y-57820821D01*
X65009392Y-57820818D01*
X65009390Y-57820814D01*
X64921789Y-57689711D01*
X64921786Y-57689707D01*
X64810292Y-57578213D01*
X64810288Y-57578210D01*
X64679185Y-57490609D01*
X64679172Y-57490602D01*
X64533501Y-57430264D01*
X64533489Y-57430261D01*
X64378845Y-57399500D01*
X64378842Y-57399500D01*
X64221158Y-57399500D01*
X64221155Y-57399500D01*
X64066510Y-57430261D01*
X64066498Y-57430264D01*
X63920827Y-57490602D01*
X63920814Y-57490609D01*
X63789711Y-57578210D01*
X63789707Y-57578213D01*
X63768240Y-57599681D01*
X63706917Y-57633166D01*
X63680559Y-57636000D01*
X60224499Y-57636000D01*
X60157460Y-57616315D01*
X60111705Y-57563511D01*
X60100499Y-57512000D01*
X60100499Y-56552129D01*
X60100498Y-56552123D01*
X60100497Y-56552116D01*
X60094091Y-56492517D01*
X60094005Y-56492287D01*
X60043797Y-56357671D01*
X60043793Y-56357664D01*
X59957547Y-56242455D01*
X59957544Y-56242452D01*
X59842335Y-56156206D01*
X59842328Y-56156202D01*
X59707482Y-56105908D01*
X59707483Y-56105908D01*
X59647883Y-56099501D01*
X59647881Y-56099500D01*
X59647873Y-56099500D01*
X59647864Y-56099500D01*
X56352129Y-56099500D01*
X56352123Y-56099501D01*
X56292516Y-56105908D01*
X56157671Y-56156202D01*
X56157664Y-56156206D01*
X56042455Y-56242452D01*
X56042452Y-56242455D01*
X55956206Y-56357664D01*
X55956202Y-56357671D01*
X55905908Y-56492517D01*
X55900481Y-56543004D01*
X55899501Y-56552123D01*
X55899500Y-56552135D01*
X48300500Y-56552135D01*
X48300500Y-55277648D01*
X65699500Y-55277648D01*
X65699500Y-55482352D01*
X65700168Y-55486567D01*
X65731522Y-55684534D01*
X65794781Y-55879223D01*
X65842104Y-55972097D01*
X65880715Y-56047876D01*
X65887715Y-56061613D01*
X66008028Y-56227213D01*
X66152786Y-56371971D01*
X66279461Y-56464004D01*
X66318390Y-56492287D01*
X66417928Y-56543004D01*
X66500776Y-56585218D01*
X66500778Y-56585218D01*
X66500781Y-56585220D01*
X66582740Y-56611850D01*
X66695465Y-56648477D01*
X66796557Y-56664488D01*
X66897648Y-56680500D01*
X66897649Y-56680500D01*
X67102351Y-56680500D01*
X67102352Y-56680500D01*
X67304534Y-56648477D01*
X67499219Y-56585220D01*
X67681610Y-56492287D01*
X67778647Y-56421786D01*
X67847213Y-56371971D01*
X67847215Y-56371968D01*
X67847219Y-56371966D01*
X67991966Y-56227219D01*
X67991968Y-56227215D01*
X67991971Y-56227213D01*
X68059869Y-56133758D01*
X68112287Y-56061610D01*
X68205220Y-55879219D01*
X68268477Y-55684534D01*
X68300500Y-55482352D01*
X68300500Y-55277648D01*
X68268477Y-55075465D01*
X68239773Y-54987125D01*
X68228404Y-54952135D01*
X70999500Y-54952135D01*
X70999500Y-56047870D01*
X70999501Y-56047876D01*
X71005908Y-56107483D01*
X71056202Y-56242328D01*
X71056206Y-56242335D01*
X71142452Y-56357544D01*
X71142455Y-56357547D01*
X71257664Y-56443793D01*
X71257671Y-56443797D01*
X71392517Y-56494091D01*
X71392516Y-56494091D01*
X71399444Y-56494835D01*
X71452127Y-56500500D01*
X72547872Y-56500499D01*
X72607483Y-56494091D01*
X72742331Y-56443796D01*
X72857546Y-56357546D01*
X72943796Y-56242331D01*
X72967348Y-56179185D01*
X72980223Y-56144667D01*
X73022094Y-56088733D01*
X73087559Y-56064316D01*
X73096405Y-56064000D01*
X75826268Y-56064000D01*
X75893307Y-56083685D01*
X75926583Y-56115112D01*
X76008030Y-56227213D01*
X76008034Y-56227219D01*
X76152786Y-56371971D01*
X76279461Y-56464004D01*
X76318390Y-56492287D01*
X76417928Y-56543004D01*
X76500776Y-56585218D01*
X76500778Y-56585218D01*
X76500781Y-56585220D01*
X76582740Y-56611850D01*
X76695465Y-56648477D01*
X76796557Y-56664488D01*
X76897648Y-56680500D01*
X76897649Y-56680500D01*
X77102351Y-56680500D01*
X77102352Y-56680500D01*
X77304534Y-56648477D01*
X77499219Y-56585220D01*
X77681610Y-56492287D01*
X77778647Y-56421786D01*
X77847213Y-56371971D01*
X77847215Y-56371968D01*
X77847219Y-56371966D01*
X77991966Y-56227219D01*
X77991968Y-56227215D01*
X77991971Y-56227213D01*
X78059869Y-56133758D01*
X78112287Y-56061610D01*
X78205220Y-55879219D01*
X78268477Y-55684534D01*
X78300500Y-55482352D01*
X78300500Y-55277648D01*
X78268477Y-55075465D01*
X78223162Y-54936000D01*
X78205220Y-54880781D01*
X78205218Y-54880778D01*
X78205218Y-54880776D01*
X78142491Y-54757669D01*
X78112287Y-54698390D01*
X78098085Y-54678842D01*
X77991971Y-54532786D01*
X77847213Y-54388028D01*
X77681613Y-54267715D01*
X77681612Y-54267714D01*
X77681610Y-54267713D01*
X77624653Y-54238691D01*
X77499223Y-54174781D01*
X77304534Y-54111522D01*
X77129995Y-54083878D01*
X77102352Y-54079500D01*
X76897648Y-54079500D01*
X76873329Y-54083351D01*
X76695465Y-54111522D01*
X76500776Y-54174781D01*
X76318386Y-54267715D01*
X76152786Y-54388028D01*
X76008028Y-54532786D01*
X75887715Y-54698385D01*
X75801142Y-54868295D01*
X75753167Y-54919091D01*
X75690657Y-54936000D01*
X73096405Y-54936000D01*
X73029366Y-54916315D01*
X72983611Y-54863511D01*
X72980223Y-54855333D01*
X72943797Y-54757671D01*
X72943793Y-54757664D01*
X72857547Y-54642455D01*
X72857544Y-54642452D01*
X72742335Y-54556206D01*
X72742328Y-54556202D01*
X72607482Y-54505908D01*
X72607483Y-54505908D01*
X72547883Y-54499501D01*
X72547881Y-54499500D01*
X72547873Y-54499500D01*
X72547864Y-54499500D01*
X71452129Y-54499500D01*
X71452123Y-54499501D01*
X71392516Y-54505908D01*
X71257671Y-54556202D01*
X71257664Y-54556206D01*
X71142455Y-54642452D01*
X71142452Y-54642455D01*
X71056206Y-54757664D01*
X71056202Y-54757671D01*
X71005908Y-54892517D01*
X70999501Y-54952116D01*
X70999500Y-54952135D01*
X68228404Y-54952135D01*
X68205220Y-54880781D01*
X68112287Y-54698390D01*
X68098085Y-54678842D01*
X67991971Y-54532786D01*
X67847213Y-54388028D01*
X67681613Y-54267715D01*
X67681612Y-54267714D01*
X67681610Y-54267713D01*
X67624653Y-54238691D01*
X67499223Y-54174781D01*
X67304534Y-54111522D01*
X67129995Y-54083878D01*
X67102352Y-54079500D01*
X66897648Y-54079500D01*
X66873329Y-54083351D01*
X66695465Y-54111522D01*
X66500776Y-54174781D01*
X66318386Y-54267715D01*
X66152786Y-54388028D01*
X66008028Y-54532786D01*
X65887715Y-54698386D01*
X65794781Y-54880776D01*
X65731522Y-55075465D01*
X65699500Y-55277648D01*
X48300500Y-55277648D01*
X48300500Y-52452135D01*
X61699500Y-52452135D01*
X61699500Y-53547870D01*
X61699501Y-53547876D01*
X61705908Y-53607483D01*
X61756202Y-53742328D01*
X61756206Y-53742335D01*
X61842452Y-53857544D01*
X61842455Y-53857547D01*
X61957664Y-53943793D01*
X61957671Y-53943797D01*
X62092517Y-53994091D01*
X62092516Y-53994091D01*
X62099444Y-53994835D01*
X62152127Y-54000500D01*
X63247872Y-54000499D01*
X63307483Y-53994091D01*
X63442331Y-53943796D01*
X63557546Y-53857546D01*
X63643796Y-53742331D01*
X63657478Y-53705647D01*
X63680223Y-53644667D01*
X63722094Y-53588733D01*
X63787559Y-53564316D01*
X63796405Y-53564000D01*
X66380559Y-53564000D01*
X66447598Y-53583685D01*
X66468240Y-53600319D01*
X66489707Y-53621786D01*
X66489711Y-53621789D01*
X66620814Y-53709390D01*
X66620827Y-53709397D01*
X66700348Y-53742335D01*
X66766503Y-53769737D01*
X66916131Y-53799500D01*
X66921153Y-53800499D01*
X66921156Y-53800500D01*
X66921158Y-53800500D01*
X67078844Y-53800500D01*
X67078845Y-53800499D01*
X67233497Y-53769737D01*
X67379179Y-53709394D01*
X67510289Y-53621789D01*
X67510292Y-53621786D01*
X67531760Y-53600319D01*
X67593083Y-53566834D01*
X67619441Y-53564000D01*
X71380559Y-53564000D01*
X71447598Y-53583685D01*
X71468240Y-53600319D01*
X71489707Y-53621786D01*
X71489711Y-53621789D01*
X71620814Y-53709390D01*
X71620827Y-53709397D01*
X71700348Y-53742335D01*
X71766503Y-53769737D01*
X71916131Y-53799500D01*
X71921153Y-53800499D01*
X71921156Y-53800500D01*
X71921158Y-53800500D01*
X72078844Y-53800500D01*
X72078845Y-53800499D01*
X72233497Y-53769737D01*
X72379179Y-53709394D01*
X72510289Y-53621789D01*
X72510292Y-53621786D01*
X72531760Y-53600319D01*
X72593083Y-53566834D01*
X72619441Y-53564000D01*
X81079666Y-53564000D01*
X81146705Y-53583685D01*
X81192460Y-53636489D01*
X81202404Y-53705647D01*
X81201283Y-53712192D01*
X81199500Y-53721155D01*
X81199500Y-53878846D01*
X81230261Y-54033489D01*
X81230264Y-54033501D01*
X81290602Y-54179172D01*
X81290609Y-54179185D01*
X81378210Y-54310288D01*
X81378213Y-54310292D01*
X81489707Y-54421786D01*
X81489711Y-54421789D01*
X81620814Y-54509390D01*
X81620827Y-54509397D01*
X81733826Y-54556202D01*
X81766503Y-54569737D01*
X81921153Y-54600499D01*
X81921156Y-54600500D01*
X81921158Y-54600500D01*
X82078844Y-54600500D01*
X82078845Y-54600499D01*
X82233497Y-54569737D01*
X82379179Y-54509394D01*
X82510289Y-54421789D01*
X82510292Y-54421786D01*
X82531760Y-54400319D01*
X82593083Y-54366834D01*
X82619441Y-54364000D01*
X86380559Y-54364000D01*
X86447598Y-54383685D01*
X86468240Y-54400319D01*
X86489707Y-54421786D01*
X86489711Y-54421789D01*
X86620814Y-54509390D01*
X86620827Y-54509397D01*
X86733826Y-54556202D01*
X86766503Y-54569737D01*
X86921153Y-54600499D01*
X86921156Y-54600500D01*
X86921158Y-54600500D01*
X87078844Y-54600500D01*
X87078845Y-54600499D01*
X87233497Y-54569737D01*
X87379179Y-54509394D01*
X87510289Y-54421789D01*
X87510292Y-54421786D01*
X87531760Y-54400319D01*
X87593083Y-54366834D01*
X87619441Y-54364000D01*
X98180559Y-54364000D01*
X98247598Y-54383685D01*
X98268240Y-54400319D01*
X98289707Y-54421786D01*
X98289711Y-54421789D01*
X98420814Y-54509390D01*
X98420827Y-54509397D01*
X98533826Y-54556202D01*
X98566503Y-54569737D01*
X98721153Y-54600499D01*
X98721156Y-54600500D01*
X98721158Y-54600500D01*
X98878844Y-54600500D01*
X98878845Y-54600499D01*
X99033497Y-54569737D01*
X99150790Y-54521153D01*
X100599500Y-54521153D01*
X100599500Y-54678846D01*
X100630261Y-54833489D01*
X100630264Y-54833501D01*
X100690602Y-54979172D01*
X100690609Y-54979185D01*
X100778210Y-55110288D01*
X100778213Y-55110292D01*
X100889707Y-55221786D01*
X100889711Y-55221789D01*
X101020814Y-55309390D01*
X101020827Y-55309397D01*
X101166498Y-55369735D01*
X101166503Y-55369737D01*
X101321153Y-55400499D01*
X101321156Y-55400500D01*
X101321158Y-55400500D01*
X101478844Y-55400500D01*
X101478845Y-55400499D01*
X101633497Y-55369737D01*
X101779179Y-55309394D01*
X101910289Y-55221789D01*
X101991760Y-55140317D01*
X102053081Y-55106834D01*
X102079440Y-55104000D01*
X116133145Y-55104000D01*
X116200184Y-55123685D01*
X116243628Y-55171703D01*
X116309783Y-55301538D01*
X116444214Y-55486566D01*
X116605934Y-55648286D01*
X116690864Y-55709991D01*
X116733529Y-55765321D01*
X116739508Y-55834935D01*
X116706902Y-55896730D01*
X116690864Y-55910627D01*
X116606257Y-55972097D01*
X116444597Y-56133757D01*
X116310211Y-56318723D01*
X116206417Y-56522429D01*
X116135765Y-56739871D01*
X116121491Y-56830000D01*
X117109252Y-56830000D01*
X117087482Y-56867708D01*
X117050000Y-57007591D01*
X117050000Y-57152409D01*
X117087482Y-57292292D01*
X117109252Y-57330000D01*
X116121491Y-57330000D01*
X116135765Y-57420128D01*
X116206417Y-57637570D01*
X116310211Y-57841276D01*
X116444597Y-58026242D01*
X116606257Y-58187902D01*
X116791223Y-58322288D01*
X116994929Y-58426082D01*
X117212371Y-58496734D01*
X117350000Y-58518532D01*
X117350000Y-57570747D01*
X117387708Y-57592518D01*
X117527591Y-57630000D01*
X117672409Y-57630000D01*
X117812292Y-57592518D01*
X117850000Y-57570747D01*
X117850000Y-58518531D01*
X117987628Y-58496734D01*
X118205070Y-58426082D01*
X118408776Y-58322288D01*
X118593742Y-58187902D01*
X118755402Y-58026242D01*
X118889788Y-57841276D01*
X118993582Y-57637570D01*
X119064234Y-57420128D01*
X119078509Y-57330000D01*
X118090748Y-57330000D01*
X118112518Y-57292292D01*
X118150000Y-57152409D01*
X118150000Y-57007591D01*
X118112518Y-56867708D01*
X118090748Y-56830000D01*
X119078509Y-56830000D01*
X119064234Y-56739871D01*
X118993582Y-56522429D01*
X118889786Y-56318720D01*
X118782966Y-56171694D01*
X118782964Y-56171692D01*
X118755403Y-56133758D01*
X118723780Y-56102135D01*
X123649500Y-56102135D01*
X123649500Y-57897870D01*
X123649501Y-57897876D01*
X123655908Y-57957483D01*
X123706202Y-58092328D01*
X123706206Y-58092335D01*
X123792452Y-58207544D01*
X123792455Y-58207547D01*
X123907664Y-58293793D01*
X123907671Y-58293797D01*
X124042517Y-58344091D01*
X124042516Y-58344091D01*
X124049444Y-58344835D01*
X124102127Y-58350500D01*
X125897872Y-58350499D01*
X125957483Y-58344091D01*
X126092331Y-58293796D01*
X126207546Y-58207546D01*
X126293796Y-58092331D01*
X126344091Y-57957483D01*
X126350500Y-57897873D01*
X126350499Y-56102128D01*
X126344091Y-56042517D01*
X126340728Y-56033501D01*
X126293797Y-55907671D01*
X126293793Y-55907664D01*
X126207547Y-55792455D01*
X126207544Y-55792452D01*
X126092335Y-55706206D01*
X126092328Y-55706202D01*
X125957482Y-55655908D01*
X125957483Y-55655908D01*
X125897883Y-55649501D01*
X125897881Y-55649500D01*
X125897873Y-55649500D01*
X125897864Y-55649500D01*
X124102129Y-55649500D01*
X124102123Y-55649501D01*
X124042516Y-55655908D01*
X123907671Y-55706202D01*
X123907664Y-55706206D01*
X123792455Y-55792452D01*
X123792452Y-55792455D01*
X123706206Y-55907664D01*
X123706202Y-55907671D01*
X123655908Y-56042517D01*
X123650940Y-56088733D01*
X123649501Y-56102123D01*
X123649500Y-56102135D01*
X118723780Y-56102135D01*
X118593742Y-55972097D01*
X118509135Y-55910626D01*
X118466470Y-55855296D01*
X118460491Y-55785682D01*
X118493097Y-55723887D01*
X118509125Y-55709999D01*
X118594066Y-55648286D01*
X118755786Y-55486566D01*
X118890217Y-55301538D01*
X118994048Y-55097758D01*
X119029995Y-54987125D01*
X119064721Y-54880249D01*
X119064721Y-54880248D01*
X119064722Y-54880245D01*
X119100500Y-54654354D01*
X119100500Y-54425646D01*
X119064722Y-54199755D01*
X119064721Y-54199751D01*
X119064721Y-54199750D01*
X118994049Y-53982244D01*
X118982252Y-53959091D01*
X118890217Y-53778462D01*
X118757472Y-53595755D01*
X118733994Y-53529953D01*
X118749819Y-53461899D01*
X118799925Y-53413204D01*
X118814455Y-53406692D01*
X118842331Y-53396296D01*
X118957546Y-53310046D01*
X119043796Y-53194831D01*
X119094091Y-53059983D01*
X119100500Y-53000373D01*
X119100500Y-52688000D01*
X119120185Y-52620961D01*
X119172989Y-52575206D01*
X119224500Y-52564000D01*
X123525501Y-52564000D01*
X123592540Y-52583685D01*
X123638295Y-52636489D01*
X123649501Y-52688000D01*
X123649501Y-52897876D01*
X123655908Y-52957483D01*
X123706202Y-53092328D01*
X123706206Y-53092335D01*
X123792452Y-53207544D01*
X123792455Y-53207547D01*
X123907664Y-53293793D01*
X123907671Y-53293797D01*
X124042517Y-53344091D01*
X124042516Y-53344091D01*
X124049444Y-53344835D01*
X124102127Y-53350500D01*
X125897872Y-53350499D01*
X125957483Y-53344091D01*
X126092331Y-53293796D01*
X126207546Y-53207546D01*
X126293796Y-53092331D01*
X126344091Y-52957483D01*
X126350500Y-52897873D01*
X126350499Y-51102128D01*
X126344091Y-51042517D01*
X126341198Y-51034761D01*
X126293797Y-50907671D01*
X126293793Y-50907664D01*
X126207547Y-50792455D01*
X126207544Y-50792452D01*
X126092335Y-50706206D01*
X126092328Y-50706202D01*
X125957482Y-50655908D01*
X125957483Y-50655908D01*
X125897883Y-50649501D01*
X125897881Y-50649500D01*
X125897873Y-50649500D01*
X125897864Y-50649500D01*
X124102129Y-50649500D01*
X124102123Y-50649501D01*
X124042516Y-50655908D01*
X123907671Y-50706202D01*
X123907664Y-50706206D01*
X123792455Y-50792452D01*
X123792452Y-50792455D01*
X123706206Y-50907664D01*
X123706202Y-50907671D01*
X123655908Y-51042517D01*
X123649501Y-51102116D01*
X123649501Y-51102123D01*
X123649500Y-51102135D01*
X123649500Y-51312000D01*
X123629815Y-51379039D01*
X123577011Y-51424794D01*
X123525500Y-51436000D01*
X119224499Y-51436000D01*
X119157460Y-51416315D01*
X119111705Y-51363511D01*
X119100499Y-51312000D01*
X119100499Y-50999629D01*
X119100498Y-50999623D01*
X119100497Y-50999616D01*
X119094091Y-50940017D01*
X119088316Y-50924534D01*
X119043797Y-50805171D01*
X119043793Y-50805164D01*
X118957547Y-50689955D01*
X118957544Y-50689952D01*
X118842335Y-50603706D01*
X118842328Y-50603702D01*
X118707482Y-50553408D01*
X118707483Y-50553408D01*
X118647883Y-50547001D01*
X118647881Y-50547000D01*
X118647873Y-50547000D01*
X118647864Y-50547000D01*
X116552129Y-50547000D01*
X116552123Y-50547001D01*
X116492516Y-50553408D01*
X116357671Y-50603702D01*
X116357664Y-50603706D01*
X116242455Y-50689952D01*
X116242452Y-50689955D01*
X116156206Y-50805164D01*
X116156202Y-50805171D01*
X116105908Y-50940017D01*
X116099501Y-50999616D01*
X116099501Y-50999623D01*
X116099500Y-50999635D01*
X116099500Y-53000370D01*
X116099501Y-53000376D01*
X116105908Y-53059983D01*
X116156202Y-53194828D01*
X116156206Y-53194835D01*
X116242452Y-53310044D01*
X116242455Y-53310047D01*
X116357664Y-53396293D01*
X116357669Y-53396296D01*
X116385539Y-53406690D01*
X116441473Y-53448561D01*
X116465891Y-53514024D01*
X116451040Y-53582298D01*
X116442525Y-53595759D01*
X116309783Y-53778461D01*
X116243630Y-53908295D01*
X116195656Y-53959091D01*
X116133145Y-53976000D01*
X101944595Y-53976000D01*
X101877556Y-53956315D01*
X101875704Y-53955102D01*
X101779185Y-53890609D01*
X101779172Y-53890602D01*
X101633501Y-53830264D01*
X101633489Y-53830261D01*
X101478845Y-53799500D01*
X101478842Y-53799500D01*
X101321158Y-53799500D01*
X101321155Y-53799500D01*
X101166510Y-53830261D01*
X101166498Y-53830264D01*
X101020827Y-53890602D01*
X101020814Y-53890609D01*
X100889711Y-53978210D01*
X100889707Y-53978213D01*
X100778213Y-54089707D01*
X100778210Y-54089711D01*
X100690609Y-54220814D01*
X100690602Y-54220827D01*
X100630264Y-54366498D01*
X100630261Y-54366510D01*
X100599500Y-54521153D01*
X99150790Y-54521153D01*
X99179179Y-54509394D01*
X99310289Y-54421789D01*
X99421789Y-54310289D01*
X99509394Y-54179179D01*
X99569737Y-54033497D01*
X99600500Y-53878842D01*
X99600500Y-53721158D01*
X99600500Y-53721155D01*
X99600499Y-53721153D01*
X99580734Y-53621789D01*
X99569737Y-53566503D01*
X99522723Y-53453000D01*
X99509397Y-53420827D01*
X99509390Y-53420814D01*
X99421789Y-53289711D01*
X99421786Y-53289707D01*
X99310292Y-53178213D01*
X99310288Y-53178210D01*
X99179185Y-53090609D01*
X99179172Y-53090602D01*
X99033501Y-53030264D01*
X99033489Y-53030261D01*
X98878845Y-52999500D01*
X98878842Y-52999500D01*
X98721158Y-52999500D01*
X98721155Y-52999500D01*
X98566510Y-53030261D01*
X98566498Y-53030264D01*
X98420827Y-53090602D01*
X98420814Y-53090609D01*
X98289711Y-53178210D01*
X98289707Y-53178213D01*
X98268240Y-53199681D01*
X98206917Y-53233166D01*
X98180559Y-53236000D01*
X92120334Y-53236000D01*
X92053295Y-53216315D01*
X92007540Y-53163511D01*
X91997596Y-53094353D01*
X91998717Y-53087808D01*
X92000500Y-53078844D01*
X92000500Y-52921155D01*
X92000499Y-52921153D01*
X91995868Y-52897872D01*
X91969737Y-52766503D01*
X91956875Y-52735451D01*
X91949407Y-52665982D01*
X91980683Y-52603503D01*
X92040772Y-52567851D01*
X92071437Y-52564000D01*
X93180559Y-52564000D01*
X93247598Y-52583685D01*
X93268240Y-52600319D01*
X93289707Y-52621786D01*
X93289711Y-52621789D01*
X93420814Y-52709390D01*
X93420827Y-52709397D01*
X93558695Y-52766503D01*
X93566503Y-52769737D01*
X93721153Y-52800499D01*
X93721156Y-52800500D01*
X93721158Y-52800500D01*
X93878844Y-52800500D01*
X93878845Y-52800499D01*
X94033497Y-52769737D01*
X94179179Y-52709394D01*
X94310289Y-52621789D01*
X94421789Y-52510289D01*
X94509394Y-52379179D01*
X94569737Y-52233497D01*
X94600500Y-52078842D01*
X94600500Y-51921158D01*
X94600500Y-51921155D01*
X94600499Y-51921153D01*
X94589089Y-51863793D01*
X94569737Y-51766503D01*
X94538457Y-51690985D01*
X94509397Y-51620827D01*
X94509387Y-51620809D01*
X94464931Y-51554275D01*
X94444053Y-51487598D01*
X94462538Y-51420218D01*
X94480344Y-51397712D01*
X94554159Y-51323898D01*
X94654126Y-51186305D01*
X94731339Y-51034768D01*
X94783894Y-50873018D01*
X94810500Y-50705037D01*
X94810500Y-50534963D01*
X95189500Y-50534963D01*
X95189500Y-50705037D01*
X95202803Y-50789027D01*
X95216106Y-50873019D01*
X95268658Y-51034761D01*
X95268660Y-51034764D01*
X95268661Y-51034768D01*
X95345874Y-51186305D01*
X95445841Y-51323898D01*
X95566102Y-51444159D01*
X95703695Y-51544126D01*
X95855232Y-51621339D01*
X96016982Y-51673894D01*
X96184963Y-51700500D01*
X96184964Y-51700500D01*
X96355036Y-51700500D01*
X96355037Y-51700500D01*
X96523018Y-51673894D01*
X96684768Y-51621339D01*
X96836305Y-51544126D01*
X96973898Y-51444159D01*
X97094159Y-51323898D01*
X97194126Y-51186305D01*
X97271339Y-51034768D01*
X97323894Y-50873018D01*
X97350500Y-50705037D01*
X97350500Y-50534963D01*
X97729500Y-50534963D01*
X97729500Y-50705037D01*
X97742803Y-50789027D01*
X97756106Y-50873019D01*
X97808658Y-51034761D01*
X97808660Y-51034764D01*
X97808661Y-51034768D01*
X97885874Y-51186305D01*
X97985841Y-51323898D01*
X98106102Y-51444159D01*
X98243695Y-51544126D01*
X98395232Y-51621339D01*
X98556982Y-51673894D01*
X98724963Y-51700500D01*
X98724964Y-51700500D01*
X98895036Y-51700500D01*
X98895037Y-51700500D01*
X99063018Y-51673894D01*
X99224768Y-51621339D01*
X99376305Y-51544126D01*
X99513898Y-51444159D01*
X99634159Y-51323898D01*
X99734126Y-51186305D01*
X99811339Y-51034768D01*
X99863894Y-50873018D01*
X99890500Y-50705037D01*
X99890500Y-50534963D01*
X99863894Y-50366982D01*
X99811339Y-50205232D01*
X99734126Y-50053695D01*
X99634159Y-49916102D01*
X99513898Y-49795841D01*
X99376305Y-49695874D01*
X99224768Y-49618661D01*
X99224764Y-49618660D01*
X99224761Y-49618658D01*
X99063019Y-49566106D01*
X98979027Y-49552803D01*
X98895037Y-49539500D01*
X98724963Y-49539500D01*
X98668969Y-49548368D01*
X98556980Y-49566106D01*
X98395238Y-49618658D01*
X98243694Y-49695874D01*
X98106099Y-49795843D01*
X97985843Y-49916099D01*
X97885874Y-50053694D01*
X97808658Y-50205238D01*
X97756106Y-50366980D01*
X97756106Y-50366982D01*
X97729500Y-50534963D01*
X97350500Y-50534963D01*
X97323894Y-50366982D01*
X97271339Y-50205232D01*
X97194126Y-50053695D01*
X97094159Y-49916102D01*
X96973898Y-49795841D01*
X96836305Y-49695874D01*
X96684768Y-49618661D01*
X96684764Y-49618660D01*
X96684761Y-49618658D01*
X96523019Y-49566106D01*
X96439027Y-49552803D01*
X96355037Y-49539500D01*
X96184963Y-49539500D01*
X96128969Y-49548368D01*
X96016980Y-49566106D01*
X95855238Y-49618658D01*
X95703694Y-49695874D01*
X95566099Y-49795843D01*
X95445843Y-49916099D01*
X95345874Y-50053694D01*
X95268658Y-50205238D01*
X95216106Y-50366980D01*
X95216106Y-50366982D01*
X95189500Y-50534963D01*
X94810500Y-50534963D01*
X94783894Y-50366982D01*
X94731339Y-50205232D01*
X94654126Y-50053695D01*
X94554159Y-49916102D01*
X94433898Y-49795841D01*
X94296305Y-49695874D01*
X94144768Y-49618661D01*
X94144764Y-49618660D01*
X94144761Y-49618658D01*
X93983019Y-49566106D01*
X93899027Y-49552803D01*
X93815037Y-49539500D01*
X93644963Y-49539500D01*
X93588969Y-49548368D01*
X93476980Y-49566106D01*
X93315238Y-49618658D01*
X93163694Y-49695874D01*
X93026099Y-49795843D01*
X92905843Y-49916099D01*
X92805874Y-50053694D01*
X92728658Y-50205238D01*
X92676106Y-50366980D01*
X92676106Y-50366982D01*
X92649500Y-50534963D01*
X92649500Y-50705037D01*
X92662803Y-50789027D01*
X92676106Y-50873019D01*
X92728658Y-51034761D01*
X92728660Y-51034764D01*
X92728661Y-51034768D01*
X92762984Y-51102129D01*
X92805876Y-51186308D01*
X92844242Y-51239115D01*
X92867722Y-51304921D01*
X92851897Y-51372975D01*
X92801791Y-51421670D01*
X92743924Y-51436000D01*
X92176076Y-51436000D01*
X92109037Y-51416315D01*
X92063282Y-51363511D01*
X92053338Y-51294353D01*
X92075758Y-51239115D01*
X92092676Y-51215827D01*
X92114126Y-51186305D01*
X92191339Y-51034768D01*
X92243894Y-50873018D01*
X92270500Y-50705037D01*
X92270500Y-50534963D01*
X92243894Y-50366982D01*
X92191339Y-50205232D01*
X92114126Y-50053695D01*
X92014159Y-49916102D01*
X91893898Y-49795841D01*
X91756305Y-49695874D01*
X91604768Y-49618661D01*
X91604764Y-49618660D01*
X91604761Y-49618658D01*
X91443019Y-49566106D01*
X91359027Y-49552803D01*
X91275037Y-49539500D01*
X91104963Y-49539500D01*
X91048969Y-49548368D01*
X90936980Y-49566106D01*
X90775238Y-49618658D01*
X90623694Y-49695874D01*
X90486099Y-49795843D01*
X90365843Y-49916099D01*
X90265874Y-50053694D01*
X90188658Y-50205238D01*
X90136106Y-50366980D01*
X90136106Y-50366982D01*
X90109500Y-50534963D01*
X90109500Y-50705037D01*
X90122803Y-50789027D01*
X90136106Y-50873019D01*
X90188658Y-51034761D01*
X90188660Y-51034764D01*
X90188661Y-51034768D01*
X90222984Y-51102129D01*
X90265876Y-51186308D01*
X90304242Y-51239115D01*
X90327722Y-51304921D01*
X90311897Y-51372975D01*
X90261791Y-51421670D01*
X90203924Y-51436000D01*
X83424500Y-51436000D01*
X83357461Y-51416315D01*
X83311706Y-51363511D01*
X83300500Y-51312000D01*
X83300499Y-49772129D01*
X83300498Y-49772123D01*
X83300497Y-49772116D01*
X83294091Y-49712517D01*
X83243796Y-49577669D01*
X83243795Y-49577668D01*
X83243793Y-49577664D01*
X83157547Y-49462455D01*
X83157544Y-49462452D01*
X83042335Y-49376206D01*
X83042328Y-49376202D01*
X82907482Y-49325908D01*
X82907483Y-49325908D01*
X82847883Y-49319501D01*
X82847881Y-49319500D01*
X82847873Y-49319500D01*
X82847864Y-49319500D01*
X81152129Y-49319500D01*
X81152123Y-49319501D01*
X81092516Y-49325908D01*
X80957671Y-49376202D01*
X80957664Y-49376206D01*
X80842455Y-49462452D01*
X80842452Y-49462455D01*
X80756206Y-49577664D01*
X80756202Y-49577671D01*
X80705908Y-49712517D01*
X80699501Y-49772116D01*
X80699500Y-49772127D01*
X80699500Y-50603706D01*
X80699501Y-51312000D01*
X80679816Y-51379039D01*
X80627013Y-51424794D01*
X80575501Y-51436000D01*
X78246162Y-51436000D01*
X78179123Y-51416315D01*
X78133368Y-51363511D01*
X78123424Y-51294353D01*
X78135677Y-51255705D01*
X78205218Y-51119223D01*
X78205218Y-51119222D01*
X78205220Y-51119219D01*
X78268477Y-50924534D01*
X78300500Y-50722352D01*
X78300500Y-50517648D01*
X78268477Y-50315465D01*
X78205218Y-50120776D01*
X78171037Y-50053694D01*
X78112287Y-49938390D01*
X78096092Y-49916099D01*
X77991971Y-49772786D01*
X77847213Y-49628028D01*
X77681613Y-49507715D01*
X77681612Y-49507714D01*
X77681610Y-49507713D01*
X77624653Y-49478691D01*
X77499223Y-49414781D01*
X77304534Y-49351522D01*
X77129995Y-49323878D01*
X77102352Y-49319500D01*
X76897648Y-49319500D01*
X76873329Y-49323351D01*
X76695465Y-49351522D01*
X76500776Y-49414781D01*
X76318386Y-49507715D01*
X76152786Y-49628028D01*
X76008028Y-49772786D01*
X75887715Y-49938386D01*
X75794781Y-50120776D01*
X75731522Y-50315465D01*
X75699500Y-50517648D01*
X75699500Y-50722351D01*
X75731522Y-50924534D01*
X75794781Y-51119223D01*
X75855870Y-51239115D01*
X75884015Y-51294353D01*
X75887715Y-51301613D01*
X76008028Y-51467213D01*
X76152784Y-51611969D01*
X76183291Y-51634133D01*
X76225957Y-51689463D01*
X76231936Y-51759076D01*
X76231008Y-51762751D01*
X76199500Y-51921153D01*
X76199500Y-52078846D01*
X76230261Y-52233489D01*
X76230263Y-52233496D01*
X76243125Y-52264549D01*
X76250593Y-52334018D01*
X76219317Y-52396497D01*
X76159228Y-52432149D01*
X76128563Y-52436000D01*
X72619441Y-52436000D01*
X72552402Y-52416315D01*
X72531760Y-52399681D01*
X72510292Y-52378213D01*
X72510288Y-52378210D01*
X72379185Y-52290609D01*
X72379172Y-52290602D01*
X72233501Y-52230264D01*
X72233489Y-52230261D01*
X72078845Y-52199500D01*
X72078842Y-52199500D01*
X71921158Y-52199500D01*
X71921155Y-52199500D01*
X71766510Y-52230261D01*
X71766498Y-52230264D01*
X71620827Y-52290602D01*
X71620814Y-52290609D01*
X71489711Y-52378210D01*
X71489707Y-52378213D01*
X71468240Y-52399681D01*
X71406917Y-52433166D01*
X71380559Y-52436000D01*
X67619441Y-52436000D01*
X67552402Y-52416315D01*
X67531760Y-52399681D01*
X67510292Y-52378213D01*
X67510288Y-52378210D01*
X67379185Y-52290609D01*
X67379172Y-52290602D01*
X67233501Y-52230264D01*
X67233489Y-52230261D01*
X67078845Y-52199500D01*
X67078842Y-52199500D01*
X66921158Y-52199500D01*
X66921155Y-52199500D01*
X66766510Y-52230261D01*
X66766498Y-52230264D01*
X66620827Y-52290602D01*
X66620814Y-52290609D01*
X66489711Y-52378210D01*
X66489707Y-52378213D01*
X66468240Y-52399681D01*
X66406917Y-52433166D01*
X66380559Y-52436000D01*
X63796405Y-52436000D01*
X63729366Y-52416315D01*
X63683611Y-52363511D01*
X63680223Y-52355333D01*
X63643797Y-52257671D01*
X63643793Y-52257664D01*
X63557547Y-52142455D01*
X63557544Y-52142452D01*
X63442335Y-52056206D01*
X63442328Y-52056202D01*
X63307482Y-52005908D01*
X63307483Y-52005908D01*
X63247883Y-51999501D01*
X63247881Y-51999500D01*
X63247873Y-51999500D01*
X63247864Y-51999500D01*
X62152129Y-51999500D01*
X62152123Y-51999501D01*
X62092516Y-52005908D01*
X61957671Y-52056202D01*
X61957664Y-52056206D01*
X61842455Y-52142452D01*
X61842452Y-52142455D01*
X61756206Y-52257664D01*
X61756202Y-52257671D01*
X61705908Y-52392517D01*
X61699501Y-52452116D01*
X61699500Y-52452135D01*
X48300500Y-52452135D01*
X48300500Y-49772135D01*
X65699500Y-49772135D01*
X65699500Y-51467870D01*
X65699501Y-51467876D01*
X65705908Y-51527483D01*
X65756202Y-51662328D01*
X65756206Y-51662335D01*
X65842452Y-51777544D01*
X65842455Y-51777547D01*
X65957664Y-51863793D01*
X65957671Y-51863797D01*
X66092517Y-51914091D01*
X66092516Y-51914091D01*
X66099444Y-51914835D01*
X66152127Y-51920500D01*
X67847872Y-51920499D01*
X67907483Y-51914091D01*
X68042331Y-51863796D01*
X68157546Y-51777546D01*
X68243796Y-51662331D01*
X68294091Y-51527483D01*
X68300500Y-51467873D01*
X68300499Y-49772128D01*
X68294091Y-49712517D01*
X68243796Y-49577669D01*
X68243795Y-49577668D01*
X68243793Y-49577664D01*
X68157547Y-49462455D01*
X68157544Y-49462452D01*
X68042335Y-49376206D01*
X68042328Y-49376202D01*
X67907482Y-49325908D01*
X67907483Y-49325908D01*
X67847883Y-49319501D01*
X67847881Y-49319500D01*
X67847873Y-49319500D01*
X67847864Y-49319500D01*
X66152129Y-49319500D01*
X66152123Y-49319501D01*
X66092516Y-49325908D01*
X65957671Y-49376202D01*
X65957664Y-49376206D01*
X65842455Y-49462452D01*
X65842452Y-49462455D01*
X65756206Y-49577664D01*
X65756202Y-49577671D01*
X65705908Y-49712517D01*
X65699501Y-49772116D01*
X65699501Y-49772123D01*
X65699500Y-49772135D01*
X48300500Y-49772135D01*
X48300500Y-42228031D01*
X51299500Y-42228031D01*
X51299500Y-42571969D01*
X51306781Y-42645896D01*
X51333210Y-42914249D01*
X51400308Y-43251572D01*
X51500150Y-43580706D01*
X51631770Y-43898464D01*
X51631772Y-43898469D01*
X51793893Y-44201775D01*
X51793904Y-44201793D01*
X51984975Y-44487751D01*
X51984985Y-44487765D01*
X52203176Y-44753632D01*
X52446367Y-44996823D01*
X52446372Y-44996827D01*
X52446373Y-44996828D01*
X52712240Y-45215019D01*
X52998213Y-45406100D01*
X52998222Y-45406105D01*
X52998224Y-45406106D01*
X53301530Y-45568227D01*
X53301532Y-45568227D01*
X53301538Y-45568231D01*
X53619295Y-45699850D01*
X53948422Y-45799690D01*
X54285750Y-45866789D01*
X54628031Y-45900500D01*
X54628034Y-45900500D01*
X54971966Y-45900500D01*
X54971969Y-45900500D01*
X55314250Y-45866789D01*
X55651578Y-45799690D01*
X55980705Y-45699850D01*
X56298462Y-45568231D01*
X56601787Y-45406100D01*
X56887760Y-45215019D01*
X57153627Y-44996828D01*
X57396828Y-44753627D01*
X57615019Y-44487760D01*
X57672232Y-44402135D01*
X70949500Y-44402135D01*
X70949500Y-45597870D01*
X70949501Y-45597876D01*
X70955908Y-45657483D01*
X71006202Y-45792328D01*
X71006206Y-45792335D01*
X71092452Y-45907544D01*
X71092455Y-45907547D01*
X71207664Y-45993793D01*
X71207671Y-45993797D01*
X71342517Y-46044091D01*
X71342516Y-46044091D01*
X71349444Y-46044835D01*
X71402127Y-46050500D01*
X72597872Y-46050499D01*
X72657483Y-46044091D01*
X72792331Y-45993796D01*
X72907546Y-45907546D01*
X72993796Y-45792331D01*
X73044091Y-45657483D01*
X73050500Y-45597873D01*
X73050499Y-44402135D01*
X85949500Y-44402135D01*
X85949500Y-45597870D01*
X85949501Y-45597876D01*
X85955908Y-45657483D01*
X86006202Y-45792328D01*
X86006206Y-45792335D01*
X86092452Y-45907544D01*
X86092455Y-45907547D01*
X86207664Y-45993793D01*
X86207671Y-45993797D01*
X86342517Y-46044091D01*
X86342516Y-46044091D01*
X86349444Y-46044835D01*
X86402127Y-46050500D01*
X87597872Y-46050499D01*
X87657483Y-46044091D01*
X87792331Y-45993796D01*
X87907546Y-45907546D01*
X87993796Y-45792331D01*
X88044091Y-45657483D01*
X88050500Y-45597873D01*
X88050499Y-44402128D01*
X88044091Y-44342517D01*
X87993796Y-44207669D01*
X87993795Y-44207668D01*
X87993793Y-44207664D01*
X87907547Y-44092455D01*
X87907544Y-44092452D01*
X87792335Y-44006206D01*
X87792328Y-44006202D01*
X87754549Y-43992112D01*
X87754545Y-43992110D01*
X87657483Y-43955909D01*
X87627246Y-43952658D01*
X87615756Y-43949097D01*
X87596268Y-43936157D01*
X87574657Y-43927206D01*
X87564783Y-43918336D01*
X87000001Y-43353554D01*
X87000000Y-43353554D01*
X86435216Y-43918335D01*
X86373893Y-43951820D01*
X86360792Y-43953943D01*
X86342519Y-43955907D01*
X86207671Y-44006202D01*
X86207664Y-44006206D01*
X86092455Y-44092452D01*
X86092452Y-44092455D01*
X86006206Y-44207664D01*
X86006202Y-44207671D01*
X85955908Y-44342517D01*
X85951026Y-44387933D01*
X85949501Y-44402123D01*
X85949500Y-44402135D01*
X73050499Y-44402135D01*
X73050499Y-44402128D01*
X73044091Y-44342517D01*
X72993796Y-44207669D01*
X72993795Y-44207668D01*
X72993793Y-44207664D01*
X72907547Y-44092455D01*
X72907544Y-44092452D01*
X72792335Y-44006206D01*
X72792328Y-44006202D01*
X72657482Y-43955908D01*
X72657484Y-43955908D01*
X72639208Y-43953944D01*
X72574657Y-43927206D01*
X72564783Y-43918336D01*
X72000001Y-43353554D01*
X72000000Y-43353554D01*
X71435216Y-43918335D01*
X71373893Y-43951820D01*
X71360792Y-43953943D01*
X71342519Y-43955907D01*
X71207671Y-44006202D01*
X71207664Y-44006206D01*
X71092455Y-44092452D01*
X71092452Y-44092455D01*
X71006206Y-44207664D01*
X71006202Y-44207671D01*
X70955908Y-44342517D01*
X70951026Y-44387933D01*
X70949501Y-44402123D01*
X70949500Y-44402135D01*
X57672232Y-44402135D01*
X57806100Y-44201787D01*
X57968231Y-43898462D01*
X58099850Y-43580705D01*
X58199690Y-43251578D01*
X58266789Y-42914250D01*
X58271904Y-42862315D01*
X58280513Y-42774909D01*
X58280513Y-42774908D01*
X58282966Y-42750000D01*
X65723391Y-42750000D01*
X66684314Y-42750000D01*
X66679920Y-42754394D01*
X66627259Y-42845606D01*
X66600000Y-42947339D01*
X66600000Y-43052661D01*
X66627259Y-43154394D01*
X66679920Y-43245606D01*
X66684314Y-43250000D01*
X65723391Y-43250000D01*
X65732009Y-43304413D01*
X65795244Y-43499029D01*
X65888140Y-43681349D01*
X66008417Y-43846894D01*
X66008417Y-43846895D01*
X66153104Y-43991582D01*
X66318650Y-44111859D01*
X66500968Y-44204754D01*
X66695578Y-44267988D01*
X66750000Y-44276607D01*
X66750000Y-43315686D01*
X66754394Y-43320080D01*
X66845606Y-43372741D01*
X66947339Y-43400000D01*
X67052661Y-43400000D01*
X67154394Y-43372741D01*
X67245606Y-43320080D01*
X67250000Y-43315686D01*
X67250000Y-44276607D01*
X67251739Y-44276332D01*
X67304421Y-44267988D01*
X67499031Y-44204754D01*
X67681349Y-44111859D01*
X67846894Y-43991582D01*
X67846895Y-43991582D01*
X67991582Y-43846895D01*
X67991582Y-43846894D01*
X68111859Y-43681349D01*
X68204755Y-43499029D01*
X68267990Y-43304413D01*
X68276609Y-43250000D01*
X67315686Y-43250000D01*
X67320080Y-43245606D01*
X67372741Y-43154394D01*
X67400000Y-43052661D01*
X67400000Y-42947339D01*
X67386399Y-42896579D01*
X70950000Y-42896579D01*
X70950000Y-43103420D01*
X70990348Y-43306266D01*
X70990350Y-43306274D01*
X71069500Y-43497359D01*
X71101377Y-43545067D01*
X71101378Y-43545067D01*
X71646446Y-43000000D01*
X71600368Y-42953922D01*
X71650000Y-42953922D01*
X71650000Y-43046078D01*
X71673852Y-43135095D01*
X71719930Y-43214905D01*
X71785095Y-43280070D01*
X71864905Y-43326148D01*
X71953922Y-43350000D01*
X72046078Y-43350000D01*
X72135095Y-43326148D01*
X72214905Y-43280070D01*
X72280070Y-43214905D01*
X72326148Y-43135095D01*
X72350000Y-43046078D01*
X72350000Y-42999999D01*
X72353554Y-42999999D01*
X72353554Y-43000000D01*
X72898620Y-43545067D01*
X72898621Y-43545066D01*
X72930495Y-43497366D01*
X73009649Y-43306274D01*
X73009651Y-43306266D01*
X73033022Y-43188775D01*
X73033027Y-43188747D01*
X73050000Y-43103414D01*
X73050000Y-42901993D01*
X73032886Y-42810542D01*
X73020843Y-42750000D01*
X75723391Y-42750000D01*
X76684314Y-42750000D01*
X76679920Y-42754394D01*
X76627259Y-42845606D01*
X76600000Y-42947339D01*
X76600000Y-43052661D01*
X76627259Y-43154394D01*
X76679920Y-43245606D01*
X76684314Y-43250000D01*
X75723391Y-43250000D01*
X75732009Y-43304413D01*
X75795244Y-43499029D01*
X75888140Y-43681349D01*
X76008417Y-43846894D01*
X76008417Y-43846895D01*
X76153104Y-43991582D01*
X76318650Y-44111859D01*
X76500968Y-44204754D01*
X76695578Y-44267988D01*
X76750000Y-44276607D01*
X76750000Y-43315686D01*
X76754394Y-43320080D01*
X76845606Y-43372741D01*
X76947339Y-43400000D01*
X77052661Y-43400000D01*
X77154394Y-43372741D01*
X77245606Y-43320080D01*
X77250000Y-43315686D01*
X77250000Y-44276606D01*
X77304421Y-44267988D01*
X77499031Y-44204754D01*
X77681349Y-44111859D01*
X77846894Y-43991582D01*
X77846895Y-43991582D01*
X77991582Y-43846895D01*
X77991582Y-43846894D01*
X78111859Y-43681349D01*
X78204755Y-43499029D01*
X78267990Y-43304413D01*
X78276609Y-43250000D01*
X77315686Y-43250000D01*
X77320080Y-43245606D01*
X77372741Y-43154394D01*
X77400000Y-43052661D01*
X77400000Y-42947339D01*
X77372741Y-42845606D01*
X77320080Y-42754394D01*
X77315686Y-42750000D01*
X78276609Y-42750000D01*
X80723391Y-42750000D01*
X81684314Y-42750000D01*
X81679920Y-42754394D01*
X81627259Y-42845606D01*
X81600000Y-42947339D01*
X81600000Y-43052661D01*
X81627259Y-43154394D01*
X81679920Y-43245606D01*
X81684314Y-43250000D01*
X80723391Y-43250000D01*
X80732009Y-43304413D01*
X80795244Y-43499029D01*
X80888140Y-43681349D01*
X81008417Y-43846894D01*
X81008417Y-43846895D01*
X81153104Y-43991582D01*
X81318650Y-44111859D01*
X81500968Y-44204754D01*
X81695578Y-44267988D01*
X81750000Y-44276607D01*
X81750000Y-43315686D01*
X81754394Y-43320080D01*
X81845606Y-43372741D01*
X81947339Y-43400000D01*
X82052661Y-43400000D01*
X82154394Y-43372741D01*
X82245606Y-43320080D01*
X82250000Y-43315686D01*
X82250000Y-44276607D01*
X82251739Y-44276332D01*
X82304421Y-44267988D01*
X82499031Y-44204754D01*
X82681349Y-44111859D01*
X82846894Y-43991582D01*
X82846895Y-43991582D01*
X82991582Y-43846895D01*
X82991582Y-43846894D01*
X83111859Y-43681349D01*
X83204755Y-43499029D01*
X83267990Y-43304413D01*
X83276609Y-43250000D01*
X82315686Y-43250000D01*
X82320080Y-43245606D01*
X82372741Y-43154394D01*
X82400000Y-43052661D01*
X82400000Y-42947339D01*
X82386399Y-42896579D01*
X85950000Y-42896579D01*
X85950000Y-43103420D01*
X85990348Y-43306266D01*
X85990350Y-43306274D01*
X86069500Y-43497359D01*
X86101377Y-43545067D01*
X86101378Y-43545067D01*
X86646446Y-43000000D01*
X86600368Y-42953922D01*
X86650000Y-42953922D01*
X86650000Y-43046078D01*
X86673852Y-43135095D01*
X86719930Y-43214905D01*
X86785095Y-43280070D01*
X86864905Y-43326148D01*
X86953922Y-43350000D01*
X87046078Y-43350000D01*
X87135095Y-43326148D01*
X87214905Y-43280070D01*
X87280070Y-43214905D01*
X87326148Y-43135095D01*
X87350000Y-43046078D01*
X87350000Y-42999999D01*
X87353554Y-42999999D01*
X87353554Y-43000001D01*
X87898620Y-43545067D01*
X87898621Y-43545066D01*
X87930495Y-43497366D01*
X88009649Y-43306274D01*
X88009651Y-43306266D01*
X88049999Y-43103420D01*
X88050000Y-43103417D01*
X88050000Y-42914996D01*
X90110000Y-42914996D01*
X90110000Y-43085003D01*
X90136593Y-43252902D01*
X90189122Y-43414573D01*
X90189123Y-43414576D01*
X90266302Y-43566045D01*
X90268027Y-43568418D01*
X90810000Y-43026445D01*
X90810000Y-43050028D01*
X90835896Y-43146675D01*
X90885924Y-43233325D01*
X90956675Y-43304076D01*
X91043325Y-43354104D01*
X91139972Y-43380000D01*
X91163553Y-43380000D01*
X90621580Y-43921971D01*
X90623955Y-43923698D01*
X90775423Y-44000876D01*
X90775426Y-44000877D01*
X90937097Y-44053406D01*
X91104997Y-44080000D01*
X91275003Y-44080000D01*
X91442902Y-44053406D01*
X91604573Y-44000877D01*
X91604576Y-44000876D01*
X91756040Y-43923700D01*
X91756042Y-43923699D01*
X91758418Y-43921971D01*
X91216448Y-43380000D01*
X91240028Y-43380000D01*
X91336675Y-43354104D01*
X91423325Y-43304076D01*
X91494076Y-43233325D01*
X91544104Y-43146675D01*
X91570000Y-43050028D01*
X91570000Y-43026447D01*
X92111971Y-43568418D01*
X92113699Y-43566042D01*
X92113700Y-43566040D01*
X92190876Y-43414576D01*
X92190877Y-43414573D01*
X92243406Y-43252902D01*
X92270000Y-43085003D01*
X92270000Y-42914996D01*
X92650000Y-42914996D01*
X92650000Y-43085003D01*
X92676593Y-43252902D01*
X92729122Y-43414573D01*
X92729123Y-43414576D01*
X92806302Y-43566045D01*
X92808027Y-43568418D01*
X93350000Y-43026445D01*
X93350000Y-43050028D01*
X93375896Y-43146675D01*
X93425924Y-43233325D01*
X93496675Y-43304076D01*
X93583325Y-43354104D01*
X93679972Y-43380000D01*
X93703553Y-43380000D01*
X93161580Y-43921971D01*
X93163955Y-43923698D01*
X93315423Y-44000876D01*
X93315426Y-44000877D01*
X93477097Y-44053406D01*
X93644997Y-44080000D01*
X93815003Y-44080000D01*
X93982902Y-44053406D01*
X94144573Y-44000877D01*
X94144576Y-44000876D01*
X94296040Y-43923700D01*
X94296042Y-43923699D01*
X94298418Y-43921971D01*
X93756448Y-43380000D01*
X93780028Y-43380000D01*
X93876675Y-43354104D01*
X93963325Y-43304076D01*
X94034076Y-43233325D01*
X94084104Y-43146675D01*
X94110000Y-43050028D01*
X94110000Y-43026447D01*
X94651971Y-43568418D01*
X94653699Y-43566042D01*
X94653700Y-43566040D01*
X94730876Y-43414576D01*
X94730877Y-43414573D01*
X94783406Y-43252902D01*
X94810000Y-43085003D01*
X94810000Y-42914996D01*
X95190000Y-42914996D01*
X95190000Y-43085003D01*
X95216593Y-43252902D01*
X95269122Y-43414573D01*
X95269123Y-43414576D01*
X95346302Y-43566045D01*
X95348027Y-43568418D01*
X95890000Y-43026445D01*
X95890000Y-43050028D01*
X95915896Y-43146675D01*
X95965924Y-43233325D01*
X96036675Y-43304076D01*
X96123325Y-43354104D01*
X96219972Y-43380000D01*
X96243553Y-43380000D01*
X95701580Y-43921971D01*
X95703955Y-43923698D01*
X95855423Y-44000876D01*
X95855426Y-44000877D01*
X96017097Y-44053406D01*
X96184997Y-44080000D01*
X96355003Y-44080000D01*
X96522902Y-44053406D01*
X96684573Y-44000877D01*
X96684576Y-44000876D01*
X96836040Y-43923700D01*
X96836042Y-43923699D01*
X96838418Y-43921971D01*
X96296448Y-43380000D01*
X96320028Y-43380000D01*
X96416675Y-43354104D01*
X96503325Y-43304076D01*
X96574076Y-43233325D01*
X96624104Y-43146675D01*
X96650000Y-43050028D01*
X96650000Y-43026447D01*
X97191971Y-43568418D01*
X97193699Y-43566042D01*
X97193700Y-43566040D01*
X97270876Y-43414576D01*
X97270877Y-43414573D01*
X97323406Y-43252902D01*
X97335074Y-43179240D01*
X97350000Y-43085003D01*
X97350000Y-42914996D01*
X97323406Y-42747097D01*
X97270877Y-42585426D01*
X97270876Y-42585423D01*
X97193699Y-42433958D01*
X97193695Y-42433952D01*
X97191971Y-42431580D01*
X96650000Y-42973551D01*
X96650000Y-42949972D01*
X96624104Y-42853325D01*
X96574076Y-42766675D01*
X96503325Y-42695924D01*
X96416675Y-42645896D01*
X96320028Y-42620000D01*
X96296447Y-42620000D01*
X96544292Y-42372155D01*
X97730000Y-42372155D01*
X97730000Y-42750000D01*
X98522599Y-42750000D01*
X98505924Y-42766675D01*
X98455896Y-42853325D01*
X98430000Y-42949972D01*
X98430000Y-43050028D01*
X98455896Y-43146675D01*
X98505924Y-43233325D01*
X98522599Y-43250000D01*
X97730000Y-43250000D01*
X97730000Y-43627844D01*
X97736401Y-43687372D01*
X97736403Y-43687379D01*
X97786645Y-43822086D01*
X97786649Y-43822093D01*
X97872809Y-43937187D01*
X97872812Y-43937190D01*
X97987906Y-44023350D01*
X97987913Y-44023354D01*
X98122620Y-44073596D01*
X98122627Y-44073598D01*
X98182155Y-44079999D01*
X98182172Y-44080000D01*
X98560000Y-44080000D01*
X98560000Y-43287401D01*
X98576675Y-43304076D01*
X98663325Y-43354104D01*
X98759972Y-43380000D01*
X98860028Y-43380000D01*
X98956675Y-43354104D01*
X99043325Y-43304076D01*
X99060000Y-43287401D01*
X99060000Y-44080000D01*
X99437828Y-44080000D01*
X99437844Y-44079999D01*
X99497372Y-44073598D01*
X99497379Y-44073596D01*
X99632086Y-44023354D01*
X99632093Y-44023350D01*
X99747187Y-43937190D01*
X99747190Y-43937187D01*
X99833350Y-43822093D01*
X99833354Y-43822086D01*
X99883596Y-43687379D01*
X99883598Y-43687372D01*
X99889999Y-43627844D01*
X99890000Y-43627827D01*
X99890000Y-43250000D01*
X99097401Y-43250000D01*
X99114076Y-43233325D01*
X99164104Y-43146675D01*
X99190000Y-43050028D01*
X99190000Y-42949972D01*
X99166517Y-42862332D01*
X106899500Y-42862332D01*
X106899500Y-43137667D01*
X106899501Y-43137684D01*
X106935438Y-43410655D01*
X106935439Y-43410660D01*
X106935440Y-43410666D01*
X106962134Y-43510289D01*
X107006704Y-43676630D01*
X107112075Y-43931017D01*
X107112080Y-43931028D01*
X107182736Y-44053406D01*
X107249751Y-44169479D01*
X107249753Y-44169482D01*
X107249754Y-44169483D01*
X107417370Y-44387926D01*
X107417376Y-44387933D01*
X107612066Y-44582623D01*
X107612072Y-44582628D01*
X107830521Y-44750249D01*
X107983778Y-44838732D01*
X108068971Y-44887919D01*
X108068976Y-44887921D01*
X108068979Y-44887923D01*
X108323368Y-44993295D01*
X108589334Y-45064560D01*
X108862326Y-45100500D01*
X108862333Y-45100500D01*
X109137667Y-45100500D01*
X109137674Y-45100500D01*
X109410666Y-45064560D01*
X109676632Y-44993295D01*
X109931021Y-44887923D01*
X110169479Y-44750249D01*
X110387928Y-44582628D01*
X110582628Y-44387928D01*
X110750249Y-44169479D01*
X110887923Y-43931021D01*
X110993295Y-43676632D01*
X110998848Y-43655904D01*
X111035214Y-43596246D01*
X111098061Y-43565717D01*
X111118623Y-43564000D01*
X116980559Y-43564000D01*
X117047598Y-43583685D01*
X117068240Y-43600319D01*
X117089707Y-43621786D01*
X117089711Y-43621789D01*
X117220814Y-43709390D01*
X117220827Y-43709397D01*
X117366498Y-43769735D01*
X117366503Y-43769737D01*
X117521153Y-43800499D01*
X117521156Y-43800500D01*
X117521158Y-43800500D01*
X117678844Y-43800500D01*
X117678845Y-43800499D01*
X117833497Y-43769737D01*
X117979179Y-43709394D01*
X118110289Y-43621789D01*
X118221789Y-43510289D01*
X118309394Y-43379179D01*
X118369737Y-43233497D01*
X118400500Y-43078842D01*
X118400500Y-42921158D01*
X118400500Y-42921155D01*
X118400499Y-42921153D01*
X118399126Y-42914249D01*
X118369737Y-42766503D01*
X118369734Y-42766496D01*
X118369733Y-42766492D01*
X118309397Y-42620827D01*
X118309390Y-42620814D01*
X118221789Y-42489711D01*
X118221786Y-42489707D01*
X118110292Y-42378213D01*
X118110288Y-42378210D01*
X118035277Y-42328089D01*
X117979185Y-42290609D01*
X117979172Y-42290602D01*
X117833501Y-42230264D01*
X117833489Y-42230261D01*
X117822278Y-42228031D01*
X122299500Y-42228031D01*
X122299500Y-42571969D01*
X122306781Y-42645896D01*
X122333210Y-42914249D01*
X122400308Y-43251572D01*
X122500150Y-43580706D01*
X122631770Y-43898464D01*
X122631772Y-43898469D01*
X122793893Y-44201775D01*
X122793904Y-44201793D01*
X122984975Y-44487751D01*
X122984985Y-44487765D01*
X123203176Y-44753632D01*
X123446367Y-44996823D01*
X123446372Y-44996827D01*
X123446373Y-44996828D01*
X123712240Y-45215019D01*
X123998213Y-45406100D01*
X123998222Y-45406105D01*
X123998224Y-45406106D01*
X124301530Y-45568227D01*
X124301532Y-45568227D01*
X124301538Y-45568231D01*
X124619295Y-45699850D01*
X124948422Y-45799690D01*
X125285750Y-45866789D01*
X125628031Y-45900500D01*
X125628034Y-45900500D01*
X125971966Y-45900500D01*
X125971969Y-45900500D01*
X126314250Y-45866789D01*
X126651578Y-45799690D01*
X126980705Y-45699850D01*
X127298462Y-45568231D01*
X127601787Y-45406100D01*
X127887760Y-45215019D01*
X128153627Y-44996828D01*
X128396828Y-44753627D01*
X128615019Y-44487760D01*
X128806100Y-44201787D01*
X128968231Y-43898462D01*
X129099850Y-43580705D01*
X129199690Y-43251578D01*
X129266789Y-42914250D01*
X129300500Y-42571969D01*
X129300500Y-42228031D01*
X129266789Y-41885750D01*
X129199690Y-41548422D01*
X129099850Y-41219295D01*
X128968231Y-40901538D01*
X128806100Y-40598213D01*
X128615019Y-40312240D01*
X128396828Y-40046373D01*
X128396827Y-40046372D01*
X128396823Y-40046367D01*
X128153632Y-39803176D01*
X127887765Y-39584985D01*
X127887764Y-39584984D01*
X127887760Y-39584981D01*
X127601787Y-39393900D01*
X127601782Y-39393897D01*
X127601775Y-39393893D01*
X127298469Y-39231772D01*
X127298464Y-39231770D01*
X126980706Y-39100150D01*
X126651572Y-39000308D01*
X126314248Y-38933210D01*
X126314249Y-38933210D01*
X126056456Y-38907821D01*
X125971969Y-38899500D01*
X125628031Y-38899500D01*
X125549966Y-38907188D01*
X125285750Y-38933210D01*
X124948427Y-39000308D01*
X124619293Y-39100150D01*
X124301535Y-39231770D01*
X124301530Y-39231772D01*
X123998224Y-39393893D01*
X123998206Y-39393904D01*
X123712248Y-39584975D01*
X123712234Y-39584985D01*
X123446367Y-39803176D01*
X123203176Y-40046367D01*
X122984985Y-40312234D01*
X122984975Y-40312248D01*
X122793904Y-40598206D01*
X122793893Y-40598224D01*
X122631772Y-40901530D01*
X122631770Y-40901535D01*
X122500150Y-41219293D01*
X122400308Y-41548427D01*
X122333210Y-41885750D01*
X122314443Y-42076304D01*
X122299500Y-42228031D01*
X117822278Y-42228031D01*
X117678845Y-42199500D01*
X117678842Y-42199500D01*
X117521158Y-42199500D01*
X117521155Y-42199500D01*
X117366510Y-42230261D01*
X117366498Y-42230264D01*
X117220827Y-42290602D01*
X117220814Y-42290609D01*
X117089711Y-42378210D01*
X117089707Y-42378213D01*
X117068240Y-42399681D01*
X117006917Y-42433166D01*
X116980559Y-42436000D01*
X111118623Y-42436000D01*
X111051584Y-42416315D01*
X111005829Y-42363511D01*
X110998848Y-42344094D01*
X110993295Y-42323368D01*
X110887923Y-42068979D01*
X110887920Y-42068974D01*
X110887919Y-42068971D01*
X110817263Y-41946593D01*
X110750249Y-41830521D01*
X110582628Y-41612072D01*
X110582623Y-41612066D01*
X110387933Y-41417376D01*
X110387926Y-41417370D01*
X110169483Y-41249754D01*
X110169482Y-41249753D01*
X110169479Y-41249751D01*
X110074407Y-41194861D01*
X109931028Y-41112080D01*
X109931017Y-41112075D01*
X109676630Y-41006704D01*
X109543649Y-40971072D01*
X109410666Y-40935440D01*
X109410660Y-40935439D01*
X109410655Y-40935438D01*
X109137684Y-40899501D01*
X109137679Y-40899500D01*
X109137674Y-40899500D01*
X108862326Y-40899500D01*
X108862320Y-40899500D01*
X108862315Y-40899501D01*
X108589344Y-40935438D01*
X108589337Y-40935439D01*
X108589334Y-40935440D01*
X108533125Y-40950500D01*
X108323369Y-41006704D01*
X108068982Y-41112075D01*
X108068971Y-41112080D01*
X107830516Y-41249754D01*
X107612073Y-41417370D01*
X107612066Y-41417376D01*
X107417376Y-41612066D01*
X107417370Y-41612073D01*
X107249754Y-41830516D01*
X107112080Y-42068971D01*
X107112075Y-42068982D01*
X107006704Y-42323369D01*
X106935441Y-42589331D01*
X106935438Y-42589344D01*
X106899501Y-42862315D01*
X106899500Y-42862332D01*
X99166517Y-42862332D01*
X99164104Y-42853325D01*
X99114076Y-42766675D01*
X99097401Y-42750000D01*
X99890000Y-42750000D01*
X99890000Y-42372172D01*
X99889999Y-42372155D01*
X99883598Y-42312627D01*
X99883596Y-42312620D01*
X99833354Y-42177913D01*
X99833350Y-42177906D01*
X99747190Y-42062812D01*
X99747187Y-42062809D01*
X99632093Y-41976649D01*
X99632086Y-41976645D01*
X99497379Y-41926403D01*
X99497372Y-41926401D01*
X99437844Y-41920000D01*
X99060000Y-41920000D01*
X99060000Y-42712599D01*
X99043325Y-42695924D01*
X98956675Y-42645896D01*
X98860028Y-42620000D01*
X98759972Y-42620000D01*
X98663325Y-42645896D01*
X98576675Y-42695924D01*
X98560000Y-42712599D01*
X98560000Y-41920000D01*
X98182155Y-41920000D01*
X98122627Y-41926401D01*
X98122620Y-41926403D01*
X97987913Y-41976645D01*
X97987906Y-41976649D01*
X97872812Y-42062809D01*
X97872809Y-42062812D01*
X97786649Y-42177906D01*
X97786645Y-42177913D01*
X97736403Y-42312620D01*
X97736401Y-42312627D01*
X97730000Y-42372155D01*
X96544292Y-42372155D01*
X96838419Y-42078027D01*
X96836045Y-42076302D01*
X96684576Y-41999123D01*
X96684573Y-41999122D01*
X96522902Y-41946593D01*
X96355003Y-41920000D01*
X96184997Y-41920000D01*
X96017097Y-41946593D01*
X95855426Y-41999122D01*
X95855423Y-41999123D01*
X95703962Y-42076298D01*
X95703951Y-42076304D01*
X95701579Y-42078027D01*
X96243554Y-42620000D01*
X96219972Y-42620000D01*
X96123325Y-42645896D01*
X96036675Y-42695924D01*
X95965924Y-42766675D01*
X95915896Y-42853325D01*
X95890000Y-42949972D01*
X95890000Y-42973552D01*
X95348027Y-42431579D01*
X95346304Y-42433951D01*
X95346298Y-42433962D01*
X95269123Y-42585423D01*
X95269122Y-42585426D01*
X95216593Y-42747097D01*
X95190000Y-42914996D01*
X94810000Y-42914996D01*
X94783406Y-42747097D01*
X94730877Y-42585426D01*
X94730876Y-42585423D01*
X94653698Y-42433955D01*
X94651971Y-42431580D01*
X94110000Y-42973551D01*
X94110000Y-42949972D01*
X94084104Y-42853325D01*
X94034076Y-42766675D01*
X93963325Y-42695924D01*
X93876675Y-42645896D01*
X93780028Y-42620000D01*
X93756447Y-42620000D01*
X94298418Y-42078027D01*
X94296045Y-42076302D01*
X94144576Y-41999123D01*
X94144573Y-41999122D01*
X93982902Y-41946593D01*
X93815003Y-41920000D01*
X93644997Y-41920000D01*
X93477097Y-41946593D01*
X93315426Y-41999122D01*
X93315423Y-41999123D01*
X93163962Y-42076298D01*
X93163951Y-42076304D01*
X93161579Y-42078027D01*
X93703554Y-42620000D01*
X93679972Y-42620000D01*
X93583325Y-42645896D01*
X93496675Y-42695924D01*
X93425924Y-42766675D01*
X93375896Y-42853325D01*
X93350000Y-42949972D01*
X93350000Y-42973552D01*
X92808027Y-42431579D01*
X92806304Y-42433951D01*
X92806298Y-42433962D01*
X92729123Y-42585423D01*
X92729122Y-42585426D01*
X92676593Y-42747097D01*
X92650000Y-42914996D01*
X92270000Y-42914996D01*
X92243406Y-42747097D01*
X92190877Y-42585426D01*
X92190876Y-42585423D01*
X92113698Y-42433955D01*
X92111971Y-42431580D01*
X91570000Y-42973551D01*
X91570000Y-42949972D01*
X91544104Y-42853325D01*
X91494076Y-42766675D01*
X91423325Y-42695924D01*
X91336675Y-42645896D01*
X91240028Y-42620000D01*
X91216447Y-42620000D01*
X91758418Y-42078027D01*
X91756045Y-42076302D01*
X91604576Y-41999123D01*
X91604573Y-41999122D01*
X91442902Y-41946593D01*
X91275003Y-41920000D01*
X91104997Y-41920000D01*
X90937097Y-41946593D01*
X90775426Y-41999122D01*
X90775423Y-41999123D01*
X90623962Y-42076298D01*
X90623951Y-42076304D01*
X90621579Y-42078027D01*
X91163554Y-42620000D01*
X91139972Y-42620000D01*
X91043325Y-42645896D01*
X90956675Y-42695924D01*
X90885924Y-42766675D01*
X90835896Y-42853325D01*
X90810000Y-42949972D01*
X90810000Y-42973552D01*
X90268027Y-42431579D01*
X90266304Y-42433951D01*
X90266298Y-42433962D01*
X90189123Y-42585423D01*
X90189122Y-42585426D01*
X90136593Y-42747097D01*
X90110000Y-42914996D01*
X88050000Y-42914996D01*
X88050000Y-42896583D01*
X88049999Y-42896579D01*
X88009651Y-42693733D01*
X88009649Y-42693725D01*
X87930498Y-42502639D01*
X87930495Y-42502633D01*
X87898621Y-42454932D01*
X87898620Y-42454931D01*
X87353554Y-42999999D01*
X87350000Y-42999999D01*
X87350000Y-42953922D01*
X87326148Y-42864905D01*
X87280070Y-42785095D01*
X87214905Y-42719930D01*
X87135095Y-42673852D01*
X87046078Y-42650000D01*
X86953922Y-42650000D01*
X86864905Y-42673852D01*
X86785095Y-42719930D01*
X86719930Y-42785095D01*
X86673852Y-42864905D01*
X86650000Y-42953922D01*
X86600368Y-42953922D01*
X86101378Y-42454932D01*
X86101377Y-42454932D01*
X86069505Y-42502631D01*
X86069500Y-42502641D01*
X85990350Y-42693725D01*
X85990348Y-42693733D01*
X85950000Y-42896579D01*
X82386399Y-42896579D01*
X82372741Y-42845606D01*
X82320080Y-42754394D01*
X82315686Y-42750000D01*
X83276609Y-42750000D01*
X83267990Y-42695586D01*
X83204755Y-42500970D01*
X83111859Y-42318650D01*
X83040530Y-42220475D01*
X83040529Y-42220473D01*
X82991587Y-42153110D01*
X82991582Y-42153104D01*
X82939855Y-42101377D01*
X86454932Y-42101377D01*
X86454932Y-42101378D01*
X87000000Y-42646446D01*
X87000001Y-42646446D01*
X87545066Y-42101378D01*
X87545066Y-42101377D01*
X87497359Y-42069500D01*
X87306274Y-41990350D01*
X87306266Y-41990348D01*
X87103420Y-41950000D01*
X86896579Y-41950000D01*
X86693733Y-41990348D01*
X86693725Y-41990350D01*
X86502641Y-42069500D01*
X86502631Y-42069505D01*
X86454932Y-42101377D01*
X82939855Y-42101377D01*
X82846895Y-42008417D01*
X82681349Y-41888140D01*
X82499029Y-41795244D01*
X82304413Y-41732009D01*
X82250000Y-41723390D01*
X82250000Y-42684314D01*
X82245606Y-42679920D01*
X82154394Y-42627259D01*
X82052661Y-42600000D01*
X81947339Y-42600000D01*
X81845606Y-42627259D01*
X81754394Y-42679920D01*
X81750000Y-42684314D01*
X81750000Y-41723390D01*
X81695586Y-41732009D01*
X81500970Y-41795244D01*
X81318650Y-41888140D01*
X81153105Y-42008417D01*
X81153104Y-42008417D01*
X81008417Y-42153104D01*
X81008417Y-42153105D01*
X80888140Y-42318650D01*
X80795244Y-42500970D01*
X80732009Y-42695586D01*
X80723391Y-42750000D01*
X78276609Y-42750000D01*
X78267990Y-42695586D01*
X78204755Y-42500970D01*
X78111859Y-42318650D01*
X77991582Y-42153105D01*
X77991582Y-42153104D01*
X77846895Y-42008417D01*
X77681349Y-41888140D01*
X77499029Y-41795244D01*
X77304413Y-41732009D01*
X77250000Y-41723390D01*
X77250000Y-42684314D01*
X77245606Y-42679920D01*
X77154394Y-42627259D01*
X77052661Y-42600000D01*
X76947339Y-42600000D01*
X76845606Y-42627259D01*
X76754394Y-42679920D01*
X76750000Y-42684314D01*
X76750000Y-41723390D01*
X76695586Y-41732009D01*
X76500970Y-41795244D01*
X76318650Y-41888140D01*
X76153105Y-42008417D01*
X76153104Y-42008417D01*
X76008417Y-42153104D01*
X76008417Y-42153105D01*
X75888140Y-42318650D01*
X75795244Y-42500970D01*
X75732009Y-42695586D01*
X75723391Y-42750000D01*
X73020843Y-42750000D01*
X73009651Y-42693733D01*
X73009649Y-42693725D01*
X72930498Y-42502639D01*
X72930495Y-42502633D01*
X72898621Y-42454932D01*
X72898620Y-42454931D01*
X72353554Y-42999999D01*
X72350000Y-42999999D01*
X72350000Y-42953922D01*
X72326148Y-42864905D01*
X72280070Y-42785095D01*
X72214905Y-42719930D01*
X72135095Y-42673852D01*
X72046078Y-42650000D01*
X71953922Y-42650000D01*
X71864905Y-42673852D01*
X71785095Y-42719930D01*
X71719930Y-42785095D01*
X71673852Y-42864905D01*
X71650000Y-42953922D01*
X71600368Y-42953922D01*
X71101378Y-42454932D01*
X71101377Y-42454932D01*
X71069505Y-42502631D01*
X71069500Y-42502641D01*
X70990350Y-42693725D01*
X70990348Y-42693733D01*
X70950000Y-42896579D01*
X67386399Y-42896579D01*
X67372741Y-42845606D01*
X67320080Y-42754394D01*
X67315686Y-42750000D01*
X68276609Y-42750000D01*
X68267990Y-42695586D01*
X68204755Y-42500970D01*
X68111859Y-42318650D01*
X68040530Y-42220475D01*
X68040529Y-42220473D01*
X67991587Y-42153110D01*
X67991582Y-42153104D01*
X67939855Y-42101377D01*
X71454932Y-42101377D01*
X71454932Y-42101378D01*
X72000000Y-42646446D01*
X72000001Y-42646446D01*
X72545067Y-42101378D01*
X72545067Y-42101377D01*
X72497359Y-42069500D01*
X72306274Y-41990350D01*
X72306266Y-41990348D01*
X72103420Y-41950000D01*
X71896579Y-41950000D01*
X71693733Y-41990348D01*
X71693725Y-41990350D01*
X71502641Y-42069500D01*
X71502631Y-42069505D01*
X71454932Y-42101377D01*
X67939855Y-42101377D01*
X67846895Y-42008417D01*
X67681349Y-41888140D01*
X67499029Y-41795244D01*
X67304413Y-41732009D01*
X67250000Y-41723390D01*
X67250000Y-42684314D01*
X67245606Y-42679920D01*
X67154394Y-42627259D01*
X67052661Y-42600000D01*
X66947339Y-42600000D01*
X66845606Y-42627259D01*
X66754394Y-42679920D01*
X66750000Y-42684314D01*
X66750000Y-41723390D01*
X66695586Y-41732009D01*
X66500970Y-41795244D01*
X66318650Y-41888140D01*
X66153105Y-42008417D01*
X66153104Y-42008417D01*
X66008417Y-42153104D01*
X66008417Y-42153105D01*
X65888140Y-42318650D01*
X65795244Y-42500970D01*
X65732009Y-42695586D01*
X65723391Y-42750000D01*
X58282966Y-42750000D01*
X58293219Y-42645896D01*
X58300500Y-42571969D01*
X58300500Y-42228031D01*
X58266789Y-41885750D01*
X58199690Y-41548422D01*
X58099850Y-41219295D01*
X57968231Y-40901538D01*
X57806100Y-40598213D01*
X57615019Y-40312240D01*
X57396828Y-40046373D01*
X57396827Y-40046372D01*
X57396823Y-40046367D01*
X57153632Y-39803176D01*
X56887765Y-39584985D01*
X56887764Y-39584984D01*
X56887760Y-39584981D01*
X56601787Y-39393900D01*
X56601782Y-39393897D01*
X56601775Y-39393893D01*
X56298469Y-39231772D01*
X56298464Y-39231770D01*
X55980706Y-39100150D01*
X55651572Y-39000308D01*
X55314248Y-38933210D01*
X55314249Y-38933210D01*
X55056456Y-38907821D01*
X54971969Y-38899500D01*
X54628031Y-38899500D01*
X54549966Y-38907188D01*
X54285750Y-38933210D01*
X53948427Y-39000308D01*
X53619293Y-39100150D01*
X53301535Y-39231770D01*
X53301530Y-39231772D01*
X52998224Y-39393893D01*
X52998206Y-39393904D01*
X52712248Y-39584975D01*
X52712234Y-39584985D01*
X52446367Y-39803176D01*
X52203176Y-40046367D01*
X51984985Y-40312234D01*
X51984975Y-40312248D01*
X51793904Y-40598206D01*
X51793893Y-40598224D01*
X51631772Y-40901530D01*
X51631770Y-40901535D01*
X51500150Y-41219293D01*
X51400308Y-41548427D01*
X51333210Y-41885750D01*
X51314443Y-42076304D01*
X51299500Y-42228031D01*
X48300500Y-42228031D01*
X48300500Y-37552135D01*
X107999500Y-37552135D01*
X107999500Y-38647870D01*
X107999501Y-38647876D01*
X108005908Y-38707483D01*
X108056202Y-38842328D01*
X108056206Y-38842335D01*
X108142452Y-38957544D01*
X108142455Y-38957547D01*
X108257664Y-39043793D01*
X108257671Y-39043797D01*
X108392517Y-39094091D01*
X108392516Y-39094091D01*
X108399444Y-39094835D01*
X108452127Y-39100500D01*
X109547872Y-39100499D01*
X109607483Y-39094091D01*
X109742331Y-39043796D01*
X109857546Y-38957546D01*
X109943796Y-38842331D01*
X109994091Y-38707483D01*
X110000500Y-38647873D01*
X110000499Y-37552128D01*
X109994091Y-37492517D01*
X109943796Y-37357669D01*
X109943795Y-37357668D01*
X109943793Y-37357664D01*
X109857547Y-37242455D01*
X109857544Y-37242452D01*
X109742335Y-37156206D01*
X109742328Y-37156202D01*
X109607482Y-37105908D01*
X109607483Y-37105908D01*
X109547883Y-37099501D01*
X109547881Y-37099500D01*
X109547873Y-37099500D01*
X109547864Y-37099500D01*
X108452129Y-37099500D01*
X108452123Y-37099501D01*
X108392516Y-37105908D01*
X108257671Y-37156202D01*
X108257664Y-37156206D01*
X108142455Y-37242452D01*
X108142452Y-37242455D01*
X108056206Y-37357664D01*
X108056202Y-37357671D01*
X108005908Y-37492517D01*
X107999501Y-37552116D01*
X107999501Y-37552123D01*
X107999500Y-37552135D01*
X48300500Y-37552135D01*
X48300500Y-36024500D01*
X48320185Y-35957461D01*
X48372989Y-35911706D01*
X48424500Y-35900500D01*
X132175500Y-35900500D01*
X132242539Y-35920185D01*
G37*
%TD.AperFunction*%
%TD*%
M02*
