%TF.GenerationSoftware,KiCad,Pcbnew,9.0.1*%
%TF.CreationDate,2025-06-04T18:11:17+03:00*%
%TF.ProjectId,pcb_no_div,7063625f-6e6f-45f6-9469-762e6b696361,rev?*%
%TF.SameCoordinates,Original*%
%TF.FileFunction,Legend,Top*%
%TF.FilePolarity,Positive*%
%FSLAX46Y46*%
G04 Gerber Fmt 4.6, Leading zero omitted, Abs format (unit mm)*
G04 Created by KiCad (PCBNEW 9.0.1) date 2025-06-04 18:11:17*
%MOMM*%
%LPD*%
G01*
G04 APERTURE LIST*
%ADD10C,0.150000*%
%ADD11C,0.254000*%
%ADD12C,0.152400*%
%ADD13C,0.120000*%
%ADD14C,0.200000*%
G04 APERTURE END LIST*
D10*
X75084819Y-60237619D02*
X74608628Y-60570952D01*
X75084819Y-60809047D02*
X74084819Y-60809047D01*
X74084819Y-60809047D02*
X74084819Y-60428095D01*
X74084819Y-60428095D02*
X74132438Y-60332857D01*
X74132438Y-60332857D02*
X74180057Y-60285238D01*
X74180057Y-60285238D02*
X74275295Y-60237619D01*
X74275295Y-60237619D02*
X74418152Y-60237619D01*
X74418152Y-60237619D02*
X74513390Y-60285238D01*
X74513390Y-60285238D02*
X74561009Y-60332857D01*
X74561009Y-60332857D02*
X74608628Y-60428095D01*
X74608628Y-60428095D02*
X74608628Y-60809047D01*
X75180057Y-60047143D02*
X75180057Y-59285238D01*
X74561009Y-58713809D02*
X74608628Y-58570952D01*
X74608628Y-58570952D02*
X74656247Y-58523333D01*
X74656247Y-58523333D02*
X74751485Y-58475714D01*
X74751485Y-58475714D02*
X74894342Y-58475714D01*
X74894342Y-58475714D02*
X74989580Y-58523333D01*
X74989580Y-58523333D02*
X75037200Y-58570952D01*
X75037200Y-58570952D02*
X75084819Y-58666190D01*
X75084819Y-58666190D02*
X75084819Y-59047142D01*
X75084819Y-59047142D02*
X74084819Y-59047142D01*
X74084819Y-59047142D02*
X74084819Y-58713809D01*
X74084819Y-58713809D02*
X74132438Y-58618571D01*
X74132438Y-58618571D02*
X74180057Y-58570952D01*
X74180057Y-58570952D02*
X74275295Y-58523333D01*
X74275295Y-58523333D02*
X74370533Y-58523333D01*
X74370533Y-58523333D02*
X74465771Y-58570952D01*
X74465771Y-58570952D02*
X74513390Y-58618571D01*
X74513390Y-58618571D02*
X74561009Y-58713809D01*
X74561009Y-58713809D02*
X74561009Y-59047142D01*
X75084819Y-57523333D02*
X75084819Y-58094761D01*
X75084819Y-57809047D02*
X74084819Y-57809047D01*
X74084819Y-57809047D02*
X74227676Y-57904285D01*
X74227676Y-57904285D02*
X74322914Y-57999523D01*
X74322914Y-57999523D02*
X74370533Y-58094761D01*
D11*
X72453365Y-89360713D02*
X72513842Y-89421189D01*
X72513842Y-89421189D02*
X72574318Y-89602618D01*
X72574318Y-89602618D02*
X72574318Y-89723570D01*
X72574318Y-89723570D02*
X72513842Y-89904999D01*
X72513842Y-89904999D02*
X72392889Y-90025951D01*
X72392889Y-90025951D02*
X72271937Y-90086428D01*
X72271937Y-90086428D02*
X72030032Y-90146904D01*
X72030032Y-90146904D02*
X71848603Y-90146904D01*
X71848603Y-90146904D02*
X71606699Y-90086428D01*
X71606699Y-90086428D02*
X71485746Y-90025951D01*
X71485746Y-90025951D02*
X71364794Y-89904999D01*
X71364794Y-89904999D02*
X71304318Y-89723570D01*
X71304318Y-89723570D02*
X71304318Y-89602618D01*
X71304318Y-89602618D02*
X71364794Y-89421189D01*
X71364794Y-89421189D02*
X71425270Y-89360713D01*
X72695270Y-89118809D02*
X72695270Y-88151189D01*
X72574318Y-87848809D02*
X71304318Y-87848809D01*
X71909080Y-87848809D02*
X71909080Y-87123094D01*
X72574318Y-87123094D02*
X71304318Y-87123094D01*
X71304318Y-86639285D02*
X71304318Y-85853094D01*
X71304318Y-85853094D02*
X71788127Y-86276428D01*
X71788127Y-86276428D02*
X71788127Y-86094999D01*
X71788127Y-86094999D02*
X71848603Y-85974047D01*
X71848603Y-85974047D02*
X71909080Y-85913571D01*
X71909080Y-85913571D02*
X72030032Y-85853094D01*
X72030032Y-85853094D02*
X72332413Y-85853094D01*
X72332413Y-85853094D02*
X72453365Y-85913571D01*
X72453365Y-85913571D02*
X72513842Y-85974047D01*
X72513842Y-85974047D02*
X72574318Y-86094999D01*
X72574318Y-86094999D02*
X72574318Y-86457856D01*
X72574318Y-86457856D02*
X72513842Y-86578809D01*
X72513842Y-86578809D02*
X72453365Y-86639285D01*
X95574318Y-48049762D02*
X94304318Y-48049762D01*
X95453365Y-46719285D02*
X95513842Y-46779761D01*
X95513842Y-46779761D02*
X95574318Y-46961190D01*
X95574318Y-46961190D02*
X95574318Y-47082142D01*
X95574318Y-47082142D02*
X95513842Y-47263571D01*
X95513842Y-47263571D02*
X95392889Y-47384523D01*
X95392889Y-47384523D02*
X95271937Y-47445000D01*
X95271937Y-47445000D02*
X95030032Y-47505476D01*
X95030032Y-47505476D02*
X94848603Y-47505476D01*
X94848603Y-47505476D02*
X94606699Y-47445000D01*
X94606699Y-47445000D02*
X94485746Y-47384523D01*
X94485746Y-47384523D02*
X94364794Y-47263571D01*
X94364794Y-47263571D02*
X94304318Y-47082142D01*
X94304318Y-47082142D02*
X94304318Y-46961190D01*
X94304318Y-46961190D02*
X94364794Y-46779761D01*
X94364794Y-46779761D02*
X94425270Y-46719285D01*
X95574318Y-45509761D02*
X95574318Y-46235476D01*
X95574318Y-45872619D02*
X94304318Y-45872619D01*
X94304318Y-45872619D02*
X94485746Y-45993571D01*
X94485746Y-45993571D02*
X94606699Y-46114523D01*
X94606699Y-46114523D02*
X94667175Y-46235476D01*
D10*
X100088095Y-63506819D02*
X100659523Y-63506819D01*
X100373809Y-64506819D02*
X100373809Y-63506819D01*
X100992857Y-64506819D02*
X100992857Y-63506819D01*
X100992857Y-63506819D02*
X101373809Y-63506819D01*
X101373809Y-63506819D02*
X101469047Y-63554438D01*
X101469047Y-63554438D02*
X101516666Y-63602057D01*
X101516666Y-63602057D02*
X101564285Y-63697295D01*
X101564285Y-63697295D02*
X101564285Y-63840152D01*
X101564285Y-63840152D02*
X101516666Y-63935390D01*
X101516666Y-63935390D02*
X101469047Y-63983009D01*
X101469047Y-63983009D02*
X101373809Y-64030628D01*
X101373809Y-64030628D02*
X100992857Y-64030628D01*
X102040476Y-64506819D02*
X102230952Y-64506819D01*
X102230952Y-64506819D02*
X102326190Y-64459200D01*
X102326190Y-64459200D02*
X102373809Y-64411580D01*
X102373809Y-64411580D02*
X102469047Y-64268723D01*
X102469047Y-64268723D02*
X102516666Y-64078247D01*
X102516666Y-64078247D02*
X102516666Y-63697295D01*
X102516666Y-63697295D02*
X102469047Y-63602057D01*
X102469047Y-63602057D02*
X102421428Y-63554438D01*
X102421428Y-63554438D02*
X102326190Y-63506819D01*
X102326190Y-63506819D02*
X102135714Y-63506819D01*
X102135714Y-63506819D02*
X102040476Y-63554438D01*
X102040476Y-63554438D02*
X101992857Y-63602057D01*
X101992857Y-63602057D02*
X101945238Y-63697295D01*
X101945238Y-63697295D02*
X101945238Y-63935390D01*
X101945238Y-63935390D02*
X101992857Y-64030628D01*
X101992857Y-64030628D02*
X102040476Y-64078247D01*
X102040476Y-64078247D02*
X102135714Y-64125866D01*
X102135714Y-64125866D02*
X102326190Y-64125866D01*
X102326190Y-64125866D02*
X102421428Y-64078247D01*
X102421428Y-64078247D02*
X102469047Y-64030628D01*
X102469047Y-64030628D02*
X102516666Y-63935390D01*
X70738095Y-75626819D02*
X71309523Y-75626819D01*
X71023809Y-76626819D02*
X71023809Y-75626819D01*
X71642857Y-76626819D02*
X71642857Y-75626819D01*
X71642857Y-75626819D02*
X72023809Y-75626819D01*
X72023809Y-75626819D02*
X72119047Y-75674438D01*
X72119047Y-75674438D02*
X72166666Y-75722057D01*
X72166666Y-75722057D02*
X72214285Y-75817295D01*
X72214285Y-75817295D02*
X72214285Y-75960152D01*
X72214285Y-75960152D02*
X72166666Y-76055390D01*
X72166666Y-76055390D02*
X72119047Y-76103009D01*
X72119047Y-76103009D02*
X72023809Y-76150628D01*
X72023809Y-76150628D02*
X71642857Y-76150628D01*
X73071428Y-75626819D02*
X72880952Y-75626819D01*
X72880952Y-75626819D02*
X72785714Y-75674438D01*
X72785714Y-75674438D02*
X72738095Y-75722057D01*
X72738095Y-75722057D02*
X72642857Y-75864914D01*
X72642857Y-75864914D02*
X72595238Y-76055390D01*
X72595238Y-76055390D02*
X72595238Y-76436342D01*
X72595238Y-76436342D02*
X72642857Y-76531580D01*
X72642857Y-76531580D02*
X72690476Y-76579200D01*
X72690476Y-76579200D02*
X72785714Y-76626819D01*
X72785714Y-76626819D02*
X72976190Y-76626819D01*
X72976190Y-76626819D02*
X73071428Y-76579200D01*
X73071428Y-76579200D02*
X73119047Y-76531580D01*
X73119047Y-76531580D02*
X73166666Y-76436342D01*
X73166666Y-76436342D02*
X73166666Y-76198247D01*
X73166666Y-76198247D02*
X73119047Y-76103009D01*
X73119047Y-76103009D02*
X73071428Y-76055390D01*
X73071428Y-76055390D02*
X72976190Y-76007771D01*
X72976190Y-76007771D02*
X72785714Y-76007771D01*
X72785714Y-76007771D02*
X72690476Y-76055390D01*
X72690476Y-76055390D02*
X72642857Y-76103009D01*
X72642857Y-76103009D02*
X72595238Y-76198247D01*
X79824819Y-87237619D02*
X79348628Y-87570952D01*
X79824819Y-87809047D02*
X78824819Y-87809047D01*
X78824819Y-87809047D02*
X78824819Y-87428095D01*
X78824819Y-87428095D02*
X78872438Y-87332857D01*
X78872438Y-87332857D02*
X78920057Y-87285238D01*
X78920057Y-87285238D02*
X79015295Y-87237619D01*
X79015295Y-87237619D02*
X79158152Y-87237619D01*
X79158152Y-87237619D02*
X79253390Y-87285238D01*
X79253390Y-87285238D02*
X79301009Y-87332857D01*
X79301009Y-87332857D02*
X79348628Y-87428095D01*
X79348628Y-87428095D02*
X79348628Y-87809047D01*
X79920057Y-87047143D02*
X79920057Y-86285238D01*
X79301009Y-85713809D02*
X79348628Y-85570952D01*
X79348628Y-85570952D02*
X79396247Y-85523333D01*
X79396247Y-85523333D02*
X79491485Y-85475714D01*
X79491485Y-85475714D02*
X79634342Y-85475714D01*
X79634342Y-85475714D02*
X79729580Y-85523333D01*
X79729580Y-85523333D02*
X79777200Y-85570952D01*
X79777200Y-85570952D02*
X79824819Y-85666190D01*
X79824819Y-85666190D02*
X79824819Y-86047142D01*
X79824819Y-86047142D02*
X78824819Y-86047142D01*
X78824819Y-86047142D02*
X78824819Y-85713809D01*
X78824819Y-85713809D02*
X78872438Y-85618571D01*
X78872438Y-85618571D02*
X78920057Y-85570952D01*
X78920057Y-85570952D02*
X79015295Y-85523333D01*
X79015295Y-85523333D02*
X79110533Y-85523333D01*
X79110533Y-85523333D02*
X79205771Y-85570952D01*
X79205771Y-85570952D02*
X79253390Y-85618571D01*
X79253390Y-85618571D02*
X79301009Y-85713809D01*
X79301009Y-85713809D02*
X79301009Y-86047142D01*
X78824819Y-84618571D02*
X78824819Y-84809047D01*
X78824819Y-84809047D02*
X78872438Y-84904285D01*
X78872438Y-84904285D02*
X78920057Y-84951904D01*
X78920057Y-84951904D02*
X79062914Y-85047142D01*
X79062914Y-85047142D02*
X79253390Y-85094761D01*
X79253390Y-85094761D02*
X79634342Y-85094761D01*
X79634342Y-85094761D02*
X79729580Y-85047142D01*
X79729580Y-85047142D02*
X79777200Y-84999523D01*
X79777200Y-84999523D02*
X79824819Y-84904285D01*
X79824819Y-84904285D02*
X79824819Y-84713809D01*
X79824819Y-84713809D02*
X79777200Y-84618571D01*
X79777200Y-84618571D02*
X79729580Y-84570952D01*
X79729580Y-84570952D02*
X79634342Y-84523333D01*
X79634342Y-84523333D02*
X79396247Y-84523333D01*
X79396247Y-84523333D02*
X79301009Y-84570952D01*
X79301009Y-84570952D02*
X79253390Y-84618571D01*
X79253390Y-84618571D02*
X79205771Y-84713809D01*
X79205771Y-84713809D02*
X79205771Y-84904285D01*
X79205771Y-84904285D02*
X79253390Y-84999523D01*
X79253390Y-84999523D02*
X79301009Y-85047142D01*
X79301009Y-85047142D02*
X79396247Y-85094761D01*
X79824819Y-74857619D02*
X79348628Y-75190952D01*
X79824819Y-75429047D02*
X78824819Y-75429047D01*
X78824819Y-75429047D02*
X78824819Y-75048095D01*
X78824819Y-75048095D02*
X78872438Y-74952857D01*
X78872438Y-74952857D02*
X78920057Y-74905238D01*
X78920057Y-74905238D02*
X79015295Y-74857619D01*
X79015295Y-74857619D02*
X79158152Y-74857619D01*
X79158152Y-74857619D02*
X79253390Y-74905238D01*
X79253390Y-74905238D02*
X79301009Y-74952857D01*
X79301009Y-74952857D02*
X79348628Y-75048095D01*
X79348628Y-75048095D02*
X79348628Y-75429047D01*
X79920057Y-74667143D02*
X79920057Y-73905238D01*
X79301009Y-73333809D02*
X79348628Y-73190952D01*
X79348628Y-73190952D02*
X79396247Y-73143333D01*
X79396247Y-73143333D02*
X79491485Y-73095714D01*
X79491485Y-73095714D02*
X79634342Y-73095714D01*
X79634342Y-73095714D02*
X79729580Y-73143333D01*
X79729580Y-73143333D02*
X79777200Y-73190952D01*
X79777200Y-73190952D02*
X79824819Y-73286190D01*
X79824819Y-73286190D02*
X79824819Y-73667142D01*
X79824819Y-73667142D02*
X78824819Y-73667142D01*
X78824819Y-73667142D02*
X78824819Y-73333809D01*
X78824819Y-73333809D02*
X78872438Y-73238571D01*
X78872438Y-73238571D02*
X78920057Y-73190952D01*
X78920057Y-73190952D02*
X79015295Y-73143333D01*
X79015295Y-73143333D02*
X79110533Y-73143333D01*
X79110533Y-73143333D02*
X79205771Y-73190952D01*
X79205771Y-73190952D02*
X79253390Y-73238571D01*
X79253390Y-73238571D02*
X79301009Y-73333809D01*
X79301009Y-73333809D02*
X79301009Y-73667142D01*
X78824819Y-72190952D02*
X78824819Y-72667142D01*
X78824819Y-72667142D02*
X79301009Y-72714761D01*
X79301009Y-72714761D02*
X79253390Y-72667142D01*
X79253390Y-72667142D02*
X79205771Y-72571904D01*
X79205771Y-72571904D02*
X79205771Y-72333809D01*
X79205771Y-72333809D02*
X79253390Y-72238571D01*
X79253390Y-72238571D02*
X79301009Y-72190952D01*
X79301009Y-72190952D02*
X79396247Y-72143333D01*
X79396247Y-72143333D02*
X79634342Y-72143333D01*
X79634342Y-72143333D02*
X79729580Y-72190952D01*
X79729580Y-72190952D02*
X79777200Y-72238571D01*
X79777200Y-72238571D02*
X79824819Y-72333809D01*
X79824819Y-72333809D02*
X79824819Y-72571904D01*
X79824819Y-72571904D02*
X79777200Y-72667142D01*
X79777200Y-72667142D02*
X79729580Y-72714761D01*
X80534819Y-61507619D02*
X80058628Y-61840952D01*
X80534819Y-62079047D02*
X79534819Y-62079047D01*
X79534819Y-62079047D02*
X79534819Y-61698095D01*
X79534819Y-61698095D02*
X79582438Y-61602857D01*
X79582438Y-61602857D02*
X79630057Y-61555238D01*
X79630057Y-61555238D02*
X79725295Y-61507619D01*
X79725295Y-61507619D02*
X79868152Y-61507619D01*
X79868152Y-61507619D02*
X79963390Y-61555238D01*
X79963390Y-61555238D02*
X80011009Y-61602857D01*
X80011009Y-61602857D02*
X80058628Y-61698095D01*
X80058628Y-61698095D02*
X80058628Y-62079047D01*
X80630057Y-61317143D02*
X80630057Y-60555238D01*
X80011009Y-59983809D02*
X80058628Y-59840952D01*
X80058628Y-59840952D02*
X80106247Y-59793333D01*
X80106247Y-59793333D02*
X80201485Y-59745714D01*
X80201485Y-59745714D02*
X80344342Y-59745714D01*
X80344342Y-59745714D02*
X80439580Y-59793333D01*
X80439580Y-59793333D02*
X80487200Y-59840952D01*
X80487200Y-59840952D02*
X80534819Y-59936190D01*
X80534819Y-59936190D02*
X80534819Y-60317142D01*
X80534819Y-60317142D02*
X79534819Y-60317142D01*
X79534819Y-60317142D02*
X79534819Y-59983809D01*
X79534819Y-59983809D02*
X79582438Y-59888571D01*
X79582438Y-59888571D02*
X79630057Y-59840952D01*
X79630057Y-59840952D02*
X79725295Y-59793333D01*
X79725295Y-59793333D02*
X79820533Y-59793333D01*
X79820533Y-59793333D02*
X79915771Y-59840952D01*
X79915771Y-59840952D02*
X79963390Y-59888571D01*
X79963390Y-59888571D02*
X80011009Y-59983809D01*
X80011009Y-59983809D02*
X80011009Y-60317142D01*
X79534819Y-59412380D02*
X79534819Y-58793333D01*
X79534819Y-58793333D02*
X79915771Y-59126666D01*
X79915771Y-59126666D02*
X79915771Y-58983809D01*
X79915771Y-58983809D02*
X79963390Y-58888571D01*
X79963390Y-58888571D02*
X80011009Y-58840952D01*
X80011009Y-58840952D02*
X80106247Y-58793333D01*
X80106247Y-58793333D02*
X80344342Y-58793333D01*
X80344342Y-58793333D02*
X80439580Y-58840952D01*
X80439580Y-58840952D02*
X80487200Y-58888571D01*
X80487200Y-58888571D02*
X80534819Y-58983809D01*
X80534819Y-58983809D02*
X80534819Y-59269523D01*
X80534819Y-59269523D02*
X80487200Y-59364761D01*
X80487200Y-59364761D02*
X80439580Y-59412380D01*
X103784819Y-53738094D02*
X102784819Y-53738094D01*
X102784819Y-53738094D02*
X102784819Y-53499999D01*
X102784819Y-53499999D02*
X102832438Y-53357142D01*
X102832438Y-53357142D02*
X102927676Y-53261904D01*
X102927676Y-53261904D02*
X103022914Y-53214285D01*
X103022914Y-53214285D02*
X103213390Y-53166666D01*
X103213390Y-53166666D02*
X103356247Y-53166666D01*
X103356247Y-53166666D02*
X103546723Y-53214285D01*
X103546723Y-53214285D02*
X103641961Y-53261904D01*
X103641961Y-53261904D02*
X103737200Y-53357142D01*
X103737200Y-53357142D02*
X103784819Y-53499999D01*
X103784819Y-53499999D02*
X103784819Y-53738094D01*
X103784819Y-52214285D02*
X103784819Y-52785713D01*
X103784819Y-52499999D02*
X102784819Y-52499999D01*
X102784819Y-52499999D02*
X102927676Y-52595237D01*
X102927676Y-52595237D02*
X103022914Y-52690475D01*
X103022914Y-52690475D02*
X103070533Y-52785713D01*
X106854819Y-63261904D02*
X105854819Y-63261904D01*
X106854819Y-62690476D02*
X106283390Y-63119047D01*
X105854819Y-62690476D02*
X106426247Y-63261904D01*
X117238095Y-88006819D02*
X117809523Y-88006819D01*
X117523809Y-89006819D02*
X117523809Y-88006819D01*
X118142857Y-89006819D02*
X118142857Y-88006819D01*
X118142857Y-88006819D02*
X118523809Y-88006819D01*
X118523809Y-88006819D02*
X118619047Y-88054438D01*
X118619047Y-88054438D02*
X118666666Y-88102057D01*
X118666666Y-88102057D02*
X118714285Y-88197295D01*
X118714285Y-88197295D02*
X118714285Y-88340152D01*
X118714285Y-88340152D02*
X118666666Y-88435390D01*
X118666666Y-88435390D02*
X118619047Y-88483009D01*
X118619047Y-88483009D02*
X118523809Y-88530628D01*
X118523809Y-88530628D02*
X118142857Y-88530628D01*
X119285714Y-88435390D02*
X119190476Y-88387771D01*
X119190476Y-88387771D02*
X119142857Y-88340152D01*
X119142857Y-88340152D02*
X119095238Y-88244914D01*
X119095238Y-88244914D02*
X119095238Y-88197295D01*
X119095238Y-88197295D02*
X119142857Y-88102057D01*
X119142857Y-88102057D02*
X119190476Y-88054438D01*
X119190476Y-88054438D02*
X119285714Y-88006819D01*
X119285714Y-88006819D02*
X119476190Y-88006819D01*
X119476190Y-88006819D02*
X119571428Y-88054438D01*
X119571428Y-88054438D02*
X119619047Y-88102057D01*
X119619047Y-88102057D02*
X119666666Y-88197295D01*
X119666666Y-88197295D02*
X119666666Y-88244914D01*
X119666666Y-88244914D02*
X119619047Y-88340152D01*
X119619047Y-88340152D02*
X119571428Y-88387771D01*
X119571428Y-88387771D02*
X119476190Y-88435390D01*
X119476190Y-88435390D02*
X119285714Y-88435390D01*
X119285714Y-88435390D02*
X119190476Y-88483009D01*
X119190476Y-88483009D02*
X119142857Y-88530628D01*
X119142857Y-88530628D02*
X119095238Y-88625866D01*
X119095238Y-88625866D02*
X119095238Y-88816342D01*
X119095238Y-88816342D02*
X119142857Y-88911580D01*
X119142857Y-88911580D02*
X119190476Y-88959200D01*
X119190476Y-88959200D02*
X119285714Y-89006819D01*
X119285714Y-89006819D02*
X119476190Y-89006819D01*
X119476190Y-89006819D02*
X119571428Y-88959200D01*
X119571428Y-88959200D02*
X119619047Y-88911580D01*
X119619047Y-88911580D02*
X119666666Y-88816342D01*
X119666666Y-88816342D02*
X119666666Y-88625866D01*
X119666666Y-88625866D02*
X119619047Y-88530628D01*
X119619047Y-88530628D02*
X119571428Y-88483009D01*
X119571428Y-88483009D02*
X119476190Y-88435390D01*
D12*
X125180723Y-42361691D02*
X125180723Y-41548891D01*
X125180723Y-41935939D02*
X125645180Y-41935939D01*
X125645180Y-42361691D02*
X125645180Y-41548891D01*
X125954819Y-41548891D02*
X126457981Y-41548891D01*
X126457981Y-41548891D02*
X126187047Y-41858529D01*
X126187047Y-41858529D02*
X126303162Y-41858529D01*
X126303162Y-41858529D02*
X126380571Y-41897234D01*
X126380571Y-41897234D02*
X126419276Y-41935939D01*
X126419276Y-41935939D02*
X126457981Y-42013348D01*
X126457981Y-42013348D02*
X126457981Y-42206872D01*
X126457981Y-42206872D02*
X126419276Y-42284282D01*
X126419276Y-42284282D02*
X126380571Y-42322987D01*
X126380571Y-42322987D02*
X126303162Y-42361691D01*
X126303162Y-42361691D02*
X126070933Y-42361691D01*
X126070933Y-42361691D02*
X125993524Y-42322987D01*
X125993524Y-42322987D02*
X125954819Y-42284282D01*
D11*
X95574318Y-87429762D02*
X94304318Y-87429762D01*
X95453365Y-86099285D02*
X95513842Y-86159761D01*
X95513842Y-86159761D02*
X95574318Y-86341190D01*
X95574318Y-86341190D02*
X95574318Y-86462142D01*
X95574318Y-86462142D02*
X95513842Y-86643571D01*
X95513842Y-86643571D02*
X95392889Y-86764523D01*
X95392889Y-86764523D02*
X95271937Y-86825000D01*
X95271937Y-86825000D02*
X95030032Y-86885476D01*
X95030032Y-86885476D02*
X94848603Y-86885476D01*
X94848603Y-86885476D02*
X94606699Y-86825000D01*
X94606699Y-86825000D02*
X94485746Y-86764523D01*
X94485746Y-86764523D02*
X94364794Y-86643571D01*
X94364794Y-86643571D02*
X94304318Y-86462142D01*
X94304318Y-86462142D02*
X94304318Y-86341190D01*
X94304318Y-86341190D02*
X94364794Y-86159761D01*
X94364794Y-86159761D02*
X94425270Y-86099285D01*
X94425270Y-85615476D02*
X94364794Y-85555000D01*
X94364794Y-85555000D02*
X94304318Y-85434047D01*
X94304318Y-85434047D02*
X94304318Y-85131666D01*
X94304318Y-85131666D02*
X94364794Y-85010714D01*
X94364794Y-85010714D02*
X94425270Y-84950238D01*
X94425270Y-84950238D02*
X94546222Y-84889761D01*
X94546222Y-84889761D02*
X94667175Y-84889761D01*
X94667175Y-84889761D02*
X94848603Y-84950238D01*
X94848603Y-84950238D02*
X95574318Y-85675952D01*
X95574318Y-85675952D02*
X95574318Y-84889761D01*
D10*
X122324819Y-57254285D02*
X121324819Y-57254285D01*
X121324819Y-57254285D02*
X122324819Y-56682857D01*
X122324819Y-56682857D02*
X121324819Y-56682857D01*
X122324819Y-56206666D02*
X121324819Y-56206666D01*
X121324819Y-56206666D02*
X122039104Y-55873333D01*
X122039104Y-55873333D02*
X121324819Y-55540000D01*
X121324819Y-55540000D02*
X122324819Y-55540000D01*
X121324819Y-54873333D02*
X121324819Y-54682857D01*
X121324819Y-54682857D02*
X121372438Y-54587619D01*
X121372438Y-54587619D02*
X121467676Y-54492381D01*
X121467676Y-54492381D02*
X121658152Y-54444762D01*
X121658152Y-54444762D02*
X121991485Y-54444762D01*
X121991485Y-54444762D02*
X122181961Y-54492381D01*
X122181961Y-54492381D02*
X122277200Y-54587619D01*
X122277200Y-54587619D02*
X122324819Y-54682857D01*
X122324819Y-54682857D02*
X122324819Y-54873333D01*
X122324819Y-54873333D02*
X122277200Y-54968571D01*
X122277200Y-54968571D02*
X122181961Y-55063809D01*
X122181961Y-55063809D02*
X121991485Y-55111428D01*
X121991485Y-55111428D02*
X121658152Y-55111428D01*
X121658152Y-55111428D02*
X121467676Y-55063809D01*
X121467676Y-55063809D02*
X121372438Y-54968571D01*
X121372438Y-54968571D02*
X121324819Y-54873333D01*
X122277200Y-54063809D02*
X122324819Y-53920952D01*
X122324819Y-53920952D02*
X122324819Y-53682857D01*
X122324819Y-53682857D02*
X122277200Y-53587619D01*
X122277200Y-53587619D02*
X122229580Y-53540000D01*
X122229580Y-53540000D02*
X122134342Y-53492381D01*
X122134342Y-53492381D02*
X122039104Y-53492381D01*
X122039104Y-53492381D02*
X121943866Y-53540000D01*
X121943866Y-53540000D02*
X121896247Y-53587619D01*
X121896247Y-53587619D02*
X121848628Y-53682857D01*
X121848628Y-53682857D02*
X121801009Y-53873333D01*
X121801009Y-53873333D02*
X121753390Y-53968571D01*
X121753390Y-53968571D02*
X121705771Y-54016190D01*
X121705771Y-54016190D02*
X121610533Y-54063809D01*
X121610533Y-54063809D02*
X121515295Y-54063809D01*
X121515295Y-54063809D02*
X121420057Y-54016190D01*
X121420057Y-54016190D02*
X121372438Y-53968571D01*
X121372438Y-53968571D02*
X121324819Y-53873333D01*
X121324819Y-53873333D02*
X121324819Y-53635238D01*
X121324819Y-53635238D02*
X121372438Y-53492381D01*
X122420057Y-53301905D02*
X122420057Y-52540000D01*
X121420057Y-52349523D02*
X121372438Y-52301904D01*
X121372438Y-52301904D02*
X121324819Y-52206666D01*
X121324819Y-52206666D02*
X121324819Y-51968571D01*
X121324819Y-51968571D02*
X121372438Y-51873333D01*
X121372438Y-51873333D02*
X121420057Y-51825714D01*
X121420057Y-51825714D02*
X121515295Y-51778095D01*
X121515295Y-51778095D02*
X121610533Y-51778095D01*
X121610533Y-51778095D02*
X121753390Y-51825714D01*
X121753390Y-51825714D02*
X122324819Y-52397142D01*
X122324819Y-52397142D02*
X122324819Y-51778095D01*
X99611905Y-66606819D02*
X100183333Y-66606819D01*
X99897619Y-67606819D02*
X99897619Y-66606819D01*
X100516667Y-67606819D02*
X100516667Y-66606819D01*
X100516667Y-66606819D02*
X100897619Y-66606819D01*
X100897619Y-66606819D02*
X100992857Y-66654438D01*
X100992857Y-66654438D02*
X101040476Y-66702057D01*
X101040476Y-66702057D02*
X101088095Y-66797295D01*
X101088095Y-66797295D02*
X101088095Y-66940152D01*
X101088095Y-66940152D02*
X101040476Y-67035390D01*
X101040476Y-67035390D02*
X100992857Y-67083009D01*
X100992857Y-67083009D02*
X100897619Y-67130628D01*
X100897619Y-67130628D02*
X100516667Y-67130628D01*
X102040476Y-67606819D02*
X101469048Y-67606819D01*
X101754762Y-67606819D02*
X101754762Y-66606819D01*
X101754762Y-66606819D02*
X101659524Y-66749676D01*
X101659524Y-66749676D02*
X101564286Y-66844914D01*
X101564286Y-66844914D02*
X101469048Y-66892533D01*
X102659524Y-66606819D02*
X102754762Y-66606819D01*
X102754762Y-66606819D02*
X102850000Y-66654438D01*
X102850000Y-66654438D02*
X102897619Y-66702057D01*
X102897619Y-66702057D02*
X102945238Y-66797295D01*
X102945238Y-66797295D02*
X102992857Y-66987771D01*
X102992857Y-66987771D02*
X102992857Y-67225866D01*
X102992857Y-67225866D02*
X102945238Y-67416342D01*
X102945238Y-67416342D02*
X102897619Y-67511580D01*
X102897619Y-67511580D02*
X102850000Y-67559200D01*
X102850000Y-67559200D02*
X102754762Y-67606819D01*
X102754762Y-67606819D02*
X102659524Y-67606819D01*
X102659524Y-67606819D02*
X102564286Y-67559200D01*
X102564286Y-67559200D02*
X102516667Y-67511580D01*
X102516667Y-67511580D02*
X102469048Y-67416342D01*
X102469048Y-67416342D02*
X102421429Y-67225866D01*
X102421429Y-67225866D02*
X102421429Y-66987771D01*
X102421429Y-66987771D02*
X102469048Y-66797295D01*
X102469048Y-66797295D02*
X102516667Y-66702057D01*
X102516667Y-66702057D02*
X102564286Y-66654438D01*
X102564286Y-66654438D02*
X102659524Y-66606819D01*
D12*
X54180723Y-42361691D02*
X54180723Y-41548891D01*
X54180723Y-41935939D02*
X54645180Y-41935939D01*
X54645180Y-42361691D02*
X54645180Y-41548891D01*
X55457981Y-42361691D02*
X54993524Y-42361691D01*
X55225752Y-42361691D02*
X55225752Y-41548891D01*
X55225752Y-41548891D02*
X55148343Y-41665006D01*
X55148343Y-41665006D02*
X55070933Y-41742415D01*
X55070933Y-41742415D02*
X54993524Y-41781120D01*
X125180723Y-88361691D02*
X125180723Y-87548891D01*
X125180723Y-87935939D02*
X125645180Y-87935939D01*
X125645180Y-88361691D02*
X125645180Y-87548891D01*
X125993524Y-87626301D02*
X126032228Y-87587596D01*
X126032228Y-87587596D02*
X126109638Y-87548891D01*
X126109638Y-87548891D02*
X126303162Y-87548891D01*
X126303162Y-87548891D02*
X126380571Y-87587596D01*
X126380571Y-87587596D02*
X126419276Y-87626301D01*
X126419276Y-87626301D02*
X126457981Y-87703710D01*
X126457981Y-87703710D02*
X126457981Y-87781120D01*
X126457981Y-87781120D02*
X126419276Y-87897234D01*
X126419276Y-87897234D02*
X125954819Y-88361691D01*
X125954819Y-88361691D02*
X126457981Y-88361691D01*
D11*
X87453365Y-46360713D02*
X87513842Y-46421189D01*
X87513842Y-46421189D02*
X87574318Y-46602618D01*
X87574318Y-46602618D02*
X87574318Y-46723570D01*
X87574318Y-46723570D02*
X87513842Y-46904999D01*
X87513842Y-46904999D02*
X87392889Y-47025951D01*
X87392889Y-47025951D02*
X87271937Y-47086428D01*
X87271937Y-47086428D02*
X87030032Y-47146904D01*
X87030032Y-47146904D02*
X86848603Y-47146904D01*
X86848603Y-47146904D02*
X86606699Y-47086428D01*
X86606699Y-47086428D02*
X86485746Y-47025951D01*
X86485746Y-47025951D02*
X86364794Y-46904999D01*
X86364794Y-46904999D02*
X86304318Y-46723570D01*
X86304318Y-46723570D02*
X86304318Y-46602618D01*
X86304318Y-46602618D02*
X86364794Y-46421189D01*
X86364794Y-46421189D02*
X86425270Y-46360713D01*
X87695270Y-46118809D02*
X87695270Y-45151189D01*
X87574318Y-44848809D02*
X86304318Y-44848809D01*
X86909080Y-44848809D02*
X86909080Y-44123094D01*
X87574318Y-44123094D02*
X86304318Y-44123094D01*
X86425270Y-43578809D02*
X86364794Y-43518333D01*
X86364794Y-43518333D02*
X86304318Y-43397380D01*
X86304318Y-43397380D02*
X86304318Y-43094999D01*
X86304318Y-43094999D02*
X86364794Y-42974047D01*
X86364794Y-42974047D02*
X86425270Y-42913571D01*
X86425270Y-42913571D02*
X86546222Y-42853094D01*
X86546222Y-42853094D02*
X86667175Y-42853094D01*
X86667175Y-42853094D02*
X86848603Y-42913571D01*
X86848603Y-42913571D02*
X87574318Y-43639285D01*
X87574318Y-43639285D02*
X87574318Y-42853094D01*
D10*
X84374819Y-73587619D02*
X83898628Y-73920952D01*
X84374819Y-74159047D02*
X83374819Y-74159047D01*
X83374819Y-74159047D02*
X83374819Y-73778095D01*
X83374819Y-73778095D02*
X83422438Y-73682857D01*
X83422438Y-73682857D02*
X83470057Y-73635238D01*
X83470057Y-73635238D02*
X83565295Y-73587619D01*
X83565295Y-73587619D02*
X83708152Y-73587619D01*
X83708152Y-73587619D02*
X83803390Y-73635238D01*
X83803390Y-73635238D02*
X83851009Y-73682857D01*
X83851009Y-73682857D02*
X83898628Y-73778095D01*
X83898628Y-73778095D02*
X83898628Y-74159047D01*
X84470057Y-73397143D02*
X84470057Y-72635238D01*
X83851009Y-72063809D02*
X83898628Y-71920952D01*
X83898628Y-71920952D02*
X83946247Y-71873333D01*
X83946247Y-71873333D02*
X84041485Y-71825714D01*
X84041485Y-71825714D02*
X84184342Y-71825714D01*
X84184342Y-71825714D02*
X84279580Y-71873333D01*
X84279580Y-71873333D02*
X84327200Y-71920952D01*
X84327200Y-71920952D02*
X84374819Y-72016190D01*
X84374819Y-72016190D02*
X84374819Y-72397142D01*
X84374819Y-72397142D02*
X83374819Y-72397142D01*
X83374819Y-72397142D02*
X83374819Y-72063809D01*
X83374819Y-72063809D02*
X83422438Y-71968571D01*
X83422438Y-71968571D02*
X83470057Y-71920952D01*
X83470057Y-71920952D02*
X83565295Y-71873333D01*
X83565295Y-71873333D02*
X83660533Y-71873333D01*
X83660533Y-71873333D02*
X83755771Y-71920952D01*
X83755771Y-71920952D02*
X83803390Y-71968571D01*
X83803390Y-71968571D02*
X83851009Y-72063809D01*
X83851009Y-72063809D02*
X83851009Y-72397142D01*
X83374819Y-71492380D02*
X83374819Y-70825714D01*
X83374819Y-70825714D02*
X84374819Y-71254285D01*
X107738095Y-36106819D02*
X108309523Y-36106819D01*
X108023809Y-37106819D02*
X108023809Y-36106819D01*
X108642857Y-37106819D02*
X108642857Y-36106819D01*
X108642857Y-36106819D02*
X109023809Y-36106819D01*
X109023809Y-36106819D02*
X109119047Y-36154438D01*
X109119047Y-36154438D02*
X109166666Y-36202057D01*
X109166666Y-36202057D02*
X109214285Y-36297295D01*
X109214285Y-36297295D02*
X109214285Y-36440152D01*
X109214285Y-36440152D02*
X109166666Y-36535390D01*
X109166666Y-36535390D02*
X109119047Y-36583009D01*
X109119047Y-36583009D02*
X109023809Y-36630628D01*
X109023809Y-36630628D02*
X108642857Y-36630628D01*
X110071428Y-36440152D02*
X110071428Y-37106819D01*
X109833333Y-36059200D02*
X109595238Y-36773485D01*
X109595238Y-36773485D02*
X110214285Y-36773485D01*
X115124819Y-80738094D02*
X114124819Y-80738094D01*
X114124819Y-80738094D02*
X114124819Y-80499999D01*
X114124819Y-80499999D02*
X114172438Y-80357142D01*
X114172438Y-80357142D02*
X114267676Y-80261904D01*
X114267676Y-80261904D02*
X114362914Y-80214285D01*
X114362914Y-80214285D02*
X114553390Y-80166666D01*
X114553390Y-80166666D02*
X114696247Y-80166666D01*
X114696247Y-80166666D02*
X114886723Y-80214285D01*
X114886723Y-80214285D02*
X114981961Y-80261904D01*
X114981961Y-80261904D02*
X115077200Y-80357142D01*
X115077200Y-80357142D02*
X115124819Y-80499999D01*
X115124819Y-80499999D02*
X115124819Y-80738094D01*
X114220057Y-79785713D02*
X114172438Y-79738094D01*
X114172438Y-79738094D02*
X114124819Y-79642856D01*
X114124819Y-79642856D02*
X114124819Y-79404761D01*
X114124819Y-79404761D02*
X114172438Y-79309523D01*
X114172438Y-79309523D02*
X114220057Y-79261904D01*
X114220057Y-79261904D02*
X114315295Y-79214285D01*
X114315295Y-79214285D02*
X114410533Y-79214285D01*
X114410533Y-79214285D02*
X114553390Y-79261904D01*
X114553390Y-79261904D02*
X115124819Y-79833332D01*
X115124819Y-79833332D02*
X115124819Y-79214285D01*
X112054819Y-70261904D02*
X111054819Y-70261904D01*
X112054819Y-69690476D02*
X111483390Y-70119047D01*
X111054819Y-69690476D02*
X111626247Y-70261904D01*
X69824819Y-74786190D02*
X69348628Y-75119523D01*
X69824819Y-75357618D02*
X68824819Y-75357618D01*
X68824819Y-75357618D02*
X68824819Y-74976666D01*
X68824819Y-74976666D02*
X68872438Y-74881428D01*
X68872438Y-74881428D02*
X68920057Y-74833809D01*
X68920057Y-74833809D02*
X69015295Y-74786190D01*
X69015295Y-74786190D02*
X69158152Y-74786190D01*
X69158152Y-74786190D02*
X69253390Y-74833809D01*
X69253390Y-74833809D02*
X69301009Y-74881428D01*
X69301009Y-74881428D02*
X69348628Y-74976666D01*
X69348628Y-74976666D02*
X69348628Y-75357618D01*
X69920057Y-74595714D02*
X69920057Y-73833809D01*
X69539104Y-73643332D02*
X69539104Y-73167142D01*
X69824819Y-73738570D02*
X68824819Y-73405237D01*
X68824819Y-73405237D02*
X69824819Y-73071904D01*
X68920057Y-72786189D02*
X68872438Y-72738570D01*
X68872438Y-72738570D02*
X68824819Y-72643332D01*
X68824819Y-72643332D02*
X68824819Y-72405237D01*
X68824819Y-72405237D02*
X68872438Y-72309999D01*
X68872438Y-72309999D02*
X68920057Y-72262380D01*
X68920057Y-72262380D02*
X69015295Y-72214761D01*
X69015295Y-72214761D02*
X69110533Y-72214761D01*
X69110533Y-72214761D02*
X69253390Y-72262380D01*
X69253390Y-72262380D02*
X69824819Y-72833808D01*
X69824819Y-72833808D02*
X69824819Y-72214761D01*
X83738095Y-63506819D02*
X84309523Y-63506819D01*
X84023809Y-64506819D02*
X84023809Y-63506819D01*
X84642857Y-64506819D02*
X84642857Y-63506819D01*
X84642857Y-63506819D02*
X85023809Y-63506819D01*
X85023809Y-63506819D02*
X85119047Y-63554438D01*
X85119047Y-63554438D02*
X85166666Y-63602057D01*
X85166666Y-63602057D02*
X85214285Y-63697295D01*
X85214285Y-63697295D02*
X85214285Y-63840152D01*
X85214285Y-63840152D02*
X85166666Y-63935390D01*
X85166666Y-63935390D02*
X85119047Y-63983009D01*
X85119047Y-63983009D02*
X85023809Y-64030628D01*
X85023809Y-64030628D02*
X84642857Y-64030628D01*
X85547619Y-63506819D02*
X86166666Y-63506819D01*
X86166666Y-63506819D02*
X85833333Y-63887771D01*
X85833333Y-63887771D02*
X85976190Y-63887771D01*
X85976190Y-63887771D02*
X86071428Y-63935390D01*
X86071428Y-63935390D02*
X86119047Y-63983009D01*
X86119047Y-63983009D02*
X86166666Y-64078247D01*
X86166666Y-64078247D02*
X86166666Y-64316342D01*
X86166666Y-64316342D02*
X86119047Y-64411580D01*
X86119047Y-64411580D02*
X86071428Y-64459200D01*
X86071428Y-64459200D02*
X85976190Y-64506819D01*
X85976190Y-64506819D02*
X85690476Y-64506819D01*
X85690476Y-64506819D02*
X85595238Y-64459200D01*
X85595238Y-64459200D02*
X85547619Y-64411580D01*
D12*
X54180723Y-88361691D02*
X54180723Y-87548891D01*
X54180723Y-87935939D02*
X54645180Y-87935939D01*
X54645180Y-88361691D02*
X54645180Y-87548891D01*
X55380571Y-87819825D02*
X55380571Y-88361691D01*
X55187047Y-87510187D02*
X54993524Y-88090758D01*
X54993524Y-88090758D02*
X55496685Y-88090758D01*
D10*
X61438095Y-80406819D02*
X62009523Y-80406819D01*
X61723809Y-81406819D02*
X61723809Y-80406819D01*
X62342857Y-81406819D02*
X62342857Y-80406819D01*
X62342857Y-80406819D02*
X62723809Y-80406819D01*
X62723809Y-80406819D02*
X62819047Y-80454438D01*
X62819047Y-80454438D02*
X62866666Y-80502057D01*
X62866666Y-80502057D02*
X62914285Y-80597295D01*
X62914285Y-80597295D02*
X62914285Y-80740152D01*
X62914285Y-80740152D02*
X62866666Y-80835390D01*
X62866666Y-80835390D02*
X62819047Y-80883009D01*
X62819047Y-80883009D02*
X62723809Y-80930628D01*
X62723809Y-80930628D02*
X62342857Y-80930628D01*
X63819047Y-80406819D02*
X63342857Y-80406819D01*
X63342857Y-80406819D02*
X63295238Y-80883009D01*
X63295238Y-80883009D02*
X63342857Y-80835390D01*
X63342857Y-80835390D02*
X63438095Y-80787771D01*
X63438095Y-80787771D02*
X63676190Y-80787771D01*
X63676190Y-80787771D02*
X63771428Y-80835390D01*
X63771428Y-80835390D02*
X63819047Y-80883009D01*
X63819047Y-80883009D02*
X63866666Y-80978247D01*
X63866666Y-80978247D02*
X63866666Y-81216342D01*
X63866666Y-81216342D02*
X63819047Y-81311580D01*
X63819047Y-81311580D02*
X63771428Y-81359200D01*
X63771428Y-81359200D02*
X63676190Y-81406819D01*
X63676190Y-81406819D02*
X63438095Y-81406819D01*
X63438095Y-81406819D02*
X63342857Y-81359200D01*
X63342857Y-81359200D02*
X63295238Y-81311580D01*
X121500000Y-64774819D02*
X121690476Y-64774819D01*
X121690476Y-64774819D02*
X121785714Y-64822438D01*
X121785714Y-64822438D02*
X121880952Y-64917676D01*
X121880952Y-64917676D02*
X121928571Y-65108152D01*
X121928571Y-65108152D02*
X121928571Y-65441485D01*
X121928571Y-65441485D02*
X121880952Y-65631961D01*
X121880952Y-65631961D02*
X121785714Y-65727200D01*
X121785714Y-65727200D02*
X121690476Y-65774819D01*
X121690476Y-65774819D02*
X121500000Y-65774819D01*
X121500000Y-65774819D02*
X121404762Y-65727200D01*
X121404762Y-65727200D02*
X121309524Y-65631961D01*
X121309524Y-65631961D02*
X121261905Y-65441485D01*
X121261905Y-65441485D02*
X121261905Y-65108152D01*
X121261905Y-65108152D02*
X121309524Y-64917676D01*
X121309524Y-64917676D02*
X121404762Y-64822438D01*
X121404762Y-64822438D02*
X121500000Y-64774819D01*
X122357143Y-64774819D02*
X122357143Y-65584342D01*
X122357143Y-65584342D02*
X122404762Y-65679580D01*
X122404762Y-65679580D02*
X122452381Y-65727200D01*
X122452381Y-65727200D02*
X122547619Y-65774819D01*
X122547619Y-65774819D02*
X122738095Y-65774819D01*
X122738095Y-65774819D02*
X122833333Y-65727200D01*
X122833333Y-65727200D02*
X122880952Y-65679580D01*
X122880952Y-65679580D02*
X122928571Y-65584342D01*
X122928571Y-65584342D02*
X122928571Y-64774819D01*
X123261905Y-64774819D02*
X123833333Y-64774819D01*
X123547619Y-65774819D02*
X123547619Y-64774819D01*
X124166667Y-65774819D02*
X124166667Y-64774819D01*
X124166667Y-64774819D02*
X124547619Y-64774819D01*
X124547619Y-64774819D02*
X124642857Y-64822438D01*
X124642857Y-64822438D02*
X124690476Y-64870057D01*
X124690476Y-64870057D02*
X124738095Y-64965295D01*
X124738095Y-64965295D02*
X124738095Y-65108152D01*
X124738095Y-65108152D02*
X124690476Y-65203390D01*
X124690476Y-65203390D02*
X124642857Y-65251009D01*
X124642857Y-65251009D02*
X124547619Y-65298628D01*
X124547619Y-65298628D02*
X124166667Y-65298628D01*
X125166667Y-64774819D02*
X125166667Y-65584342D01*
X125166667Y-65584342D02*
X125214286Y-65679580D01*
X125214286Y-65679580D02*
X125261905Y-65727200D01*
X125261905Y-65727200D02*
X125357143Y-65774819D01*
X125357143Y-65774819D02*
X125547619Y-65774819D01*
X125547619Y-65774819D02*
X125642857Y-65727200D01*
X125642857Y-65727200D02*
X125690476Y-65679580D01*
X125690476Y-65679580D02*
X125738095Y-65584342D01*
X125738095Y-65584342D02*
X125738095Y-64774819D01*
X126071429Y-64774819D02*
X126642857Y-64774819D01*
X126357143Y-65774819D02*
X126357143Y-64774819D01*
X126976191Y-65393866D02*
X127738096Y-65393866D01*
X127357143Y-65774819D02*
X127357143Y-65012914D01*
X128166667Y-64870057D02*
X128214286Y-64822438D01*
X128214286Y-64822438D02*
X128309524Y-64774819D01*
X128309524Y-64774819D02*
X128547619Y-64774819D01*
X128547619Y-64774819D02*
X128642857Y-64822438D01*
X128642857Y-64822438D02*
X128690476Y-64870057D01*
X128690476Y-64870057D02*
X128738095Y-64965295D01*
X128738095Y-64965295D02*
X128738095Y-65060533D01*
X128738095Y-65060533D02*
X128690476Y-65203390D01*
X128690476Y-65203390D02*
X128119048Y-65774819D01*
X128119048Y-65774819D02*
X128738095Y-65774819D01*
X70738095Y-53506819D02*
X71309523Y-53506819D01*
X71023809Y-54506819D02*
X71023809Y-53506819D01*
X71642857Y-54506819D02*
X71642857Y-53506819D01*
X71642857Y-53506819D02*
X72023809Y-53506819D01*
X72023809Y-53506819D02*
X72119047Y-53554438D01*
X72119047Y-53554438D02*
X72166666Y-53602057D01*
X72166666Y-53602057D02*
X72214285Y-53697295D01*
X72214285Y-53697295D02*
X72214285Y-53840152D01*
X72214285Y-53840152D02*
X72166666Y-53935390D01*
X72166666Y-53935390D02*
X72119047Y-53983009D01*
X72119047Y-53983009D02*
X72023809Y-54030628D01*
X72023809Y-54030628D02*
X71642857Y-54030628D01*
X72595238Y-53602057D02*
X72642857Y-53554438D01*
X72642857Y-53554438D02*
X72738095Y-53506819D01*
X72738095Y-53506819D02*
X72976190Y-53506819D01*
X72976190Y-53506819D02*
X73071428Y-53554438D01*
X73071428Y-53554438D02*
X73119047Y-53602057D01*
X73119047Y-53602057D02*
X73166666Y-53697295D01*
X73166666Y-53697295D02*
X73166666Y-53792533D01*
X73166666Y-53792533D02*
X73119047Y-53935390D01*
X73119047Y-53935390D02*
X72547619Y-54506819D01*
X72547619Y-54506819D02*
X73166666Y-54506819D01*
X122238095Y-74722438D02*
X122142857Y-74674819D01*
X122142857Y-74674819D02*
X122000000Y-74674819D01*
X122000000Y-74674819D02*
X121857143Y-74722438D01*
X121857143Y-74722438D02*
X121761905Y-74817676D01*
X121761905Y-74817676D02*
X121714286Y-74912914D01*
X121714286Y-74912914D02*
X121666667Y-75103390D01*
X121666667Y-75103390D02*
X121666667Y-75246247D01*
X121666667Y-75246247D02*
X121714286Y-75436723D01*
X121714286Y-75436723D02*
X121761905Y-75531961D01*
X121761905Y-75531961D02*
X121857143Y-75627200D01*
X121857143Y-75627200D02*
X122000000Y-75674819D01*
X122000000Y-75674819D02*
X122095238Y-75674819D01*
X122095238Y-75674819D02*
X122238095Y-75627200D01*
X122238095Y-75627200D02*
X122285714Y-75579580D01*
X122285714Y-75579580D02*
X122285714Y-75246247D01*
X122285714Y-75246247D02*
X122095238Y-75246247D01*
X122714286Y-75674819D02*
X122714286Y-74674819D01*
X122714286Y-74674819D02*
X123285714Y-75674819D01*
X123285714Y-75674819D02*
X123285714Y-74674819D01*
X123619048Y-74674819D02*
X124190476Y-74674819D01*
X123904762Y-75674819D02*
X123904762Y-74674819D01*
X124285715Y-75770057D02*
X125047619Y-75770057D01*
X125285715Y-75674819D02*
X125285715Y-74674819D01*
X125285715Y-74674819D02*
X125666667Y-74674819D01*
X125666667Y-74674819D02*
X125761905Y-74722438D01*
X125761905Y-74722438D02*
X125809524Y-74770057D01*
X125809524Y-74770057D02*
X125857143Y-74865295D01*
X125857143Y-74865295D02*
X125857143Y-75008152D01*
X125857143Y-75008152D02*
X125809524Y-75103390D01*
X125809524Y-75103390D02*
X125761905Y-75151009D01*
X125761905Y-75151009D02*
X125666667Y-75198628D01*
X125666667Y-75198628D02*
X125285715Y-75198628D01*
X126285715Y-75674819D02*
X126285715Y-74674819D01*
X126761905Y-75674819D02*
X126761905Y-74674819D01*
X126761905Y-74674819D02*
X127333333Y-75674819D01*
X127333333Y-75674819D02*
X127333333Y-74674819D01*
X128333333Y-75674819D02*
X127761905Y-75674819D01*
X128047619Y-75674819D02*
X128047619Y-74674819D01*
X128047619Y-74674819D02*
X127952381Y-74817676D01*
X127952381Y-74817676D02*
X127857143Y-74912914D01*
X127857143Y-74912914D02*
X127761905Y-74960533D01*
X121500000Y-54074819D02*
X121690476Y-54074819D01*
X121690476Y-54074819D02*
X121785714Y-54122438D01*
X121785714Y-54122438D02*
X121880952Y-54217676D01*
X121880952Y-54217676D02*
X121928571Y-54408152D01*
X121928571Y-54408152D02*
X121928571Y-54741485D01*
X121928571Y-54741485D02*
X121880952Y-54931961D01*
X121880952Y-54931961D02*
X121785714Y-55027200D01*
X121785714Y-55027200D02*
X121690476Y-55074819D01*
X121690476Y-55074819D02*
X121500000Y-55074819D01*
X121500000Y-55074819D02*
X121404762Y-55027200D01*
X121404762Y-55027200D02*
X121309524Y-54931961D01*
X121309524Y-54931961D02*
X121261905Y-54741485D01*
X121261905Y-54741485D02*
X121261905Y-54408152D01*
X121261905Y-54408152D02*
X121309524Y-54217676D01*
X121309524Y-54217676D02*
X121404762Y-54122438D01*
X121404762Y-54122438D02*
X121500000Y-54074819D01*
X122357143Y-54074819D02*
X122357143Y-54884342D01*
X122357143Y-54884342D02*
X122404762Y-54979580D01*
X122404762Y-54979580D02*
X122452381Y-55027200D01*
X122452381Y-55027200D02*
X122547619Y-55074819D01*
X122547619Y-55074819D02*
X122738095Y-55074819D01*
X122738095Y-55074819D02*
X122833333Y-55027200D01*
X122833333Y-55027200D02*
X122880952Y-54979580D01*
X122880952Y-54979580D02*
X122928571Y-54884342D01*
X122928571Y-54884342D02*
X122928571Y-54074819D01*
X123261905Y-54074819D02*
X123833333Y-54074819D01*
X123547619Y-55074819D02*
X123547619Y-54074819D01*
X124166667Y-55074819D02*
X124166667Y-54074819D01*
X124166667Y-54074819D02*
X124547619Y-54074819D01*
X124547619Y-54074819D02*
X124642857Y-54122438D01*
X124642857Y-54122438D02*
X124690476Y-54170057D01*
X124690476Y-54170057D02*
X124738095Y-54265295D01*
X124738095Y-54265295D02*
X124738095Y-54408152D01*
X124738095Y-54408152D02*
X124690476Y-54503390D01*
X124690476Y-54503390D02*
X124642857Y-54551009D01*
X124642857Y-54551009D02*
X124547619Y-54598628D01*
X124547619Y-54598628D02*
X124166667Y-54598628D01*
X125166667Y-54074819D02*
X125166667Y-54884342D01*
X125166667Y-54884342D02*
X125214286Y-54979580D01*
X125214286Y-54979580D02*
X125261905Y-55027200D01*
X125261905Y-55027200D02*
X125357143Y-55074819D01*
X125357143Y-55074819D02*
X125547619Y-55074819D01*
X125547619Y-55074819D02*
X125642857Y-55027200D01*
X125642857Y-55027200D02*
X125690476Y-54979580D01*
X125690476Y-54979580D02*
X125738095Y-54884342D01*
X125738095Y-54884342D02*
X125738095Y-54074819D01*
X126071429Y-54074819D02*
X126642857Y-54074819D01*
X126357143Y-55074819D02*
X126357143Y-54074819D01*
X126976191Y-54693866D02*
X127738096Y-54693866D01*
X127357143Y-55074819D02*
X127357143Y-54312914D01*
X128738095Y-55074819D02*
X128166667Y-55074819D01*
X128452381Y-55074819D02*
X128452381Y-54074819D01*
X128452381Y-54074819D02*
X128357143Y-54217676D01*
X128357143Y-54217676D02*
X128261905Y-54312914D01*
X128261905Y-54312914D02*
X128166667Y-54360533D01*
X86492380Y-56454819D02*
X86159047Y-55978628D01*
X85920952Y-56454819D02*
X85920952Y-55454819D01*
X85920952Y-55454819D02*
X86301904Y-55454819D01*
X86301904Y-55454819D02*
X86397142Y-55502438D01*
X86397142Y-55502438D02*
X86444761Y-55550057D01*
X86444761Y-55550057D02*
X86492380Y-55645295D01*
X86492380Y-55645295D02*
X86492380Y-55788152D01*
X86492380Y-55788152D02*
X86444761Y-55883390D01*
X86444761Y-55883390D02*
X86397142Y-55931009D01*
X86397142Y-55931009D02*
X86301904Y-55978628D01*
X86301904Y-55978628D02*
X85920952Y-55978628D01*
X86682857Y-56550057D02*
X87444761Y-56550057D01*
X88016190Y-55931009D02*
X88159047Y-55978628D01*
X88159047Y-55978628D02*
X88206666Y-56026247D01*
X88206666Y-56026247D02*
X88254285Y-56121485D01*
X88254285Y-56121485D02*
X88254285Y-56264342D01*
X88254285Y-56264342D02*
X88206666Y-56359580D01*
X88206666Y-56359580D02*
X88159047Y-56407200D01*
X88159047Y-56407200D02*
X88063809Y-56454819D01*
X88063809Y-56454819D02*
X87682857Y-56454819D01*
X87682857Y-56454819D02*
X87682857Y-55454819D01*
X87682857Y-55454819D02*
X88016190Y-55454819D01*
X88016190Y-55454819D02*
X88111428Y-55502438D01*
X88111428Y-55502438D02*
X88159047Y-55550057D01*
X88159047Y-55550057D02*
X88206666Y-55645295D01*
X88206666Y-55645295D02*
X88206666Y-55740533D01*
X88206666Y-55740533D02*
X88159047Y-55835771D01*
X88159047Y-55835771D02*
X88111428Y-55883390D01*
X88111428Y-55883390D02*
X88016190Y-55931009D01*
X88016190Y-55931009D02*
X87682857Y-55931009D01*
X89111428Y-55788152D02*
X89111428Y-56454819D01*
X88873333Y-55407200D02*
X88635238Y-56121485D01*
X88635238Y-56121485D02*
X89254285Y-56121485D01*
X93420951Y-60744819D02*
X93087618Y-60268628D01*
X92849523Y-60744819D02*
X92849523Y-59744819D01*
X92849523Y-59744819D02*
X93230475Y-59744819D01*
X93230475Y-59744819D02*
X93325713Y-59792438D01*
X93325713Y-59792438D02*
X93373332Y-59840057D01*
X93373332Y-59840057D02*
X93420951Y-59935295D01*
X93420951Y-59935295D02*
X93420951Y-60078152D01*
X93420951Y-60078152D02*
X93373332Y-60173390D01*
X93373332Y-60173390D02*
X93325713Y-60221009D01*
X93325713Y-60221009D02*
X93230475Y-60268628D01*
X93230475Y-60268628D02*
X92849523Y-60268628D01*
X93611428Y-60840057D02*
X94373332Y-60840057D01*
X94754285Y-60744819D02*
X94659047Y-60697200D01*
X94659047Y-60697200D02*
X94611428Y-60649580D01*
X94611428Y-60649580D02*
X94563809Y-60554342D01*
X94563809Y-60554342D02*
X94563809Y-60268628D01*
X94563809Y-60268628D02*
X94611428Y-60173390D01*
X94611428Y-60173390D02*
X94659047Y-60125771D01*
X94659047Y-60125771D02*
X94754285Y-60078152D01*
X94754285Y-60078152D02*
X94897142Y-60078152D01*
X94897142Y-60078152D02*
X94992380Y-60125771D01*
X94992380Y-60125771D02*
X95039999Y-60173390D01*
X95039999Y-60173390D02*
X95087618Y-60268628D01*
X95087618Y-60268628D02*
X95087618Y-60554342D01*
X95087618Y-60554342D02*
X95039999Y-60649580D01*
X95039999Y-60649580D02*
X94992380Y-60697200D01*
X94992380Y-60697200D02*
X94897142Y-60744819D01*
X94897142Y-60744819D02*
X94754285Y-60744819D01*
X95944761Y-60078152D02*
X95944761Y-60744819D01*
X95516190Y-60078152D02*
X95516190Y-60601961D01*
X95516190Y-60601961D02*
X95563809Y-60697200D01*
X95563809Y-60697200D02*
X95659047Y-60744819D01*
X95659047Y-60744819D02*
X95801904Y-60744819D01*
X95801904Y-60744819D02*
X95897142Y-60697200D01*
X95897142Y-60697200D02*
X95944761Y-60649580D01*
X96278095Y-60078152D02*
X96659047Y-60078152D01*
X96420952Y-59744819D02*
X96420952Y-60601961D01*
X96420952Y-60601961D02*
X96468571Y-60697200D01*
X96468571Y-60697200D02*
X96563809Y-60744819D01*
X96563809Y-60744819D02*
X96659047Y-60744819D01*
X96754286Y-60840057D02*
X97516190Y-60840057D01*
X98182857Y-60697200D02*
X98087619Y-60744819D01*
X98087619Y-60744819D02*
X97897143Y-60744819D01*
X97897143Y-60744819D02*
X97801905Y-60697200D01*
X97801905Y-60697200D02*
X97754286Y-60649580D01*
X97754286Y-60649580D02*
X97706667Y-60554342D01*
X97706667Y-60554342D02*
X97706667Y-60268628D01*
X97706667Y-60268628D02*
X97754286Y-60173390D01*
X97754286Y-60173390D02*
X97801905Y-60125771D01*
X97801905Y-60125771D02*
X97897143Y-60078152D01*
X97897143Y-60078152D02*
X98087619Y-60078152D01*
X98087619Y-60078152D02*
X98182857Y-60125771D01*
X98754286Y-60744819D02*
X98659048Y-60697200D01*
X98659048Y-60697200D02*
X98611429Y-60649580D01*
X98611429Y-60649580D02*
X98563810Y-60554342D01*
X98563810Y-60554342D02*
X98563810Y-60268628D01*
X98563810Y-60268628D02*
X98611429Y-60173390D01*
X98611429Y-60173390D02*
X98659048Y-60125771D01*
X98659048Y-60125771D02*
X98754286Y-60078152D01*
X98754286Y-60078152D02*
X98897143Y-60078152D01*
X98897143Y-60078152D02*
X98992381Y-60125771D01*
X98992381Y-60125771D02*
X99040000Y-60173390D01*
X99040000Y-60173390D02*
X99087619Y-60268628D01*
X99087619Y-60268628D02*
X99087619Y-60554342D01*
X99087619Y-60554342D02*
X99040000Y-60649580D01*
X99040000Y-60649580D02*
X98992381Y-60697200D01*
X98992381Y-60697200D02*
X98897143Y-60744819D01*
X98897143Y-60744819D02*
X98754286Y-60744819D01*
X99516191Y-60744819D02*
X99516191Y-60078152D01*
X99516191Y-60173390D02*
X99563810Y-60125771D01*
X99563810Y-60125771D02*
X99659048Y-60078152D01*
X99659048Y-60078152D02*
X99801905Y-60078152D01*
X99801905Y-60078152D02*
X99897143Y-60125771D01*
X99897143Y-60125771D02*
X99944762Y-60221009D01*
X99944762Y-60221009D02*
X99944762Y-60744819D01*
X99944762Y-60221009D02*
X99992381Y-60125771D01*
X99992381Y-60125771D02*
X100087619Y-60078152D01*
X100087619Y-60078152D02*
X100230476Y-60078152D01*
X100230476Y-60078152D02*
X100325715Y-60125771D01*
X100325715Y-60125771D02*
X100373334Y-60221009D01*
X100373334Y-60221009D02*
X100373334Y-60744819D01*
X100849524Y-60078152D02*
X100849524Y-61078152D01*
X100849524Y-60125771D02*
X100944762Y-60078152D01*
X100944762Y-60078152D02*
X101135238Y-60078152D01*
X101135238Y-60078152D02*
X101230476Y-60125771D01*
X101230476Y-60125771D02*
X101278095Y-60173390D01*
X101278095Y-60173390D02*
X101325714Y-60268628D01*
X101325714Y-60268628D02*
X101325714Y-60554342D01*
X101325714Y-60554342D02*
X101278095Y-60649580D01*
X101278095Y-60649580D02*
X101230476Y-60697200D01*
X101230476Y-60697200D02*
X101135238Y-60744819D01*
X101135238Y-60744819D02*
X100944762Y-60744819D01*
X100944762Y-60744819D02*
X100849524Y-60697200D01*
X101706667Y-59840057D02*
X101754286Y-59792438D01*
X101754286Y-59792438D02*
X101849524Y-59744819D01*
X101849524Y-59744819D02*
X102087619Y-59744819D01*
X102087619Y-59744819D02*
X102182857Y-59792438D01*
X102182857Y-59792438D02*
X102230476Y-59840057D01*
X102230476Y-59840057D02*
X102278095Y-59935295D01*
X102278095Y-59935295D02*
X102278095Y-60030533D01*
X102278095Y-60030533D02*
X102230476Y-60173390D01*
X102230476Y-60173390D02*
X101659048Y-60744819D01*
X101659048Y-60744819D02*
X102278095Y-60744819D01*
X121500000Y-49074819D02*
X121690476Y-49074819D01*
X121690476Y-49074819D02*
X121785714Y-49122438D01*
X121785714Y-49122438D02*
X121880952Y-49217676D01*
X121880952Y-49217676D02*
X121928571Y-49408152D01*
X121928571Y-49408152D02*
X121928571Y-49741485D01*
X121928571Y-49741485D02*
X121880952Y-49931961D01*
X121880952Y-49931961D02*
X121785714Y-50027200D01*
X121785714Y-50027200D02*
X121690476Y-50074819D01*
X121690476Y-50074819D02*
X121500000Y-50074819D01*
X121500000Y-50074819D02*
X121404762Y-50027200D01*
X121404762Y-50027200D02*
X121309524Y-49931961D01*
X121309524Y-49931961D02*
X121261905Y-49741485D01*
X121261905Y-49741485D02*
X121261905Y-49408152D01*
X121261905Y-49408152D02*
X121309524Y-49217676D01*
X121309524Y-49217676D02*
X121404762Y-49122438D01*
X121404762Y-49122438D02*
X121500000Y-49074819D01*
X122357143Y-49074819D02*
X122357143Y-49884342D01*
X122357143Y-49884342D02*
X122404762Y-49979580D01*
X122404762Y-49979580D02*
X122452381Y-50027200D01*
X122452381Y-50027200D02*
X122547619Y-50074819D01*
X122547619Y-50074819D02*
X122738095Y-50074819D01*
X122738095Y-50074819D02*
X122833333Y-50027200D01*
X122833333Y-50027200D02*
X122880952Y-49979580D01*
X122880952Y-49979580D02*
X122928571Y-49884342D01*
X122928571Y-49884342D02*
X122928571Y-49074819D01*
X123261905Y-49074819D02*
X123833333Y-49074819D01*
X123547619Y-50074819D02*
X123547619Y-49074819D01*
X124166667Y-50074819D02*
X124166667Y-49074819D01*
X124166667Y-49074819D02*
X124547619Y-49074819D01*
X124547619Y-49074819D02*
X124642857Y-49122438D01*
X124642857Y-49122438D02*
X124690476Y-49170057D01*
X124690476Y-49170057D02*
X124738095Y-49265295D01*
X124738095Y-49265295D02*
X124738095Y-49408152D01*
X124738095Y-49408152D02*
X124690476Y-49503390D01*
X124690476Y-49503390D02*
X124642857Y-49551009D01*
X124642857Y-49551009D02*
X124547619Y-49598628D01*
X124547619Y-49598628D02*
X124166667Y-49598628D01*
X125166667Y-49074819D02*
X125166667Y-49884342D01*
X125166667Y-49884342D02*
X125214286Y-49979580D01*
X125214286Y-49979580D02*
X125261905Y-50027200D01*
X125261905Y-50027200D02*
X125357143Y-50074819D01*
X125357143Y-50074819D02*
X125547619Y-50074819D01*
X125547619Y-50074819D02*
X125642857Y-50027200D01*
X125642857Y-50027200D02*
X125690476Y-49979580D01*
X125690476Y-49979580D02*
X125738095Y-49884342D01*
X125738095Y-49884342D02*
X125738095Y-49074819D01*
X126071429Y-49074819D02*
X126642857Y-49074819D01*
X126357143Y-50074819D02*
X126357143Y-49074819D01*
X126976191Y-49693866D02*
X127738096Y-49693866D01*
X128738095Y-50074819D02*
X128166667Y-50074819D01*
X128452381Y-50074819D02*
X128452381Y-49074819D01*
X128452381Y-49074819D02*
X128357143Y-49217676D01*
X128357143Y-49217676D02*
X128261905Y-49312914D01*
X128261905Y-49312914D02*
X128166667Y-49360533D01*
X79334819Y-50143333D02*
X79334819Y-49476667D01*
X79334819Y-49476667D02*
X80334819Y-50143333D01*
X80334819Y-50143333D02*
X80334819Y-49476667D01*
X80287200Y-48714762D02*
X80334819Y-48810000D01*
X80334819Y-48810000D02*
X80334819Y-49000476D01*
X80334819Y-49000476D02*
X80287200Y-49095714D01*
X80287200Y-49095714D02*
X80191961Y-49143333D01*
X80191961Y-49143333D02*
X79811009Y-49143333D01*
X79811009Y-49143333D02*
X79715771Y-49095714D01*
X79715771Y-49095714D02*
X79668152Y-49000476D01*
X79668152Y-49000476D02*
X79668152Y-48810000D01*
X79668152Y-48810000D02*
X79715771Y-48714762D01*
X79715771Y-48714762D02*
X79811009Y-48667143D01*
X79811009Y-48667143D02*
X79906247Y-48667143D01*
X79906247Y-48667143D02*
X80001485Y-49143333D01*
X79668152Y-48238571D02*
X80334819Y-48238571D01*
X79763390Y-48238571D02*
X79715771Y-48190952D01*
X79715771Y-48190952D02*
X79668152Y-48095714D01*
X79668152Y-48095714D02*
X79668152Y-47952857D01*
X79668152Y-47952857D02*
X79715771Y-47857619D01*
X79715771Y-47857619D02*
X79811009Y-47810000D01*
X79811009Y-47810000D02*
X80334819Y-47810000D01*
X80287200Y-46952857D02*
X80334819Y-47048095D01*
X80334819Y-47048095D02*
X80334819Y-47238571D01*
X80334819Y-47238571D02*
X80287200Y-47333809D01*
X80287200Y-47333809D02*
X80191961Y-47381428D01*
X80191961Y-47381428D02*
X79811009Y-47381428D01*
X79811009Y-47381428D02*
X79715771Y-47333809D01*
X79715771Y-47333809D02*
X79668152Y-47238571D01*
X79668152Y-47238571D02*
X79668152Y-47048095D01*
X79668152Y-47048095D02*
X79715771Y-46952857D01*
X79715771Y-46952857D02*
X79811009Y-46905238D01*
X79811009Y-46905238D02*
X79906247Y-46905238D01*
X79906247Y-46905238D02*
X80001485Y-47381428D01*
X80334819Y-46476666D02*
X79668152Y-46476666D01*
X79858628Y-46476666D02*
X79763390Y-46429047D01*
X79763390Y-46429047D02*
X79715771Y-46381428D01*
X79715771Y-46381428D02*
X79668152Y-46286190D01*
X79668152Y-46286190D02*
X79668152Y-46190952D01*
X80430057Y-46095714D02*
X80430057Y-45333809D01*
X80334819Y-45095713D02*
X79334819Y-45095713D01*
X79811009Y-45095713D02*
X79811009Y-44524285D01*
X80334819Y-44524285D02*
X79334819Y-44524285D01*
X80334819Y-43524285D02*
X80334819Y-44095713D01*
X80334819Y-43809999D02*
X79334819Y-43809999D01*
X79334819Y-43809999D02*
X79477676Y-43905237D01*
X79477676Y-43905237D02*
X79572914Y-44000475D01*
X79572914Y-44000475D02*
X79620533Y-44095713D01*
X80654819Y-50881904D02*
X79654819Y-50881904D01*
X80654819Y-50310476D02*
X80083390Y-50739047D01*
X79654819Y-50310476D02*
X80226247Y-50881904D01*
X121500000Y-69374819D02*
X121690476Y-69374819D01*
X121690476Y-69374819D02*
X121785714Y-69422438D01*
X121785714Y-69422438D02*
X121880952Y-69517676D01*
X121880952Y-69517676D02*
X121928571Y-69708152D01*
X121928571Y-69708152D02*
X121928571Y-70041485D01*
X121928571Y-70041485D02*
X121880952Y-70231961D01*
X121880952Y-70231961D02*
X121785714Y-70327200D01*
X121785714Y-70327200D02*
X121690476Y-70374819D01*
X121690476Y-70374819D02*
X121500000Y-70374819D01*
X121500000Y-70374819D02*
X121404762Y-70327200D01*
X121404762Y-70327200D02*
X121309524Y-70231961D01*
X121309524Y-70231961D02*
X121261905Y-70041485D01*
X121261905Y-70041485D02*
X121261905Y-69708152D01*
X121261905Y-69708152D02*
X121309524Y-69517676D01*
X121309524Y-69517676D02*
X121404762Y-69422438D01*
X121404762Y-69422438D02*
X121500000Y-69374819D01*
X122357143Y-69374819D02*
X122357143Y-70184342D01*
X122357143Y-70184342D02*
X122404762Y-70279580D01*
X122404762Y-70279580D02*
X122452381Y-70327200D01*
X122452381Y-70327200D02*
X122547619Y-70374819D01*
X122547619Y-70374819D02*
X122738095Y-70374819D01*
X122738095Y-70374819D02*
X122833333Y-70327200D01*
X122833333Y-70327200D02*
X122880952Y-70279580D01*
X122880952Y-70279580D02*
X122928571Y-70184342D01*
X122928571Y-70184342D02*
X122928571Y-69374819D01*
X123261905Y-69374819D02*
X123833333Y-69374819D01*
X123547619Y-70374819D02*
X123547619Y-69374819D01*
X124166667Y-70374819D02*
X124166667Y-69374819D01*
X124166667Y-69374819D02*
X124547619Y-69374819D01*
X124547619Y-69374819D02*
X124642857Y-69422438D01*
X124642857Y-69422438D02*
X124690476Y-69470057D01*
X124690476Y-69470057D02*
X124738095Y-69565295D01*
X124738095Y-69565295D02*
X124738095Y-69708152D01*
X124738095Y-69708152D02*
X124690476Y-69803390D01*
X124690476Y-69803390D02*
X124642857Y-69851009D01*
X124642857Y-69851009D02*
X124547619Y-69898628D01*
X124547619Y-69898628D02*
X124166667Y-69898628D01*
X125166667Y-69374819D02*
X125166667Y-70184342D01*
X125166667Y-70184342D02*
X125214286Y-70279580D01*
X125214286Y-70279580D02*
X125261905Y-70327200D01*
X125261905Y-70327200D02*
X125357143Y-70374819D01*
X125357143Y-70374819D02*
X125547619Y-70374819D01*
X125547619Y-70374819D02*
X125642857Y-70327200D01*
X125642857Y-70327200D02*
X125690476Y-70279580D01*
X125690476Y-70279580D02*
X125738095Y-70184342D01*
X125738095Y-70184342D02*
X125738095Y-69374819D01*
X126071429Y-69374819D02*
X126642857Y-69374819D01*
X126357143Y-70374819D02*
X126357143Y-69374819D01*
X126976191Y-69993866D02*
X127738096Y-69993866D01*
X128166667Y-69470057D02*
X128214286Y-69422438D01*
X128214286Y-69422438D02*
X128309524Y-69374819D01*
X128309524Y-69374819D02*
X128547619Y-69374819D01*
X128547619Y-69374819D02*
X128642857Y-69422438D01*
X128642857Y-69422438D02*
X128690476Y-69470057D01*
X128690476Y-69470057D02*
X128738095Y-69565295D01*
X128738095Y-69565295D02*
X128738095Y-69660533D01*
X128738095Y-69660533D02*
X128690476Y-69803390D01*
X128690476Y-69803390D02*
X128119048Y-70374819D01*
X128119048Y-70374819D02*
X128738095Y-70374819D01*
X83738095Y-66606819D02*
X84309523Y-66606819D01*
X84023809Y-67606819D02*
X84023809Y-66606819D01*
X84642857Y-67606819D02*
X84642857Y-66606819D01*
X84642857Y-66606819D02*
X85023809Y-66606819D01*
X85023809Y-66606819D02*
X85119047Y-66654438D01*
X85119047Y-66654438D02*
X85166666Y-66702057D01*
X85166666Y-66702057D02*
X85214285Y-66797295D01*
X85214285Y-66797295D02*
X85214285Y-66940152D01*
X85214285Y-66940152D02*
X85166666Y-67035390D01*
X85166666Y-67035390D02*
X85119047Y-67083009D01*
X85119047Y-67083009D02*
X85023809Y-67130628D01*
X85023809Y-67130628D02*
X84642857Y-67130628D01*
X85547619Y-66606819D02*
X86214285Y-66606819D01*
X86214285Y-66606819D02*
X85785714Y-67606819D01*
X83574819Y-89523333D02*
X83574819Y-88856667D01*
X83574819Y-88856667D02*
X84574819Y-89523333D01*
X84574819Y-89523333D02*
X84574819Y-88856667D01*
X84527200Y-88094762D02*
X84574819Y-88190000D01*
X84574819Y-88190000D02*
X84574819Y-88380476D01*
X84574819Y-88380476D02*
X84527200Y-88475714D01*
X84527200Y-88475714D02*
X84431961Y-88523333D01*
X84431961Y-88523333D02*
X84051009Y-88523333D01*
X84051009Y-88523333D02*
X83955771Y-88475714D01*
X83955771Y-88475714D02*
X83908152Y-88380476D01*
X83908152Y-88380476D02*
X83908152Y-88190000D01*
X83908152Y-88190000D02*
X83955771Y-88094762D01*
X83955771Y-88094762D02*
X84051009Y-88047143D01*
X84051009Y-88047143D02*
X84146247Y-88047143D01*
X84146247Y-88047143D02*
X84241485Y-88523333D01*
X83908152Y-87618571D02*
X84574819Y-87618571D01*
X84003390Y-87618571D02*
X83955771Y-87570952D01*
X83955771Y-87570952D02*
X83908152Y-87475714D01*
X83908152Y-87475714D02*
X83908152Y-87332857D01*
X83908152Y-87332857D02*
X83955771Y-87237619D01*
X83955771Y-87237619D02*
X84051009Y-87190000D01*
X84051009Y-87190000D02*
X84574819Y-87190000D01*
X84527200Y-86332857D02*
X84574819Y-86428095D01*
X84574819Y-86428095D02*
X84574819Y-86618571D01*
X84574819Y-86618571D02*
X84527200Y-86713809D01*
X84527200Y-86713809D02*
X84431961Y-86761428D01*
X84431961Y-86761428D02*
X84051009Y-86761428D01*
X84051009Y-86761428D02*
X83955771Y-86713809D01*
X83955771Y-86713809D02*
X83908152Y-86618571D01*
X83908152Y-86618571D02*
X83908152Y-86428095D01*
X83908152Y-86428095D02*
X83955771Y-86332857D01*
X83955771Y-86332857D02*
X84051009Y-86285238D01*
X84051009Y-86285238D02*
X84146247Y-86285238D01*
X84146247Y-86285238D02*
X84241485Y-86761428D01*
X84574819Y-85856666D02*
X83908152Y-85856666D01*
X84098628Y-85856666D02*
X84003390Y-85809047D01*
X84003390Y-85809047D02*
X83955771Y-85761428D01*
X83955771Y-85761428D02*
X83908152Y-85666190D01*
X83908152Y-85666190D02*
X83908152Y-85570952D01*
X84670057Y-85475714D02*
X84670057Y-84713809D01*
X84574819Y-84475713D02*
X83574819Y-84475713D01*
X84051009Y-84475713D02*
X84051009Y-83904285D01*
X84574819Y-83904285D02*
X83574819Y-83904285D01*
X83670057Y-83475713D02*
X83622438Y-83428094D01*
X83622438Y-83428094D02*
X83574819Y-83332856D01*
X83574819Y-83332856D02*
X83574819Y-83094761D01*
X83574819Y-83094761D02*
X83622438Y-82999523D01*
X83622438Y-82999523D02*
X83670057Y-82951904D01*
X83670057Y-82951904D02*
X83765295Y-82904285D01*
X83765295Y-82904285D02*
X83860533Y-82904285D01*
X83860533Y-82904285D02*
X84003390Y-82951904D01*
X84003390Y-82951904D02*
X84574819Y-83523332D01*
X84574819Y-83523332D02*
X84574819Y-82904285D01*
X84254819Y-82641904D02*
X83254819Y-82641904D01*
X84254819Y-82070476D02*
X83683390Y-82499047D01*
X83254819Y-82070476D02*
X83826247Y-82641904D01*
X86492380Y-73614819D02*
X86159047Y-73138628D01*
X85920952Y-73614819D02*
X85920952Y-72614819D01*
X85920952Y-72614819D02*
X86301904Y-72614819D01*
X86301904Y-72614819D02*
X86397142Y-72662438D01*
X86397142Y-72662438D02*
X86444761Y-72710057D01*
X86444761Y-72710057D02*
X86492380Y-72805295D01*
X86492380Y-72805295D02*
X86492380Y-72948152D01*
X86492380Y-72948152D02*
X86444761Y-73043390D01*
X86444761Y-73043390D02*
X86397142Y-73091009D01*
X86397142Y-73091009D02*
X86301904Y-73138628D01*
X86301904Y-73138628D02*
X85920952Y-73138628D01*
X86682857Y-73710057D02*
X87444761Y-73710057D01*
X88016190Y-73091009D02*
X88159047Y-73138628D01*
X88159047Y-73138628D02*
X88206666Y-73186247D01*
X88206666Y-73186247D02*
X88254285Y-73281485D01*
X88254285Y-73281485D02*
X88254285Y-73424342D01*
X88254285Y-73424342D02*
X88206666Y-73519580D01*
X88206666Y-73519580D02*
X88159047Y-73567200D01*
X88159047Y-73567200D02*
X88063809Y-73614819D01*
X88063809Y-73614819D02*
X87682857Y-73614819D01*
X87682857Y-73614819D02*
X87682857Y-72614819D01*
X87682857Y-72614819D02*
X88016190Y-72614819D01*
X88016190Y-72614819D02*
X88111428Y-72662438D01*
X88111428Y-72662438D02*
X88159047Y-72710057D01*
X88159047Y-72710057D02*
X88206666Y-72805295D01*
X88206666Y-72805295D02*
X88206666Y-72900533D01*
X88206666Y-72900533D02*
X88159047Y-72995771D01*
X88159047Y-72995771D02*
X88111428Y-73043390D01*
X88111428Y-73043390D02*
X88016190Y-73091009D01*
X88016190Y-73091009D02*
X87682857Y-73091009D01*
X88825714Y-73043390D02*
X88730476Y-72995771D01*
X88730476Y-72995771D02*
X88682857Y-72948152D01*
X88682857Y-72948152D02*
X88635238Y-72852914D01*
X88635238Y-72852914D02*
X88635238Y-72805295D01*
X88635238Y-72805295D02*
X88682857Y-72710057D01*
X88682857Y-72710057D02*
X88730476Y-72662438D01*
X88730476Y-72662438D02*
X88825714Y-72614819D01*
X88825714Y-72614819D02*
X89016190Y-72614819D01*
X89016190Y-72614819D02*
X89111428Y-72662438D01*
X89111428Y-72662438D02*
X89159047Y-72710057D01*
X89159047Y-72710057D02*
X89206666Y-72805295D01*
X89206666Y-72805295D02*
X89206666Y-72852914D01*
X89206666Y-72852914D02*
X89159047Y-72948152D01*
X89159047Y-72948152D02*
X89111428Y-72995771D01*
X89111428Y-72995771D02*
X89016190Y-73043390D01*
X89016190Y-73043390D02*
X88825714Y-73043390D01*
X88825714Y-73043390D02*
X88730476Y-73091009D01*
X88730476Y-73091009D02*
X88682857Y-73138628D01*
X88682857Y-73138628D02*
X88635238Y-73233866D01*
X88635238Y-73233866D02*
X88635238Y-73424342D01*
X88635238Y-73424342D02*
X88682857Y-73519580D01*
X88682857Y-73519580D02*
X88730476Y-73567200D01*
X88730476Y-73567200D02*
X88825714Y-73614819D01*
X88825714Y-73614819D02*
X89016190Y-73614819D01*
X89016190Y-73614819D02*
X89111428Y-73567200D01*
X89111428Y-73567200D02*
X89159047Y-73519580D01*
X89159047Y-73519580D02*
X89206666Y-73424342D01*
X89206666Y-73424342D02*
X89206666Y-73233866D01*
X89206666Y-73233866D02*
X89159047Y-73138628D01*
X89159047Y-73138628D02*
X89111428Y-73091009D01*
X89111428Y-73091009D02*
X89016190Y-73043390D01*
X68574819Y-89428095D02*
X68574819Y-88761429D01*
X68574819Y-88761429D02*
X69574819Y-89428095D01*
X69574819Y-89428095D02*
X69574819Y-88761429D01*
X69527200Y-87999524D02*
X69574819Y-88094762D01*
X69574819Y-88094762D02*
X69574819Y-88285238D01*
X69574819Y-88285238D02*
X69527200Y-88380476D01*
X69527200Y-88380476D02*
X69431961Y-88428095D01*
X69431961Y-88428095D02*
X69051009Y-88428095D01*
X69051009Y-88428095D02*
X68955771Y-88380476D01*
X68955771Y-88380476D02*
X68908152Y-88285238D01*
X68908152Y-88285238D02*
X68908152Y-88094762D01*
X68908152Y-88094762D02*
X68955771Y-87999524D01*
X68955771Y-87999524D02*
X69051009Y-87951905D01*
X69051009Y-87951905D02*
X69146247Y-87951905D01*
X69146247Y-87951905D02*
X69241485Y-88428095D01*
X68908152Y-87523333D02*
X69574819Y-87523333D01*
X69003390Y-87523333D02*
X68955771Y-87475714D01*
X68955771Y-87475714D02*
X68908152Y-87380476D01*
X68908152Y-87380476D02*
X68908152Y-87237619D01*
X68908152Y-87237619D02*
X68955771Y-87142381D01*
X68955771Y-87142381D02*
X69051009Y-87094762D01*
X69051009Y-87094762D02*
X69574819Y-87094762D01*
X69527200Y-86237619D02*
X69574819Y-86332857D01*
X69574819Y-86332857D02*
X69574819Y-86523333D01*
X69574819Y-86523333D02*
X69527200Y-86618571D01*
X69527200Y-86618571D02*
X69431961Y-86666190D01*
X69431961Y-86666190D02*
X69051009Y-86666190D01*
X69051009Y-86666190D02*
X68955771Y-86618571D01*
X68955771Y-86618571D02*
X68908152Y-86523333D01*
X68908152Y-86523333D02*
X68908152Y-86332857D01*
X68908152Y-86332857D02*
X68955771Y-86237619D01*
X68955771Y-86237619D02*
X69051009Y-86190000D01*
X69051009Y-86190000D02*
X69146247Y-86190000D01*
X69146247Y-86190000D02*
X69241485Y-86666190D01*
X69574819Y-85761428D02*
X68908152Y-85761428D01*
X69098628Y-85761428D02*
X69003390Y-85713809D01*
X69003390Y-85713809D02*
X68955771Y-85666190D01*
X68955771Y-85666190D02*
X68908152Y-85570952D01*
X68908152Y-85570952D02*
X68908152Y-85475714D01*
X69670057Y-85380476D02*
X69670057Y-84618571D01*
X69289104Y-84428094D02*
X69289104Y-83951904D01*
X69574819Y-84523332D02*
X68574819Y-84189999D01*
X68574819Y-84189999D02*
X69574819Y-83856666D01*
X68670057Y-83570951D02*
X68622438Y-83523332D01*
X68622438Y-83523332D02*
X68574819Y-83428094D01*
X68574819Y-83428094D02*
X68574819Y-83189999D01*
X68574819Y-83189999D02*
X68622438Y-83094761D01*
X68622438Y-83094761D02*
X68670057Y-83047142D01*
X68670057Y-83047142D02*
X68765295Y-82999523D01*
X68765295Y-82999523D02*
X68860533Y-82999523D01*
X68860533Y-82999523D02*
X69003390Y-83047142D01*
X69003390Y-83047142D02*
X69574819Y-83618570D01*
X69574819Y-83618570D02*
X69574819Y-82999523D01*
X69254819Y-82641904D02*
X68254819Y-82641904D01*
X69254819Y-82070476D02*
X68683390Y-82499047D01*
X68254819Y-82070476D02*
X68826247Y-82641904D01*
X75084819Y-47857619D02*
X74608628Y-48190952D01*
X75084819Y-48429047D02*
X74084819Y-48429047D01*
X74084819Y-48429047D02*
X74084819Y-48048095D01*
X74084819Y-48048095D02*
X74132438Y-47952857D01*
X74132438Y-47952857D02*
X74180057Y-47905238D01*
X74180057Y-47905238D02*
X74275295Y-47857619D01*
X74275295Y-47857619D02*
X74418152Y-47857619D01*
X74418152Y-47857619D02*
X74513390Y-47905238D01*
X74513390Y-47905238D02*
X74561009Y-47952857D01*
X74561009Y-47952857D02*
X74608628Y-48048095D01*
X74608628Y-48048095D02*
X74608628Y-48429047D01*
X75180057Y-47667143D02*
X75180057Y-46905238D01*
X74561009Y-46333809D02*
X74608628Y-46190952D01*
X74608628Y-46190952D02*
X74656247Y-46143333D01*
X74656247Y-46143333D02*
X74751485Y-46095714D01*
X74751485Y-46095714D02*
X74894342Y-46095714D01*
X74894342Y-46095714D02*
X74989580Y-46143333D01*
X74989580Y-46143333D02*
X75037200Y-46190952D01*
X75037200Y-46190952D02*
X75084819Y-46286190D01*
X75084819Y-46286190D02*
X75084819Y-46667142D01*
X75084819Y-46667142D02*
X74084819Y-46667142D01*
X74084819Y-46667142D02*
X74084819Y-46333809D01*
X74084819Y-46333809D02*
X74132438Y-46238571D01*
X74132438Y-46238571D02*
X74180057Y-46190952D01*
X74180057Y-46190952D02*
X74275295Y-46143333D01*
X74275295Y-46143333D02*
X74370533Y-46143333D01*
X74370533Y-46143333D02*
X74465771Y-46190952D01*
X74465771Y-46190952D02*
X74513390Y-46238571D01*
X74513390Y-46238571D02*
X74561009Y-46333809D01*
X74561009Y-46333809D02*
X74561009Y-46667142D01*
X74180057Y-45714761D02*
X74132438Y-45667142D01*
X74132438Y-45667142D02*
X74084819Y-45571904D01*
X74084819Y-45571904D02*
X74084819Y-45333809D01*
X74084819Y-45333809D02*
X74132438Y-45238571D01*
X74132438Y-45238571D02*
X74180057Y-45190952D01*
X74180057Y-45190952D02*
X74275295Y-45143333D01*
X74275295Y-45143333D02*
X74370533Y-45143333D01*
X74370533Y-45143333D02*
X74513390Y-45190952D01*
X74513390Y-45190952D02*
X75084819Y-45762380D01*
X75084819Y-45762380D02*
X75084819Y-45143333D01*
X122324819Y-81254285D02*
X121324819Y-81254285D01*
X121324819Y-81254285D02*
X122324819Y-80682857D01*
X122324819Y-80682857D02*
X121324819Y-80682857D01*
X122324819Y-80206666D02*
X121324819Y-80206666D01*
X121324819Y-80206666D02*
X122039104Y-79873333D01*
X122039104Y-79873333D02*
X121324819Y-79540000D01*
X121324819Y-79540000D02*
X122324819Y-79540000D01*
X121324819Y-78873333D02*
X121324819Y-78682857D01*
X121324819Y-78682857D02*
X121372438Y-78587619D01*
X121372438Y-78587619D02*
X121467676Y-78492381D01*
X121467676Y-78492381D02*
X121658152Y-78444762D01*
X121658152Y-78444762D02*
X121991485Y-78444762D01*
X121991485Y-78444762D02*
X122181961Y-78492381D01*
X122181961Y-78492381D02*
X122277200Y-78587619D01*
X122277200Y-78587619D02*
X122324819Y-78682857D01*
X122324819Y-78682857D02*
X122324819Y-78873333D01*
X122324819Y-78873333D02*
X122277200Y-78968571D01*
X122277200Y-78968571D02*
X122181961Y-79063809D01*
X122181961Y-79063809D02*
X121991485Y-79111428D01*
X121991485Y-79111428D02*
X121658152Y-79111428D01*
X121658152Y-79111428D02*
X121467676Y-79063809D01*
X121467676Y-79063809D02*
X121372438Y-78968571D01*
X121372438Y-78968571D02*
X121324819Y-78873333D01*
X122277200Y-78063809D02*
X122324819Y-77920952D01*
X122324819Y-77920952D02*
X122324819Y-77682857D01*
X122324819Y-77682857D02*
X122277200Y-77587619D01*
X122277200Y-77587619D02*
X122229580Y-77540000D01*
X122229580Y-77540000D02*
X122134342Y-77492381D01*
X122134342Y-77492381D02*
X122039104Y-77492381D01*
X122039104Y-77492381D02*
X121943866Y-77540000D01*
X121943866Y-77540000D02*
X121896247Y-77587619D01*
X121896247Y-77587619D02*
X121848628Y-77682857D01*
X121848628Y-77682857D02*
X121801009Y-77873333D01*
X121801009Y-77873333D02*
X121753390Y-77968571D01*
X121753390Y-77968571D02*
X121705771Y-78016190D01*
X121705771Y-78016190D02*
X121610533Y-78063809D01*
X121610533Y-78063809D02*
X121515295Y-78063809D01*
X121515295Y-78063809D02*
X121420057Y-78016190D01*
X121420057Y-78016190D02*
X121372438Y-77968571D01*
X121372438Y-77968571D02*
X121324819Y-77873333D01*
X121324819Y-77873333D02*
X121324819Y-77635238D01*
X121324819Y-77635238D02*
X121372438Y-77492381D01*
X122420057Y-77301905D02*
X122420057Y-76540000D01*
X121324819Y-76397142D02*
X121324819Y-75778095D01*
X121324819Y-75778095D02*
X121705771Y-76111428D01*
X121705771Y-76111428D02*
X121705771Y-75968571D01*
X121705771Y-75968571D02*
X121753390Y-75873333D01*
X121753390Y-75873333D02*
X121801009Y-75825714D01*
X121801009Y-75825714D02*
X121896247Y-75778095D01*
X121896247Y-75778095D02*
X122134342Y-75778095D01*
X122134342Y-75778095D02*
X122229580Y-75825714D01*
X122229580Y-75825714D02*
X122277200Y-75873333D01*
X122277200Y-75873333D02*
X122324819Y-75968571D01*
X122324819Y-75968571D02*
X122324819Y-76254285D01*
X122324819Y-76254285D02*
X122277200Y-76349523D01*
X122277200Y-76349523D02*
X122229580Y-76397142D01*
X93420951Y-77904819D02*
X93087618Y-77428628D01*
X92849523Y-77904819D02*
X92849523Y-76904819D01*
X92849523Y-76904819D02*
X93230475Y-76904819D01*
X93230475Y-76904819D02*
X93325713Y-76952438D01*
X93325713Y-76952438D02*
X93373332Y-77000057D01*
X93373332Y-77000057D02*
X93420951Y-77095295D01*
X93420951Y-77095295D02*
X93420951Y-77238152D01*
X93420951Y-77238152D02*
X93373332Y-77333390D01*
X93373332Y-77333390D02*
X93325713Y-77381009D01*
X93325713Y-77381009D02*
X93230475Y-77428628D01*
X93230475Y-77428628D02*
X92849523Y-77428628D01*
X93611428Y-78000057D02*
X94373332Y-78000057D01*
X94754285Y-77904819D02*
X94659047Y-77857200D01*
X94659047Y-77857200D02*
X94611428Y-77809580D01*
X94611428Y-77809580D02*
X94563809Y-77714342D01*
X94563809Y-77714342D02*
X94563809Y-77428628D01*
X94563809Y-77428628D02*
X94611428Y-77333390D01*
X94611428Y-77333390D02*
X94659047Y-77285771D01*
X94659047Y-77285771D02*
X94754285Y-77238152D01*
X94754285Y-77238152D02*
X94897142Y-77238152D01*
X94897142Y-77238152D02*
X94992380Y-77285771D01*
X94992380Y-77285771D02*
X95039999Y-77333390D01*
X95039999Y-77333390D02*
X95087618Y-77428628D01*
X95087618Y-77428628D02*
X95087618Y-77714342D01*
X95087618Y-77714342D02*
X95039999Y-77809580D01*
X95039999Y-77809580D02*
X94992380Y-77857200D01*
X94992380Y-77857200D02*
X94897142Y-77904819D01*
X94897142Y-77904819D02*
X94754285Y-77904819D01*
X95944761Y-77238152D02*
X95944761Y-77904819D01*
X95516190Y-77238152D02*
X95516190Y-77761961D01*
X95516190Y-77761961D02*
X95563809Y-77857200D01*
X95563809Y-77857200D02*
X95659047Y-77904819D01*
X95659047Y-77904819D02*
X95801904Y-77904819D01*
X95801904Y-77904819D02*
X95897142Y-77857200D01*
X95897142Y-77857200D02*
X95944761Y-77809580D01*
X96278095Y-77238152D02*
X96659047Y-77238152D01*
X96420952Y-76904819D02*
X96420952Y-77761961D01*
X96420952Y-77761961D02*
X96468571Y-77857200D01*
X96468571Y-77857200D02*
X96563809Y-77904819D01*
X96563809Y-77904819D02*
X96659047Y-77904819D01*
X96754286Y-78000057D02*
X97516190Y-78000057D01*
X98182857Y-77857200D02*
X98087619Y-77904819D01*
X98087619Y-77904819D02*
X97897143Y-77904819D01*
X97897143Y-77904819D02*
X97801905Y-77857200D01*
X97801905Y-77857200D02*
X97754286Y-77809580D01*
X97754286Y-77809580D02*
X97706667Y-77714342D01*
X97706667Y-77714342D02*
X97706667Y-77428628D01*
X97706667Y-77428628D02*
X97754286Y-77333390D01*
X97754286Y-77333390D02*
X97801905Y-77285771D01*
X97801905Y-77285771D02*
X97897143Y-77238152D01*
X97897143Y-77238152D02*
X98087619Y-77238152D01*
X98087619Y-77238152D02*
X98182857Y-77285771D01*
X98754286Y-77904819D02*
X98659048Y-77857200D01*
X98659048Y-77857200D02*
X98611429Y-77809580D01*
X98611429Y-77809580D02*
X98563810Y-77714342D01*
X98563810Y-77714342D02*
X98563810Y-77428628D01*
X98563810Y-77428628D02*
X98611429Y-77333390D01*
X98611429Y-77333390D02*
X98659048Y-77285771D01*
X98659048Y-77285771D02*
X98754286Y-77238152D01*
X98754286Y-77238152D02*
X98897143Y-77238152D01*
X98897143Y-77238152D02*
X98992381Y-77285771D01*
X98992381Y-77285771D02*
X99040000Y-77333390D01*
X99040000Y-77333390D02*
X99087619Y-77428628D01*
X99087619Y-77428628D02*
X99087619Y-77714342D01*
X99087619Y-77714342D02*
X99040000Y-77809580D01*
X99040000Y-77809580D02*
X98992381Y-77857200D01*
X98992381Y-77857200D02*
X98897143Y-77904819D01*
X98897143Y-77904819D02*
X98754286Y-77904819D01*
X99516191Y-77904819D02*
X99516191Y-77238152D01*
X99516191Y-77333390D02*
X99563810Y-77285771D01*
X99563810Y-77285771D02*
X99659048Y-77238152D01*
X99659048Y-77238152D02*
X99801905Y-77238152D01*
X99801905Y-77238152D02*
X99897143Y-77285771D01*
X99897143Y-77285771D02*
X99944762Y-77381009D01*
X99944762Y-77381009D02*
X99944762Y-77904819D01*
X99944762Y-77381009D02*
X99992381Y-77285771D01*
X99992381Y-77285771D02*
X100087619Y-77238152D01*
X100087619Y-77238152D02*
X100230476Y-77238152D01*
X100230476Y-77238152D02*
X100325715Y-77285771D01*
X100325715Y-77285771D02*
X100373334Y-77381009D01*
X100373334Y-77381009D02*
X100373334Y-77904819D01*
X100849524Y-77238152D02*
X100849524Y-78238152D01*
X100849524Y-77285771D02*
X100944762Y-77238152D01*
X100944762Y-77238152D02*
X101135238Y-77238152D01*
X101135238Y-77238152D02*
X101230476Y-77285771D01*
X101230476Y-77285771D02*
X101278095Y-77333390D01*
X101278095Y-77333390D02*
X101325714Y-77428628D01*
X101325714Y-77428628D02*
X101325714Y-77714342D01*
X101325714Y-77714342D02*
X101278095Y-77809580D01*
X101278095Y-77809580D02*
X101230476Y-77857200D01*
X101230476Y-77857200D02*
X101135238Y-77904819D01*
X101135238Y-77904819D02*
X100944762Y-77904819D01*
X100944762Y-77904819D02*
X100849524Y-77857200D01*
X101659048Y-76904819D02*
X102278095Y-76904819D01*
X102278095Y-76904819D02*
X101944762Y-77285771D01*
X101944762Y-77285771D02*
X102087619Y-77285771D01*
X102087619Y-77285771D02*
X102182857Y-77333390D01*
X102182857Y-77333390D02*
X102230476Y-77381009D01*
X102230476Y-77381009D02*
X102278095Y-77476247D01*
X102278095Y-77476247D02*
X102278095Y-77714342D01*
X102278095Y-77714342D02*
X102230476Y-77809580D01*
X102230476Y-77809580D02*
X102182857Y-77857200D01*
X102182857Y-77857200D02*
X102087619Y-77904819D01*
X102087619Y-77904819D02*
X101801905Y-77904819D01*
X101801905Y-77904819D02*
X101706667Y-77857200D01*
X101706667Y-77857200D02*
X101659048Y-77809580D01*
X63124819Y-71295237D02*
X63124819Y-70723809D01*
X64124819Y-71009523D02*
X63124819Y-71009523D01*
X63124819Y-70533332D02*
X64124819Y-70199999D01*
X64124819Y-70199999D02*
X63124819Y-69866666D01*
X64077200Y-69580951D02*
X64124819Y-69438094D01*
X64124819Y-69438094D02*
X64124819Y-69199999D01*
X64124819Y-69199999D02*
X64077200Y-69104761D01*
X64077200Y-69104761D02*
X64029580Y-69057142D01*
X64029580Y-69057142D02*
X63934342Y-69009523D01*
X63934342Y-69009523D02*
X63839104Y-69009523D01*
X63839104Y-69009523D02*
X63743866Y-69057142D01*
X63743866Y-69057142D02*
X63696247Y-69104761D01*
X63696247Y-69104761D02*
X63648628Y-69199999D01*
X63648628Y-69199999D02*
X63601009Y-69390475D01*
X63601009Y-69390475D02*
X63553390Y-69485713D01*
X63553390Y-69485713D02*
X63505771Y-69533332D01*
X63505771Y-69533332D02*
X63410533Y-69580951D01*
X63410533Y-69580951D02*
X63315295Y-69580951D01*
X63315295Y-69580951D02*
X63220057Y-69533332D01*
X63220057Y-69533332D02*
X63172438Y-69485713D01*
X63172438Y-69485713D02*
X63124819Y-69390475D01*
X63124819Y-69390475D02*
X63124819Y-69152380D01*
X63124819Y-69152380D02*
X63172438Y-69009523D01*
X64124819Y-68057142D02*
X64124819Y-68628570D01*
X64124819Y-68342856D02*
X63124819Y-68342856D01*
X63124819Y-68342856D02*
X63267676Y-68438094D01*
X63267676Y-68438094D02*
X63362914Y-68533332D01*
X63362914Y-68533332D02*
X63410533Y-68628570D01*
X63124819Y-67438094D02*
X63124819Y-67342856D01*
X63124819Y-67342856D02*
X63172438Y-67247618D01*
X63172438Y-67247618D02*
X63220057Y-67199999D01*
X63220057Y-67199999D02*
X63315295Y-67152380D01*
X63315295Y-67152380D02*
X63505771Y-67104761D01*
X63505771Y-67104761D02*
X63743866Y-67104761D01*
X63743866Y-67104761D02*
X63934342Y-67152380D01*
X63934342Y-67152380D02*
X64029580Y-67199999D01*
X64029580Y-67199999D02*
X64077200Y-67247618D01*
X64077200Y-67247618D02*
X64124819Y-67342856D01*
X64124819Y-67342856D02*
X64124819Y-67438094D01*
X64124819Y-67438094D02*
X64077200Y-67533332D01*
X64077200Y-67533332D02*
X64029580Y-67580951D01*
X64029580Y-67580951D02*
X63934342Y-67628570D01*
X63934342Y-67628570D02*
X63743866Y-67676189D01*
X63743866Y-67676189D02*
X63505771Y-67676189D01*
X63505771Y-67676189D02*
X63315295Y-67628570D01*
X63315295Y-67628570D02*
X63220057Y-67580951D01*
X63220057Y-67580951D02*
X63172438Y-67533332D01*
X63172438Y-67533332D02*
X63124819Y-67438094D01*
X63124819Y-66485713D02*
X63124819Y-66390475D01*
X63124819Y-66390475D02*
X63172438Y-66295237D01*
X63172438Y-66295237D02*
X63220057Y-66247618D01*
X63220057Y-66247618D02*
X63315295Y-66199999D01*
X63315295Y-66199999D02*
X63505771Y-66152380D01*
X63505771Y-66152380D02*
X63743866Y-66152380D01*
X63743866Y-66152380D02*
X63934342Y-66199999D01*
X63934342Y-66199999D02*
X64029580Y-66247618D01*
X64029580Y-66247618D02*
X64077200Y-66295237D01*
X64077200Y-66295237D02*
X64124819Y-66390475D01*
X64124819Y-66390475D02*
X64124819Y-66485713D01*
X64124819Y-66485713D02*
X64077200Y-66580951D01*
X64077200Y-66580951D02*
X64029580Y-66628570D01*
X64029580Y-66628570D02*
X63934342Y-66676189D01*
X63934342Y-66676189D02*
X63743866Y-66723808D01*
X63743866Y-66723808D02*
X63505771Y-66723808D01*
X63505771Y-66723808D02*
X63315295Y-66676189D01*
X63315295Y-66676189D02*
X63220057Y-66628570D01*
X63220057Y-66628570D02*
X63172438Y-66580951D01*
X63172438Y-66580951D02*
X63124819Y-66485713D01*
X64124819Y-65199999D02*
X64124819Y-65771427D01*
X64124819Y-65485713D02*
X63124819Y-65485713D01*
X63124819Y-65485713D02*
X63267676Y-65580951D01*
X63267676Y-65580951D02*
X63362914Y-65676189D01*
X63362914Y-65676189D02*
X63410533Y-65771427D01*
X61054819Y-58461904D02*
X60054819Y-58461904D01*
X61054819Y-57890476D02*
X60483390Y-58319047D01*
X60054819Y-57890476D02*
X60626247Y-58461904D01*
X64334819Y-50048095D02*
X64334819Y-49381429D01*
X64334819Y-49381429D02*
X65334819Y-50048095D01*
X65334819Y-50048095D02*
X65334819Y-49381429D01*
X65287200Y-48619524D02*
X65334819Y-48714762D01*
X65334819Y-48714762D02*
X65334819Y-48905238D01*
X65334819Y-48905238D02*
X65287200Y-49000476D01*
X65287200Y-49000476D02*
X65191961Y-49048095D01*
X65191961Y-49048095D02*
X64811009Y-49048095D01*
X64811009Y-49048095D02*
X64715771Y-49000476D01*
X64715771Y-49000476D02*
X64668152Y-48905238D01*
X64668152Y-48905238D02*
X64668152Y-48714762D01*
X64668152Y-48714762D02*
X64715771Y-48619524D01*
X64715771Y-48619524D02*
X64811009Y-48571905D01*
X64811009Y-48571905D02*
X64906247Y-48571905D01*
X64906247Y-48571905D02*
X65001485Y-49048095D01*
X64668152Y-48143333D02*
X65334819Y-48143333D01*
X64763390Y-48143333D02*
X64715771Y-48095714D01*
X64715771Y-48095714D02*
X64668152Y-48000476D01*
X64668152Y-48000476D02*
X64668152Y-47857619D01*
X64668152Y-47857619D02*
X64715771Y-47762381D01*
X64715771Y-47762381D02*
X64811009Y-47714762D01*
X64811009Y-47714762D02*
X65334819Y-47714762D01*
X65287200Y-46857619D02*
X65334819Y-46952857D01*
X65334819Y-46952857D02*
X65334819Y-47143333D01*
X65334819Y-47143333D02*
X65287200Y-47238571D01*
X65287200Y-47238571D02*
X65191961Y-47286190D01*
X65191961Y-47286190D02*
X64811009Y-47286190D01*
X64811009Y-47286190D02*
X64715771Y-47238571D01*
X64715771Y-47238571D02*
X64668152Y-47143333D01*
X64668152Y-47143333D02*
X64668152Y-46952857D01*
X64668152Y-46952857D02*
X64715771Y-46857619D01*
X64715771Y-46857619D02*
X64811009Y-46810000D01*
X64811009Y-46810000D02*
X64906247Y-46810000D01*
X64906247Y-46810000D02*
X65001485Y-47286190D01*
X65334819Y-46381428D02*
X64668152Y-46381428D01*
X64858628Y-46381428D02*
X64763390Y-46333809D01*
X64763390Y-46333809D02*
X64715771Y-46286190D01*
X64715771Y-46286190D02*
X64668152Y-46190952D01*
X64668152Y-46190952D02*
X64668152Y-46095714D01*
X65430057Y-46000476D02*
X65430057Y-45238571D01*
X65049104Y-45048094D02*
X65049104Y-44571904D01*
X65334819Y-45143332D02*
X64334819Y-44809999D01*
X64334819Y-44809999D02*
X65334819Y-44476666D01*
X65334819Y-43619523D02*
X65334819Y-44190951D01*
X65334819Y-43905237D02*
X64334819Y-43905237D01*
X64334819Y-43905237D02*
X64477676Y-44000475D01*
X64477676Y-44000475D02*
X64572914Y-44095713D01*
X64572914Y-44095713D02*
X64620533Y-44190951D01*
X65654819Y-50881904D02*
X64654819Y-50881904D01*
X65654819Y-50310476D02*
X65083390Y-50739047D01*
X64654819Y-50310476D02*
X65226247Y-50881904D01*
X121547619Y-60074819D02*
X121880952Y-61074819D01*
X121880952Y-61074819D02*
X122214285Y-60074819D01*
X122547619Y-61074819D02*
X122547619Y-60074819D01*
X122547619Y-60074819D02*
X122785714Y-60074819D01*
X122785714Y-60074819D02*
X122928571Y-60122438D01*
X122928571Y-60122438D02*
X123023809Y-60217676D01*
X123023809Y-60217676D02*
X123071428Y-60312914D01*
X123071428Y-60312914D02*
X123119047Y-60503390D01*
X123119047Y-60503390D02*
X123119047Y-60646247D01*
X123119047Y-60646247D02*
X123071428Y-60836723D01*
X123071428Y-60836723D02*
X123023809Y-60931961D01*
X123023809Y-60931961D02*
X122928571Y-61027200D01*
X122928571Y-61027200D02*
X122785714Y-61074819D01*
X122785714Y-61074819D02*
X122547619Y-61074819D01*
X123547619Y-61074819D02*
X123547619Y-60074819D01*
X123547619Y-60074819D02*
X123785714Y-60074819D01*
X123785714Y-60074819D02*
X123928571Y-60122438D01*
X123928571Y-60122438D02*
X124023809Y-60217676D01*
X124023809Y-60217676D02*
X124071428Y-60312914D01*
X124071428Y-60312914D02*
X124119047Y-60503390D01*
X124119047Y-60503390D02*
X124119047Y-60646247D01*
X124119047Y-60646247D02*
X124071428Y-60836723D01*
X124071428Y-60836723D02*
X124023809Y-60931961D01*
X124023809Y-60931961D02*
X123928571Y-61027200D01*
X123928571Y-61027200D02*
X123785714Y-61074819D01*
X123785714Y-61074819D02*
X123547619Y-61074819D01*
X124309524Y-61170057D02*
X125071428Y-61170057D01*
X125309524Y-61074819D02*
X125309524Y-60074819D01*
X125309524Y-60074819D02*
X125690476Y-60074819D01*
X125690476Y-60074819D02*
X125785714Y-60122438D01*
X125785714Y-60122438D02*
X125833333Y-60170057D01*
X125833333Y-60170057D02*
X125880952Y-60265295D01*
X125880952Y-60265295D02*
X125880952Y-60408152D01*
X125880952Y-60408152D02*
X125833333Y-60503390D01*
X125833333Y-60503390D02*
X125785714Y-60551009D01*
X125785714Y-60551009D02*
X125690476Y-60598628D01*
X125690476Y-60598628D02*
X125309524Y-60598628D01*
X126309524Y-61074819D02*
X126309524Y-60074819D01*
X126785714Y-61074819D02*
X126785714Y-60074819D01*
X126785714Y-60074819D02*
X127357142Y-61074819D01*
X127357142Y-61074819D02*
X127357142Y-60074819D01*
X128357142Y-61074819D02*
X127785714Y-61074819D01*
X128071428Y-61074819D02*
X128071428Y-60074819D01*
X128071428Y-60074819D02*
X127976190Y-60217676D01*
X127976190Y-60217676D02*
X127880952Y-60312914D01*
X127880952Y-60312914D02*
X127785714Y-60360533D01*
D11*
X87453365Y-89360713D02*
X87513842Y-89421189D01*
X87513842Y-89421189D02*
X87574318Y-89602618D01*
X87574318Y-89602618D02*
X87574318Y-89723570D01*
X87574318Y-89723570D02*
X87513842Y-89904999D01*
X87513842Y-89904999D02*
X87392889Y-90025951D01*
X87392889Y-90025951D02*
X87271937Y-90086428D01*
X87271937Y-90086428D02*
X87030032Y-90146904D01*
X87030032Y-90146904D02*
X86848603Y-90146904D01*
X86848603Y-90146904D02*
X86606699Y-90086428D01*
X86606699Y-90086428D02*
X86485746Y-90025951D01*
X86485746Y-90025951D02*
X86364794Y-89904999D01*
X86364794Y-89904999D02*
X86304318Y-89723570D01*
X86304318Y-89723570D02*
X86304318Y-89602618D01*
X86304318Y-89602618D02*
X86364794Y-89421189D01*
X86364794Y-89421189D02*
X86425270Y-89360713D01*
X87695270Y-89118809D02*
X87695270Y-88151189D01*
X87574318Y-87848809D02*
X86304318Y-87848809D01*
X86909080Y-87848809D02*
X86909080Y-87123094D01*
X87574318Y-87123094D02*
X86304318Y-87123094D01*
X86727651Y-85974047D02*
X87574318Y-85974047D01*
X86243842Y-86276428D02*
X87150984Y-86578809D01*
X87150984Y-86578809D02*
X87150984Y-85792618D01*
D10*
X65084819Y-60166190D02*
X64608628Y-60499523D01*
X65084819Y-60737618D02*
X64084819Y-60737618D01*
X64084819Y-60737618D02*
X64084819Y-60356666D01*
X64084819Y-60356666D02*
X64132438Y-60261428D01*
X64132438Y-60261428D02*
X64180057Y-60213809D01*
X64180057Y-60213809D02*
X64275295Y-60166190D01*
X64275295Y-60166190D02*
X64418152Y-60166190D01*
X64418152Y-60166190D02*
X64513390Y-60213809D01*
X64513390Y-60213809D02*
X64561009Y-60261428D01*
X64561009Y-60261428D02*
X64608628Y-60356666D01*
X64608628Y-60356666D02*
X64608628Y-60737618D01*
X65180057Y-59975714D02*
X65180057Y-59213809D01*
X64799104Y-59023332D02*
X64799104Y-58547142D01*
X65084819Y-59118570D02*
X64084819Y-58785237D01*
X64084819Y-58785237D02*
X65084819Y-58451904D01*
X65084819Y-57594761D02*
X65084819Y-58166189D01*
X65084819Y-57880475D02*
X64084819Y-57880475D01*
X64084819Y-57880475D02*
X64227676Y-57975713D01*
X64227676Y-57975713D02*
X64322914Y-58070951D01*
X64322914Y-58070951D02*
X64370533Y-58166189D01*
D11*
X72453365Y-50360713D02*
X72513842Y-50421189D01*
X72513842Y-50421189D02*
X72574318Y-50602618D01*
X72574318Y-50602618D02*
X72574318Y-50723570D01*
X72574318Y-50723570D02*
X72513842Y-50904999D01*
X72513842Y-50904999D02*
X72392889Y-51025951D01*
X72392889Y-51025951D02*
X72271937Y-51086428D01*
X72271937Y-51086428D02*
X72030032Y-51146904D01*
X72030032Y-51146904D02*
X71848603Y-51146904D01*
X71848603Y-51146904D02*
X71606699Y-51086428D01*
X71606699Y-51086428D02*
X71485746Y-51025951D01*
X71485746Y-51025951D02*
X71364794Y-50904999D01*
X71364794Y-50904999D02*
X71304318Y-50723570D01*
X71304318Y-50723570D02*
X71304318Y-50602618D01*
X71304318Y-50602618D02*
X71364794Y-50421189D01*
X71364794Y-50421189D02*
X71425270Y-50360713D01*
X72695270Y-50118809D02*
X72695270Y-49151189D01*
X72574318Y-48848809D02*
X71304318Y-48848809D01*
X71909080Y-48848809D02*
X71909080Y-48123094D01*
X72574318Y-48123094D02*
X71304318Y-48123094D01*
X72574318Y-46853094D02*
X72574318Y-47578809D01*
X72574318Y-47215952D02*
X71304318Y-47215952D01*
X71304318Y-47215952D02*
X71485746Y-47336904D01*
X71485746Y-47336904D02*
X71606699Y-47457856D01*
X71606699Y-47457856D02*
X71667175Y-47578809D01*
D10*
X61438095Y-51006819D02*
X62009523Y-51006819D01*
X61723809Y-52006819D02*
X61723809Y-51006819D01*
X62342857Y-52006819D02*
X62342857Y-51006819D01*
X62342857Y-51006819D02*
X62723809Y-51006819D01*
X62723809Y-51006819D02*
X62819047Y-51054438D01*
X62819047Y-51054438D02*
X62866666Y-51102057D01*
X62866666Y-51102057D02*
X62914285Y-51197295D01*
X62914285Y-51197295D02*
X62914285Y-51340152D01*
X62914285Y-51340152D02*
X62866666Y-51435390D01*
X62866666Y-51435390D02*
X62819047Y-51483009D01*
X62819047Y-51483009D02*
X62723809Y-51530628D01*
X62723809Y-51530628D02*
X62342857Y-51530628D01*
X63866666Y-52006819D02*
X63295238Y-52006819D01*
X63580952Y-52006819D02*
X63580952Y-51006819D01*
X63580952Y-51006819D02*
X63485714Y-51149676D01*
X63485714Y-51149676D02*
X63390476Y-51244914D01*
X63390476Y-51244914D02*
X63295238Y-51292533D01*
D13*
%TO.C,R_B1*%
X75630000Y-55920000D02*
X75960000Y-55920000D01*
X75630000Y-62460000D02*
X75630000Y-55920000D01*
X75960000Y-62460000D02*
X75630000Y-62460000D01*
X78040000Y-62460000D02*
X78370000Y-62460000D01*
X78370000Y-55920000D02*
X78040000Y-55920000D01*
X78370000Y-62460000D02*
X78370000Y-55920000D01*
D14*
%TO.C,C_H3*%
X74500000Y-89000000D02*
G75*
G02*
X69500000Y-89000000I-2500000J0D01*
G01*
X69500000Y-89000000D02*
G75*
G02*
X74500000Y-89000000I2500000J0D01*
G01*
%TO.C,IC1*%
X90200000Y-43510000D02*
X90200000Y-50110000D01*
X99800000Y-42420000D02*
X99800000Y-50110000D01*
D13*
%TO.C,TP9*%
X100650000Y-64800000D02*
X102050000Y-64800000D01*
X100650000Y-66200000D02*
X100650000Y-64800000D01*
X102050000Y-64800000D02*
X102050000Y-66200000D01*
X102050000Y-66200000D02*
X100650000Y-66200000D01*
%TO.C,TP6*%
X71300000Y-76920000D02*
X72700000Y-76920000D01*
X71300000Y-78320000D02*
X71300000Y-76920000D01*
X72700000Y-76920000D02*
X72700000Y-78320000D01*
X72700000Y-78320000D02*
X71300000Y-78320000D01*
%TO.C,R_B6*%
X75630000Y-82920000D02*
X75630000Y-89460000D01*
X75630000Y-89460000D02*
X75960000Y-89460000D01*
X75960000Y-82920000D02*
X75630000Y-82920000D01*
X78040000Y-82920000D02*
X78370000Y-82920000D01*
X78370000Y-82920000D02*
X78370000Y-89460000D01*
X78370000Y-89460000D02*
X78040000Y-89460000D01*
%TO.C,R_B5*%
X75630000Y-70540000D02*
X75630000Y-77080000D01*
X75630000Y-77080000D02*
X75960000Y-77080000D01*
X75960000Y-70540000D02*
X75630000Y-70540000D01*
X78040000Y-70540000D02*
X78370000Y-70540000D01*
X78370000Y-70540000D02*
X78370000Y-77080000D01*
X78370000Y-77080000D02*
X78040000Y-77080000D01*
%TO.C,R_B3*%
X81080000Y-62380000D02*
X81080000Y-58540000D01*
X82920000Y-62380000D02*
X82920000Y-58540000D01*
%TO.C,D1*%
X104330000Y-48330000D02*
X104330000Y-57670000D01*
X104330000Y-56065000D02*
X113670000Y-56065000D01*
X104330000Y-56185000D02*
X113670000Y-56185000D01*
X104330000Y-56305000D02*
X113670000Y-56305000D01*
X104330000Y-57670000D02*
X113670000Y-57670000D01*
X109000000Y-44840000D02*
X109000000Y-48330000D01*
X109000000Y-61160000D02*
X109000000Y-57670000D01*
X113670000Y-48330000D02*
X104330000Y-48330000D01*
X113670000Y-57670000D02*
X113670000Y-48330000D01*
%TO.C,TP8*%
X117800000Y-89300000D02*
X119200000Y-89300000D01*
X117800000Y-90700000D02*
X117800000Y-89300000D01*
X119200000Y-89300000D02*
X119200000Y-90700000D01*
X119200000Y-90700000D02*
X117800000Y-90700000D01*
D14*
%TO.C,IC2*%
X90200000Y-90580000D02*
X90200000Y-82890000D01*
X99800000Y-89490000D02*
X99800000Y-82890000D01*
D13*
%TO.C,NMOS_2*%
X116229000Y-49420000D02*
X116229000Y-59660000D01*
X119360000Y-49420000D02*
X119360000Y-59660000D01*
X120870000Y-49420000D02*
X116229000Y-49420000D01*
X120870000Y-49420000D02*
X120870000Y-59660000D01*
X120870000Y-52690000D02*
X119360000Y-52690000D01*
X120870000Y-56391000D02*
X119360000Y-56391000D01*
X120870000Y-59660000D02*
X116229000Y-59660000D01*
%TO.C,TP10*%
X100650000Y-67900000D02*
X102050000Y-67900000D01*
X100650000Y-69300000D02*
X100650000Y-67900000D01*
X102050000Y-67900000D02*
X102050000Y-69300000D01*
X102050000Y-69300000D02*
X100650000Y-69300000D01*
D14*
%TO.C,C_H2*%
X89500000Y-44000000D02*
G75*
G02*
X84500000Y-44000000I-2500000J0D01*
G01*
X84500000Y-44000000D02*
G75*
G02*
X89500000Y-44000000I2500000J0D01*
G01*
D13*
%TO.C,R_B7*%
X81080000Y-70620000D02*
X81080000Y-74460000D01*
X82920000Y-70620000D02*
X82920000Y-74460000D01*
%TO.C,TP4*%
X108300000Y-37400000D02*
X109700000Y-37400000D01*
X108300000Y-38800000D02*
X108300000Y-37400000D01*
X109700000Y-37400000D02*
X109700000Y-38800000D01*
X109700000Y-38800000D02*
X108300000Y-38800000D01*
%TO.C,D2*%
X104330000Y-75330000D02*
X104330000Y-84670000D01*
X104330000Y-84670000D02*
X113670000Y-84670000D01*
X109000000Y-71840000D02*
X109000000Y-75330000D01*
X109000000Y-88160000D02*
X109000000Y-84670000D01*
X113670000Y-75330000D02*
X104330000Y-75330000D01*
X113670000Y-76695000D02*
X104330000Y-76695000D01*
X113670000Y-76815000D02*
X104330000Y-76815000D01*
X113670000Y-76935000D02*
X104330000Y-76935000D01*
X113670000Y-84670000D02*
X113670000Y-75330000D01*
%TO.C,R_A2*%
X65630000Y-70540000D02*
X65630000Y-77080000D01*
X65630000Y-77080000D02*
X65960000Y-77080000D01*
X65960000Y-70540000D02*
X65630000Y-70540000D01*
X68040000Y-70540000D02*
X68370000Y-70540000D01*
X68370000Y-70540000D02*
X68370000Y-77080000D01*
X68370000Y-77080000D02*
X68040000Y-77080000D01*
%TO.C,TP3*%
X84300000Y-64800000D02*
X85700000Y-64800000D01*
X84300000Y-66200000D02*
X84300000Y-64800000D01*
X85700000Y-64800000D02*
X85700000Y-66200000D01*
X85700000Y-66200000D02*
X84300000Y-66200000D01*
%TO.C,TP5*%
X62000000Y-81700000D02*
X63400000Y-81700000D01*
X62000000Y-83100000D02*
X62000000Y-81700000D01*
X63400000Y-81700000D02*
X63400000Y-83100000D01*
X63400000Y-83100000D02*
X62000000Y-83100000D01*
%TO.C,OUTPUT+2*%
X123620000Y-66320000D02*
X125000000Y-66320000D01*
X123620000Y-67700000D02*
X123620000Y-66320000D01*
X123620000Y-68970000D02*
X123620000Y-69080000D01*
X123620000Y-68970000D02*
X126380000Y-68970000D01*
X123620000Y-69080000D02*
X126380000Y-69080000D01*
X126380000Y-68970000D02*
X126380000Y-69080000D01*
%TO.C,TP2*%
X71300000Y-54800000D02*
X72700000Y-54800000D01*
X71300000Y-56200000D02*
X71300000Y-54800000D01*
X72700000Y-54800000D02*
X72700000Y-56200000D01*
X72700000Y-56200000D02*
X71300000Y-56200000D01*
%TO.C,GNT_PIN1*%
X123620000Y-76220000D02*
X125000000Y-76220000D01*
X123620000Y-77600000D02*
X123620000Y-76220000D01*
X123620000Y-78870000D02*
X123620000Y-78980000D01*
X123620000Y-78870000D02*
X126380000Y-78870000D01*
X123620000Y-78980000D02*
X126380000Y-78980000D01*
X126380000Y-78870000D02*
X126380000Y-78980000D01*
%TO.C,OUTPUT+1*%
X123620000Y-55620000D02*
X125000000Y-55620000D01*
X123620000Y-57000000D02*
X123620000Y-55620000D01*
X123620000Y-58270000D02*
X123620000Y-58380000D01*
X123620000Y-58270000D02*
X126380000Y-58270000D01*
X123620000Y-58380000D02*
X126380000Y-58380000D01*
X126380000Y-58270000D02*
X126380000Y-58380000D01*
%TO.C,R_B4*%
X85620000Y-57000000D02*
X89460000Y-57000000D01*
X85620000Y-58840000D02*
X89460000Y-58840000D01*
%TO.C,R_out_comp2*%
X94270000Y-56550000D02*
X94270000Y-56880000D01*
X94270000Y-59290000D02*
X94270000Y-58960000D01*
X100810000Y-56550000D02*
X94270000Y-56550000D01*
X100810000Y-56880000D02*
X100810000Y-56550000D01*
X100810000Y-58960000D02*
X100810000Y-59290000D01*
X100810000Y-59290000D02*
X94270000Y-59290000D01*
%TO.C,OUTPUT-1*%
X123620000Y-50620000D02*
X125000000Y-50620000D01*
X123620000Y-52000000D02*
X123620000Y-50620000D01*
X123620000Y-53270000D02*
X123620000Y-53380000D01*
X123620000Y-53270000D02*
X126380000Y-53270000D01*
X123620000Y-53380000D02*
X126380000Y-53380000D01*
X126380000Y-53270000D02*
X126380000Y-53380000D01*
%TO.C,Zener_H1*%
X80880000Y-44690000D02*
X80880000Y-48930000D01*
X80880000Y-48090000D02*
X83120000Y-48090000D01*
X80880000Y-48210000D02*
X83120000Y-48210000D01*
X80880000Y-48330000D02*
X83120000Y-48330000D01*
X80880000Y-48930000D02*
X83120000Y-48930000D01*
X82000000Y-44040000D02*
X82000000Y-44690000D01*
X82000000Y-49580000D02*
X82000000Y-48930000D01*
X83120000Y-44690000D02*
X80880000Y-44690000D01*
X83120000Y-48930000D02*
X83120000Y-44690000D01*
%TO.C,OUTPUT-2*%
X123620000Y-70920000D02*
X125000000Y-70920000D01*
X123620000Y-72300000D02*
X123620000Y-70920000D01*
X123620000Y-73570000D02*
X123620000Y-73680000D01*
X123620000Y-73570000D02*
X126380000Y-73570000D01*
X123620000Y-73680000D02*
X126380000Y-73680000D01*
X126380000Y-73570000D02*
X126380000Y-73680000D01*
%TO.C,TP7*%
X84300000Y-67900000D02*
X85700000Y-67900000D01*
X84300000Y-69300000D02*
X84300000Y-67900000D01*
X85700000Y-67900000D02*
X85700000Y-69300000D01*
X85700000Y-69300000D02*
X84300000Y-69300000D01*
%TO.C,Zener_H2*%
X80880000Y-84070000D02*
X80880000Y-88310000D01*
X80880000Y-88310000D02*
X83120000Y-88310000D01*
X82000000Y-83420000D02*
X82000000Y-84070000D01*
X82000000Y-88960000D02*
X82000000Y-88310000D01*
X83120000Y-84070000D02*
X80880000Y-84070000D01*
X83120000Y-84670000D02*
X80880000Y-84670000D01*
X83120000Y-84790000D02*
X80880000Y-84790000D01*
X83120000Y-84910000D02*
X80880000Y-84910000D01*
X83120000Y-88310000D02*
X83120000Y-84070000D01*
%TO.C,R_B8*%
X85620000Y-74160000D02*
X89460000Y-74160000D01*
X85620000Y-76000000D02*
X89460000Y-76000000D01*
%TO.C,Zener_A2*%
X65880000Y-84070000D02*
X65880000Y-88310000D01*
X65880000Y-88310000D02*
X68120000Y-88310000D01*
X67000000Y-83420000D02*
X67000000Y-84070000D01*
X67000000Y-88960000D02*
X67000000Y-88310000D01*
X68120000Y-84070000D02*
X65880000Y-84070000D01*
X68120000Y-84670000D02*
X65880000Y-84670000D01*
X68120000Y-84790000D02*
X65880000Y-84790000D01*
X68120000Y-84910000D02*
X65880000Y-84910000D01*
X68120000Y-88310000D02*
X68120000Y-84070000D01*
%TO.C,R_B2*%
X75630000Y-43540000D02*
X75960000Y-43540000D01*
X75630000Y-50080000D02*
X75630000Y-43540000D01*
X75960000Y-50080000D02*
X75630000Y-50080000D01*
X78040000Y-50080000D02*
X78370000Y-50080000D01*
X78370000Y-43540000D02*
X78040000Y-43540000D01*
X78370000Y-50080000D02*
X78370000Y-43540000D01*
%TO.C,NMOS_3*%
X116229000Y-73420000D02*
X116229000Y-83660000D01*
X119360000Y-73420000D02*
X119360000Y-83660000D01*
X120870000Y-73420000D02*
X116229000Y-73420000D01*
X120870000Y-73420000D02*
X120870000Y-83660000D01*
X120870000Y-76690000D02*
X119360000Y-76690000D01*
X120870000Y-80391000D02*
X119360000Y-80391000D01*
X120870000Y-83660000D02*
X116229000Y-83660000D01*
%TO.C,R_out_comp3*%
X94270000Y-73710000D02*
X94270000Y-74040000D01*
X94270000Y-76450000D02*
X94270000Y-76120000D01*
X100810000Y-73710000D02*
X94270000Y-73710000D01*
X100810000Y-74040000D02*
X100810000Y-73710000D01*
X100810000Y-76120000D02*
X100810000Y-76450000D01*
X100810000Y-76450000D02*
X94270000Y-76450000D01*
%TO.C,TVS1001*%
X53330000Y-63530000D02*
X53330000Y-72870000D01*
X53330000Y-72870000D02*
X62670000Y-72870000D01*
X58000000Y-60040000D02*
X58000000Y-63530000D01*
X58000000Y-76360000D02*
X58000000Y-72870000D01*
X62670000Y-63530000D02*
X53330000Y-63530000D01*
X62670000Y-64895000D02*
X53330000Y-64895000D01*
X62670000Y-65015000D02*
X53330000Y-65015000D01*
X62670000Y-65135000D02*
X53330000Y-65135000D01*
X62670000Y-72870000D02*
X62670000Y-63530000D01*
%TO.C,Zener_A1*%
X65880000Y-44690000D02*
X65880000Y-48930000D01*
X65880000Y-48090000D02*
X68120000Y-48090000D01*
X65880000Y-48210000D02*
X68120000Y-48210000D01*
X65880000Y-48330000D02*
X68120000Y-48330000D01*
X65880000Y-48930000D02*
X68120000Y-48930000D01*
X67000000Y-44040000D02*
X67000000Y-44690000D01*
X67000000Y-49580000D02*
X67000000Y-48930000D01*
X68120000Y-44690000D02*
X65880000Y-44690000D01*
X68120000Y-48930000D02*
X68120000Y-44690000D01*
%TO.C,VDD_PIN1*%
X123620000Y-61620000D02*
X125000000Y-61620000D01*
X123620000Y-63000000D02*
X123620000Y-61620000D01*
X123620000Y-64270000D02*
X123620000Y-64380000D01*
X123620000Y-64270000D02*
X126380000Y-64270000D01*
X123620000Y-64380000D02*
X126380000Y-64380000D01*
X126380000Y-64270000D02*
X126380000Y-64380000D01*
D14*
%TO.C,C_H4*%
X89500000Y-89000000D02*
G75*
G02*
X84500000Y-89000000I-2500000J0D01*
G01*
X84500000Y-89000000D02*
G75*
G02*
X89500000Y-89000000I2500000J0D01*
G01*
D13*
%TO.C,R_A1*%
X65630000Y-55920000D02*
X65960000Y-55920000D01*
X65630000Y-62460000D02*
X65630000Y-55920000D01*
X65960000Y-62460000D02*
X65630000Y-62460000D01*
X68040000Y-62460000D02*
X68370000Y-62460000D01*
X68370000Y-55920000D02*
X68040000Y-55920000D01*
X68370000Y-62460000D02*
X68370000Y-55920000D01*
D14*
%TO.C,C_H1*%
X74500000Y-44000000D02*
G75*
G02*
X69500000Y-44000000I-2500000J0D01*
G01*
X69500000Y-44000000D02*
G75*
G02*
X74500000Y-44000000I2500000J0D01*
G01*
D13*
%TO.C,TP1*%
X62000000Y-52300000D02*
X63400000Y-52300000D01*
X62000000Y-53700000D02*
X62000000Y-52300000D01*
X63400000Y-52300000D02*
X63400000Y-53700000D01*
X63400000Y-53700000D02*
X62000000Y-53700000D01*
%TD*%
M02*
