%TF.GenerationSoftware,KiCad,Pcbnew,9.0.1*%
%TF.CreationDate,2025-06-15T18:00:24+03:00*%
%TF.ProjectId,pcb_no_div,7063625f-6e6f-45f6-9469-762e6b696361,rev?*%
%TF.SameCoordinates,Original*%
%TF.FileFunction,Drillmap*%
%TF.FilePolarity,Positive*%
%FSLAX45Y45*%
G04 Gerber Fmt 4.5, Leading zero omitted, Abs format (unit mm)*
G04 Created by KiCad (PCBNEW 9.0.1) date 2025-06-15 18:00:24*
%MOMM*%
%LPD*%
G01*
G04 APERTURE LIST*
%ADD10C,0.038100*%
%ADD11C,0.200000*%
%ADD12C,0.350000*%
G04 APERTURE END LIST*
D10*
X13030000Y-3005000D02*
X13010000Y-10990000D01*
X3775000Y-3005000D02*
X3765000Y-10990000D01*
X13010000Y-10990000D02*
X3765000Y-10990000D01*
X13030000Y-3005000D02*
X3775000Y-3005000D01*
D11*
D12*
X4400000Y-3330000D02*
X4750000Y-3680000D01*
X4750000Y-3330000D02*
X4400000Y-3680000D01*
X4400000Y-10315000D02*
X4750000Y-10665000D01*
X4750000Y-10315000D02*
X4400000Y-10665000D01*
X12040000Y-3330000D02*
X12390000Y-3680000D01*
X12390000Y-3330000D02*
X12040000Y-3680000D01*
X12040000Y-10315000D02*
X12390000Y-10665000D01*
X12390000Y-10315000D02*
X12040000Y-10665000D01*
D11*
X4023872Y-11303389D02*
X4023872Y-11103389D01*
X4023872Y-11103389D02*
X4071491Y-11103389D01*
X4071491Y-11103389D02*
X4100062Y-11112913D01*
X4100062Y-11112913D02*
X4119110Y-11131960D01*
X4119110Y-11131960D02*
X4128634Y-11151008D01*
X4128634Y-11151008D02*
X4138157Y-11189103D01*
X4138157Y-11189103D02*
X4138157Y-11217674D01*
X4138157Y-11217674D02*
X4128634Y-11255770D01*
X4128634Y-11255770D02*
X4119110Y-11274817D01*
X4119110Y-11274817D02*
X4100062Y-11293865D01*
X4100062Y-11293865D02*
X4071491Y-11303389D01*
X4071491Y-11303389D02*
X4023872Y-11303389D01*
X4223872Y-11303389D02*
X4223872Y-11170055D01*
X4223872Y-11208151D02*
X4233396Y-11189103D01*
X4233396Y-11189103D02*
X4242919Y-11179579D01*
X4242919Y-11179579D02*
X4261967Y-11170055D01*
X4261967Y-11170055D02*
X4281015Y-11170055D01*
X4347681Y-11303389D02*
X4347681Y-11170055D01*
X4347681Y-11103389D02*
X4338158Y-11112913D01*
X4338158Y-11112913D02*
X4347681Y-11122436D01*
X4347681Y-11122436D02*
X4357205Y-11112913D01*
X4357205Y-11112913D02*
X4347681Y-11103389D01*
X4347681Y-11103389D02*
X4347681Y-11122436D01*
X4471491Y-11303389D02*
X4452443Y-11293865D01*
X4452443Y-11293865D02*
X4442919Y-11274817D01*
X4442919Y-11274817D02*
X4442919Y-11103389D01*
X4576253Y-11303389D02*
X4557205Y-11293865D01*
X4557205Y-11293865D02*
X4547681Y-11274817D01*
X4547681Y-11274817D02*
X4547681Y-11103389D01*
X4804824Y-11303389D02*
X4804824Y-11103389D01*
X4804824Y-11103389D02*
X4871491Y-11246246D01*
X4871491Y-11246246D02*
X4938158Y-11103389D01*
X4938158Y-11103389D02*
X4938158Y-11303389D01*
X5119110Y-11303389D02*
X5119110Y-11198627D01*
X5119110Y-11198627D02*
X5109586Y-11179579D01*
X5109586Y-11179579D02*
X5090539Y-11170055D01*
X5090539Y-11170055D02*
X5052443Y-11170055D01*
X5052443Y-11170055D02*
X5033396Y-11179579D01*
X5119110Y-11293865D02*
X5100062Y-11303389D01*
X5100062Y-11303389D02*
X5052443Y-11303389D01*
X5052443Y-11303389D02*
X5033396Y-11293865D01*
X5033396Y-11293865D02*
X5023872Y-11274817D01*
X5023872Y-11274817D02*
X5023872Y-11255770D01*
X5023872Y-11255770D02*
X5033396Y-11236722D01*
X5033396Y-11236722D02*
X5052443Y-11227198D01*
X5052443Y-11227198D02*
X5100062Y-11227198D01*
X5100062Y-11227198D02*
X5119110Y-11217674D01*
X5214348Y-11170055D02*
X5214348Y-11370055D01*
X5214348Y-11179579D02*
X5233396Y-11170055D01*
X5233396Y-11170055D02*
X5271491Y-11170055D01*
X5271491Y-11170055D02*
X5290539Y-11179579D01*
X5290539Y-11179579D02*
X5300062Y-11189103D01*
X5300062Y-11189103D02*
X5309586Y-11208151D01*
X5309586Y-11208151D02*
X5309586Y-11265293D01*
X5309586Y-11265293D02*
X5300062Y-11284341D01*
X5300062Y-11284341D02*
X5290539Y-11293865D01*
X5290539Y-11293865D02*
X5271491Y-11303389D01*
X5271491Y-11303389D02*
X5233396Y-11303389D01*
X5233396Y-11303389D02*
X5214348Y-11293865D01*
X5395300Y-11284341D02*
X5404824Y-11293865D01*
X5404824Y-11293865D02*
X5395300Y-11303389D01*
X5395300Y-11303389D02*
X5385777Y-11293865D01*
X5385777Y-11293865D02*
X5395300Y-11284341D01*
X5395300Y-11284341D02*
X5395300Y-11303389D01*
X5395300Y-11179579D02*
X5404824Y-11189103D01*
X5404824Y-11189103D02*
X5395300Y-11198627D01*
X5395300Y-11198627D02*
X5385777Y-11189103D01*
X5385777Y-11189103D02*
X5395300Y-11179579D01*
X5395300Y-11179579D02*
X5395300Y-11198627D01*
X3563095Y-11531905D02*
X3763095Y-11731905D01*
X3763095Y-11531905D02*
X3563095Y-11731905D01*
X4004824Y-11523389D02*
X4128634Y-11523389D01*
X4128634Y-11523389D02*
X4061967Y-11599579D01*
X4061967Y-11599579D02*
X4090538Y-11599579D01*
X4090538Y-11599579D02*
X4109586Y-11609103D01*
X4109586Y-11609103D02*
X4119110Y-11618627D01*
X4119110Y-11618627D02*
X4128634Y-11637674D01*
X4128634Y-11637674D02*
X4128634Y-11685293D01*
X4128634Y-11685293D02*
X4119110Y-11704341D01*
X4119110Y-11704341D02*
X4109586Y-11713865D01*
X4109586Y-11713865D02*
X4090538Y-11723389D01*
X4090538Y-11723389D02*
X4033396Y-11723389D01*
X4033396Y-11723389D02*
X4014348Y-11713865D01*
X4014348Y-11713865D02*
X4004824Y-11704341D01*
X4214348Y-11704341D02*
X4223872Y-11713865D01*
X4223872Y-11713865D02*
X4214348Y-11723389D01*
X4214348Y-11723389D02*
X4204824Y-11713865D01*
X4204824Y-11713865D02*
X4214348Y-11704341D01*
X4214348Y-11704341D02*
X4214348Y-11723389D01*
X4404824Y-11523389D02*
X4309586Y-11523389D01*
X4309586Y-11523389D02*
X4300062Y-11618627D01*
X4300062Y-11618627D02*
X4309586Y-11609103D01*
X4309586Y-11609103D02*
X4328634Y-11599579D01*
X4328634Y-11599579D02*
X4376253Y-11599579D01*
X4376253Y-11599579D02*
X4395300Y-11609103D01*
X4395300Y-11609103D02*
X4404824Y-11618627D01*
X4404824Y-11618627D02*
X4414348Y-11637674D01*
X4414348Y-11637674D02*
X4414348Y-11685293D01*
X4414348Y-11685293D02*
X4404824Y-11704341D01*
X4404824Y-11704341D02*
X4395300Y-11713865D01*
X4395300Y-11713865D02*
X4376253Y-11723389D01*
X4376253Y-11723389D02*
X4328634Y-11723389D01*
X4328634Y-11723389D02*
X4309586Y-11713865D01*
X4309586Y-11713865D02*
X4300062Y-11704341D01*
X4538158Y-11523389D02*
X4557205Y-11523389D01*
X4557205Y-11523389D02*
X4576253Y-11532913D01*
X4576253Y-11532913D02*
X4585777Y-11542436D01*
X4585777Y-11542436D02*
X4595300Y-11561484D01*
X4595300Y-11561484D02*
X4604824Y-11599579D01*
X4604824Y-11599579D02*
X4604824Y-11647198D01*
X4604824Y-11647198D02*
X4595300Y-11685293D01*
X4595300Y-11685293D02*
X4585777Y-11704341D01*
X4585777Y-11704341D02*
X4576253Y-11713865D01*
X4576253Y-11713865D02*
X4557205Y-11723389D01*
X4557205Y-11723389D02*
X4538158Y-11723389D01*
X4538158Y-11723389D02*
X4519110Y-11713865D01*
X4519110Y-11713865D02*
X4509586Y-11704341D01*
X4509586Y-11704341D02*
X4500062Y-11685293D01*
X4500062Y-11685293D02*
X4490539Y-11647198D01*
X4490539Y-11647198D02*
X4490539Y-11599579D01*
X4490539Y-11599579D02*
X4500062Y-11561484D01*
X4500062Y-11561484D02*
X4509586Y-11542436D01*
X4509586Y-11542436D02*
X4519110Y-11532913D01*
X4519110Y-11532913D02*
X4538158Y-11523389D01*
X4728634Y-11523389D02*
X4747681Y-11523389D01*
X4747681Y-11523389D02*
X4766729Y-11532913D01*
X4766729Y-11532913D02*
X4776253Y-11542436D01*
X4776253Y-11542436D02*
X4785777Y-11561484D01*
X4785777Y-11561484D02*
X4795300Y-11599579D01*
X4795300Y-11599579D02*
X4795300Y-11647198D01*
X4795300Y-11647198D02*
X4785777Y-11685293D01*
X4785777Y-11685293D02*
X4776253Y-11704341D01*
X4776253Y-11704341D02*
X4766729Y-11713865D01*
X4766729Y-11713865D02*
X4747681Y-11723389D01*
X4747681Y-11723389D02*
X4728634Y-11723389D01*
X4728634Y-11723389D02*
X4709586Y-11713865D01*
X4709586Y-11713865D02*
X4700062Y-11704341D01*
X4700062Y-11704341D02*
X4690539Y-11685293D01*
X4690539Y-11685293D02*
X4681015Y-11647198D01*
X4681015Y-11647198D02*
X4681015Y-11599579D01*
X4681015Y-11599579D02*
X4690539Y-11561484D01*
X4690539Y-11561484D02*
X4700062Y-11542436D01*
X4700062Y-11542436D02*
X4709586Y-11532913D01*
X4709586Y-11532913D02*
X4728634Y-11523389D01*
X4881015Y-11723389D02*
X4881015Y-11590055D01*
X4881015Y-11609103D02*
X4890539Y-11599579D01*
X4890539Y-11599579D02*
X4909586Y-11590055D01*
X4909586Y-11590055D02*
X4938158Y-11590055D01*
X4938158Y-11590055D02*
X4957205Y-11599579D01*
X4957205Y-11599579D02*
X4966729Y-11618627D01*
X4966729Y-11618627D02*
X4966729Y-11723389D01*
X4966729Y-11618627D02*
X4976253Y-11599579D01*
X4976253Y-11599579D02*
X4995300Y-11590055D01*
X4995300Y-11590055D02*
X5023872Y-11590055D01*
X5023872Y-11590055D02*
X5042920Y-11599579D01*
X5042920Y-11599579D02*
X5052443Y-11618627D01*
X5052443Y-11618627D02*
X5052443Y-11723389D01*
X5147681Y-11723389D02*
X5147681Y-11590055D01*
X5147681Y-11609103D02*
X5157205Y-11599579D01*
X5157205Y-11599579D02*
X5176253Y-11590055D01*
X5176253Y-11590055D02*
X5204824Y-11590055D01*
X5204824Y-11590055D02*
X5223872Y-11599579D01*
X5223872Y-11599579D02*
X5233396Y-11618627D01*
X5233396Y-11618627D02*
X5233396Y-11723389D01*
X5233396Y-11618627D02*
X5242920Y-11599579D01*
X5242920Y-11599579D02*
X5261967Y-11590055D01*
X5261967Y-11590055D02*
X5290539Y-11590055D01*
X5290539Y-11590055D02*
X5309586Y-11599579D01*
X5309586Y-11599579D02*
X5319110Y-11618627D01*
X5319110Y-11618627D02*
X5319110Y-11723389D01*
X5709586Y-11513865D02*
X5538158Y-11771008D01*
X5966729Y-11523389D02*
X5985777Y-11523389D01*
X5985777Y-11523389D02*
X6004824Y-11532913D01*
X6004824Y-11532913D02*
X6014348Y-11542436D01*
X6014348Y-11542436D02*
X6023872Y-11561484D01*
X6023872Y-11561484D02*
X6033396Y-11599579D01*
X6033396Y-11599579D02*
X6033396Y-11647198D01*
X6033396Y-11647198D02*
X6023872Y-11685293D01*
X6023872Y-11685293D02*
X6014348Y-11704341D01*
X6014348Y-11704341D02*
X6004824Y-11713865D01*
X6004824Y-11713865D02*
X5985777Y-11723389D01*
X5985777Y-11723389D02*
X5966729Y-11723389D01*
X5966729Y-11723389D02*
X5947681Y-11713865D01*
X5947681Y-11713865D02*
X5938158Y-11704341D01*
X5938158Y-11704341D02*
X5928634Y-11685293D01*
X5928634Y-11685293D02*
X5919110Y-11647198D01*
X5919110Y-11647198D02*
X5919110Y-11599579D01*
X5919110Y-11599579D02*
X5928634Y-11561484D01*
X5928634Y-11561484D02*
X5938158Y-11542436D01*
X5938158Y-11542436D02*
X5947681Y-11532913D01*
X5947681Y-11532913D02*
X5966729Y-11523389D01*
X6119110Y-11704341D02*
X6128634Y-11713865D01*
X6128634Y-11713865D02*
X6119110Y-11723389D01*
X6119110Y-11723389D02*
X6109586Y-11713865D01*
X6109586Y-11713865D02*
X6119110Y-11704341D01*
X6119110Y-11704341D02*
X6119110Y-11723389D01*
X6319110Y-11723389D02*
X6204824Y-11723389D01*
X6261967Y-11723389D02*
X6261967Y-11523389D01*
X6261967Y-11523389D02*
X6242920Y-11551960D01*
X6242920Y-11551960D02*
X6223872Y-11571008D01*
X6223872Y-11571008D02*
X6204824Y-11580532D01*
X6385777Y-11523389D02*
X6509586Y-11523389D01*
X6509586Y-11523389D02*
X6442920Y-11599579D01*
X6442920Y-11599579D02*
X6471491Y-11599579D01*
X6471491Y-11599579D02*
X6490539Y-11609103D01*
X6490539Y-11609103D02*
X6500062Y-11618627D01*
X6500062Y-11618627D02*
X6509586Y-11637674D01*
X6509586Y-11637674D02*
X6509586Y-11685293D01*
X6509586Y-11685293D02*
X6500062Y-11704341D01*
X6500062Y-11704341D02*
X6490539Y-11713865D01*
X6490539Y-11713865D02*
X6471491Y-11723389D01*
X6471491Y-11723389D02*
X6414348Y-11723389D01*
X6414348Y-11723389D02*
X6395301Y-11713865D01*
X6395301Y-11713865D02*
X6385777Y-11704341D01*
X6576253Y-11523389D02*
X6709586Y-11523389D01*
X6709586Y-11523389D02*
X6623872Y-11723389D01*
X6814348Y-11609103D02*
X6795301Y-11599579D01*
X6795301Y-11599579D02*
X6785777Y-11590055D01*
X6785777Y-11590055D02*
X6776253Y-11571008D01*
X6776253Y-11571008D02*
X6776253Y-11561484D01*
X6776253Y-11561484D02*
X6785777Y-11542436D01*
X6785777Y-11542436D02*
X6795301Y-11532913D01*
X6795301Y-11532913D02*
X6814348Y-11523389D01*
X6814348Y-11523389D02*
X6852443Y-11523389D01*
X6852443Y-11523389D02*
X6871491Y-11532913D01*
X6871491Y-11532913D02*
X6881015Y-11542436D01*
X6881015Y-11542436D02*
X6890539Y-11561484D01*
X6890539Y-11561484D02*
X6890539Y-11571008D01*
X6890539Y-11571008D02*
X6881015Y-11590055D01*
X6881015Y-11590055D02*
X6871491Y-11599579D01*
X6871491Y-11599579D02*
X6852443Y-11609103D01*
X6852443Y-11609103D02*
X6814348Y-11609103D01*
X6814348Y-11609103D02*
X6795301Y-11618627D01*
X6795301Y-11618627D02*
X6785777Y-11628151D01*
X6785777Y-11628151D02*
X6776253Y-11647198D01*
X6776253Y-11647198D02*
X6776253Y-11685293D01*
X6776253Y-11685293D02*
X6785777Y-11704341D01*
X6785777Y-11704341D02*
X6795301Y-11713865D01*
X6795301Y-11713865D02*
X6814348Y-11723389D01*
X6814348Y-11723389D02*
X6852443Y-11723389D01*
X6852443Y-11723389D02*
X6871491Y-11713865D01*
X6871491Y-11713865D02*
X6881015Y-11704341D01*
X6881015Y-11704341D02*
X6890539Y-11685293D01*
X6890539Y-11685293D02*
X6890539Y-11647198D01*
X6890539Y-11647198D02*
X6881015Y-11628151D01*
X6881015Y-11628151D02*
X6871491Y-11618627D01*
X6871491Y-11618627D02*
X6852443Y-11609103D01*
X6966729Y-11523389D02*
X6966729Y-11561484D01*
X7042920Y-11523389D02*
X7042920Y-11561484D01*
X7338158Y-11799579D02*
X7328634Y-11790055D01*
X7328634Y-11790055D02*
X7309586Y-11761484D01*
X7309586Y-11761484D02*
X7300063Y-11742436D01*
X7300063Y-11742436D02*
X7290539Y-11713865D01*
X7290539Y-11713865D02*
X7281015Y-11666246D01*
X7281015Y-11666246D02*
X7281015Y-11628151D01*
X7281015Y-11628151D02*
X7290539Y-11580532D01*
X7290539Y-11580532D02*
X7300063Y-11551960D01*
X7300063Y-11551960D02*
X7309586Y-11532913D01*
X7309586Y-11532913D02*
X7328634Y-11504341D01*
X7328634Y-11504341D02*
X7338158Y-11494817D01*
X7500063Y-11590055D02*
X7500063Y-11723389D01*
X7452443Y-11513865D02*
X7404824Y-11656722D01*
X7404824Y-11656722D02*
X7528634Y-11656722D01*
X7757205Y-11723389D02*
X7757205Y-11523389D01*
X7842920Y-11723389D02*
X7842920Y-11618627D01*
X7842920Y-11618627D02*
X7833396Y-11599579D01*
X7833396Y-11599579D02*
X7814348Y-11590055D01*
X7814348Y-11590055D02*
X7785777Y-11590055D01*
X7785777Y-11590055D02*
X7766729Y-11599579D01*
X7766729Y-11599579D02*
X7757205Y-11609103D01*
X7966729Y-11723389D02*
X7947682Y-11713865D01*
X7947682Y-11713865D02*
X7938158Y-11704341D01*
X7938158Y-11704341D02*
X7928634Y-11685293D01*
X7928634Y-11685293D02*
X7928634Y-11628151D01*
X7928634Y-11628151D02*
X7938158Y-11609103D01*
X7938158Y-11609103D02*
X7947682Y-11599579D01*
X7947682Y-11599579D02*
X7966729Y-11590055D01*
X7966729Y-11590055D02*
X7995301Y-11590055D01*
X7995301Y-11590055D02*
X8014348Y-11599579D01*
X8014348Y-11599579D02*
X8023872Y-11609103D01*
X8023872Y-11609103D02*
X8033396Y-11628151D01*
X8033396Y-11628151D02*
X8033396Y-11685293D01*
X8033396Y-11685293D02*
X8023872Y-11704341D01*
X8023872Y-11704341D02*
X8014348Y-11713865D01*
X8014348Y-11713865D02*
X7995301Y-11723389D01*
X7995301Y-11723389D02*
X7966729Y-11723389D01*
X8147682Y-11723389D02*
X8128634Y-11713865D01*
X8128634Y-11713865D02*
X8119110Y-11694817D01*
X8119110Y-11694817D02*
X8119110Y-11523389D01*
X8300063Y-11713865D02*
X8281015Y-11723389D01*
X8281015Y-11723389D02*
X8242920Y-11723389D01*
X8242920Y-11723389D02*
X8223872Y-11713865D01*
X8223872Y-11713865D02*
X8214348Y-11694817D01*
X8214348Y-11694817D02*
X8214348Y-11618627D01*
X8214348Y-11618627D02*
X8223872Y-11599579D01*
X8223872Y-11599579D02*
X8242920Y-11590055D01*
X8242920Y-11590055D02*
X8281015Y-11590055D01*
X8281015Y-11590055D02*
X8300063Y-11599579D01*
X8300063Y-11599579D02*
X8309586Y-11618627D01*
X8309586Y-11618627D02*
X8309586Y-11637674D01*
X8309586Y-11637674D02*
X8214348Y-11656722D01*
X8385777Y-11713865D02*
X8404825Y-11723389D01*
X8404825Y-11723389D02*
X8442920Y-11723389D01*
X8442920Y-11723389D02*
X8461968Y-11713865D01*
X8461968Y-11713865D02*
X8471491Y-11694817D01*
X8471491Y-11694817D02*
X8471491Y-11685293D01*
X8471491Y-11685293D02*
X8461968Y-11666246D01*
X8461968Y-11666246D02*
X8442920Y-11656722D01*
X8442920Y-11656722D02*
X8414348Y-11656722D01*
X8414348Y-11656722D02*
X8395301Y-11647198D01*
X8395301Y-11647198D02*
X8385777Y-11628151D01*
X8385777Y-11628151D02*
X8385777Y-11618627D01*
X8385777Y-11618627D02*
X8395301Y-11599579D01*
X8395301Y-11599579D02*
X8414348Y-11590055D01*
X8414348Y-11590055D02*
X8442920Y-11590055D01*
X8442920Y-11590055D02*
X8461968Y-11599579D01*
X8538158Y-11799579D02*
X8547682Y-11790055D01*
X8547682Y-11790055D02*
X8566729Y-11761484D01*
X8566729Y-11761484D02*
X8576253Y-11742436D01*
X8576253Y-11742436D02*
X8585777Y-11713865D01*
X8585777Y-11713865D02*
X8595301Y-11666246D01*
X8595301Y-11666246D02*
X8595301Y-11628151D01*
X8595301Y-11628151D02*
X8585777Y-11580532D01*
X8585777Y-11580532D02*
X8576253Y-11551960D01*
X8576253Y-11551960D02*
X8566729Y-11532913D01*
X8566729Y-11532913D02*
X8547682Y-11504341D01*
X8547682Y-11504341D02*
X8538158Y-11494817D01*
X8900063Y-11799579D02*
X8890539Y-11790055D01*
X8890539Y-11790055D02*
X8871491Y-11761484D01*
X8871491Y-11761484D02*
X8861968Y-11742436D01*
X8861968Y-11742436D02*
X8852444Y-11713865D01*
X8852444Y-11713865D02*
X8842920Y-11666246D01*
X8842920Y-11666246D02*
X8842920Y-11628151D01*
X8842920Y-11628151D02*
X8852444Y-11580532D01*
X8852444Y-11580532D02*
X8861968Y-11551960D01*
X8861968Y-11551960D02*
X8871491Y-11532913D01*
X8871491Y-11532913D02*
X8890539Y-11504341D01*
X8890539Y-11504341D02*
X8900063Y-11494817D01*
X8976253Y-11590055D02*
X8976253Y-11723389D01*
X8976253Y-11609103D02*
X8985777Y-11599579D01*
X8985777Y-11599579D02*
X9004825Y-11590055D01*
X9004825Y-11590055D02*
X9033396Y-11590055D01*
X9033396Y-11590055D02*
X9052444Y-11599579D01*
X9052444Y-11599579D02*
X9061968Y-11618627D01*
X9061968Y-11618627D02*
X9061968Y-11723389D01*
X9185777Y-11723389D02*
X9166729Y-11713865D01*
X9166729Y-11713865D02*
X9157206Y-11704341D01*
X9157206Y-11704341D02*
X9147682Y-11685293D01*
X9147682Y-11685293D02*
X9147682Y-11628151D01*
X9147682Y-11628151D02*
X9157206Y-11609103D01*
X9157206Y-11609103D02*
X9166729Y-11599579D01*
X9166729Y-11599579D02*
X9185777Y-11590055D01*
X9185777Y-11590055D02*
X9214349Y-11590055D01*
X9214349Y-11590055D02*
X9233396Y-11599579D01*
X9233396Y-11599579D02*
X9242920Y-11609103D01*
X9242920Y-11609103D02*
X9252444Y-11628151D01*
X9252444Y-11628151D02*
X9252444Y-11685293D01*
X9252444Y-11685293D02*
X9242920Y-11704341D01*
X9242920Y-11704341D02*
X9233396Y-11713865D01*
X9233396Y-11713865D02*
X9214349Y-11723389D01*
X9214349Y-11723389D02*
X9185777Y-11723389D01*
X9309587Y-11590055D02*
X9385777Y-11590055D01*
X9338158Y-11523389D02*
X9338158Y-11694817D01*
X9338158Y-11694817D02*
X9347682Y-11713865D01*
X9347682Y-11713865D02*
X9366729Y-11723389D01*
X9366729Y-11723389D02*
X9385777Y-11723389D01*
X9604825Y-11590055D02*
X9604825Y-11790055D01*
X9604825Y-11599579D02*
X9623872Y-11590055D01*
X9623872Y-11590055D02*
X9661968Y-11590055D01*
X9661968Y-11590055D02*
X9681015Y-11599579D01*
X9681015Y-11599579D02*
X9690539Y-11609103D01*
X9690539Y-11609103D02*
X9700063Y-11628151D01*
X9700063Y-11628151D02*
X9700063Y-11685293D01*
X9700063Y-11685293D02*
X9690539Y-11704341D01*
X9690539Y-11704341D02*
X9681015Y-11713865D01*
X9681015Y-11713865D02*
X9661968Y-11723389D01*
X9661968Y-11723389D02*
X9623872Y-11723389D01*
X9623872Y-11723389D02*
X9604825Y-11713865D01*
X9814349Y-11723389D02*
X9795301Y-11713865D01*
X9795301Y-11713865D02*
X9785777Y-11694817D01*
X9785777Y-11694817D02*
X9785777Y-11523389D01*
X9976253Y-11723389D02*
X9976253Y-11618627D01*
X9976253Y-11618627D02*
X9966730Y-11599579D01*
X9966730Y-11599579D02*
X9947682Y-11590055D01*
X9947682Y-11590055D02*
X9909587Y-11590055D01*
X9909587Y-11590055D02*
X9890539Y-11599579D01*
X9976253Y-11713865D02*
X9957206Y-11723389D01*
X9957206Y-11723389D02*
X9909587Y-11723389D01*
X9909587Y-11723389D02*
X9890539Y-11713865D01*
X9890539Y-11713865D02*
X9881015Y-11694817D01*
X9881015Y-11694817D02*
X9881015Y-11675770D01*
X9881015Y-11675770D02*
X9890539Y-11656722D01*
X9890539Y-11656722D02*
X9909587Y-11647198D01*
X9909587Y-11647198D02*
X9957206Y-11647198D01*
X9957206Y-11647198D02*
X9976253Y-11637674D01*
X10042920Y-11590055D02*
X10119110Y-11590055D01*
X10071491Y-11523389D02*
X10071491Y-11694817D01*
X10071491Y-11694817D02*
X10081015Y-11713865D01*
X10081015Y-11713865D02*
X10100063Y-11723389D01*
X10100063Y-11723389D02*
X10119110Y-11723389D01*
X10261968Y-11713865D02*
X10242920Y-11723389D01*
X10242920Y-11723389D02*
X10204825Y-11723389D01*
X10204825Y-11723389D02*
X10185777Y-11713865D01*
X10185777Y-11713865D02*
X10176253Y-11694817D01*
X10176253Y-11694817D02*
X10176253Y-11618627D01*
X10176253Y-11618627D02*
X10185777Y-11599579D01*
X10185777Y-11599579D02*
X10204825Y-11590055D01*
X10204825Y-11590055D02*
X10242920Y-11590055D01*
X10242920Y-11590055D02*
X10261968Y-11599579D01*
X10261968Y-11599579D02*
X10271491Y-11618627D01*
X10271491Y-11618627D02*
X10271491Y-11637674D01*
X10271491Y-11637674D02*
X10176253Y-11656722D01*
X10442920Y-11723389D02*
X10442920Y-11523389D01*
X10442920Y-11713865D02*
X10423872Y-11723389D01*
X10423872Y-11723389D02*
X10385777Y-11723389D01*
X10385777Y-11723389D02*
X10366730Y-11713865D01*
X10366730Y-11713865D02*
X10357206Y-11704341D01*
X10357206Y-11704341D02*
X10347682Y-11685293D01*
X10347682Y-11685293D02*
X10347682Y-11628151D01*
X10347682Y-11628151D02*
X10357206Y-11609103D01*
X10357206Y-11609103D02*
X10366730Y-11599579D01*
X10366730Y-11599579D02*
X10385777Y-11590055D01*
X10385777Y-11590055D02*
X10423872Y-11590055D01*
X10423872Y-11590055D02*
X10442920Y-11599579D01*
X10519111Y-11799579D02*
X10528634Y-11790055D01*
X10528634Y-11790055D02*
X10547682Y-11761484D01*
X10547682Y-11761484D02*
X10557206Y-11742436D01*
X10557206Y-11742436D02*
X10566730Y-11713865D01*
X10566730Y-11713865D02*
X10576253Y-11666246D01*
X10576253Y-11666246D02*
X10576253Y-11628151D01*
X10576253Y-11628151D02*
X10566730Y-11580532D01*
X10566730Y-11580532D02*
X10557206Y-11551960D01*
X10557206Y-11551960D02*
X10547682Y-11532913D01*
X10547682Y-11532913D02*
X10528634Y-11504341D01*
X10528634Y-11504341D02*
X10519111Y-11494817D01*
M02*
