M48
; DRILL file {KiCad 9.0.1} date 2025-06-15T18:00:24+0300
; FORMAT={-:-/ absolute / metric / decimal}
; #@! TF.CreationDate,2025-06-15T18:00:24+03:00
; #@! TF.GenerationSoftware,Kicad,Pcbnew,9.0.1
; #@! TF.FileFunction,Plated,1,2,PTH
FMAT,2
METRIC
; #@! TA.AperFunction,Plated,PTH,ViaDrill
T1C0.300
; #@! TA.AperFunction,Plated,PTH,ComponentDrill
T2C0.500
; #@! TA.AperFunction,Plated,PTH,ComponentDrill
T3C0.700
; #@! TA.AperFunction,Plated,PTH,ComponentDrill
T4C0.760
; #@! TA.AperFunction,Plated,PTH,ComponentDrill
T5C0.800
; #@! TA.AperFunction,Plated,PTH,ComponentDrill
T6C1.100
; #@! TA.AperFunction,Plated,PTH,ComponentDrill
T7C1.600
; #@! TA.AperFunction,Plated,PTH,ComponentDrill
T8C2.000
%
G90
G05
T1
X40.9Y-45.9
X41.0Y-74.7
X41.0Y-79.8
X41.0Y-84.9
X41.0Y-90.0
X41.0Y-93.7
X41.05Y-54.7
X41.05Y-59.8
X41.05Y-64.9
X41.05Y-70.0
X41.1Y-50.05
X41.1Y-95.9
X41.2Y-41.1
X41.2Y-99.3
X44.3Y-45.3
X45.0Y-99.8
X45.7Y-96.3
X45.8Y-40.2
X46.1Y-74.7
X46.1Y-79.8
X46.1Y-84.9
X46.1Y-90.0
X46.1Y-93.7
X46.15Y-54.7
X46.15Y-59.8
X46.15Y-64.9
X46.15Y-70.0
X46.2Y-50.05
X48.4Y-100.05
X51.25Y-54.7
X51.25Y-70.0
X51.3Y-38.0
X51.75Y-59.85
X51.85Y-64.9
X52.0Y-33.0
X52.5Y-103.5
X52.7Y-107.2
X52.85Y-85.35
X53.5Y-100.05
X54.15Y-95.4
X54.85Y-45.1
X55.0Y-37.9
X55.2Y-33.1
X55.9Y-42.7
X56.25Y-102.3
X56.25Y-107.4
X56.35Y-54.7
X56.35Y-58.9
X56.35Y-70.0
X56.55Y-83.0
X58.55Y-45.6
X58.55Y-100.05
X59.25Y-94.3
X60.2Y-42.7
X60.9Y-102.35
X60.9Y-107.45
X61.2Y-79.8
X61.35Y-32.7
X61.35Y-37.8
X61.45Y-54.7
X61.45Y-59.8
X61.45Y-64.9
X61.45Y-70.0
X61.85Y-85.95
X61.85Y-90.95
X61.95Y-75.35
X63.65Y-100.05
X66.0Y-32.75
X66.0Y-37.85
X66.0Y-102.35
X66.0Y-107.45
X66.55Y-70.0
X67.55Y-100.15
X69.5Y-42.65
X69.85Y-54.8
X70.35Y-86.1
X70.65Y-77.4
X71.1Y-32.75
X71.1Y-37.85
X71.1Y-102.35
X71.1Y-107.45
X71.65Y-70.0
X71.65Y-73.05
X71.9Y-55.35
X71.9Y-60.45
X71.9Y-65.55
X72.65Y-100.15
X72.8Y-42.55
X73.95Y-86.1
X75.85Y-77.0
X76.2Y-32.75
X76.2Y-37.85
X76.2Y-102.35
X76.2Y-107.45
X76.6Y-54.2
X76.7Y-70.0
X76.95Y-73.05
X77.75Y-100.15
X78.0Y-47.0
X78.75Y-91.95
X80.25Y-54.2
X80.45Y-78.9
X80.9Y-102.4
X80.9Y-107.5
X81.3Y-32.75
X81.3Y-37.85
X81.8Y-70.0
X81.8Y-73.3
X82.8Y-100.15
X86.0Y-32.8
X86.0Y-37.9
X86.0Y-102.4
X86.0Y-107.5
X87.75Y-78.6
X87.9Y-100.15
X88.15Y-95.95
X88.19Y-91.64
X88.5Y-48.55
X88.65Y-42.0
X88.7Y-44.85
X88.7Y-53.35
X89.45Y-60.95
X89.8Y-55.75
X91.1Y-32.8
X91.1Y-37.9
X91.1Y-102.4
X91.1Y-107.5
X92.0Y-70.0
X92.2Y-88.15
X92.25Y-83.2
X93.05Y-60.05
X96.2Y-32.8
X96.2Y-37.9
X96.2Y-102.4
X96.2Y-107.5
X98.05Y-87.7
X99.9Y-102.4
X99.9Y-107.5
X100.05Y-83.4
X100.25Y-76.05
X101.3Y-32.8
X101.3Y-37.9
X101.35Y-67.4
X105.0Y-32.8
X105.0Y-37.9
X105.2Y-58.2
X105.45Y-76.3
X105.8Y-55.8
X106.3Y-82.2
X108.1Y-60.9
X108.8Y-32.6
X108.8Y-37.2
X110.3Y-85.7
X110.5Y-52.9
X110.6Y-58.1
X112.3Y-61.2
X112.3Y-76.8
X112.6Y-86.7
X112.7Y-32.9
X112.9Y-54.4
X113.2Y-104.2
X113.3Y-37.2
X113.3Y-107.5
X114.8Y-101.3
X115.7Y-103.5
X116.1Y-80.5
X116.5Y-76.9
X116.5Y-106.8
X116.8Y-32.7
X117.3Y-36.0
X117.9Y-68.6
X118.8Y-72.3
X119.7Y-100.7
X120.4Y-76.5
X120.4Y-79.9
X120.6Y-69.5
X120.7Y-53.3
X121.0Y-90.8
X121.5Y-59.3
X121.5Y-61.6
X122.7Y-56.4
X123.0Y-53.4
X123.1Y-92.1
X123.7Y-68.1
X125.6Y-90.9
T2
X70.35Y-63.0
X74.75Y-63.0
X77.75Y-86.6
X78.15Y-62.9
X82.85Y-86.6
X84.05Y-63.0
X84.55Y-77.1
X85.45Y-86.6
X104.85Y-42.5
X105.45Y-97.2
T3
X54.15Y-50.6
X54.15Y-89.54
X56.15Y-50.6
X56.15Y-89.54
X71.25Y-50.6
X71.25Y-89.54
X73.25Y-50.6
X73.25Y-89.54
T4
X77.74Y-43.0
X77.74Y-50.62
X77.74Y-89.48
X77.74Y-97.1
X80.28Y-43.0
X80.28Y-50.62
X80.28Y-89.48
X80.28Y-97.1
X82.82Y-43.0
X82.82Y-50.62
X82.82Y-89.48
X82.82Y-97.1
X85.36Y-43.0
X85.36Y-50.62
X85.36Y-89.48
X85.36Y-97.1
T5
X49.95Y-42.98
X49.95Y-50.6
X49.95Y-56.73
X49.95Y-66.89
X49.95Y-73.25
X49.95Y-83.41
X49.95Y-89.54
X49.95Y-97.16
X56.25Y-61.81
X56.25Y-64.35
X56.25Y-66.89
X56.25Y-73.25
X56.25Y-75.79
X56.25Y-78.33
X65.05Y-73.25
X65.05Y-85.95
X65.05Y-89.54
X65.05Y-97.16
X65.1Y-42.98
X65.1Y-50.6
X65.1Y-54.19
X65.1Y-66.89
X70.34Y-58.5
X70.34Y-82.0
X77.96Y-58.5
X77.96Y-82.0
X80.34Y-82.0
X80.74Y-58.5
X87.96Y-82.0
X88.36Y-58.5
T6
X105.54Y-47.26
X105.54Y-49.8
X105.54Y-52.34
X105.54Y-86.56
X105.54Y-89.1
X105.54Y-91.64
T7
X85.15Y-70.2
X94.15Y-79.1
X94.15Y-99.1
X95.75Y-42.9
X95.75Y-62.9
X105.15Y-70.2
T8
X108.1Y-104.8
X113.6Y-72.5
X116.7Y-87.2
X116.7Y-97.2
X116.8Y-42.5
X116.8Y-49.7
X116.9Y-59.6
X125.85Y-64.65
X125.85Y-73.15
X125.85Y-87.2
X125.85Y-97.2
X125.95Y-42.5
X125.95Y-49.7
M30
