%TF.GenerationSoftware,KiCad,Pcbnew,9.0.1*%
%TF.CreationDate,2025-06-15T17:03:02+03:00*%
%TF.ProjectId,pcb_no_div,7063625f-6e6f-45f6-9469-762e6b696361,rev?*%
%TF.SameCoordinates,Original*%
%TF.FileFunction,Legend,Top*%
%TF.FilePolarity,Positive*%
%FSLAX46Y46*%
G04 Gerber Fmt 4.6, Leading zero omitted, Abs format (unit mm)*
G04 Created by KiCad (PCBNEW 9.0.1) date 2025-06-15 17:03:02*
%MOMM*%
%LPD*%
G01*
G04 APERTURE LIST*
%ADD10C,0.150000*%
%ADD11C,0.254000*%
%ADD12C,0.152400*%
%ADD13C,0.120000*%
%ADD14C,0.200000*%
G04 APERTURE END LIST*
D10*
X47404819Y-79306190D02*
X46928628Y-79639523D01*
X47404819Y-79877618D02*
X46404819Y-79877618D01*
X46404819Y-79877618D02*
X46404819Y-79496666D01*
X46404819Y-79496666D02*
X46452438Y-79401428D01*
X46452438Y-79401428D02*
X46500057Y-79353809D01*
X46500057Y-79353809D02*
X46595295Y-79306190D01*
X46595295Y-79306190D02*
X46738152Y-79306190D01*
X46738152Y-79306190D02*
X46833390Y-79353809D01*
X46833390Y-79353809D02*
X46881009Y-79401428D01*
X46881009Y-79401428D02*
X46928628Y-79496666D01*
X46928628Y-79496666D02*
X46928628Y-79877618D01*
X47500057Y-79115714D02*
X47500057Y-78353809D01*
X47119104Y-78163332D02*
X47119104Y-77687142D01*
X47404819Y-78258570D02*
X46404819Y-77925237D01*
X46404819Y-77925237D02*
X47404819Y-77591904D01*
X46500057Y-77306189D02*
X46452438Y-77258570D01*
X46452438Y-77258570D02*
X46404819Y-77163332D01*
X46404819Y-77163332D02*
X46404819Y-76925237D01*
X46404819Y-76925237D02*
X46452438Y-76829999D01*
X46452438Y-76829999D02*
X46500057Y-76782380D01*
X46500057Y-76782380D02*
X46595295Y-76734761D01*
X46595295Y-76734761D02*
X46690533Y-76734761D01*
X46690533Y-76734761D02*
X46833390Y-76782380D01*
X46833390Y-76782380D02*
X47404819Y-77353808D01*
X47404819Y-77353808D02*
X47404819Y-76734761D01*
X62434819Y-50123333D02*
X62434819Y-49456667D01*
X62434819Y-49456667D02*
X63434819Y-50123333D01*
X63434819Y-50123333D02*
X63434819Y-49456667D01*
X63387200Y-48694762D02*
X63434819Y-48790000D01*
X63434819Y-48790000D02*
X63434819Y-48980476D01*
X63434819Y-48980476D02*
X63387200Y-49075714D01*
X63387200Y-49075714D02*
X63291961Y-49123333D01*
X63291961Y-49123333D02*
X62911009Y-49123333D01*
X62911009Y-49123333D02*
X62815771Y-49075714D01*
X62815771Y-49075714D02*
X62768152Y-48980476D01*
X62768152Y-48980476D02*
X62768152Y-48790000D01*
X62768152Y-48790000D02*
X62815771Y-48694762D01*
X62815771Y-48694762D02*
X62911009Y-48647143D01*
X62911009Y-48647143D02*
X63006247Y-48647143D01*
X63006247Y-48647143D02*
X63101485Y-49123333D01*
X62768152Y-48218571D02*
X63434819Y-48218571D01*
X62863390Y-48218571D02*
X62815771Y-48170952D01*
X62815771Y-48170952D02*
X62768152Y-48075714D01*
X62768152Y-48075714D02*
X62768152Y-47932857D01*
X62768152Y-47932857D02*
X62815771Y-47837619D01*
X62815771Y-47837619D02*
X62911009Y-47790000D01*
X62911009Y-47790000D02*
X63434819Y-47790000D01*
X63387200Y-46932857D02*
X63434819Y-47028095D01*
X63434819Y-47028095D02*
X63434819Y-47218571D01*
X63434819Y-47218571D02*
X63387200Y-47313809D01*
X63387200Y-47313809D02*
X63291961Y-47361428D01*
X63291961Y-47361428D02*
X62911009Y-47361428D01*
X62911009Y-47361428D02*
X62815771Y-47313809D01*
X62815771Y-47313809D02*
X62768152Y-47218571D01*
X62768152Y-47218571D02*
X62768152Y-47028095D01*
X62768152Y-47028095D02*
X62815771Y-46932857D01*
X62815771Y-46932857D02*
X62911009Y-46885238D01*
X62911009Y-46885238D02*
X63006247Y-46885238D01*
X63006247Y-46885238D02*
X63101485Y-47361428D01*
X63434819Y-46456666D02*
X62768152Y-46456666D01*
X62958628Y-46456666D02*
X62863390Y-46409047D01*
X62863390Y-46409047D02*
X62815771Y-46361428D01*
X62815771Y-46361428D02*
X62768152Y-46266190D01*
X62768152Y-46266190D02*
X62768152Y-46170952D01*
X63530057Y-46075714D02*
X63530057Y-45313809D01*
X63434819Y-45075713D02*
X62434819Y-45075713D01*
X62911009Y-45075713D02*
X62911009Y-44504285D01*
X63434819Y-44504285D02*
X62434819Y-44504285D01*
X63434819Y-43504285D02*
X63434819Y-44075713D01*
X63434819Y-43789999D02*
X62434819Y-43789999D01*
X62434819Y-43789999D02*
X62577676Y-43885237D01*
X62577676Y-43885237D02*
X62672914Y-43980475D01*
X62672914Y-43980475D02*
X62720533Y-44075713D01*
X63754819Y-50861904D02*
X62754819Y-50861904D01*
X63754819Y-50290476D02*
X63183390Y-50719047D01*
X62754819Y-50290476D02*
X63326247Y-50861904D01*
X104188095Y-95206819D02*
X104759523Y-95206819D01*
X104473809Y-96206819D02*
X104473809Y-95206819D01*
X105092857Y-96206819D02*
X105092857Y-95206819D01*
X105092857Y-95206819D02*
X105473809Y-95206819D01*
X105473809Y-95206819D02*
X105569047Y-95254438D01*
X105569047Y-95254438D02*
X105616666Y-95302057D01*
X105616666Y-95302057D02*
X105664285Y-95397295D01*
X105664285Y-95397295D02*
X105664285Y-95540152D01*
X105664285Y-95540152D02*
X105616666Y-95635390D01*
X105616666Y-95635390D02*
X105569047Y-95683009D01*
X105569047Y-95683009D02*
X105473809Y-95730628D01*
X105473809Y-95730628D02*
X105092857Y-95730628D01*
X106235714Y-95635390D02*
X106140476Y-95587771D01*
X106140476Y-95587771D02*
X106092857Y-95540152D01*
X106092857Y-95540152D02*
X106045238Y-95444914D01*
X106045238Y-95444914D02*
X106045238Y-95397295D01*
X106045238Y-95397295D02*
X106092857Y-95302057D01*
X106092857Y-95302057D02*
X106140476Y-95254438D01*
X106140476Y-95254438D02*
X106235714Y-95206819D01*
X106235714Y-95206819D02*
X106426190Y-95206819D01*
X106426190Y-95206819D02*
X106521428Y-95254438D01*
X106521428Y-95254438D02*
X106569047Y-95302057D01*
X106569047Y-95302057D02*
X106616666Y-95397295D01*
X106616666Y-95397295D02*
X106616666Y-95444914D01*
X106616666Y-95444914D02*
X106569047Y-95540152D01*
X106569047Y-95540152D02*
X106521428Y-95587771D01*
X106521428Y-95587771D02*
X106426190Y-95635390D01*
X106426190Y-95635390D02*
X106235714Y-95635390D01*
X106235714Y-95635390D02*
X106140476Y-95683009D01*
X106140476Y-95683009D02*
X106092857Y-95730628D01*
X106092857Y-95730628D02*
X106045238Y-95825866D01*
X106045238Y-95825866D02*
X106045238Y-96016342D01*
X106045238Y-96016342D02*
X106092857Y-96111580D01*
X106092857Y-96111580D02*
X106140476Y-96159200D01*
X106140476Y-96159200D02*
X106235714Y-96206819D01*
X106235714Y-96206819D02*
X106426190Y-96206819D01*
X106426190Y-96206819D02*
X106521428Y-96159200D01*
X106521428Y-96159200D02*
X106569047Y-96111580D01*
X106569047Y-96111580D02*
X106616666Y-96016342D01*
X106616666Y-96016342D02*
X106616666Y-95825866D01*
X106616666Y-95825866D02*
X106569047Y-95730628D01*
X106569047Y-95730628D02*
X106521428Y-95683009D01*
X106521428Y-95683009D02*
X106426190Y-95635390D01*
X83883333Y-56584819D02*
X83550000Y-56108628D01*
X83311905Y-56584819D02*
X83311905Y-55584819D01*
X83311905Y-55584819D02*
X83692857Y-55584819D01*
X83692857Y-55584819D02*
X83788095Y-55632438D01*
X83788095Y-55632438D02*
X83835714Y-55680057D01*
X83835714Y-55680057D02*
X83883333Y-55775295D01*
X83883333Y-55775295D02*
X83883333Y-55918152D01*
X83883333Y-55918152D02*
X83835714Y-56013390D01*
X83835714Y-56013390D02*
X83788095Y-56061009D01*
X83788095Y-56061009D02*
X83692857Y-56108628D01*
X83692857Y-56108628D02*
X83311905Y-56108628D01*
X84835714Y-55632438D02*
X84740476Y-55584819D01*
X84740476Y-55584819D02*
X84597619Y-55584819D01*
X84597619Y-55584819D02*
X84454762Y-55632438D01*
X84454762Y-55632438D02*
X84359524Y-55727676D01*
X84359524Y-55727676D02*
X84311905Y-55822914D01*
X84311905Y-55822914D02*
X84264286Y-56013390D01*
X84264286Y-56013390D02*
X84264286Y-56156247D01*
X84264286Y-56156247D02*
X84311905Y-56346723D01*
X84311905Y-56346723D02*
X84359524Y-56441961D01*
X84359524Y-56441961D02*
X84454762Y-56537200D01*
X84454762Y-56537200D02*
X84597619Y-56584819D01*
X84597619Y-56584819D02*
X84692857Y-56584819D01*
X84692857Y-56584819D02*
X84835714Y-56537200D01*
X84835714Y-56537200D02*
X84883333Y-56489580D01*
X84883333Y-56489580D02*
X84883333Y-56156247D01*
X84883333Y-56156247D02*
X84692857Y-56156247D01*
X85835714Y-56584819D02*
X85264286Y-56584819D01*
X85550000Y-56584819D02*
X85550000Y-55584819D01*
X85550000Y-55584819D02*
X85454762Y-55727676D01*
X85454762Y-55727676D02*
X85359524Y-55822914D01*
X85359524Y-55822914D02*
X85264286Y-55870533D01*
D11*
X71038333Y-51053365D02*
X70977857Y-51113842D01*
X70977857Y-51113842D02*
X70796428Y-51174318D01*
X70796428Y-51174318D02*
X70675476Y-51174318D01*
X70675476Y-51174318D02*
X70494047Y-51113842D01*
X70494047Y-51113842D02*
X70373095Y-50992889D01*
X70373095Y-50992889D02*
X70312618Y-50871937D01*
X70312618Y-50871937D02*
X70252142Y-50630032D01*
X70252142Y-50630032D02*
X70252142Y-50448603D01*
X70252142Y-50448603D02*
X70312618Y-50206699D01*
X70312618Y-50206699D02*
X70373095Y-50085746D01*
X70373095Y-50085746D02*
X70494047Y-49964794D01*
X70494047Y-49964794D02*
X70675476Y-49904318D01*
X70675476Y-49904318D02*
X70796428Y-49904318D01*
X70796428Y-49904318D02*
X70977857Y-49964794D01*
X70977857Y-49964794D02*
X71038333Y-50025270D01*
X71522142Y-50025270D02*
X71582618Y-49964794D01*
X71582618Y-49964794D02*
X71703571Y-49904318D01*
X71703571Y-49904318D02*
X72005952Y-49904318D01*
X72005952Y-49904318D02*
X72126904Y-49964794D01*
X72126904Y-49964794D02*
X72187380Y-50025270D01*
X72187380Y-50025270D02*
X72247857Y-50146222D01*
X72247857Y-50146222D02*
X72247857Y-50267175D01*
X72247857Y-50267175D02*
X72187380Y-50448603D01*
X72187380Y-50448603D02*
X71461666Y-51174318D01*
X71461666Y-51174318D02*
X72247857Y-51174318D01*
D10*
X66624819Y-96683333D02*
X66624819Y-96016667D01*
X66624819Y-96016667D02*
X67624819Y-96683333D01*
X67624819Y-96683333D02*
X67624819Y-96016667D01*
X67577200Y-95254762D02*
X67624819Y-95350000D01*
X67624819Y-95350000D02*
X67624819Y-95540476D01*
X67624819Y-95540476D02*
X67577200Y-95635714D01*
X67577200Y-95635714D02*
X67481961Y-95683333D01*
X67481961Y-95683333D02*
X67101009Y-95683333D01*
X67101009Y-95683333D02*
X67005771Y-95635714D01*
X67005771Y-95635714D02*
X66958152Y-95540476D01*
X66958152Y-95540476D02*
X66958152Y-95350000D01*
X66958152Y-95350000D02*
X67005771Y-95254762D01*
X67005771Y-95254762D02*
X67101009Y-95207143D01*
X67101009Y-95207143D02*
X67196247Y-95207143D01*
X67196247Y-95207143D02*
X67291485Y-95683333D01*
X66958152Y-94778571D02*
X67624819Y-94778571D01*
X67053390Y-94778571D02*
X67005771Y-94730952D01*
X67005771Y-94730952D02*
X66958152Y-94635714D01*
X66958152Y-94635714D02*
X66958152Y-94492857D01*
X66958152Y-94492857D02*
X67005771Y-94397619D01*
X67005771Y-94397619D02*
X67101009Y-94350000D01*
X67101009Y-94350000D02*
X67624819Y-94350000D01*
X67577200Y-93492857D02*
X67624819Y-93588095D01*
X67624819Y-93588095D02*
X67624819Y-93778571D01*
X67624819Y-93778571D02*
X67577200Y-93873809D01*
X67577200Y-93873809D02*
X67481961Y-93921428D01*
X67481961Y-93921428D02*
X67101009Y-93921428D01*
X67101009Y-93921428D02*
X67005771Y-93873809D01*
X67005771Y-93873809D02*
X66958152Y-93778571D01*
X66958152Y-93778571D02*
X66958152Y-93588095D01*
X66958152Y-93588095D02*
X67005771Y-93492857D01*
X67005771Y-93492857D02*
X67101009Y-93445238D01*
X67101009Y-93445238D02*
X67196247Y-93445238D01*
X67196247Y-93445238D02*
X67291485Y-93921428D01*
X67624819Y-93016666D02*
X66958152Y-93016666D01*
X67148628Y-93016666D02*
X67053390Y-92969047D01*
X67053390Y-92969047D02*
X67005771Y-92921428D01*
X67005771Y-92921428D02*
X66958152Y-92826190D01*
X66958152Y-92826190D02*
X66958152Y-92730952D01*
X67720057Y-92635714D02*
X67720057Y-91873809D01*
X67624819Y-91635713D02*
X66624819Y-91635713D01*
X67101009Y-91635713D02*
X67101009Y-91064285D01*
X67624819Y-91064285D02*
X66624819Y-91064285D01*
X66720057Y-90635713D02*
X66672438Y-90588094D01*
X66672438Y-90588094D02*
X66624819Y-90492856D01*
X66624819Y-90492856D02*
X66624819Y-90254761D01*
X66624819Y-90254761D02*
X66672438Y-90159523D01*
X66672438Y-90159523D02*
X66720057Y-90111904D01*
X66720057Y-90111904D02*
X66815295Y-90064285D01*
X66815295Y-90064285D02*
X66910533Y-90064285D01*
X66910533Y-90064285D02*
X67053390Y-90111904D01*
X67053390Y-90111904D02*
X67624819Y-90683332D01*
X67624819Y-90683332D02*
X67624819Y-90064285D01*
X67304819Y-89801904D02*
X66304819Y-89801904D01*
X67304819Y-89230476D02*
X66733390Y-89659047D01*
X66304819Y-89230476D02*
X66876247Y-89801904D01*
X121450000Y-46154819D02*
X121640476Y-46154819D01*
X121640476Y-46154819D02*
X121735714Y-46202438D01*
X121735714Y-46202438D02*
X121830952Y-46297676D01*
X121830952Y-46297676D02*
X121878571Y-46488152D01*
X121878571Y-46488152D02*
X121878571Y-46821485D01*
X121878571Y-46821485D02*
X121830952Y-47011961D01*
X121830952Y-47011961D02*
X121735714Y-47107200D01*
X121735714Y-47107200D02*
X121640476Y-47154819D01*
X121640476Y-47154819D02*
X121450000Y-47154819D01*
X121450000Y-47154819D02*
X121354762Y-47107200D01*
X121354762Y-47107200D02*
X121259524Y-47011961D01*
X121259524Y-47011961D02*
X121211905Y-46821485D01*
X121211905Y-46821485D02*
X121211905Y-46488152D01*
X121211905Y-46488152D02*
X121259524Y-46297676D01*
X121259524Y-46297676D02*
X121354762Y-46202438D01*
X121354762Y-46202438D02*
X121450000Y-46154819D01*
X122307143Y-46154819D02*
X122307143Y-46964342D01*
X122307143Y-46964342D02*
X122354762Y-47059580D01*
X122354762Y-47059580D02*
X122402381Y-47107200D01*
X122402381Y-47107200D02*
X122497619Y-47154819D01*
X122497619Y-47154819D02*
X122688095Y-47154819D01*
X122688095Y-47154819D02*
X122783333Y-47107200D01*
X122783333Y-47107200D02*
X122830952Y-47059580D01*
X122830952Y-47059580D02*
X122878571Y-46964342D01*
X122878571Y-46964342D02*
X122878571Y-46154819D01*
X123211905Y-46154819D02*
X123783333Y-46154819D01*
X123497619Y-47154819D02*
X123497619Y-46154819D01*
X124116667Y-47154819D02*
X124116667Y-46154819D01*
X124116667Y-46154819D02*
X124497619Y-46154819D01*
X124497619Y-46154819D02*
X124592857Y-46202438D01*
X124592857Y-46202438D02*
X124640476Y-46250057D01*
X124640476Y-46250057D02*
X124688095Y-46345295D01*
X124688095Y-46345295D02*
X124688095Y-46488152D01*
X124688095Y-46488152D02*
X124640476Y-46583390D01*
X124640476Y-46583390D02*
X124592857Y-46631009D01*
X124592857Y-46631009D02*
X124497619Y-46678628D01*
X124497619Y-46678628D02*
X124116667Y-46678628D01*
X125116667Y-46154819D02*
X125116667Y-46964342D01*
X125116667Y-46964342D02*
X125164286Y-47059580D01*
X125164286Y-47059580D02*
X125211905Y-47107200D01*
X125211905Y-47107200D02*
X125307143Y-47154819D01*
X125307143Y-47154819D02*
X125497619Y-47154819D01*
X125497619Y-47154819D02*
X125592857Y-47107200D01*
X125592857Y-47107200D02*
X125640476Y-47059580D01*
X125640476Y-47059580D02*
X125688095Y-46964342D01*
X125688095Y-46964342D02*
X125688095Y-46154819D01*
X126021429Y-46154819D02*
X126592857Y-46154819D01*
X126307143Y-47154819D02*
X126307143Y-46154819D01*
X126926191Y-46773866D02*
X127688096Y-46773866D01*
X127307143Y-47154819D02*
X127307143Y-46392914D01*
X128069048Y-46154819D02*
X128688095Y-46154819D01*
X128688095Y-46154819D02*
X128354762Y-46535771D01*
X128354762Y-46535771D02*
X128497619Y-46535771D01*
X128497619Y-46535771D02*
X128592857Y-46583390D01*
X128592857Y-46583390D02*
X128640476Y-46631009D01*
X128640476Y-46631009D02*
X128688095Y-46726247D01*
X128688095Y-46726247D02*
X128688095Y-46964342D01*
X128688095Y-46964342D02*
X128640476Y-47059580D01*
X128640476Y-47059580D02*
X128592857Y-47107200D01*
X128592857Y-47107200D02*
X128497619Y-47154819D01*
X128497619Y-47154819D02*
X128211905Y-47154819D01*
X128211905Y-47154819D02*
X128116667Y-47107200D01*
X128116667Y-47107200D02*
X128069048Y-47059580D01*
X103588095Y-40506819D02*
X104159523Y-40506819D01*
X103873809Y-41506819D02*
X103873809Y-40506819D01*
X104492857Y-41506819D02*
X104492857Y-40506819D01*
X104492857Y-40506819D02*
X104873809Y-40506819D01*
X104873809Y-40506819D02*
X104969047Y-40554438D01*
X104969047Y-40554438D02*
X105016666Y-40602057D01*
X105016666Y-40602057D02*
X105064285Y-40697295D01*
X105064285Y-40697295D02*
X105064285Y-40840152D01*
X105064285Y-40840152D02*
X105016666Y-40935390D01*
X105016666Y-40935390D02*
X104969047Y-40983009D01*
X104969047Y-40983009D02*
X104873809Y-41030628D01*
X104873809Y-41030628D02*
X104492857Y-41030628D01*
X105921428Y-40840152D02*
X105921428Y-41506819D01*
X105683333Y-40459200D02*
X105445238Y-41173485D01*
X105445238Y-41173485D02*
X106064285Y-41173485D01*
X79711905Y-76456819D02*
X80283333Y-76456819D01*
X79997619Y-77456819D02*
X79997619Y-76456819D01*
X80616667Y-77456819D02*
X80616667Y-76456819D01*
X80616667Y-76456819D02*
X80997619Y-76456819D01*
X80997619Y-76456819D02*
X81092857Y-76504438D01*
X81092857Y-76504438D02*
X81140476Y-76552057D01*
X81140476Y-76552057D02*
X81188095Y-76647295D01*
X81188095Y-76647295D02*
X81188095Y-76790152D01*
X81188095Y-76790152D02*
X81140476Y-76885390D01*
X81140476Y-76885390D02*
X81092857Y-76933009D01*
X81092857Y-76933009D02*
X80997619Y-76980628D01*
X80997619Y-76980628D02*
X80616667Y-76980628D01*
X82140476Y-77456819D02*
X81569048Y-77456819D01*
X81854762Y-77456819D02*
X81854762Y-76456819D01*
X81854762Y-76456819D02*
X81759524Y-76599676D01*
X81759524Y-76599676D02*
X81664286Y-76694914D01*
X81664286Y-76694914D02*
X81569048Y-76742533D01*
X82759524Y-76456819D02*
X82854762Y-76456819D01*
X82854762Y-76456819D02*
X82950000Y-76504438D01*
X82950000Y-76504438D02*
X82997619Y-76552057D01*
X82997619Y-76552057D02*
X83045238Y-76647295D01*
X83045238Y-76647295D02*
X83092857Y-76837771D01*
X83092857Y-76837771D02*
X83092857Y-77075866D01*
X83092857Y-77075866D02*
X83045238Y-77266342D01*
X83045238Y-77266342D02*
X82997619Y-77361580D01*
X82997619Y-77361580D02*
X82950000Y-77409200D01*
X82950000Y-77409200D02*
X82854762Y-77456819D01*
X82854762Y-77456819D02*
X82759524Y-77456819D01*
X82759524Y-77456819D02*
X82664286Y-77409200D01*
X82664286Y-77409200D02*
X82616667Y-77361580D01*
X82616667Y-77361580D02*
X82569048Y-77266342D01*
X82569048Y-77266342D02*
X82521429Y-77075866D01*
X82521429Y-77075866D02*
X82521429Y-76837771D01*
X82521429Y-76837771D02*
X82569048Y-76647295D01*
X82569048Y-76647295D02*
X82616667Y-76552057D01*
X82616667Y-76552057D02*
X82664286Y-76504438D01*
X82664286Y-76504438D02*
X82759524Y-76456819D01*
X113450000Y-93104819D02*
X113640476Y-93104819D01*
X113640476Y-93104819D02*
X113735714Y-93152438D01*
X113735714Y-93152438D02*
X113830952Y-93247676D01*
X113830952Y-93247676D02*
X113878571Y-93438152D01*
X113878571Y-93438152D02*
X113878571Y-93771485D01*
X113878571Y-93771485D02*
X113830952Y-93961961D01*
X113830952Y-93961961D02*
X113735714Y-94057200D01*
X113735714Y-94057200D02*
X113640476Y-94104819D01*
X113640476Y-94104819D02*
X113450000Y-94104819D01*
X113450000Y-94104819D02*
X113354762Y-94057200D01*
X113354762Y-94057200D02*
X113259524Y-93961961D01*
X113259524Y-93961961D02*
X113211905Y-93771485D01*
X113211905Y-93771485D02*
X113211905Y-93438152D01*
X113211905Y-93438152D02*
X113259524Y-93247676D01*
X113259524Y-93247676D02*
X113354762Y-93152438D01*
X113354762Y-93152438D02*
X113450000Y-93104819D01*
X114307143Y-93104819D02*
X114307143Y-93914342D01*
X114307143Y-93914342D02*
X114354762Y-94009580D01*
X114354762Y-94009580D02*
X114402381Y-94057200D01*
X114402381Y-94057200D02*
X114497619Y-94104819D01*
X114497619Y-94104819D02*
X114688095Y-94104819D01*
X114688095Y-94104819D02*
X114783333Y-94057200D01*
X114783333Y-94057200D02*
X114830952Y-94009580D01*
X114830952Y-94009580D02*
X114878571Y-93914342D01*
X114878571Y-93914342D02*
X114878571Y-93104819D01*
X115211905Y-93104819D02*
X115783333Y-93104819D01*
X115497619Y-94104819D02*
X115497619Y-93104819D01*
X116116667Y-94104819D02*
X116116667Y-93104819D01*
X116116667Y-93104819D02*
X116497619Y-93104819D01*
X116497619Y-93104819D02*
X116592857Y-93152438D01*
X116592857Y-93152438D02*
X116640476Y-93200057D01*
X116640476Y-93200057D02*
X116688095Y-93295295D01*
X116688095Y-93295295D02*
X116688095Y-93438152D01*
X116688095Y-93438152D02*
X116640476Y-93533390D01*
X116640476Y-93533390D02*
X116592857Y-93581009D01*
X116592857Y-93581009D02*
X116497619Y-93628628D01*
X116497619Y-93628628D02*
X116116667Y-93628628D01*
X117116667Y-93104819D02*
X117116667Y-93914342D01*
X117116667Y-93914342D02*
X117164286Y-94009580D01*
X117164286Y-94009580D02*
X117211905Y-94057200D01*
X117211905Y-94057200D02*
X117307143Y-94104819D01*
X117307143Y-94104819D02*
X117497619Y-94104819D01*
X117497619Y-94104819D02*
X117592857Y-94057200D01*
X117592857Y-94057200D02*
X117640476Y-94009580D01*
X117640476Y-94009580D02*
X117688095Y-93914342D01*
X117688095Y-93914342D02*
X117688095Y-93104819D01*
X118021429Y-93104819D02*
X118592857Y-93104819D01*
X118307143Y-94104819D02*
X118307143Y-93104819D01*
X118926191Y-93723866D02*
X119688096Y-93723866D01*
X120116667Y-93200057D02*
X120164286Y-93152438D01*
X120164286Y-93152438D02*
X120259524Y-93104819D01*
X120259524Y-93104819D02*
X120497619Y-93104819D01*
X120497619Y-93104819D02*
X120592857Y-93152438D01*
X120592857Y-93152438D02*
X120640476Y-93200057D01*
X120640476Y-93200057D02*
X120688095Y-93295295D01*
X120688095Y-93295295D02*
X120688095Y-93390533D01*
X120688095Y-93390533D02*
X120640476Y-93533390D01*
X120640476Y-93533390D02*
X120069048Y-94104819D01*
X120069048Y-94104819D02*
X120688095Y-94104819D01*
D11*
X71038333Y-89993365D02*
X70977857Y-90053842D01*
X70977857Y-90053842D02*
X70796428Y-90114318D01*
X70796428Y-90114318D02*
X70675476Y-90114318D01*
X70675476Y-90114318D02*
X70494047Y-90053842D01*
X70494047Y-90053842D02*
X70373095Y-89932889D01*
X70373095Y-89932889D02*
X70312618Y-89811937D01*
X70312618Y-89811937D02*
X70252142Y-89570032D01*
X70252142Y-89570032D02*
X70252142Y-89388603D01*
X70252142Y-89388603D02*
X70312618Y-89146699D01*
X70312618Y-89146699D02*
X70373095Y-89025746D01*
X70373095Y-89025746D02*
X70494047Y-88904794D01*
X70494047Y-88904794D02*
X70675476Y-88844318D01*
X70675476Y-88844318D02*
X70796428Y-88844318D01*
X70796428Y-88844318D02*
X70977857Y-88904794D01*
X70977857Y-88904794D02*
X71038333Y-88965270D01*
X72126904Y-89267651D02*
X72126904Y-90114318D01*
X71824523Y-88783842D02*
X71522142Y-89690984D01*
X71522142Y-89690984D02*
X72308333Y-89690984D01*
D10*
X122697619Y-60904819D02*
X123030952Y-61904819D01*
X123030952Y-61904819D02*
X123364285Y-60904819D01*
X123697619Y-61904819D02*
X123697619Y-60904819D01*
X123697619Y-60904819D02*
X123935714Y-60904819D01*
X123935714Y-60904819D02*
X124078571Y-60952438D01*
X124078571Y-60952438D02*
X124173809Y-61047676D01*
X124173809Y-61047676D02*
X124221428Y-61142914D01*
X124221428Y-61142914D02*
X124269047Y-61333390D01*
X124269047Y-61333390D02*
X124269047Y-61476247D01*
X124269047Y-61476247D02*
X124221428Y-61666723D01*
X124221428Y-61666723D02*
X124173809Y-61761961D01*
X124173809Y-61761961D02*
X124078571Y-61857200D01*
X124078571Y-61857200D02*
X123935714Y-61904819D01*
X123935714Y-61904819D02*
X123697619Y-61904819D01*
X124697619Y-61904819D02*
X124697619Y-60904819D01*
X124697619Y-60904819D02*
X124935714Y-60904819D01*
X124935714Y-60904819D02*
X125078571Y-60952438D01*
X125078571Y-60952438D02*
X125173809Y-61047676D01*
X125173809Y-61047676D02*
X125221428Y-61142914D01*
X125221428Y-61142914D02*
X125269047Y-61333390D01*
X125269047Y-61333390D02*
X125269047Y-61476247D01*
X125269047Y-61476247D02*
X125221428Y-61666723D01*
X125221428Y-61666723D02*
X125173809Y-61761961D01*
X125173809Y-61761961D02*
X125078571Y-61857200D01*
X125078571Y-61857200D02*
X124935714Y-61904819D01*
X124935714Y-61904819D02*
X124697619Y-61904819D01*
X125459524Y-62000057D02*
X126221428Y-62000057D01*
X126459524Y-61904819D02*
X126459524Y-60904819D01*
X126459524Y-60904819D02*
X126840476Y-60904819D01*
X126840476Y-60904819D02*
X126935714Y-60952438D01*
X126935714Y-60952438D02*
X126983333Y-61000057D01*
X126983333Y-61000057D02*
X127030952Y-61095295D01*
X127030952Y-61095295D02*
X127030952Y-61238152D01*
X127030952Y-61238152D02*
X126983333Y-61333390D01*
X126983333Y-61333390D02*
X126935714Y-61381009D01*
X126935714Y-61381009D02*
X126840476Y-61428628D01*
X126840476Y-61428628D02*
X126459524Y-61428628D01*
X127459524Y-61904819D02*
X127459524Y-60904819D01*
X127935714Y-61904819D02*
X127935714Y-60904819D01*
X127935714Y-60904819D02*
X128507142Y-61904819D01*
X128507142Y-61904819D02*
X128507142Y-60904819D01*
X129507142Y-61904819D02*
X128935714Y-61904819D01*
X129221428Y-61904819D02*
X129221428Y-60904819D01*
X129221428Y-60904819D02*
X129126190Y-61047676D01*
X129126190Y-61047676D02*
X129030952Y-61142914D01*
X129030952Y-61142914D02*
X128935714Y-61190533D01*
X73488095Y-61006819D02*
X74059523Y-61006819D01*
X73773809Y-62006819D02*
X73773809Y-61006819D01*
X74392857Y-62006819D02*
X74392857Y-61006819D01*
X74392857Y-61006819D02*
X74773809Y-61006819D01*
X74773809Y-61006819D02*
X74869047Y-61054438D01*
X74869047Y-61054438D02*
X74916666Y-61102057D01*
X74916666Y-61102057D02*
X74964285Y-61197295D01*
X74964285Y-61197295D02*
X74964285Y-61340152D01*
X74964285Y-61340152D02*
X74916666Y-61435390D01*
X74916666Y-61435390D02*
X74869047Y-61483009D01*
X74869047Y-61483009D02*
X74773809Y-61530628D01*
X74773809Y-61530628D02*
X74392857Y-61530628D01*
X75916666Y-62006819D02*
X75345238Y-62006819D01*
X75630952Y-62006819D02*
X75630952Y-61006819D01*
X75630952Y-61006819D02*
X75535714Y-61149676D01*
X75535714Y-61149676D02*
X75440476Y-61244914D01*
X75440476Y-61244914D02*
X75345238Y-61292533D01*
X68224819Y-80671428D02*
X67748628Y-81004761D01*
X68224819Y-81242856D02*
X67224819Y-81242856D01*
X67224819Y-81242856D02*
X67224819Y-80861904D01*
X67224819Y-80861904D02*
X67272438Y-80766666D01*
X67272438Y-80766666D02*
X67320057Y-80719047D01*
X67320057Y-80719047D02*
X67415295Y-80671428D01*
X67415295Y-80671428D02*
X67558152Y-80671428D01*
X67558152Y-80671428D02*
X67653390Y-80719047D01*
X67653390Y-80719047D02*
X67701009Y-80766666D01*
X67701009Y-80766666D02*
X67748628Y-80861904D01*
X67748628Y-80861904D02*
X67748628Y-81242856D01*
X68320057Y-80480952D02*
X68320057Y-79719047D01*
X68224819Y-79480951D02*
X67224819Y-79480951D01*
X67701009Y-79480951D02*
X67701009Y-78909523D01*
X68224819Y-78909523D02*
X67224819Y-78909523D01*
X67320057Y-78480951D02*
X67272438Y-78433332D01*
X67272438Y-78433332D02*
X67224819Y-78338094D01*
X67224819Y-78338094D02*
X67224819Y-78099999D01*
X67224819Y-78099999D02*
X67272438Y-78004761D01*
X67272438Y-78004761D02*
X67320057Y-77957142D01*
X67320057Y-77957142D02*
X67415295Y-77909523D01*
X67415295Y-77909523D02*
X67510533Y-77909523D01*
X67510533Y-77909523D02*
X67653390Y-77957142D01*
X67653390Y-77957142D02*
X68224819Y-78528570D01*
X68224819Y-78528570D02*
X68224819Y-77909523D01*
X113350000Y-38504819D02*
X113540476Y-38504819D01*
X113540476Y-38504819D02*
X113635714Y-38552438D01*
X113635714Y-38552438D02*
X113730952Y-38647676D01*
X113730952Y-38647676D02*
X113778571Y-38838152D01*
X113778571Y-38838152D02*
X113778571Y-39171485D01*
X113778571Y-39171485D02*
X113730952Y-39361961D01*
X113730952Y-39361961D02*
X113635714Y-39457200D01*
X113635714Y-39457200D02*
X113540476Y-39504819D01*
X113540476Y-39504819D02*
X113350000Y-39504819D01*
X113350000Y-39504819D02*
X113254762Y-39457200D01*
X113254762Y-39457200D02*
X113159524Y-39361961D01*
X113159524Y-39361961D02*
X113111905Y-39171485D01*
X113111905Y-39171485D02*
X113111905Y-38838152D01*
X113111905Y-38838152D02*
X113159524Y-38647676D01*
X113159524Y-38647676D02*
X113254762Y-38552438D01*
X113254762Y-38552438D02*
X113350000Y-38504819D01*
X114207143Y-38504819D02*
X114207143Y-39314342D01*
X114207143Y-39314342D02*
X114254762Y-39409580D01*
X114254762Y-39409580D02*
X114302381Y-39457200D01*
X114302381Y-39457200D02*
X114397619Y-39504819D01*
X114397619Y-39504819D02*
X114588095Y-39504819D01*
X114588095Y-39504819D02*
X114683333Y-39457200D01*
X114683333Y-39457200D02*
X114730952Y-39409580D01*
X114730952Y-39409580D02*
X114778571Y-39314342D01*
X114778571Y-39314342D02*
X114778571Y-38504819D01*
X115111905Y-38504819D02*
X115683333Y-38504819D01*
X115397619Y-39504819D02*
X115397619Y-38504819D01*
X116016667Y-39504819D02*
X116016667Y-38504819D01*
X116016667Y-38504819D02*
X116397619Y-38504819D01*
X116397619Y-38504819D02*
X116492857Y-38552438D01*
X116492857Y-38552438D02*
X116540476Y-38600057D01*
X116540476Y-38600057D02*
X116588095Y-38695295D01*
X116588095Y-38695295D02*
X116588095Y-38838152D01*
X116588095Y-38838152D02*
X116540476Y-38933390D01*
X116540476Y-38933390D02*
X116492857Y-38981009D01*
X116492857Y-38981009D02*
X116397619Y-39028628D01*
X116397619Y-39028628D02*
X116016667Y-39028628D01*
X117016667Y-38504819D02*
X117016667Y-39314342D01*
X117016667Y-39314342D02*
X117064286Y-39409580D01*
X117064286Y-39409580D02*
X117111905Y-39457200D01*
X117111905Y-39457200D02*
X117207143Y-39504819D01*
X117207143Y-39504819D02*
X117397619Y-39504819D01*
X117397619Y-39504819D02*
X117492857Y-39457200D01*
X117492857Y-39457200D02*
X117540476Y-39409580D01*
X117540476Y-39409580D02*
X117588095Y-39314342D01*
X117588095Y-39314342D02*
X117588095Y-38504819D01*
X117921429Y-38504819D02*
X118492857Y-38504819D01*
X118207143Y-39504819D02*
X118207143Y-38504819D01*
X118826191Y-39123866D02*
X119588096Y-39123866D01*
X120588095Y-39504819D02*
X120016667Y-39504819D01*
X120302381Y-39504819D02*
X120302381Y-38504819D01*
X120302381Y-38504819D02*
X120207143Y-38647676D01*
X120207143Y-38647676D02*
X120111905Y-38742914D01*
X120111905Y-38742914D02*
X120016667Y-38790533D01*
X113447619Y-56156819D02*
X113780952Y-57156819D01*
X113780952Y-57156819D02*
X114114285Y-56156819D01*
X114447619Y-57156819D02*
X114447619Y-56156819D01*
X114447619Y-56156819D02*
X114685714Y-56156819D01*
X114685714Y-56156819D02*
X114828571Y-56204438D01*
X114828571Y-56204438D02*
X114923809Y-56299676D01*
X114923809Y-56299676D02*
X114971428Y-56394914D01*
X114971428Y-56394914D02*
X115019047Y-56585390D01*
X115019047Y-56585390D02*
X115019047Y-56728247D01*
X115019047Y-56728247D02*
X114971428Y-56918723D01*
X114971428Y-56918723D02*
X114923809Y-57013961D01*
X114923809Y-57013961D02*
X114828571Y-57109200D01*
X114828571Y-57109200D02*
X114685714Y-57156819D01*
X114685714Y-57156819D02*
X114447619Y-57156819D01*
X115447619Y-57156819D02*
X115447619Y-56156819D01*
X115447619Y-56156819D02*
X115685714Y-56156819D01*
X115685714Y-56156819D02*
X115828571Y-56204438D01*
X115828571Y-56204438D02*
X115923809Y-56299676D01*
X115923809Y-56299676D02*
X115971428Y-56394914D01*
X115971428Y-56394914D02*
X116019047Y-56585390D01*
X116019047Y-56585390D02*
X116019047Y-56728247D01*
X116019047Y-56728247D02*
X115971428Y-56918723D01*
X115971428Y-56918723D02*
X115923809Y-57013961D01*
X115923809Y-57013961D02*
X115828571Y-57109200D01*
X115828571Y-57109200D02*
X115685714Y-57156819D01*
X115685714Y-57156819D02*
X115447619Y-57156819D01*
X116209524Y-57252057D02*
X116971428Y-57252057D01*
X117209524Y-57156819D02*
X117209524Y-56156819D01*
X117209524Y-56156819D02*
X117590476Y-56156819D01*
X117590476Y-56156819D02*
X117685714Y-56204438D01*
X117685714Y-56204438D02*
X117733333Y-56252057D01*
X117733333Y-56252057D02*
X117780952Y-56347295D01*
X117780952Y-56347295D02*
X117780952Y-56490152D01*
X117780952Y-56490152D02*
X117733333Y-56585390D01*
X117733333Y-56585390D02*
X117685714Y-56633009D01*
X117685714Y-56633009D02*
X117590476Y-56680628D01*
X117590476Y-56680628D02*
X117209524Y-56680628D01*
X118209524Y-57156819D02*
X118209524Y-56156819D01*
X118685714Y-57156819D02*
X118685714Y-56156819D01*
X118685714Y-56156819D02*
X119257142Y-57156819D01*
X119257142Y-57156819D02*
X119257142Y-56156819D01*
X119638095Y-56156819D02*
X120257142Y-56156819D01*
X120257142Y-56156819D02*
X119923809Y-56537771D01*
X119923809Y-56537771D02*
X120066666Y-56537771D01*
X120066666Y-56537771D02*
X120161904Y-56585390D01*
X120161904Y-56585390D02*
X120209523Y-56633009D01*
X120209523Y-56633009D02*
X120257142Y-56728247D01*
X120257142Y-56728247D02*
X120257142Y-56966342D01*
X120257142Y-56966342D02*
X120209523Y-57061580D01*
X120209523Y-57061580D02*
X120161904Y-57109200D01*
X120161904Y-57109200D02*
X120066666Y-57156819D01*
X120066666Y-57156819D02*
X119780952Y-57156819D01*
X119780952Y-57156819D02*
X119685714Y-57109200D01*
X119685714Y-57109200D02*
X119638095Y-57061580D01*
X110969047Y-68602438D02*
X110873809Y-68554819D01*
X110873809Y-68554819D02*
X110730952Y-68554819D01*
X110730952Y-68554819D02*
X110588095Y-68602438D01*
X110588095Y-68602438D02*
X110492857Y-68697676D01*
X110492857Y-68697676D02*
X110445238Y-68792914D01*
X110445238Y-68792914D02*
X110397619Y-68983390D01*
X110397619Y-68983390D02*
X110397619Y-69126247D01*
X110397619Y-69126247D02*
X110445238Y-69316723D01*
X110445238Y-69316723D02*
X110492857Y-69411961D01*
X110492857Y-69411961D02*
X110588095Y-69507200D01*
X110588095Y-69507200D02*
X110730952Y-69554819D01*
X110730952Y-69554819D02*
X110826190Y-69554819D01*
X110826190Y-69554819D02*
X110969047Y-69507200D01*
X110969047Y-69507200D02*
X111016666Y-69459580D01*
X111016666Y-69459580D02*
X111016666Y-69126247D01*
X111016666Y-69126247D02*
X110826190Y-69126247D01*
X111445238Y-69554819D02*
X111445238Y-68554819D01*
X111445238Y-68554819D02*
X112016666Y-69554819D01*
X112016666Y-69554819D02*
X112016666Y-68554819D01*
X112492857Y-69554819D02*
X112492857Y-68554819D01*
X112492857Y-68554819D02*
X112730952Y-68554819D01*
X112730952Y-68554819D02*
X112873809Y-68602438D01*
X112873809Y-68602438D02*
X112969047Y-68697676D01*
X112969047Y-68697676D02*
X113016666Y-68792914D01*
X113016666Y-68792914D02*
X113064285Y-68983390D01*
X113064285Y-68983390D02*
X113064285Y-69126247D01*
X113064285Y-69126247D02*
X113016666Y-69316723D01*
X113016666Y-69316723D02*
X112969047Y-69411961D01*
X112969047Y-69411961D02*
X112873809Y-69507200D01*
X112873809Y-69507200D02*
X112730952Y-69554819D01*
X112730952Y-69554819D02*
X112492857Y-69554819D01*
X113254762Y-69650057D02*
X114016666Y-69650057D01*
X114254762Y-69554819D02*
X114254762Y-68554819D01*
X114254762Y-68554819D02*
X114635714Y-68554819D01*
X114635714Y-68554819D02*
X114730952Y-68602438D01*
X114730952Y-68602438D02*
X114778571Y-68650057D01*
X114778571Y-68650057D02*
X114826190Y-68745295D01*
X114826190Y-68745295D02*
X114826190Y-68888152D01*
X114826190Y-68888152D02*
X114778571Y-68983390D01*
X114778571Y-68983390D02*
X114730952Y-69031009D01*
X114730952Y-69031009D02*
X114635714Y-69078628D01*
X114635714Y-69078628D02*
X114254762Y-69078628D01*
X115254762Y-69554819D02*
X115254762Y-68554819D01*
X115730952Y-69554819D02*
X115730952Y-68554819D01*
X115730952Y-68554819D02*
X116302380Y-69554819D01*
X116302380Y-69554819D02*
X116302380Y-68554819D01*
X117302380Y-69554819D02*
X116730952Y-69554819D01*
X117016666Y-69554819D02*
X117016666Y-68554819D01*
X117016666Y-68554819D02*
X116921428Y-68697676D01*
X116921428Y-68697676D02*
X116826190Y-68792914D01*
X116826190Y-68792914D02*
X116730952Y-68840533D01*
D11*
X53938333Y-89993365D02*
X53877857Y-90053842D01*
X53877857Y-90053842D02*
X53696428Y-90114318D01*
X53696428Y-90114318D02*
X53575476Y-90114318D01*
X53575476Y-90114318D02*
X53394047Y-90053842D01*
X53394047Y-90053842D02*
X53273095Y-89932889D01*
X53273095Y-89932889D02*
X53212618Y-89811937D01*
X53212618Y-89811937D02*
X53152142Y-89570032D01*
X53152142Y-89570032D02*
X53152142Y-89388603D01*
X53152142Y-89388603D02*
X53212618Y-89146699D01*
X53212618Y-89146699D02*
X53273095Y-89025746D01*
X53273095Y-89025746D02*
X53394047Y-88904794D01*
X53394047Y-88904794D02*
X53575476Y-88844318D01*
X53575476Y-88844318D02*
X53696428Y-88844318D01*
X53696428Y-88844318D02*
X53877857Y-88904794D01*
X53877857Y-88904794D02*
X53938333Y-88965270D01*
X54361666Y-88844318D02*
X55147857Y-88844318D01*
X55147857Y-88844318D02*
X54724523Y-89328127D01*
X54724523Y-89328127D02*
X54905952Y-89328127D01*
X54905952Y-89328127D02*
X55026904Y-89388603D01*
X55026904Y-89388603D02*
X55087380Y-89449080D01*
X55087380Y-89449080D02*
X55147857Y-89570032D01*
X55147857Y-89570032D02*
X55147857Y-89872413D01*
X55147857Y-89872413D02*
X55087380Y-89993365D01*
X55087380Y-89993365D02*
X55026904Y-90053842D01*
X55026904Y-90053842D02*
X54905952Y-90114318D01*
X54905952Y-90114318D02*
X54543095Y-90114318D01*
X54543095Y-90114318D02*
X54422142Y-90053842D01*
X54422142Y-90053842D02*
X54361666Y-89993365D01*
D10*
X84188095Y-84606819D02*
X84759523Y-84606819D01*
X84473809Y-85606819D02*
X84473809Y-84606819D01*
X85092857Y-85606819D02*
X85092857Y-84606819D01*
X85092857Y-84606819D02*
X85473809Y-84606819D01*
X85473809Y-84606819D02*
X85569047Y-84654438D01*
X85569047Y-84654438D02*
X85616666Y-84702057D01*
X85616666Y-84702057D02*
X85664285Y-84797295D01*
X85664285Y-84797295D02*
X85664285Y-84940152D01*
X85664285Y-84940152D02*
X85616666Y-85035390D01*
X85616666Y-85035390D02*
X85569047Y-85083009D01*
X85569047Y-85083009D02*
X85473809Y-85130628D01*
X85473809Y-85130628D02*
X85092857Y-85130628D01*
X86569047Y-84606819D02*
X86092857Y-84606819D01*
X86092857Y-84606819D02*
X86045238Y-85083009D01*
X86045238Y-85083009D02*
X86092857Y-85035390D01*
X86092857Y-85035390D02*
X86188095Y-84987771D01*
X86188095Y-84987771D02*
X86426190Y-84987771D01*
X86426190Y-84987771D02*
X86521428Y-85035390D01*
X86521428Y-85035390D02*
X86569047Y-85083009D01*
X86569047Y-85083009D02*
X86616666Y-85178247D01*
X86616666Y-85178247D02*
X86616666Y-85416342D01*
X86616666Y-85416342D02*
X86569047Y-85511580D01*
X86569047Y-85511580D02*
X86521428Y-85559200D01*
X86521428Y-85559200D02*
X86426190Y-85606819D01*
X86426190Y-85606819D02*
X86188095Y-85606819D01*
X86188095Y-85606819D02*
X86092857Y-85559200D01*
X86092857Y-85559200D02*
X86045238Y-85511580D01*
X76888095Y-60906819D02*
X77459523Y-60906819D01*
X77173809Y-61906819D02*
X77173809Y-60906819D01*
X77792857Y-61906819D02*
X77792857Y-60906819D01*
X77792857Y-60906819D02*
X78173809Y-60906819D01*
X78173809Y-60906819D02*
X78269047Y-60954438D01*
X78269047Y-60954438D02*
X78316666Y-61002057D01*
X78316666Y-61002057D02*
X78364285Y-61097295D01*
X78364285Y-61097295D02*
X78364285Y-61240152D01*
X78364285Y-61240152D02*
X78316666Y-61335390D01*
X78316666Y-61335390D02*
X78269047Y-61383009D01*
X78269047Y-61383009D02*
X78173809Y-61430628D01*
X78173809Y-61430628D02*
X77792857Y-61430628D01*
X78745238Y-61002057D02*
X78792857Y-60954438D01*
X78792857Y-60954438D02*
X78888095Y-60906819D01*
X78888095Y-60906819D02*
X79126190Y-60906819D01*
X79126190Y-60906819D02*
X79221428Y-60954438D01*
X79221428Y-60954438D02*
X79269047Y-61002057D01*
X79269047Y-61002057D02*
X79316666Y-61097295D01*
X79316666Y-61097295D02*
X79316666Y-61192533D01*
X79316666Y-61192533D02*
X79269047Y-61335390D01*
X79269047Y-61335390D02*
X78697619Y-61906819D01*
X78697619Y-61906819D02*
X79316666Y-61906819D01*
X101724819Y-52514285D02*
X100724819Y-52514285D01*
X100724819Y-52514285D02*
X101724819Y-51942857D01*
X101724819Y-51942857D02*
X100724819Y-51942857D01*
X101724819Y-51466666D02*
X100724819Y-51466666D01*
X100724819Y-51466666D02*
X101439104Y-51133333D01*
X101439104Y-51133333D02*
X100724819Y-50800000D01*
X100724819Y-50800000D02*
X101724819Y-50800000D01*
X100724819Y-50133333D02*
X100724819Y-49942857D01*
X100724819Y-49942857D02*
X100772438Y-49847619D01*
X100772438Y-49847619D02*
X100867676Y-49752381D01*
X100867676Y-49752381D02*
X101058152Y-49704762D01*
X101058152Y-49704762D02*
X101391485Y-49704762D01*
X101391485Y-49704762D02*
X101581961Y-49752381D01*
X101581961Y-49752381D02*
X101677200Y-49847619D01*
X101677200Y-49847619D02*
X101724819Y-49942857D01*
X101724819Y-49942857D02*
X101724819Y-50133333D01*
X101724819Y-50133333D02*
X101677200Y-50228571D01*
X101677200Y-50228571D02*
X101581961Y-50323809D01*
X101581961Y-50323809D02*
X101391485Y-50371428D01*
X101391485Y-50371428D02*
X101058152Y-50371428D01*
X101058152Y-50371428D02*
X100867676Y-50323809D01*
X100867676Y-50323809D02*
X100772438Y-50228571D01*
X100772438Y-50228571D02*
X100724819Y-50133333D01*
X101677200Y-49323809D02*
X101724819Y-49180952D01*
X101724819Y-49180952D02*
X101724819Y-48942857D01*
X101724819Y-48942857D02*
X101677200Y-48847619D01*
X101677200Y-48847619D02*
X101629580Y-48800000D01*
X101629580Y-48800000D02*
X101534342Y-48752381D01*
X101534342Y-48752381D02*
X101439104Y-48752381D01*
X101439104Y-48752381D02*
X101343866Y-48800000D01*
X101343866Y-48800000D02*
X101296247Y-48847619D01*
X101296247Y-48847619D02*
X101248628Y-48942857D01*
X101248628Y-48942857D02*
X101201009Y-49133333D01*
X101201009Y-49133333D02*
X101153390Y-49228571D01*
X101153390Y-49228571D02*
X101105771Y-49276190D01*
X101105771Y-49276190D02*
X101010533Y-49323809D01*
X101010533Y-49323809D02*
X100915295Y-49323809D01*
X100915295Y-49323809D02*
X100820057Y-49276190D01*
X100820057Y-49276190D02*
X100772438Y-49228571D01*
X100772438Y-49228571D02*
X100724819Y-49133333D01*
X100724819Y-49133333D02*
X100724819Y-48895238D01*
X100724819Y-48895238D02*
X100772438Y-48752381D01*
X101820057Y-48561905D02*
X101820057Y-47800000D01*
X100820057Y-47609523D02*
X100772438Y-47561904D01*
X100772438Y-47561904D02*
X100724819Y-47466666D01*
X100724819Y-47466666D02*
X100724819Y-47228571D01*
X100724819Y-47228571D02*
X100772438Y-47133333D01*
X100772438Y-47133333D02*
X100820057Y-47085714D01*
X100820057Y-47085714D02*
X100915295Y-47038095D01*
X100915295Y-47038095D02*
X101010533Y-47038095D01*
X101010533Y-47038095D02*
X101153390Y-47085714D01*
X101153390Y-47085714D02*
X101724819Y-47657142D01*
X101724819Y-47657142D02*
X101724819Y-47038095D01*
X122600000Y-93154819D02*
X122790476Y-93154819D01*
X122790476Y-93154819D02*
X122885714Y-93202438D01*
X122885714Y-93202438D02*
X122980952Y-93297676D01*
X122980952Y-93297676D02*
X123028571Y-93488152D01*
X123028571Y-93488152D02*
X123028571Y-93821485D01*
X123028571Y-93821485D02*
X122980952Y-94011961D01*
X122980952Y-94011961D02*
X122885714Y-94107200D01*
X122885714Y-94107200D02*
X122790476Y-94154819D01*
X122790476Y-94154819D02*
X122600000Y-94154819D01*
X122600000Y-94154819D02*
X122504762Y-94107200D01*
X122504762Y-94107200D02*
X122409524Y-94011961D01*
X122409524Y-94011961D02*
X122361905Y-93821485D01*
X122361905Y-93821485D02*
X122361905Y-93488152D01*
X122361905Y-93488152D02*
X122409524Y-93297676D01*
X122409524Y-93297676D02*
X122504762Y-93202438D01*
X122504762Y-93202438D02*
X122600000Y-93154819D01*
X123457143Y-93154819D02*
X123457143Y-93964342D01*
X123457143Y-93964342D02*
X123504762Y-94059580D01*
X123504762Y-94059580D02*
X123552381Y-94107200D01*
X123552381Y-94107200D02*
X123647619Y-94154819D01*
X123647619Y-94154819D02*
X123838095Y-94154819D01*
X123838095Y-94154819D02*
X123933333Y-94107200D01*
X123933333Y-94107200D02*
X123980952Y-94059580D01*
X123980952Y-94059580D02*
X124028571Y-93964342D01*
X124028571Y-93964342D02*
X124028571Y-93154819D01*
X124361905Y-93154819D02*
X124933333Y-93154819D01*
X124647619Y-94154819D02*
X124647619Y-93154819D01*
X125266667Y-94154819D02*
X125266667Y-93154819D01*
X125266667Y-93154819D02*
X125647619Y-93154819D01*
X125647619Y-93154819D02*
X125742857Y-93202438D01*
X125742857Y-93202438D02*
X125790476Y-93250057D01*
X125790476Y-93250057D02*
X125838095Y-93345295D01*
X125838095Y-93345295D02*
X125838095Y-93488152D01*
X125838095Y-93488152D02*
X125790476Y-93583390D01*
X125790476Y-93583390D02*
X125742857Y-93631009D01*
X125742857Y-93631009D02*
X125647619Y-93678628D01*
X125647619Y-93678628D02*
X125266667Y-93678628D01*
X126266667Y-93154819D02*
X126266667Y-93964342D01*
X126266667Y-93964342D02*
X126314286Y-94059580D01*
X126314286Y-94059580D02*
X126361905Y-94107200D01*
X126361905Y-94107200D02*
X126457143Y-94154819D01*
X126457143Y-94154819D02*
X126647619Y-94154819D01*
X126647619Y-94154819D02*
X126742857Y-94107200D01*
X126742857Y-94107200D02*
X126790476Y-94059580D01*
X126790476Y-94059580D02*
X126838095Y-93964342D01*
X126838095Y-93964342D02*
X126838095Y-93154819D01*
X127171429Y-93154819D02*
X127742857Y-93154819D01*
X127457143Y-94154819D02*
X127457143Y-93154819D01*
X128076191Y-93773866D02*
X128838096Y-93773866D01*
X129742857Y-93488152D02*
X129742857Y-94154819D01*
X129504762Y-93107200D02*
X129266667Y-93821485D01*
X129266667Y-93821485D02*
X129885714Y-93821485D01*
X72959523Y-56584819D02*
X72626190Y-56108628D01*
X72388095Y-56584819D02*
X72388095Y-55584819D01*
X72388095Y-55584819D02*
X72769047Y-55584819D01*
X72769047Y-55584819D02*
X72864285Y-55632438D01*
X72864285Y-55632438D02*
X72911904Y-55680057D01*
X72911904Y-55680057D02*
X72959523Y-55775295D01*
X72959523Y-55775295D02*
X72959523Y-55918152D01*
X72959523Y-55918152D02*
X72911904Y-56013390D01*
X72911904Y-56013390D02*
X72864285Y-56061009D01*
X72864285Y-56061009D02*
X72769047Y-56108628D01*
X72769047Y-56108628D02*
X72388095Y-56108628D01*
X73388095Y-56584819D02*
X73388095Y-55584819D01*
X73388095Y-55584819D02*
X73769047Y-55584819D01*
X73769047Y-55584819D02*
X73864285Y-55632438D01*
X73864285Y-55632438D02*
X73911904Y-55680057D01*
X73911904Y-55680057D02*
X73959523Y-55775295D01*
X73959523Y-55775295D02*
X73959523Y-55918152D01*
X73959523Y-55918152D02*
X73911904Y-56013390D01*
X73911904Y-56013390D02*
X73864285Y-56061009D01*
X73864285Y-56061009D02*
X73769047Y-56108628D01*
X73769047Y-56108628D02*
X73388095Y-56108628D01*
X74388095Y-55584819D02*
X74388095Y-56394342D01*
X74388095Y-56394342D02*
X74435714Y-56489580D01*
X74435714Y-56489580D02*
X74483333Y-56537200D01*
X74483333Y-56537200D02*
X74578571Y-56584819D01*
X74578571Y-56584819D02*
X74769047Y-56584819D01*
X74769047Y-56584819D02*
X74864285Y-56537200D01*
X74864285Y-56537200D02*
X74911904Y-56489580D01*
X74911904Y-56489580D02*
X74959523Y-56394342D01*
X74959523Y-56394342D02*
X74959523Y-55584819D01*
X75959523Y-56584819D02*
X75388095Y-56584819D01*
X75673809Y-56584819D02*
X75673809Y-55584819D01*
X75673809Y-55584819D02*
X75578571Y-55727676D01*
X75578571Y-55727676D02*
X75483333Y-55822914D01*
X75483333Y-55822914D02*
X75388095Y-55870533D01*
X82788095Y-61006819D02*
X83359523Y-61006819D01*
X83073809Y-62006819D02*
X83073809Y-61006819D01*
X83692857Y-62006819D02*
X83692857Y-61006819D01*
X83692857Y-61006819D02*
X84073809Y-61006819D01*
X84073809Y-61006819D02*
X84169047Y-61054438D01*
X84169047Y-61054438D02*
X84216666Y-61102057D01*
X84216666Y-61102057D02*
X84264285Y-61197295D01*
X84264285Y-61197295D02*
X84264285Y-61340152D01*
X84264285Y-61340152D02*
X84216666Y-61435390D01*
X84216666Y-61435390D02*
X84169047Y-61483009D01*
X84169047Y-61483009D02*
X84073809Y-61530628D01*
X84073809Y-61530628D02*
X83692857Y-61530628D01*
X84740476Y-62006819D02*
X84930952Y-62006819D01*
X84930952Y-62006819D02*
X85026190Y-61959200D01*
X85026190Y-61959200D02*
X85073809Y-61911580D01*
X85073809Y-61911580D02*
X85169047Y-61768723D01*
X85169047Y-61768723D02*
X85216666Y-61578247D01*
X85216666Y-61578247D02*
X85216666Y-61197295D01*
X85216666Y-61197295D02*
X85169047Y-61102057D01*
X85169047Y-61102057D02*
X85121428Y-61054438D01*
X85121428Y-61054438D02*
X85026190Y-61006819D01*
X85026190Y-61006819D02*
X84835714Y-61006819D01*
X84835714Y-61006819D02*
X84740476Y-61054438D01*
X84740476Y-61054438D02*
X84692857Y-61102057D01*
X84692857Y-61102057D02*
X84645238Y-61197295D01*
X84645238Y-61197295D02*
X84645238Y-61435390D01*
X84645238Y-61435390D02*
X84692857Y-61530628D01*
X84692857Y-61530628D02*
X84740476Y-61578247D01*
X84740476Y-61578247D02*
X84835714Y-61625866D01*
X84835714Y-61625866D02*
X85026190Y-61625866D01*
X85026190Y-61625866D02*
X85121428Y-61578247D01*
X85121428Y-61578247D02*
X85169047Y-61530628D01*
X85169047Y-61530628D02*
X85216666Y-61435390D01*
X60364819Y-65016666D02*
X59888628Y-65349999D01*
X60364819Y-65588094D02*
X59364819Y-65588094D01*
X59364819Y-65588094D02*
X59364819Y-65207142D01*
X59364819Y-65207142D02*
X59412438Y-65111904D01*
X59412438Y-65111904D02*
X59460057Y-65064285D01*
X59460057Y-65064285D02*
X59555295Y-65016666D01*
X59555295Y-65016666D02*
X59698152Y-65016666D01*
X59698152Y-65016666D02*
X59793390Y-65064285D01*
X59793390Y-65064285D02*
X59841009Y-65111904D01*
X59841009Y-65111904D02*
X59888628Y-65207142D01*
X59888628Y-65207142D02*
X59888628Y-65588094D01*
X59841009Y-64254761D02*
X59888628Y-64111904D01*
X59888628Y-64111904D02*
X59936247Y-64064285D01*
X59936247Y-64064285D02*
X60031485Y-64016666D01*
X60031485Y-64016666D02*
X60174342Y-64016666D01*
X60174342Y-64016666D02*
X60269580Y-64064285D01*
X60269580Y-64064285D02*
X60317200Y-64111904D01*
X60317200Y-64111904D02*
X60364819Y-64207142D01*
X60364819Y-64207142D02*
X60364819Y-64588094D01*
X60364819Y-64588094D02*
X59364819Y-64588094D01*
X59364819Y-64588094D02*
X59364819Y-64254761D01*
X59364819Y-64254761D02*
X59412438Y-64159523D01*
X59412438Y-64159523D02*
X59460057Y-64111904D01*
X59460057Y-64111904D02*
X59555295Y-64064285D01*
X59555295Y-64064285D02*
X59650533Y-64064285D01*
X59650533Y-64064285D02*
X59745771Y-64111904D01*
X59745771Y-64111904D02*
X59793390Y-64159523D01*
X59793390Y-64159523D02*
X59841009Y-64254761D01*
X59841009Y-64254761D02*
X59841009Y-64588094D01*
X60364819Y-63064285D02*
X60364819Y-63635713D01*
X60364819Y-63349999D02*
X59364819Y-63349999D01*
X59364819Y-63349999D02*
X59507676Y-63445237D01*
X59507676Y-63445237D02*
X59602914Y-63540475D01*
X59602914Y-63540475D02*
X59650533Y-63635713D01*
X105219047Y-101404438D02*
X105123809Y-101356819D01*
X105123809Y-101356819D02*
X104980952Y-101356819D01*
X104980952Y-101356819D02*
X104838095Y-101404438D01*
X104838095Y-101404438D02*
X104742857Y-101499676D01*
X104742857Y-101499676D02*
X104695238Y-101594914D01*
X104695238Y-101594914D02*
X104647619Y-101785390D01*
X104647619Y-101785390D02*
X104647619Y-101928247D01*
X104647619Y-101928247D02*
X104695238Y-102118723D01*
X104695238Y-102118723D02*
X104742857Y-102213961D01*
X104742857Y-102213961D02*
X104838095Y-102309200D01*
X104838095Y-102309200D02*
X104980952Y-102356819D01*
X104980952Y-102356819D02*
X105076190Y-102356819D01*
X105076190Y-102356819D02*
X105219047Y-102309200D01*
X105219047Y-102309200D02*
X105266666Y-102261580D01*
X105266666Y-102261580D02*
X105266666Y-101928247D01*
X105266666Y-101928247D02*
X105076190Y-101928247D01*
X105695238Y-102356819D02*
X105695238Y-101356819D01*
X105695238Y-101356819D02*
X106266666Y-102356819D01*
X106266666Y-102356819D02*
X106266666Y-101356819D01*
X106742857Y-102356819D02*
X106742857Y-101356819D01*
X106742857Y-101356819D02*
X106980952Y-101356819D01*
X106980952Y-101356819D02*
X107123809Y-101404438D01*
X107123809Y-101404438D02*
X107219047Y-101499676D01*
X107219047Y-101499676D02*
X107266666Y-101594914D01*
X107266666Y-101594914D02*
X107314285Y-101785390D01*
X107314285Y-101785390D02*
X107314285Y-101928247D01*
X107314285Y-101928247D02*
X107266666Y-102118723D01*
X107266666Y-102118723D02*
X107219047Y-102213961D01*
X107219047Y-102213961D02*
X107123809Y-102309200D01*
X107123809Y-102309200D02*
X106980952Y-102356819D01*
X106980952Y-102356819D02*
X106742857Y-102356819D01*
X107504762Y-102452057D02*
X108266666Y-102452057D01*
X108504762Y-102356819D02*
X108504762Y-101356819D01*
X108504762Y-101356819D02*
X108885714Y-101356819D01*
X108885714Y-101356819D02*
X108980952Y-101404438D01*
X108980952Y-101404438D02*
X109028571Y-101452057D01*
X109028571Y-101452057D02*
X109076190Y-101547295D01*
X109076190Y-101547295D02*
X109076190Y-101690152D01*
X109076190Y-101690152D02*
X109028571Y-101785390D01*
X109028571Y-101785390D02*
X108980952Y-101833009D01*
X108980952Y-101833009D02*
X108885714Y-101880628D01*
X108885714Y-101880628D02*
X108504762Y-101880628D01*
X109504762Y-102356819D02*
X109504762Y-101356819D01*
X109980952Y-102356819D02*
X109980952Y-101356819D01*
X109980952Y-101356819D02*
X110552380Y-102356819D01*
X110552380Y-102356819D02*
X110552380Y-101356819D01*
X110980952Y-101452057D02*
X111028571Y-101404438D01*
X111028571Y-101404438D02*
X111123809Y-101356819D01*
X111123809Y-101356819D02*
X111361904Y-101356819D01*
X111361904Y-101356819D02*
X111457142Y-101404438D01*
X111457142Y-101404438D02*
X111504761Y-101452057D01*
X111504761Y-101452057D02*
X111552380Y-101547295D01*
X111552380Y-101547295D02*
X111552380Y-101642533D01*
X111552380Y-101642533D02*
X111504761Y-101785390D01*
X111504761Y-101785390D02*
X110933333Y-102356819D01*
X110933333Y-102356819D02*
X111552380Y-102356819D01*
X53044819Y-76456666D02*
X52568628Y-76789999D01*
X53044819Y-77028094D02*
X52044819Y-77028094D01*
X52044819Y-77028094D02*
X52044819Y-76647142D01*
X52044819Y-76647142D02*
X52092438Y-76551904D01*
X52092438Y-76551904D02*
X52140057Y-76504285D01*
X52140057Y-76504285D02*
X52235295Y-76456666D01*
X52235295Y-76456666D02*
X52378152Y-76456666D01*
X52378152Y-76456666D02*
X52473390Y-76504285D01*
X52473390Y-76504285D02*
X52521009Y-76551904D01*
X52521009Y-76551904D02*
X52568628Y-76647142D01*
X52568628Y-76647142D02*
X52568628Y-77028094D01*
X52521009Y-75694761D02*
X52568628Y-75551904D01*
X52568628Y-75551904D02*
X52616247Y-75504285D01*
X52616247Y-75504285D02*
X52711485Y-75456666D01*
X52711485Y-75456666D02*
X52854342Y-75456666D01*
X52854342Y-75456666D02*
X52949580Y-75504285D01*
X52949580Y-75504285D02*
X52997200Y-75551904D01*
X52997200Y-75551904D02*
X53044819Y-75647142D01*
X53044819Y-75647142D02*
X53044819Y-76028094D01*
X53044819Y-76028094D02*
X52044819Y-76028094D01*
X52044819Y-76028094D02*
X52044819Y-75694761D01*
X52044819Y-75694761D02*
X52092438Y-75599523D01*
X52092438Y-75599523D02*
X52140057Y-75551904D01*
X52140057Y-75551904D02*
X52235295Y-75504285D01*
X52235295Y-75504285D02*
X52330533Y-75504285D01*
X52330533Y-75504285D02*
X52425771Y-75551904D01*
X52425771Y-75551904D02*
X52473390Y-75599523D01*
X52473390Y-75599523D02*
X52521009Y-75694761D01*
X52521009Y-75694761D02*
X52521009Y-76028094D01*
X52140057Y-75075713D02*
X52092438Y-75028094D01*
X52092438Y-75028094D02*
X52044819Y-74932856D01*
X52044819Y-74932856D02*
X52044819Y-74694761D01*
X52044819Y-74694761D02*
X52092438Y-74599523D01*
X52092438Y-74599523D02*
X52140057Y-74551904D01*
X52140057Y-74551904D02*
X52235295Y-74504285D01*
X52235295Y-74504285D02*
X52330533Y-74504285D01*
X52330533Y-74504285D02*
X52473390Y-74551904D01*
X52473390Y-74551904D02*
X53044819Y-75123332D01*
X53044819Y-75123332D02*
X53044819Y-74504285D01*
D12*
X45130723Y-104861691D02*
X45130723Y-104048891D01*
X45130723Y-104435939D02*
X45595180Y-104435939D01*
X45595180Y-104861691D02*
X45595180Y-104048891D01*
X46330571Y-104319825D02*
X46330571Y-104861691D01*
X46137047Y-104010187D02*
X45943524Y-104590758D01*
X45943524Y-104590758D02*
X46446685Y-104590758D01*
D11*
X82124318Y-48049762D02*
X80854318Y-48049762D01*
X82003365Y-46719285D02*
X82063842Y-46779761D01*
X82063842Y-46779761D02*
X82124318Y-46961190D01*
X82124318Y-46961190D02*
X82124318Y-47082142D01*
X82124318Y-47082142D02*
X82063842Y-47263571D01*
X82063842Y-47263571D02*
X81942889Y-47384523D01*
X81942889Y-47384523D02*
X81821937Y-47445000D01*
X81821937Y-47445000D02*
X81580032Y-47505476D01*
X81580032Y-47505476D02*
X81398603Y-47505476D01*
X81398603Y-47505476D02*
X81156699Y-47445000D01*
X81156699Y-47445000D02*
X81035746Y-47384523D01*
X81035746Y-47384523D02*
X80914794Y-47263571D01*
X80914794Y-47263571D02*
X80854318Y-47082142D01*
X80854318Y-47082142D02*
X80854318Y-46961190D01*
X80854318Y-46961190D02*
X80914794Y-46779761D01*
X80914794Y-46779761D02*
X80975270Y-46719285D01*
X82124318Y-45509761D02*
X82124318Y-46235476D01*
X82124318Y-45872619D02*
X80854318Y-45872619D01*
X80854318Y-45872619D02*
X81035746Y-45993571D01*
X81035746Y-45993571D02*
X81156699Y-46114523D01*
X81156699Y-46114523D02*
X81217175Y-46235476D01*
D10*
X122500000Y-39004819D02*
X122690476Y-39004819D01*
X122690476Y-39004819D02*
X122785714Y-39052438D01*
X122785714Y-39052438D02*
X122880952Y-39147676D01*
X122880952Y-39147676D02*
X122928571Y-39338152D01*
X122928571Y-39338152D02*
X122928571Y-39671485D01*
X122928571Y-39671485D02*
X122880952Y-39861961D01*
X122880952Y-39861961D02*
X122785714Y-39957200D01*
X122785714Y-39957200D02*
X122690476Y-40004819D01*
X122690476Y-40004819D02*
X122500000Y-40004819D01*
X122500000Y-40004819D02*
X122404762Y-39957200D01*
X122404762Y-39957200D02*
X122309524Y-39861961D01*
X122309524Y-39861961D02*
X122261905Y-39671485D01*
X122261905Y-39671485D02*
X122261905Y-39338152D01*
X122261905Y-39338152D02*
X122309524Y-39147676D01*
X122309524Y-39147676D02*
X122404762Y-39052438D01*
X122404762Y-39052438D02*
X122500000Y-39004819D01*
X123357143Y-39004819D02*
X123357143Y-39814342D01*
X123357143Y-39814342D02*
X123404762Y-39909580D01*
X123404762Y-39909580D02*
X123452381Y-39957200D01*
X123452381Y-39957200D02*
X123547619Y-40004819D01*
X123547619Y-40004819D02*
X123738095Y-40004819D01*
X123738095Y-40004819D02*
X123833333Y-39957200D01*
X123833333Y-39957200D02*
X123880952Y-39909580D01*
X123880952Y-39909580D02*
X123928571Y-39814342D01*
X123928571Y-39814342D02*
X123928571Y-39004819D01*
X124261905Y-39004819D02*
X124833333Y-39004819D01*
X124547619Y-40004819D02*
X124547619Y-39004819D01*
X125166667Y-40004819D02*
X125166667Y-39004819D01*
X125166667Y-39004819D02*
X125547619Y-39004819D01*
X125547619Y-39004819D02*
X125642857Y-39052438D01*
X125642857Y-39052438D02*
X125690476Y-39100057D01*
X125690476Y-39100057D02*
X125738095Y-39195295D01*
X125738095Y-39195295D02*
X125738095Y-39338152D01*
X125738095Y-39338152D02*
X125690476Y-39433390D01*
X125690476Y-39433390D02*
X125642857Y-39481009D01*
X125642857Y-39481009D02*
X125547619Y-39528628D01*
X125547619Y-39528628D02*
X125166667Y-39528628D01*
X126166667Y-39004819D02*
X126166667Y-39814342D01*
X126166667Y-39814342D02*
X126214286Y-39909580D01*
X126214286Y-39909580D02*
X126261905Y-39957200D01*
X126261905Y-39957200D02*
X126357143Y-40004819D01*
X126357143Y-40004819D02*
X126547619Y-40004819D01*
X126547619Y-40004819D02*
X126642857Y-39957200D01*
X126642857Y-39957200D02*
X126690476Y-39909580D01*
X126690476Y-39909580D02*
X126738095Y-39814342D01*
X126738095Y-39814342D02*
X126738095Y-39004819D01*
X127071429Y-39004819D02*
X127642857Y-39004819D01*
X127357143Y-40004819D02*
X127357143Y-39004819D01*
X127976191Y-39623866D02*
X128738096Y-39623866D01*
X129119048Y-39004819D02*
X129738095Y-39004819D01*
X129738095Y-39004819D02*
X129404762Y-39385771D01*
X129404762Y-39385771D02*
X129547619Y-39385771D01*
X129547619Y-39385771D02*
X129642857Y-39433390D01*
X129642857Y-39433390D02*
X129690476Y-39481009D01*
X129690476Y-39481009D02*
X129738095Y-39576247D01*
X129738095Y-39576247D02*
X129738095Y-39814342D01*
X129738095Y-39814342D02*
X129690476Y-39909580D01*
X129690476Y-39909580D02*
X129642857Y-39957200D01*
X129642857Y-39957200D02*
X129547619Y-40004819D01*
X129547619Y-40004819D02*
X129261905Y-40004819D01*
X129261905Y-40004819D02*
X129166667Y-39957200D01*
X129166667Y-39957200D02*
X129119048Y-39909580D01*
X113100000Y-45804819D02*
X113290476Y-45804819D01*
X113290476Y-45804819D02*
X113385714Y-45852438D01*
X113385714Y-45852438D02*
X113480952Y-45947676D01*
X113480952Y-45947676D02*
X113528571Y-46138152D01*
X113528571Y-46138152D02*
X113528571Y-46471485D01*
X113528571Y-46471485D02*
X113480952Y-46661961D01*
X113480952Y-46661961D02*
X113385714Y-46757200D01*
X113385714Y-46757200D02*
X113290476Y-46804819D01*
X113290476Y-46804819D02*
X113100000Y-46804819D01*
X113100000Y-46804819D02*
X113004762Y-46757200D01*
X113004762Y-46757200D02*
X112909524Y-46661961D01*
X112909524Y-46661961D02*
X112861905Y-46471485D01*
X112861905Y-46471485D02*
X112861905Y-46138152D01*
X112861905Y-46138152D02*
X112909524Y-45947676D01*
X112909524Y-45947676D02*
X113004762Y-45852438D01*
X113004762Y-45852438D02*
X113100000Y-45804819D01*
X113957143Y-45804819D02*
X113957143Y-46614342D01*
X113957143Y-46614342D02*
X114004762Y-46709580D01*
X114004762Y-46709580D02*
X114052381Y-46757200D01*
X114052381Y-46757200D02*
X114147619Y-46804819D01*
X114147619Y-46804819D02*
X114338095Y-46804819D01*
X114338095Y-46804819D02*
X114433333Y-46757200D01*
X114433333Y-46757200D02*
X114480952Y-46709580D01*
X114480952Y-46709580D02*
X114528571Y-46614342D01*
X114528571Y-46614342D02*
X114528571Y-45804819D01*
X114861905Y-45804819D02*
X115433333Y-45804819D01*
X115147619Y-46804819D02*
X115147619Y-45804819D01*
X115766667Y-46804819D02*
X115766667Y-45804819D01*
X115766667Y-45804819D02*
X116147619Y-45804819D01*
X116147619Y-45804819D02*
X116242857Y-45852438D01*
X116242857Y-45852438D02*
X116290476Y-45900057D01*
X116290476Y-45900057D02*
X116338095Y-45995295D01*
X116338095Y-45995295D02*
X116338095Y-46138152D01*
X116338095Y-46138152D02*
X116290476Y-46233390D01*
X116290476Y-46233390D02*
X116242857Y-46281009D01*
X116242857Y-46281009D02*
X116147619Y-46328628D01*
X116147619Y-46328628D02*
X115766667Y-46328628D01*
X116766667Y-45804819D02*
X116766667Y-46614342D01*
X116766667Y-46614342D02*
X116814286Y-46709580D01*
X116814286Y-46709580D02*
X116861905Y-46757200D01*
X116861905Y-46757200D02*
X116957143Y-46804819D01*
X116957143Y-46804819D02*
X117147619Y-46804819D01*
X117147619Y-46804819D02*
X117242857Y-46757200D01*
X117242857Y-46757200D02*
X117290476Y-46709580D01*
X117290476Y-46709580D02*
X117338095Y-46614342D01*
X117338095Y-46614342D02*
X117338095Y-45804819D01*
X117671429Y-45804819D02*
X118242857Y-45804819D01*
X117957143Y-46804819D02*
X117957143Y-45804819D01*
X118576191Y-46423866D02*
X119338096Y-46423866D01*
X118957143Y-46804819D02*
X118957143Y-46042914D01*
X120338095Y-46804819D02*
X119766667Y-46804819D01*
X120052381Y-46804819D02*
X120052381Y-45804819D01*
X120052381Y-45804819D02*
X119957143Y-45947676D01*
X119957143Y-45947676D02*
X119861905Y-46042914D01*
X119861905Y-46042914D02*
X119766667Y-46090533D01*
X90534819Y-53638094D02*
X89534819Y-53638094D01*
X89534819Y-53638094D02*
X89534819Y-53399999D01*
X89534819Y-53399999D02*
X89582438Y-53257142D01*
X89582438Y-53257142D02*
X89677676Y-53161904D01*
X89677676Y-53161904D02*
X89772914Y-53114285D01*
X89772914Y-53114285D02*
X89963390Y-53066666D01*
X89963390Y-53066666D02*
X90106247Y-53066666D01*
X90106247Y-53066666D02*
X90296723Y-53114285D01*
X90296723Y-53114285D02*
X90391961Y-53161904D01*
X90391961Y-53161904D02*
X90487200Y-53257142D01*
X90487200Y-53257142D02*
X90534819Y-53399999D01*
X90534819Y-53399999D02*
X90534819Y-53638094D01*
X90534819Y-52114285D02*
X90534819Y-52685713D01*
X90534819Y-52399999D02*
X89534819Y-52399999D01*
X89534819Y-52399999D02*
X89677676Y-52495237D01*
X89677676Y-52495237D02*
X89772914Y-52590475D01*
X89772914Y-52590475D02*
X89820533Y-52685713D01*
X93604819Y-63161904D02*
X92604819Y-63161904D01*
X93604819Y-62590476D02*
X93033390Y-63019047D01*
X92604819Y-62590476D02*
X93176247Y-63161904D01*
X48034819Y-62786190D02*
X47558628Y-63119523D01*
X48034819Y-63357618D02*
X47034819Y-63357618D01*
X47034819Y-63357618D02*
X47034819Y-62976666D01*
X47034819Y-62976666D02*
X47082438Y-62881428D01*
X47082438Y-62881428D02*
X47130057Y-62833809D01*
X47130057Y-62833809D02*
X47225295Y-62786190D01*
X47225295Y-62786190D02*
X47368152Y-62786190D01*
X47368152Y-62786190D02*
X47463390Y-62833809D01*
X47463390Y-62833809D02*
X47511009Y-62881428D01*
X47511009Y-62881428D02*
X47558628Y-62976666D01*
X47558628Y-62976666D02*
X47558628Y-63357618D01*
X48130057Y-62595714D02*
X48130057Y-61833809D01*
X47749104Y-61643332D02*
X47749104Y-61167142D01*
X48034819Y-61738570D02*
X47034819Y-61405237D01*
X47034819Y-61405237D02*
X48034819Y-61071904D01*
X48034819Y-60214761D02*
X48034819Y-60786189D01*
X48034819Y-60500475D02*
X47034819Y-60500475D01*
X47034819Y-60500475D02*
X47177676Y-60595713D01*
X47177676Y-60595713D02*
X47272914Y-60690951D01*
X47272914Y-60690951D02*
X47320533Y-60786189D01*
D12*
X121530723Y-35011691D02*
X121530723Y-34198891D01*
X121530723Y-34585939D02*
X121995180Y-34585939D01*
X121995180Y-35011691D02*
X121995180Y-34198891D01*
X122807981Y-35011691D02*
X122343524Y-35011691D01*
X122575752Y-35011691D02*
X122575752Y-34198891D01*
X122575752Y-34198891D02*
X122498343Y-34315006D01*
X122498343Y-34315006D02*
X122420933Y-34392415D01*
X122420933Y-34392415D02*
X122343524Y-34431120D01*
D10*
X51524819Y-96588095D02*
X51524819Y-95921429D01*
X51524819Y-95921429D02*
X52524819Y-96588095D01*
X52524819Y-96588095D02*
X52524819Y-95921429D01*
X52477200Y-95159524D02*
X52524819Y-95254762D01*
X52524819Y-95254762D02*
X52524819Y-95445238D01*
X52524819Y-95445238D02*
X52477200Y-95540476D01*
X52477200Y-95540476D02*
X52381961Y-95588095D01*
X52381961Y-95588095D02*
X52001009Y-95588095D01*
X52001009Y-95588095D02*
X51905771Y-95540476D01*
X51905771Y-95540476D02*
X51858152Y-95445238D01*
X51858152Y-95445238D02*
X51858152Y-95254762D01*
X51858152Y-95254762D02*
X51905771Y-95159524D01*
X51905771Y-95159524D02*
X52001009Y-95111905D01*
X52001009Y-95111905D02*
X52096247Y-95111905D01*
X52096247Y-95111905D02*
X52191485Y-95588095D01*
X51858152Y-94683333D02*
X52524819Y-94683333D01*
X51953390Y-94683333D02*
X51905771Y-94635714D01*
X51905771Y-94635714D02*
X51858152Y-94540476D01*
X51858152Y-94540476D02*
X51858152Y-94397619D01*
X51858152Y-94397619D02*
X51905771Y-94302381D01*
X51905771Y-94302381D02*
X52001009Y-94254762D01*
X52001009Y-94254762D02*
X52524819Y-94254762D01*
X52477200Y-93397619D02*
X52524819Y-93492857D01*
X52524819Y-93492857D02*
X52524819Y-93683333D01*
X52524819Y-93683333D02*
X52477200Y-93778571D01*
X52477200Y-93778571D02*
X52381961Y-93826190D01*
X52381961Y-93826190D02*
X52001009Y-93826190D01*
X52001009Y-93826190D02*
X51905771Y-93778571D01*
X51905771Y-93778571D02*
X51858152Y-93683333D01*
X51858152Y-93683333D02*
X51858152Y-93492857D01*
X51858152Y-93492857D02*
X51905771Y-93397619D01*
X51905771Y-93397619D02*
X52001009Y-93350000D01*
X52001009Y-93350000D02*
X52096247Y-93350000D01*
X52096247Y-93350000D02*
X52191485Y-93826190D01*
X52524819Y-92921428D02*
X51858152Y-92921428D01*
X52048628Y-92921428D02*
X51953390Y-92873809D01*
X51953390Y-92873809D02*
X51905771Y-92826190D01*
X51905771Y-92826190D02*
X51858152Y-92730952D01*
X51858152Y-92730952D02*
X51858152Y-92635714D01*
X52620057Y-92540476D02*
X52620057Y-91778571D01*
X52239104Y-91588094D02*
X52239104Y-91111904D01*
X52524819Y-91683332D02*
X51524819Y-91349999D01*
X51524819Y-91349999D02*
X52524819Y-91016666D01*
X51620057Y-90730951D02*
X51572438Y-90683332D01*
X51572438Y-90683332D02*
X51524819Y-90588094D01*
X51524819Y-90588094D02*
X51524819Y-90349999D01*
X51524819Y-90349999D02*
X51572438Y-90254761D01*
X51572438Y-90254761D02*
X51620057Y-90207142D01*
X51620057Y-90207142D02*
X51715295Y-90159523D01*
X51715295Y-90159523D02*
X51810533Y-90159523D01*
X51810533Y-90159523D02*
X51953390Y-90207142D01*
X51953390Y-90207142D02*
X52524819Y-90778570D01*
X52524819Y-90778570D02*
X52524819Y-90159523D01*
X52204819Y-89801904D02*
X51204819Y-89801904D01*
X52204819Y-89230476D02*
X51633390Y-89659047D01*
X51204819Y-89230476D02*
X51776247Y-89801904D01*
X101724819Y-91814285D02*
X100724819Y-91814285D01*
X100724819Y-91814285D02*
X101724819Y-91242857D01*
X101724819Y-91242857D02*
X100724819Y-91242857D01*
X101724819Y-90766666D02*
X100724819Y-90766666D01*
X100724819Y-90766666D02*
X101439104Y-90433333D01*
X101439104Y-90433333D02*
X100724819Y-90100000D01*
X100724819Y-90100000D02*
X101724819Y-90100000D01*
X100724819Y-89433333D02*
X100724819Y-89242857D01*
X100724819Y-89242857D02*
X100772438Y-89147619D01*
X100772438Y-89147619D02*
X100867676Y-89052381D01*
X100867676Y-89052381D02*
X101058152Y-89004762D01*
X101058152Y-89004762D02*
X101391485Y-89004762D01*
X101391485Y-89004762D02*
X101581961Y-89052381D01*
X101581961Y-89052381D02*
X101677200Y-89147619D01*
X101677200Y-89147619D02*
X101724819Y-89242857D01*
X101724819Y-89242857D02*
X101724819Y-89433333D01*
X101724819Y-89433333D02*
X101677200Y-89528571D01*
X101677200Y-89528571D02*
X101581961Y-89623809D01*
X101581961Y-89623809D02*
X101391485Y-89671428D01*
X101391485Y-89671428D02*
X101058152Y-89671428D01*
X101058152Y-89671428D02*
X100867676Y-89623809D01*
X100867676Y-89623809D02*
X100772438Y-89528571D01*
X100772438Y-89528571D02*
X100724819Y-89433333D01*
X101677200Y-88623809D02*
X101724819Y-88480952D01*
X101724819Y-88480952D02*
X101724819Y-88242857D01*
X101724819Y-88242857D02*
X101677200Y-88147619D01*
X101677200Y-88147619D02*
X101629580Y-88100000D01*
X101629580Y-88100000D02*
X101534342Y-88052381D01*
X101534342Y-88052381D02*
X101439104Y-88052381D01*
X101439104Y-88052381D02*
X101343866Y-88100000D01*
X101343866Y-88100000D02*
X101296247Y-88147619D01*
X101296247Y-88147619D02*
X101248628Y-88242857D01*
X101248628Y-88242857D02*
X101201009Y-88433333D01*
X101201009Y-88433333D02*
X101153390Y-88528571D01*
X101153390Y-88528571D02*
X101105771Y-88576190D01*
X101105771Y-88576190D02*
X101010533Y-88623809D01*
X101010533Y-88623809D02*
X100915295Y-88623809D01*
X100915295Y-88623809D02*
X100820057Y-88576190D01*
X100820057Y-88576190D02*
X100772438Y-88528571D01*
X100772438Y-88528571D02*
X100724819Y-88433333D01*
X100724819Y-88433333D02*
X100724819Y-88195238D01*
X100724819Y-88195238D02*
X100772438Y-88052381D01*
X101820057Y-87861905D02*
X101820057Y-87100000D01*
X100724819Y-86957142D02*
X100724819Y-86338095D01*
X100724819Y-86338095D02*
X101105771Y-86671428D01*
X101105771Y-86671428D02*
X101105771Y-86528571D01*
X101105771Y-86528571D02*
X101153390Y-86433333D01*
X101153390Y-86433333D02*
X101201009Y-86385714D01*
X101201009Y-86385714D02*
X101296247Y-86338095D01*
X101296247Y-86338095D02*
X101534342Y-86338095D01*
X101534342Y-86338095D02*
X101629580Y-86385714D01*
X101629580Y-86385714D02*
X101677200Y-86433333D01*
X101677200Y-86433333D02*
X101724819Y-86528571D01*
X101724819Y-86528571D02*
X101724819Y-86814285D01*
X101724819Y-86814285D02*
X101677200Y-86909523D01*
X101677200Y-86909523D02*
X101629580Y-86957142D01*
X121450000Y-83204819D02*
X121640476Y-83204819D01*
X121640476Y-83204819D02*
X121735714Y-83252438D01*
X121735714Y-83252438D02*
X121830952Y-83347676D01*
X121830952Y-83347676D02*
X121878571Y-83538152D01*
X121878571Y-83538152D02*
X121878571Y-83871485D01*
X121878571Y-83871485D02*
X121830952Y-84061961D01*
X121830952Y-84061961D02*
X121735714Y-84157200D01*
X121735714Y-84157200D02*
X121640476Y-84204819D01*
X121640476Y-84204819D02*
X121450000Y-84204819D01*
X121450000Y-84204819D02*
X121354762Y-84157200D01*
X121354762Y-84157200D02*
X121259524Y-84061961D01*
X121259524Y-84061961D02*
X121211905Y-83871485D01*
X121211905Y-83871485D02*
X121211905Y-83538152D01*
X121211905Y-83538152D02*
X121259524Y-83347676D01*
X121259524Y-83347676D02*
X121354762Y-83252438D01*
X121354762Y-83252438D02*
X121450000Y-83204819D01*
X122307143Y-83204819D02*
X122307143Y-84014342D01*
X122307143Y-84014342D02*
X122354762Y-84109580D01*
X122354762Y-84109580D02*
X122402381Y-84157200D01*
X122402381Y-84157200D02*
X122497619Y-84204819D01*
X122497619Y-84204819D02*
X122688095Y-84204819D01*
X122688095Y-84204819D02*
X122783333Y-84157200D01*
X122783333Y-84157200D02*
X122830952Y-84109580D01*
X122830952Y-84109580D02*
X122878571Y-84014342D01*
X122878571Y-84014342D02*
X122878571Y-83204819D01*
X123211905Y-83204819D02*
X123783333Y-83204819D01*
X123497619Y-84204819D02*
X123497619Y-83204819D01*
X124116667Y-84204819D02*
X124116667Y-83204819D01*
X124116667Y-83204819D02*
X124497619Y-83204819D01*
X124497619Y-83204819D02*
X124592857Y-83252438D01*
X124592857Y-83252438D02*
X124640476Y-83300057D01*
X124640476Y-83300057D02*
X124688095Y-83395295D01*
X124688095Y-83395295D02*
X124688095Y-83538152D01*
X124688095Y-83538152D02*
X124640476Y-83633390D01*
X124640476Y-83633390D02*
X124592857Y-83681009D01*
X124592857Y-83681009D02*
X124497619Y-83728628D01*
X124497619Y-83728628D02*
X124116667Y-83728628D01*
X125116667Y-83204819D02*
X125116667Y-84014342D01*
X125116667Y-84014342D02*
X125164286Y-84109580D01*
X125164286Y-84109580D02*
X125211905Y-84157200D01*
X125211905Y-84157200D02*
X125307143Y-84204819D01*
X125307143Y-84204819D02*
X125497619Y-84204819D01*
X125497619Y-84204819D02*
X125592857Y-84157200D01*
X125592857Y-84157200D02*
X125640476Y-84109580D01*
X125640476Y-84109580D02*
X125688095Y-84014342D01*
X125688095Y-84014342D02*
X125688095Y-83204819D01*
X126021429Y-83204819D02*
X126592857Y-83204819D01*
X126307143Y-84204819D02*
X126307143Y-83204819D01*
X126926191Y-83823866D02*
X127688096Y-83823866D01*
X127307143Y-84204819D02*
X127307143Y-83442914D01*
X128592857Y-83538152D02*
X128592857Y-84204819D01*
X128354762Y-83157200D02*
X128116667Y-83871485D01*
X128116667Y-83871485D02*
X128735714Y-83871485D01*
X72959523Y-80084819D02*
X72626190Y-79608628D01*
X72388095Y-80084819D02*
X72388095Y-79084819D01*
X72388095Y-79084819D02*
X72769047Y-79084819D01*
X72769047Y-79084819D02*
X72864285Y-79132438D01*
X72864285Y-79132438D02*
X72911904Y-79180057D01*
X72911904Y-79180057D02*
X72959523Y-79275295D01*
X72959523Y-79275295D02*
X72959523Y-79418152D01*
X72959523Y-79418152D02*
X72911904Y-79513390D01*
X72911904Y-79513390D02*
X72864285Y-79561009D01*
X72864285Y-79561009D02*
X72769047Y-79608628D01*
X72769047Y-79608628D02*
X72388095Y-79608628D01*
X73388095Y-80084819D02*
X73388095Y-79084819D01*
X73388095Y-79084819D02*
X73769047Y-79084819D01*
X73769047Y-79084819D02*
X73864285Y-79132438D01*
X73864285Y-79132438D02*
X73911904Y-79180057D01*
X73911904Y-79180057D02*
X73959523Y-79275295D01*
X73959523Y-79275295D02*
X73959523Y-79418152D01*
X73959523Y-79418152D02*
X73911904Y-79513390D01*
X73911904Y-79513390D02*
X73864285Y-79561009D01*
X73864285Y-79561009D02*
X73769047Y-79608628D01*
X73769047Y-79608628D02*
X73388095Y-79608628D01*
X74388095Y-79084819D02*
X74388095Y-79894342D01*
X74388095Y-79894342D02*
X74435714Y-79989580D01*
X74435714Y-79989580D02*
X74483333Y-80037200D01*
X74483333Y-80037200D02*
X74578571Y-80084819D01*
X74578571Y-80084819D02*
X74769047Y-80084819D01*
X74769047Y-80084819D02*
X74864285Y-80037200D01*
X74864285Y-80037200D02*
X74911904Y-79989580D01*
X74911904Y-79989580D02*
X74959523Y-79894342D01*
X74959523Y-79894342D02*
X74959523Y-79084819D01*
X75388095Y-79180057D02*
X75435714Y-79132438D01*
X75435714Y-79132438D02*
X75530952Y-79084819D01*
X75530952Y-79084819D02*
X75769047Y-79084819D01*
X75769047Y-79084819D02*
X75864285Y-79132438D01*
X75864285Y-79132438D02*
X75911904Y-79180057D01*
X75911904Y-79180057D02*
X75959523Y-79275295D01*
X75959523Y-79275295D02*
X75959523Y-79370533D01*
X75959523Y-79370533D02*
X75911904Y-79513390D01*
X75911904Y-79513390D02*
X75340476Y-80084819D01*
X75340476Y-80084819D02*
X75959523Y-80084819D01*
X76488095Y-84606819D02*
X77059523Y-84606819D01*
X76773809Y-85606819D02*
X76773809Y-84606819D01*
X77392857Y-85606819D02*
X77392857Y-84606819D01*
X77392857Y-84606819D02*
X77773809Y-84606819D01*
X77773809Y-84606819D02*
X77869047Y-84654438D01*
X77869047Y-84654438D02*
X77916666Y-84702057D01*
X77916666Y-84702057D02*
X77964285Y-84797295D01*
X77964285Y-84797295D02*
X77964285Y-84940152D01*
X77964285Y-84940152D02*
X77916666Y-85035390D01*
X77916666Y-85035390D02*
X77869047Y-85083009D01*
X77869047Y-85083009D02*
X77773809Y-85130628D01*
X77773809Y-85130628D02*
X77392857Y-85130628D01*
X78297619Y-84606819D02*
X78964285Y-84606819D01*
X78964285Y-84606819D02*
X78535714Y-85606819D01*
X100274819Y-89838094D02*
X99274819Y-89838094D01*
X99274819Y-89838094D02*
X99274819Y-89599999D01*
X99274819Y-89599999D02*
X99322438Y-89457142D01*
X99322438Y-89457142D02*
X99417676Y-89361904D01*
X99417676Y-89361904D02*
X99512914Y-89314285D01*
X99512914Y-89314285D02*
X99703390Y-89266666D01*
X99703390Y-89266666D02*
X99846247Y-89266666D01*
X99846247Y-89266666D02*
X100036723Y-89314285D01*
X100036723Y-89314285D02*
X100131961Y-89361904D01*
X100131961Y-89361904D02*
X100227200Y-89457142D01*
X100227200Y-89457142D02*
X100274819Y-89599999D01*
X100274819Y-89599999D02*
X100274819Y-89838094D01*
X99370057Y-88885713D02*
X99322438Y-88838094D01*
X99322438Y-88838094D02*
X99274819Y-88742856D01*
X99274819Y-88742856D02*
X99274819Y-88504761D01*
X99274819Y-88504761D02*
X99322438Y-88409523D01*
X99322438Y-88409523D02*
X99370057Y-88361904D01*
X99370057Y-88361904D02*
X99465295Y-88314285D01*
X99465295Y-88314285D02*
X99560533Y-88314285D01*
X99560533Y-88314285D02*
X99703390Y-88361904D01*
X99703390Y-88361904D02*
X100274819Y-88933332D01*
X100274819Y-88933332D02*
X100274819Y-88314285D01*
X97204819Y-79361904D02*
X96204819Y-79361904D01*
X97204819Y-78790476D02*
X96633390Y-79219047D01*
X96204819Y-78790476D02*
X96776247Y-79361904D01*
D11*
X53938333Y-51053365D02*
X53877857Y-51113842D01*
X53877857Y-51113842D02*
X53696428Y-51174318D01*
X53696428Y-51174318D02*
X53575476Y-51174318D01*
X53575476Y-51174318D02*
X53394047Y-51113842D01*
X53394047Y-51113842D02*
X53273095Y-50992889D01*
X53273095Y-50992889D02*
X53212618Y-50871937D01*
X53212618Y-50871937D02*
X53152142Y-50630032D01*
X53152142Y-50630032D02*
X53152142Y-50448603D01*
X53152142Y-50448603D02*
X53212618Y-50206699D01*
X53212618Y-50206699D02*
X53273095Y-50085746D01*
X53273095Y-50085746D02*
X53394047Y-49964794D01*
X53394047Y-49964794D02*
X53575476Y-49904318D01*
X53575476Y-49904318D02*
X53696428Y-49904318D01*
X53696428Y-49904318D02*
X53877857Y-49964794D01*
X53877857Y-49964794D02*
X53938333Y-50025270D01*
X55147857Y-51174318D02*
X54422142Y-51174318D01*
X54784999Y-51174318D02*
X54784999Y-49904318D01*
X54784999Y-49904318D02*
X54664047Y-50085746D01*
X54664047Y-50085746D02*
X54543095Y-50206699D01*
X54543095Y-50206699D02*
X54422142Y-50267175D01*
D12*
X45130723Y-35011691D02*
X45130723Y-34198891D01*
X45130723Y-34585939D02*
X45595180Y-34585939D01*
X45595180Y-35011691D02*
X45595180Y-34198891D01*
X45904819Y-34198891D02*
X46407981Y-34198891D01*
X46407981Y-34198891D02*
X46137047Y-34508529D01*
X46137047Y-34508529D02*
X46253162Y-34508529D01*
X46253162Y-34508529D02*
X46330571Y-34547234D01*
X46330571Y-34547234D02*
X46369276Y-34585939D01*
X46369276Y-34585939D02*
X46407981Y-34663348D01*
X46407981Y-34663348D02*
X46407981Y-34856872D01*
X46407981Y-34856872D02*
X46369276Y-34934282D01*
X46369276Y-34934282D02*
X46330571Y-34972987D01*
X46330571Y-34972987D02*
X46253162Y-35011691D01*
X46253162Y-35011691D02*
X46020933Y-35011691D01*
X46020933Y-35011691D02*
X45943524Y-34972987D01*
X45943524Y-34972987D02*
X45904819Y-34934282D01*
D10*
X122147619Y-69504819D02*
X122480952Y-70504819D01*
X122480952Y-70504819D02*
X122814285Y-69504819D01*
X123147619Y-70504819D02*
X123147619Y-69504819D01*
X123147619Y-69504819D02*
X123385714Y-69504819D01*
X123385714Y-69504819D02*
X123528571Y-69552438D01*
X123528571Y-69552438D02*
X123623809Y-69647676D01*
X123623809Y-69647676D02*
X123671428Y-69742914D01*
X123671428Y-69742914D02*
X123719047Y-69933390D01*
X123719047Y-69933390D02*
X123719047Y-70076247D01*
X123719047Y-70076247D02*
X123671428Y-70266723D01*
X123671428Y-70266723D02*
X123623809Y-70361961D01*
X123623809Y-70361961D02*
X123528571Y-70457200D01*
X123528571Y-70457200D02*
X123385714Y-70504819D01*
X123385714Y-70504819D02*
X123147619Y-70504819D01*
X124147619Y-70504819D02*
X124147619Y-69504819D01*
X124147619Y-69504819D02*
X124385714Y-69504819D01*
X124385714Y-69504819D02*
X124528571Y-69552438D01*
X124528571Y-69552438D02*
X124623809Y-69647676D01*
X124623809Y-69647676D02*
X124671428Y-69742914D01*
X124671428Y-69742914D02*
X124719047Y-69933390D01*
X124719047Y-69933390D02*
X124719047Y-70076247D01*
X124719047Y-70076247D02*
X124671428Y-70266723D01*
X124671428Y-70266723D02*
X124623809Y-70361961D01*
X124623809Y-70361961D02*
X124528571Y-70457200D01*
X124528571Y-70457200D02*
X124385714Y-70504819D01*
X124385714Y-70504819D02*
X124147619Y-70504819D01*
X124909524Y-70600057D02*
X125671428Y-70600057D01*
X125909524Y-70504819D02*
X125909524Y-69504819D01*
X125909524Y-69504819D02*
X126290476Y-69504819D01*
X126290476Y-69504819D02*
X126385714Y-69552438D01*
X126385714Y-69552438D02*
X126433333Y-69600057D01*
X126433333Y-69600057D02*
X126480952Y-69695295D01*
X126480952Y-69695295D02*
X126480952Y-69838152D01*
X126480952Y-69838152D02*
X126433333Y-69933390D01*
X126433333Y-69933390D02*
X126385714Y-69981009D01*
X126385714Y-69981009D02*
X126290476Y-70028628D01*
X126290476Y-70028628D02*
X125909524Y-70028628D01*
X126909524Y-70504819D02*
X126909524Y-69504819D01*
X127385714Y-70504819D02*
X127385714Y-69504819D01*
X127385714Y-69504819D02*
X127957142Y-70504819D01*
X127957142Y-70504819D02*
X127957142Y-69504819D01*
X128385714Y-69600057D02*
X128433333Y-69552438D01*
X128433333Y-69552438D02*
X128528571Y-69504819D01*
X128528571Y-69504819D02*
X128766666Y-69504819D01*
X128766666Y-69504819D02*
X128861904Y-69552438D01*
X128861904Y-69552438D02*
X128909523Y-69600057D01*
X128909523Y-69600057D02*
X128957142Y-69695295D01*
X128957142Y-69695295D02*
X128957142Y-69790533D01*
X128957142Y-69790533D02*
X128909523Y-69933390D01*
X128909523Y-69933390D02*
X128338095Y-70504819D01*
X128338095Y-70504819D02*
X128957142Y-70504819D01*
X83483333Y-80084819D02*
X83150000Y-79608628D01*
X82911905Y-80084819D02*
X82911905Y-79084819D01*
X82911905Y-79084819D02*
X83292857Y-79084819D01*
X83292857Y-79084819D02*
X83388095Y-79132438D01*
X83388095Y-79132438D02*
X83435714Y-79180057D01*
X83435714Y-79180057D02*
X83483333Y-79275295D01*
X83483333Y-79275295D02*
X83483333Y-79418152D01*
X83483333Y-79418152D02*
X83435714Y-79513390D01*
X83435714Y-79513390D02*
X83388095Y-79561009D01*
X83388095Y-79561009D02*
X83292857Y-79608628D01*
X83292857Y-79608628D02*
X82911905Y-79608628D01*
X84435714Y-79132438D02*
X84340476Y-79084819D01*
X84340476Y-79084819D02*
X84197619Y-79084819D01*
X84197619Y-79084819D02*
X84054762Y-79132438D01*
X84054762Y-79132438D02*
X83959524Y-79227676D01*
X83959524Y-79227676D02*
X83911905Y-79322914D01*
X83911905Y-79322914D02*
X83864286Y-79513390D01*
X83864286Y-79513390D02*
X83864286Y-79656247D01*
X83864286Y-79656247D02*
X83911905Y-79846723D01*
X83911905Y-79846723D02*
X83959524Y-79941961D01*
X83959524Y-79941961D02*
X84054762Y-80037200D01*
X84054762Y-80037200D02*
X84197619Y-80084819D01*
X84197619Y-80084819D02*
X84292857Y-80084819D01*
X84292857Y-80084819D02*
X84435714Y-80037200D01*
X84435714Y-80037200D02*
X84483333Y-79989580D01*
X84483333Y-79989580D02*
X84483333Y-79656247D01*
X84483333Y-79656247D02*
X84292857Y-79656247D01*
X84864286Y-79180057D02*
X84911905Y-79132438D01*
X84911905Y-79132438D02*
X85007143Y-79084819D01*
X85007143Y-79084819D02*
X85245238Y-79084819D01*
X85245238Y-79084819D02*
X85340476Y-79132438D01*
X85340476Y-79132438D02*
X85388095Y-79180057D01*
X85388095Y-79180057D02*
X85435714Y-79275295D01*
X85435714Y-79275295D02*
X85435714Y-79370533D01*
X85435714Y-79370533D02*
X85388095Y-79513390D01*
X85388095Y-79513390D02*
X84816667Y-80084819D01*
X84816667Y-80084819D02*
X85435714Y-80084819D01*
X92054762Y-75324819D02*
X92626190Y-75324819D01*
X92340476Y-76324819D02*
X92340476Y-75324819D01*
X92816667Y-75324819D02*
X93150000Y-76324819D01*
X93150000Y-76324819D02*
X93483333Y-75324819D01*
X93769048Y-76277200D02*
X93911905Y-76324819D01*
X93911905Y-76324819D02*
X94150000Y-76324819D01*
X94150000Y-76324819D02*
X94245238Y-76277200D01*
X94245238Y-76277200D02*
X94292857Y-76229580D01*
X94292857Y-76229580D02*
X94340476Y-76134342D01*
X94340476Y-76134342D02*
X94340476Y-76039104D01*
X94340476Y-76039104D02*
X94292857Y-75943866D01*
X94292857Y-75943866D02*
X94245238Y-75896247D01*
X94245238Y-75896247D02*
X94150000Y-75848628D01*
X94150000Y-75848628D02*
X93959524Y-75801009D01*
X93959524Y-75801009D02*
X93864286Y-75753390D01*
X93864286Y-75753390D02*
X93816667Y-75705771D01*
X93816667Y-75705771D02*
X93769048Y-75610533D01*
X93769048Y-75610533D02*
X93769048Y-75515295D01*
X93769048Y-75515295D02*
X93816667Y-75420057D01*
X93816667Y-75420057D02*
X93864286Y-75372438D01*
X93864286Y-75372438D02*
X93959524Y-75324819D01*
X93959524Y-75324819D02*
X94197619Y-75324819D01*
X94197619Y-75324819D02*
X94340476Y-75372438D01*
X95292857Y-76324819D02*
X94721429Y-76324819D01*
X95007143Y-76324819D02*
X95007143Y-75324819D01*
X95007143Y-75324819D02*
X94911905Y-75467676D01*
X94911905Y-75467676D02*
X94816667Y-75562914D01*
X94816667Y-75562914D02*
X94721429Y-75610533D01*
X95911905Y-75324819D02*
X96007143Y-75324819D01*
X96007143Y-75324819D02*
X96102381Y-75372438D01*
X96102381Y-75372438D02*
X96150000Y-75420057D01*
X96150000Y-75420057D02*
X96197619Y-75515295D01*
X96197619Y-75515295D02*
X96245238Y-75705771D01*
X96245238Y-75705771D02*
X96245238Y-75943866D01*
X96245238Y-75943866D02*
X96197619Y-76134342D01*
X96197619Y-76134342D02*
X96150000Y-76229580D01*
X96150000Y-76229580D02*
X96102381Y-76277200D01*
X96102381Y-76277200D02*
X96007143Y-76324819D01*
X96007143Y-76324819D02*
X95911905Y-76324819D01*
X95911905Y-76324819D02*
X95816667Y-76277200D01*
X95816667Y-76277200D02*
X95769048Y-76229580D01*
X95769048Y-76229580D02*
X95721429Y-76134342D01*
X95721429Y-76134342D02*
X95673810Y-75943866D01*
X95673810Y-75943866D02*
X95673810Y-75705771D01*
X95673810Y-75705771D02*
X95721429Y-75515295D01*
X95721429Y-75515295D02*
X95769048Y-75420057D01*
X95769048Y-75420057D02*
X95816667Y-75372438D01*
X95816667Y-75372438D02*
X95911905Y-75324819D01*
X96864286Y-75324819D02*
X96959524Y-75324819D01*
X96959524Y-75324819D02*
X97054762Y-75372438D01*
X97054762Y-75372438D02*
X97102381Y-75420057D01*
X97102381Y-75420057D02*
X97150000Y-75515295D01*
X97150000Y-75515295D02*
X97197619Y-75705771D01*
X97197619Y-75705771D02*
X97197619Y-75943866D01*
X97197619Y-75943866D02*
X97150000Y-76134342D01*
X97150000Y-76134342D02*
X97102381Y-76229580D01*
X97102381Y-76229580D02*
X97054762Y-76277200D01*
X97054762Y-76277200D02*
X96959524Y-76324819D01*
X96959524Y-76324819D02*
X96864286Y-76324819D01*
X96864286Y-76324819D02*
X96769048Y-76277200D01*
X96769048Y-76277200D02*
X96721429Y-76229580D01*
X96721429Y-76229580D02*
X96673810Y-76134342D01*
X96673810Y-76134342D02*
X96626191Y-75943866D01*
X96626191Y-75943866D02*
X96626191Y-75705771D01*
X96626191Y-75705771D02*
X96673810Y-75515295D01*
X96673810Y-75515295D02*
X96721429Y-75420057D01*
X96721429Y-75420057D02*
X96769048Y-75372438D01*
X96769048Y-75372438D02*
X96864286Y-75324819D01*
X98150000Y-76324819D02*
X97578572Y-76324819D01*
X97864286Y-76324819D02*
X97864286Y-75324819D01*
X97864286Y-75324819D02*
X97769048Y-75467676D01*
X97769048Y-75467676D02*
X97673810Y-75562914D01*
X97673810Y-75562914D02*
X97578572Y-75610533D01*
X104888095Y-73254819D02*
X104888095Y-72254819D01*
X105459523Y-73254819D02*
X105030952Y-72683390D01*
X105459523Y-72254819D02*
X104888095Y-72826247D01*
X81588095Y-84606819D02*
X82159523Y-84606819D01*
X81873809Y-85606819D02*
X81873809Y-84606819D01*
X82492857Y-85606819D02*
X82492857Y-84606819D01*
X82492857Y-84606819D02*
X82873809Y-84606819D01*
X82873809Y-84606819D02*
X82969047Y-84654438D01*
X82969047Y-84654438D02*
X83016666Y-84702057D01*
X83016666Y-84702057D02*
X83064285Y-84797295D01*
X83064285Y-84797295D02*
X83064285Y-84940152D01*
X83064285Y-84940152D02*
X83016666Y-85035390D01*
X83016666Y-85035390D02*
X82969047Y-85083009D01*
X82969047Y-85083009D02*
X82873809Y-85130628D01*
X82873809Y-85130628D02*
X82492857Y-85130628D01*
X83921428Y-84606819D02*
X83730952Y-84606819D01*
X83730952Y-84606819D02*
X83635714Y-84654438D01*
X83635714Y-84654438D02*
X83588095Y-84702057D01*
X83588095Y-84702057D02*
X83492857Y-84844914D01*
X83492857Y-84844914D02*
X83445238Y-85035390D01*
X83445238Y-85035390D02*
X83445238Y-85416342D01*
X83445238Y-85416342D02*
X83492857Y-85511580D01*
X83492857Y-85511580D02*
X83540476Y-85559200D01*
X83540476Y-85559200D02*
X83635714Y-85606819D01*
X83635714Y-85606819D02*
X83826190Y-85606819D01*
X83826190Y-85606819D02*
X83921428Y-85559200D01*
X83921428Y-85559200D02*
X83969047Y-85511580D01*
X83969047Y-85511580D02*
X84016666Y-85416342D01*
X84016666Y-85416342D02*
X84016666Y-85178247D01*
X84016666Y-85178247D02*
X83969047Y-85083009D01*
X83969047Y-85083009D02*
X83921428Y-85035390D01*
X83921428Y-85035390D02*
X83826190Y-84987771D01*
X83826190Y-84987771D02*
X83635714Y-84987771D01*
X83635714Y-84987771D02*
X83540476Y-85035390D01*
X83540476Y-85035390D02*
X83492857Y-85083009D01*
X83492857Y-85083009D02*
X83445238Y-85178247D01*
X47284819Y-50028095D02*
X47284819Y-49361429D01*
X47284819Y-49361429D02*
X48284819Y-50028095D01*
X48284819Y-50028095D02*
X48284819Y-49361429D01*
X48237200Y-48599524D02*
X48284819Y-48694762D01*
X48284819Y-48694762D02*
X48284819Y-48885238D01*
X48284819Y-48885238D02*
X48237200Y-48980476D01*
X48237200Y-48980476D02*
X48141961Y-49028095D01*
X48141961Y-49028095D02*
X47761009Y-49028095D01*
X47761009Y-49028095D02*
X47665771Y-48980476D01*
X47665771Y-48980476D02*
X47618152Y-48885238D01*
X47618152Y-48885238D02*
X47618152Y-48694762D01*
X47618152Y-48694762D02*
X47665771Y-48599524D01*
X47665771Y-48599524D02*
X47761009Y-48551905D01*
X47761009Y-48551905D02*
X47856247Y-48551905D01*
X47856247Y-48551905D02*
X47951485Y-49028095D01*
X47618152Y-48123333D02*
X48284819Y-48123333D01*
X47713390Y-48123333D02*
X47665771Y-48075714D01*
X47665771Y-48075714D02*
X47618152Y-47980476D01*
X47618152Y-47980476D02*
X47618152Y-47837619D01*
X47618152Y-47837619D02*
X47665771Y-47742381D01*
X47665771Y-47742381D02*
X47761009Y-47694762D01*
X47761009Y-47694762D02*
X48284819Y-47694762D01*
X48237200Y-46837619D02*
X48284819Y-46932857D01*
X48284819Y-46932857D02*
X48284819Y-47123333D01*
X48284819Y-47123333D02*
X48237200Y-47218571D01*
X48237200Y-47218571D02*
X48141961Y-47266190D01*
X48141961Y-47266190D02*
X47761009Y-47266190D01*
X47761009Y-47266190D02*
X47665771Y-47218571D01*
X47665771Y-47218571D02*
X47618152Y-47123333D01*
X47618152Y-47123333D02*
X47618152Y-46932857D01*
X47618152Y-46932857D02*
X47665771Y-46837619D01*
X47665771Y-46837619D02*
X47761009Y-46790000D01*
X47761009Y-46790000D02*
X47856247Y-46790000D01*
X47856247Y-46790000D02*
X47951485Y-47266190D01*
X48284819Y-46361428D02*
X47618152Y-46361428D01*
X47808628Y-46361428D02*
X47713390Y-46313809D01*
X47713390Y-46313809D02*
X47665771Y-46266190D01*
X47665771Y-46266190D02*
X47618152Y-46170952D01*
X47618152Y-46170952D02*
X47618152Y-46075714D01*
X48380057Y-45980476D02*
X48380057Y-45218571D01*
X47999104Y-45028094D02*
X47999104Y-44551904D01*
X48284819Y-45123332D02*
X47284819Y-44789999D01*
X47284819Y-44789999D02*
X48284819Y-44456666D01*
X48284819Y-43599523D02*
X48284819Y-44170951D01*
X48284819Y-43885237D02*
X47284819Y-43885237D01*
X47284819Y-43885237D02*
X47427676Y-43980475D01*
X47427676Y-43980475D02*
X47522914Y-44075713D01*
X47522914Y-44075713D02*
X47570533Y-44170951D01*
X48604819Y-50861904D02*
X47604819Y-50861904D01*
X48604819Y-50290476D02*
X48033390Y-50719047D01*
X47604819Y-50290476D02*
X48176247Y-50861904D01*
X69088095Y-61006819D02*
X69659523Y-61006819D01*
X69373809Y-62006819D02*
X69373809Y-61006819D01*
X69992857Y-62006819D02*
X69992857Y-61006819D01*
X69992857Y-61006819D02*
X70373809Y-61006819D01*
X70373809Y-61006819D02*
X70469047Y-61054438D01*
X70469047Y-61054438D02*
X70516666Y-61102057D01*
X70516666Y-61102057D02*
X70564285Y-61197295D01*
X70564285Y-61197295D02*
X70564285Y-61340152D01*
X70564285Y-61340152D02*
X70516666Y-61435390D01*
X70516666Y-61435390D02*
X70469047Y-61483009D01*
X70469047Y-61483009D02*
X70373809Y-61530628D01*
X70373809Y-61530628D02*
X69992857Y-61530628D01*
X70897619Y-61006819D02*
X71516666Y-61006819D01*
X71516666Y-61006819D02*
X71183333Y-61387771D01*
X71183333Y-61387771D02*
X71326190Y-61387771D01*
X71326190Y-61387771D02*
X71421428Y-61435390D01*
X71421428Y-61435390D02*
X71469047Y-61483009D01*
X71469047Y-61483009D02*
X71516666Y-61578247D01*
X71516666Y-61578247D02*
X71516666Y-61816342D01*
X71516666Y-61816342D02*
X71469047Y-61911580D01*
X71469047Y-61911580D02*
X71421428Y-61959200D01*
X71421428Y-61959200D02*
X71326190Y-62006819D01*
X71326190Y-62006819D02*
X71040476Y-62006819D01*
X71040476Y-62006819D02*
X70945238Y-61959200D01*
X70945238Y-61959200D02*
X70897619Y-61911580D01*
D12*
X121530723Y-104861691D02*
X121530723Y-104048891D01*
X121530723Y-104435939D02*
X121995180Y-104435939D01*
X121995180Y-104861691D02*
X121995180Y-104048891D01*
X122343524Y-104126301D02*
X122382228Y-104087596D01*
X122382228Y-104087596D02*
X122459638Y-104048891D01*
X122459638Y-104048891D02*
X122653162Y-104048891D01*
X122653162Y-104048891D02*
X122730571Y-104087596D01*
X122730571Y-104087596D02*
X122769276Y-104126301D01*
X122769276Y-104126301D02*
X122807981Y-104203710D01*
X122807981Y-104203710D02*
X122807981Y-104281120D01*
X122807981Y-104281120D02*
X122769276Y-104397234D01*
X122769276Y-104397234D02*
X122304819Y-104861691D01*
X122304819Y-104861691D02*
X122807981Y-104861691D01*
D10*
X113050000Y-83354819D02*
X113240476Y-83354819D01*
X113240476Y-83354819D02*
X113335714Y-83402438D01*
X113335714Y-83402438D02*
X113430952Y-83497676D01*
X113430952Y-83497676D02*
X113478571Y-83688152D01*
X113478571Y-83688152D02*
X113478571Y-84021485D01*
X113478571Y-84021485D02*
X113430952Y-84211961D01*
X113430952Y-84211961D02*
X113335714Y-84307200D01*
X113335714Y-84307200D02*
X113240476Y-84354819D01*
X113240476Y-84354819D02*
X113050000Y-84354819D01*
X113050000Y-84354819D02*
X112954762Y-84307200D01*
X112954762Y-84307200D02*
X112859524Y-84211961D01*
X112859524Y-84211961D02*
X112811905Y-84021485D01*
X112811905Y-84021485D02*
X112811905Y-83688152D01*
X112811905Y-83688152D02*
X112859524Y-83497676D01*
X112859524Y-83497676D02*
X112954762Y-83402438D01*
X112954762Y-83402438D02*
X113050000Y-83354819D01*
X113907143Y-83354819D02*
X113907143Y-84164342D01*
X113907143Y-84164342D02*
X113954762Y-84259580D01*
X113954762Y-84259580D02*
X114002381Y-84307200D01*
X114002381Y-84307200D02*
X114097619Y-84354819D01*
X114097619Y-84354819D02*
X114288095Y-84354819D01*
X114288095Y-84354819D02*
X114383333Y-84307200D01*
X114383333Y-84307200D02*
X114430952Y-84259580D01*
X114430952Y-84259580D02*
X114478571Y-84164342D01*
X114478571Y-84164342D02*
X114478571Y-83354819D01*
X114811905Y-83354819D02*
X115383333Y-83354819D01*
X115097619Y-84354819D02*
X115097619Y-83354819D01*
X115716667Y-84354819D02*
X115716667Y-83354819D01*
X115716667Y-83354819D02*
X116097619Y-83354819D01*
X116097619Y-83354819D02*
X116192857Y-83402438D01*
X116192857Y-83402438D02*
X116240476Y-83450057D01*
X116240476Y-83450057D02*
X116288095Y-83545295D01*
X116288095Y-83545295D02*
X116288095Y-83688152D01*
X116288095Y-83688152D02*
X116240476Y-83783390D01*
X116240476Y-83783390D02*
X116192857Y-83831009D01*
X116192857Y-83831009D02*
X116097619Y-83878628D01*
X116097619Y-83878628D02*
X115716667Y-83878628D01*
X116716667Y-83354819D02*
X116716667Y-84164342D01*
X116716667Y-84164342D02*
X116764286Y-84259580D01*
X116764286Y-84259580D02*
X116811905Y-84307200D01*
X116811905Y-84307200D02*
X116907143Y-84354819D01*
X116907143Y-84354819D02*
X117097619Y-84354819D01*
X117097619Y-84354819D02*
X117192857Y-84307200D01*
X117192857Y-84307200D02*
X117240476Y-84259580D01*
X117240476Y-84259580D02*
X117288095Y-84164342D01*
X117288095Y-84164342D02*
X117288095Y-83354819D01*
X117621429Y-83354819D02*
X118192857Y-83354819D01*
X117907143Y-84354819D02*
X117907143Y-83354819D01*
X118526191Y-83973866D02*
X119288096Y-83973866D01*
X118907143Y-84354819D02*
X118907143Y-83592914D01*
X119716667Y-83450057D02*
X119764286Y-83402438D01*
X119764286Y-83402438D02*
X119859524Y-83354819D01*
X119859524Y-83354819D02*
X120097619Y-83354819D01*
X120097619Y-83354819D02*
X120192857Y-83402438D01*
X120192857Y-83402438D02*
X120240476Y-83450057D01*
X120240476Y-83450057D02*
X120288095Y-83545295D01*
X120288095Y-83545295D02*
X120288095Y-83640533D01*
X120288095Y-83640533D02*
X120240476Y-83783390D01*
X120240476Y-83783390D02*
X119669048Y-84354819D01*
X119669048Y-84354819D02*
X120288095Y-84354819D01*
X62834819Y-61611428D02*
X62358628Y-61944761D01*
X62834819Y-62182856D02*
X61834819Y-62182856D01*
X61834819Y-62182856D02*
X61834819Y-61801904D01*
X61834819Y-61801904D02*
X61882438Y-61706666D01*
X61882438Y-61706666D02*
X61930057Y-61659047D01*
X61930057Y-61659047D02*
X62025295Y-61611428D01*
X62025295Y-61611428D02*
X62168152Y-61611428D01*
X62168152Y-61611428D02*
X62263390Y-61659047D01*
X62263390Y-61659047D02*
X62311009Y-61706666D01*
X62311009Y-61706666D02*
X62358628Y-61801904D01*
X62358628Y-61801904D02*
X62358628Y-62182856D01*
X62930057Y-61420952D02*
X62930057Y-60659047D01*
X62834819Y-60420951D02*
X61834819Y-60420951D01*
X62311009Y-60420951D02*
X62311009Y-59849523D01*
X62834819Y-59849523D02*
X61834819Y-59849523D01*
X62834819Y-58849523D02*
X62834819Y-59420951D01*
X62834819Y-59135237D02*
X61834819Y-59135237D01*
X61834819Y-59135237D02*
X61977676Y-59230475D01*
X61977676Y-59230475D02*
X62072914Y-59325713D01*
X62072914Y-59325713D02*
X62120533Y-59420951D01*
D11*
X82124318Y-94529762D02*
X80854318Y-94529762D01*
X82003365Y-93199285D02*
X82063842Y-93259761D01*
X82063842Y-93259761D02*
X82124318Y-93441190D01*
X82124318Y-93441190D02*
X82124318Y-93562142D01*
X82124318Y-93562142D02*
X82063842Y-93743571D01*
X82063842Y-93743571D02*
X81942889Y-93864523D01*
X81942889Y-93864523D02*
X81821937Y-93925000D01*
X81821937Y-93925000D02*
X81580032Y-93985476D01*
X81580032Y-93985476D02*
X81398603Y-93985476D01*
X81398603Y-93985476D02*
X81156699Y-93925000D01*
X81156699Y-93925000D02*
X81035746Y-93864523D01*
X81035746Y-93864523D02*
X80914794Y-93743571D01*
X80914794Y-93743571D02*
X80854318Y-93562142D01*
X80854318Y-93562142D02*
X80854318Y-93441190D01*
X80854318Y-93441190D02*
X80914794Y-93259761D01*
X80914794Y-93259761D02*
X80975270Y-93199285D01*
X80975270Y-92715476D02*
X80914794Y-92655000D01*
X80914794Y-92655000D02*
X80854318Y-92534047D01*
X80854318Y-92534047D02*
X80854318Y-92231666D01*
X80854318Y-92231666D02*
X80914794Y-92110714D01*
X80914794Y-92110714D02*
X80975270Y-92050238D01*
X80975270Y-92050238D02*
X81096222Y-91989761D01*
X81096222Y-91989761D02*
X81217175Y-91989761D01*
X81217175Y-91989761D02*
X81398603Y-92050238D01*
X81398603Y-92050238D02*
X82124318Y-92775952D01*
X82124318Y-92775952D02*
X82124318Y-91989761D01*
D13*
%TO.C,R_A2*%
X48580000Y-75060000D02*
X48580000Y-81600000D01*
X48580000Y-81600000D02*
X51320000Y-81600000D01*
X49950000Y-74290000D02*
X49950000Y-75060000D01*
X49950000Y-82370000D02*
X49950000Y-81600000D01*
X51320000Y-75060000D02*
X48580000Y-75060000D01*
X51320000Y-81600000D02*
X51320000Y-75060000D01*
%TO.C,Zener_H1*%
X63980000Y-44670000D02*
X63980000Y-48910000D01*
X63980000Y-48070000D02*
X66220000Y-48070000D01*
X63980000Y-48190000D02*
X66220000Y-48190000D01*
X63980000Y-48310000D02*
X66220000Y-48310000D01*
X63980000Y-48910000D02*
X66220000Y-48910000D01*
X65100000Y-44020000D02*
X65100000Y-44670000D01*
X65100000Y-49560000D02*
X65100000Y-48910000D01*
X66220000Y-44670000D02*
X63980000Y-44670000D01*
X66220000Y-48910000D02*
X66220000Y-44670000D01*
%TO.C,TP8*%
X104750000Y-96500000D02*
X106150000Y-96500000D01*
X104750000Y-97900000D02*
X104750000Y-96500000D01*
X106150000Y-96500000D02*
X106150000Y-97900000D01*
X106150000Y-97900000D02*
X104750000Y-97900000D01*
%TO.C,RG1*%
X81280000Y-57130000D02*
X87820000Y-57130000D01*
X81280000Y-57460000D02*
X81280000Y-57130000D01*
X81280000Y-59540000D02*
X81280000Y-59870000D01*
X81280000Y-59870000D02*
X87820000Y-59870000D01*
X87820000Y-57130000D02*
X87820000Y-57460000D01*
X87820000Y-59870000D02*
X87820000Y-59540000D01*
D14*
%TO.C,C2*%
X74750000Y-50600000D02*
G75*
G02*
X69750000Y-50600000I-2500000J0D01*
G01*
X69750000Y-50600000D02*
G75*
G02*
X74750000Y-50600000I2500000J0D01*
G01*
D13*
%TO.C,Zener_H2*%
X63930000Y-91230000D02*
X63930000Y-95470000D01*
X63930000Y-95470000D02*
X66170000Y-95470000D01*
X65050000Y-90580000D02*
X65050000Y-91230000D01*
X65050000Y-96120000D02*
X65050000Y-95470000D01*
X66170000Y-91230000D02*
X63930000Y-91230000D01*
X66170000Y-91830000D02*
X63930000Y-91830000D01*
X66170000Y-91950000D02*
X63930000Y-91950000D01*
X66170000Y-92070000D02*
X63930000Y-92070000D01*
X66170000Y-95470000D02*
X66170000Y-91230000D01*
%TO.C,OUTPUT+3*%
X128200000Y-49700000D02*
G75*
G02*
X123700000Y-49700000I-2250000J0D01*
G01*
X123700000Y-49700000D02*
G75*
G02*
X128200000Y-49700000I2250000J0D01*
G01*
%TO.C,TP4*%
X104150000Y-41800000D02*
X105550000Y-41800000D01*
X104150000Y-43200000D02*
X104150000Y-41800000D01*
X105550000Y-41800000D02*
X105550000Y-43200000D01*
X105550000Y-43200000D02*
X104150000Y-43200000D01*
%TO.C,TP10*%
X83850000Y-76400000D02*
X85250000Y-76400000D01*
X83850000Y-77800000D02*
X83850000Y-76400000D01*
X85250000Y-76400000D02*
X85250000Y-77800000D01*
X85250000Y-77800000D02*
X83850000Y-77800000D01*
%TO.C,OUTPUT-2*%
X118950000Y-97200000D02*
G75*
G02*
X114450000Y-97200000I-2250000J0D01*
G01*
X114450000Y-97200000D02*
G75*
G02*
X118950000Y-97200000I2250000J0D01*
G01*
D14*
%TO.C,C4*%
X74750000Y-89540000D02*
G75*
G02*
X69750000Y-89540000I-2500000J0D01*
G01*
X69750000Y-89540000D02*
G75*
G02*
X74750000Y-89540000I2500000J0D01*
G01*
D13*
%TO.C,VDD_PIN1*%
X128100000Y-64650000D02*
G75*
G02*
X123600000Y-64650000I-2250000J0D01*
G01*
X123600000Y-64650000D02*
G75*
G02*
X128100000Y-64650000I2250000J0D01*
G01*
%TO.C,TP1*%
X74050000Y-62300000D02*
X75450000Y-62300000D01*
X74050000Y-63700000D02*
X74050000Y-62300000D01*
X75450000Y-62300000D02*
X75450000Y-63700000D01*
X75450000Y-63700000D02*
X74050000Y-63700000D01*
%TO.C,R_H2*%
X63330000Y-74980000D02*
X63330000Y-84220000D01*
X63330000Y-84220000D02*
X66770000Y-84220000D01*
X65050000Y-74290000D02*
X65050000Y-74980000D01*
X65050000Y-84910000D02*
X65050000Y-84220000D01*
X66770000Y-74980000D02*
X63330000Y-74980000D01*
X66770000Y-84220000D02*
X66770000Y-74980000D01*
%TO.C,OUTPUT-1*%
X119050000Y-42500000D02*
G75*
G02*
X114550000Y-42500000I-2250000J0D01*
G01*
X114550000Y-42500000D02*
G75*
G02*
X119050000Y-42500000I2250000J0D01*
G01*
%TO.C,VDD_PIN3*%
X119150000Y-59600000D02*
G75*
G02*
X114650000Y-59600000I-2250000J0D01*
G01*
X114650000Y-59600000D02*
G75*
G02*
X119150000Y-59600000I2250000J0D01*
G01*
%TO.C,GND_PIN1*%
X115850000Y-72500000D02*
G75*
G02*
X111350000Y-72500000I-2250000J0D01*
G01*
X111350000Y-72500000D02*
G75*
G02*
X115850000Y-72500000I2250000J0D01*
G01*
D14*
%TO.C,C3*%
X57650000Y-89540000D02*
G75*
G02*
X52650000Y-89540000I-2500000J0D01*
G01*
X52650000Y-89540000D02*
G75*
G02*
X57650000Y-89540000I2500000J0D01*
G01*
D13*
%TO.C,TP5*%
X84750000Y-85900000D02*
X86150000Y-85900000D01*
X84750000Y-87300000D02*
X84750000Y-85900000D01*
X86150000Y-85900000D02*
X86150000Y-87300000D01*
X86150000Y-87300000D02*
X84750000Y-87300000D01*
%TO.C,TP2*%
X77450000Y-62200000D02*
X78850000Y-62200000D01*
X77450000Y-63600000D02*
X77450000Y-62200000D01*
X78850000Y-62200000D02*
X78850000Y-63600000D01*
X78850000Y-63600000D02*
X77450000Y-63600000D01*
%TO.C,NMOS_2*%
X102270000Y-44680000D02*
X106911000Y-44680000D01*
X102270000Y-47949000D02*
X103780000Y-47949000D01*
X102270000Y-51650000D02*
X103780000Y-51650000D01*
X102270000Y-54920000D02*
X102270000Y-44680000D01*
X102270000Y-54920000D02*
X106911000Y-54920000D01*
X103780000Y-54920000D02*
X103780000Y-44680000D01*
X106911000Y-54920000D02*
X106911000Y-44680000D01*
%TO.C,OUTPUT-4*%
X128100000Y-97200000D02*
G75*
G02*
X123600000Y-97200000I-2250000J0D01*
G01*
X123600000Y-97200000D02*
G75*
G02*
X128100000Y-97200000I2250000J0D01*
G01*
%TO.C,RPU1*%
X70880000Y-57130000D02*
X77420000Y-57130000D01*
X70880000Y-57460000D02*
X70880000Y-57130000D01*
X70880000Y-59540000D02*
X70880000Y-59870000D01*
X70880000Y-59870000D02*
X77420000Y-59870000D01*
X77420000Y-57130000D02*
X77420000Y-57460000D01*
X77420000Y-59870000D02*
X77420000Y-59540000D01*
%TO.C,TP9*%
X83350000Y-62300000D02*
X84750000Y-62300000D01*
X83350000Y-63700000D02*
X83350000Y-62300000D01*
X84750000Y-62300000D02*
X84750000Y-63700000D01*
X84750000Y-63700000D02*
X83350000Y-63700000D01*
%TO.C,RB1*%
X53720000Y-59475000D02*
X53720000Y-69225000D01*
X58770000Y-59475000D02*
X53720000Y-59475000D01*
X58770000Y-59475000D02*
X58770000Y-69225000D01*
X58770000Y-69225000D02*
X53720000Y-69225000D01*
%TO.C,GND_PIN2*%
X110350000Y-104800000D02*
G75*
G02*
X105850000Y-104800000I-2250000J0D01*
G01*
X105850000Y-104800000D02*
G75*
G02*
X110350000Y-104800000I2250000J0D01*
G01*
%TO.C,RB2*%
X53730000Y-70915000D02*
X58780000Y-70915000D01*
X53730000Y-80665000D02*
X53730000Y-70915000D01*
X53730000Y-80665000D02*
X58780000Y-80665000D01*
X58780000Y-80665000D02*
X58780000Y-70915000D01*
D14*
%TO.C,IC1*%
X76750000Y-43510000D02*
X76750000Y-50110000D01*
X86350000Y-42420000D02*
X86350000Y-50110000D01*
D13*
%TO.C,OUTPUT-3*%
X128200000Y-42500000D02*
G75*
G02*
X123700000Y-42500000I-2250000J0D01*
G01*
X123700000Y-42500000D02*
G75*
G02*
X128200000Y-42500000I2250000J0D01*
G01*
%TO.C,OUTPUT+1*%
X119050000Y-49700000D02*
G75*
G02*
X114550000Y-49700000I-2250000J0D01*
G01*
X114550000Y-49700000D02*
G75*
G02*
X119050000Y-49700000I2250000J0D01*
G01*
%TO.C,D1*%
X91080000Y-48230000D02*
X91080000Y-57570000D01*
X91080000Y-55965000D02*
X100420000Y-55965000D01*
X91080000Y-56085000D02*
X100420000Y-56085000D01*
X91080000Y-56205000D02*
X100420000Y-56205000D01*
X91080000Y-57570000D02*
X100420000Y-57570000D01*
X95750000Y-44740000D02*
X95750000Y-48230000D01*
X95750000Y-61060000D02*
X95750000Y-57570000D01*
X100420000Y-48230000D02*
X91080000Y-48230000D01*
X100420000Y-57570000D02*
X100420000Y-48230000D01*
%TO.C,R_A1*%
X48580000Y-58540000D02*
X48580000Y-65080000D01*
X48580000Y-65080000D02*
X51320000Y-65080000D01*
X49950000Y-57770000D02*
X49950000Y-58540000D01*
X49950000Y-65850000D02*
X49950000Y-65080000D01*
X51320000Y-58540000D02*
X48580000Y-58540000D01*
X51320000Y-65080000D02*
X51320000Y-58540000D01*
%TO.C,Zener_A2*%
X48830000Y-91230000D02*
X48830000Y-95470000D01*
X48830000Y-95470000D02*
X51070000Y-95470000D01*
X49950000Y-90580000D02*
X49950000Y-91230000D01*
X49950000Y-96120000D02*
X49950000Y-95470000D01*
X51070000Y-91230000D02*
X48830000Y-91230000D01*
X51070000Y-91830000D02*
X48830000Y-91830000D01*
X51070000Y-91950000D02*
X48830000Y-91950000D01*
X51070000Y-92070000D02*
X48830000Y-92070000D01*
X51070000Y-95470000D02*
X51070000Y-91230000D01*
%TO.C,NMOS_3*%
X102270000Y-83980000D02*
X106911000Y-83980000D01*
X102270000Y-87249000D02*
X103780000Y-87249000D01*
X102270000Y-90950000D02*
X103780000Y-90950000D01*
X102270000Y-94220000D02*
X102270000Y-83980000D01*
X102270000Y-94220000D02*
X106911000Y-94220000D01*
X103780000Y-94220000D02*
X103780000Y-83980000D01*
X106911000Y-94220000D02*
X106911000Y-83980000D01*
%TO.C,OUTPUT+4*%
X128100000Y-87200000D02*
G75*
G02*
X123600000Y-87200000I-2250000J0D01*
G01*
X123600000Y-87200000D02*
G75*
G02*
X128100000Y-87200000I2250000J0D01*
G01*
%TO.C,RPU2*%
X70880000Y-80630000D02*
X77420000Y-80630000D01*
X70880000Y-80960000D02*
X70880000Y-80630000D01*
X70880000Y-83040000D02*
X70880000Y-83370000D01*
X70880000Y-83370000D02*
X77420000Y-83370000D01*
X77420000Y-80630000D02*
X77420000Y-80960000D01*
X77420000Y-83370000D02*
X77420000Y-83040000D01*
%TO.C,TP7*%
X77050000Y-85900000D02*
X78450000Y-85900000D01*
X77050000Y-87300000D02*
X77050000Y-85900000D01*
X78450000Y-85900000D02*
X78450000Y-87300000D01*
X78450000Y-87300000D02*
X77050000Y-87300000D01*
%TO.C,D2*%
X89480000Y-84430000D02*
X89480000Y-93770000D01*
X89480000Y-93770000D02*
X98820000Y-93770000D01*
X94150000Y-80940000D02*
X94150000Y-84430000D01*
X94150000Y-97260000D02*
X94150000Y-93770000D01*
X98820000Y-84430000D02*
X89480000Y-84430000D01*
X98820000Y-85795000D02*
X89480000Y-85795000D01*
X98820000Y-85915000D02*
X89480000Y-85915000D01*
X98820000Y-86035000D02*
X89480000Y-86035000D01*
X98820000Y-93770000D02*
X98820000Y-84430000D01*
D14*
%TO.C,C1*%
X57650000Y-50600000D02*
G75*
G02*
X52650000Y-50600000I-2500000J0D01*
G01*
X52650000Y-50600000D02*
G75*
G02*
X57650000Y-50600000I2500000J0D01*
G01*
D13*
%TO.C,VDD_PIN2*%
X128100000Y-73150000D02*
G75*
G02*
X123600000Y-73150000I-2250000J0D01*
G01*
X123600000Y-73150000D02*
G75*
G02*
X128100000Y-73150000I2250000J0D01*
G01*
%TO.C,RG2*%
X80880000Y-80630000D02*
X87420000Y-80630000D01*
X80880000Y-80960000D02*
X80880000Y-80630000D01*
X80880000Y-83040000D02*
X80880000Y-83370000D01*
X80880000Y-83370000D02*
X87420000Y-83370000D01*
X87420000Y-80630000D02*
X87420000Y-80960000D01*
X87420000Y-83370000D02*
X87420000Y-83040000D01*
%TO.C,TVS1001*%
X86990000Y-70200000D02*
X90480000Y-70200000D01*
X90480000Y-65530000D02*
X90480000Y-74870000D01*
X90480000Y-74870000D02*
X99820000Y-74870000D01*
X98215000Y-74870000D02*
X98215000Y-65530000D01*
X98335000Y-74870000D02*
X98335000Y-65530000D01*
X98455000Y-74870000D02*
X98455000Y-65530000D01*
X99820000Y-65530000D02*
X90480000Y-65530000D01*
X99820000Y-74870000D02*
X99820000Y-65530000D01*
X103310000Y-70200000D02*
X99820000Y-70200000D01*
%TO.C,TP6*%
X82150000Y-85900000D02*
X83550000Y-85900000D01*
X82150000Y-87300000D02*
X82150000Y-85900000D01*
X83550000Y-85900000D02*
X83550000Y-87300000D01*
X83550000Y-87300000D02*
X82150000Y-87300000D01*
%TO.C,Zener_A1*%
X48830000Y-44670000D02*
X48830000Y-48910000D01*
X48830000Y-48070000D02*
X51070000Y-48070000D01*
X48830000Y-48190000D02*
X51070000Y-48190000D01*
X48830000Y-48310000D02*
X51070000Y-48310000D01*
X48830000Y-48910000D02*
X51070000Y-48910000D01*
X49950000Y-44020000D02*
X49950000Y-44670000D01*
X49950000Y-49560000D02*
X49950000Y-48910000D01*
X51070000Y-44670000D02*
X48830000Y-44670000D01*
X51070000Y-48910000D02*
X51070000Y-44670000D01*
%TO.C,TP3*%
X69650000Y-62300000D02*
X71050000Y-62300000D01*
X69650000Y-63700000D02*
X69650000Y-62300000D01*
X71050000Y-62300000D02*
X71050000Y-63700000D01*
X71050000Y-63700000D02*
X69650000Y-63700000D01*
%TO.C,OUTPUT+2*%
X118950000Y-87200000D02*
G75*
G02*
X114450000Y-87200000I-2250000J0D01*
G01*
X114450000Y-87200000D02*
G75*
G02*
X118950000Y-87200000I2250000J0D01*
G01*
%TO.C,R_H1*%
X63380000Y-55920000D02*
X63380000Y-65160000D01*
X63380000Y-65160000D02*
X66820000Y-65160000D01*
X65100000Y-55230000D02*
X65100000Y-55920000D01*
X65100000Y-65850000D02*
X65100000Y-65160000D01*
X66820000Y-55920000D02*
X63380000Y-55920000D01*
X66820000Y-65160000D02*
X66820000Y-55920000D01*
D14*
%TO.C,IC2*%
X76750000Y-97680000D02*
X76750000Y-89990000D01*
X86350000Y-96590000D02*
X86350000Y-89990000D01*
%TD*%
M02*
