%TF.GenerationSoftware,KiCad,Pcbnew,9.0.1*%
%TF.CreationDate,2025-06-15T16:56:47+03:00*%
%TF.ProjectId,pcb_no_div,7063625f-6e6f-45f6-9469-762e6b696361,rev?*%
%TF.SameCoordinates,Original*%
%TF.FileFunction,Drillmap*%
%TF.FilePolarity,Positive*%
%FSLAX45Y45*%
G04 Gerber Fmt 4.5, Leading zero omitted, Abs format (unit mm)*
G04 Created by KiCad (PCBNEW 9.0.1) date 2025-06-15 16:56:47*
%MOMM*%
%LPD*%
G01*
G04 APERTURE LIST*
%ADD10C,0.038100*%
%ADD11C,0.200000*%
%ADD12C,0.100000*%
%ADD13C,0.110000*%
%ADD14C,0.160000*%
G04 APERTURE END LIST*
D10*
X13030000Y-3005000D02*
X13010000Y-10990000D01*
X3775000Y-3005000D02*
X3765000Y-10990000D01*
X13010000Y-10990000D02*
X3765000Y-10990000D01*
X13030000Y-3005000D02*
X3775000Y-3005000D01*
D11*
D12*
X4075000Y-4575000D02*
X4105000Y-4605000D01*
X4105000Y-4575000D02*
X4075000Y-4605000D01*
X4085000Y-7455000D02*
X4115000Y-7485000D01*
X4115000Y-7455000D02*
X4085000Y-7485000D01*
X4085000Y-7965000D02*
X4115000Y-7995000D01*
X4115000Y-7965000D02*
X4085000Y-7995000D01*
X4085000Y-8475000D02*
X4115000Y-8505000D01*
X4115000Y-8475000D02*
X4085000Y-8505000D01*
X4085000Y-8985000D02*
X4115000Y-9015000D01*
X4115000Y-8985000D02*
X4085000Y-9015000D01*
X4085000Y-9355000D02*
X4115000Y-9385000D01*
X4115000Y-9355000D02*
X4085000Y-9385000D01*
X4090000Y-5455000D02*
X4120000Y-5485000D01*
X4120000Y-5455000D02*
X4090000Y-5485000D01*
X4090000Y-5965000D02*
X4120000Y-5995000D01*
X4120000Y-5965000D02*
X4090000Y-5995000D01*
X4090000Y-6475000D02*
X4120000Y-6505000D01*
X4120000Y-6475000D02*
X4090000Y-6505000D01*
X4090000Y-6985000D02*
X4120000Y-7015000D01*
X4120000Y-6985000D02*
X4090000Y-7015000D01*
X4095000Y-4990000D02*
X4125000Y-5020000D01*
X4125000Y-4990000D02*
X4095000Y-5020000D01*
X4095000Y-9575000D02*
X4125000Y-9605000D01*
X4125000Y-9575000D02*
X4095000Y-9605000D01*
X4105000Y-4095000D02*
X4135000Y-4125000D01*
X4135000Y-4095000D02*
X4105000Y-4125000D01*
X4105000Y-9915000D02*
X4135000Y-9945000D01*
X4135000Y-9915000D02*
X4105000Y-9945000D01*
X4415000Y-4515000D02*
X4445000Y-4545000D01*
X4445000Y-4515000D02*
X4415000Y-4545000D01*
X4485000Y-9965000D02*
X4515000Y-9995000D01*
X4515000Y-9965000D02*
X4485000Y-9995000D01*
X4555000Y-9615000D02*
X4585000Y-9645000D01*
X4585000Y-9615000D02*
X4555000Y-9645000D01*
X4565000Y-4005000D02*
X4595000Y-4035000D01*
X4595000Y-4005000D02*
X4565000Y-4035000D01*
X4595000Y-7455000D02*
X4625000Y-7485000D01*
X4625000Y-7455000D02*
X4595000Y-7485000D01*
X4595000Y-7965000D02*
X4625000Y-7995000D01*
X4625000Y-7965000D02*
X4595000Y-7995000D01*
X4595000Y-8475000D02*
X4625000Y-8505000D01*
X4625000Y-8475000D02*
X4595000Y-8505000D01*
X4595000Y-8985000D02*
X4625000Y-9015000D01*
X4625000Y-8985000D02*
X4595000Y-9015000D01*
X4595000Y-9355000D02*
X4625000Y-9385000D01*
X4625000Y-9355000D02*
X4595000Y-9385000D01*
X4600000Y-5455000D02*
X4630000Y-5485000D01*
X4630000Y-5455000D02*
X4600000Y-5485000D01*
X4600000Y-5965000D02*
X4630000Y-5995000D01*
X4630000Y-5965000D02*
X4600000Y-5995000D01*
X4600000Y-6475000D02*
X4630000Y-6505000D01*
X4630000Y-6475000D02*
X4600000Y-6505000D01*
X4600000Y-6985000D02*
X4630000Y-7015000D01*
X4630000Y-6985000D02*
X4600000Y-7015000D01*
X4605000Y-4990000D02*
X4635000Y-5020000D01*
X4635000Y-4990000D02*
X4605000Y-5020000D01*
X4825000Y-9990000D02*
X4855000Y-10020000D01*
X4855000Y-9990000D02*
X4825000Y-10020000D01*
X5110000Y-5455000D02*
X5140000Y-5485000D01*
X5140000Y-5455000D02*
X5110000Y-5485000D01*
X5110000Y-6985000D02*
X5140000Y-7015000D01*
X5140000Y-6985000D02*
X5110000Y-7015000D01*
X5115000Y-3785000D02*
X5145000Y-3815000D01*
X5145000Y-3785000D02*
X5115000Y-3815000D01*
X5160000Y-5970000D02*
X5190000Y-6000000D01*
X5190000Y-5970000D02*
X5160000Y-6000000D01*
X5170000Y-6475000D02*
X5200000Y-6505000D01*
X5200000Y-6475000D02*
X5170000Y-6505000D01*
X5185000Y-3285000D02*
X5215000Y-3315000D01*
X5215000Y-3285000D02*
X5185000Y-3315000D01*
X5235000Y-10335000D02*
X5265000Y-10365000D01*
X5265000Y-10335000D02*
X5235000Y-10365000D01*
X5255000Y-10705000D02*
X5285000Y-10735000D01*
X5285000Y-10705000D02*
X5255000Y-10735000D01*
X5270000Y-8520000D02*
X5300000Y-8550000D01*
X5300000Y-8520000D02*
X5270000Y-8550000D01*
X5335000Y-9990000D02*
X5365000Y-10020000D01*
X5365000Y-9990000D02*
X5335000Y-10020000D01*
X5400000Y-9525000D02*
X5430000Y-9555000D01*
X5430000Y-9525000D02*
X5400000Y-9555000D01*
X5470000Y-4495000D02*
X5500000Y-4525000D01*
X5500000Y-4495000D02*
X5470000Y-4525000D01*
X5485000Y-3775000D02*
X5515000Y-3805000D01*
X5515000Y-3775000D02*
X5485000Y-3805000D01*
X5505000Y-3295000D02*
X5535000Y-3325000D01*
X5535000Y-3295000D02*
X5505000Y-3325000D01*
X5575000Y-4255000D02*
X5605000Y-4285000D01*
X5605000Y-4255000D02*
X5575000Y-4285000D01*
X5610000Y-10215000D02*
X5640000Y-10245000D01*
X5640000Y-10215000D02*
X5610000Y-10245000D01*
X5610000Y-10725000D02*
X5640000Y-10755000D01*
X5640000Y-10725000D02*
X5610000Y-10755000D01*
X5620000Y-5455000D02*
X5650000Y-5485000D01*
X5650000Y-5455000D02*
X5620000Y-5485000D01*
X5620000Y-5875000D02*
X5650000Y-5905000D01*
X5650000Y-5875000D02*
X5620000Y-5905000D01*
X5620000Y-6985000D02*
X5650000Y-7015000D01*
X5650000Y-6985000D02*
X5620000Y-7015000D01*
X5640000Y-8285000D02*
X5670000Y-8315000D01*
X5670000Y-8285000D02*
X5640000Y-8315000D01*
X5840000Y-4545000D02*
X5870000Y-4575000D01*
X5870000Y-4545000D02*
X5840000Y-4575000D01*
X5840000Y-9990000D02*
X5870000Y-10020000D01*
X5870000Y-9990000D02*
X5840000Y-10020000D01*
X5910000Y-9415000D02*
X5940000Y-9445000D01*
X5940000Y-9415000D02*
X5910000Y-9445000D01*
X6005000Y-4255000D02*
X6035000Y-4285000D01*
X6035000Y-4255000D02*
X6005000Y-4285000D01*
X6075000Y-10220000D02*
X6105000Y-10250000D01*
X6105000Y-10220000D02*
X6075000Y-10250000D01*
X6075000Y-10730000D02*
X6105000Y-10760000D01*
X6105000Y-10730000D02*
X6075000Y-10760000D01*
X6105000Y-7965000D02*
X6135000Y-7995000D01*
X6135000Y-7965000D02*
X6105000Y-7995000D01*
X6120000Y-3255000D02*
X6150000Y-3285000D01*
X6150000Y-3255000D02*
X6120000Y-3285000D01*
X6120000Y-3765000D02*
X6150000Y-3795000D01*
X6150000Y-3765000D02*
X6120000Y-3795000D01*
X6130000Y-5455000D02*
X6160000Y-5485000D01*
X6160000Y-5455000D02*
X6130000Y-5485000D01*
X6130000Y-5965000D02*
X6160000Y-5995000D01*
X6160000Y-5965000D02*
X6130000Y-5995000D01*
X6130000Y-6475000D02*
X6160000Y-6505000D01*
X6160000Y-6475000D02*
X6130000Y-6505000D01*
X6130000Y-6985000D02*
X6160000Y-7015000D01*
X6160000Y-6985000D02*
X6130000Y-7015000D01*
X6170000Y-8580000D02*
X6200000Y-8610000D01*
X6200000Y-8580000D02*
X6170000Y-8610000D01*
X6170000Y-9080000D02*
X6200000Y-9110000D01*
X6200000Y-9080000D02*
X6170000Y-9110000D01*
X6180000Y-7520000D02*
X6210000Y-7550000D01*
X6210000Y-7520000D02*
X6180000Y-7550000D01*
X6350000Y-9990000D02*
X6380000Y-10020000D01*
X6380000Y-9990000D02*
X6350000Y-10020000D01*
X6585000Y-3260000D02*
X6615000Y-3290000D01*
X6615000Y-3260000D02*
X6585000Y-3290000D01*
X6585000Y-3770000D02*
X6615000Y-3800000D01*
X6615000Y-3770000D02*
X6585000Y-3800000D01*
X6585000Y-10220000D02*
X6615000Y-10250000D01*
X6615000Y-10220000D02*
X6585000Y-10250000D01*
X6585000Y-10730000D02*
X6615000Y-10760000D01*
X6615000Y-10730000D02*
X6585000Y-10760000D01*
X6640000Y-6985000D02*
X6670000Y-7015000D01*
X6670000Y-6985000D02*
X6640000Y-7015000D01*
X6740000Y-10000000D02*
X6770000Y-10030000D01*
X6770000Y-10000000D02*
X6740000Y-10030000D01*
X6935000Y-4250000D02*
X6965000Y-4280000D01*
X6965000Y-4250000D02*
X6935000Y-4280000D01*
X6970000Y-5465000D02*
X7000000Y-5495000D01*
X7000000Y-5465000D02*
X6970000Y-5495000D01*
X7020000Y-8595000D02*
X7050000Y-8625000D01*
X7050000Y-8595000D02*
X7020000Y-8625000D01*
X7050000Y-7725000D02*
X7080000Y-7755000D01*
X7080000Y-7725000D02*
X7050000Y-7755000D01*
X7095000Y-3260000D02*
X7125000Y-3290000D01*
X7125000Y-3260000D02*
X7095000Y-3290000D01*
X7095000Y-3770000D02*
X7125000Y-3800000D01*
X7125000Y-3770000D02*
X7095000Y-3800000D01*
X7095000Y-10220000D02*
X7125000Y-10250000D01*
X7125000Y-10220000D02*
X7095000Y-10250000D01*
X7095000Y-10730000D02*
X7125000Y-10760000D01*
X7125000Y-10730000D02*
X7095000Y-10760000D01*
X7150000Y-6985000D02*
X7180000Y-7015000D01*
X7180000Y-6985000D02*
X7150000Y-7015000D01*
X7150000Y-7290000D02*
X7180000Y-7320000D01*
X7180000Y-7290000D02*
X7150000Y-7320000D01*
X7175000Y-5520000D02*
X7205000Y-5550000D01*
X7205000Y-5520000D02*
X7175000Y-5550000D01*
X7175000Y-6030000D02*
X7205000Y-6060000D01*
X7205000Y-6030000D02*
X7175000Y-6060000D01*
X7175000Y-6540000D02*
X7205000Y-6570000D01*
X7205000Y-6540000D02*
X7175000Y-6570000D01*
X7250000Y-10000000D02*
X7280000Y-10030000D01*
X7280000Y-10000000D02*
X7250000Y-10030000D01*
X7265000Y-4240000D02*
X7295000Y-4270000D01*
X7295000Y-4240000D02*
X7265000Y-4270000D01*
X7380000Y-8595000D02*
X7410000Y-8625000D01*
X7410000Y-8595000D02*
X7380000Y-8625000D01*
X7570000Y-7685000D02*
X7600000Y-7715000D01*
X7600000Y-7685000D02*
X7570000Y-7715000D01*
X7605000Y-3260000D02*
X7635000Y-3290000D01*
X7635000Y-3260000D02*
X7605000Y-3290000D01*
X7605000Y-3770000D02*
X7635000Y-3800000D01*
X7635000Y-3770000D02*
X7605000Y-3800000D01*
X7605000Y-10220000D02*
X7635000Y-10250000D01*
X7635000Y-10220000D02*
X7605000Y-10250000D01*
X7605000Y-10730000D02*
X7635000Y-10760000D01*
X7635000Y-10730000D02*
X7605000Y-10760000D01*
X7645000Y-5405000D02*
X7675000Y-5435000D01*
X7675000Y-5405000D02*
X7645000Y-5435000D01*
X7655000Y-6985000D02*
X7685000Y-7015000D01*
X7685000Y-6985000D02*
X7655000Y-7015000D01*
X7680000Y-7290000D02*
X7710000Y-7320000D01*
X7710000Y-7290000D02*
X7680000Y-7320000D01*
X7760000Y-10000000D02*
X7790000Y-10030000D01*
X7790000Y-10000000D02*
X7760000Y-10030000D01*
X7785000Y-4685000D02*
X7815000Y-4715000D01*
X7815000Y-4685000D02*
X7785000Y-4715000D01*
X7860000Y-9180000D02*
X7890000Y-9210000D01*
X7890000Y-9180000D02*
X7860000Y-9210000D01*
X8010000Y-5405000D02*
X8040000Y-5435000D01*
X8040000Y-5405000D02*
X8010000Y-5435000D01*
X8030000Y-7875000D02*
X8060000Y-7905000D01*
X8060000Y-7875000D02*
X8030000Y-7905000D01*
X8075000Y-10225000D02*
X8105000Y-10255000D01*
X8105000Y-10225000D02*
X8075000Y-10255000D01*
X8075000Y-10735000D02*
X8105000Y-10765000D01*
X8105000Y-10735000D02*
X8075000Y-10765000D01*
X8115000Y-3260000D02*
X8145000Y-3290000D01*
X8145000Y-3260000D02*
X8115000Y-3290000D01*
X8115000Y-3770000D02*
X8145000Y-3800000D01*
X8145000Y-3770000D02*
X8115000Y-3800000D01*
X8165000Y-6985000D02*
X8195000Y-7015000D01*
X8195000Y-6985000D02*
X8165000Y-7015000D01*
X8165000Y-7315000D02*
X8195000Y-7345000D01*
X8195000Y-7315000D02*
X8165000Y-7345000D01*
X8265000Y-10000000D02*
X8295000Y-10030000D01*
X8295000Y-10000000D02*
X8265000Y-10030000D01*
X8585000Y-3265000D02*
X8615000Y-3295000D01*
X8615000Y-3265000D02*
X8585000Y-3295000D01*
X8585000Y-3775000D02*
X8615000Y-3805000D01*
X8615000Y-3775000D02*
X8585000Y-3805000D01*
X8585000Y-10225000D02*
X8615000Y-10255000D01*
X8615000Y-10225000D02*
X8585000Y-10255000D01*
X8585000Y-10735000D02*
X8615000Y-10765000D01*
X8615000Y-10735000D02*
X8585000Y-10765000D01*
X8760000Y-7845000D02*
X8790000Y-7875000D01*
X8790000Y-7845000D02*
X8760000Y-7875000D01*
X8775000Y-10000000D02*
X8805000Y-10030000D01*
X8805000Y-10000000D02*
X8775000Y-10030000D01*
X8800000Y-9580000D02*
X8830000Y-9610000D01*
X8830000Y-9580000D02*
X8800000Y-9610000D01*
X8804000Y-9149000D02*
X8834000Y-9179000D01*
X8834000Y-9149000D02*
X8804000Y-9179000D01*
X8835000Y-4840000D02*
X8865000Y-4870000D01*
X8865000Y-4840000D02*
X8835000Y-4870000D01*
X8850000Y-4185000D02*
X8880000Y-4215000D01*
X8880000Y-4185000D02*
X8850000Y-4215000D01*
X8855000Y-4470000D02*
X8885000Y-4500000D01*
X8885000Y-4470000D02*
X8855000Y-4500000D01*
X8855000Y-5320000D02*
X8885000Y-5350000D01*
X8885000Y-5320000D02*
X8855000Y-5350000D01*
X8930000Y-6080000D02*
X8960000Y-6110000D01*
X8960000Y-6080000D02*
X8930000Y-6110000D01*
X8965000Y-5560000D02*
X8995000Y-5590000D01*
X8995000Y-5560000D02*
X8965000Y-5590000D01*
X9095000Y-3265000D02*
X9125000Y-3295000D01*
X9125000Y-3265000D02*
X9095000Y-3295000D01*
X9095000Y-3775000D02*
X9125000Y-3805000D01*
X9125000Y-3775000D02*
X9095000Y-3805000D01*
X9095000Y-10225000D02*
X9125000Y-10255000D01*
X9125000Y-10225000D02*
X9095000Y-10255000D01*
X9095000Y-10735000D02*
X9125000Y-10765000D01*
X9125000Y-10735000D02*
X9095000Y-10765000D01*
X9185000Y-6985000D02*
X9215000Y-7015000D01*
X9215000Y-6985000D02*
X9185000Y-7015000D01*
X9205000Y-8800000D02*
X9235000Y-8830000D01*
X9235000Y-8800000D02*
X9205000Y-8830000D01*
X9210000Y-8305000D02*
X9240000Y-8335000D01*
X9240000Y-8305000D02*
X9210000Y-8335000D01*
X9290000Y-5990000D02*
X9320000Y-6020000D01*
X9320000Y-5990000D02*
X9290000Y-6020000D01*
X9605000Y-3265000D02*
X9635000Y-3295000D01*
X9635000Y-3265000D02*
X9605000Y-3295000D01*
X9605000Y-3775000D02*
X9635000Y-3805000D01*
X9635000Y-3775000D02*
X9605000Y-3805000D01*
X9605000Y-10225000D02*
X9635000Y-10255000D01*
X9635000Y-10225000D02*
X9605000Y-10255000D01*
X9605000Y-10735000D02*
X9635000Y-10765000D01*
X9635000Y-10735000D02*
X9605000Y-10765000D01*
X9790000Y-8755000D02*
X9820000Y-8785000D01*
X9820000Y-8755000D02*
X9790000Y-8785000D01*
X9975000Y-10225000D02*
X10005000Y-10255000D01*
X10005000Y-10225000D02*
X9975000Y-10255000D01*
X9975000Y-10735000D02*
X10005000Y-10765000D01*
X10005000Y-10735000D02*
X9975000Y-10765000D01*
X9990000Y-8325000D02*
X10020000Y-8355000D01*
X10020000Y-8325000D02*
X9990000Y-8355000D01*
X10010000Y-7590000D02*
X10040000Y-7620000D01*
X10040000Y-7590000D02*
X10010000Y-7620000D01*
X10115000Y-3265000D02*
X10145000Y-3295000D01*
X10145000Y-3265000D02*
X10115000Y-3295000D01*
X10115000Y-3775000D02*
X10145000Y-3805000D01*
X10145000Y-3775000D02*
X10115000Y-3805000D01*
X10120000Y-6725000D02*
X10150000Y-6755000D01*
X10150000Y-6725000D02*
X10120000Y-6755000D01*
X10485000Y-3265000D02*
X10515000Y-3295000D01*
X10515000Y-3265000D02*
X10485000Y-3295000D01*
X10485000Y-3775000D02*
X10515000Y-3805000D01*
X10515000Y-3775000D02*
X10485000Y-3805000D01*
X10505000Y-5805000D02*
X10535000Y-5835000D01*
X10535000Y-5805000D02*
X10505000Y-5835000D01*
X10530000Y-7615000D02*
X10560000Y-7645000D01*
X10560000Y-7615000D02*
X10530000Y-7645000D01*
X10565000Y-5565000D02*
X10595000Y-5595000D01*
X10595000Y-5565000D02*
X10565000Y-5595000D01*
X10615000Y-8205000D02*
X10645000Y-8235000D01*
X10645000Y-8205000D02*
X10615000Y-8235000D01*
X10795000Y-6075000D02*
X10825000Y-6105000D01*
X10825000Y-6075000D02*
X10795000Y-6105000D01*
X10865000Y-3245000D02*
X10895000Y-3275000D01*
X10895000Y-3245000D02*
X10865000Y-3275000D01*
X10865000Y-3705000D02*
X10895000Y-3735000D01*
X10895000Y-3705000D02*
X10865000Y-3735000D01*
X11015000Y-8555000D02*
X11045000Y-8585000D01*
X11045000Y-8555000D02*
X11015000Y-8585000D01*
X11035000Y-5275000D02*
X11065000Y-5305000D01*
X11065000Y-5275000D02*
X11035000Y-5305000D01*
X11045000Y-5795000D02*
X11075000Y-5825000D01*
X11075000Y-5795000D02*
X11045000Y-5825000D01*
X11215000Y-6105000D02*
X11245000Y-6135000D01*
X11245000Y-6105000D02*
X11215000Y-6135000D01*
X11215000Y-7665000D02*
X11245000Y-7695000D01*
X11245000Y-7665000D02*
X11215000Y-7695000D01*
X11245000Y-8655000D02*
X11275000Y-8685000D01*
X11275000Y-8655000D02*
X11245000Y-8685000D01*
X11255000Y-3275000D02*
X11285000Y-3305000D01*
X11285000Y-3275000D02*
X11255000Y-3305000D01*
X11275000Y-5425000D02*
X11305000Y-5455000D01*
X11305000Y-5425000D02*
X11275000Y-5455000D01*
X11305000Y-10405000D02*
X11335000Y-10435000D01*
X11335000Y-10405000D02*
X11305000Y-10435000D01*
X11315000Y-3705000D02*
X11345000Y-3735000D01*
X11345000Y-3705000D02*
X11315000Y-3735000D01*
X11315000Y-10735000D02*
X11345000Y-10765000D01*
X11345000Y-10735000D02*
X11315000Y-10765000D01*
X11465000Y-10115000D02*
X11495000Y-10145000D01*
X11495000Y-10115000D02*
X11465000Y-10145000D01*
X11555000Y-10335000D02*
X11585000Y-10365000D01*
X11585000Y-10335000D02*
X11555000Y-10365000D01*
X11595000Y-8035000D02*
X11625000Y-8065000D01*
X11625000Y-8035000D02*
X11595000Y-8065000D01*
X11635000Y-7675000D02*
X11665000Y-7705000D01*
X11665000Y-7675000D02*
X11635000Y-7705000D01*
X11635000Y-10665000D02*
X11665000Y-10695000D01*
X11665000Y-10665000D02*
X11635000Y-10695000D01*
X11665000Y-3255000D02*
X11695000Y-3285000D01*
X11695000Y-3255000D02*
X11665000Y-3285000D01*
X11715000Y-3585000D02*
X11745000Y-3615000D01*
X11745000Y-3585000D02*
X11715000Y-3615000D01*
X11775000Y-6845000D02*
X11805000Y-6875000D01*
X11805000Y-6845000D02*
X11775000Y-6875000D01*
X11865000Y-7215000D02*
X11895000Y-7245000D01*
X11895000Y-7215000D02*
X11865000Y-7245000D01*
X11955000Y-10055000D02*
X11985000Y-10085000D01*
X11985000Y-10055000D02*
X11955000Y-10085000D01*
X12025000Y-7635000D02*
X12055000Y-7665000D01*
X12055000Y-7635000D02*
X12025000Y-7665000D01*
X12025000Y-7975000D02*
X12055000Y-8005000D01*
X12055000Y-7975000D02*
X12025000Y-8005000D01*
X12045000Y-6935000D02*
X12075000Y-6965000D01*
X12075000Y-6935000D02*
X12045000Y-6965000D01*
X12055000Y-5315000D02*
X12085000Y-5345000D01*
X12085000Y-5315000D02*
X12055000Y-5345000D01*
X12085000Y-9065000D02*
X12115000Y-9095000D01*
X12115000Y-9065000D02*
X12085000Y-9095000D01*
X12135000Y-5915000D02*
X12165000Y-5945000D01*
X12165000Y-5915000D02*
X12135000Y-5945000D01*
X12135000Y-6145000D02*
X12165000Y-6175000D01*
X12165000Y-6145000D02*
X12135000Y-6175000D01*
X12255000Y-5625000D02*
X12285000Y-5655000D01*
X12285000Y-5625000D02*
X12255000Y-5655000D01*
X12285000Y-5325000D02*
X12315000Y-5355000D01*
X12315000Y-5325000D02*
X12285000Y-5355000D01*
X12295000Y-9195000D02*
X12325000Y-9225000D01*
X12325000Y-9195000D02*
X12295000Y-9225000D01*
X12355000Y-6795000D02*
X12385000Y-6825000D01*
X12385000Y-6795000D02*
X12355000Y-6825000D01*
X12545000Y-9075000D02*
X12575000Y-9105000D01*
X12575000Y-9075000D02*
X12545000Y-9105000D01*
X7060000Y-6300000D02*
G75*
G02*
X7010000Y-6300000I-25000J0D01*
G01*
X7010000Y-6300000D02*
G75*
G02*
X7060000Y-6300000I25000J0D01*
G01*
X7500000Y-6300000D02*
G75*
G02*
X7450000Y-6300000I-25000J0D01*
G01*
X7450000Y-6300000D02*
G75*
G02*
X7500000Y-6300000I25000J0D01*
G01*
X7800000Y-8660000D02*
G75*
G02*
X7750000Y-8660000I-25000J0D01*
G01*
X7750000Y-8660000D02*
G75*
G02*
X7800000Y-8660000I25000J0D01*
G01*
X7840000Y-6290000D02*
G75*
G02*
X7790000Y-6290000I-25000J0D01*
G01*
X7790000Y-6290000D02*
G75*
G02*
X7840000Y-6290000I25000J0D01*
G01*
X8310000Y-8660000D02*
G75*
G02*
X8260000Y-8660000I-25000J0D01*
G01*
X8260000Y-8660000D02*
G75*
G02*
X8310000Y-8660000I25000J0D01*
G01*
X8430000Y-6300000D02*
G75*
G02*
X8380000Y-6300000I-25000J0D01*
G01*
X8380000Y-6300000D02*
G75*
G02*
X8430000Y-6300000I25000J0D01*
G01*
X8480000Y-7710000D02*
G75*
G02*
X8430000Y-7710000I-25000J0D01*
G01*
X8430000Y-7710000D02*
G75*
G02*
X8480000Y-7710000I25000J0D01*
G01*
X8570000Y-8660000D02*
G75*
G02*
X8520000Y-8660000I-25000J0D01*
G01*
X8520000Y-8660000D02*
G75*
G02*
X8570000Y-8660000I25000J0D01*
G01*
X10510000Y-4250000D02*
G75*
G02*
X10460000Y-4250000I-25000J0D01*
G01*
X10460000Y-4250000D02*
G75*
G02*
X10510000Y-4250000I25000J0D01*
G01*
X10570000Y-9720000D02*
G75*
G02*
X10520000Y-9720000I-25000J0D01*
G01*
X10520000Y-9720000D02*
G75*
G02*
X10570000Y-9720000I25000J0D01*
G01*
X5415000Y-5025000D02*
X5415000Y-5095000D01*
X5380000Y-5060000D02*
X5450000Y-5060000D01*
X5415000Y-8919000D02*
X5415000Y-8989000D01*
X5380000Y-8954000D02*
X5450000Y-8954000D01*
X5615000Y-5025000D02*
X5615000Y-5095000D01*
X5580000Y-5060000D02*
X5650000Y-5060000D01*
X5615000Y-8919000D02*
X5615000Y-8989000D01*
X5580000Y-8954000D02*
X5650000Y-8954000D01*
X7125000Y-5025000D02*
X7125000Y-5095000D01*
X7090000Y-5060000D02*
X7160000Y-5060000D01*
X7125000Y-8919000D02*
X7125000Y-8989000D01*
X7090000Y-8954000D02*
X7160000Y-8954000D01*
X7325000Y-5025000D02*
X7325000Y-5095000D01*
X7290000Y-5060000D02*
X7360000Y-5060000D01*
X7325000Y-8919000D02*
X7325000Y-8989000D01*
X7290000Y-8954000D02*
X7360000Y-8954000D01*
X7800870Y-4326870D02*
X7800870Y-4273130D01*
X7747130Y-4273130D01*
X7747130Y-4326870D01*
X7800870Y-4326870D01*
X7800870Y-5088870D02*
X7800870Y-5035130D01*
X7747130Y-5035130D01*
X7747130Y-5088870D01*
X7800870Y-5088870D01*
X7800870Y-8974870D02*
X7800870Y-8921130D01*
X7747130Y-8921130D01*
X7747130Y-8974870D01*
X7800870Y-8974870D01*
X7800870Y-9736870D02*
X7800870Y-9683130D01*
X7747130Y-9683130D01*
X7747130Y-9736870D01*
X7800870Y-9736870D01*
X8054870Y-4326870D02*
X8054870Y-4273130D01*
X8001130Y-4273130D01*
X8001130Y-4326870D01*
X8054870Y-4326870D01*
X8054870Y-5088870D02*
X8054870Y-5035130D01*
X8001130Y-5035130D01*
X8001130Y-5088870D01*
X8054870Y-5088870D01*
X8054870Y-8974870D02*
X8054870Y-8921130D01*
X8001130Y-8921130D01*
X8001130Y-8974870D01*
X8054870Y-8974870D01*
X8054870Y-9736870D02*
X8054870Y-9683130D01*
X8001130Y-9683130D01*
X8001130Y-9736870D01*
X8054870Y-9736870D01*
X8308870Y-4326870D02*
X8308870Y-4273130D01*
X8255130Y-4273130D01*
X8255130Y-4326870D01*
X8308870Y-4326870D01*
X8308870Y-5088870D02*
X8308870Y-5035130D01*
X8255130Y-5035130D01*
X8255130Y-5088870D01*
X8308870Y-5088870D01*
X8308870Y-8974870D02*
X8308870Y-8921130D01*
X8255130Y-8921130D01*
X8255130Y-8974870D01*
X8308870Y-8974870D01*
X8308870Y-9736870D02*
X8308870Y-9683130D01*
X8255130Y-9683130D01*
X8255130Y-9736870D01*
X8308870Y-9736870D01*
X8562870Y-4326870D02*
X8562870Y-4273130D01*
X8509130Y-4273130D01*
X8509130Y-4326870D01*
X8562870Y-4326870D01*
X8562870Y-5088870D02*
X8562870Y-5035130D01*
X8509130Y-5035130D01*
X8509130Y-5088870D01*
X8562870Y-5088870D01*
X8562870Y-8974870D02*
X8562870Y-8921130D01*
X8509130Y-8921130D01*
X8509130Y-8974870D01*
X8562870Y-8974870D01*
X8562870Y-9736870D02*
X8562870Y-9683130D01*
X8509130Y-9683130D01*
X8509130Y-9736870D01*
X8562870Y-9736870D01*
X4995000Y-4338000D02*
X5035000Y-4298000D01*
X4995000Y-4258000D01*
X4955000Y-4298000D01*
X4995000Y-4338000D01*
X4995000Y-5100000D02*
X5035000Y-5060000D01*
X4995000Y-5020000D01*
X4955000Y-5060000D01*
X4995000Y-5100000D01*
X4995000Y-5713000D02*
X5035000Y-5673000D01*
X4995000Y-5633000D01*
X4955000Y-5673000D01*
X4995000Y-5713000D01*
X4995000Y-6729000D02*
X5035000Y-6689000D01*
X4995000Y-6649000D01*
X4955000Y-6689000D01*
X4995000Y-6729000D01*
X4995000Y-7365000D02*
X5035000Y-7325000D01*
X4995000Y-7285000D01*
X4955000Y-7325000D01*
X4995000Y-7365000D01*
X4995000Y-8381000D02*
X5035000Y-8341000D01*
X4995000Y-8301000D01*
X4955000Y-8341000D01*
X4995000Y-8381000D01*
X4995000Y-8994000D02*
X5035000Y-8954000D01*
X4995000Y-8914000D01*
X4955000Y-8954000D01*
X4995000Y-8994000D01*
X4995000Y-9756000D02*
X5035000Y-9716000D01*
X4995000Y-9676000D01*
X4955000Y-9716000D01*
X4995000Y-9756000D01*
X5625000Y-6221000D02*
X5665000Y-6181000D01*
X5625000Y-6141000D01*
X5585000Y-6181000D01*
X5625000Y-6221000D01*
X5625000Y-6475000D02*
X5665000Y-6435000D01*
X5625000Y-6395000D01*
X5585000Y-6435000D01*
X5625000Y-6475000D01*
X5625000Y-6729000D02*
X5665000Y-6689000D01*
X5625000Y-6649000D01*
X5585000Y-6689000D01*
X5625000Y-6729000D01*
X5625000Y-7365000D02*
X5665000Y-7325000D01*
X5625000Y-7285000D01*
X5585000Y-7325000D01*
X5625000Y-7365000D01*
X5625000Y-7619000D02*
X5665000Y-7579000D01*
X5625000Y-7539000D01*
X5585000Y-7579000D01*
X5625000Y-7619000D01*
X5625000Y-7873000D02*
X5665000Y-7833000D01*
X5625000Y-7793000D01*
X5585000Y-7833000D01*
X5625000Y-7873000D01*
X6505000Y-7365000D02*
X6545000Y-7325000D01*
X6505000Y-7285000D01*
X6465000Y-7325000D01*
X6505000Y-7365000D01*
X6505000Y-8635000D02*
X6545000Y-8595000D01*
X6505000Y-8555000D01*
X6465000Y-8595000D01*
X6505000Y-8635000D01*
X6505000Y-8994000D02*
X6545000Y-8954000D01*
X6505000Y-8914000D01*
X6465000Y-8954000D01*
X6505000Y-8994000D01*
X6505000Y-9756000D02*
X6545000Y-9716000D01*
X6505000Y-9676000D01*
X6465000Y-9716000D01*
X6505000Y-9756000D01*
X6510000Y-4338000D02*
X6550000Y-4298000D01*
X6510000Y-4258000D01*
X6470000Y-4298000D01*
X6510000Y-4338000D01*
X6510000Y-5100000D02*
X6550000Y-5060000D01*
X6510000Y-5020000D01*
X6470000Y-5060000D01*
X6510000Y-5100000D01*
X6510000Y-5459000D02*
X6550000Y-5419000D01*
X6510000Y-5379000D01*
X6470000Y-5419000D01*
X6510000Y-5459000D01*
X6510000Y-6729000D02*
X6550000Y-6689000D01*
X6510000Y-6649000D01*
X6470000Y-6689000D01*
X6510000Y-6729000D01*
X7034000Y-5890000D02*
X7074000Y-5850000D01*
X7034000Y-5810000D01*
X6994000Y-5850000D01*
X7034000Y-5890000D01*
X7034000Y-8240000D02*
X7074000Y-8200000D01*
X7034000Y-8160000D01*
X6994000Y-8200000D01*
X7034000Y-8240000D01*
X7796000Y-5890000D02*
X7836000Y-5850000D01*
X7796000Y-5810000D01*
X7756000Y-5850000D01*
X7796000Y-5890000D01*
X7796000Y-8240000D02*
X7836000Y-8200000D01*
X7796000Y-8160000D01*
X7756000Y-8200000D01*
X7796000Y-8240000D01*
X8034000Y-8240000D02*
X8074000Y-8200000D01*
X8034000Y-8160000D01*
X7994000Y-8200000D01*
X8034000Y-8240000D01*
X8074000Y-5890000D02*
X8114000Y-5850000D01*
X8074000Y-5810000D01*
X8034000Y-5850000D01*
X8074000Y-5890000D01*
X8796000Y-8240000D02*
X8836000Y-8200000D01*
X8796000Y-8160000D01*
X8756000Y-8200000D01*
X8796000Y-8240000D01*
X8836000Y-5890000D02*
X8876000Y-5850000D01*
X8836000Y-5810000D01*
X8796000Y-5850000D01*
X8836000Y-5890000D01*
D13*
X10499000Y-4671000D02*
X10609000Y-4781000D01*
X10609000Y-4671000D02*
X10499000Y-4781000D01*
X10609000Y-4726000D02*
G75*
G02*
X10499000Y-4726000I-55000J0D01*
G01*
X10499000Y-4726000D02*
G75*
G02*
X10609000Y-4726000I55000J0D01*
G01*
X10499000Y-4925000D02*
X10609000Y-5035000D01*
X10609000Y-4925000D02*
X10499000Y-5035000D01*
X10609000Y-4980000D02*
G75*
G02*
X10499000Y-4980000I-55000J0D01*
G01*
X10499000Y-4980000D02*
G75*
G02*
X10609000Y-4980000I55000J0D01*
G01*
X10499000Y-5179000D02*
X10609000Y-5289000D01*
X10609000Y-5179000D02*
X10499000Y-5289000D01*
X10609000Y-5234000D02*
G75*
G02*
X10499000Y-5234000I-55000J0D01*
G01*
X10499000Y-5234000D02*
G75*
G02*
X10609000Y-5234000I55000J0D01*
G01*
X10499000Y-8601000D02*
X10609000Y-8711000D01*
X10609000Y-8601000D02*
X10499000Y-8711000D01*
X10609000Y-8656000D02*
G75*
G02*
X10499000Y-8656000I-55000J0D01*
G01*
X10499000Y-8656000D02*
G75*
G02*
X10609000Y-8656000I55000J0D01*
G01*
X10499000Y-8855000D02*
X10609000Y-8965000D01*
X10609000Y-8855000D02*
X10499000Y-8965000D01*
X10609000Y-8910000D02*
G75*
G02*
X10499000Y-8910000I-55000J0D01*
G01*
X10499000Y-8910000D02*
G75*
G02*
X10609000Y-8910000I55000J0D01*
G01*
X10499000Y-9109000D02*
X10609000Y-9219000D01*
X10609000Y-9109000D02*
X10499000Y-9219000D01*
X10609000Y-9164000D02*
G75*
G02*
X10499000Y-9164000I-55000J0D01*
G01*
X10499000Y-9164000D02*
G75*
G02*
X10609000Y-9164000I55000J0D01*
G01*
D14*
X8435000Y-6940000D02*
X8595000Y-7100000D01*
X8595000Y-6940000D02*
X8435000Y-7100000D01*
X8515000Y-6940000D02*
X8515000Y-7100000D01*
X8435000Y-7020000D02*
X8595000Y-7020000D01*
X9335000Y-7830000D02*
X9495000Y-7990000D01*
X9495000Y-7830000D02*
X9335000Y-7990000D01*
X9415000Y-7830000D02*
X9415000Y-7990000D01*
X9335000Y-7910000D02*
X9495000Y-7910000D01*
X9335000Y-9830000D02*
X9495000Y-9990000D01*
X9495000Y-9830000D02*
X9335000Y-9990000D01*
X9415000Y-9830000D02*
X9415000Y-9990000D01*
X9335000Y-9910000D02*
X9495000Y-9910000D01*
X9495000Y-4210000D02*
X9655000Y-4370000D01*
X9655000Y-4210000D02*
X9495000Y-4370000D01*
X9575000Y-4210000D02*
X9575000Y-4370000D01*
X9495000Y-4290000D02*
X9655000Y-4290000D01*
X9495000Y-6210000D02*
X9655000Y-6370000D01*
X9655000Y-6210000D02*
X9495000Y-6370000D01*
X9575000Y-6210000D02*
X9575000Y-6370000D01*
X9495000Y-6290000D02*
X9655000Y-6290000D01*
X10435000Y-6940000D02*
X10595000Y-7100000D01*
X10595000Y-6940000D02*
X10435000Y-7100000D01*
X10515000Y-6940000D02*
X10515000Y-7100000D01*
X10435000Y-7020000D02*
X10595000Y-7020000D01*
D11*
X10710000Y-10380000D02*
X10910000Y-10580000D01*
X10910000Y-10380000D02*
X10710000Y-10580000D01*
X10880711Y-10550711D02*
X10880711Y-10409289D01*
X10739289Y-10409289D01*
X10739289Y-10550711D01*
X10880711Y-10550711D01*
X11260000Y-7150000D02*
X11460000Y-7350000D01*
X11460000Y-7150000D02*
X11260000Y-7350000D01*
X11430711Y-7320711D02*
X11430711Y-7179289D01*
X11289289Y-7179289D01*
X11289289Y-7320711D01*
X11430711Y-7320711D01*
X11570000Y-8620000D02*
X11770000Y-8820000D01*
X11770000Y-8620000D02*
X11570000Y-8820000D01*
X11740711Y-8790711D02*
X11740711Y-8649289D01*
X11599289Y-8649289D01*
X11599289Y-8790711D01*
X11740711Y-8790711D01*
X11570000Y-9620000D02*
X11770000Y-9820000D01*
X11770000Y-9620000D02*
X11570000Y-9820000D01*
X11740711Y-9790711D02*
X11740711Y-9649289D01*
X11599289Y-9649289D01*
X11599289Y-9790711D01*
X11740711Y-9790711D01*
X11580000Y-4150000D02*
X11780000Y-4350000D01*
X11780000Y-4150000D02*
X11580000Y-4350000D01*
X11750711Y-4320711D02*
X11750711Y-4179289D01*
X11609289Y-4179289D01*
X11609289Y-4320711D01*
X11750711Y-4320711D01*
X11580000Y-4870000D02*
X11780000Y-5070000D01*
X11780000Y-4870000D02*
X11580000Y-5070000D01*
X11750711Y-5040711D02*
X11750711Y-4899289D01*
X11609289Y-4899289D01*
X11609289Y-5040711D01*
X11750711Y-5040711D01*
X11590000Y-5860000D02*
X11790000Y-6060000D01*
X11790000Y-5860000D02*
X11590000Y-6060000D01*
X11760711Y-6030711D02*
X11760711Y-5889289D01*
X11619289Y-5889289D01*
X11619289Y-6030711D01*
X11760711Y-6030711D01*
X12485000Y-6365000D02*
X12685000Y-6565000D01*
X12685000Y-6365000D02*
X12485000Y-6565000D01*
X12655711Y-6535711D02*
X12655711Y-6394289D01*
X12514289Y-6394289D01*
X12514289Y-6535711D01*
X12655711Y-6535711D01*
X12485000Y-7215000D02*
X12685000Y-7415000D01*
X12685000Y-7215000D02*
X12485000Y-7415000D01*
X12655711Y-7385711D02*
X12655711Y-7244289D01*
X12514289Y-7244289D01*
X12514289Y-7385711D01*
X12655711Y-7385711D01*
X12485000Y-8620000D02*
X12685000Y-8820000D01*
X12685000Y-8620000D02*
X12485000Y-8820000D01*
X12655711Y-8790711D02*
X12655711Y-8649289D01*
X12514289Y-8649289D01*
X12514289Y-8790711D01*
X12655711Y-8790711D01*
X12485000Y-9620000D02*
X12685000Y-9820000D01*
X12685000Y-9620000D02*
X12485000Y-9820000D01*
X12655711Y-9790711D02*
X12655711Y-9649289D01*
X12514289Y-9649289D01*
X12514289Y-9790711D01*
X12655711Y-9790711D01*
X12495000Y-4150000D02*
X12695000Y-4350000D01*
X12695000Y-4150000D02*
X12495000Y-4350000D01*
X12665711Y-4320711D02*
X12665711Y-4179289D01*
X12524289Y-4179289D01*
X12524289Y-4320711D01*
X12665711Y-4320711D01*
X12495000Y-4870000D02*
X12695000Y-5070000D01*
X12695000Y-4870000D02*
X12495000Y-5070000D01*
X12665711Y-5040711D02*
X12665711Y-4899289D01*
X12524289Y-4899289D01*
X12524289Y-5040711D01*
X12665711Y-5040711D01*
X4023872Y-11303389D02*
X4023872Y-11103389D01*
X4023872Y-11103389D02*
X4071491Y-11103389D01*
X4071491Y-11103389D02*
X4100062Y-11112913D01*
X4100062Y-11112913D02*
X4119110Y-11131960D01*
X4119110Y-11131960D02*
X4128634Y-11151008D01*
X4128634Y-11151008D02*
X4138157Y-11189103D01*
X4138157Y-11189103D02*
X4138157Y-11217674D01*
X4138157Y-11217674D02*
X4128634Y-11255770D01*
X4128634Y-11255770D02*
X4119110Y-11274817D01*
X4119110Y-11274817D02*
X4100062Y-11293865D01*
X4100062Y-11293865D02*
X4071491Y-11303389D01*
X4071491Y-11303389D02*
X4023872Y-11303389D01*
X4223872Y-11303389D02*
X4223872Y-11170055D01*
X4223872Y-11208151D02*
X4233396Y-11189103D01*
X4233396Y-11189103D02*
X4242919Y-11179579D01*
X4242919Y-11179579D02*
X4261967Y-11170055D01*
X4261967Y-11170055D02*
X4281015Y-11170055D01*
X4347681Y-11303389D02*
X4347681Y-11170055D01*
X4347681Y-11103389D02*
X4338158Y-11112913D01*
X4338158Y-11112913D02*
X4347681Y-11122436D01*
X4347681Y-11122436D02*
X4357205Y-11112913D01*
X4357205Y-11112913D02*
X4347681Y-11103389D01*
X4347681Y-11103389D02*
X4347681Y-11122436D01*
X4471491Y-11303389D02*
X4452443Y-11293865D01*
X4452443Y-11293865D02*
X4442919Y-11274817D01*
X4442919Y-11274817D02*
X4442919Y-11103389D01*
X4576253Y-11303389D02*
X4557205Y-11293865D01*
X4557205Y-11293865D02*
X4547681Y-11274817D01*
X4547681Y-11274817D02*
X4547681Y-11103389D01*
X4804824Y-11303389D02*
X4804824Y-11103389D01*
X4804824Y-11103389D02*
X4871491Y-11246246D01*
X4871491Y-11246246D02*
X4938158Y-11103389D01*
X4938158Y-11103389D02*
X4938158Y-11303389D01*
X5119110Y-11303389D02*
X5119110Y-11198627D01*
X5119110Y-11198627D02*
X5109586Y-11179579D01*
X5109586Y-11179579D02*
X5090539Y-11170055D01*
X5090539Y-11170055D02*
X5052443Y-11170055D01*
X5052443Y-11170055D02*
X5033396Y-11179579D01*
X5119110Y-11293865D02*
X5100062Y-11303389D01*
X5100062Y-11303389D02*
X5052443Y-11303389D01*
X5052443Y-11303389D02*
X5033396Y-11293865D01*
X5033396Y-11293865D02*
X5023872Y-11274817D01*
X5023872Y-11274817D02*
X5023872Y-11255770D01*
X5023872Y-11255770D02*
X5033396Y-11236722D01*
X5033396Y-11236722D02*
X5052443Y-11227198D01*
X5052443Y-11227198D02*
X5100062Y-11227198D01*
X5100062Y-11227198D02*
X5119110Y-11217674D01*
X5214348Y-11170055D02*
X5214348Y-11370055D01*
X5214348Y-11179579D02*
X5233396Y-11170055D01*
X5233396Y-11170055D02*
X5271491Y-11170055D01*
X5271491Y-11170055D02*
X5290539Y-11179579D01*
X5290539Y-11179579D02*
X5300062Y-11189103D01*
X5300062Y-11189103D02*
X5309586Y-11208151D01*
X5309586Y-11208151D02*
X5309586Y-11265293D01*
X5309586Y-11265293D02*
X5300062Y-11284341D01*
X5300062Y-11284341D02*
X5290539Y-11293865D01*
X5290539Y-11293865D02*
X5271491Y-11303389D01*
X5271491Y-11303389D02*
X5233396Y-11303389D01*
X5233396Y-11303389D02*
X5214348Y-11293865D01*
X5395300Y-11284341D02*
X5404824Y-11293865D01*
X5404824Y-11293865D02*
X5395300Y-11303389D01*
X5395300Y-11303389D02*
X5385777Y-11293865D01*
X5385777Y-11293865D02*
X5395300Y-11284341D01*
X5395300Y-11284341D02*
X5395300Y-11303389D01*
X5395300Y-11179579D02*
X5404824Y-11189103D01*
X5404824Y-11189103D02*
X5395300Y-11198627D01*
X5395300Y-11198627D02*
X5385777Y-11189103D01*
X5385777Y-11189103D02*
X5395300Y-11179579D01*
X5395300Y-11179579D02*
X5395300Y-11198627D01*
D12*
X3733095Y-11616905D02*
X3763095Y-11646905D01*
X3763095Y-11616905D02*
X3733095Y-11646905D01*
D11*
X4061967Y-11523389D02*
X4081015Y-11523389D01*
X4081015Y-11523389D02*
X4100062Y-11532913D01*
X4100062Y-11532913D02*
X4109586Y-11542436D01*
X4109586Y-11542436D02*
X4119110Y-11561484D01*
X4119110Y-11561484D02*
X4128634Y-11599579D01*
X4128634Y-11599579D02*
X4128634Y-11647198D01*
X4128634Y-11647198D02*
X4119110Y-11685293D01*
X4119110Y-11685293D02*
X4109586Y-11704341D01*
X4109586Y-11704341D02*
X4100062Y-11713865D01*
X4100062Y-11713865D02*
X4081015Y-11723389D01*
X4081015Y-11723389D02*
X4061967Y-11723389D01*
X4061967Y-11723389D02*
X4042919Y-11713865D01*
X4042919Y-11713865D02*
X4033396Y-11704341D01*
X4033396Y-11704341D02*
X4023872Y-11685293D01*
X4023872Y-11685293D02*
X4014348Y-11647198D01*
X4014348Y-11647198D02*
X4014348Y-11599579D01*
X4014348Y-11599579D02*
X4023872Y-11561484D01*
X4023872Y-11561484D02*
X4033396Y-11542436D01*
X4033396Y-11542436D02*
X4042919Y-11532913D01*
X4042919Y-11532913D02*
X4061967Y-11523389D01*
X4214348Y-11704341D02*
X4223872Y-11713865D01*
X4223872Y-11713865D02*
X4214348Y-11723389D01*
X4214348Y-11723389D02*
X4204824Y-11713865D01*
X4204824Y-11713865D02*
X4214348Y-11704341D01*
X4214348Y-11704341D02*
X4214348Y-11723389D01*
X4290539Y-11523389D02*
X4414348Y-11523389D01*
X4414348Y-11523389D02*
X4347681Y-11599579D01*
X4347681Y-11599579D02*
X4376253Y-11599579D01*
X4376253Y-11599579D02*
X4395300Y-11609103D01*
X4395300Y-11609103D02*
X4404824Y-11618627D01*
X4404824Y-11618627D02*
X4414348Y-11637674D01*
X4414348Y-11637674D02*
X4414348Y-11685293D01*
X4414348Y-11685293D02*
X4404824Y-11704341D01*
X4404824Y-11704341D02*
X4395300Y-11713865D01*
X4395300Y-11713865D02*
X4376253Y-11723389D01*
X4376253Y-11723389D02*
X4319110Y-11723389D01*
X4319110Y-11723389D02*
X4300062Y-11713865D01*
X4300062Y-11713865D02*
X4290539Y-11704341D01*
X4538158Y-11523389D02*
X4557205Y-11523389D01*
X4557205Y-11523389D02*
X4576253Y-11532913D01*
X4576253Y-11532913D02*
X4585777Y-11542436D01*
X4585777Y-11542436D02*
X4595300Y-11561484D01*
X4595300Y-11561484D02*
X4604824Y-11599579D01*
X4604824Y-11599579D02*
X4604824Y-11647198D01*
X4604824Y-11647198D02*
X4595300Y-11685293D01*
X4595300Y-11685293D02*
X4585777Y-11704341D01*
X4585777Y-11704341D02*
X4576253Y-11713865D01*
X4576253Y-11713865D02*
X4557205Y-11723389D01*
X4557205Y-11723389D02*
X4538158Y-11723389D01*
X4538158Y-11723389D02*
X4519110Y-11713865D01*
X4519110Y-11713865D02*
X4509586Y-11704341D01*
X4509586Y-11704341D02*
X4500062Y-11685293D01*
X4500062Y-11685293D02*
X4490539Y-11647198D01*
X4490539Y-11647198D02*
X4490539Y-11599579D01*
X4490539Y-11599579D02*
X4500062Y-11561484D01*
X4500062Y-11561484D02*
X4509586Y-11542436D01*
X4509586Y-11542436D02*
X4519110Y-11532913D01*
X4519110Y-11532913D02*
X4538158Y-11523389D01*
X4728634Y-11523389D02*
X4747681Y-11523389D01*
X4747681Y-11523389D02*
X4766729Y-11532913D01*
X4766729Y-11532913D02*
X4776253Y-11542436D01*
X4776253Y-11542436D02*
X4785777Y-11561484D01*
X4785777Y-11561484D02*
X4795300Y-11599579D01*
X4795300Y-11599579D02*
X4795300Y-11647198D01*
X4795300Y-11647198D02*
X4785777Y-11685293D01*
X4785777Y-11685293D02*
X4776253Y-11704341D01*
X4776253Y-11704341D02*
X4766729Y-11713865D01*
X4766729Y-11713865D02*
X4747681Y-11723389D01*
X4747681Y-11723389D02*
X4728634Y-11723389D01*
X4728634Y-11723389D02*
X4709586Y-11713865D01*
X4709586Y-11713865D02*
X4700062Y-11704341D01*
X4700062Y-11704341D02*
X4690539Y-11685293D01*
X4690539Y-11685293D02*
X4681015Y-11647198D01*
X4681015Y-11647198D02*
X4681015Y-11599579D01*
X4681015Y-11599579D02*
X4690539Y-11561484D01*
X4690539Y-11561484D02*
X4700062Y-11542436D01*
X4700062Y-11542436D02*
X4709586Y-11532913D01*
X4709586Y-11532913D02*
X4728634Y-11523389D01*
X4881015Y-11723389D02*
X4881015Y-11590055D01*
X4881015Y-11609103D02*
X4890539Y-11599579D01*
X4890539Y-11599579D02*
X4909586Y-11590055D01*
X4909586Y-11590055D02*
X4938158Y-11590055D01*
X4938158Y-11590055D02*
X4957205Y-11599579D01*
X4957205Y-11599579D02*
X4966729Y-11618627D01*
X4966729Y-11618627D02*
X4966729Y-11723389D01*
X4966729Y-11618627D02*
X4976253Y-11599579D01*
X4976253Y-11599579D02*
X4995300Y-11590055D01*
X4995300Y-11590055D02*
X5023872Y-11590055D01*
X5023872Y-11590055D02*
X5042920Y-11599579D01*
X5042920Y-11599579D02*
X5052443Y-11618627D01*
X5052443Y-11618627D02*
X5052443Y-11723389D01*
X5147681Y-11723389D02*
X5147681Y-11590055D01*
X5147681Y-11609103D02*
X5157205Y-11599579D01*
X5157205Y-11599579D02*
X5176253Y-11590055D01*
X5176253Y-11590055D02*
X5204824Y-11590055D01*
X5204824Y-11590055D02*
X5223872Y-11599579D01*
X5223872Y-11599579D02*
X5233396Y-11618627D01*
X5233396Y-11618627D02*
X5233396Y-11723389D01*
X5233396Y-11618627D02*
X5242920Y-11599579D01*
X5242920Y-11599579D02*
X5261967Y-11590055D01*
X5261967Y-11590055D02*
X5290539Y-11590055D01*
X5290539Y-11590055D02*
X5309586Y-11599579D01*
X5309586Y-11599579D02*
X5319110Y-11618627D01*
X5319110Y-11618627D02*
X5319110Y-11723389D01*
X5709586Y-11513865D02*
X5538158Y-11771008D01*
X5966729Y-11523389D02*
X5985777Y-11523389D01*
X5985777Y-11523389D02*
X6004824Y-11532913D01*
X6004824Y-11532913D02*
X6014348Y-11542436D01*
X6014348Y-11542436D02*
X6023872Y-11561484D01*
X6023872Y-11561484D02*
X6033396Y-11599579D01*
X6033396Y-11599579D02*
X6033396Y-11647198D01*
X6033396Y-11647198D02*
X6023872Y-11685293D01*
X6023872Y-11685293D02*
X6014348Y-11704341D01*
X6014348Y-11704341D02*
X6004824Y-11713865D01*
X6004824Y-11713865D02*
X5985777Y-11723389D01*
X5985777Y-11723389D02*
X5966729Y-11723389D01*
X5966729Y-11723389D02*
X5947681Y-11713865D01*
X5947681Y-11713865D02*
X5938158Y-11704341D01*
X5938158Y-11704341D02*
X5928634Y-11685293D01*
X5928634Y-11685293D02*
X5919110Y-11647198D01*
X5919110Y-11647198D02*
X5919110Y-11599579D01*
X5919110Y-11599579D02*
X5928634Y-11561484D01*
X5928634Y-11561484D02*
X5938158Y-11542436D01*
X5938158Y-11542436D02*
X5947681Y-11532913D01*
X5947681Y-11532913D02*
X5966729Y-11523389D01*
X6119110Y-11704341D02*
X6128634Y-11713865D01*
X6128634Y-11713865D02*
X6119110Y-11723389D01*
X6119110Y-11723389D02*
X6109586Y-11713865D01*
X6109586Y-11713865D02*
X6119110Y-11704341D01*
X6119110Y-11704341D02*
X6119110Y-11723389D01*
X6252443Y-11523389D02*
X6271491Y-11523389D01*
X6271491Y-11523389D02*
X6290539Y-11532913D01*
X6290539Y-11532913D02*
X6300062Y-11542436D01*
X6300062Y-11542436D02*
X6309586Y-11561484D01*
X6309586Y-11561484D02*
X6319110Y-11599579D01*
X6319110Y-11599579D02*
X6319110Y-11647198D01*
X6319110Y-11647198D02*
X6309586Y-11685293D01*
X6309586Y-11685293D02*
X6300062Y-11704341D01*
X6300062Y-11704341D02*
X6290539Y-11713865D01*
X6290539Y-11713865D02*
X6271491Y-11723389D01*
X6271491Y-11723389D02*
X6252443Y-11723389D01*
X6252443Y-11723389D02*
X6233396Y-11713865D01*
X6233396Y-11713865D02*
X6223872Y-11704341D01*
X6223872Y-11704341D02*
X6214348Y-11685293D01*
X6214348Y-11685293D02*
X6204824Y-11647198D01*
X6204824Y-11647198D02*
X6204824Y-11599579D01*
X6204824Y-11599579D02*
X6214348Y-11561484D01*
X6214348Y-11561484D02*
X6223872Y-11542436D01*
X6223872Y-11542436D02*
X6233396Y-11532913D01*
X6233396Y-11532913D02*
X6252443Y-11523389D01*
X6509586Y-11723389D02*
X6395301Y-11723389D01*
X6452443Y-11723389D02*
X6452443Y-11523389D01*
X6452443Y-11523389D02*
X6433396Y-11551960D01*
X6433396Y-11551960D02*
X6414348Y-11571008D01*
X6414348Y-11571008D02*
X6395301Y-11580532D01*
X6700062Y-11723389D02*
X6585777Y-11723389D01*
X6642920Y-11723389D02*
X6642920Y-11523389D01*
X6642920Y-11523389D02*
X6623872Y-11551960D01*
X6623872Y-11551960D02*
X6604824Y-11571008D01*
X6604824Y-11571008D02*
X6585777Y-11580532D01*
X6814348Y-11609103D02*
X6795301Y-11599579D01*
X6795301Y-11599579D02*
X6785777Y-11590055D01*
X6785777Y-11590055D02*
X6776253Y-11571008D01*
X6776253Y-11571008D02*
X6776253Y-11561484D01*
X6776253Y-11561484D02*
X6785777Y-11542436D01*
X6785777Y-11542436D02*
X6795301Y-11532913D01*
X6795301Y-11532913D02*
X6814348Y-11523389D01*
X6814348Y-11523389D02*
X6852443Y-11523389D01*
X6852443Y-11523389D02*
X6871491Y-11532913D01*
X6871491Y-11532913D02*
X6881015Y-11542436D01*
X6881015Y-11542436D02*
X6890539Y-11561484D01*
X6890539Y-11561484D02*
X6890539Y-11571008D01*
X6890539Y-11571008D02*
X6881015Y-11590055D01*
X6881015Y-11590055D02*
X6871491Y-11599579D01*
X6871491Y-11599579D02*
X6852443Y-11609103D01*
X6852443Y-11609103D02*
X6814348Y-11609103D01*
X6814348Y-11609103D02*
X6795301Y-11618627D01*
X6795301Y-11618627D02*
X6785777Y-11628151D01*
X6785777Y-11628151D02*
X6776253Y-11647198D01*
X6776253Y-11647198D02*
X6776253Y-11685293D01*
X6776253Y-11685293D02*
X6785777Y-11704341D01*
X6785777Y-11704341D02*
X6795301Y-11713865D01*
X6795301Y-11713865D02*
X6814348Y-11723389D01*
X6814348Y-11723389D02*
X6852443Y-11723389D01*
X6852443Y-11723389D02*
X6871491Y-11713865D01*
X6871491Y-11713865D02*
X6881015Y-11704341D01*
X6881015Y-11704341D02*
X6890539Y-11685293D01*
X6890539Y-11685293D02*
X6890539Y-11647198D01*
X6890539Y-11647198D02*
X6881015Y-11628151D01*
X6881015Y-11628151D02*
X6871491Y-11618627D01*
X6871491Y-11618627D02*
X6852443Y-11609103D01*
X6966729Y-11523389D02*
X6966729Y-11561484D01*
X7042920Y-11523389D02*
X7042920Y-11561484D01*
X7338158Y-11799579D02*
X7328634Y-11790055D01*
X7328634Y-11790055D02*
X7309586Y-11761484D01*
X7309586Y-11761484D02*
X7300063Y-11742436D01*
X7300063Y-11742436D02*
X7290539Y-11713865D01*
X7290539Y-11713865D02*
X7281015Y-11666246D01*
X7281015Y-11666246D02*
X7281015Y-11628151D01*
X7281015Y-11628151D02*
X7290539Y-11580532D01*
X7290539Y-11580532D02*
X7300063Y-11551960D01*
X7300063Y-11551960D02*
X7309586Y-11532913D01*
X7309586Y-11532913D02*
X7328634Y-11504341D01*
X7328634Y-11504341D02*
X7338158Y-11494817D01*
X7519110Y-11723389D02*
X7404824Y-11723389D01*
X7461967Y-11723389D02*
X7461967Y-11523389D01*
X7461967Y-11523389D02*
X7442920Y-11551960D01*
X7442920Y-11551960D02*
X7423872Y-11571008D01*
X7423872Y-11571008D02*
X7404824Y-11580532D01*
X7633396Y-11609103D02*
X7614348Y-11599579D01*
X7614348Y-11599579D02*
X7604824Y-11590055D01*
X7604824Y-11590055D02*
X7595301Y-11571008D01*
X7595301Y-11571008D02*
X7595301Y-11561484D01*
X7595301Y-11561484D02*
X7604824Y-11542436D01*
X7604824Y-11542436D02*
X7614348Y-11532913D01*
X7614348Y-11532913D02*
X7633396Y-11523389D01*
X7633396Y-11523389D02*
X7671491Y-11523389D01*
X7671491Y-11523389D02*
X7690539Y-11532913D01*
X7690539Y-11532913D02*
X7700063Y-11542436D01*
X7700063Y-11542436D02*
X7709586Y-11561484D01*
X7709586Y-11561484D02*
X7709586Y-11571008D01*
X7709586Y-11571008D02*
X7700063Y-11590055D01*
X7700063Y-11590055D02*
X7690539Y-11599579D01*
X7690539Y-11599579D02*
X7671491Y-11609103D01*
X7671491Y-11609103D02*
X7633396Y-11609103D01*
X7633396Y-11609103D02*
X7614348Y-11618627D01*
X7614348Y-11618627D02*
X7604824Y-11628151D01*
X7604824Y-11628151D02*
X7595301Y-11647198D01*
X7595301Y-11647198D02*
X7595301Y-11685293D01*
X7595301Y-11685293D02*
X7604824Y-11704341D01*
X7604824Y-11704341D02*
X7614348Y-11713865D01*
X7614348Y-11713865D02*
X7633396Y-11723389D01*
X7633396Y-11723389D02*
X7671491Y-11723389D01*
X7671491Y-11723389D02*
X7690539Y-11713865D01*
X7690539Y-11713865D02*
X7700063Y-11704341D01*
X7700063Y-11704341D02*
X7709586Y-11685293D01*
X7709586Y-11685293D02*
X7709586Y-11647198D01*
X7709586Y-11647198D02*
X7700063Y-11628151D01*
X7700063Y-11628151D02*
X7690539Y-11618627D01*
X7690539Y-11618627D02*
X7671491Y-11609103D01*
X7890539Y-11523389D02*
X7795301Y-11523389D01*
X7795301Y-11523389D02*
X7785777Y-11618627D01*
X7785777Y-11618627D02*
X7795301Y-11609103D01*
X7795301Y-11609103D02*
X7814348Y-11599579D01*
X7814348Y-11599579D02*
X7861967Y-11599579D01*
X7861967Y-11599579D02*
X7881015Y-11609103D01*
X7881015Y-11609103D02*
X7890539Y-11618627D01*
X7890539Y-11618627D02*
X7900063Y-11637674D01*
X7900063Y-11637674D02*
X7900063Y-11685293D01*
X7900063Y-11685293D02*
X7890539Y-11704341D01*
X7890539Y-11704341D02*
X7881015Y-11713865D01*
X7881015Y-11713865D02*
X7861967Y-11723389D01*
X7861967Y-11723389D02*
X7814348Y-11723389D01*
X7814348Y-11723389D02*
X7795301Y-11713865D01*
X7795301Y-11713865D02*
X7785777Y-11704341D01*
X8138158Y-11723389D02*
X8138158Y-11523389D01*
X8223872Y-11723389D02*
X8223872Y-11618627D01*
X8223872Y-11618627D02*
X8214348Y-11599579D01*
X8214348Y-11599579D02*
X8195301Y-11590055D01*
X8195301Y-11590055D02*
X8166729Y-11590055D01*
X8166729Y-11590055D02*
X8147682Y-11599579D01*
X8147682Y-11599579D02*
X8138158Y-11609103D01*
X8347682Y-11723389D02*
X8328634Y-11713865D01*
X8328634Y-11713865D02*
X8319110Y-11704341D01*
X8319110Y-11704341D02*
X8309586Y-11685293D01*
X8309586Y-11685293D02*
X8309586Y-11628151D01*
X8309586Y-11628151D02*
X8319110Y-11609103D01*
X8319110Y-11609103D02*
X8328634Y-11599579D01*
X8328634Y-11599579D02*
X8347682Y-11590055D01*
X8347682Y-11590055D02*
X8376253Y-11590055D01*
X8376253Y-11590055D02*
X8395301Y-11599579D01*
X8395301Y-11599579D02*
X8404825Y-11609103D01*
X8404825Y-11609103D02*
X8414348Y-11628151D01*
X8414348Y-11628151D02*
X8414348Y-11685293D01*
X8414348Y-11685293D02*
X8404825Y-11704341D01*
X8404825Y-11704341D02*
X8395301Y-11713865D01*
X8395301Y-11713865D02*
X8376253Y-11723389D01*
X8376253Y-11723389D02*
X8347682Y-11723389D01*
X8528634Y-11723389D02*
X8509587Y-11713865D01*
X8509587Y-11713865D02*
X8500063Y-11694817D01*
X8500063Y-11694817D02*
X8500063Y-11523389D01*
X8681015Y-11713865D02*
X8661968Y-11723389D01*
X8661968Y-11723389D02*
X8623872Y-11723389D01*
X8623872Y-11723389D02*
X8604825Y-11713865D01*
X8604825Y-11713865D02*
X8595301Y-11694817D01*
X8595301Y-11694817D02*
X8595301Y-11618627D01*
X8595301Y-11618627D02*
X8604825Y-11599579D01*
X8604825Y-11599579D02*
X8623872Y-11590055D01*
X8623872Y-11590055D02*
X8661968Y-11590055D01*
X8661968Y-11590055D02*
X8681015Y-11599579D01*
X8681015Y-11599579D02*
X8690539Y-11618627D01*
X8690539Y-11618627D02*
X8690539Y-11637674D01*
X8690539Y-11637674D02*
X8595301Y-11656722D01*
X8766729Y-11713865D02*
X8785777Y-11723389D01*
X8785777Y-11723389D02*
X8823872Y-11723389D01*
X8823872Y-11723389D02*
X8842920Y-11713865D01*
X8842920Y-11713865D02*
X8852444Y-11694817D01*
X8852444Y-11694817D02*
X8852444Y-11685293D01*
X8852444Y-11685293D02*
X8842920Y-11666246D01*
X8842920Y-11666246D02*
X8823872Y-11656722D01*
X8823872Y-11656722D02*
X8795301Y-11656722D01*
X8795301Y-11656722D02*
X8776253Y-11647198D01*
X8776253Y-11647198D02*
X8766729Y-11628151D01*
X8766729Y-11628151D02*
X8766729Y-11618627D01*
X8766729Y-11618627D02*
X8776253Y-11599579D01*
X8776253Y-11599579D02*
X8795301Y-11590055D01*
X8795301Y-11590055D02*
X8823872Y-11590055D01*
X8823872Y-11590055D02*
X8842920Y-11599579D01*
X8919110Y-11799579D02*
X8928634Y-11790055D01*
X8928634Y-11790055D02*
X8947682Y-11761484D01*
X8947682Y-11761484D02*
X8957206Y-11742436D01*
X8957206Y-11742436D02*
X8966729Y-11713865D01*
X8966729Y-11713865D02*
X8976253Y-11666246D01*
X8976253Y-11666246D02*
X8976253Y-11628151D01*
X8976253Y-11628151D02*
X8966729Y-11580532D01*
X8966729Y-11580532D02*
X8957206Y-11551960D01*
X8957206Y-11551960D02*
X8947682Y-11532913D01*
X8947682Y-11532913D02*
X8928634Y-11504341D01*
X8928634Y-11504341D02*
X8919110Y-11494817D01*
D12*
X3763095Y-11895905D02*
G75*
G02*
X3713095Y-11895905I-25000J0D01*
G01*
X3713095Y-11895905D02*
G75*
G02*
X3763095Y-11895905I25000J0D01*
G01*
D11*
X4061967Y-11787389D02*
X4081015Y-11787389D01*
X4081015Y-11787389D02*
X4100062Y-11796913D01*
X4100062Y-11796913D02*
X4109586Y-11806436D01*
X4109586Y-11806436D02*
X4119110Y-11825484D01*
X4119110Y-11825484D02*
X4128634Y-11863579D01*
X4128634Y-11863579D02*
X4128634Y-11911198D01*
X4128634Y-11911198D02*
X4119110Y-11949293D01*
X4119110Y-11949293D02*
X4109586Y-11968341D01*
X4109586Y-11968341D02*
X4100062Y-11977865D01*
X4100062Y-11977865D02*
X4081015Y-11987389D01*
X4081015Y-11987389D02*
X4061967Y-11987389D01*
X4061967Y-11987389D02*
X4042919Y-11977865D01*
X4042919Y-11977865D02*
X4033396Y-11968341D01*
X4033396Y-11968341D02*
X4023872Y-11949293D01*
X4023872Y-11949293D02*
X4014348Y-11911198D01*
X4014348Y-11911198D02*
X4014348Y-11863579D01*
X4014348Y-11863579D02*
X4023872Y-11825484D01*
X4023872Y-11825484D02*
X4033396Y-11806436D01*
X4033396Y-11806436D02*
X4042919Y-11796913D01*
X4042919Y-11796913D02*
X4061967Y-11787389D01*
X4214348Y-11968341D02*
X4223872Y-11977865D01*
X4223872Y-11977865D02*
X4214348Y-11987389D01*
X4214348Y-11987389D02*
X4204824Y-11977865D01*
X4204824Y-11977865D02*
X4214348Y-11968341D01*
X4214348Y-11968341D02*
X4214348Y-11987389D01*
X4404824Y-11787389D02*
X4309586Y-11787389D01*
X4309586Y-11787389D02*
X4300062Y-11882627D01*
X4300062Y-11882627D02*
X4309586Y-11873103D01*
X4309586Y-11873103D02*
X4328634Y-11863579D01*
X4328634Y-11863579D02*
X4376253Y-11863579D01*
X4376253Y-11863579D02*
X4395300Y-11873103D01*
X4395300Y-11873103D02*
X4404824Y-11882627D01*
X4404824Y-11882627D02*
X4414348Y-11901674D01*
X4414348Y-11901674D02*
X4414348Y-11949293D01*
X4414348Y-11949293D02*
X4404824Y-11968341D01*
X4404824Y-11968341D02*
X4395300Y-11977865D01*
X4395300Y-11977865D02*
X4376253Y-11987389D01*
X4376253Y-11987389D02*
X4328634Y-11987389D01*
X4328634Y-11987389D02*
X4309586Y-11977865D01*
X4309586Y-11977865D02*
X4300062Y-11968341D01*
X4538158Y-11787389D02*
X4557205Y-11787389D01*
X4557205Y-11787389D02*
X4576253Y-11796913D01*
X4576253Y-11796913D02*
X4585777Y-11806436D01*
X4585777Y-11806436D02*
X4595300Y-11825484D01*
X4595300Y-11825484D02*
X4604824Y-11863579D01*
X4604824Y-11863579D02*
X4604824Y-11911198D01*
X4604824Y-11911198D02*
X4595300Y-11949293D01*
X4595300Y-11949293D02*
X4585777Y-11968341D01*
X4585777Y-11968341D02*
X4576253Y-11977865D01*
X4576253Y-11977865D02*
X4557205Y-11987389D01*
X4557205Y-11987389D02*
X4538158Y-11987389D01*
X4538158Y-11987389D02*
X4519110Y-11977865D01*
X4519110Y-11977865D02*
X4509586Y-11968341D01*
X4509586Y-11968341D02*
X4500062Y-11949293D01*
X4500062Y-11949293D02*
X4490539Y-11911198D01*
X4490539Y-11911198D02*
X4490539Y-11863579D01*
X4490539Y-11863579D02*
X4500062Y-11825484D01*
X4500062Y-11825484D02*
X4509586Y-11806436D01*
X4509586Y-11806436D02*
X4519110Y-11796913D01*
X4519110Y-11796913D02*
X4538158Y-11787389D01*
X4728634Y-11787389D02*
X4747681Y-11787389D01*
X4747681Y-11787389D02*
X4766729Y-11796913D01*
X4766729Y-11796913D02*
X4776253Y-11806436D01*
X4776253Y-11806436D02*
X4785777Y-11825484D01*
X4785777Y-11825484D02*
X4795300Y-11863579D01*
X4795300Y-11863579D02*
X4795300Y-11911198D01*
X4795300Y-11911198D02*
X4785777Y-11949293D01*
X4785777Y-11949293D02*
X4776253Y-11968341D01*
X4776253Y-11968341D02*
X4766729Y-11977865D01*
X4766729Y-11977865D02*
X4747681Y-11987389D01*
X4747681Y-11987389D02*
X4728634Y-11987389D01*
X4728634Y-11987389D02*
X4709586Y-11977865D01*
X4709586Y-11977865D02*
X4700062Y-11968341D01*
X4700062Y-11968341D02*
X4690539Y-11949293D01*
X4690539Y-11949293D02*
X4681015Y-11911198D01*
X4681015Y-11911198D02*
X4681015Y-11863579D01*
X4681015Y-11863579D02*
X4690539Y-11825484D01*
X4690539Y-11825484D02*
X4700062Y-11806436D01*
X4700062Y-11806436D02*
X4709586Y-11796913D01*
X4709586Y-11796913D02*
X4728634Y-11787389D01*
X4881015Y-11987389D02*
X4881015Y-11854055D01*
X4881015Y-11873103D02*
X4890539Y-11863579D01*
X4890539Y-11863579D02*
X4909586Y-11854055D01*
X4909586Y-11854055D02*
X4938158Y-11854055D01*
X4938158Y-11854055D02*
X4957205Y-11863579D01*
X4957205Y-11863579D02*
X4966729Y-11882627D01*
X4966729Y-11882627D02*
X4966729Y-11987389D01*
X4966729Y-11882627D02*
X4976253Y-11863579D01*
X4976253Y-11863579D02*
X4995300Y-11854055D01*
X4995300Y-11854055D02*
X5023872Y-11854055D01*
X5023872Y-11854055D02*
X5042920Y-11863579D01*
X5042920Y-11863579D02*
X5052443Y-11882627D01*
X5052443Y-11882627D02*
X5052443Y-11987389D01*
X5147681Y-11987389D02*
X5147681Y-11854055D01*
X5147681Y-11873103D02*
X5157205Y-11863579D01*
X5157205Y-11863579D02*
X5176253Y-11854055D01*
X5176253Y-11854055D02*
X5204824Y-11854055D01*
X5204824Y-11854055D02*
X5223872Y-11863579D01*
X5223872Y-11863579D02*
X5233396Y-11882627D01*
X5233396Y-11882627D02*
X5233396Y-11987389D01*
X5233396Y-11882627D02*
X5242920Y-11863579D01*
X5242920Y-11863579D02*
X5261967Y-11854055D01*
X5261967Y-11854055D02*
X5290539Y-11854055D01*
X5290539Y-11854055D02*
X5309586Y-11863579D01*
X5309586Y-11863579D02*
X5319110Y-11882627D01*
X5319110Y-11882627D02*
X5319110Y-11987389D01*
X5709586Y-11777865D02*
X5538158Y-12035008D01*
X5966729Y-11787389D02*
X5985777Y-11787389D01*
X5985777Y-11787389D02*
X6004824Y-11796913D01*
X6004824Y-11796913D02*
X6014348Y-11806436D01*
X6014348Y-11806436D02*
X6023872Y-11825484D01*
X6023872Y-11825484D02*
X6033396Y-11863579D01*
X6033396Y-11863579D02*
X6033396Y-11911198D01*
X6033396Y-11911198D02*
X6023872Y-11949293D01*
X6023872Y-11949293D02*
X6014348Y-11968341D01*
X6014348Y-11968341D02*
X6004824Y-11977865D01*
X6004824Y-11977865D02*
X5985777Y-11987389D01*
X5985777Y-11987389D02*
X5966729Y-11987389D01*
X5966729Y-11987389D02*
X5947681Y-11977865D01*
X5947681Y-11977865D02*
X5938158Y-11968341D01*
X5938158Y-11968341D02*
X5928634Y-11949293D01*
X5928634Y-11949293D02*
X5919110Y-11911198D01*
X5919110Y-11911198D02*
X5919110Y-11863579D01*
X5919110Y-11863579D02*
X5928634Y-11825484D01*
X5928634Y-11825484D02*
X5938158Y-11806436D01*
X5938158Y-11806436D02*
X5947681Y-11796913D01*
X5947681Y-11796913D02*
X5966729Y-11787389D01*
X6119110Y-11968341D02*
X6128634Y-11977865D01*
X6128634Y-11977865D02*
X6119110Y-11987389D01*
X6119110Y-11987389D02*
X6109586Y-11977865D01*
X6109586Y-11977865D02*
X6119110Y-11968341D01*
X6119110Y-11968341D02*
X6119110Y-11987389D01*
X6252443Y-11787389D02*
X6271491Y-11787389D01*
X6271491Y-11787389D02*
X6290539Y-11796913D01*
X6290539Y-11796913D02*
X6300062Y-11806436D01*
X6300062Y-11806436D02*
X6309586Y-11825484D01*
X6309586Y-11825484D02*
X6319110Y-11863579D01*
X6319110Y-11863579D02*
X6319110Y-11911198D01*
X6319110Y-11911198D02*
X6309586Y-11949293D01*
X6309586Y-11949293D02*
X6300062Y-11968341D01*
X6300062Y-11968341D02*
X6290539Y-11977865D01*
X6290539Y-11977865D02*
X6271491Y-11987389D01*
X6271491Y-11987389D02*
X6252443Y-11987389D01*
X6252443Y-11987389D02*
X6233396Y-11977865D01*
X6233396Y-11977865D02*
X6223872Y-11968341D01*
X6223872Y-11968341D02*
X6214348Y-11949293D01*
X6214348Y-11949293D02*
X6204824Y-11911198D01*
X6204824Y-11911198D02*
X6204824Y-11863579D01*
X6204824Y-11863579D02*
X6214348Y-11825484D01*
X6214348Y-11825484D02*
X6223872Y-11806436D01*
X6223872Y-11806436D02*
X6233396Y-11796913D01*
X6233396Y-11796913D02*
X6252443Y-11787389D01*
X6509586Y-11987389D02*
X6395301Y-11987389D01*
X6452443Y-11987389D02*
X6452443Y-11787389D01*
X6452443Y-11787389D02*
X6433396Y-11815960D01*
X6433396Y-11815960D02*
X6414348Y-11835008D01*
X6414348Y-11835008D02*
X6395301Y-11844532D01*
X6604824Y-11987389D02*
X6642920Y-11987389D01*
X6642920Y-11987389D02*
X6661967Y-11977865D01*
X6661967Y-11977865D02*
X6671491Y-11968341D01*
X6671491Y-11968341D02*
X6690539Y-11939770D01*
X6690539Y-11939770D02*
X6700062Y-11901674D01*
X6700062Y-11901674D02*
X6700062Y-11825484D01*
X6700062Y-11825484D02*
X6690539Y-11806436D01*
X6690539Y-11806436D02*
X6681015Y-11796913D01*
X6681015Y-11796913D02*
X6661967Y-11787389D01*
X6661967Y-11787389D02*
X6623872Y-11787389D01*
X6623872Y-11787389D02*
X6604824Y-11796913D01*
X6604824Y-11796913D02*
X6595301Y-11806436D01*
X6595301Y-11806436D02*
X6585777Y-11825484D01*
X6585777Y-11825484D02*
X6585777Y-11873103D01*
X6585777Y-11873103D02*
X6595301Y-11892151D01*
X6595301Y-11892151D02*
X6604824Y-11901674D01*
X6604824Y-11901674D02*
X6623872Y-11911198D01*
X6623872Y-11911198D02*
X6661967Y-11911198D01*
X6661967Y-11911198D02*
X6681015Y-11901674D01*
X6681015Y-11901674D02*
X6690539Y-11892151D01*
X6690539Y-11892151D02*
X6700062Y-11873103D01*
X6766729Y-11787389D02*
X6900062Y-11787389D01*
X6900062Y-11787389D02*
X6814348Y-11987389D01*
X6966729Y-11787389D02*
X6966729Y-11825484D01*
X7042920Y-11787389D02*
X7042920Y-11825484D01*
X7338158Y-12063579D02*
X7328634Y-12054055D01*
X7328634Y-12054055D02*
X7309586Y-12025484D01*
X7309586Y-12025484D02*
X7300063Y-12006436D01*
X7300063Y-12006436D02*
X7290539Y-11977865D01*
X7290539Y-11977865D02*
X7281015Y-11930246D01*
X7281015Y-11930246D02*
X7281015Y-11892151D01*
X7281015Y-11892151D02*
X7290539Y-11844532D01*
X7290539Y-11844532D02*
X7300063Y-11815960D01*
X7300063Y-11815960D02*
X7309586Y-11796913D01*
X7309586Y-11796913D02*
X7328634Y-11768341D01*
X7328634Y-11768341D02*
X7338158Y-11758817D01*
X7519110Y-11987389D02*
X7404824Y-11987389D01*
X7461967Y-11987389D02*
X7461967Y-11787389D01*
X7461967Y-11787389D02*
X7442920Y-11815960D01*
X7442920Y-11815960D02*
X7423872Y-11835008D01*
X7423872Y-11835008D02*
X7404824Y-11844532D01*
X7642920Y-11787389D02*
X7661967Y-11787389D01*
X7661967Y-11787389D02*
X7681015Y-11796913D01*
X7681015Y-11796913D02*
X7690539Y-11806436D01*
X7690539Y-11806436D02*
X7700063Y-11825484D01*
X7700063Y-11825484D02*
X7709586Y-11863579D01*
X7709586Y-11863579D02*
X7709586Y-11911198D01*
X7709586Y-11911198D02*
X7700063Y-11949293D01*
X7700063Y-11949293D02*
X7690539Y-11968341D01*
X7690539Y-11968341D02*
X7681015Y-11977865D01*
X7681015Y-11977865D02*
X7661967Y-11987389D01*
X7661967Y-11987389D02*
X7642920Y-11987389D01*
X7642920Y-11987389D02*
X7623872Y-11977865D01*
X7623872Y-11977865D02*
X7614348Y-11968341D01*
X7614348Y-11968341D02*
X7604824Y-11949293D01*
X7604824Y-11949293D02*
X7595301Y-11911198D01*
X7595301Y-11911198D02*
X7595301Y-11863579D01*
X7595301Y-11863579D02*
X7604824Y-11825484D01*
X7604824Y-11825484D02*
X7614348Y-11806436D01*
X7614348Y-11806436D02*
X7623872Y-11796913D01*
X7623872Y-11796913D02*
X7642920Y-11787389D01*
X7947682Y-11987389D02*
X7947682Y-11787389D01*
X8033396Y-11987389D02*
X8033396Y-11882627D01*
X8033396Y-11882627D02*
X8023872Y-11863579D01*
X8023872Y-11863579D02*
X8004825Y-11854055D01*
X8004825Y-11854055D02*
X7976253Y-11854055D01*
X7976253Y-11854055D02*
X7957205Y-11863579D01*
X7957205Y-11863579D02*
X7947682Y-11873103D01*
X8157205Y-11987389D02*
X8138158Y-11977865D01*
X8138158Y-11977865D02*
X8128634Y-11968341D01*
X8128634Y-11968341D02*
X8119110Y-11949293D01*
X8119110Y-11949293D02*
X8119110Y-11892151D01*
X8119110Y-11892151D02*
X8128634Y-11873103D01*
X8128634Y-11873103D02*
X8138158Y-11863579D01*
X8138158Y-11863579D02*
X8157205Y-11854055D01*
X8157205Y-11854055D02*
X8185777Y-11854055D01*
X8185777Y-11854055D02*
X8204825Y-11863579D01*
X8204825Y-11863579D02*
X8214348Y-11873103D01*
X8214348Y-11873103D02*
X8223872Y-11892151D01*
X8223872Y-11892151D02*
X8223872Y-11949293D01*
X8223872Y-11949293D02*
X8214348Y-11968341D01*
X8214348Y-11968341D02*
X8204825Y-11977865D01*
X8204825Y-11977865D02*
X8185777Y-11987389D01*
X8185777Y-11987389D02*
X8157205Y-11987389D01*
X8338158Y-11987389D02*
X8319110Y-11977865D01*
X8319110Y-11977865D02*
X8309586Y-11958817D01*
X8309586Y-11958817D02*
X8309586Y-11787389D01*
X8490539Y-11977865D02*
X8471491Y-11987389D01*
X8471491Y-11987389D02*
X8433396Y-11987389D01*
X8433396Y-11987389D02*
X8414348Y-11977865D01*
X8414348Y-11977865D02*
X8404825Y-11958817D01*
X8404825Y-11958817D02*
X8404825Y-11882627D01*
X8404825Y-11882627D02*
X8414348Y-11863579D01*
X8414348Y-11863579D02*
X8433396Y-11854055D01*
X8433396Y-11854055D02*
X8471491Y-11854055D01*
X8471491Y-11854055D02*
X8490539Y-11863579D01*
X8490539Y-11863579D02*
X8500063Y-11882627D01*
X8500063Y-11882627D02*
X8500063Y-11901674D01*
X8500063Y-11901674D02*
X8404825Y-11920722D01*
X8576253Y-11977865D02*
X8595301Y-11987389D01*
X8595301Y-11987389D02*
X8633396Y-11987389D01*
X8633396Y-11987389D02*
X8652444Y-11977865D01*
X8652444Y-11977865D02*
X8661968Y-11958817D01*
X8661968Y-11958817D02*
X8661968Y-11949293D01*
X8661968Y-11949293D02*
X8652444Y-11930246D01*
X8652444Y-11930246D02*
X8633396Y-11920722D01*
X8633396Y-11920722D02*
X8604825Y-11920722D01*
X8604825Y-11920722D02*
X8585777Y-11911198D01*
X8585777Y-11911198D02*
X8576253Y-11892151D01*
X8576253Y-11892151D02*
X8576253Y-11882627D01*
X8576253Y-11882627D02*
X8585777Y-11863579D01*
X8585777Y-11863579D02*
X8604825Y-11854055D01*
X8604825Y-11854055D02*
X8633396Y-11854055D01*
X8633396Y-11854055D02*
X8652444Y-11863579D01*
X8728634Y-12063579D02*
X8738158Y-12054055D01*
X8738158Y-12054055D02*
X8757206Y-12025484D01*
X8757206Y-12025484D02*
X8766729Y-12006436D01*
X8766729Y-12006436D02*
X8776253Y-11977865D01*
X8776253Y-11977865D02*
X8785777Y-11930246D01*
X8785777Y-11930246D02*
X8785777Y-11892151D01*
X8785777Y-11892151D02*
X8776253Y-11844532D01*
X8776253Y-11844532D02*
X8766729Y-11815960D01*
X8766729Y-11815960D02*
X8757206Y-11796913D01*
X8757206Y-11796913D02*
X8738158Y-11768341D01*
X8738158Y-11768341D02*
X8728634Y-11758817D01*
D12*
X3728095Y-12124905D02*
X3728095Y-12194905D01*
X3693095Y-12159905D02*
X3763095Y-12159905D01*
D11*
X4061967Y-12051389D02*
X4081015Y-12051389D01*
X4081015Y-12051389D02*
X4100062Y-12060913D01*
X4100062Y-12060913D02*
X4109586Y-12070436D01*
X4109586Y-12070436D02*
X4119110Y-12089484D01*
X4119110Y-12089484D02*
X4128634Y-12127579D01*
X4128634Y-12127579D02*
X4128634Y-12175198D01*
X4128634Y-12175198D02*
X4119110Y-12213293D01*
X4119110Y-12213293D02*
X4109586Y-12232341D01*
X4109586Y-12232341D02*
X4100062Y-12241865D01*
X4100062Y-12241865D02*
X4081015Y-12251389D01*
X4081015Y-12251389D02*
X4061967Y-12251389D01*
X4061967Y-12251389D02*
X4042919Y-12241865D01*
X4042919Y-12241865D02*
X4033396Y-12232341D01*
X4033396Y-12232341D02*
X4023872Y-12213293D01*
X4023872Y-12213293D02*
X4014348Y-12175198D01*
X4014348Y-12175198D02*
X4014348Y-12127579D01*
X4014348Y-12127579D02*
X4023872Y-12089484D01*
X4023872Y-12089484D02*
X4033396Y-12070436D01*
X4033396Y-12070436D02*
X4042919Y-12060913D01*
X4042919Y-12060913D02*
X4061967Y-12051389D01*
X4214348Y-12232341D02*
X4223872Y-12241865D01*
X4223872Y-12241865D02*
X4214348Y-12251389D01*
X4214348Y-12251389D02*
X4204824Y-12241865D01*
X4204824Y-12241865D02*
X4214348Y-12232341D01*
X4214348Y-12232341D02*
X4214348Y-12251389D01*
X4290539Y-12051389D02*
X4423872Y-12051389D01*
X4423872Y-12051389D02*
X4338158Y-12251389D01*
X4538158Y-12051389D02*
X4557205Y-12051389D01*
X4557205Y-12051389D02*
X4576253Y-12060913D01*
X4576253Y-12060913D02*
X4585777Y-12070436D01*
X4585777Y-12070436D02*
X4595300Y-12089484D01*
X4595300Y-12089484D02*
X4604824Y-12127579D01*
X4604824Y-12127579D02*
X4604824Y-12175198D01*
X4604824Y-12175198D02*
X4595300Y-12213293D01*
X4595300Y-12213293D02*
X4585777Y-12232341D01*
X4585777Y-12232341D02*
X4576253Y-12241865D01*
X4576253Y-12241865D02*
X4557205Y-12251389D01*
X4557205Y-12251389D02*
X4538158Y-12251389D01*
X4538158Y-12251389D02*
X4519110Y-12241865D01*
X4519110Y-12241865D02*
X4509586Y-12232341D01*
X4509586Y-12232341D02*
X4500062Y-12213293D01*
X4500062Y-12213293D02*
X4490539Y-12175198D01*
X4490539Y-12175198D02*
X4490539Y-12127579D01*
X4490539Y-12127579D02*
X4500062Y-12089484D01*
X4500062Y-12089484D02*
X4509586Y-12070436D01*
X4509586Y-12070436D02*
X4519110Y-12060913D01*
X4519110Y-12060913D02*
X4538158Y-12051389D01*
X4728634Y-12051389D02*
X4747681Y-12051389D01*
X4747681Y-12051389D02*
X4766729Y-12060913D01*
X4766729Y-12060913D02*
X4776253Y-12070436D01*
X4776253Y-12070436D02*
X4785777Y-12089484D01*
X4785777Y-12089484D02*
X4795300Y-12127579D01*
X4795300Y-12127579D02*
X4795300Y-12175198D01*
X4795300Y-12175198D02*
X4785777Y-12213293D01*
X4785777Y-12213293D02*
X4776253Y-12232341D01*
X4776253Y-12232341D02*
X4766729Y-12241865D01*
X4766729Y-12241865D02*
X4747681Y-12251389D01*
X4747681Y-12251389D02*
X4728634Y-12251389D01*
X4728634Y-12251389D02*
X4709586Y-12241865D01*
X4709586Y-12241865D02*
X4700062Y-12232341D01*
X4700062Y-12232341D02*
X4690539Y-12213293D01*
X4690539Y-12213293D02*
X4681015Y-12175198D01*
X4681015Y-12175198D02*
X4681015Y-12127579D01*
X4681015Y-12127579D02*
X4690539Y-12089484D01*
X4690539Y-12089484D02*
X4700062Y-12070436D01*
X4700062Y-12070436D02*
X4709586Y-12060913D01*
X4709586Y-12060913D02*
X4728634Y-12051389D01*
X4881015Y-12251389D02*
X4881015Y-12118055D01*
X4881015Y-12137103D02*
X4890539Y-12127579D01*
X4890539Y-12127579D02*
X4909586Y-12118055D01*
X4909586Y-12118055D02*
X4938158Y-12118055D01*
X4938158Y-12118055D02*
X4957205Y-12127579D01*
X4957205Y-12127579D02*
X4966729Y-12146627D01*
X4966729Y-12146627D02*
X4966729Y-12251389D01*
X4966729Y-12146627D02*
X4976253Y-12127579D01*
X4976253Y-12127579D02*
X4995300Y-12118055D01*
X4995300Y-12118055D02*
X5023872Y-12118055D01*
X5023872Y-12118055D02*
X5042920Y-12127579D01*
X5042920Y-12127579D02*
X5052443Y-12146627D01*
X5052443Y-12146627D02*
X5052443Y-12251389D01*
X5147681Y-12251389D02*
X5147681Y-12118055D01*
X5147681Y-12137103D02*
X5157205Y-12127579D01*
X5157205Y-12127579D02*
X5176253Y-12118055D01*
X5176253Y-12118055D02*
X5204824Y-12118055D01*
X5204824Y-12118055D02*
X5223872Y-12127579D01*
X5223872Y-12127579D02*
X5233396Y-12146627D01*
X5233396Y-12146627D02*
X5233396Y-12251389D01*
X5233396Y-12146627D02*
X5242920Y-12127579D01*
X5242920Y-12127579D02*
X5261967Y-12118055D01*
X5261967Y-12118055D02*
X5290539Y-12118055D01*
X5290539Y-12118055D02*
X5309586Y-12127579D01*
X5309586Y-12127579D02*
X5319110Y-12146627D01*
X5319110Y-12146627D02*
X5319110Y-12251389D01*
X5709586Y-12041865D02*
X5538158Y-12299008D01*
X5966729Y-12051389D02*
X5985777Y-12051389D01*
X5985777Y-12051389D02*
X6004824Y-12060913D01*
X6004824Y-12060913D02*
X6014348Y-12070436D01*
X6014348Y-12070436D02*
X6023872Y-12089484D01*
X6023872Y-12089484D02*
X6033396Y-12127579D01*
X6033396Y-12127579D02*
X6033396Y-12175198D01*
X6033396Y-12175198D02*
X6023872Y-12213293D01*
X6023872Y-12213293D02*
X6014348Y-12232341D01*
X6014348Y-12232341D02*
X6004824Y-12241865D01*
X6004824Y-12241865D02*
X5985777Y-12251389D01*
X5985777Y-12251389D02*
X5966729Y-12251389D01*
X5966729Y-12251389D02*
X5947681Y-12241865D01*
X5947681Y-12241865D02*
X5938158Y-12232341D01*
X5938158Y-12232341D02*
X5928634Y-12213293D01*
X5928634Y-12213293D02*
X5919110Y-12175198D01*
X5919110Y-12175198D02*
X5919110Y-12127579D01*
X5919110Y-12127579D02*
X5928634Y-12089484D01*
X5928634Y-12089484D02*
X5938158Y-12070436D01*
X5938158Y-12070436D02*
X5947681Y-12060913D01*
X5947681Y-12060913D02*
X5966729Y-12051389D01*
X6119110Y-12232341D02*
X6128634Y-12241865D01*
X6128634Y-12241865D02*
X6119110Y-12251389D01*
X6119110Y-12251389D02*
X6109586Y-12241865D01*
X6109586Y-12241865D02*
X6119110Y-12232341D01*
X6119110Y-12232341D02*
X6119110Y-12251389D01*
X6252443Y-12051389D02*
X6271491Y-12051389D01*
X6271491Y-12051389D02*
X6290539Y-12060913D01*
X6290539Y-12060913D02*
X6300062Y-12070436D01*
X6300062Y-12070436D02*
X6309586Y-12089484D01*
X6309586Y-12089484D02*
X6319110Y-12127579D01*
X6319110Y-12127579D02*
X6319110Y-12175198D01*
X6319110Y-12175198D02*
X6309586Y-12213293D01*
X6309586Y-12213293D02*
X6300062Y-12232341D01*
X6300062Y-12232341D02*
X6290539Y-12241865D01*
X6290539Y-12241865D02*
X6271491Y-12251389D01*
X6271491Y-12251389D02*
X6252443Y-12251389D01*
X6252443Y-12251389D02*
X6233396Y-12241865D01*
X6233396Y-12241865D02*
X6223872Y-12232341D01*
X6223872Y-12232341D02*
X6214348Y-12213293D01*
X6214348Y-12213293D02*
X6204824Y-12175198D01*
X6204824Y-12175198D02*
X6204824Y-12127579D01*
X6204824Y-12127579D02*
X6214348Y-12089484D01*
X6214348Y-12089484D02*
X6223872Y-12070436D01*
X6223872Y-12070436D02*
X6233396Y-12060913D01*
X6233396Y-12060913D02*
X6252443Y-12051389D01*
X6395301Y-12070436D02*
X6404824Y-12060913D01*
X6404824Y-12060913D02*
X6423872Y-12051389D01*
X6423872Y-12051389D02*
X6471491Y-12051389D01*
X6471491Y-12051389D02*
X6490539Y-12060913D01*
X6490539Y-12060913D02*
X6500062Y-12070436D01*
X6500062Y-12070436D02*
X6509586Y-12089484D01*
X6509586Y-12089484D02*
X6509586Y-12108532D01*
X6509586Y-12108532D02*
X6500062Y-12137103D01*
X6500062Y-12137103D02*
X6385777Y-12251389D01*
X6385777Y-12251389D02*
X6509586Y-12251389D01*
X6576253Y-12051389D02*
X6709586Y-12051389D01*
X6709586Y-12051389D02*
X6623872Y-12251389D01*
X6871491Y-12051389D02*
X6833396Y-12051389D01*
X6833396Y-12051389D02*
X6814348Y-12060913D01*
X6814348Y-12060913D02*
X6804824Y-12070436D01*
X6804824Y-12070436D02*
X6785777Y-12099008D01*
X6785777Y-12099008D02*
X6776253Y-12137103D01*
X6776253Y-12137103D02*
X6776253Y-12213293D01*
X6776253Y-12213293D02*
X6785777Y-12232341D01*
X6785777Y-12232341D02*
X6795301Y-12241865D01*
X6795301Y-12241865D02*
X6814348Y-12251389D01*
X6814348Y-12251389D02*
X6852443Y-12251389D01*
X6852443Y-12251389D02*
X6871491Y-12241865D01*
X6871491Y-12241865D02*
X6881015Y-12232341D01*
X6881015Y-12232341D02*
X6890539Y-12213293D01*
X6890539Y-12213293D02*
X6890539Y-12165674D01*
X6890539Y-12165674D02*
X6881015Y-12146627D01*
X6881015Y-12146627D02*
X6871491Y-12137103D01*
X6871491Y-12137103D02*
X6852443Y-12127579D01*
X6852443Y-12127579D02*
X6814348Y-12127579D01*
X6814348Y-12127579D02*
X6795301Y-12137103D01*
X6795301Y-12137103D02*
X6785777Y-12146627D01*
X6785777Y-12146627D02*
X6776253Y-12165674D01*
X6966729Y-12051389D02*
X6966729Y-12089484D01*
X7042920Y-12051389D02*
X7042920Y-12089484D01*
X7338158Y-12327579D02*
X7328634Y-12318055D01*
X7328634Y-12318055D02*
X7309586Y-12289484D01*
X7309586Y-12289484D02*
X7300063Y-12270436D01*
X7300063Y-12270436D02*
X7290539Y-12241865D01*
X7290539Y-12241865D02*
X7281015Y-12194246D01*
X7281015Y-12194246D02*
X7281015Y-12156151D01*
X7281015Y-12156151D02*
X7290539Y-12108532D01*
X7290539Y-12108532D02*
X7300063Y-12079960D01*
X7300063Y-12079960D02*
X7309586Y-12060913D01*
X7309586Y-12060913D02*
X7328634Y-12032341D01*
X7328634Y-12032341D02*
X7338158Y-12022817D01*
X7442920Y-12137103D02*
X7423872Y-12127579D01*
X7423872Y-12127579D02*
X7414348Y-12118055D01*
X7414348Y-12118055D02*
X7404824Y-12099008D01*
X7404824Y-12099008D02*
X7404824Y-12089484D01*
X7404824Y-12089484D02*
X7414348Y-12070436D01*
X7414348Y-12070436D02*
X7423872Y-12060913D01*
X7423872Y-12060913D02*
X7442920Y-12051389D01*
X7442920Y-12051389D02*
X7481015Y-12051389D01*
X7481015Y-12051389D02*
X7500063Y-12060913D01*
X7500063Y-12060913D02*
X7509586Y-12070436D01*
X7509586Y-12070436D02*
X7519110Y-12089484D01*
X7519110Y-12089484D02*
X7519110Y-12099008D01*
X7519110Y-12099008D02*
X7509586Y-12118055D01*
X7509586Y-12118055D02*
X7500063Y-12127579D01*
X7500063Y-12127579D02*
X7481015Y-12137103D01*
X7481015Y-12137103D02*
X7442920Y-12137103D01*
X7442920Y-12137103D02*
X7423872Y-12146627D01*
X7423872Y-12146627D02*
X7414348Y-12156151D01*
X7414348Y-12156151D02*
X7404824Y-12175198D01*
X7404824Y-12175198D02*
X7404824Y-12213293D01*
X7404824Y-12213293D02*
X7414348Y-12232341D01*
X7414348Y-12232341D02*
X7423872Y-12241865D01*
X7423872Y-12241865D02*
X7442920Y-12251389D01*
X7442920Y-12251389D02*
X7481015Y-12251389D01*
X7481015Y-12251389D02*
X7500063Y-12241865D01*
X7500063Y-12241865D02*
X7509586Y-12232341D01*
X7509586Y-12232341D02*
X7519110Y-12213293D01*
X7519110Y-12213293D02*
X7519110Y-12175198D01*
X7519110Y-12175198D02*
X7509586Y-12156151D01*
X7509586Y-12156151D02*
X7500063Y-12146627D01*
X7500063Y-12146627D02*
X7481015Y-12137103D01*
X7757205Y-12251389D02*
X7757205Y-12051389D01*
X7842920Y-12251389D02*
X7842920Y-12146627D01*
X7842920Y-12146627D02*
X7833396Y-12127579D01*
X7833396Y-12127579D02*
X7814348Y-12118055D01*
X7814348Y-12118055D02*
X7785777Y-12118055D01*
X7785777Y-12118055D02*
X7766729Y-12127579D01*
X7766729Y-12127579D02*
X7757205Y-12137103D01*
X7966729Y-12251389D02*
X7947682Y-12241865D01*
X7947682Y-12241865D02*
X7938158Y-12232341D01*
X7938158Y-12232341D02*
X7928634Y-12213293D01*
X7928634Y-12213293D02*
X7928634Y-12156151D01*
X7928634Y-12156151D02*
X7938158Y-12137103D01*
X7938158Y-12137103D02*
X7947682Y-12127579D01*
X7947682Y-12127579D02*
X7966729Y-12118055D01*
X7966729Y-12118055D02*
X7995301Y-12118055D01*
X7995301Y-12118055D02*
X8014348Y-12127579D01*
X8014348Y-12127579D02*
X8023872Y-12137103D01*
X8023872Y-12137103D02*
X8033396Y-12156151D01*
X8033396Y-12156151D02*
X8033396Y-12213293D01*
X8033396Y-12213293D02*
X8023872Y-12232341D01*
X8023872Y-12232341D02*
X8014348Y-12241865D01*
X8014348Y-12241865D02*
X7995301Y-12251389D01*
X7995301Y-12251389D02*
X7966729Y-12251389D01*
X8147682Y-12251389D02*
X8128634Y-12241865D01*
X8128634Y-12241865D02*
X8119110Y-12222817D01*
X8119110Y-12222817D02*
X8119110Y-12051389D01*
X8300063Y-12241865D02*
X8281015Y-12251389D01*
X8281015Y-12251389D02*
X8242920Y-12251389D01*
X8242920Y-12251389D02*
X8223872Y-12241865D01*
X8223872Y-12241865D02*
X8214348Y-12222817D01*
X8214348Y-12222817D02*
X8214348Y-12146627D01*
X8214348Y-12146627D02*
X8223872Y-12127579D01*
X8223872Y-12127579D02*
X8242920Y-12118055D01*
X8242920Y-12118055D02*
X8281015Y-12118055D01*
X8281015Y-12118055D02*
X8300063Y-12127579D01*
X8300063Y-12127579D02*
X8309586Y-12146627D01*
X8309586Y-12146627D02*
X8309586Y-12165674D01*
X8309586Y-12165674D02*
X8214348Y-12184722D01*
X8385777Y-12241865D02*
X8404825Y-12251389D01*
X8404825Y-12251389D02*
X8442920Y-12251389D01*
X8442920Y-12251389D02*
X8461968Y-12241865D01*
X8461968Y-12241865D02*
X8471491Y-12222817D01*
X8471491Y-12222817D02*
X8471491Y-12213293D01*
X8471491Y-12213293D02*
X8461968Y-12194246D01*
X8461968Y-12194246D02*
X8442920Y-12184722D01*
X8442920Y-12184722D02*
X8414348Y-12184722D01*
X8414348Y-12184722D02*
X8395301Y-12175198D01*
X8395301Y-12175198D02*
X8385777Y-12156151D01*
X8385777Y-12156151D02*
X8385777Y-12146627D01*
X8385777Y-12146627D02*
X8395301Y-12127579D01*
X8395301Y-12127579D02*
X8414348Y-12118055D01*
X8414348Y-12118055D02*
X8442920Y-12118055D01*
X8442920Y-12118055D02*
X8461968Y-12127579D01*
X8538158Y-12327579D02*
X8547682Y-12318055D01*
X8547682Y-12318055D02*
X8566729Y-12289484D01*
X8566729Y-12289484D02*
X8576253Y-12270436D01*
X8576253Y-12270436D02*
X8585777Y-12241865D01*
X8585777Y-12241865D02*
X8595301Y-12194246D01*
X8595301Y-12194246D02*
X8595301Y-12156151D01*
X8595301Y-12156151D02*
X8585777Y-12108532D01*
X8585777Y-12108532D02*
X8576253Y-12079960D01*
X8576253Y-12079960D02*
X8566729Y-12060913D01*
X8566729Y-12060913D02*
X8547682Y-12032341D01*
X8547682Y-12032341D02*
X8538158Y-12022817D01*
D12*
X3751965Y-12450775D02*
X3751965Y-12397035D01*
X3698225Y-12397035D01*
X3698225Y-12450775D01*
X3751965Y-12450775D01*
D11*
X4061967Y-12315389D02*
X4081015Y-12315389D01*
X4081015Y-12315389D02*
X4100062Y-12324913D01*
X4100062Y-12324913D02*
X4109586Y-12334436D01*
X4109586Y-12334436D02*
X4119110Y-12353484D01*
X4119110Y-12353484D02*
X4128634Y-12391579D01*
X4128634Y-12391579D02*
X4128634Y-12439198D01*
X4128634Y-12439198D02*
X4119110Y-12477293D01*
X4119110Y-12477293D02*
X4109586Y-12496341D01*
X4109586Y-12496341D02*
X4100062Y-12505865D01*
X4100062Y-12505865D02*
X4081015Y-12515389D01*
X4081015Y-12515389D02*
X4061967Y-12515389D01*
X4061967Y-12515389D02*
X4042919Y-12505865D01*
X4042919Y-12505865D02*
X4033396Y-12496341D01*
X4033396Y-12496341D02*
X4023872Y-12477293D01*
X4023872Y-12477293D02*
X4014348Y-12439198D01*
X4014348Y-12439198D02*
X4014348Y-12391579D01*
X4014348Y-12391579D02*
X4023872Y-12353484D01*
X4023872Y-12353484D02*
X4033396Y-12334436D01*
X4033396Y-12334436D02*
X4042919Y-12324913D01*
X4042919Y-12324913D02*
X4061967Y-12315389D01*
X4214348Y-12496341D02*
X4223872Y-12505865D01*
X4223872Y-12505865D02*
X4214348Y-12515389D01*
X4214348Y-12515389D02*
X4204824Y-12505865D01*
X4204824Y-12505865D02*
X4214348Y-12496341D01*
X4214348Y-12496341D02*
X4214348Y-12515389D01*
X4290539Y-12315389D02*
X4423872Y-12315389D01*
X4423872Y-12315389D02*
X4338158Y-12515389D01*
X4585777Y-12315389D02*
X4547681Y-12315389D01*
X4547681Y-12315389D02*
X4528634Y-12324913D01*
X4528634Y-12324913D02*
X4519110Y-12334436D01*
X4519110Y-12334436D02*
X4500062Y-12363008D01*
X4500062Y-12363008D02*
X4490539Y-12401103D01*
X4490539Y-12401103D02*
X4490539Y-12477293D01*
X4490539Y-12477293D02*
X4500062Y-12496341D01*
X4500062Y-12496341D02*
X4509586Y-12505865D01*
X4509586Y-12505865D02*
X4528634Y-12515389D01*
X4528634Y-12515389D02*
X4566729Y-12515389D01*
X4566729Y-12515389D02*
X4585777Y-12505865D01*
X4585777Y-12505865D02*
X4595300Y-12496341D01*
X4595300Y-12496341D02*
X4604824Y-12477293D01*
X4604824Y-12477293D02*
X4604824Y-12429674D01*
X4604824Y-12429674D02*
X4595300Y-12410627D01*
X4595300Y-12410627D02*
X4585777Y-12401103D01*
X4585777Y-12401103D02*
X4566729Y-12391579D01*
X4566729Y-12391579D02*
X4528634Y-12391579D01*
X4528634Y-12391579D02*
X4509586Y-12401103D01*
X4509586Y-12401103D02*
X4500062Y-12410627D01*
X4500062Y-12410627D02*
X4490539Y-12429674D01*
X4728634Y-12315389D02*
X4747681Y-12315389D01*
X4747681Y-12315389D02*
X4766729Y-12324913D01*
X4766729Y-12324913D02*
X4776253Y-12334436D01*
X4776253Y-12334436D02*
X4785777Y-12353484D01*
X4785777Y-12353484D02*
X4795300Y-12391579D01*
X4795300Y-12391579D02*
X4795300Y-12439198D01*
X4795300Y-12439198D02*
X4785777Y-12477293D01*
X4785777Y-12477293D02*
X4776253Y-12496341D01*
X4776253Y-12496341D02*
X4766729Y-12505865D01*
X4766729Y-12505865D02*
X4747681Y-12515389D01*
X4747681Y-12515389D02*
X4728634Y-12515389D01*
X4728634Y-12515389D02*
X4709586Y-12505865D01*
X4709586Y-12505865D02*
X4700062Y-12496341D01*
X4700062Y-12496341D02*
X4690539Y-12477293D01*
X4690539Y-12477293D02*
X4681015Y-12439198D01*
X4681015Y-12439198D02*
X4681015Y-12391579D01*
X4681015Y-12391579D02*
X4690539Y-12353484D01*
X4690539Y-12353484D02*
X4700062Y-12334436D01*
X4700062Y-12334436D02*
X4709586Y-12324913D01*
X4709586Y-12324913D02*
X4728634Y-12315389D01*
X4881015Y-12515389D02*
X4881015Y-12382055D01*
X4881015Y-12401103D02*
X4890539Y-12391579D01*
X4890539Y-12391579D02*
X4909586Y-12382055D01*
X4909586Y-12382055D02*
X4938158Y-12382055D01*
X4938158Y-12382055D02*
X4957205Y-12391579D01*
X4957205Y-12391579D02*
X4966729Y-12410627D01*
X4966729Y-12410627D02*
X4966729Y-12515389D01*
X4966729Y-12410627D02*
X4976253Y-12391579D01*
X4976253Y-12391579D02*
X4995300Y-12382055D01*
X4995300Y-12382055D02*
X5023872Y-12382055D01*
X5023872Y-12382055D02*
X5042920Y-12391579D01*
X5042920Y-12391579D02*
X5052443Y-12410627D01*
X5052443Y-12410627D02*
X5052443Y-12515389D01*
X5147681Y-12515389D02*
X5147681Y-12382055D01*
X5147681Y-12401103D02*
X5157205Y-12391579D01*
X5157205Y-12391579D02*
X5176253Y-12382055D01*
X5176253Y-12382055D02*
X5204824Y-12382055D01*
X5204824Y-12382055D02*
X5223872Y-12391579D01*
X5223872Y-12391579D02*
X5233396Y-12410627D01*
X5233396Y-12410627D02*
X5233396Y-12515389D01*
X5233396Y-12410627D02*
X5242920Y-12391579D01*
X5242920Y-12391579D02*
X5261967Y-12382055D01*
X5261967Y-12382055D02*
X5290539Y-12382055D01*
X5290539Y-12382055D02*
X5309586Y-12391579D01*
X5309586Y-12391579D02*
X5319110Y-12410627D01*
X5319110Y-12410627D02*
X5319110Y-12515389D01*
X5709586Y-12305865D02*
X5538158Y-12563008D01*
X5966729Y-12315389D02*
X5985777Y-12315389D01*
X5985777Y-12315389D02*
X6004824Y-12324913D01*
X6004824Y-12324913D02*
X6014348Y-12334436D01*
X6014348Y-12334436D02*
X6023872Y-12353484D01*
X6023872Y-12353484D02*
X6033396Y-12391579D01*
X6033396Y-12391579D02*
X6033396Y-12439198D01*
X6033396Y-12439198D02*
X6023872Y-12477293D01*
X6023872Y-12477293D02*
X6014348Y-12496341D01*
X6014348Y-12496341D02*
X6004824Y-12505865D01*
X6004824Y-12505865D02*
X5985777Y-12515389D01*
X5985777Y-12515389D02*
X5966729Y-12515389D01*
X5966729Y-12515389D02*
X5947681Y-12505865D01*
X5947681Y-12505865D02*
X5938158Y-12496341D01*
X5938158Y-12496341D02*
X5928634Y-12477293D01*
X5928634Y-12477293D02*
X5919110Y-12439198D01*
X5919110Y-12439198D02*
X5919110Y-12391579D01*
X5919110Y-12391579D02*
X5928634Y-12353484D01*
X5928634Y-12353484D02*
X5938158Y-12334436D01*
X5938158Y-12334436D02*
X5947681Y-12324913D01*
X5947681Y-12324913D02*
X5966729Y-12315389D01*
X6119110Y-12496341D02*
X6128634Y-12505865D01*
X6128634Y-12505865D02*
X6119110Y-12515389D01*
X6119110Y-12515389D02*
X6109586Y-12505865D01*
X6109586Y-12505865D02*
X6119110Y-12496341D01*
X6119110Y-12496341D02*
X6119110Y-12515389D01*
X6252443Y-12315389D02*
X6271491Y-12315389D01*
X6271491Y-12315389D02*
X6290539Y-12324913D01*
X6290539Y-12324913D02*
X6300062Y-12334436D01*
X6300062Y-12334436D02*
X6309586Y-12353484D01*
X6309586Y-12353484D02*
X6319110Y-12391579D01*
X6319110Y-12391579D02*
X6319110Y-12439198D01*
X6319110Y-12439198D02*
X6309586Y-12477293D01*
X6309586Y-12477293D02*
X6300062Y-12496341D01*
X6300062Y-12496341D02*
X6290539Y-12505865D01*
X6290539Y-12505865D02*
X6271491Y-12515389D01*
X6271491Y-12515389D02*
X6252443Y-12515389D01*
X6252443Y-12515389D02*
X6233396Y-12505865D01*
X6233396Y-12505865D02*
X6223872Y-12496341D01*
X6223872Y-12496341D02*
X6214348Y-12477293D01*
X6214348Y-12477293D02*
X6204824Y-12439198D01*
X6204824Y-12439198D02*
X6204824Y-12391579D01*
X6204824Y-12391579D02*
X6214348Y-12353484D01*
X6214348Y-12353484D02*
X6223872Y-12334436D01*
X6223872Y-12334436D02*
X6233396Y-12324913D01*
X6233396Y-12324913D02*
X6252443Y-12315389D01*
X6395301Y-12334436D02*
X6404824Y-12324913D01*
X6404824Y-12324913D02*
X6423872Y-12315389D01*
X6423872Y-12315389D02*
X6471491Y-12315389D01*
X6471491Y-12315389D02*
X6490539Y-12324913D01*
X6490539Y-12324913D02*
X6500062Y-12334436D01*
X6500062Y-12334436D02*
X6509586Y-12353484D01*
X6509586Y-12353484D02*
X6509586Y-12372532D01*
X6509586Y-12372532D02*
X6500062Y-12401103D01*
X6500062Y-12401103D02*
X6385777Y-12515389D01*
X6385777Y-12515389D02*
X6509586Y-12515389D01*
X6604824Y-12515389D02*
X6642920Y-12515389D01*
X6642920Y-12515389D02*
X6661967Y-12505865D01*
X6661967Y-12505865D02*
X6671491Y-12496341D01*
X6671491Y-12496341D02*
X6690539Y-12467770D01*
X6690539Y-12467770D02*
X6700062Y-12429674D01*
X6700062Y-12429674D02*
X6700062Y-12353484D01*
X6700062Y-12353484D02*
X6690539Y-12334436D01*
X6690539Y-12334436D02*
X6681015Y-12324913D01*
X6681015Y-12324913D02*
X6661967Y-12315389D01*
X6661967Y-12315389D02*
X6623872Y-12315389D01*
X6623872Y-12315389D02*
X6604824Y-12324913D01*
X6604824Y-12324913D02*
X6595301Y-12334436D01*
X6595301Y-12334436D02*
X6585777Y-12353484D01*
X6585777Y-12353484D02*
X6585777Y-12401103D01*
X6585777Y-12401103D02*
X6595301Y-12420151D01*
X6595301Y-12420151D02*
X6604824Y-12429674D01*
X6604824Y-12429674D02*
X6623872Y-12439198D01*
X6623872Y-12439198D02*
X6661967Y-12439198D01*
X6661967Y-12439198D02*
X6681015Y-12429674D01*
X6681015Y-12429674D02*
X6690539Y-12420151D01*
X6690539Y-12420151D02*
X6700062Y-12401103D01*
X6795301Y-12515389D02*
X6833396Y-12515389D01*
X6833396Y-12515389D02*
X6852443Y-12505865D01*
X6852443Y-12505865D02*
X6861967Y-12496341D01*
X6861967Y-12496341D02*
X6881015Y-12467770D01*
X6881015Y-12467770D02*
X6890539Y-12429674D01*
X6890539Y-12429674D02*
X6890539Y-12353484D01*
X6890539Y-12353484D02*
X6881015Y-12334436D01*
X6881015Y-12334436D02*
X6871491Y-12324913D01*
X6871491Y-12324913D02*
X6852443Y-12315389D01*
X6852443Y-12315389D02*
X6814348Y-12315389D01*
X6814348Y-12315389D02*
X6795301Y-12324913D01*
X6795301Y-12324913D02*
X6785777Y-12334436D01*
X6785777Y-12334436D02*
X6776253Y-12353484D01*
X6776253Y-12353484D02*
X6776253Y-12401103D01*
X6776253Y-12401103D02*
X6785777Y-12420151D01*
X6785777Y-12420151D02*
X6795301Y-12429674D01*
X6795301Y-12429674D02*
X6814348Y-12439198D01*
X6814348Y-12439198D02*
X6852443Y-12439198D01*
X6852443Y-12439198D02*
X6871491Y-12429674D01*
X6871491Y-12429674D02*
X6881015Y-12420151D01*
X6881015Y-12420151D02*
X6890539Y-12401103D01*
X6966729Y-12315389D02*
X6966729Y-12353484D01*
X7042920Y-12315389D02*
X7042920Y-12353484D01*
X7338158Y-12591579D02*
X7328634Y-12582055D01*
X7328634Y-12582055D02*
X7309586Y-12553484D01*
X7309586Y-12553484D02*
X7300063Y-12534436D01*
X7300063Y-12534436D02*
X7290539Y-12505865D01*
X7290539Y-12505865D02*
X7281015Y-12458246D01*
X7281015Y-12458246D02*
X7281015Y-12420151D01*
X7281015Y-12420151D02*
X7290539Y-12372532D01*
X7290539Y-12372532D02*
X7300063Y-12343960D01*
X7300063Y-12343960D02*
X7309586Y-12324913D01*
X7309586Y-12324913D02*
X7328634Y-12296341D01*
X7328634Y-12296341D02*
X7338158Y-12286817D01*
X7519110Y-12515389D02*
X7404824Y-12515389D01*
X7461967Y-12515389D02*
X7461967Y-12315389D01*
X7461967Y-12315389D02*
X7442920Y-12343960D01*
X7442920Y-12343960D02*
X7423872Y-12363008D01*
X7423872Y-12363008D02*
X7404824Y-12372532D01*
X7690539Y-12315389D02*
X7652443Y-12315389D01*
X7652443Y-12315389D02*
X7633396Y-12324913D01*
X7633396Y-12324913D02*
X7623872Y-12334436D01*
X7623872Y-12334436D02*
X7604824Y-12363008D01*
X7604824Y-12363008D02*
X7595301Y-12401103D01*
X7595301Y-12401103D02*
X7595301Y-12477293D01*
X7595301Y-12477293D02*
X7604824Y-12496341D01*
X7604824Y-12496341D02*
X7614348Y-12505865D01*
X7614348Y-12505865D02*
X7633396Y-12515389D01*
X7633396Y-12515389D02*
X7671491Y-12515389D01*
X7671491Y-12515389D02*
X7690539Y-12505865D01*
X7690539Y-12505865D02*
X7700063Y-12496341D01*
X7700063Y-12496341D02*
X7709586Y-12477293D01*
X7709586Y-12477293D02*
X7709586Y-12429674D01*
X7709586Y-12429674D02*
X7700063Y-12410627D01*
X7700063Y-12410627D02*
X7690539Y-12401103D01*
X7690539Y-12401103D02*
X7671491Y-12391579D01*
X7671491Y-12391579D02*
X7633396Y-12391579D01*
X7633396Y-12391579D02*
X7614348Y-12401103D01*
X7614348Y-12401103D02*
X7604824Y-12410627D01*
X7604824Y-12410627D02*
X7595301Y-12429674D01*
X7947682Y-12515389D02*
X7947682Y-12315389D01*
X8033396Y-12515389D02*
X8033396Y-12410627D01*
X8033396Y-12410627D02*
X8023872Y-12391579D01*
X8023872Y-12391579D02*
X8004825Y-12382055D01*
X8004825Y-12382055D02*
X7976253Y-12382055D01*
X7976253Y-12382055D02*
X7957205Y-12391579D01*
X7957205Y-12391579D02*
X7947682Y-12401103D01*
X8157205Y-12515389D02*
X8138158Y-12505865D01*
X8138158Y-12505865D02*
X8128634Y-12496341D01*
X8128634Y-12496341D02*
X8119110Y-12477293D01*
X8119110Y-12477293D02*
X8119110Y-12420151D01*
X8119110Y-12420151D02*
X8128634Y-12401103D01*
X8128634Y-12401103D02*
X8138158Y-12391579D01*
X8138158Y-12391579D02*
X8157205Y-12382055D01*
X8157205Y-12382055D02*
X8185777Y-12382055D01*
X8185777Y-12382055D02*
X8204825Y-12391579D01*
X8204825Y-12391579D02*
X8214348Y-12401103D01*
X8214348Y-12401103D02*
X8223872Y-12420151D01*
X8223872Y-12420151D02*
X8223872Y-12477293D01*
X8223872Y-12477293D02*
X8214348Y-12496341D01*
X8214348Y-12496341D02*
X8204825Y-12505865D01*
X8204825Y-12505865D02*
X8185777Y-12515389D01*
X8185777Y-12515389D02*
X8157205Y-12515389D01*
X8338158Y-12515389D02*
X8319110Y-12505865D01*
X8319110Y-12505865D02*
X8309586Y-12486817D01*
X8309586Y-12486817D02*
X8309586Y-12315389D01*
X8490539Y-12505865D02*
X8471491Y-12515389D01*
X8471491Y-12515389D02*
X8433396Y-12515389D01*
X8433396Y-12515389D02*
X8414348Y-12505865D01*
X8414348Y-12505865D02*
X8404825Y-12486817D01*
X8404825Y-12486817D02*
X8404825Y-12410627D01*
X8404825Y-12410627D02*
X8414348Y-12391579D01*
X8414348Y-12391579D02*
X8433396Y-12382055D01*
X8433396Y-12382055D02*
X8471491Y-12382055D01*
X8471491Y-12382055D02*
X8490539Y-12391579D01*
X8490539Y-12391579D02*
X8500063Y-12410627D01*
X8500063Y-12410627D02*
X8500063Y-12429674D01*
X8500063Y-12429674D02*
X8404825Y-12448722D01*
X8576253Y-12505865D02*
X8595301Y-12515389D01*
X8595301Y-12515389D02*
X8633396Y-12515389D01*
X8633396Y-12515389D02*
X8652444Y-12505865D01*
X8652444Y-12505865D02*
X8661968Y-12486817D01*
X8661968Y-12486817D02*
X8661968Y-12477293D01*
X8661968Y-12477293D02*
X8652444Y-12458246D01*
X8652444Y-12458246D02*
X8633396Y-12448722D01*
X8633396Y-12448722D02*
X8604825Y-12448722D01*
X8604825Y-12448722D02*
X8585777Y-12439198D01*
X8585777Y-12439198D02*
X8576253Y-12420151D01*
X8576253Y-12420151D02*
X8576253Y-12410627D01*
X8576253Y-12410627D02*
X8585777Y-12391579D01*
X8585777Y-12391579D02*
X8604825Y-12382055D01*
X8604825Y-12382055D02*
X8633396Y-12382055D01*
X8633396Y-12382055D02*
X8652444Y-12391579D01*
X8728634Y-12591579D02*
X8738158Y-12582055D01*
X8738158Y-12582055D02*
X8757206Y-12553484D01*
X8757206Y-12553484D02*
X8766729Y-12534436D01*
X8766729Y-12534436D02*
X8776253Y-12505865D01*
X8776253Y-12505865D02*
X8785777Y-12458246D01*
X8785777Y-12458246D02*
X8785777Y-12420151D01*
X8785777Y-12420151D02*
X8776253Y-12372532D01*
X8776253Y-12372532D02*
X8766729Y-12343960D01*
X8766729Y-12343960D02*
X8757206Y-12324913D01*
X8757206Y-12324913D02*
X8738158Y-12296341D01*
X8738158Y-12296341D02*
X8728634Y-12286817D01*
D12*
X3723095Y-12727905D02*
X3763095Y-12687905D01*
X3723095Y-12647905D01*
X3683095Y-12687905D01*
X3723095Y-12727905D01*
D11*
X4061967Y-12579389D02*
X4081015Y-12579389D01*
X4081015Y-12579389D02*
X4100062Y-12588913D01*
X4100062Y-12588913D02*
X4109586Y-12598436D01*
X4109586Y-12598436D02*
X4119110Y-12617484D01*
X4119110Y-12617484D02*
X4128634Y-12655579D01*
X4128634Y-12655579D02*
X4128634Y-12703198D01*
X4128634Y-12703198D02*
X4119110Y-12741293D01*
X4119110Y-12741293D02*
X4109586Y-12760341D01*
X4109586Y-12760341D02*
X4100062Y-12769865D01*
X4100062Y-12769865D02*
X4081015Y-12779389D01*
X4081015Y-12779389D02*
X4061967Y-12779389D01*
X4061967Y-12779389D02*
X4042919Y-12769865D01*
X4042919Y-12769865D02*
X4033396Y-12760341D01*
X4033396Y-12760341D02*
X4023872Y-12741293D01*
X4023872Y-12741293D02*
X4014348Y-12703198D01*
X4014348Y-12703198D02*
X4014348Y-12655579D01*
X4014348Y-12655579D02*
X4023872Y-12617484D01*
X4023872Y-12617484D02*
X4033396Y-12598436D01*
X4033396Y-12598436D02*
X4042919Y-12588913D01*
X4042919Y-12588913D02*
X4061967Y-12579389D01*
X4214348Y-12760341D02*
X4223872Y-12769865D01*
X4223872Y-12769865D02*
X4214348Y-12779389D01*
X4214348Y-12779389D02*
X4204824Y-12769865D01*
X4204824Y-12769865D02*
X4214348Y-12760341D01*
X4214348Y-12760341D02*
X4214348Y-12779389D01*
X4338158Y-12665103D02*
X4319110Y-12655579D01*
X4319110Y-12655579D02*
X4309586Y-12646055D01*
X4309586Y-12646055D02*
X4300062Y-12627008D01*
X4300062Y-12627008D02*
X4300062Y-12617484D01*
X4300062Y-12617484D02*
X4309586Y-12598436D01*
X4309586Y-12598436D02*
X4319110Y-12588913D01*
X4319110Y-12588913D02*
X4338158Y-12579389D01*
X4338158Y-12579389D02*
X4376253Y-12579389D01*
X4376253Y-12579389D02*
X4395300Y-12588913D01*
X4395300Y-12588913D02*
X4404824Y-12598436D01*
X4404824Y-12598436D02*
X4414348Y-12617484D01*
X4414348Y-12617484D02*
X4414348Y-12627008D01*
X4414348Y-12627008D02*
X4404824Y-12646055D01*
X4404824Y-12646055D02*
X4395300Y-12655579D01*
X4395300Y-12655579D02*
X4376253Y-12665103D01*
X4376253Y-12665103D02*
X4338158Y-12665103D01*
X4338158Y-12665103D02*
X4319110Y-12674627D01*
X4319110Y-12674627D02*
X4309586Y-12684151D01*
X4309586Y-12684151D02*
X4300062Y-12703198D01*
X4300062Y-12703198D02*
X4300062Y-12741293D01*
X4300062Y-12741293D02*
X4309586Y-12760341D01*
X4309586Y-12760341D02*
X4319110Y-12769865D01*
X4319110Y-12769865D02*
X4338158Y-12779389D01*
X4338158Y-12779389D02*
X4376253Y-12779389D01*
X4376253Y-12779389D02*
X4395300Y-12769865D01*
X4395300Y-12769865D02*
X4404824Y-12760341D01*
X4404824Y-12760341D02*
X4414348Y-12741293D01*
X4414348Y-12741293D02*
X4414348Y-12703198D01*
X4414348Y-12703198D02*
X4404824Y-12684151D01*
X4404824Y-12684151D02*
X4395300Y-12674627D01*
X4395300Y-12674627D02*
X4376253Y-12665103D01*
X4538158Y-12579389D02*
X4557205Y-12579389D01*
X4557205Y-12579389D02*
X4576253Y-12588913D01*
X4576253Y-12588913D02*
X4585777Y-12598436D01*
X4585777Y-12598436D02*
X4595300Y-12617484D01*
X4595300Y-12617484D02*
X4604824Y-12655579D01*
X4604824Y-12655579D02*
X4604824Y-12703198D01*
X4604824Y-12703198D02*
X4595300Y-12741293D01*
X4595300Y-12741293D02*
X4585777Y-12760341D01*
X4585777Y-12760341D02*
X4576253Y-12769865D01*
X4576253Y-12769865D02*
X4557205Y-12779389D01*
X4557205Y-12779389D02*
X4538158Y-12779389D01*
X4538158Y-12779389D02*
X4519110Y-12769865D01*
X4519110Y-12769865D02*
X4509586Y-12760341D01*
X4509586Y-12760341D02*
X4500062Y-12741293D01*
X4500062Y-12741293D02*
X4490539Y-12703198D01*
X4490539Y-12703198D02*
X4490539Y-12655579D01*
X4490539Y-12655579D02*
X4500062Y-12617484D01*
X4500062Y-12617484D02*
X4509586Y-12598436D01*
X4509586Y-12598436D02*
X4519110Y-12588913D01*
X4519110Y-12588913D02*
X4538158Y-12579389D01*
X4728634Y-12579389D02*
X4747681Y-12579389D01*
X4747681Y-12579389D02*
X4766729Y-12588913D01*
X4766729Y-12588913D02*
X4776253Y-12598436D01*
X4776253Y-12598436D02*
X4785777Y-12617484D01*
X4785777Y-12617484D02*
X4795300Y-12655579D01*
X4795300Y-12655579D02*
X4795300Y-12703198D01*
X4795300Y-12703198D02*
X4785777Y-12741293D01*
X4785777Y-12741293D02*
X4776253Y-12760341D01*
X4776253Y-12760341D02*
X4766729Y-12769865D01*
X4766729Y-12769865D02*
X4747681Y-12779389D01*
X4747681Y-12779389D02*
X4728634Y-12779389D01*
X4728634Y-12779389D02*
X4709586Y-12769865D01*
X4709586Y-12769865D02*
X4700062Y-12760341D01*
X4700062Y-12760341D02*
X4690539Y-12741293D01*
X4690539Y-12741293D02*
X4681015Y-12703198D01*
X4681015Y-12703198D02*
X4681015Y-12655579D01*
X4681015Y-12655579D02*
X4690539Y-12617484D01*
X4690539Y-12617484D02*
X4700062Y-12598436D01*
X4700062Y-12598436D02*
X4709586Y-12588913D01*
X4709586Y-12588913D02*
X4728634Y-12579389D01*
X4881015Y-12779389D02*
X4881015Y-12646055D01*
X4881015Y-12665103D02*
X4890539Y-12655579D01*
X4890539Y-12655579D02*
X4909586Y-12646055D01*
X4909586Y-12646055D02*
X4938158Y-12646055D01*
X4938158Y-12646055D02*
X4957205Y-12655579D01*
X4957205Y-12655579D02*
X4966729Y-12674627D01*
X4966729Y-12674627D02*
X4966729Y-12779389D01*
X4966729Y-12674627D02*
X4976253Y-12655579D01*
X4976253Y-12655579D02*
X4995300Y-12646055D01*
X4995300Y-12646055D02*
X5023872Y-12646055D01*
X5023872Y-12646055D02*
X5042920Y-12655579D01*
X5042920Y-12655579D02*
X5052443Y-12674627D01*
X5052443Y-12674627D02*
X5052443Y-12779389D01*
X5147681Y-12779389D02*
X5147681Y-12646055D01*
X5147681Y-12665103D02*
X5157205Y-12655579D01*
X5157205Y-12655579D02*
X5176253Y-12646055D01*
X5176253Y-12646055D02*
X5204824Y-12646055D01*
X5204824Y-12646055D02*
X5223872Y-12655579D01*
X5223872Y-12655579D02*
X5233396Y-12674627D01*
X5233396Y-12674627D02*
X5233396Y-12779389D01*
X5233396Y-12674627D02*
X5242920Y-12655579D01*
X5242920Y-12655579D02*
X5261967Y-12646055D01*
X5261967Y-12646055D02*
X5290539Y-12646055D01*
X5290539Y-12646055D02*
X5309586Y-12655579D01*
X5309586Y-12655579D02*
X5319110Y-12674627D01*
X5319110Y-12674627D02*
X5319110Y-12779389D01*
X5709586Y-12569865D02*
X5538158Y-12827008D01*
X5966729Y-12579389D02*
X5985777Y-12579389D01*
X5985777Y-12579389D02*
X6004824Y-12588913D01*
X6004824Y-12588913D02*
X6014348Y-12598436D01*
X6014348Y-12598436D02*
X6023872Y-12617484D01*
X6023872Y-12617484D02*
X6033396Y-12655579D01*
X6033396Y-12655579D02*
X6033396Y-12703198D01*
X6033396Y-12703198D02*
X6023872Y-12741293D01*
X6023872Y-12741293D02*
X6014348Y-12760341D01*
X6014348Y-12760341D02*
X6004824Y-12769865D01*
X6004824Y-12769865D02*
X5985777Y-12779389D01*
X5985777Y-12779389D02*
X5966729Y-12779389D01*
X5966729Y-12779389D02*
X5947681Y-12769865D01*
X5947681Y-12769865D02*
X5938158Y-12760341D01*
X5938158Y-12760341D02*
X5928634Y-12741293D01*
X5928634Y-12741293D02*
X5919110Y-12703198D01*
X5919110Y-12703198D02*
X5919110Y-12655579D01*
X5919110Y-12655579D02*
X5928634Y-12617484D01*
X5928634Y-12617484D02*
X5938158Y-12598436D01*
X5938158Y-12598436D02*
X5947681Y-12588913D01*
X5947681Y-12588913D02*
X5966729Y-12579389D01*
X6119110Y-12760341D02*
X6128634Y-12769865D01*
X6128634Y-12769865D02*
X6119110Y-12779389D01*
X6119110Y-12779389D02*
X6109586Y-12769865D01*
X6109586Y-12769865D02*
X6119110Y-12760341D01*
X6119110Y-12760341D02*
X6119110Y-12779389D01*
X6252443Y-12579389D02*
X6271491Y-12579389D01*
X6271491Y-12579389D02*
X6290539Y-12588913D01*
X6290539Y-12588913D02*
X6300062Y-12598436D01*
X6300062Y-12598436D02*
X6309586Y-12617484D01*
X6309586Y-12617484D02*
X6319110Y-12655579D01*
X6319110Y-12655579D02*
X6319110Y-12703198D01*
X6319110Y-12703198D02*
X6309586Y-12741293D01*
X6309586Y-12741293D02*
X6300062Y-12760341D01*
X6300062Y-12760341D02*
X6290539Y-12769865D01*
X6290539Y-12769865D02*
X6271491Y-12779389D01*
X6271491Y-12779389D02*
X6252443Y-12779389D01*
X6252443Y-12779389D02*
X6233396Y-12769865D01*
X6233396Y-12769865D02*
X6223872Y-12760341D01*
X6223872Y-12760341D02*
X6214348Y-12741293D01*
X6214348Y-12741293D02*
X6204824Y-12703198D01*
X6204824Y-12703198D02*
X6204824Y-12655579D01*
X6204824Y-12655579D02*
X6214348Y-12617484D01*
X6214348Y-12617484D02*
X6223872Y-12598436D01*
X6223872Y-12598436D02*
X6233396Y-12588913D01*
X6233396Y-12588913D02*
X6252443Y-12579389D01*
X6385777Y-12579389D02*
X6509586Y-12579389D01*
X6509586Y-12579389D02*
X6442920Y-12655579D01*
X6442920Y-12655579D02*
X6471491Y-12655579D01*
X6471491Y-12655579D02*
X6490539Y-12665103D01*
X6490539Y-12665103D02*
X6500062Y-12674627D01*
X6500062Y-12674627D02*
X6509586Y-12693674D01*
X6509586Y-12693674D02*
X6509586Y-12741293D01*
X6509586Y-12741293D02*
X6500062Y-12760341D01*
X6500062Y-12760341D02*
X6490539Y-12769865D01*
X6490539Y-12769865D02*
X6471491Y-12779389D01*
X6471491Y-12779389D02*
X6414348Y-12779389D01*
X6414348Y-12779389D02*
X6395301Y-12769865D01*
X6395301Y-12769865D02*
X6385777Y-12760341D01*
X6700062Y-12779389D02*
X6585777Y-12779389D01*
X6642920Y-12779389D02*
X6642920Y-12579389D01*
X6642920Y-12579389D02*
X6623872Y-12607960D01*
X6623872Y-12607960D02*
X6604824Y-12627008D01*
X6604824Y-12627008D02*
X6585777Y-12636532D01*
X6881015Y-12579389D02*
X6785777Y-12579389D01*
X6785777Y-12579389D02*
X6776253Y-12674627D01*
X6776253Y-12674627D02*
X6785777Y-12665103D01*
X6785777Y-12665103D02*
X6804824Y-12655579D01*
X6804824Y-12655579D02*
X6852443Y-12655579D01*
X6852443Y-12655579D02*
X6871491Y-12665103D01*
X6871491Y-12665103D02*
X6881015Y-12674627D01*
X6881015Y-12674627D02*
X6890539Y-12693674D01*
X6890539Y-12693674D02*
X6890539Y-12741293D01*
X6890539Y-12741293D02*
X6881015Y-12760341D01*
X6881015Y-12760341D02*
X6871491Y-12769865D01*
X6871491Y-12769865D02*
X6852443Y-12779389D01*
X6852443Y-12779389D02*
X6804824Y-12779389D01*
X6804824Y-12779389D02*
X6785777Y-12769865D01*
X6785777Y-12769865D02*
X6776253Y-12760341D01*
X6966729Y-12579389D02*
X6966729Y-12617484D01*
X7042920Y-12579389D02*
X7042920Y-12617484D01*
X7338158Y-12855579D02*
X7328634Y-12846055D01*
X7328634Y-12846055D02*
X7309586Y-12817484D01*
X7309586Y-12817484D02*
X7300063Y-12798436D01*
X7300063Y-12798436D02*
X7290539Y-12769865D01*
X7290539Y-12769865D02*
X7281015Y-12722246D01*
X7281015Y-12722246D02*
X7281015Y-12684151D01*
X7281015Y-12684151D02*
X7290539Y-12636532D01*
X7290539Y-12636532D02*
X7300063Y-12607960D01*
X7300063Y-12607960D02*
X7309586Y-12588913D01*
X7309586Y-12588913D02*
X7328634Y-12560341D01*
X7328634Y-12560341D02*
X7338158Y-12550817D01*
X7395301Y-12579389D02*
X7519110Y-12579389D01*
X7519110Y-12579389D02*
X7452443Y-12655579D01*
X7452443Y-12655579D02*
X7481015Y-12655579D01*
X7481015Y-12655579D02*
X7500063Y-12665103D01*
X7500063Y-12665103D02*
X7509586Y-12674627D01*
X7509586Y-12674627D02*
X7519110Y-12693674D01*
X7519110Y-12693674D02*
X7519110Y-12741293D01*
X7519110Y-12741293D02*
X7509586Y-12760341D01*
X7509586Y-12760341D02*
X7500063Y-12769865D01*
X7500063Y-12769865D02*
X7481015Y-12779389D01*
X7481015Y-12779389D02*
X7423872Y-12779389D01*
X7423872Y-12779389D02*
X7404824Y-12769865D01*
X7404824Y-12769865D02*
X7395301Y-12760341D01*
X7642920Y-12579389D02*
X7661967Y-12579389D01*
X7661967Y-12579389D02*
X7681015Y-12588913D01*
X7681015Y-12588913D02*
X7690539Y-12598436D01*
X7690539Y-12598436D02*
X7700063Y-12617484D01*
X7700063Y-12617484D02*
X7709586Y-12655579D01*
X7709586Y-12655579D02*
X7709586Y-12703198D01*
X7709586Y-12703198D02*
X7700063Y-12741293D01*
X7700063Y-12741293D02*
X7690539Y-12760341D01*
X7690539Y-12760341D02*
X7681015Y-12769865D01*
X7681015Y-12769865D02*
X7661967Y-12779389D01*
X7661967Y-12779389D02*
X7642920Y-12779389D01*
X7642920Y-12779389D02*
X7623872Y-12769865D01*
X7623872Y-12769865D02*
X7614348Y-12760341D01*
X7614348Y-12760341D02*
X7604824Y-12741293D01*
X7604824Y-12741293D02*
X7595301Y-12703198D01*
X7595301Y-12703198D02*
X7595301Y-12655579D01*
X7595301Y-12655579D02*
X7604824Y-12617484D01*
X7604824Y-12617484D02*
X7614348Y-12598436D01*
X7614348Y-12598436D02*
X7623872Y-12588913D01*
X7623872Y-12588913D02*
X7642920Y-12579389D01*
X7947682Y-12779389D02*
X7947682Y-12579389D01*
X8033396Y-12779389D02*
X8033396Y-12674627D01*
X8033396Y-12674627D02*
X8023872Y-12655579D01*
X8023872Y-12655579D02*
X8004825Y-12646055D01*
X8004825Y-12646055D02*
X7976253Y-12646055D01*
X7976253Y-12646055D02*
X7957205Y-12655579D01*
X7957205Y-12655579D02*
X7947682Y-12665103D01*
X8157205Y-12779389D02*
X8138158Y-12769865D01*
X8138158Y-12769865D02*
X8128634Y-12760341D01*
X8128634Y-12760341D02*
X8119110Y-12741293D01*
X8119110Y-12741293D02*
X8119110Y-12684151D01*
X8119110Y-12684151D02*
X8128634Y-12665103D01*
X8128634Y-12665103D02*
X8138158Y-12655579D01*
X8138158Y-12655579D02*
X8157205Y-12646055D01*
X8157205Y-12646055D02*
X8185777Y-12646055D01*
X8185777Y-12646055D02*
X8204825Y-12655579D01*
X8204825Y-12655579D02*
X8214348Y-12665103D01*
X8214348Y-12665103D02*
X8223872Y-12684151D01*
X8223872Y-12684151D02*
X8223872Y-12741293D01*
X8223872Y-12741293D02*
X8214348Y-12760341D01*
X8214348Y-12760341D02*
X8204825Y-12769865D01*
X8204825Y-12769865D02*
X8185777Y-12779389D01*
X8185777Y-12779389D02*
X8157205Y-12779389D01*
X8338158Y-12779389D02*
X8319110Y-12769865D01*
X8319110Y-12769865D02*
X8309586Y-12750817D01*
X8309586Y-12750817D02*
X8309586Y-12579389D01*
X8490539Y-12769865D02*
X8471491Y-12779389D01*
X8471491Y-12779389D02*
X8433396Y-12779389D01*
X8433396Y-12779389D02*
X8414348Y-12769865D01*
X8414348Y-12769865D02*
X8404825Y-12750817D01*
X8404825Y-12750817D02*
X8404825Y-12674627D01*
X8404825Y-12674627D02*
X8414348Y-12655579D01*
X8414348Y-12655579D02*
X8433396Y-12646055D01*
X8433396Y-12646055D02*
X8471491Y-12646055D01*
X8471491Y-12646055D02*
X8490539Y-12655579D01*
X8490539Y-12655579D02*
X8500063Y-12674627D01*
X8500063Y-12674627D02*
X8500063Y-12693674D01*
X8500063Y-12693674D02*
X8404825Y-12712722D01*
X8576253Y-12769865D02*
X8595301Y-12779389D01*
X8595301Y-12779389D02*
X8633396Y-12779389D01*
X8633396Y-12779389D02*
X8652444Y-12769865D01*
X8652444Y-12769865D02*
X8661968Y-12750817D01*
X8661968Y-12750817D02*
X8661968Y-12741293D01*
X8661968Y-12741293D02*
X8652444Y-12722246D01*
X8652444Y-12722246D02*
X8633396Y-12712722D01*
X8633396Y-12712722D02*
X8604825Y-12712722D01*
X8604825Y-12712722D02*
X8585777Y-12703198D01*
X8585777Y-12703198D02*
X8576253Y-12684151D01*
X8576253Y-12684151D02*
X8576253Y-12674627D01*
X8576253Y-12674627D02*
X8585777Y-12655579D01*
X8585777Y-12655579D02*
X8604825Y-12646055D01*
X8604825Y-12646055D02*
X8633396Y-12646055D01*
X8633396Y-12646055D02*
X8652444Y-12655579D01*
X8728634Y-12855579D02*
X8738158Y-12846055D01*
X8738158Y-12846055D02*
X8757206Y-12817484D01*
X8757206Y-12817484D02*
X8766729Y-12798436D01*
X8766729Y-12798436D02*
X8776253Y-12769865D01*
X8776253Y-12769865D02*
X8785777Y-12722246D01*
X8785777Y-12722246D02*
X8785777Y-12684151D01*
X8785777Y-12684151D02*
X8776253Y-12636532D01*
X8776253Y-12636532D02*
X8766729Y-12607960D01*
X8766729Y-12607960D02*
X8757206Y-12588913D01*
X8757206Y-12588913D02*
X8738158Y-12560341D01*
X8738158Y-12560341D02*
X8728634Y-12550817D01*
D13*
X3653095Y-12896905D02*
X3763095Y-13006905D01*
X3763095Y-12896905D02*
X3653095Y-13006905D01*
X3763095Y-12951905D02*
G75*
G02*
X3653095Y-12951905I-55000J0D01*
G01*
X3653095Y-12951905D02*
G75*
G02*
X3763095Y-12951905I55000J0D01*
G01*
D11*
X4128634Y-13043389D02*
X4014348Y-13043389D01*
X4071491Y-13043389D02*
X4071491Y-12843389D01*
X4071491Y-12843389D02*
X4052443Y-12871960D01*
X4052443Y-12871960D02*
X4033396Y-12891008D01*
X4033396Y-12891008D02*
X4014348Y-12900532D01*
X4214348Y-13024341D02*
X4223872Y-13033865D01*
X4223872Y-13033865D02*
X4214348Y-13043389D01*
X4214348Y-13043389D02*
X4204824Y-13033865D01*
X4204824Y-13033865D02*
X4214348Y-13024341D01*
X4214348Y-13024341D02*
X4214348Y-13043389D01*
X4414348Y-13043389D02*
X4300062Y-13043389D01*
X4357205Y-13043389D02*
X4357205Y-12843389D01*
X4357205Y-12843389D02*
X4338158Y-12871960D01*
X4338158Y-12871960D02*
X4319110Y-12891008D01*
X4319110Y-12891008D02*
X4300062Y-12900532D01*
X4538158Y-12843389D02*
X4557205Y-12843389D01*
X4557205Y-12843389D02*
X4576253Y-12852913D01*
X4576253Y-12852913D02*
X4585777Y-12862436D01*
X4585777Y-12862436D02*
X4595300Y-12881484D01*
X4595300Y-12881484D02*
X4604824Y-12919579D01*
X4604824Y-12919579D02*
X4604824Y-12967198D01*
X4604824Y-12967198D02*
X4595300Y-13005293D01*
X4595300Y-13005293D02*
X4585777Y-13024341D01*
X4585777Y-13024341D02*
X4576253Y-13033865D01*
X4576253Y-13033865D02*
X4557205Y-13043389D01*
X4557205Y-13043389D02*
X4538158Y-13043389D01*
X4538158Y-13043389D02*
X4519110Y-13033865D01*
X4519110Y-13033865D02*
X4509586Y-13024341D01*
X4509586Y-13024341D02*
X4500062Y-13005293D01*
X4500062Y-13005293D02*
X4490539Y-12967198D01*
X4490539Y-12967198D02*
X4490539Y-12919579D01*
X4490539Y-12919579D02*
X4500062Y-12881484D01*
X4500062Y-12881484D02*
X4509586Y-12862436D01*
X4509586Y-12862436D02*
X4519110Y-12852913D01*
X4519110Y-12852913D02*
X4538158Y-12843389D01*
X4728634Y-12843389D02*
X4747681Y-12843389D01*
X4747681Y-12843389D02*
X4766729Y-12852913D01*
X4766729Y-12852913D02*
X4776253Y-12862436D01*
X4776253Y-12862436D02*
X4785777Y-12881484D01*
X4785777Y-12881484D02*
X4795300Y-12919579D01*
X4795300Y-12919579D02*
X4795300Y-12967198D01*
X4795300Y-12967198D02*
X4785777Y-13005293D01*
X4785777Y-13005293D02*
X4776253Y-13024341D01*
X4776253Y-13024341D02*
X4766729Y-13033865D01*
X4766729Y-13033865D02*
X4747681Y-13043389D01*
X4747681Y-13043389D02*
X4728634Y-13043389D01*
X4728634Y-13043389D02*
X4709586Y-13033865D01*
X4709586Y-13033865D02*
X4700062Y-13024341D01*
X4700062Y-13024341D02*
X4690539Y-13005293D01*
X4690539Y-13005293D02*
X4681015Y-12967198D01*
X4681015Y-12967198D02*
X4681015Y-12919579D01*
X4681015Y-12919579D02*
X4690539Y-12881484D01*
X4690539Y-12881484D02*
X4700062Y-12862436D01*
X4700062Y-12862436D02*
X4709586Y-12852913D01*
X4709586Y-12852913D02*
X4728634Y-12843389D01*
X4881015Y-13043389D02*
X4881015Y-12910055D01*
X4881015Y-12929103D02*
X4890539Y-12919579D01*
X4890539Y-12919579D02*
X4909586Y-12910055D01*
X4909586Y-12910055D02*
X4938158Y-12910055D01*
X4938158Y-12910055D02*
X4957205Y-12919579D01*
X4957205Y-12919579D02*
X4966729Y-12938627D01*
X4966729Y-12938627D02*
X4966729Y-13043389D01*
X4966729Y-12938627D02*
X4976253Y-12919579D01*
X4976253Y-12919579D02*
X4995300Y-12910055D01*
X4995300Y-12910055D02*
X5023872Y-12910055D01*
X5023872Y-12910055D02*
X5042920Y-12919579D01*
X5042920Y-12919579D02*
X5052443Y-12938627D01*
X5052443Y-12938627D02*
X5052443Y-13043389D01*
X5147681Y-13043389D02*
X5147681Y-12910055D01*
X5147681Y-12929103D02*
X5157205Y-12919579D01*
X5157205Y-12919579D02*
X5176253Y-12910055D01*
X5176253Y-12910055D02*
X5204824Y-12910055D01*
X5204824Y-12910055D02*
X5223872Y-12919579D01*
X5223872Y-12919579D02*
X5233396Y-12938627D01*
X5233396Y-12938627D02*
X5233396Y-13043389D01*
X5233396Y-12938627D02*
X5242920Y-12919579D01*
X5242920Y-12919579D02*
X5261967Y-12910055D01*
X5261967Y-12910055D02*
X5290539Y-12910055D01*
X5290539Y-12910055D02*
X5309586Y-12919579D01*
X5309586Y-12919579D02*
X5319110Y-12938627D01*
X5319110Y-12938627D02*
X5319110Y-13043389D01*
X5709586Y-12833865D02*
X5538158Y-13091008D01*
X5966729Y-12843389D02*
X5985777Y-12843389D01*
X5985777Y-12843389D02*
X6004824Y-12852913D01*
X6004824Y-12852913D02*
X6014348Y-12862436D01*
X6014348Y-12862436D02*
X6023872Y-12881484D01*
X6023872Y-12881484D02*
X6033396Y-12919579D01*
X6033396Y-12919579D02*
X6033396Y-12967198D01*
X6033396Y-12967198D02*
X6023872Y-13005293D01*
X6023872Y-13005293D02*
X6014348Y-13024341D01*
X6014348Y-13024341D02*
X6004824Y-13033865D01*
X6004824Y-13033865D02*
X5985777Y-13043389D01*
X5985777Y-13043389D02*
X5966729Y-13043389D01*
X5966729Y-13043389D02*
X5947681Y-13033865D01*
X5947681Y-13033865D02*
X5938158Y-13024341D01*
X5938158Y-13024341D02*
X5928634Y-13005293D01*
X5928634Y-13005293D02*
X5919110Y-12967198D01*
X5919110Y-12967198D02*
X5919110Y-12919579D01*
X5919110Y-12919579D02*
X5928634Y-12881484D01*
X5928634Y-12881484D02*
X5938158Y-12862436D01*
X5938158Y-12862436D02*
X5947681Y-12852913D01*
X5947681Y-12852913D02*
X5966729Y-12843389D01*
X6119110Y-13024341D02*
X6128634Y-13033865D01*
X6128634Y-13033865D02*
X6119110Y-13043389D01*
X6119110Y-13043389D02*
X6109586Y-13033865D01*
X6109586Y-13033865D02*
X6119110Y-13024341D01*
X6119110Y-13024341D02*
X6119110Y-13043389D01*
X6252443Y-12843389D02*
X6271491Y-12843389D01*
X6271491Y-12843389D02*
X6290539Y-12852913D01*
X6290539Y-12852913D02*
X6300062Y-12862436D01*
X6300062Y-12862436D02*
X6309586Y-12881484D01*
X6309586Y-12881484D02*
X6319110Y-12919579D01*
X6319110Y-12919579D02*
X6319110Y-12967198D01*
X6319110Y-12967198D02*
X6309586Y-13005293D01*
X6309586Y-13005293D02*
X6300062Y-13024341D01*
X6300062Y-13024341D02*
X6290539Y-13033865D01*
X6290539Y-13033865D02*
X6271491Y-13043389D01*
X6271491Y-13043389D02*
X6252443Y-13043389D01*
X6252443Y-13043389D02*
X6233396Y-13033865D01*
X6233396Y-13033865D02*
X6223872Y-13024341D01*
X6223872Y-13024341D02*
X6214348Y-13005293D01*
X6214348Y-13005293D02*
X6204824Y-12967198D01*
X6204824Y-12967198D02*
X6204824Y-12919579D01*
X6204824Y-12919579D02*
X6214348Y-12881484D01*
X6214348Y-12881484D02*
X6223872Y-12862436D01*
X6223872Y-12862436D02*
X6233396Y-12852913D01*
X6233396Y-12852913D02*
X6252443Y-12843389D01*
X6490539Y-12910055D02*
X6490539Y-13043389D01*
X6442920Y-12833865D02*
X6395301Y-12976722D01*
X6395301Y-12976722D02*
X6519110Y-12976722D01*
X6576253Y-12843389D02*
X6700062Y-12843389D01*
X6700062Y-12843389D02*
X6633396Y-12919579D01*
X6633396Y-12919579D02*
X6661967Y-12919579D01*
X6661967Y-12919579D02*
X6681015Y-12929103D01*
X6681015Y-12929103D02*
X6690539Y-12938627D01*
X6690539Y-12938627D02*
X6700062Y-12957674D01*
X6700062Y-12957674D02*
X6700062Y-13005293D01*
X6700062Y-13005293D02*
X6690539Y-13024341D01*
X6690539Y-13024341D02*
X6681015Y-13033865D01*
X6681015Y-13033865D02*
X6661967Y-13043389D01*
X6661967Y-13043389D02*
X6604824Y-13043389D01*
X6604824Y-13043389D02*
X6585777Y-13033865D01*
X6585777Y-13033865D02*
X6576253Y-13024341D01*
X6766729Y-12843389D02*
X6890539Y-12843389D01*
X6890539Y-12843389D02*
X6823872Y-12919579D01*
X6823872Y-12919579D02*
X6852443Y-12919579D01*
X6852443Y-12919579D02*
X6871491Y-12929103D01*
X6871491Y-12929103D02*
X6881015Y-12938627D01*
X6881015Y-12938627D02*
X6890539Y-12957674D01*
X6890539Y-12957674D02*
X6890539Y-13005293D01*
X6890539Y-13005293D02*
X6881015Y-13024341D01*
X6881015Y-13024341D02*
X6871491Y-13033865D01*
X6871491Y-13033865D02*
X6852443Y-13043389D01*
X6852443Y-13043389D02*
X6795301Y-13043389D01*
X6795301Y-13043389D02*
X6776253Y-13033865D01*
X6776253Y-13033865D02*
X6766729Y-13024341D01*
X6966729Y-12843389D02*
X6966729Y-12881484D01*
X7042920Y-12843389D02*
X7042920Y-12881484D01*
X7338158Y-13119579D02*
X7328634Y-13110055D01*
X7328634Y-13110055D02*
X7309586Y-13081484D01*
X7309586Y-13081484D02*
X7300063Y-13062436D01*
X7300063Y-13062436D02*
X7290539Y-13033865D01*
X7290539Y-13033865D02*
X7281015Y-12986246D01*
X7281015Y-12986246D02*
X7281015Y-12948151D01*
X7281015Y-12948151D02*
X7290539Y-12900532D01*
X7290539Y-12900532D02*
X7300063Y-12871960D01*
X7300063Y-12871960D02*
X7309586Y-12852913D01*
X7309586Y-12852913D02*
X7328634Y-12824341D01*
X7328634Y-12824341D02*
X7338158Y-12814817D01*
X7500063Y-12843389D02*
X7461967Y-12843389D01*
X7461967Y-12843389D02*
X7442920Y-12852913D01*
X7442920Y-12852913D02*
X7433396Y-12862436D01*
X7433396Y-12862436D02*
X7414348Y-12891008D01*
X7414348Y-12891008D02*
X7404824Y-12929103D01*
X7404824Y-12929103D02*
X7404824Y-13005293D01*
X7404824Y-13005293D02*
X7414348Y-13024341D01*
X7414348Y-13024341D02*
X7423872Y-13033865D01*
X7423872Y-13033865D02*
X7442920Y-13043389D01*
X7442920Y-13043389D02*
X7481015Y-13043389D01*
X7481015Y-13043389D02*
X7500063Y-13033865D01*
X7500063Y-13033865D02*
X7509586Y-13024341D01*
X7509586Y-13024341D02*
X7519110Y-13005293D01*
X7519110Y-13005293D02*
X7519110Y-12957674D01*
X7519110Y-12957674D02*
X7509586Y-12938627D01*
X7509586Y-12938627D02*
X7500063Y-12929103D01*
X7500063Y-12929103D02*
X7481015Y-12919579D01*
X7481015Y-12919579D02*
X7442920Y-12919579D01*
X7442920Y-12919579D02*
X7423872Y-12929103D01*
X7423872Y-12929103D02*
X7414348Y-12938627D01*
X7414348Y-12938627D02*
X7404824Y-12957674D01*
X7757205Y-13043389D02*
X7757205Y-12843389D01*
X7842920Y-13043389D02*
X7842920Y-12938627D01*
X7842920Y-12938627D02*
X7833396Y-12919579D01*
X7833396Y-12919579D02*
X7814348Y-12910055D01*
X7814348Y-12910055D02*
X7785777Y-12910055D01*
X7785777Y-12910055D02*
X7766729Y-12919579D01*
X7766729Y-12919579D02*
X7757205Y-12929103D01*
X7966729Y-13043389D02*
X7947682Y-13033865D01*
X7947682Y-13033865D02*
X7938158Y-13024341D01*
X7938158Y-13024341D02*
X7928634Y-13005293D01*
X7928634Y-13005293D02*
X7928634Y-12948151D01*
X7928634Y-12948151D02*
X7938158Y-12929103D01*
X7938158Y-12929103D02*
X7947682Y-12919579D01*
X7947682Y-12919579D02*
X7966729Y-12910055D01*
X7966729Y-12910055D02*
X7995301Y-12910055D01*
X7995301Y-12910055D02*
X8014348Y-12919579D01*
X8014348Y-12919579D02*
X8023872Y-12929103D01*
X8023872Y-12929103D02*
X8033396Y-12948151D01*
X8033396Y-12948151D02*
X8033396Y-13005293D01*
X8033396Y-13005293D02*
X8023872Y-13024341D01*
X8023872Y-13024341D02*
X8014348Y-13033865D01*
X8014348Y-13033865D02*
X7995301Y-13043389D01*
X7995301Y-13043389D02*
X7966729Y-13043389D01*
X8147682Y-13043389D02*
X8128634Y-13033865D01*
X8128634Y-13033865D02*
X8119110Y-13014817D01*
X8119110Y-13014817D02*
X8119110Y-12843389D01*
X8300063Y-13033865D02*
X8281015Y-13043389D01*
X8281015Y-13043389D02*
X8242920Y-13043389D01*
X8242920Y-13043389D02*
X8223872Y-13033865D01*
X8223872Y-13033865D02*
X8214348Y-13014817D01*
X8214348Y-13014817D02*
X8214348Y-12938627D01*
X8214348Y-12938627D02*
X8223872Y-12919579D01*
X8223872Y-12919579D02*
X8242920Y-12910055D01*
X8242920Y-12910055D02*
X8281015Y-12910055D01*
X8281015Y-12910055D02*
X8300063Y-12919579D01*
X8300063Y-12919579D02*
X8309586Y-12938627D01*
X8309586Y-12938627D02*
X8309586Y-12957674D01*
X8309586Y-12957674D02*
X8214348Y-12976722D01*
X8385777Y-13033865D02*
X8404825Y-13043389D01*
X8404825Y-13043389D02*
X8442920Y-13043389D01*
X8442920Y-13043389D02*
X8461968Y-13033865D01*
X8461968Y-13033865D02*
X8471491Y-13014817D01*
X8471491Y-13014817D02*
X8471491Y-13005293D01*
X8471491Y-13005293D02*
X8461968Y-12986246D01*
X8461968Y-12986246D02*
X8442920Y-12976722D01*
X8442920Y-12976722D02*
X8414348Y-12976722D01*
X8414348Y-12976722D02*
X8395301Y-12967198D01*
X8395301Y-12967198D02*
X8385777Y-12948151D01*
X8385777Y-12948151D02*
X8385777Y-12938627D01*
X8385777Y-12938627D02*
X8395301Y-12919579D01*
X8395301Y-12919579D02*
X8414348Y-12910055D01*
X8414348Y-12910055D02*
X8442920Y-12910055D01*
X8442920Y-12910055D02*
X8461968Y-12919579D01*
X8538158Y-13119579D02*
X8547682Y-13110055D01*
X8547682Y-13110055D02*
X8566729Y-13081484D01*
X8566729Y-13081484D02*
X8576253Y-13062436D01*
X8576253Y-13062436D02*
X8585777Y-13033865D01*
X8585777Y-13033865D02*
X8595301Y-12986246D01*
X8595301Y-12986246D02*
X8595301Y-12948151D01*
X8595301Y-12948151D02*
X8585777Y-12900532D01*
X8585777Y-12900532D02*
X8576253Y-12871960D01*
X8576253Y-12871960D02*
X8566729Y-12852913D01*
X8566729Y-12852913D02*
X8547682Y-12824341D01*
X8547682Y-12824341D02*
X8538158Y-12814817D01*
D14*
X3603095Y-13135905D02*
X3763095Y-13295905D01*
X3763095Y-13135905D02*
X3603095Y-13295905D01*
X3683095Y-13135905D02*
X3683095Y-13295905D01*
X3603095Y-13215905D02*
X3763095Y-13215905D01*
D11*
X4128634Y-13307389D02*
X4014348Y-13307389D01*
X4071491Y-13307389D02*
X4071491Y-13107389D01*
X4071491Y-13107389D02*
X4052443Y-13135960D01*
X4052443Y-13135960D02*
X4033396Y-13155008D01*
X4033396Y-13155008D02*
X4014348Y-13164532D01*
X4214348Y-13288341D02*
X4223872Y-13297865D01*
X4223872Y-13297865D02*
X4214348Y-13307389D01*
X4214348Y-13307389D02*
X4204824Y-13297865D01*
X4204824Y-13297865D02*
X4214348Y-13288341D01*
X4214348Y-13288341D02*
X4214348Y-13307389D01*
X4395300Y-13107389D02*
X4357205Y-13107389D01*
X4357205Y-13107389D02*
X4338158Y-13116913D01*
X4338158Y-13116913D02*
X4328634Y-13126436D01*
X4328634Y-13126436D02*
X4309586Y-13155008D01*
X4309586Y-13155008D02*
X4300062Y-13193103D01*
X4300062Y-13193103D02*
X4300062Y-13269293D01*
X4300062Y-13269293D02*
X4309586Y-13288341D01*
X4309586Y-13288341D02*
X4319110Y-13297865D01*
X4319110Y-13297865D02*
X4338158Y-13307389D01*
X4338158Y-13307389D02*
X4376253Y-13307389D01*
X4376253Y-13307389D02*
X4395300Y-13297865D01*
X4395300Y-13297865D02*
X4404824Y-13288341D01*
X4404824Y-13288341D02*
X4414348Y-13269293D01*
X4414348Y-13269293D02*
X4414348Y-13221674D01*
X4414348Y-13221674D02*
X4404824Y-13202627D01*
X4404824Y-13202627D02*
X4395300Y-13193103D01*
X4395300Y-13193103D02*
X4376253Y-13183579D01*
X4376253Y-13183579D02*
X4338158Y-13183579D01*
X4338158Y-13183579D02*
X4319110Y-13193103D01*
X4319110Y-13193103D02*
X4309586Y-13202627D01*
X4309586Y-13202627D02*
X4300062Y-13221674D01*
X4538158Y-13107389D02*
X4557205Y-13107389D01*
X4557205Y-13107389D02*
X4576253Y-13116913D01*
X4576253Y-13116913D02*
X4585777Y-13126436D01*
X4585777Y-13126436D02*
X4595300Y-13145484D01*
X4595300Y-13145484D02*
X4604824Y-13183579D01*
X4604824Y-13183579D02*
X4604824Y-13231198D01*
X4604824Y-13231198D02*
X4595300Y-13269293D01*
X4595300Y-13269293D02*
X4585777Y-13288341D01*
X4585777Y-13288341D02*
X4576253Y-13297865D01*
X4576253Y-13297865D02*
X4557205Y-13307389D01*
X4557205Y-13307389D02*
X4538158Y-13307389D01*
X4538158Y-13307389D02*
X4519110Y-13297865D01*
X4519110Y-13297865D02*
X4509586Y-13288341D01*
X4509586Y-13288341D02*
X4500062Y-13269293D01*
X4500062Y-13269293D02*
X4490539Y-13231198D01*
X4490539Y-13231198D02*
X4490539Y-13183579D01*
X4490539Y-13183579D02*
X4500062Y-13145484D01*
X4500062Y-13145484D02*
X4509586Y-13126436D01*
X4509586Y-13126436D02*
X4519110Y-13116913D01*
X4519110Y-13116913D02*
X4538158Y-13107389D01*
X4728634Y-13107389D02*
X4747681Y-13107389D01*
X4747681Y-13107389D02*
X4766729Y-13116913D01*
X4766729Y-13116913D02*
X4776253Y-13126436D01*
X4776253Y-13126436D02*
X4785777Y-13145484D01*
X4785777Y-13145484D02*
X4795300Y-13183579D01*
X4795300Y-13183579D02*
X4795300Y-13231198D01*
X4795300Y-13231198D02*
X4785777Y-13269293D01*
X4785777Y-13269293D02*
X4776253Y-13288341D01*
X4776253Y-13288341D02*
X4766729Y-13297865D01*
X4766729Y-13297865D02*
X4747681Y-13307389D01*
X4747681Y-13307389D02*
X4728634Y-13307389D01*
X4728634Y-13307389D02*
X4709586Y-13297865D01*
X4709586Y-13297865D02*
X4700062Y-13288341D01*
X4700062Y-13288341D02*
X4690539Y-13269293D01*
X4690539Y-13269293D02*
X4681015Y-13231198D01*
X4681015Y-13231198D02*
X4681015Y-13183579D01*
X4681015Y-13183579D02*
X4690539Y-13145484D01*
X4690539Y-13145484D02*
X4700062Y-13126436D01*
X4700062Y-13126436D02*
X4709586Y-13116913D01*
X4709586Y-13116913D02*
X4728634Y-13107389D01*
X4881015Y-13307389D02*
X4881015Y-13174055D01*
X4881015Y-13193103D02*
X4890539Y-13183579D01*
X4890539Y-13183579D02*
X4909586Y-13174055D01*
X4909586Y-13174055D02*
X4938158Y-13174055D01*
X4938158Y-13174055D02*
X4957205Y-13183579D01*
X4957205Y-13183579D02*
X4966729Y-13202627D01*
X4966729Y-13202627D02*
X4966729Y-13307389D01*
X4966729Y-13202627D02*
X4976253Y-13183579D01*
X4976253Y-13183579D02*
X4995300Y-13174055D01*
X4995300Y-13174055D02*
X5023872Y-13174055D01*
X5023872Y-13174055D02*
X5042920Y-13183579D01*
X5042920Y-13183579D02*
X5052443Y-13202627D01*
X5052443Y-13202627D02*
X5052443Y-13307389D01*
X5147681Y-13307389D02*
X5147681Y-13174055D01*
X5147681Y-13193103D02*
X5157205Y-13183579D01*
X5157205Y-13183579D02*
X5176253Y-13174055D01*
X5176253Y-13174055D02*
X5204824Y-13174055D01*
X5204824Y-13174055D02*
X5223872Y-13183579D01*
X5223872Y-13183579D02*
X5233396Y-13202627D01*
X5233396Y-13202627D02*
X5233396Y-13307389D01*
X5233396Y-13202627D02*
X5242920Y-13183579D01*
X5242920Y-13183579D02*
X5261967Y-13174055D01*
X5261967Y-13174055D02*
X5290539Y-13174055D01*
X5290539Y-13174055D02*
X5309586Y-13183579D01*
X5309586Y-13183579D02*
X5319110Y-13202627D01*
X5319110Y-13202627D02*
X5319110Y-13307389D01*
X5709586Y-13097865D02*
X5538158Y-13355008D01*
X5966729Y-13107389D02*
X5985777Y-13107389D01*
X5985777Y-13107389D02*
X6004824Y-13116913D01*
X6004824Y-13116913D02*
X6014348Y-13126436D01*
X6014348Y-13126436D02*
X6023872Y-13145484D01*
X6023872Y-13145484D02*
X6033396Y-13183579D01*
X6033396Y-13183579D02*
X6033396Y-13231198D01*
X6033396Y-13231198D02*
X6023872Y-13269293D01*
X6023872Y-13269293D02*
X6014348Y-13288341D01*
X6014348Y-13288341D02*
X6004824Y-13297865D01*
X6004824Y-13297865D02*
X5985777Y-13307389D01*
X5985777Y-13307389D02*
X5966729Y-13307389D01*
X5966729Y-13307389D02*
X5947681Y-13297865D01*
X5947681Y-13297865D02*
X5938158Y-13288341D01*
X5938158Y-13288341D02*
X5928634Y-13269293D01*
X5928634Y-13269293D02*
X5919110Y-13231198D01*
X5919110Y-13231198D02*
X5919110Y-13183579D01*
X5919110Y-13183579D02*
X5928634Y-13145484D01*
X5928634Y-13145484D02*
X5938158Y-13126436D01*
X5938158Y-13126436D02*
X5947681Y-13116913D01*
X5947681Y-13116913D02*
X5966729Y-13107389D01*
X6119110Y-13288341D02*
X6128634Y-13297865D01*
X6128634Y-13297865D02*
X6119110Y-13307389D01*
X6119110Y-13307389D02*
X6109586Y-13297865D01*
X6109586Y-13297865D02*
X6119110Y-13288341D01*
X6119110Y-13288341D02*
X6119110Y-13307389D01*
X6252443Y-13107389D02*
X6271491Y-13107389D01*
X6271491Y-13107389D02*
X6290539Y-13116913D01*
X6290539Y-13116913D02*
X6300062Y-13126436D01*
X6300062Y-13126436D02*
X6309586Y-13145484D01*
X6309586Y-13145484D02*
X6319110Y-13183579D01*
X6319110Y-13183579D02*
X6319110Y-13231198D01*
X6319110Y-13231198D02*
X6309586Y-13269293D01*
X6309586Y-13269293D02*
X6300062Y-13288341D01*
X6300062Y-13288341D02*
X6290539Y-13297865D01*
X6290539Y-13297865D02*
X6271491Y-13307389D01*
X6271491Y-13307389D02*
X6252443Y-13307389D01*
X6252443Y-13307389D02*
X6233396Y-13297865D01*
X6233396Y-13297865D02*
X6223872Y-13288341D01*
X6223872Y-13288341D02*
X6214348Y-13269293D01*
X6214348Y-13269293D02*
X6204824Y-13231198D01*
X6204824Y-13231198D02*
X6204824Y-13183579D01*
X6204824Y-13183579D02*
X6214348Y-13145484D01*
X6214348Y-13145484D02*
X6223872Y-13126436D01*
X6223872Y-13126436D02*
X6233396Y-13116913D01*
X6233396Y-13116913D02*
X6252443Y-13107389D01*
X6490539Y-13107389D02*
X6452443Y-13107389D01*
X6452443Y-13107389D02*
X6433396Y-13116913D01*
X6433396Y-13116913D02*
X6423872Y-13126436D01*
X6423872Y-13126436D02*
X6404824Y-13155008D01*
X6404824Y-13155008D02*
X6395301Y-13193103D01*
X6395301Y-13193103D02*
X6395301Y-13269293D01*
X6395301Y-13269293D02*
X6404824Y-13288341D01*
X6404824Y-13288341D02*
X6414348Y-13297865D01*
X6414348Y-13297865D02*
X6433396Y-13307389D01*
X6433396Y-13307389D02*
X6471491Y-13307389D01*
X6471491Y-13307389D02*
X6490539Y-13297865D01*
X6490539Y-13297865D02*
X6500062Y-13288341D01*
X6500062Y-13288341D02*
X6509586Y-13269293D01*
X6509586Y-13269293D02*
X6509586Y-13221674D01*
X6509586Y-13221674D02*
X6500062Y-13202627D01*
X6500062Y-13202627D02*
X6490539Y-13193103D01*
X6490539Y-13193103D02*
X6471491Y-13183579D01*
X6471491Y-13183579D02*
X6433396Y-13183579D01*
X6433396Y-13183579D02*
X6414348Y-13193103D01*
X6414348Y-13193103D02*
X6404824Y-13202627D01*
X6404824Y-13202627D02*
X6395301Y-13221674D01*
X6576253Y-13107389D02*
X6700062Y-13107389D01*
X6700062Y-13107389D02*
X6633396Y-13183579D01*
X6633396Y-13183579D02*
X6661967Y-13183579D01*
X6661967Y-13183579D02*
X6681015Y-13193103D01*
X6681015Y-13193103D02*
X6690539Y-13202627D01*
X6690539Y-13202627D02*
X6700062Y-13221674D01*
X6700062Y-13221674D02*
X6700062Y-13269293D01*
X6700062Y-13269293D02*
X6690539Y-13288341D01*
X6690539Y-13288341D02*
X6681015Y-13297865D01*
X6681015Y-13297865D02*
X6661967Y-13307389D01*
X6661967Y-13307389D02*
X6604824Y-13307389D01*
X6604824Y-13307389D02*
X6585777Y-13297865D01*
X6585777Y-13297865D02*
X6576253Y-13288341D01*
X6823872Y-13107389D02*
X6842920Y-13107389D01*
X6842920Y-13107389D02*
X6861967Y-13116913D01*
X6861967Y-13116913D02*
X6871491Y-13126436D01*
X6871491Y-13126436D02*
X6881015Y-13145484D01*
X6881015Y-13145484D02*
X6890539Y-13183579D01*
X6890539Y-13183579D02*
X6890539Y-13231198D01*
X6890539Y-13231198D02*
X6881015Y-13269293D01*
X6881015Y-13269293D02*
X6871491Y-13288341D01*
X6871491Y-13288341D02*
X6861967Y-13297865D01*
X6861967Y-13297865D02*
X6842920Y-13307389D01*
X6842920Y-13307389D02*
X6823872Y-13307389D01*
X6823872Y-13307389D02*
X6804824Y-13297865D01*
X6804824Y-13297865D02*
X6795301Y-13288341D01*
X6795301Y-13288341D02*
X6785777Y-13269293D01*
X6785777Y-13269293D02*
X6776253Y-13231198D01*
X6776253Y-13231198D02*
X6776253Y-13183579D01*
X6776253Y-13183579D02*
X6785777Y-13145484D01*
X6785777Y-13145484D02*
X6795301Y-13126436D01*
X6795301Y-13126436D02*
X6804824Y-13116913D01*
X6804824Y-13116913D02*
X6823872Y-13107389D01*
X6966729Y-13107389D02*
X6966729Y-13145484D01*
X7042920Y-13107389D02*
X7042920Y-13145484D01*
X7338158Y-13383579D02*
X7328634Y-13374055D01*
X7328634Y-13374055D02*
X7309586Y-13345484D01*
X7309586Y-13345484D02*
X7300063Y-13326436D01*
X7300063Y-13326436D02*
X7290539Y-13297865D01*
X7290539Y-13297865D02*
X7281015Y-13250246D01*
X7281015Y-13250246D02*
X7281015Y-13212151D01*
X7281015Y-13212151D02*
X7290539Y-13164532D01*
X7290539Y-13164532D02*
X7300063Y-13135960D01*
X7300063Y-13135960D02*
X7309586Y-13116913D01*
X7309586Y-13116913D02*
X7328634Y-13088341D01*
X7328634Y-13088341D02*
X7338158Y-13078817D01*
X7500063Y-13107389D02*
X7461967Y-13107389D01*
X7461967Y-13107389D02*
X7442920Y-13116913D01*
X7442920Y-13116913D02*
X7433396Y-13126436D01*
X7433396Y-13126436D02*
X7414348Y-13155008D01*
X7414348Y-13155008D02*
X7404824Y-13193103D01*
X7404824Y-13193103D02*
X7404824Y-13269293D01*
X7404824Y-13269293D02*
X7414348Y-13288341D01*
X7414348Y-13288341D02*
X7423872Y-13297865D01*
X7423872Y-13297865D02*
X7442920Y-13307389D01*
X7442920Y-13307389D02*
X7481015Y-13307389D01*
X7481015Y-13307389D02*
X7500063Y-13297865D01*
X7500063Y-13297865D02*
X7509586Y-13288341D01*
X7509586Y-13288341D02*
X7519110Y-13269293D01*
X7519110Y-13269293D02*
X7519110Y-13221674D01*
X7519110Y-13221674D02*
X7509586Y-13202627D01*
X7509586Y-13202627D02*
X7500063Y-13193103D01*
X7500063Y-13193103D02*
X7481015Y-13183579D01*
X7481015Y-13183579D02*
X7442920Y-13183579D01*
X7442920Y-13183579D02*
X7423872Y-13193103D01*
X7423872Y-13193103D02*
X7414348Y-13202627D01*
X7414348Y-13202627D02*
X7404824Y-13221674D01*
X7757205Y-13307389D02*
X7757205Y-13107389D01*
X7842920Y-13307389D02*
X7842920Y-13202627D01*
X7842920Y-13202627D02*
X7833396Y-13183579D01*
X7833396Y-13183579D02*
X7814348Y-13174055D01*
X7814348Y-13174055D02*
X7785777Y-13174055D01*
X7785777Y-13174055D02*
X7766729Y-13183579D01*
X7766729Y-13183579D02*
X7757205Y-13193103D01*
X7966729Y-13307389D02*
X7947682Y-13297865D01*
X7947682Y-13297865D02*
X7938158Y-13288341D01*
X7938158Y-13288341D02*
X7928634Y-13269293D01*
X7928634Y-13269293D02*
X7928634Y-13212151D01*
X7928634Y-13212151D02*
X7938158Y-13193103D01*
X7938158Y-13193103D02*
X7947682Y-13183579D01*
X7947682Y-13183579D02*
X7966729Y-13174055D01*
X7966729Y-13174055D02*
X7995301Y-13174055D01*
X7995301Y-13174055D02*
X8014348Y-13183579D01*
X8014348Y-13183579D02*
X8023872Y-13193103D01*
X8023872Y-13193103D02*
X8033396Y-13212151D01*
X8033396Y-13212151D02*
X8033396Y-13269293D01*
X8033396Y-13269293D02*
X8023872Y-13288341D01*
X8023872Y-13288341D02*
X8014348Y-13297865D01*
X8014348Y-13297865D02*
X7995301Y-13307389D01*
X7995301Y-13307389D02*
X7966729Y-13307389D01*
X8147682Y-13307389D02*
X8128634Y-13297865D01*
X8128634Y-13297865D02*
X8119110Y-13278817D01*
X8119110Y-13278817D02*
X8119110Y-13107389D01*
X8300063Y-13297865D02*
X8281015Y-13307389D01*
X8281015Y-13307389D02*
X8242920Y-13307389D01*
X8242920Y-13307389D02*
X8223872Y-13297865D01*
X8223872Y-13297865D02*
X8214348Y-13278817D01*
X8214348Y-13278817D02*
X8214348Y-13202627D01*
X8214348Y-13202627D02*
X8223872Y-13183579D01*
X8223872Y-13183579D02*
X8242920Y-13174055D01*
X8242920Y-13174055D02*
X8281015Y-13174055D01*
X8281015Y-13174055D02*
X8300063Y-13183579D01*
X8300063Y-13183579D02*
X8309586Y-13202627D01*
X8309586Y-13202627D02*
X8309586Y-13221674D01*
X8309586Y-13221674D02*
X8214348Y-13240722D01*
X8385777Y-13297865D02*
X8404825Y-13307389D01*
X8404825Y-13307389D02*
X8442920Y-13307389D01*
X8442920Y-13307389D02*
X8461968Y-13297865D01*
X8461968Y-13297865D02*
X8471491Y-13278817D01*
X8471491Y-13278817D02*
X8471491Y-13269293D01*
X8471491Y-13269293D02*
X8461968Y-13250246D01*
X8461968Y-13250246D02*
X8442920Y-13240722D01*
X8442920Y-13240722D02*
X8414348Y-13240722D01*
X8414348Y-13240722D02*
X8395301Y-13231198D01*
X8395301Y-13231198D02*
X8385777Y-13212151D01*
X8385777Y-13212151D02*
X8385777Y-13202627D01*
X8385777Y-13202627D02*
X8395301Y-13183579D01*
X8395301Y-13183579D02*
X8414348Y-13174055D01*
X8414348Y-13174055D02*
X8442920Y-13174055D01*
X8442920Y-13174055D02*
X8461968Y-13183579D01*
X8538158Y-13383579D02*
X8547682Y-13374055D01*
X8547682Y-13374055D02*
X8566729Y-13345484D01*
X8566729Y-13345484D02*
X8576253Y-13326436D01*
X8576253Y-13326436D02*
X8585777Y-13297865D01*
X8585777Y-13297865D02*
X8595301Y-13250246D01*
X8595301Y-13250246D02*
X8595301Y-13212151D01*
X8595301Y-13212151D02*
X8585777Y-13164532D01*
X8585777Y-13164532D02*
X8576253Y-13135960D01*
X8576253Y-13135960D02*
X8566729Y-13116913D01*
X8566729Y-13116913D02*
X8547682Y-13088341D01*
X8547682Y-13088341D02*
X8538158Y-13078817D01*
X3563095Y-13395905D02*
X3763095Y-13595905D01*
X3763095Y-13395905D02*
X3563095Y-13595905D01*
X3733806Y-13566616D02*
X3733806Y-13425194D01*
X3592384Y-13425194D01*
X3592384Y-13566616D01*
X3733806Y-13566616D01*
X4014348Y-13406436D02*
X4023872Y-13396913D01*
X4023872Y-13396913D02*
X4042919Y-13387389D01*
X4042919Y-13387389D02*
X4090538Y-13387389D01*
X4090538Y-13387389D02*
X4109586Y-13396913D01*
X4109586Y-13396913D02*
X4119110Y-13406436D01*
X4119110Y-13406436D02*
X4128634Y-13425484D01*
X4128634Y-13425484D02*
X4128634Y-13444532D01*
X4128634Y-13444532D02*
X4119110Y-13473103D01*
X4119110Y-13473103D02*
X4004824Y-13587389D01*
X4004824Y-13587389D02*
X4128634Y-13587389D01*
X4214348Y-13568341D02*
X4223872Y-13577865D01*
X4223872Y-13577865D02*
X4214348Y-13587389D01*
X4214348Y-13587389D02*
X4204824Y-13577865D01*
X4204824Y-13577865D02*
X4214348Y-13568341D01*
X4214348Y-13568341D02*
X4214348Y-13587389D01*
X4347681Y-13387389D02*
X4366729Y-13387389D01*
X4366729Y-13387389D02*
X4385777Y-13396913D01*
X4385777Y-13396913D02*
X4395300Y-13406436D01*
X4395300Y-13406436D02*
X4404824Y-13425484D01*
X4404824Y-13425484D02*
X4414348Y-13463579D01*
X4414348Y-13463579D02*
X4414348Y-13511198D01*
X4414348Y-13511198D02*
X4404824Y-13549293D01*
X4404824Y-13549293D02*
X4395300Y-13568341D01*
X4395300Y-13568341D02*
X4385777Y-13577865D01*
X4385777Y-13577865D02*
X4366729Y-13587389D01*
X4366729Y-13587389D02*
X4347681Y-13587389D01*
X4347681Y-13587389D02*
X4328634Y-13577865D01*
X4328634Y-13577865D02*
X4319110Y-13568341D01*
X4319110Y-13568341D02*
X4309586Y-13549293D01*
X4309586Y-13549293D02*
X4300062Y-13511198D01*
X4300062Y-13511198D02*
X4300062Y-13463579D01*
X4300062Y-13463579D02*
X4309586Y-13425484D01*
X4309586Y-13425484D02*
X4319110Y-13406436D01*
X4319110Y-13406436D02*
X4328634Y-13396913D01*
X4328634Y-13396913D02*
X4347681Y-13387389D01*
X4538158Y-13387389D02*
X4557205Y-13387389D01*
X4557205Y-13387389D02*
X4576253Y-13396913D01*
X4576253Y-13396913D02*
X4585777Y-13406436D01*
X4585777Y-13406436D02*
X4595300Y-13425484D01*
X4595300Y-13425484D02*
X4604824Y-13463579D01*
X4604824Y-13463579D02*
X4604824Y-13511198D01*
X4604824Y-13511198D02*
X4595300Y-13549293D01*
X4595300Y-13549293D02*
X4585777Y-13568341D01*
X4585777Y-13568341D02*
X4576253Y-13577865D01*
X4576253Y-13577865D02*
X4557205Y-13587389D01*
X4557205Y-13587389D02*
X4538158Y-13587389D01*
X4538158Y-13587389D02*
X4519110Y-13577865D01*
X4519110Y-13577865D02*
X4509586Y-13568341D01*
X4509586Y-13568341D02*
X4500062Y-13549293D01*
X4500062Y-13549293D02*
X4490539Y-13511198D01*
X4490539Y-13511198D02*
X4490539Y-13463579D01*
X4490539Y-13463579D02*
X4500062Y-13425484D01*
X4500062Y-13425484D02*
X4509586Y-13406436D01*
X4509586Y-13406436D02*
X4519110Y-13396913D01*
X4519110Y-13396913D02*
X4538158Y-13387389D01*
X4728634Y-13387389D02*
X4747681Y-13387389D01*
X4747681Y-13387389D02*
X4766729Y-13396913D01*
X4766729Y-13396913D02*
X4776253Y-13406436D01*
X4776253Y-13406436D02*
X4785777Y-13425484D01*
X4785777Y-13425484D02*
X4795300Y-13463579D01*
X4795300Y-13463579D02*
X4795300Y-13511198D01*
X4795300Y-13511198D02*
X4785777Y-13549293D01*
X4785777Y-13549293D02*
X4776253Y-13568341D01*
X4776253Y-13568341D02*
X4766729Y-13577865D01*
X4766729Y-13577865D02*
X4747681Y-13587389D01*
X4747681Y-13587389D02*
X4728634Y-13587389D01*
X4728634Y-13587389D02*
X4709586Y-13577865D01*
X4709586Y-13577865D02*
X4700062Y-13568341D01*
X4700062Y-13568341D02*
X4690539Y-13549293D01*
X4690539Y-13549293D02*
X4681015Y-13511198D01*
X4681015Y-13511198D02*
X4681015Y-13463579D01*
X4681015Y-13463579D02*
X4690539Y-13425484D01*
X4690539Y-13425484D02*
X4700062Y-13406436D01*
X4700062Y-13406436D02*
X4709586Y-13396913D01*
X4709586Y-13396913D02*
X4728634Y-13387389D01*
X4881015Y-13587389D02*
X4881015Y-13454055D01*
X4881015Y-13473103D02*
X4890539Y-13463579D01*
X4890539Y-13463579D02*
X4909586Y-13454055D01*
X4909586Y-13454055D02*
X4938158Y-13454055D01*
X4938158Y-13454055D02*
X4957205Y-13463579D01*
X4957205Y-13463579D02*
X4966729Y-13482627D01*
X4966729Y-13482627D02*
X4966729Y-13587389D01*
X4966729Y-13482627D02*
X4976253Y-13463579D01*
X4976253Y-13463579D02*
X4995300Y-13454055D01*
X4995300Y-13454055D02*
X5023872Y-13454055D01*
X5023872Y-13454055D02*
X5042920Y-13463579D01*
X5042920Y-13463579D02*
X5052443Y-13482627D01*
X5052443Y-13482627D02*
X5052443Y-13587389D01*
X5147681Y-13587389D02*
X5147681Y-13454055D01*
X5147681Y-13473103D02*
X5157205Y-13463579D01*
X5157205Y-13463579D02*
X5176253Y-13454055D01*
X5176253Y-13454055D02*
X5204824Y-13454055D01*
X5204824Y-13454055D02*
X5223872Y-13463579D01*
X5223872Y-13463579D02*
X5233396Y-13482627D01*
X5233396Y-13482627D02*
X5233396Y-13587389D01*
X5233396Y-13482627D02*
X5242920Y-13463579D01*
X5242920Y-13463579D02*
X5261967Y-13454055D01*
X5261967Y-13454055D02*
X5290539Y-13454055D01*
X5290539Y-13454055D02*
X5309586Y-13463579D01*
X5309586Y-13463579D02*
X5319110Y-13482627D01*
X5319110Y-13482627D02*
X5319110Y-13587389D01*
X5709586Y-13377865D02*
X5538158Y-13635008D01*
X5966729Y-13387389D02*
X5985777Y-13387389D01*
X5985777Y-13387389D02*
X6004824Y-13396913D01*
X6004824Y-13396913D02*
X6014348Y-13406436D01*
X6014348Y-13406436D02*
X6023872Y-13425484D01*
X6023872Y-13425484D02*
X6033396Y-13463579D01*
X6033396Y-13463579D02*
X6033396Y-13511198D01*
X6033396Y-13511198D02*
X6023872Y-13549293D01*
X6023872Y-13549293D02*
X6014348Y-13568341D01*
X6014348Y-13568341D02*
X6004824Y-13577865D01*
X6004824Y-13577865D02*
X5985777Y-13587389D01*
X5985777Y-13587389D02*
X5966729Y-13587389D01*
X5966729Y-13587389D02*
X5947681Y-13577865D01*
X5947681Y-13577865D02*
X5938158Y-13568341D01*
X5938158Y-13568341D02*
X5928634Y-13549293D01*
X5928634Y-13549293D02*
X5919110Y-13511198D01*
X5919110Y-13511198D02*
X5919110Y-13463579D01*
X5919110Y-13463579D02*
X5928634Y-13425484D01*
X5928634Y-13425484D02*
X5938158Y-13406436D01*
X5938158Y-13406436D02*
X5947681Y-13396913D01*
X5947681Y-13396913D02*
X5966729Y-13387389D01*
X6119110Y-13568341D02*
X6128634Y-13577865D01*
X6128634Y-13577865D02*
X6119110Y-13587389D01*
X6119110Y-13587389D02*
X6109586Y-13577865D01*
X6109586Y-13577865D02*
X6119110Y-13568341D01*
X6119110Y-13568341D02*
X6119110Y-13587389D01*
X6252443Y-13387389D02*
X6271491Y-13387389D01*
X6271491Y-13387389D02*
X6290539Y-13396913D01*
X6290539Y-13396913D02*
X6300062Y-13406436D01*
X6300062Y-13406436D02*
X6309586Y-13425484D01*
X6309586Y-13425484D02*
X6319110Y-13463579D01*
X6319110Y-13463579D02*
X6319110Y-13511198D01*
X6319110Y-13511198D02*
X6309586Y-13549293D01*
X6309586Y-13549293D02*
X6300062Y-13568341D01*
X6300062Y-13568341D02*
X6290539Y-13577865D01*
X6290539Y-13577865D02*
X6271491Y-13587389D01*
X6271491Y-13587389D02*
X6252443Y-13587389D01*
X6252443Y-13587389D02*
X6233396Y-13577865D01*
X6233396Y-13577865D02*
X6223872Y-13568341D01*
X6223872Y-13568341D02*
X6214348Y-13549293D01*
X6214348Y-13549293D02*
X6204824Y-13511198D01*
X6204824Y-13511198D02*
X6204824Y-13463579D01*
X6204824Y-13463579D02*
X6214348Y-13425484D01*
X6214348Y-13425484D02*
X6223872Y-13406436D01*
X6223872Y-13406436D02*
X6233396Y-13396913D01*
X6233396Y-13396913D02*
X6252443Y-13387389D01*
X6385777Y-13387389D02*
X6519110Y-13387389D01*
X6519110Y-13387389D02*
X6433396Y-13587389D01*
X6623872Y-13473103D02*
X6604824Y-13463579D01*
X6604824Y-13463579D02*
X6595301Y-13454055D01*
X6595301Y-13454055D02*
X6585777Y-13435008D01*
X6585777Y-13435008D02*
X6585777Y-13425484D01*
X6585777Y-13425484D02*
X6595301Y-13406436D01*
X6595301Y-13406436D02*
X6604824Y-13396913D01*
X6604824Y-13396913D02*
X6623872Y-13387389D01*
X6623872Y-13387389D02*
X6661967Y-13387389D01*
X6661967Y-13387389D02*
X6681015Y-13396913D01*
X6681015Y-13396913D02*
X6690539Y-13406436D01*
X6690539Y-13406436D02*
X6700062Y-13425484D01*
X6700062Y-13425484D02*
X6700062Y-13435008D01*
X6700062Y-13435008D02*
X6690539Y-13454055D01*
X6690539Y-13454055D02*
X6681015Y-13463579D01*
X6681015Y-13463579D02*
X6661967Y-13473103D01*
X6661967Y-13473103D02*
X6623872Y-13473103D01*
X6623872Y-13473103D02*
X6604824Y-13482627D01*
X6604824Y-13482627D02*
X6595301Y-13492151D01*
X6595301Y-13492151D02*
X6585777Y-13511198D01*
X6585777Y-13511198D02*
X6585777Y-13549293D01*
X6585777Y-13549293D02*
X6595301Y-13568341D01*
X6595301Y-13568341D02*
X6604824Y-13577865D01*
X6604824Y-13577865D02*
X6623872Y-13587389D01*
X6623872Y-13587389D02*
X6661967Y-13587389D01*
X6661967Y-13587389D02*
X6681015Y-13577865D01*
X6681015Y-13577865D02*
X6690539Y-13568341D01*
X6690539Y-13568341D02*
X6700062Y-13549293D01*
X6700062Y-13549293D02*
X6700062Y-13511198D01*
X6700062Y-13511198D02*
X6690539Y-13492151D01*
X6690539Y-13492151D02*
X6681015Y-13482627D01*
X6681015Y-13482627D02*
X6661967Y-13473103D01*
X6766729Y-13387389D02*
X6900062Y-13387389D01*
X6900062Y-13387389D02*
X6814348Y-13587389D01*
X6966729Y-13387389D02*
X6966729Y-13425484D01*
X7042920Y-13387389D02*
X7042920Y-13425484D01*
X7338158Y-13663579D02*
X7328634Y-13654055D01*
X7328634Y-13654055D02*
X7309586Y-13625484D01*
X7309586Y-13625484D02*
X7300063Y-13606436D01*
X7300063Y-13606436D02*
X7290539Y-13577865D01*
X7290539Y-13577865D02*
X7281015Y-13530246D01*
X7281015Y-13530246D02*
X7281015Y-13492151D01*
X7281015Y-13492151D02*
X7290539Y-13444532D01*
X7290539Y-13444532D02*
X7300063Y-13415960D01*
X7300063Y-13415960D02*
X7309586Y-13396913D01*
X7309586Y-13396913D02*
X7328634Y-13368341D01*
X7328634Y-13368341D02*
X7338158Y-13358817D01*
X7519110Y-13587389D02*
X7404824Y-13587389D01*
X7461967Y-13587389D02*
X7461967Y-13387389D01*
X7461967Y-13387389D02*
X7442920Y-13415960D01*
X7442920Y-13415960D02*
X7423872Y-13435008D01*
X7423872Y-13435008D02*
X7404824Y-13444532D01*
X7585777Y-13387389D02*
X7709586Y-13387389D01*
X7709586Y-13387389D02*
X7642920Y-13463579D01*
X7642920Y-13463579D02*
X7671491Y-13463579D01*
X7671491Y-13463579D02*
X7690539Y-13473103D01*
X7690539Y-13473103D02*
X7700063Y-13482627D01*
X7700063Y-13482627D02*
X7709586Y-13501674D01*
X7709586Y-13501674D02*
X7709586Y-13549293D01*
X7709586Y-13549293D02*
X7700063Y-13568341D01*
X7700063Y-13568341D02*
X7690539Y-13577865D01*
X7690539Y-13577865D02*
X7671491Y-13587389D01*
X7671491Y-13587389D02*
X7614348Y-13587389D01*
X7614348Y-13587389D02*
X7595301Y-13577865D01*
X7595301Y-13577865D02*
X7585777Y-13568341D01*
X7947682Y-13587389D02*
X7947682Y-13387389D01*
X8033396Y-13587389D02*
X8033396Y-13482627D01*
X8033396Y-13482627D02*
X8023872Y-13463579D01*
X8023872Y-13463579D02*
X8004825Y-13454055D01*
X8004825Y-13454055D02*
X7976253Y-13454055D01*
X7976253Y-13454055D02*
X7957205Y-13463579D01*
X7957205Y-13463579D02*
X7947682Y-13473103D01*
X8157205Y-13587389D02*
X8138158Y-13577865D01*
X8138158Y-13577865D02*
X8128634Y-13568341D01*
X8128634Y-13568341D02*
X8119110Y-13549293D01*
X8119110Y-13549293D02*
X8119110Y-13492151D01*
X8119110Y-13492151D02*
X8128634Y-13473103D01*
X8128634Y-13473103D02*
X8138158Y-13463579D01*
X8138158Y-13463579D02*
X8157205Y-13454055D01*
X8157205Y-13454055D02*
X8185777Y-13454055D01*
X8185777Y-13454055D02*
X8204825Y-13463579D01*
X8204825Y-13463579D02*
X8214348Y-13473103D01*
X8214348Y-13473103D02*
X8223872Y-13492151D01*
X8223872Y-13492151D02*
X8223872Y-13549293D01*
X8223872Y-13549293D02*
X8214348Y-13568341D01*
X8214348Y-13568341D02*
X8204825Y-13577865D01*
X8204825Y-13577865D02*
X8185777Y-13587389D01*
X8185777Y-13587389D02*
X8157205Y-13587389D01*
X8338158Y-13587389D02*
X8319110Y-13577865D01*
X8319110Y-13577865D02*
X8309586Y-13558817D01*
X8309586Y-13558817D02*
X8309586Y-13387389D01*
X8490539Y-13577865D02*
X8471491Y-13587389D01*
X8471491Y-13587389D02*
X8433396Y-13587389D01*
X8433396Y-13587389D02*
X8414348Y-13577865D01*
X8414348Y-13577865D02*
X8404825Y-13558817D01*
X8404825Y-13558817D02*
X8404825Y-13482627D01*
X8404825Y-13482627D02*
X8414348Y-13463579D01*
X8414348Y-13463579D02*
X8433396Y-13454055D01*
X8433396Y-13454055D02*
X8471491Y-13454055D01*
X8471491Y-13454055D02*
X8490539Y-13463579D01*
X8490539Y-13463579D02*
X8500063Y-13482627D01*
X8500063Y-13482627D02*
X8500063Y-13501674D01*
X8500063Y-13501674D02*
X8404825Y-13520722D01*
X8576253Y-13577865D02*
X8595301Y-13587389D01*
X8595301Y-13587389D02*
X8633396Y-13587389D01*
X8633396Y-13587389D02*
X8652444Y-13577865D01*
X8652444Y-13577865D02*
X8661968Y-13558817D01*
X8661968Y-13558817D02*
X8661968Y-13549293D01*
X8661968Y-13549293D02*
X8652444Y-13530246D01*
X8652444Y-13530246D02*
X8633396Y-13520722D01*
X8633396Y-13520722D02*
X8604825Y-13520722D01*
X8604825Y-13520722D02*
X8585777Y-13511198D01*
X8585777Y-13511198D02*
X8576253Y-13492151D01*
X8576253Y-13492151D02*
X8576253Y-13482627D01*
X8576253Y-13482627D02*
X8585777Y-13463579D01*
X8585777Y-13463579D02*
X8604825Y-13454055D01*
X8604825Y-13454055D02*
X8633396Y-13454055D01*
X8633396Y-13454055D02*
X8652444Y-13463579D01*
X8728634Y-13663579D02*
X8738158Y-13654055D01*
X8738158Y-13654055D02*
X8757206Y-13625484D01*
X8757206Y-13625484D02*
X8766729Y-13606436D01*
X8766729Y-13606436D02*
X8776253Y-13577865D01*
X8776253Y-13577865D02*
X8785777Y-13530246D01*
X8785777Y-13530246D02*
X8785777Y-13492151D01*
X8785777Y-13492151D02*
X8776253Y-13444532D01*
X8776253Y-13444532D02*
X8766729Y-13415960D01*
X8766729Y-13415960D02*
X8757206Y-13396913D01*
X8757206Y-13396913D02*
X8738158Y-13368341D01*
X8738158Y-13368341D02*
X8728634Y-13358817D01*
M02*
