G04 #@! TF.GenerationSoftware,KiCad,Pcbnew,9.0.1*
G04 #@! TF.CreationDate,2025-06-25T22:10:30+03:00*
G04 #@! TF.ProjectId,pcb_no_div,7063625f-6e6f-45f6-9469-762e6b696361,rev?*
G04 #@! TF.SameCoordinates,Original*
G04 #@! TF.FileFunction,Copper,L2,Bot*
G04 #@! TF.FilePolarity,Positive*
%FSLAX46Y46*%
G04 Gerber Fmt 4.6, Leading zero omitted, Abs format (unit mm)*
G04 Created by KiCad (PCBNEW 9.0.1) date 2025-06-25 22:10:30*
%MOMM*%
%LPD*%
G01*
G04 APERTURE LIST*
G04 #@! TA.AperFunction,ComponentPad*
%ADD10C,1.600000*%
G04 #@! TD*
G04 #@! TA.AperFunction,ComponentPad*
%ADD11O,1.600000X1.600000*%
G04 #@! TD*
G04 #@! TA.AperFunction,ComponentPad*
%ADD12R,1.600000X1.600000*%
G04 #@! TD*
G04 #@! TA.AperFunction,ComponentPad*
%ADD13R,1.000000X1.000000*%
G04 #@! TD*
G04 #@! TA.AperFunction,ComponentPad*
%ADD14R,1.100000X1.100000*%
G04 #@! TD*
G04 #@! TA.AperFunction,ComponentPad*
%ADD15C,1.100000*%
G04 #@! TD*
G04 #@! TA.AperFunction,ComponentPad*
%ADD16C,4.000000*%
G04 #@! TD*
G04 #@! TA.AperFunction,ComponentPad*
%ADD17O,2.000000X1.905000*%
G04 #@! TD*
G04 #@! TA.AperFunction,ComponentPad*
%ADD18R,2.000000X1.905000*%
G04 #@! TD*
G04 #@! TA.AperFunction,ComponentPad*
%ADD19C,1.440000*%
G04 #@! TD*
G04 #@! TA.AperFunction,WasherPad*
%ADD20C,6.000000*%
G04 #@! TD*
G04 #@! TA.AperFunction,ComponentPad*
%ADD21R,1.160000X1.160000*%
G04 #@! TD*
G04 #@! TA.AperFunction,ComponentPad*
%ADD22C,1.160000*%
G04 #@! TD*
G04 #@! TA.AperFunction,ComponentPad*
%ADD23R,3.200000X3.200000*%
G04 #@! TD*
G04 #@! TA.AperFunction,ComponentPad*
%ADD24O,3.200000X3.200000*%
G04 #@! TD*
G04 #@! TA.AperFunction,ViaPad*
%ADD25C,0.600000*%
G04 #@! TD*
G04 #@! TA.AperFunction,Conductor*
%ADD26C,0.500000*%
G04 #@! TD*
G04 #@! TA.AperFunction,Conductor*
%ADD27C,2.000000*%
G04 #@! TD*
G04 #@! TA.AperFunction,Conductor*
%ADD28C,0.127000*%
G04 #@! TD*
G04 APERTURE END LIST*
D10*
X49950000Y-73250000D03*
D11*
X49950000Y-83410000D03*
D12*
X65100000Y-50600000D03*
D11*
X65100000Y-42980000D03*
D13*
X105450000Y-97200000D03*
D10*
X80740000Y-58500000D03*
D11*
X88360000Y-58500000D03*
D14*
X71250000Y-50600000D03*
D15*
X73250000Y-50600000D03*
D12*
X65050000Y-89540000D03*
D11*
X65050000Y-97160000D03*
D16*
X125950000Y-49700000D03*
D13*
X104850000Y-42500000D03*
X84550000Y-77100000D03*
D16*
X116700000Y-97200000D03*
D14*
X71250000Y-89540000D03*
D15*
X73250000Y-89540000D03*
D16*
X125850000Y-64650000D03*
D13*
X74750000Y-63000000D03*
D10*
X65050000Y-73250000D03*
D11*
X65050000Y-85950000D03*
D16*
X116800000Y-42500000D03*
X116900000Y-59600000D03*
X113600000Y-72500000D03*
D14*
X54150000Y-89540000D03*
D15*
X56150000Y-89540000D03*
D13*
X85450000Y-86600000D03*
X78150000Y-62900000D03*
D17*
X105540000Y-49800000D03*
D18*
X105540000Y-52340000D03*
D17*
X105540000Y-47260000D03*
D16*
X125850000Y-97200000D03*
D10*
X70340000Y-58500000D03*
D11*
X77960000Y-58500000D03*
D13*
X84050000Y-63000000D03*
D19*
X56250000Y-66890000D03*
X56250000Y-64350000D03*
X56250000Y-61810000D03*
D16*
X108100000Y-104800000D03*
D19*
X56250000Y-73250000D03*
X56250000Y-75790000D03*
X56250000Y-78330000D03*
D20*
X45750000Y-104900000D03*
D21*
X85360000Y-43000000D03*
D22*
X82820000Y-43000000D03*
X80280000Y-43000000D03*
X77740000Y-43000000D03*
X77740000Y-50620000D03*
X80280000Y-50620000D03*
X82820000Y-50620000D03*
X85360000Y-50620000D03*
D16*
X125950000Y-42500000D03*
X116800000Y-49700000D03*
D23*
X95750000Y-62900000D03*
D24*
X95750000Y-42900000D03*
D10*
X49950000Y-66890000D03*
D11*
X49950000Y-56730000D03*
D20*
X122750000Y-34900000D03*
D12*
X49950000Y-89540000D03*
D11*
X49950000Y-97160000D03*
D17*
X105540000Y-89100000D03*
D18*
X105540000Y-91640000D03*
D17*
X105540000Y-86560000D03*
D16*
X125850000Y-87200000D03*
D10*
X70340000Y-82000000D03*
D11*
X77960000Y-82000000D03*
D13*
X77750000Y-86600000D03*
D23*
X94150000Y-79100000D03*
D24*
X94150000Y-99100000D03*
D14*
X54150000Y-50600000D03*
D15*
X56150000Y-50600000D03*
D20*
X45750000Y-34900000D03*
D16*
X125850000Y-73150000D03*
D10*
X80340000Y-82000000D03*
D11*
X87960000Y-82000000D03*
D23*
X105150000Y-70200000D03*
D24*
X85150000Y-70200000D03*
D13*
X82850000Y-86600000D03*
D12*
X49950000Y-50600000D03*
D11*
X49950000Y-42980000D03*
D13*
X70350000Y-63000000D03*
D20*
X122750000Y-104900000D03*
D16*
X116700000Y-87200000D03*
D10*
X65100000Y-66890000D03*
D11*
X65100000Y-54190000D03*
D21*
X77740000Y-97100000D03*
D22*
X80280000Y-97100000D03*
X82820000Y-97100000D03*
X85360000Y-97100000D03*
X85360000Y-89480000D03*
X82820000Y-89480000D03*
X80280000Y-89480000D03*
X77740000Y-89480000D03*
D25*
X46100000Y-74700000D03*
X120600000Y-69500000D03*
X51250000Y-70000000D03*
X75850000Y-77000000D03*
X108800000Y-37200000D03*
X82800000Y-100150000D03*
X81300000Y-32750000D03*
X45800000Y-40200000D03*
X76700000Y-70000000D03*
X46100000Y-79800000D03*
X81800000Y-70000000D03*
X71100000Y-102350000D03*
X91100000Y-37900000D03*
X46150000Y-54700000D03*
X55200000Y-33100000D03*
X52500000Y-103500000D03*
X60900000Y-102350000D03*
X76600000Y-54200000D03*
X66000000Y-32750000D03*
X55000000Y-37900000D03*
X86000000Y-107500000D03*
X66000000Y-102350000D03*
X71650000Y-70000000D03*
X70650000Y-77400000D03*
X105450000Y-76300000D03*
X86000000Y-102400000D03*
X92250000Y-83200000D03*
X101350000Y-67400000D03*
X93050000Y-60050000D03*
X88650000Y-42000000D03*
X112900000Y-54400000D03*
X56250000Y-107400000D03*
X121000000Y-90800000D03*
X80900000Y-102400000D03*
X67550000Y-100150000D03*
X56550000Y-83000000D03*
X41000000Y-93700000D03*
X71900000Y-65550000D03*
X56350000Y-54700000D03*
X60900000Y-107450000D03*
X99900000Y-102400000D03*
X56250000Y-102300000D03*
X89800000Y-55750000D03*
X76200000Y-107450000D03*
X87750000Y-78600000D03*
X113300000Y-107500000D03*
X81800000Y-73300000D03*
X41000000Y-74700000D03*
X51250000Y-54700000D03*
X87900000Y-100150000D03*
X123000000Y-53400000D03*
X76200000Y-32750000D03*
X120400000Y-79900000D03*
X46150000Y-64900000D03*
X91100000Y-32800000D03*
X66550000Y-70000000D03*
X71100000Y-32750000D03*
X123700000Y-68100000D03*
X91100000Y-102400000D03*
X122700000Y-56400000D03*
X88150000Y-95950000D03*
X86000000Y-37900000D03*
X71900000Y-55350000D03*
X116500000Y-76900000D03*
X77750000Y-100150000D03*
X123100000Y-92100000D03*
X61950000Y-75350000D03*
X48400000Y-100050000D03*
X121500000Y-61600000D03*
X73950000Y-86100000D03*
X108800000Y-32600000D03*
X52000000Y-33000000D03*
X89450000Y-60950000D03*
X114800000Y-101300000D03*
X45700000Y-96300000D03*
X66000000Y-107450000D03*
X41050000Y-70000000D03*
X88500000Y-48550000D03*
X56350000Y-70000000D03*
X92200000Y-88150000D03*
X61850000Y-90950000D03*
X52850000Y-85350000D03*
X110600000Y-58100000D03*
X106300000Y-82200000D03*
X61450000Y-70000000D03*
X76950000Y-73050000D03*
X46150000Y-70000000D03*
X119700000Y-100700000D03*
X46150000Y-59800000D03*
X100050000Y-83400000D03*
X46100000Y-93700000D03*
X52700000Y-107200000D03*
X71900000Y-60450000D03*
X116500000Y-106800000D03*
X98050000Y-87700000D03*
X91100000Y-107500000D03*
X125600000Y-90900000D03*
X41200000Y-99300000D03*
X96200000Y-102400000D03*
X92000000Y-70000000D03*
X51850000Y-64900000D03*
X41100000Y-95900000D03*
X71650000Y-73050000D03*
X105800000Y-55800000D03*
X121500000Y-59300000D03*
X101300000Y-32800000D03*
X96200000Y-37900000D03*
X55900000Y-42700000D03*
X80450000Y-78900000D03*
X61200000Y-79800000D03*
X56350000Y-58900000D03*
X88700000Y-44850000D03*
X61350000Y-37800000D03*
X72800000Y-42550000D03*
X46100000Y-84900000D03*
X105000000Y-32800000D03*
X61350000Y-32700000D03*
X116800000Y-32700000D03*
X99900000Y-107500000D03*
X41050000Y-64900000D03*
X78000000Y-47000000D03*
X45000000Y-99800000D03*
X76200000Y-37850000D03*
X41100000Y-50050000D03*
X96200000Y-32800000D03*
X117300000Y-36000000D03*
X54850000Y-45100000D03*
X86000000Y-32800000D03*
X53500000Y-100050000D03*
X58550000Y-100050000D03*
X115700000Y-103500000D03*
X61450000Y-54700000D03*
X44300000Y-45300000D03*
X113200000Y-104200000D03*
X40900000Y-45900000D03*
X46100000Y-90000000D03*
X51750000Y-59850000D03*
X46200000Y-50050000D03*
X105000000Y-37900000D03*
X61850000Y-85950000D03*
X88700000Y-53350000D03*
X105200000Y-58200000D03*
X41000000Y-79800000D03*
X66000000Y-37850000D03*
X81300000Y-37850000D03*
X80900000Y-107500000D03*
X71100000Y-37850000D03*
X112700000Y-32900000D03*
X110500000Y-52900000D03*
X96200000Y-107500000D03*
X110300000Y-85700000D03*
X51300000Y-38000000D03*
X63650000Y-100050000D03*
X120400000Y-76500000D03*
X69500000Y-42650000D03*
X41050000Y-54700000D03*
X120700000Y-53300000D03*
X116100000Y-80500000D03*
X117900000Y-68600000D03*
X78750000Y-91950000D03*
X108100000Y-60900000D03*
X60200000Y-42700000D03*
X72650000Y-100150000D03*
X113300000Y-37200000D03*
X112300000Y-76800000D03*
X100250000Y-76050000D03*
X76200000Y-102350000D03*
X41050000Y-59800000D03*
X61450000Y-64900000D03*
X41200000Y-41100000D03*
X101300000Y-37900000D03*
X118800000Y-72300000D03*
X71100000Y-107450000D03*
X41000000Y-90000000D03*
X112600000Y-86700000D03*
X61450000Y-59800000D03*
X41000000Y-84900000D03*
X112300000Y-61200000D03*
X80250000Y-54200000D03*
X58550000Y-45600000D03*
X59250000Y-94300000D03*
X88190000Y-91640000D03*
X69850000Y-54800000D03*
X54150000Y-95400000D03*
X70350000Y-86100000D03*
D26*
X49950000Y-66890000D02*
X56250000Y-66890000D01*
D27*
X125850000Y-64650000D02*
X110700000Y-64650000D01*
D26*
X56250000Y-66890000D02*
X65100000Y-66890000D01*
D27*
X125950000Y-49700000D02*
X116800000Y-49700000D01*
X110700000Y-64650000D02*
X105150000Y-70200000D01*
X96150000Y-42500000D02*
X104850000Y-42500000D01*
X104850000Y-42500000D02*
X116800000Y-42500000D01*
X116800000Y-42500000D02*
X109500000Y-49800000D01*
X116800000Y-42500000D02*
X125950000Y-42500000D01*
D28*
X95750000Y-42900000D02*
X96150000Y-42500000D01*
D27*
X109500000Y-49800000D02*
X105540000Y-49800000D01*
X96050000Y-97200000D02*
X94150000Y-99100000D01*
D26*
X94250000Y-99000000D02*
X94150000Y-99100000D01*
D27*
X110800000Y-89100000D02*
X105540000Y-89100000D01*
X116700000Y-94800000D02*
X110900000Y-89000000D01*
X116700000Y-97200000D02*
X116700000Y-94800000D01*
X105450000Y-97200000D02*
X116700000Y-97200000D01*
X110900000Y-89000000D02*
X110800000Y-89100000D01*
X116700000Y-97200000D02*
X125850000Y-97200000D01*
X105450000Y-97200000D02*
X96050000Y-97200000D01*
D26*
X77960000Y-58500000D02*
X80740000Y-58500000D01*
X78250000Y-45000000D02*
X80280000Y-47030000D01*
X80250000Y-54200000D02*
X79000000Y-54200000D01*
X59150000Y-45000000D02*
X78250000Y-45000000D01*
X58550000Y-45600000D02*
X59150000Y-45000000D01*
X79000000Y-54200000D02*
X76250000Y-56950000D01*
X78150000Y-62900000D02*
X76250000Y-61000000D01*
X76250000Y-61000000D02*
X76250000Y-56950000D01*
X80280000Y-47030000D02*
X80280000Y-50620000D01*
X82850000Y-91000000D02*
X82850000Y-89510000D01*
X79750000Y-94100000D02*
X82850000Y-91000000D01*
X59450000Y-94100000D02*
X79750000Y-94100000D01*
X82850000Y-89510000D02*
X82820000Y-89480000D01*
X59250000Y-94300000D02*
X59450000Y-94100000D01*
X77960000Y-82000000D02*
X80340000Y-82000000D01*
X99380000Y-58500000D02*
X105540000Y-52340000D01*
X84050000Y-62810000D02*
X88360000Y-58500000D01*
X84050000Y-63000000D02*
X84050000Y-62810000D01*
X88360000Y-58500000D02*
X99380000Y-58500000D01*
X105540000Y-91640000D02*
X88190000Y-91640000D01*
X77740000Y-49190000D02*
X76550000Y-48000000D01*
X54950000Y-48000000D02*
X54150000Y-48800000D01*
X54150000Y-48800000D02*
X54150000Y-50600000D01*
X49950000Y-50600000D02*
X54150000Y-50600000D01*
X77740000Y-50620000D02*
X77740000Y-49190000D01*
X76550000Y-48000000D02*
X54950000Y-48000000D01*
X69240000Y-54190000D02*
X65100000Y-54190000D01*
X65100000Y-50600000D02*
X71250000Y-50600000D01*
X85360000Y-50620000D02*
X83580000Y-52400000D01*
X83580000Y-52400000D02*
X71850000Y-52400000D01*
X69850000Y-54800000D02*
X69240000Y-54190000D01*
X71250000Y-51800000D02*
X71250000Y-50600000D01*
X71850000Y-52400000D02*
X71250000Y-51800000D01*
X81650000Y-95300000D02*
X85350000Y-91600000D01*
X85350000Y-91600000D02*
X85350000Y-89490000D01*
X85350000Y-89490000D02*
X85360000Y-89480000D01*
X54150000Y-95400000D02*
X54250000Y-95300000D01*
X54250000Y-95300000D02*
X81650000Y-95300000D01*
X54150000Y-89540000D02*
X49950000Y-89540000D01*
X76470000Y-89480000D02*
X74650000Y-91300000D01*
X69150000Y-89640000D02*
X69050000Y-89540000D01*
X77740000Y-89480000D02*
X76470000Y-89480000D01*
X70200000Y-85950000D02*
X65050000Y-85950000D01*
X69150000Y-90400000D02*
X69150000Y-89640000D01*
X70350000Y-86100000D02*
X70200000Y-85950000D01*
X70050000Y-91300000D02*
X69150000Y-90400000D01*
X69050000Y-89540000D02*
X65050000Y-89540000D01*
X74650000Y-91300000D02*
X70050000Y-91300000D01*
X71250000Y-89540000D02*
X69050000Y-89540000D01*
D27*
X125850000Y-87200000D02*
X116700000Y-87200000D01*
X108650000Y-79150000D02*
X106200000Y-79150000D01*
D26*
X56250000Y-73250000D02*
X65050000Y-73250000D01*
D27*
X106150000Y-79100000D02*
X94150000Y-79100000D01*
X116700000Y-87200000D02*
X108650000Y-79150000D01*
D26*
X49950000Y-73250000D02*
X56250000Y-73250000D01*
D27*
X106200000Y-79150000D02*
X106150000Y-79100000D01*
X94200000Y-79150000D02*
X94150000Y-79100000D01*
G04 #@! TA.AperFunction,Conductor*
G36*
X129740973Y-30570185D02*
G01*
X129786728Y-30622989D01*
X129797933Y-30674809D01*
X129603757Y-108199849D01*
X129601062Y-109275811D01*
X129581209Y-109342801D01*
X129528291Y-109388423D01*
X129477062Y-109399500D01*
X38275282Y-109399500D01*
X38208243Y-109379815D01*
X38162488Y-109327011D01*
X38151282Y-109275345D01*
X38153237Y-107715024D01*
X38156978Y-104728031D01*
X42249500Y-104728031D01*
X42249500Y-105071969D01*
X42257535Y-105153554D01*
X42283210Y-105414249D01*
X42350308Y-105751572D01*
X42450150Y-106080706D01*
X42581770Y-106398464D01*
X42581772Y-106398469D01*
X42743893Y-106701775D01*
X42743904Y-106701793D01*
X42934975Y-106987751D01*
X42934985Y-106987765D01*
X43153176Y-107253632D01*
X43396367Y-107496823D01*
X43396372Y-107496827D01*
X43396373Y-107496828D01*
X43662240Y-107715019D01*
X43948213Y-107906100D01*
X43948222Y-107906105D01*
X43948224Y-107906106D01*
X44251530Y-108068227D01*
X44251532Y-108068227D01*
X44251538Y-108068231D01*
X44569295Y-108199850D01*
X44898422Y-108299690D01*
X45235750Y-108366789D01*
X45578031Y-108400500D01*
X45578034Y-108400500D01*
X45921966Y-108400500D01*
X45921969Y-108400500D01*
X46264250Y-108366789D01*
X46601578Y-108299690D01*
X46930705Y-108199850D01*
X47248462Y-108068231D01*
X47551787Y-107906100D01*
X47837760Y-107715019D01*
X48103627Y-107496828D01*
X48346828Y-107253627D01*
X48565019Y-106987760D01*
X48756100Y-106701787D01*
X48918231Y-106398462D01*
X49049850Y-106080705D01*
X49149690Y-105751578D01*
X49216789Y-105414250D01*
X49250500Y-105071969D01*
X49250500Y-104728031D01*
X49243760Y-104659598D01*
X105600000Y-104659598D01*
X105600000Y-104940401D01*
X105631437Y-105219412D01*
X105631439Y-105219424D01*
X105693921Y-105493178D01*
X105693922Y-105493180D01*
X105786662Y-105758217D01*
X105908492Y-106011200D01*
X106057884Y-106248956D01*
X106164187Y-106382257D01*
X107237425Y-105309019D01*
X107323249Y-105437463D01*
X107462537Y-105576751D01*
X107590979Y-105662573D01*
X106517741Y-106735810D01*
X106517741Y-106735811D01*
X106651043Y-106842115D01*
X106888799Y-106991507D01*
X107141782Y-107113337D01*
X107406819Y-107206077D01*
X107406821Y-107206078D01*
X107680575Y-107268560D01*
X107680587Y-107268562D01*
X107959598Y-107299999D01*
X107959600Y-107300000D01*
X108240400Y-107300000D01*
X108240401Y-107299999D01*
X108519412Y-107268562D01*
X108519424Y-107268560D01*
X108793178Y-107206078D01*
X108793180Y-107206077D01*
X109058217Y-107113337D01*
X109311200Y-106991507D01*
X109548956Y-106842116D01*
X109682257Y-106735810D01*
X108609020Y-105662573D01*
X108737463Y-105576751D01*
X108876751Y-105437463D01*
X108962573Y-105309020D01*
X110035810Y-106382257D01*
X110142116Y-106248956D01*
X110291507Y-106011200D01*
X110413337Y-105758217D01*
X110506077Y-105493180D01*
X110506078Y-105493178D01*
X110568560Y-105219424D01*
X110568562Y-105219412D01*
X110599999Y-104940401D01*
X110600000Y-104940399D01*
X110600000Y-104728031D01*
X119249500Y-104728031D01*
X119249500Y-105071969D01*
X119257535Y-105153554D01*
X119283210Y-105414249D01*
X119350308Y-105751572D01*
X119450150Y-106080706D01*
X119581770Y-106398464D01*
X119581772Y-106398469D01*
X119743893Y-106701775D01*
X119743904Y-106701793D01*
X119934975Y-106987751D01*
X119934985Y-106987765D01*
X120153176Y-107253632D01*
X120396367Y-107496823D01*
X120396372Y-107496827D01*
X120396373Y-107496828D01*
X120662240Y-107715019D01*
X120948213Y-107906100D01*
X120948222Y-107906105D01*
X120948224Y-107906106D01*
X121251530Y-108068227D01*
X121251532Y-108068227D01*
X121251538Y-108068231D01*
X121569295Y-108199850D01*
X121898422Y-108299690D01*
X122235750Y-108366789D01*
X122578031Y-108400500D01*
X122578034Y-108400500D01*
X122921966Y-108400500D01*
X122921969Y-108400500D01*
X123264250Y-108366789D01*
X123601578Y-108299690D01*
X123930705Y-108199850D01*
X124248462Y-108068231D01*
X124551787Y-107906100D01*
X124837760Y-107715019D01*
X125103627Y-107496828D01*
X125346828Y-107253627D01*
X125565019Y-106987760D01*
X125756100Y-106701787D01*
X125918231Y-106398462D01*
X126049850Y-106080705D01*
X126149690Y-105751578D01*
X126216789Y-105414250D01*
X126250500Y-105071969D01*
X126250500Y-104728031D01*
X126216789Y-104385750D01*
X126149690Y-104048422D01*
X126049850Y-103719295D01*
X125918231Y-103401538D01*
X125756100Y-103098213D01*
X125565019Y-102812240D01*
X125346828Y-102546373D01*
X125346827Y-102546372D01*
X125346823Y-102546367D01*
X125103632Y-102303176D01*
X124837765Y-102084985D01*
X124837764Y-102084984D01*
X124837760Y-102084981D01*
X124551787Y-101893900D01*
X124551782Y-101893897D01*
X124551775Y-101893893D01*
X124248469Y-101731772D01*
X124248464Y-101731770D01*
X123930706Y-101600150D01*
X123601572Y-101500308D01*
X123264248Y-101433210D01*
X123264249Y-101433210D01*
X123006456Y-101407821D01*
X122921969Y-101399500D01*
X122578031Y-101399500D01*
X122499966Y-101407188D01*
X122235750Y-101433210D01*
X121898427Y-101500308D01*
X121569293Y-101600150D01*
X121251535Y-101731770D01*
X121251530Y-101731772D01*
X120948224Y-101893893D01*
X120948206Y-101893904D01*
X120662248Y-102084975D01*
X120662234Y-102084985D01*
X120396367Y-102303176D01*
X120153176Y-102546367D01*
X119934985Y-102812234D01*
X119934975Y-102812248D01*
X119743904Y-103098206D01*
X119743893Y-103098224D01*
X119581772Y-103401530D01*
X119581770Y-103401535D01*
X119450150Y-103719293D01*
X119350308Y-104048427D01*
X119283210Y-104385750D01*
X119271140Y-104508311D01*
X119249500Y-104728031D01*
X110600000Y-104728031D01*
X110600000Y-104659600D01*
X110599999Y-104659598D01*
X110568562Y-104380587D01*
X110568560Y-104380575D01*
X110506078Y-104106821D01*
X110506077Y-104106819D01*
X110413337Y-103841782D01*
X110291507Y-103588799D01*
X110142115Y-103351043D01*
X110035810Y-103217741D01*
X108962573Y-104290978D01*
X108876751Y-104162537D01*
X108737463Y-104023249D01*
X108609020Y-103937425D01*
X109682257Y-102864187D01*
X109548956Y-102757884D01*
X109311200Y-102608492D01*
X109058217Y-102486662D01*
X108793180Y-102393922D01*
X108793178Y-102393921D01*
X108519424Y-102331439D01*
X108519412Y-102331437D01*
X108240401Y-102300000D01*
X107959598Y-102300000D01*
X107680587Y-102331437D01*
X107680575Y-102331439D01*
X107406821Y-102393921D01*
X107406819Y-102393922D01*
X107141782Y-102486662D01*
X106888799Y-102608492D01*
X106651043Y-102757884D01*
X106517741Y-102864187D01*
X107590979Y-103937425D01*
X107462537Y-104023249D01*
X107323249Y-104162537D01*
X107237426Y-104290979D01*
X106164187Y-103217741D01*
X106057884Y-103351043D01*
X105908492Y-103588799D01*
X105786662Y-103841782D01*
X105693922Y-104106819D01*
X105693921Y-104106821D01*
X105631439Y-104380575D01*
X105631437Y-104380587D01*
X105600000Y-104659598D01*
X49243760Y-104659598D01*
X49216789Y-104385750D01*
X49149690Y-104048422D01*
X49049850Y-103719295D01*
X48918231Y-103401538D01*
X48756100Y-103098213D01*
X48756089Y-103098196D01*
X48678133Y-102981526D01*
X48678132Y-102981525D01*
X48565024Y-102812248D01*
X48565019Y-102812240D01*
X48346828Y-102546373D01*
X48346827Y-102546372D01*
X48346823Y-102546367D01*
X48103632Y-102303176D01*
X47837765Y-102084985D01*
X47837764Y-102084984D01*
X47837760Y-102084981D01*
X47551787Y-101893900D01*
X47551782Y-101893897D01*
X47551775Y-101893893D01*
X47248469Y-101731772D01*
X47248464Y-101731770D01*
X46930706Y-101600150D01*
X46601572Y-101500308D01*
X46264248Y-101433210D01*
X46264249Y-101433210D01*
X46006456Y-101407821D01*
X45921969Y-101399500D01*
X45578031Y-101399500D01*
X45499966Y-101407188D01*
X45235750Y-101433210D01*
X44898427Y-101500308D01*
X44569293Y-101600150D01*
X44251535Y-101731770D01*
X44251530Y-101731772D01*
X43948224Y-101893893D01*
X43948206Y-101893904D01*
X43662248Y-102084975D01*
X43662234Y-102084985D01*
X43396367Y-102303176D01*
X43153176Y-102546367D01*
X42934985Y-102812234D01*
X42934975Y-102812248D01*
X42743904Y-103098206D01*
X42743893Y-103098224D01*
X42581772Y-103401530D01*
X42581770Y-103401535D01*
X42450150Y-103719293D01*
X42350308Y-104048427D01*
X42283210Y-104385750D01*
X42271140Y-104508311D01*
X42249500Y-104728031D01*
X38156978Y-104728031D01*
X38166769Y-96910000D01*
X48673391Y-96910000D01*
X49634314Y-96910000D01*
X49629920Y-96914394D01*
X49577259Y-97005606D01*
X49550000Y-97107339D01*
X49550000Y-97212661D01*
X49577259Y-97314394D01*
X49629920Y-97405606D01*
X49634314Y-97410000D01*
X48673391Y-97410000D01*
X48682009Y-97464413D01*
X48745244Y-97659029D01*
X48838140Y-97841349D01*
X48958417Y-98006894D01*
X48958417Y-98006895D01*
X49103104Y-98151582D01*
X49268650Y-98271859D01*
X49450968Y-98364754D01*
X49645578Y-98427988D01*
X49700000Y-98436607D01*
X49700000Y-97475686D01*
X49704394Y-97480080D01*
X49795606Y-97532741D01*
X49897339Y-97560000D01*
X50002661Y-97560000D01*
X50104394Y-97532741D01*
X50195606Y-97480080D01*
X50200000Y-97475686D01*
X50200000Y-98436606D01*
X50254421Y-98427988D01*
X50449031Y-98364754D01*
X50631349Y-98271859D01*
X50796894Y-98151582D01*
X50796895Y-98151582D01*
X50941582Y-98006895D01*
X50941582Y-98006894D01*
X51061859Y-97841349D01*
X51154755Y-97659029D01*
X51217990Y-97464413D01*
X51226609Y-97410000D01*
X50265686Y-97410000D01*
X50270080Y-97405606D01*
X50322741Y-97314394D01*
X50350000Y-97212661D01*
X50350000Y-97107339D01*
X50322741Y-97005606D01*
X50270080Y-96914394D01*
X50265686Y-96910000D01*
X51226609Y-96910000D01*
X51217990Y-96855586D01*
X51154755Y-96660970D01*
X51061859Y-96478650D01*
X50941582Y-96313105D01*
X50941582Y-96313104D01*
X50796895Y-96168417D01*
X50631349Y-96048140D01*
X50449029Y-95955244D01*
X50254413Y-95892009D01*
X50200000Y-95883390D01*
X50200000Y-96844314D01*
X50195606Y-96839920D01*
X50104394Y-96787259D01*
X50002661Y-96760000D01*
X49897339Y-96760000D01*
X49795606Y-96787259D01*
X49704394Y-96839920D01*
X49700000Y-96844314D01*
X49700000Y-95883390D01*
X49645586Y-95892009D01*
X49450970Y-95955244D01*
X49268650Y-96048140D01*
X49103105Y-96168417D01*
X49103104Y-96168417D01*
X48958417Y-96313104D01*
X48958417Y-96313105D01*
X48838140Y-96478650D01*
X48745244Y-96660970D01*
X48682009Y-96855586D01*
X48673391Y-96910000D01*
X38166769Y-96910000D01*
X38168759Y-95321153D01*
X53349500Y-95321153D01*
X53349500Y-95478846D01*
X53380261Y-95633489D01*
X53380264Y-95633501D01*
X53440602Y-95779172D01*
X53440609Y-95779185D01*
X53528210Y-95910288D01*
X53528213Y-95910292D01*
X53639707Y-96021786D01*
X53639711Y-96021789D01*
X53770814Y-96109390D01*
X53770827Y-96109397D01*
X53913316Y-96168417D01*
X53916503Y-96169737D01*
X54029165Y-96192147D01*
X54071153Y-96200499D01*
X54071156Y-96200500D01*
X54071158Y-96200500D01*
X54228844Y-96200500D01*
X54228845Y-96200499D01*
X54383497Y-96169737D01*
X54496358Y-96122989D01*
X54529172Y-96109397D01*
X54529172Y-96109396D01*
X54529179Y-96109394D01*
X54586044Y-96071397D01*
X54652721Y-96050520D01*
X54654935Y-96050500D01*
X64021660Y-96050500D01*
X64088699Y-96070185D01*
X64134454Y-96122989D01*
X64144398Y-96192147D01*
X64115373Y-96255703D01*
X64109341Y-96262181D01*
X64058417Y-96313104D01*
X64058417Y-96313105D01*
X63938140Y-96478650D01*
X63845244Y-96660970D01*
X63782009Y-96855586D01*
X63773391Y-96910000D01*
X64734314Y-96910000D01*
X64729920Y-96914394D01*
X64677259Y-97005606D01*
X64650000Y-97107339D01*
X64650000Y-97212661D01*
X64677259Y-97314394D01*
X64729920Y-97405606D01*
X64734314Y-97410000D01*
X63773391Y-97410000D01*
X63782009Y-97464413D01*
X63845244Y-97659029D01*
X63938140Y-97841349D01*
X64058417Y-98006894D01*
X64058417Y-98006895D01*
X64203104Y-98151582D01*
X64368650Y-98271859D01*
X64550968Y-98364754D01*
X64745578Y-98427988D01*
X64800000Y-98436607D01*
X64800000Y-97475686D01*
X64804394Y-97480080D01*
X64895606Y-97532741D01*
X64997339Y-97560000D01*
X65102661Y-97560000D01*
X65204394Y-97532741D01*
X65295606Y-97480080D01*
X65300000Y-97475686D01*
X65300000Y-98436606D01*
X65354421Y-98427988D01*
X65549031Y-98364754D01*
X65731349Y-98271859D01*
X65896894Y-98151582D01*
X65896895Y-98151582D01*
X66041582Y-98006895D01*
X66041582Y-98006894D01*
X66161859Y-97841349D01*
X66254755Y-97659029D01*
X66317990Y-97464413D01*
X66326609Y-97410000D01*
X65365686Y-97410000D01*
X65370080Y-97405606D01*
X65422741Y-97314394D01*
X65450000Y-97212661D01*
X65450000Y-97107339D01*
X65422741Y-97005606D01*
X65370080Y-96914394D01*
X65365686Y-96910000D01*
X66326609Y-96910000D01*
X66326609Y-96909999D01*
X66317990Y-96855586D01*
X66254755Y-96660970D01*
X66161859Y-96478650D01*
X66041582Y-96313105D01*
X66041582Y-96313104D01*
X65990659Y-96262181D01*
X65957174Y-96200858D01*
X65962158Y-96131166D01*
X66004030Y-96075233D01*
X66069494Y-96050816D01*
X66078340Y-96050500D01*
X76639165Y-96050500D01*
X76706204Y-96070185D01*
X76751959Y-96122989D01*
X76761903Y-96192147D01*
X76738431Y-96248812D01*
X76716647Y-96277910D01*
X76716645Y-96277913D01*
X76666403Y-96412620D01*
X76666401Y-96412627D01*
X76660000Y-96472155D01*
X76660000Y-96850000D01*
X77452599Y-96850000D01*
X77435924Y-96866675D01*
X77385896Y-96953325D01*
X77360000Y-97049972D01*
X77360000Y-97150028D01*
X77385896Y-97246675D01*
X77435924Y-97333325D01*
X77452599Y-97350000D01*
X76660000Y-97350000D01*
X76660000Y-97727844D01*
X76666401Y-97787372D01*
X76666403Y-97787379D01*
X76716645Y-97922086D01*
X76716649Y-97922093D01*
X76802809Y-98037187D01*
X76802812Y-98037190D01*
X76917906Y-98123350D01*
X76917913Y-98123354D01*
X77052620Y-98173596D01*
X77052627Y-98173598D01*
X77112155Y-98179999D01*
X77112172Y-98180000D01*
X77490000Y-98180000D01*
X77490000Y-97387401D01*
X77506675Y-97404076D01*
X77593325Y-97454104D01*
X77689972Y-97480000D01*
X77790028Y-97480000D01*
X77886675Y-97454104D01*
X77973325Y-97404076D01*
X77990000Y-97387401D01*
X77990000Y-98180000D01*
X78367828Y-98180000D01*
X78367844Y-98179999D01*
X78427372Y-98173598D01*
X78427379Y-98173596D01*
X78562086Y-98123354D01*
X78562093Y-98123350D01*
X78677187Y-98037190D01*
X78677190Y-98037187D01*
X78763352Y-97922090D01*
X78813596Y-97787379D01*
X78813598Y-97787372D01*
X78819999Y-97727844D01*
X78820000Y-97727827D01*
X78820000Y-97350000D01*
X78027401Y-97350000D01*
X78044076Y-97333325D01*
X78094104Y-97246675D01*
X78120000Y-97150028D01*
X78120000Y-97049972D01*
X78094104Y-96953325D01*
X78044076Y-96866675D01*
X78027401Y-96850000D01*
X78820000Y-96850000D01*
X78820000Y-96472172D01*
X78819999Y-96472155D01*
X78813598Y-96412627D01*
X78813596Y-96412620D01*
X78763354Y-96277913D01*
X78763352Y-96277910D01*
X78741569Y-96248812D01*
X78717151Y-96183348D01*
X78732002Y-96115075D01*
X78781406Y-96065669D01*
X78840835Y-96050500D01*
X79587474Y-96050500D01*
X79654513Y-96070185D01*
X79700268Y-96122989D01*
X79709653Y-96176101D01*
X80253554Y-96720000D01*
X80229972Y-96720000D01*
X80133325Y-96745896D01*
X80046675Y-96795924D01*
X79975924Y-96866675D01*
X79925896Y-96953325D01*
X79900000Y-97049972D01*
X79900000Y-97073552D01*
X79358027Y-96531579D01*
X79356304Y-96533951D01*
X79356298Y-96533962D01*
X79279123Y-96685423D01*
X79279122Y-96685426D01*
X79226593Y-96847097D01*
X79200000Y-97014996D01*
X79200000Y-97185003D01*
X79226593Y-97352902D01*
X79279122Y-97514573D01*
X79279123Y-97514576D01*
X79356302Y-97666045D01*
X79358027Y-97668418D01*
X79900000Y-97126445D01*
X79900000Y-97150028D01*
X79925896Y-97246675D01*
X79975924Y-97333325D01*
X80046675Y-97404076D01*
X80133325Y-97454104D01*
X80229972Y-97480000D01*
X80253553Y-97480000D01*
X79711580Y-98021971D01*
X79713955Y-98023698D01*
X79865423Y-98100876D01*
X79865426Y-98100877D01*
X80027097Y-98153406D01*
X80194997Y-98180000D01*
X80365003Y-98180000D01*
X80532902Y-98153406D01*
X80694573Y-98100877D01*
X80694576Y-98100876D01*
X80846040Y-98023700D01*
X80846042Y-98023699D01*
X80848418Y-98021971D01*
X80306448Y-97480000D01*
X80330028Y-97480000D01*
X80426675Y-97454104D01*
X80513325Y-97404076D01*
X80584076Y-97333325D01*
X80634104Y-97246675D01*
X80660000Y-97150028D01*
X80660000Y-97126447D01*
X81201971Y-97668418D01*
X81203699Y-97666042D01*
X81203700Y-97666040D01*
X81280876Y-97514576D01*
X81280877Y-97514573D01*
X81333406Y-97352902D01*
X81360000Y-97185003D01*
X81360000Y-97014996D01*
X81740000Y-97014996D01*
X81740000Y-97185003D01*
X81766593Y-97352902D01*
X81819122Y-97514573D01*
X81819123Y-97514576D01*
X81896302Y-97666045D01*
X81898027Y-97668418D01*
X82440000Y-97126445D01*
X82440000Y-97150028D01*
X82465896Y-97246675D01*
X82515924Y-97333325D01*
X82586675Y-97404076D01*
X82673325Y-97454104D01*
X82769972Y-97480000D01*
X82793553Y-97480000D01*
X82251580Y-98021971D01*
X82253955Y-98023698D01*
X82405423Y-98100876D01*
X82405426Y-98100877D01*
X82567097Y-98153406D01*
X82734997Y-98180000D01*
X82905003Y-98180000D01*
X83072902Y-98153406D01*
X83234573Y-98100877D01*
X83234576Y-98100876D01*
X83386040Y-98023700D01*
X83386042Y-98023699D01*
X83388418Y-98021971D01*
X82846448Y-97480000D01*
X82870028Y-97480000D01*
X82966675Y-97454104D01*
X83053325Y-97404076D01*
X83124076Y-97333325D01*
X83174104Y-97246675D01*
X83200000Y-97150028D01*
X83200000Y-97126447D01*
X83741971Y-97668418D01*
X83743699Y-97666042D01*
X83743700Y-97666040D01*
X83820876Y-97514576D01*
X83820877Y-97514573D01*
X83873406Y-97352902D01*
X83900000Y-97185003D01*
X83900000Y-97014996D01*
X84280000Y-97014996D01*
X84280000Y-97185003D01*
X84306593Y-97352902D01*
X84359122Y-97514573D01*
X84359123Y-97514576D01*
X84436302Y-97666045D01*
X84438027Y-97668418D01*
X84980000Y-97126445D01*
X84980000Y-97150028D01*
X85005896Y-97246675D01*
X85055924Y-97333325D01*
X85126675Y-97404076D01*
X85213325Y-97454104D01*
X85309972Y-97480000D01*
X85333553Y-97480000D01*
X84791580Y-98021971D01*
X84793955Y-98023698D01*
X84945423Y-98100876D01*
X84945426Y-98100877D01*
X85107097Y-98153406D01*
X85274997Y-98180000D01*
X85445003Y-98180000D01*
X85612902Y-98153406D01*
X85774573Y-98100877D01*
X85774576Y-98100876D01*
X85926040Y-98023700D01*
X85926042Y-98023699D01*
X85928418Y-98021971D01*
X85386448Y-97480000D01*
X85410028Y-97480000D01*
X85506675Y-97454104D01*
X85593325Y-97404076D01*
X85664076Y-97333325D01*
X85714104Y-97246675D01*
X85740000Y-97150028D01*
X85740000Y-97126447D01*
X86281971Y-97668418D01*
X86283699Y-97666042D01*
X86283700Y-97666040D01*
X86360876Y-97514576D01*
X86360877Y-97514573D01*
X86413406Y-97352902D01*
X86440000Y-97185003D01*
X86440000Y-97014996D01*
X86413406Y-96847097D01*
X86360877Y-96685426D01*
X86360876Y-96685423D01*
X86283698Y-96533955D01*
X86281971Y-96531580D01*
X85740000Y-97073551D01*
X85740000Y-97049972D01*
X85714104Y-96953325D01*
X85664076Y-96866675D01*
X85593325Y-96795924D01*
X85506675Y-96745896D01*
X85410028Y-96720000D01*
X85386447Y-96720000D01*
X85928419Y-96178027D01*
X85926045Y-96176302D01*
X85774576Y-96099123D01*
X85774573Y-96099122D01*
X85612902Y-96046593D01*
X85445003Y-96020000D01*
X85274997Y-96020000D01*
X85107097Y-96046593D01*
X84945426Y-96099122D01*
X84945423Y-96099123D01*
X84793962Y-96176298D01*
X84793951Y-96176304D01*
X84791579Y-96178027D01*
X85333554Y-96720000D01*
X85309972Y-96720000D01*
X85213325Y-96745896D01*
X85126675Y-96795924D01*
X85055924Y-96866675D01*
X85005896Y-96953325D01*
X84980000Y-97049972D01*
X84980000Y-97073552D01*
X84438027Y-96531579D01*
X84436304Y-96533951D01*
X84436298Y-96533962D01*
X84359123Y-96685423D01*
X84359122Y-96685426D01*
X84306593Y-96847097D01*
X84280000Y-97014996D01*
X83900000Y-97014996D01*
X83873406Y-96847097D01*
X83820877Y-96685426D01*
X83820876Y-96685423D01*
X83743698Y-96533955D01*
X83741971Y-96531580D01*
X83200000Y-97073551D01*
X83200000Y-97049972D01*
X83174104Y-96953325D01*
X83124076Y-96866675D01*
X83053325Y-96795924D01*
X82966675Y-96745896D01*
X82870028Y-96720000D01*
X82846447Y-96720000D01*
X83388418Y-96178027D01*
X83386045Y-96176302D01*
X83234576Y-96099123D01*
X83234573Y-96099122D01*
X83072902Y-96046593D01*
X82905003Y-96020000D01*
X82734997Y-96020000D01*
X82567097Y-96046593D01*
X82405426Y-96099122D01*
X82405423Y-96099123D01*
X82253962Y-96176298D01*
X82253951Y-96176304D01*
X82251579Y-96178027D01*
X82793554Y-96720000D01*
X82769972Y-96720000D01*
X82673325Y-96745896D01*
X82586675Y-96795924D01*
X82515924Y-96866675D01*
X82465896Y-96953325D01*
X82440000Y-97049972D01*
X82440000Y-97073552D01*
X81898027Y-96531579D01*
X81896304Y-96533951D01*
X81896298Y-96533962D01*
X81819123Y-96685423D01*
X81819122Y-96685426D01*
X81766593Y-96847097D01*
X81740000Y-97014996D01*
X81360000Y-97014996D01*
X81333406Y-96847097D01*
X81280877Y-96685426D01*
X81280876Y-96685423D01*
X81203698Y-96533955D01*
X81201971Y-96531580D01*
X80660000Y-97073551D01*
X80660000Y-97049972D01*
X80634104Y-96953325D01*
X80584076Y-96866675D01*
X80513325Y-96795924D01*
X80426675Y-96745896D01*
X80330028Y-96720000D01*
X80306447Y-96720000D01*
X80850683Y-96175762D01*
X80863274Y-96115846D01*
X80912328Y-96066092D01*
X80972524Y-96050500D01*
X81723920Y-96050500D01*
X81821462Y-96031096D01*
X81868913Y-96021658D01*
X82005495Y-95965084D01*
X82054729Y-95932186D01*
X82128416Y-95882952D01*
X85932951Y-92078416D01*
X86015084Y-91955495D01*
X86071658Y-91818913D01*
X86100500Y-91673918D01*
X86100500Y-91561153D01*
X87389500Y-91561153D01*
X87389500Y-91718846D01*
X87420261Y-91873489D01*
X87420264Y-91873501D01*
X87480602Y-92019172D01*
X87480609Y-92019185D01*
X87568210Y-92150288D01*
X87568213Y-92150292D01*
X87679707Y-92261786D01*
X87679711Y-92261789D01*
X87810814Y-92349390D01*
X87810827Y-92349397D01*
X87910060Y-92390500D01*
X87956503Y-92409737D01*
X88111153Y-92440499D01*
X88111156Y-92440500D01*
X88111158Y-92440500D01*
X88268844Y-92440500D01*
X88268845Y-92440499D01*
X88345152Y-92425320D01*
X88423488Y-92409739D01*
X88423489Y-92409738D01*
X88423497Y-92409737D01*
X88447155Y-92399937D01*
X88494604Y-92390500D01*
X103915501Y-92390500D01*
X103982540Y-92410185D01*
X104028295Y-92462989D01*
X104039501Y-92514500D01*
X104039501Y-92640376D01*
X104045908Y-92699983D01*
X104096202Y-92834828D01*
X104096206Y-92834835D01*
X104182452Y-92950044D01*
X104182455Y-92950047D01*
X104297664Y-93036293D01*
X104297671Y-93036297D01*
X104432517Y-93086591D01*
X104432516Y-93086591D01*
X104439444Y-93087335D01*
X104492127Y-93093000D01*
X106587872Y-93092999D01*
X106647483Y-93086591D01*
X106782331Y-93036296D01*
X106897546Y-92950046D01*
X106983796Y-92834831D01*
X107034091Y-92699983D01*
X107040500Y-92640373D01*
X107040499Y-90724499D01*
X107060184Y-90657461D01*
X107112987Y-90611706D01*
X107164499Y-90600500D01*
X110327111Y-90600500D01*
X110394150Y-90620185D01*
X110414792Y-90636819D01*
X114983184Y-95205212D01*
X115016669Y-95266535D01*
X115011685Y-95336227D01*
X114983185Y-95380574D01*
X114832579Y-95531180D01*
X114735581Y-95652813D01*
X114678393Y-95692953D01*
X114638634Y-95699500D01*
X95931903Y-95699500D01*
X95698631Y-95736446D01*
X95474003Y-95809433D01*
X95263563Y-95916659D01*
X95072496Y-96055476D01*
X95072491Y-96055480D01*
X94164791Y-96963181D01*
X94103468Y-96996666D01*
X94077110Y-96999500D01*
X94012326Y-96999500D01*
X94012320Y-96999500D01*
X94012315Y-96999501D01*
X93739344Y-97035438D01*
X93739337Y-97035439D01*
X93739334Y-97035440D01*
X93685100Y-97049972D01*
X93473369Y-97106704D01*
X93218982Y-97212075D01*
X93218971Y-97212080D01*
X92980516Y-97349754D01*
X92762073Y-97517370D01*
X92762066Y-97517376D01*
X92567376Y-97712066D01*
X92567370Y-97712073D01*
X92399754Y-97930516D01*
X92262080Y-98168971D01*
X92262075Y-98168982D01*
X92156704Y-98423369D01*
X92100500Y-98633125D01*
X92096182Y-98649246D01*
X92085441Y-98689331D01*
X92085438Y-98689344D01*
X92049501Y-98962315D01*
X92049500Y-98962332D01*
X92049500Y-99237667D01*
X92049501Y-99237684D01*
X92085438Y-99510655D01*
X92085439Y-99510660D01*
X92085440Y-99510666D01*
X92086280Y-99513801D01*
X92156704Y-99776630D01*
X92262075Y-100031017D01*
X92262080Y-100031028D01*
X92344861Y-100174407D01*
X92399751Y-100269479D01*
X92399753Y-100269482D01*
X92399754Y-100269483D01*
X92567370Y-100487926D01*
X92567376Y-100487933D01*
X92762066Y-100682623D01*
X92762072Y-100682628D01*
X92980521Y-100850249D01*
X93133778Y-100938732D01*
X93218971Y-100987919D01*
X93218976Y-100987921D01*
X93218979Y-100987923D01*
X93473368Y-101093295D01*
X93739334Y-101164560D01*
X94012326Y-101200500D01*
X94012333Y-101200500D01*
X94287667Y-101200500D01*
X94287674Y-101200500D01*
X94560666Y-101164560D01*
X94826632Y-101093295D01*
X95081021Y-100987923D01*
X95319479Y-100850249D01*
X95537928Y-100682628D01*
X95732628Y-100487928D01*
X95900249Y-100269479D01*
X96037923Y-100031021D01*
X96143295Y-99776632D01*
X96214560Y-99510666D01*
X96250500Y-99237674D01*
X96250500Y-99172889D01*
X96270185Y-99105850D01*
X96286819Y-99085208D01*
X96635209Y-98736819D01*
X96696532Y-98703334D01*
X96722890Y-98700500D01*
X105331908Y-98700500D01*
X114638634Y-98700500D01*
X114705673Y-98720185D01*
X114735580Y-98747186D01*
X114832584Y-98868825D01*
X115031175Y-99067416D01*
X115250752Y-99242523D01*
X115488555Y-99391945D01*
X115741592Y-99513801D01*
X115940680Y-99583465D01*
X116006670Y-99606556D01*
X116006682Y-99606560D01*
X116280491Y-99669055D01*
X116280497Y-99669055D01*
X116280505Y-99669057D01*
X116466547Y-99690018D01*
X116559569Y-99700499D01*
X116559572Y-99700500D01*
X116559575Y-99700500D01*
X116840428Y-99700500D01*
X116840429Y-99700499D01*
X116983055Y-99684429D01*
X117119494Y-99669057D01*
X117119499Y-99669056D01*
X117119509Y-99669055D01*
X117393318Y-99606560D01*
X117658408Y-99513801D01*
X117911445Y-99391945D01*
X118149248Y-99242523D01*
X118368825Y-99067416D01*
X118567416Y-98868825D01*
X118664419Y-98747186D01*
X118721607Y-98707047D01*
X118761366Y-98700500D01*
X123788634Y-98700500D01*
X123855673Y-98720185D01*
X123885580Y-98747186D01*
X123982584Y-98868825D01*
X124181175Y-99067416D01*
X124400752Y-99242523D01*
X124638555Y-99391945D01*
X124891592Y-99513801D01*
X125090680Y-99583465D01*
X125156670Y-99606556D01*
X125156682Y-99606560D01*
X125430491Y-99669055D01*
X125430497Y-99669055D01*
X125430505Y-99669057D01*
X125616547Y-99690018D01*
X125709569Y-99700499D01*
X125709572Y-99700500D01*
X125709575Y-99700500D01*
X125990428Y-99700500D01*
X125990429Y-99700499D01*
X126133055Y-99684429D01*
X126269494Y-99669057D01*
X126269499Y-99669056D01*
X126269509Y-99669055D01*
X126543318Y-99606560D01*
X126808408Y-99513801D01*
X127061445Y-99391945D01*
X127299248Y-99242523D01*
X127518825Y-99067416D01*
X127717416Y-98868825D01*
X127892523Y-98649248D01*
X128041945Y-98411445D01*
X128163801Y-98158408D01*
X128256560Y-97893318D01*
X128319055Y-97619509D01*
X128350500Y-97340425D01*
X128350500Y-97059575D01*
X128319055Y-96780491D01*
X128256560Y-96506682D01*
X128244484Y-96472172D01*
X128171005Y-96262181D01*
X128163801Y-96241592D01*
X128041945Y-95988555D01*
X127892523Y-95750752D01*
X127717416Y-95531175D01*
X127518825Y-95332584D01*
X127299248Y-95157477D01*
X127135004Y-95054275D01*
X127061442Y-95008053D01*
X126808411Y-94886200D01*
X126543329Y-94793443D01*
X126543317Y-94793439D01*
X126269512Y-94730945D01*
X126269494Y-94730942D01*
X125990431Y-94699500D01*
X125990425Y-94699500D01*
X125709575Y-94699500D01*
X125709568Y-94699500D01*
X125430505Y-94730942D01*
X125430487Y-94730945D01*
X125156682Y-94793439D01*
X125156670Y-94793443D01*
X124891588Y-94886200D01*
X124638557Y-95008053D01*
X124400753Y-95157476D01*
X124181175Y-95332583D01*
X123982583Y-95531175D01*
X123885581Y-95652813D01*
X123828393Y-95692953D01*
X123788634Y-95699500D01*
X118761366Y-95699500D01*
X118694327Y-95679815D01*
X118664419Y-95652813D01*
X118567416Y-95531175D01*
X118368824Y-95332583D01*
X118247187Y-95235580D01*
X118207047Y-95178391D01*
X118200500Y-95138633D01*
X118200500Y-94681902D01*
X118163553Y-94448631D01*
X118090566Y-94224003D01*
X118010315Y-94066503D01*
X117983343Y-94013567D01*
X117890174Y-93885331D01*
X117890173Y-93885329D01*
X117890172Y-93885327D01*
X117844521Y-93822494D01*
X117844516Y-93822488D01*
X111877512Y-87855485D01*
X111877511Y-87855484D01*
X111686434Y-87716657D01*
X111475996Y-87609433D01*
X111251368Y-87536446D01*
X111018097Y-87499500D01*
X111018092Y-87499500D01*
X110781908Y-87499500D01*
X110781903Y-87499500D01*
X110548630Y-87536447D01*
X110548627Y-87536447D01*
X110373253Y-87593431D01*
X110334935Y-87599500D01*
X106871011Y-87599500D01*
X106803972Y-87579815D01*
X106758217Y-87527011D01*
X106748273Y-87457853D01*
X106770693Y-87402614D01*
X106829788Y-87321276D01*
X106933582Y-87117570D01*
X107004234Y-86900128D01*
X107018509Y-86810000D01*
X106030748Y-86810000D01*
X106052518Y-86772292D01*
X106090000Y-86632409D01*
X106090000Y-86487591D01*
X106052518Y-86347708D01*
X106030748Y-86310000D01*
X107018509Y-86310000D01*
X107004234Y-86219871D01*
X106933582Y-86002429D01*
X106829788Y-85798723D01*
X106695402Y-85613757D01*
X106533742Y-85452097D01*
X106348776Y-85317711D01*
X106145068Y-85213917D01*
X105927625Y-85143265D01*
X105927626Y-85143265D01*
X105790000Y-85121467D01*
X105790000Y-86069252D01*
X105752292Y-86047482D01*
X105612409Y-86010000D01*
X105467591Y-86010000D01*
X105327708Y-86047482D01*
X105290000Y-86069252D01*
X105290000Y-85121467D01*
X105152374Y-85143265D01*
X104934931Y-85213917D01*
X104731223Y-85317711D01*
X104546257Y-85452097D01*
X104384597Y-85613757D01*
X104250211Y-85798723D01*
X104146417Y-86002429D01*
X104075765Y-86219871D01*
X104061491Y-86310000D01*
X105049252Y-86310000D01*
X105027482Y-86347708D01*
X104990000Y-86487591D01*
X104990000Y-86632409D01*
X105027482Y-86772292D01*
X105049252Y-86810000D01*
X104061491Y-86810000D01*
X104075765Y-86900128D01*
X104146417Y-87117570D01*
X104250211Y-87321276D01*
X104384597Y-87506242D01*
X104546257Y-87667902D01*
X104546263Y-87667907D01*
X104614207Y-87717271D01*
X104656873Y-87772600D01*
X104662852Y-87842214D01*
X104630247Y-87904009D01*
X104614209Y-87917906D01*
X104562490Y-87955482D01*
X104395485Y-88122487D01*
X104395485Y-88122488D01*
X104395483Y-88122490D01*
X104369387Y-88158408D01*
X104256657Y-88313566D01*
X104149433Y-88524003D01*
X104076446Y-88748631D01*
X104039500Y-88981902D01*
X104039500Y-89218097D01*
X104076446Y-89451368D01*
X104149433Y-89675996D01*
X104189640Y-89754905D01*
X104256657Y-89886433D01*
X104373702Y-90047532D01*
X104397182Y-90113336D01*
X104381357Y-90181390D01*
X104331251Y-90230085D01*
X104316721Y-90236596D01*
X104297676Y-90243699D01*
X104297664Y-90243706D01*
X104182455Y-90329952D01*
X104182452Y-90329955D01*
X104096206Y-90445164D01*
X104096202Y-90445171D01*
X104045908Y-90580017D01*
X104039501Y-90639616D01*
X104039500Y-90639635D01*
X104039500Y-90765500D01*
X104019815Y-90832539D01*
X103967011Y-90878294D01*
X103915500Y-90889500D01*
X88494604Y-90889500D01*
X88447155Y-90880062D01*
X88423497Y-90870263D01*
X88423493Y-90870262D01*
X88423488Y-90870260D01*
X88268845Y-90839500D01*
X88268842Y-90839500D01*
X88111158Y-90839500D01*
X88111155Y-90839500D01*
X87956510Y-90870261D01*
X87956498Y-90870264D01*
X87810827Y-90930602D01*
X87810814Y-90930609D01*
X87679711Y-91018210D01*
X87679707Y-91018213D01*
X87568213Y-91129707D01*
X87568210Y-91129711D01*
X87480609Y-91260814D01*
X87480602Y-91260827D01*
X87420264Y-91406498D01*
X87420261Y-91406510D01*
X87389500Y-91561153D01*
X86100500Y-91561153D01*
X86100500Y-91526083D01*
X86100500Y-90318919D01*
X86120185Y-90251880D01*
X86136819Y-90231238D01*
X86156819Y-90211238D01*
X86184159Y-90183898D01*
X86284126Y-90046305D01*
X86361339Y-89894768D01*
X86413894Y-89733018D01*
X86440500Y-89565037D01*
X86440500Y-89394963D01*
X86413894Y-89226982D01*
X86361339Y-89065232D01*
X86284126Y-88913695D01*
X86184159Y-88776102D01*
X86063898Y-88655841D01*
X85926305Y-88555874D01*
X85774768Y-88478661D01*
X85774764Y-88478660D01*
X85774761Y-88478658D01*
X85613019Y-88426106D01*
X85529027Y-88412803D01*
X85445037Y-88399500D01*
X85274963Y-88399500D01*
X85218969Y-88408368D01*
X85106980Y-88426106D01*
X84945238Y-88478658D01*
X84793694Y-88555874D01*
X84656099Y-88655843D01*
X84535843Y-88776099D01*
X84435874Y-88913694D01*
X84358658Y-89065238D01*
X84306106Y-89226980D01*
X84279500Y-89394963D01*
X84279500Y-89565036D01*
X84306106Y-89733019D01*
X84358658Y-89894761D01*
X84358660Y-89894764D01*
X84358661Y-89894768D01*
X84435874Y-90046305D01*
X84535841Y-90183898D01*
X84535843Y-90183900D01*
X84563181Y-90211238D01*
X84596666Y-90272561D01*
X84599500Y-90298919D01*
X84599500Y-91237770D01*
X84579815Y-91304809D01*
X84563181Y-91325451D01*
X81375451Y-94513181D01*
X81314128Y-94546666D01*
X81287770Y-94549500D01*
X80661230Y-94549500D01*
X80594191Y-94529815D01*
X80548436Y-94477011D01*
X80538492Y-94407853D01*
X80567517Y-94344297D01*
X80573549Y-94337819D01*
X83432948Y-91478420D01*
X83432952Y-91478416D01*
X83502774Y-91373918D01*
X83515084Y-91355495D01*
X83571658Y-91218913D01*
X83600500Y-91073918D01*
X83600500Y-90278919D01*
X83620185Y-90211880D01*
X83636819Y-90191238D01*
X83644159Y-90183898D01*
X83744126Y-90046305D01*
X83821339Y-89894768D01*
X83873894Y-89733018D01*
X83900500Y-89565037D01*
X83900500Y-89394963D01*
X83873894Y-89226982D01*
X83821339Y-89065232D01*
X83744126Y-88913695D01*
X83644159Y-88776102D01*
X83523898Y-88655841D01*
X83386305Y-88555874D01*
X83234768Y-88478661D01*
X83234764Y-88478660D01*
X83234761Y-88478658D01*
X83073019Y-88426106D01*
X82989027Y-88412803D01*
X82905037Y-88399500D01*
X82734963Y-88399500D01*
X82678969Y-88408368D01*
X82566980Y-88426106D01*
X82405238Y-88478658D01*
X82253694Y-88555874D01*
X82116099Y-88655843D01*
X81995843Y-88776099D01*
X81895874Y-88913694D01*
X81818658Y-89065238D01*
X81766106Y-89226980D01*
X81739500Y-89394963D01*
X81739500Y-89565036D01*
X81766106Y-89733019D01*
X81818658Y-89894761D01*
X81818660Y-89894764D01*
X81818661Y-89894768D01*
X81895874Y-90046305D01*
X81995841Y-90183898D01*
X81995843Y-90183900D01*
X82063181Y-90251238D01*
X82096666Y-90312561D01*
X82099500Y-90338919D01*
X82099500Y-90637770D01*
X82079815Y-90704809D01*
X82063181Y-90725451D01*
X79475451Y-93313181D01*
X79414128Y-93346666D01*
X79387770Y-93349500D01*
X59376076Y-93349500D01*
X59347242Y-93355234D01*
X59347243Y-93355235D01*
X59231093Y-93378339D01*
X59231089Y-93378340D01*
X59156029Y-93409432D01*
X59094509Y-93434914D01*
X59094496Y-93434921D01*
X59045270Y-93467811D01*
X59045271Y-93467812D01*
X58971585Y-93517047D01*
X58971580Y-93517051D01*
X58934701Y-93553929D01*
X58894480Y-93580805D01*
X58870819Y-93590606D01*
X58870818Y-93590607D01*
X58739715Y-93678207D01*
X58739707Y-93678213D01*
X58628213Y-93789707D01*
X58628210Y-93789711D01*
X58540609Y-93920814D01*
X58540602Y-93920827D01*
X58480264Y-94066498D01*
X58480261Y-94066510D01*
X58449500Y-94221153D01*
X58449500Y-94378841D01*
X58453969Y-94401310D01*
X58447740Y-94470901D01*
X58404877Y-94526078D01*
X58338987Y-94549322D01*
X58332351Y-94549500D01*
X54176080Y-94549500D01*
X54031092Y-94578340D01*
X54031086Y-94578342D01*
X53894503Y-94634917D01*
X53894493Y-94634922D01*
X53887092Y-94639867D01*
X53865666Y-94651319D01*
X53770819Y-94690606D01*
X53770818Y-94690607D01*
X53639715Y-94778207D01*
X53639707Y-94778213D01*
X53528213Y-94889707D01*
X53528210Y-94889711D01*
X53440609Y-95020814D01*
X53440602Y-95020827D01*
X53380264Y-95166498D01*
X53380261Y-95166510D01*
X53349500Y-95321153D01*
X38168759Y-95321153D01*
X38177060Y-88692135D01*
X48649500Y-88692135D01*
X48649500Y-90387870D01*
X48649501Y-90387876D01*
X48655908Y-90447483D01*
X48706202Y-90582328D01*
X48706206Y-90582335D01*
X48792452Y-90697544D01*
X48792455Y-90697547D01*
X48907664Y-90783793D01*
X48907671Y-90783797D01*
X49042517Y-90834091D01*
X49042516Y-90834091D01*
X49049444Y-90834835D01*
X49102127Y-90840500D01*
X50797872Y-90840499D01*
X50857483Y-90834091D01*
X50992331Y-90783796D01*
X51107546Y-90697546D01*
X51193796Y-90582331D01*
X51244091Y-90447483D01*
X51249062Y-90401242D01*
X51275799Y-90336694D01*
X51333191Y-90296846D01*
X51372351Y-90290500D01*
X53062820Y-90290500D01*
X53129859Y-90310185D01*
X53162085Y-90340187D01*
X53242454Y-90447546D01*
X53277685Y-90473920D01*
X53357664Y-90533793D01*
X53357671Y-90533797D01*
X53492517Y-90584091D01*
X53492516Y-90584091D01*
X53499444Y-90584835D01*
X53552127Y-90590500D01*
X54747872Y-90590499D01*
X54807483Y-90584091D01*
X54942331Y-90533796D01*
X55057546Y-90447546D01*
X55064228Y-90438620D01*
X55604931Y-90438620D01*
X55604932Y-90438621D01*
X55652633Y-90470495D01*
X55652639Y-90470498D01*
X55843725Y-90549649D01*
X55843733Y-90549651D01*
X56046579Y-90589999D01*
X56046583Y-90590000D01*
X56253417Y-90590000D01*
X56253420Y-90589999D01*
X56456266Y-90549651D01*
X56456274Y-90549649D01*
X56647366Y-90470495D01*
X56695066Y-90438621D01*
X56695067Y-90438620D01*
X56150001Y-89893554D01*
X56150000Y-89893554D01*
X55604931Y-90438620D01*
X55064228Y-90438620D01*
X55143796Y-90332331D01*
X55194091Y-90197483D01*
X55197497Y-90165800D01*
X55201783Y-90153025D01*
X55214373Y-90134981D01*
X55222793Y-90114656D01*
X55231664Y-90104780D01*
X55796446Y-89540000D01*
X55750368Y-89493922D01*
X55800000Y-89493922D01*
X55800000Y-89586078D01*
X55823852Y-89675095D01*
X55869930Y-89754905D01*
X55935095Y-89820070D01*
X56014905Y-89866148D01*
X56103922Y-89890000D01*
X56196078Y-89890000D01*
X56285095Y-89866148D01*
X56364905Y-89820070D01*
X56430070Y-89754905D01*
X56476148Y-89675095D01*
X56500000Y-89586078D01*
X56500000Y-89539999D01*
X56503554Y-89539999D01*
X56503554Y-89540001D01*
X57048620Y-90085067D01*
X57048621Y-90085066D01*
X57080495Y-90037366D01*
X57159649Y-89846274D01*
X57159651Y-89846266D01*
X57199999Y-89643420D01*
X57200000Y-89643417D01*
X57200000Y-89436583D01*
X57199999Y-89436579D01*
X57159651Y-89233733D01*
X57159649Y-89233725D01*
X57080498Y-89042639D01*
X57080495Y-89042633D01*
X57048621Y-88994932D01*
X57048620Y-88994931D01*
X56503554Y-89539999D01*
X56500000Y-89539999D01*
X56500000Y-89493922D01*
X56476148Y-89404905D01*
X56430070Y-89325095D01*
X56364905Y-89259930D01*
X56285095Y-89213852D01*
X56196078Y-89190000D01*
X56103922Y-89190000D01*
X56014905Y-89213852D01*
X55935095Y-89259930D01*
X55869930Y-89325095D01*
X55823852Y-89404905D01*
X55800000Y-89493922D01*
X55750368Y-89493922D01*
X55231664Y-88975218D01*
X55201783Y-88926973D01*
X55197496Y-88914193D01*
X55194091Y-88882517D01*
X55143796Y-88747669D01*
X55137913Y-88739811D01*
X55064226Y-88641377D01*
X55604932Y-88641377D01*
X55604932Y-88641378D01*
X56150000Y-89186446D01*
X56150001Y-89186446D01*
X56644310Y-88692135D01*
X63749500Y-88692135D01*
X63749500Y-90387870D01*
X63749501Y-90387876D01*
X63755908Y-90447483D01*
X63806202Y-90582328D01*
X63806206Y-90582335D01*
X63892452Y-90697544D01*
X63892455Y-90697547D01*
X64007664Y-90783793D01*
X64007671Y-90783797D01*
X64142517Y-90834091D01*
X64142516Y-90834091D01*
X64149444Y-90834835D01*
X64202127Y-90840500D01*
X65897872Y-90840499D01*
X65957483Y-90834091D01*
X66092331Y-90783796D01*
X66207546Y-90697546D01*
X66293796Y-90582331D01*
X66344091Y-90447483D01*
X66349062Y-90401242D01*
X66375799Y-90336694D01*
X66433191Y-90296846D01*
X66472351Y-90290500D01*
X68275500Y-90290500D01*
X68342539Y-90310185D01*
X68388294Y-90362989D01*
X68399500Y-90414500D01*
X68399500Y-90473918D01*
X68399500Y-90473920D01*
X68399499Y-90473920D01*
X68428340Y-90618907D01*
X68428343Y-90618917D01*
X68484913Y-90755490D01*
X68484916Y-90755495D01*
X68502017Y-90781090D01*
X68567046Y-90878414D01*
X68567052Y-90878421D01*
X69467049Y-91778416D01*
X69562122Y-91873489D01*
X69571585Y-91882952D01*
X69694498Y-91965080D01*
X69694511Y-91965087D01*
X69831082Y-92021656D01*
X69831087Y-92021658D01*
X69831091Y-92021658D01*
X69831092Y-92021659D01*
X69976079Y-92050500D01*
X69976082Y-92050500D01*
X74723920Y-92050500D01*
X74821462Y-92031096D01*
X74868913Y-92021658D01*
X75005495Y-91965084D01*
X75054729Y-91932186D01*
X75128416Y-91882952D01*
X76744548Y-90266818D01*
X76771475Y-90252115D01*
X76797294Y-90235523D01*
X76803494Y-90234631D01*
X76805871Y-90233334D01*
X76832229Y-90230500D01*
X76911081Y-90230500D01*
X76978120Y-90250185D01*
X76998762Y-90266819D01*
X77036102Y-90304159D01*
X77173695Y-90404126D01*
X77325232Y-90481339D01*
X77486982Y-90533894D01*
X77654963Y-90560500D01*
X77654964Y-90560500D01*
X77825036Y-90560500D01*
X77825037Y-90560500D01*
X77993018Y-90533894D01*
X78154768Y-90481339D01*
X78306305Y-90404126D01*
X78443898Y-90304159D01*
X78564159Y-90183898D01*
X78664126Y-90046305D01*
X78741339Y-89894768D01*
X78793894Y-89733018D01*
X78820500Y-89565037D01*
X78820500Y-89394963D01*
X79199500Y-89394963D01*
X79199500Y-89565036D01*
X79226106Y-89733019D01*
X79278658Y-89894761D01*
X79278660Y-89894764D01*
X79278661Y-89894768D01*
X79355874Y-90046305D01*
X79455841Y-90183898D01*
X79576102Y-90304159D01*
X79713695Y-90404126D01*
X79865232Y-90481339D01*
X80026982Y-90533894D01*
X80194963Y-90560500D01*
X80194964Y-90560500D01*
X80365036Y-90560500D01*
X80365037Y-90560500D01*
X80533018Y-90533894D01*
X80694768Y-90481339D01*
X80846305Y-90404126D01*
X80983898Y-90304159D01*
X81104159Y-90183898D01*
X81204126Y-90046305D01*
X81281339Y-89894768D01*
X81333894Y-89733018D01*
X81360500Y-89565037D01*
X81360500Y-89394963D01*
X81333894Y-89226982D01*
X81281339Y-89065232D01*
X81204126Y-88913695D01*
X81104159Y-88776102D01*
X80983898Y-88655841D01*
X80846305Y-88555874D01*
X80694768Y-88478661D01*
X80694764Y-88478660D01*
X80694761Y-88478658D01*
X80533019Y-88426106D01*
X80449027Y-88412803D01*
X80365037Y-88399500D01*
X80194963Y-88399500D01*
X80138969Y-88408368D01*
X80026980Y-88426106D01*
X79865238Y-88478658D01*
X79713694Y-88555874D01*
X79576099Y-88655843D01*
X79455843Y-88776099D01*
X79355874Y-88913694D01*
X79278658Y-89065238D01*
X79226106Y-89226980D01*
X79199500Y-89394963D01*
X78820500Y-89394963D01*
X78793894Y-89226982D01*
X78741339Y-89065232D01*
X78664126Y-88913695D01*
X78564159Y-88776102D01*
X78443898Y-88655841D01*
X78306305Y-88555874D01*
X78154768Y-88478661D01*
X78154764Y-88478660D01*
X78154761Y-88478658D01*
X77993019Y-88426106D01*
X77909027Y-88412803D01*
X77825037Y-88399500D01*
X77654963Y-88399500D01*
X77598969Y-88408368D01*
X77486980Y-88426106D01*
X77325238Y-88478658D01*
X77173694Y-88555874D01*
X77036099Y-88655843D01*
X76998762Y-88693181D01*
X76937439Y-88726666D01*
X76911081Y-88729500D01*
X76396076Y-88729500D01*
X76367242Y-88735234D01*
X76367243Y-88735235D01*
X76251093Y-88758339D01*
X76251089Y-88758340D01*
X76183349Y-88786399D01*
X76183341Y-88786402D01*
X76178660Y-88788342D01*
X76114505Y-88814916D01*
X76076162Y-88840536D01*
X76070251Y-88844484D01*
X76070246Y-88844488D01*
X75991582Y-88897049D01*
X75991579Y-88897052D01*
X74375451Y-90513181D01*
X74314128Y-90546666D01*
X74287770Y-90549500D01*
X73920959Y-90549500D01*
X73853920Y-90529815D01*
X73808165Y-90477011D01*
X73803107Y-90446660D01*
X73250001Y-89893554D01*
X73250000Y-89893554D01*
X72695945Y-90447606D01*
X72689424Y-90481993D01*
X72641359Y-90532703D01*
X72579040Y-90549500D01*
X72328946Y-90549500D01*
X72261907Y-90529815D01*
X72216152Y-90477011D01*
X72206208Y-90407853D01*
X72213339Y-90380655D01*
X72219489Y-90364800D01*
X72243796Y-90332331D01*
X72294091Y-90197483D01*
X72297809Y-90162899D01*
X72303738Y-90147616D01*
X72315445Y-90132395D01*
X72322793Y-90114656D01*
X72331664Y-90104780D01*
X72896446Y-89540000D01*
X72850368Y-89493922D01*
X72900000Y-89493922D01*
X72900000Y-89586078D01*
X72923852Y-89675095D01*
X72969930Y-89754905D01*
X73035095Y-89820070D01*
X73114905Y-89866148D01*
X73203922Y-89890000D01*
X73296078Y-89890000D01*
X73385095Y-89866148D01*
X73464905Y-89820070D01*
X73530070Y-89754905D01*
X73576148Y-89675095D01*
X73600000Y-89586078D01*
X73600000Y-89539999D01*
X73603554Y-89539999D01*
X73603554Y-89540000D01*
X74148620Y-90085067D01*
X74148621Y-90085066D01*
X74180495Y-90037366D01*
X74259649Y-89846274D01*
X74259651Y-89846266D01*
X74299999Y-89643420D01*
X74300000Y-89643417D01*
X74300000Y-89436583D01*
X74299999Y-89436579D01*
X74259651Y-89233733D01*
X74259649Y-89233725D01*
X74180498Y-89042639D01*
X74180495Y-89042633D01*
X74148621Y-88994932D01*
X74148620Y-88994931D01*
X73603554Y-89539999D01*
X73600000Y-89539999D01*
X73600000Y-89493922D01*
X73576148Y-89404905D01*
X73530070Y-89325095D01*
X73464905Y-89259930D01*
X73385095Y-89213852D01*
X73296078Y-89190000D01*
X73203922Y-89190000D01*
X73114905Y-89213852D01*
X73035095Y-89259930D01*
X72969930Y-89325095D01*
X72923852Y-89404905D01*
X72900000Y-89493922D01*
X72850368Y-89493922D01*
X72331664Y-88975218D01*
X72301783Y-88926973D01*
X72297496Y-88914193D01*
X72294091Y-88882517D01*
X72243796Y-88747669D01*
X72237913Y-88739811D01*
X72164226Y-88641377D01*
X72704932Y-88641377D01*
X72704932Y-88641378D01*
X73250000Y-89186446D01*
X73250001Y-89186446D01*
X73795067Y-88641378D01*
X73795067Y-88641377D01*
X73747359Y-88609500D01*
X73556274Y-88530350D01*
X73556266Y-88530348D01*
X73353420Y-88490000D01*
X73146579Y-88490000D01*
X72943733Y-88530348D01*
X72943725Y-88530350D01*
X72752641Y-88609500D01*
X72752631Y-88609505D01*
X72704932Y-88641377D01*
X72164226Y-88641377D01*
X72157547Y-88632455D01*
X72157544Y-88632452D01*
X72042335Y-88546206D01*
X72042328Y-88546202D01*
X71907482Y-88495908D01*
X71907483Y-88495908D01*
X71847883Y-88489501D01*
X71847881Y-88489500D01*
X71847873Y-88489500D01*
X71847864Y-88489500D01*
X70652129Y-88489500D01*
X70652123Y-88489501D01*
X70592516Y-88495908D01*
X70457671Y-88546202D01*
X70457664Y-88546206D01*
X70342456Y-88632452D01*
X70342455Y-88632453D01*
X70342454Y-88632454D01*
X70262087Y-88739811D01*
X70206153Y-88781682D01*
X70162820Y-88789500D01*
X66472351Y-88789500D01*
X66405312Y-88769815D01*
X66359557Y-88717011D01*
X66349061Y-88678752D01*
X66344091Y-88632516D01*
X66293797Y-88497671D01*
X66293793Y-88497664D01*
X66207547Y-88382455D01*
X66207544Y-88382452D01*
X66092335Y-88296206D01*
X66092328Y-88296202D01*
X65957482Y-88245908D01*
X65957483Y-88245908D01*
X65897883Y-88239501D01*
X65897881Y-88239500D01*
X65897873Y-88239500D01*
X65897864Y-88239500D01*
X64202129Y-88239500D01*
X64202123Y-88239501D01*
X64142516Y-88245908D01*
X64007671Y-88296202D01*
X64007664Y-88296206D01*
X63892455Y-88382452D01*
X63892452Y-88382455D01*
X63806206Y-88497664D01*
X63806202Y-88497671D01*
X63755908Y-88632517D01*
X63749501Y-88692116D01*
X63749500Y-88692135D01*
X56644310Y-88692135D01*
X56695067Y-88641378D01*
X56695067Y-88641377D01*
X56647359Y-88609500D01*
X56456274Y-88530350D01*
X56456266Y-88530348D01*
X56253420Y-88490000D01*
X56046579Y-88490000D01*
X55843733Y-88530348D01*
X55843725Y-88530350D01*
X55652641Y-88609500D01*
X55652631Y-88609505D01*
X55604932Y-88641377D01*
X55064226Y-88641377D01*
X55057547Y-88632455D01*
X55057544Y-88632452D01*
X54942335Y-88546206D01*
X54942328Y-88546202D01*
X54807482Y-88495908D01*
X54807483Y-88495908D01*
X54747883Y-88489501D01*
X54747881Y-88489500D01*
X54747873Y-88489500D01*
X54747864Y-88489500D01*
X53552129Y-88489500D01*
X53552123Y-88489501D01*
X53492516Y-88495908D01*
X53357671Y-88546202D01*
X53357664Y-88546206D01*
X53242456Y-88632452D01*
X53242455Y-88632453D01*
X53242454Y-88632454D01*
X53162087Y-88739811D01*
X53106153Y-88781682D01*
X53062820Y-88789500D01*
X51372351Y-88789500D01*
X51305312Y-88769815D01*
X51259557Y-88717011D01*
X51249061Y-88678752D01*
X51244091Y-88632516D01*
X51193797Y-88497671D01*
X51193793Y-88497664D01*
X51107547Y-88382455D01*
X51107544Y-88382452D01*
X50992335Y-88296206D01*
X50992328Y-88296202D01*
X50857482Y-88245908D01*
X50857483Y-88245908D01*
X50797883Y-88239501D01*
X50797881Y-88239500D01*
X50797873Y-88239500D01*
X50797864Y-88239500D01*
X49102129Y-88239500D01*
X49102123Y-88239501D01*
X49042516Y-88245908D01*
X48907671Y-88296202D01*
X48907664Y-88296206D01*
X48792455Y-88382452D01*
X48792452Y-88382455D01*
X48706206Y-88497664D01*
X48706202Y-88497671D01*
X48655908Y-88632517D01*
X48649501Y-88692116D01*
X48649500Y-88692135D01*
X38177060Y-88692135D01*
X38180622Y-85847648D01*
X63749500Y-85847648D01*
X63749500Y-86052351D01*
X63781522Y-86254534D01*
X63844781Y-86449223D01*
X63908691Y-86574653D01*
X63926849Y-86610289D01*
X63937715Y-86631613D01*
X64058028Y-86797213D01*
X64202786Y-86941971D01*
X64357749Y-87054556D01*
X64368390Y-87062287D01*
X64462032Y-87110000D01*
X64550776Y-87155218D01*
X64550778Y-87155218D01*
X64550781Y-87155220D01*
X64655137Y-87189127D01*
X64745465Y-87218477D01*
X64846557Y-87234488D01*
X64947648Y-87250500D01*
X64947649Y-87250500D01*
X65152351Y-87250500D01*
X65152352Y-87250500D01*
X65354534Y-87218477D01*
X65549219Y-87155220D01*
X65731610Y-87062287D01*
X65824590Y-86994732D01*
X65897213Y-86941971D01*
X65897215Y-86941968D01*
X65897219Y-86941966D01*
X66041966Y-86797219D01*
X66044650Y-86793524D01*
X66075100Y-86751615D01*
X66130429Y-86708949D01*
X66175418Y-86700500D01*
X69770234Y-86700500D01*
X69837273Y-86720185D01*
X69839125Y-86721398D01*
X69970814Y-86809390D01*
X69970827Y-86809397D01*
X70104415Y-86864730D01*
X70116503Y-86869737D01*
X70257122Y-86897708D01*
X70271153Y-86900499D01*
X70271156Y-86900500D01*
X70271158Y-86900500D01*
X70428844Y-86900500D01*
X70428845Y-86900499D01*
X70583497Y-86869737D01*
X70729179Y-86809394D01*
X70860289Y-86721789D01*
X70971789Y-86610289D01*
X71059394Y-86479179D01*
X71119737Y-86333497D01*
X71150500Y-86178842D01*
X71150500Y-86052135D01*
X76749500Y-86052135D01*
X76749500Y-87147870D01*
X76749501Y-87147876D01*
X76755908Y-87207483D01*
X76806202Y-87342328D01*
X76806206Y-87342335D01*
X76892452Y-87457544D01*
X76892455Y-87457547D01*
X77007664Y-87543793D01*
X77007671Y-87543797D01*
X77142517Y-87594091D01*
X77142516Y-87594091D01*
X77149444Y-87594835D01*
X77202127Y-87600500D01*
X78297872Y-87600499D01*
X78357483Y-87594091D01*
X78492331Y-87543796D01*
X78607546Y-87457546D01*
X78693796Y-87342331D01*
X78744091Y-87207483D01*
X78750500Y-87147873D01*
X78750499Y-86052135D01*
X81849500Y-86052135D01*
X81849500Y-87147870D01*
X81849501Y-87147876D01*
X81855908Y-87207483D01*
X81906202Y-87342328D01*
X81906206Y-87342335D01*
X81992452Y-87457544D01*
X81992455Y-87457547D01*
X82107664Y-87543793D01*
X82107671Y-87543797D01*
X82242517Y-87594091D01*
X82242516Y-87594091D01*
X82249444Y-87594835D01*
X82302127Y-87600500D01*
X83397872Y-87600499D01*
X83457483Y-87594091D01*
X83592331Y-87543796D01*
X83707546Y-87457546D01*
X83793796Y-87342331D01*
X83844091Y-87207483D01*
X83850500Y-87147873D01*
X83850499Y-86052135D01*
X84449500Y-86052135D01*
X84449500Y-87147870D01*
X84449501Y-87147876D01*
X84455908Y-87207483D01*
X84506202Y-87342328D01*
X84506206Y-87342335D01*
X84592452Y-87457544D01*
X84592455Y-87457547D01*
X84707664Y-87543793D01*
X84707671Y-87543797D01*
X84842517Y-87594091D01*
X84842516Y-87594091D01*
X84849444Y-87594835D01*
X84902127Y-87600500D01*
X85997872Y-87600499D01*
X86057483Y-87594091D01*
X86192331Y-87543796D01*
X86307546Y-87457546D01*
X86393796Y-87342331D01*
X86444091Y-87207483D01*
X86450500Y-87147873D01*
X86450499Y-86052128D01*
X86444091Y-85992517D01*
X86442613Y-85988555D01*
X86393797Y-85857671D01*
X86393793Y-85857664D01*
X86307547Y-85742455D01*
X86307544Y-85742452D01*
X86192335Y-85656206D01*
X86192328Y-85656202D01*
X86057482Y-85605908D01*
X86057483Y-85605908D01*
X85997883Y-85599501D01*
X85997881Y-85599500D01*
X85997873Y-85599500D01*
X85997864Y-85599500D01*
X84902129Y-85599500D01*
X84902123Y-85599501D01*
X84842516Y-85605908D01*
X84707671Y-85656202D01*
X84707664Y-85656206D01*
X84592455Y-85742452D01*
X84592452Y-85742455D01*
X84506206Y-85857664D01*
X84506202Y-85857671D01*
X84455908Y-85992517D01*
X84449999Y-86047482D01*
X84449501Y-86052123D01*
X84449500Y-86052135D01*
X83850499Y-86052135D01*
X83850499Y-86052128D01*
X83844091Y-85992517D01*
X83842613Y-85988555D01*
X83793797Y-85857671D01*
X83793793Y-85857664D01*
X83707547Y-85742455D01*
X83707544Y-85742452D01*
X83592335Y-85656206D01*
X83592328Y-85656202D01*
X83457482Y-85605908D01*
X83457483Y-85605908D01*
X83397883Y-85599501D01*
X83397881Y-85599500D01*
X83397873Y-85599500D01*
X83397864Y-85599500D01*
X82302129Y-85599500D01*
X82302123Y-85599501D01*
X82242516Y-85605908D01*
X82107671Y-85656202D01*
X82107664Y-85656206D01*
X81992455Y-85742452D01*
X81992452Y-85742455D01*
X81906206Y-85857664D01*
X81906202Y-85857671D01*
X81855908Y-85992517D01*
X81849999Y-86047482D01*
X81849501Y-86052123D01*
X81849500Y-86052135D01*
X78750499Y-86052135D01*
X78750499Y-86052128D01*
X78744091Y-85992517D01*
X78742613Y-85988555D01*
X78693797Y-85857671D01*
X78693793Y-85857664D01*
X78607547Y-85742455D01*
X78607544Y-85742452D01*
X78492335Y-85656206D01*
X78492328Y-85656202D01*
X78357482Y-85605908D01*
X78357483Y-85605908D01*
X78297883Y-85599501D01*
X78297881Y-85599500D01*
X78297873Y-85599500D01*
X78297864Y-85599500D01*
X77202129Y-85599500D01*
X77202123Y-85599501D01*
X77142516Y-85605908D01*
X77007671Y-85656202D01*
X77007664Y-85656206D01*
X76892455Y-85742452D01*
X76892452Y-85742455D01*
X76806206Y-85857664D01*
X76806202Y-85857671D01*
X76755908Y-85992517D01*
X76749999Y-86047482D01*
X76749501Y-86052123D01*
X76749500Y-86052135D01*
X71150500Y-86052135D01*
X71150500Y-86021158D01*
X71150500Y-86021155D01*
X71150499Y-86021153D01*
X71119737Y-85866503D01*
X71091662Y-85798723D01*
X71059397Y-85720827D01*
X71059390Y-85720814D01*
X70971789Y-85589711D01*
X70971786Y-85589707D01*
X70860292Y-85478213D01*
X70860288Y-85478210D01*
X70729185Y-85390609D01*
X70729172Y-85390602D01*
X70699664Y-85378380D01*
X70678229Y-85366923D01*
X70604729Y-85317813D01*
X70555495Y-85284916D01*
X70555496Y-85284916D01*
X70555491Y-85284913D01*
X70418917Y-85228343D01*
X70418907Y-85228340D01*
X70273920Y-85199500D01*
X70273918Y-85199500D01*
X66175418Y-85199500D01*
X66108379Y-85179815D01*
X66075100Y-85148385D01*
X66041971Y-85102787D01*
X66041967Y-85102782D01*
X65897213Y-84958028D01*
X65731613Y-84837715D01*
X65731612Y-84837714D01*
X65731610Y-84837713D01*
X65674653Y-84808691D01*
X65549223Y-84744781D01*
X65354534Y-84681522D01*
X65179995Y-84653878D01*
X65152352Y-84649500D01*
X64947648Y-84649500D01*
X64923329Y-84653351D01*
X64745465Y-84681522D01*
X64550776Y-84744781D01*
X64368386Y-84837715D01*
X64202786Y-84958028D01*
X64058028Y-85102786D01*
X63937715Y-85268386D01*
X63844781Y-85450776D01*
X63781522Y-85645465D01*
X63749500Y-85847648D01*
X38180622Y-85847648D01*
X38183803Y-83307648D01*
X48649500Y-83307648D01*
X48649500Y-83512351D01*
X48681522Y-83714534D01*
X48744781Y-83909223D01*
X48837715Y-84091613D01*
X48958028Y-84257213D01*
X49102786Y-84401971D01*
X49257749Y-84514556D01*
X49268390Y-84522287D01*
X49384607Y-84581503D01*
X49450776Y-84615218D01*
X49450778Y-84615218D01*
X49450781Y-84615220D01*
X49555137Y-84649127D01*
X49645465Y-84678477D01*
X49664697Y-84681523D01*
X49847648Y-84710500D01*
X49847649Y-84710500D01*
X50052351Y-84710500D01*
X50052352Y-84710500D01*
X50254534Y-84678477D01*
X50449219Y-84615220D01*
X50631610Y-84522287D01*
X50724590Y-84454732D01*
X50797213Y-84401971D01*
X50797215Y-84401968D01*
X50797219Y-84401966D01*
X50941966Y-84257219D01*
X50941968Y-84257215D01*
X50941971Y-84257213D01*
X50994732Y-84184590D01*
X51062287Y-84091610D01*
X51155220Y-83909219D01*
X51218477Y-83714534D01*
X51250500Y-83512352D01*
X51250500Y-83307648D01*
X51234277Y-83205220D01*
X51218477Y-83105465D01*
X51155218Y-82910776D01*
X51099597Y-82801615D01*
X51062287Y-82728390D01*
X51028300Y-82681610D01*
X50941971Y-82562786D01*
X50797213Y-82418028D01*
X50631613Y-82297715D01*
X50631612Y-82297714D01*
X50631610Y-82297713D01*
X50574653Y-82268691D01*
X50449223Y-82204781D01*
X50254534Y-82141522D01*
X50079995Y-82113878D01*
X50052352Y-82109500D01*
X49847648Y-82109500D01*
X49823329Y-82113351D01*
X49645465Y-82141522D01*
X49450776Y-82204781D01*
X49268386Y-82297715D01*
X49102786Y-82418028D01*
X48958028Y-82562786D01*
X48837715Y-82728386D01*
X48744781Y-82910776D01*
X48681522Y-83105465D01*
X48649500Y-83307648D01*
X38183803Y-83307648D01*
X38185569Y-81897648D01*
X69039500Y-81897648D01*
X69039500Y-82102351D01*
X69071522Y-82304534D01*
X69134781Y-82499223D01*
X69227715Y-82681613D01*
X69348028Y-82847213D01*
X69492786Y-82991971D01*
X69647749Y-83104556D01*
X69658390Y-83112287D01*
X69774607Y-83171503D01*
X69840776Y-83205218D01*
X69840778Y-83205218D01*
X69840781Y-83205220D01*
X69945137Y-83239127D01*
X70035465Y-83268477D01*
X70136557Y-83284488D01*
X70237648Y-83300500D01*
X70237649Y-83300500D01*
X70442351Y-83300500D01*
X70442352Y-83300500D01*
X70644534Y-83268477D01*
X70839219Y-83205220D01*
X71021610Y-83112287D01*
X71114590Y-83044732D01*
X71187213Y-82991971D01*
X71187215Y-82991968D01*
X71187219Y-82991966D01*
X71331966Y-82847219D01*
X71331968Y-82847215D01*
X71331971Y-82847213D01*
X71397008Y-82757695D01*
X71452287Y-82681610D01*
X71545220Y-82499219D01*
X71608477Y-82304534D01*
X71640500Y-82102352D01*
X71640500Y-81897648D01*
X76659500Y-81897648D01*
X76659500Y-82102351D01*
X76691522Y-82304534D01*
X76754781Y-82499223D01*
X76847715Y-82681613D01*
X76968028Y-82847213D01*
X77112786Y-82991971D01*
X77267749Y-83104556D01*
X77278390Y-83112287D01*
X77394607Y-83171503D01*
X77460776Y-83205218D01*
X77460778Y-83205218D01*
X77460781Y-83205220D01*
X77565137Y-83239127D01*
X77655465Y-83268477D01*
X77756557Y-83284488D01*
X77857648Y-83300500D01*
X77857649Y-83300500D01*
X78062351Y-83300500D01*
X78062352Y-83300500D01*
X78264534Y-83268477D01*
X78459219Y-83205220D01*
X78641610Y-83112287D01*
X78734590Y-83044732D01*
X78807213Y-82991971D01*
X78807215Y-82991968D01*
X78807219Y-82991966D01*
X78951966Y-82847219D01*
X78954650Y-82843524D01*
X78985100Y-82801615D01*
X78989431Y-82798274D01*
X78991705Y-82793297D01*
X79016804Y-82777166D01*
X79040429Y-82758949D01*
X79047102Y-82757695D01*
X79050483Y-82755523D01*
X79085418Y-82750500D01*
X79214582Y-82750500D01*
X79281621Y-82770185D01*
X79314900Y-82801615D01*
X79348028Y-82847212D01*
X79348032Y-82847217D01*
X79492786Y-82991971D01*
X79647749Y-83104556D01*
X79658390Y-83112287D01*
X79774607Y-83171503D01*
X79840776Y-83205218D01*
X79840778Y-83205218D01*
X79840781Y-83205220D01*
X79945137Y-83239127D01*
X80035465Y-83268477D01*
X80136557Y-83284488D01*
X80237648Y-83300500D01*
X80237649Y-83300500D01*
X80442351Y-83300500D01*
X80442352Y-83300500D01*
X80644534Y-83268477D01*
X80839219Y-83205220D01*
X81021610Y-83112287D01*
X81114590Y-83044732D01*
X81187213Y-82991971D01*
X81187215Y-82991968D01*
X81187219Y-82991966D01*
X81331966Y-82847219D01*
X81331968Y-82847215D01*
X81331971Y-82847213D01*
X81397008Y-82757695D01*
X81452287Y-82681610D01*
X81545220Y-82499219D01*
X81608477Y-82304534D01*
X81640500Y-82102352D01*
X81640500Y-81897648D01*
X86659500Y-81897648D01*
X86659500Y-82102351D01*
X86691522Y-82304534D01*
X86754781Y-82499223D01*
X86847715Y-82681613D01*
X86968028Y-82847213D01*
X87112786Y-82991971D01*
X87267749Y-83104556D01*
X87278390Y-83112287D01*
X87394607Y-83171503D01*
X87460776Y-83205218D01*
X87460778Y-83205218D01*
X87460781Y-83205220D01*
X87565137Y-83239127D01*
X87655465Y-83268477D01*
X87756557Y-83284488D01*
X87857648Y-83300500D01*
X87857649Y-83300500D01*
X88062351Y-83300500D01*
X88062352Y-83300500D01*
X88264534Y-83268477D01*
X88459219Y-83205220D01*
X88641610Y-83112287D01*
X88734590Y-83044732D01*
X88807213Y-82991971D01*
X88807215Y-82991968D01*
X88807219Y-82991966D01*
X88951966Y-82847219D01*
X88951968Y-82847215D01*
X88951971Y-82847213D01*
X89017008Y-82757695D01*
X89072287Y-82681610D01*
X89165220Y-82499219D01*
X89228477Y-82304534D01*
X89260500Y-82102352D01*
X89260500Y-81897648D01*
X89228477Y-81695466D01*
X89165220Y-81500781D01*
X89165218Y-81500778D01*
X89165218Y-81500776D01*
X89131503Y-81434607D01*
X89072287Y-81318390D01*
X89017008Y-81242304D01*
X88951971Y-81152786D01*
X88807213Y-81008028D01*
X88641613Y-80887715D01*
X88641612Y-80887714D01*
X88641610Y-80887713D01*
X88584653Y-80858691D01*
X88459223Y-80794781D01*
X88264534Y-80731522D01*
X88089995Y-80703878D01*
X88062352Y-80699500D01*
X87857648Y-80699500D01*
X87833329Y-80703351D01*
X87655465Y-80731522D01*
X87460776Y-80794781D01*
X87278386Y-80887715D01*
X87112786Y-81008028D01*
X86968028Y-81152786D01*
X86847715Y-81318386D01*
X86754781Y-81500776D01*
X86691522Y-81695465D01*
X86659500Y-81897648D01*
X81640500Y-81897648D01*
X81608477Y-81695466D01*
X81545220Y-81500781D01*
X81545218Y-81500778D01*
X81545218Y-81500776D01*
X81511503Y-81434607D01*
X81452287Y-81318390D01*
X81397008Y-81242304D01*
X81331971Y-81152786D01*
X81187213Y-81008028D01*
X81021613Y-80887715D01*
X81021612Y-80887714D01*
X81021610Y-80887713D01*
X80964653Y-80858691D01*
X80839223Y-80794781D01*
X80644534Y-80731522D01*
X80469995Y-80703878D01*
X80442352Y-80699500D01*
X80237648Y-80699500D01*
X80213329Y-80703351D01*
X80035465Y-80731522D01*
X79840776Y-80794781D01*
X79658386Y-80887715D01*
X79492786Y-81008028D01*
X79348032Y-81152782D01*
X79348028Y-81152787D01*
X79314900Y-81198385D01*
X79310568Y-81201725D01*
X79308295Y-81206703D01*
X79283195Y-81222833D01*
X79259571Y-81241051D01*
X79252897Y-81242304D01*
X79249517Y-81244477D01*
X79214582Y-81249500D01*
X79085418Y-81249500D01*
X79018379Y-81229815D01*
X78985100Y-81198385D01*
X78951971Y-81152787D01*
X78951967Y-81152782D01*
X78807213Y-81008028D01*
X78641613Y-80887715D01*
X78641612Y-80887714D01*
X78641610Y-80887713D01*
X78584653Y-80858691D01*
X78459223Y-80794781D01*
X78264534Y-80731522D01*
X78089995Y-80703878D01*
X78062352Y-80699500D01*
X77857648Y-80699500D01*
X77833329Y-80703351D01*
X77655465Y-80731522D01*
X77460776Y-80794781D01*
X77278386Y-80887715D01*
X77112786Y-81008028D01*
X76968028Y-81152786D01*
X76847715Y-81318386D01*
X76754781Y-81500776D01*
X76691522Y-81695465D01*
X76659500Y-81897648D01*
X71640500Y-81897648D01*
X71608477Y-81695466D01*
X71545220Y-81500781D01*
X71545218Y-81500778D01*
X71545218Y-81500776D01*
X71511503Y-81434607D01*
X71452287Y-81318390D01*
X71397008Y-81242304D01*
X71331971Y-81152786D01*
X71187213Y-81008028D01*
X71021613Y-80887715D01*
X71021612Y-80887714D01*
X71021610Y-80887713D01*
X70964653Y-80858691D01*
X70839223Y-80794781D01*
X70644534Y-80731522D01*
X70469995Y-80703878D01*
X70442352Y-80699500D01*
X70237648Y-80699500D01*
X70213329Y-80703351D01*
X70035465Y-80731522D01*
X69840776Y-80794781D01*
X69658386Y-80887715D01*
X69492786Y-81008028D01*
X69348028Y-81152786D01*
X69227715Y-81318386D01*
X69134781Y-81500776D01*
X69071522Y-81695465D01*
X69039500Y-81897648D01*
X38185569Y-81897648D01*
X38196527Y-73147648D01*
X48649500Y-73147648D01*
X48649500Y-73352351D01*
X48681522Y-73554534D01*
X48744781Y-73749223D01*
X48837715Y-73931613D01*
X48958028Y-74097213D01*
X49102786Y-74241971D01*
X49257749Y-74354556D01*
X49268390Y-74362287D01*
X49384607Y-74421503D01*
X49450776Y-74455218D01*
X49450778Y-74455218D01*
X49450781Y-74455220D01*
X49555137Y-74489127D01*
X49645465Y-74518477D01*
X49744331Y-74534136D01*
X49847648Y-74550500D01*
X49847649Y-74550500D01*
X50052351Y-74550500D01*
X50052352Y-74550500D01*
X50254534Y-74518477D01*
X50449219Y-74455220D01*
X50631610Y-74362287D01*
X50735173Y-74287045D01*
X50797213Y-74241971D01*
X50797215Y-74241968D01*
X50797219Y-74241966D01*
X50941966Y-74097219D01*
X50944650Y-74093524D01*
X50975100Y-74051615D01*
X51030429Y-74008949D01*
X51075418Y-74000500D01*
X55223796Y-74000500D01*
X55290835Y-74020185D01*
X55315530Y-74041736D01*
X55315610Y-74041657D01*
X55316773Y-74042820D01*
X55318077Y-74043958D01*
X55319050Y-74045097D01*
X55319055Y-74045102D01*
X55454898Y-74180945D01*
X55610319Y-74293865D01*
X55744598Y-74362284D01*
X55781493Y-74381083D01*
X55846081Y-74402069D01*
X55903756Y-74441506D01*
X55930955Y-74505865D01*
X55919041Y-74574711D01*
X55871797Y-74626187D01*
X55846081Y-74637931D01*
X55781493Y-74658916D01*
X55610318Y-74746135D01*
X55521645Y-74810560D01*
X55454898Y-74859055D01*
X55454896Y-74859057D01*
X55454895Y-74859057D01*
X55319057Y-74994895D01*
X55319057Y-74994896D01*
X55319055Y-74994898D01*
X55302695Y-75017416D01*
X55206135Y-75150318D01*
X55118916Y-75321493D01*
X55059553Y-75504197D01*
X55029500Y-75693945D01*
X55029500Y-75886054D01*
X55059553Y-76075802D01*
X55118916Y-76258506D01*
X55118918Y-76258509D01*
X55206135Y-76429681D01*
X55319055Y-76585102D01*
X55454898Y-76720945D01*
X55610319Y-76833865D01*
X55781491Y-76921082D01*
X55781495Y-76921084D01*
X55846890Y-76942332D01*
X55904566Y-76981769D01*
X55931765Y-77046127D01*
X55919851Y-77114974D01*
X55872607Y-77166450D01*
X55846893Y-77178194D01*
X55781677Y-77199384D01*
X55610578Y-77286564D01*
X55581352Y-77307798D01*
X55581351Y-77307798D01*
X56203554Y-77930000D01*
X56197339Y-77930000D01*
X56095606Y-77957259D01*
X56004394Y-78009920D01*
X55929920Y-78084394D01*
X55877259Y-78175606D01*
X55850000Y-78277339D01*
X55850000Y-78283553D01*
X55227798Y-77661351D01*
X55227798Y-77661352D01*
X55206564Y-77690578D01*
X55119383Y-77861678D01*
X55060040Y-78044315D01*
X55030000Y-78233984D01*
X55030000Y-78426015D01*
X55060040Y-78615684D01*
X55119383Y-78798321D01*
X55206561Y-78969415D01*
X55227798Y-78998646D01*
X55850000Y-78376445D01*
X55850000Y-78382661D01*
X55877259Y-78484394D01*
X55929920Y-78575606D01*
X56004394Y-78650080D01*
X56095606Y-78702741D01*
X56197339Y-78730000D01*
X56203554Y-78730000D01*
X55581351Y-79352200D01*
X55581352Y-79352201D01*
X55610577Y-79373434D01*
X55781678Y-79460616D01*
X55964315Y-79519959D01*
X56153985Y-79550000D01*
X56346015Y-79550000D01*
X56535684Y-79519959D01*
X56718321Y-79460616D01*
X56889419Y-79373436D01*
X56918646Y-79352201D01*
X56918646Y-79352200D01*
X56296447Y-78730000D01*
X56302661Y-78730000D01*
X56404394Y-78702741D01*
X56495606Y-78650080D01*
X56570080Y-78575606D01*
X56622741Y-78484394D01*
X56650000Y-78382661D01*
X56650000Y-78376446D01*
X57272200Y-78998646D01*
X57272201Y-78998646D01*
X57293436Y-78969419D01*
X57380616Y-78798321D01*
X57439959Y-78615684D01*
X57470000Y-78426015D01*
X57470000Y-78233984D01*
X57439959Y-78044315D01*
X57380616Y-77861678D01*
X57293434Y-77690577D01*
X57272201Y-77661352D01*
X57272200Y-77661351D01*
X56650000Y-78283552D01*
X56650000Y-78277339D01*
X56622741Y-78175606D01*
X56570080Y-78084394D01*
X56495606Y-78009920D01*
X56404394Y-77957259D01*
X56302661Y-77930000D01*
X56296447Y-77930000D01*
X56918646Y-77307798D01*
X56889415Y-77286561D01*
X56718321Y-77199383D01*
X56653107Y-77178194D01*
X56595432Y-77138756D01*
X56568234Y-77074397D01*
X56580149Y-77005551D01*
X56627394Y-76954075D01*
X56653109Y-76942332D01*
X56718504Y-76921084D01*
X56718506Y-76921082D01*
X56718509Y-76921082D01*
X56889681Y-76833865D01*
X57045102Y-76720945D01*
X57180945Y-76585102D01*
X57204897Y-76552135D01*
X83549500Y-76552135D01*
X83549500Y-77647870D01*
X83549501Y-77647876D01*
X83555908Y-77707483D01*
X83606202Y-77842328D01*
X83606206Y-77842335D01*
X83692452Y-77957544D01*
X83692455Y-77957547D01*
X83807664Y-78043793D01*
X83807671Y-78043797D01*
X83942517Y-78094091D01*
X83942516Y-78094091D01*
X83949444Y-78094835D01*
X84002127Y-78100500D01*
X85097872Y-78100499D01*
X85157483Y-78094091D01*
X85292331Y-78043796D01*
X85407546Y-77957546D01*
X85493796Y-77842331D01*
X85544091Y-77707483D01*
X85550500Y-77647873D01*
X85550500Y-77452135D01*
X92049500Y-77452135D01*
X92049500Y-80747870D01*
X92049501Y-80747876D01*
X92055908Y-80807483D01*
X92106202Y-80942328D01*
X92106206Y-80942335D01*
X92192452Y-81057544D01*
X92192455Y-81057547D01*
X92307664Y-81143793D01*
X92307671Y-81143797D01*
X92442517Y-81194091D01*
X92442516Y-81194091D01*
X92449444Y-81194835D01*
X92502127Y-81200500D01*
X95797872Y-81200499D01*
X95857483Y-81194091D01*
X95992331Y-81143796D01*
X96107546Y-81057546D01*
X96193796Y-80942331D01*
X96244091Y-80807483D01*
X96250500Y-80747873D01*
X96250500Y-80724500D01*
X96270185Y-80657461D01*
X96322989Y-80611706D01*
X96374500Y-80600500D01*
X105788819Y-80600500D01*
X105827139Y-80606570D01*
X105848624Y-80613551D01*
X105848627Y-80613551D01*
X105848632Y-80613553D01*
X105956673Y-80630664D01*
X106081903Y-80650500D01*
X106081908Y-80650500D01*
X106318092Y-80650500D01*
X107977111Y-80650500D01*
X108044150Y-80670185D01*
X108064792Y-80686819D01*
X114181380Y-86803407D01*
X114214865Y-86864730D01*
X114216919Y-86904971D01*
X114199500Y-87059568D01*
X114199500Y-87340431D01*
X114230942Y-87619494D01*
X114230945Y-87619512D01*
X114293439Y-87893317D01*
X114293443Y-87893329D01*
X114386200Y-88158411D01*
X114508053Y-88411442D01*
X114508055Y-88411445D01*
X114657477Y-88649248D01*
X114832584Y-88868825D01*
X115031175Y-89067416D01*
X115250752Y-89242523D01*
X115488555Y-89391945D01*
X115741592Y-89513801D01*
X115940680Y-89583465D01*
X116006670Y-89606556D01*
X116006682Y-89606560D01*
X116280491Y-89669055D01*
X116280497Y-89669055D01*
X116280505Y-89669057D01*
X116466547Y-89690018D01*
X116559569Y-89700499D01*
X116559572Y-89700500D01*
X116559575Y-89700500D01*
X116840428Y-89700500D01*
X116840429Y-89700499D01*
X116983055Y-89684429D01*
X117119494Y-89669057D01*
X117119499Y-89669056D01*
X117119509Y-89669055D01*
X117393318Y-89606560D01*
X117658408Y-89513801D01*
X117911445Y-89391945D01*
X118149248Y-89242523D01*
X118368825Y-89067416D01*
X118567416Y-88868825D01*
X118664419Y-88747186D01*
X118721607Y-88707047D01*
X118761366Y-88700500D01*
X123788634Y-88700500D01*
X123855673Y-88720185D01*
X123885580Y-88747186D01*
X123982584Y-88868825D01*
X124181175Y-89067416D01*
X124400752Y-89242523D01*
X124638555Y-89391945D01*
X124891592Y-89513801D01*
X125090680Y-89583465D01*
X125156670Y-89606556D01*
X125156682Y-89606560D01*
X125430491Y-89669055D01*
X125430497Y-89669055D01*
X125430505Y-89669057D01*
X125616547Y-89690018D01*
X125709569Y-89700499D01*
X125709572Y-89700500D01*
X125709575Y-89700500D01*
X125990428Y-89700500D01*
X125990429Y-89700499D01*
X126133055Y-89684429D01*
X126269494Y-89669057D01*
X126269499Y-89669056D01*
X126269509Y-89669055D01*
X126543318Y-89606560D01*
X126808408Y-89513801D01*
X127061445Y-89391945D01*
X127299248Y-89242523D01*
X127518825Y-89067416D01*
X127717416Y-88868825D01*
X127892523Y-88649248D01*
X128041945Y-88411445D01*
X128163801Y-88158408D01*
X128256560Y-87893318D01*
X128319055Y-87619509D01*
X128320191Y-87609433D01*
X128343493Y-87402614D01*
X128350500Y-87340425D01*
X128350500Y-87059575D01*
X128337249Y-86941966D01*
X128319057Y-86780505D01*
X128319054Y-86780487D01*
X128256560Y-86506682D01*
X128256556Y-86506670D01*
X128233465Y-86440680D01*
X128163801Y-86241592D01*
X128041945Y-85988555D01*
X127892523Y-85750752D01*
X127717416Y-85531175D01*
X127518825Y-85332584D01*
X127299248Y-85157477D01*
X127061445Y-85008055D01*
X127061442Y-85008053D01*
X126808411Y-84886200D01*
X126543329Y-84793443D01*
X126543317Y-84793439D01*
X126269512Y-84730945D01*
X126269494Y-84730942D01*
X125990431Y-84699500D01*
X125990425Y-84699500D01*
X125709575Y-84699500D01*
X125709568Y-84699500D01*
X125430505Y-84730942D01*
X125430487Y-84730945D01*
X125156682Y-84793439D01*
X125156670Y-84793443D01*
X124891588Y-84886200D01*
X124638557Y-85008053D01*
X124400753Y-85157476D01*
X124181175Y-85332583D01*
X123982583Y-85531175D01*
X123885581Y-85652813D01*
X123828393Y-85692953D01*
X123788634Y-85699500D01*
X118761366Y-85699500D01*
X118694327Y-85679815D01*
X118664419Y-85652813D01*
X118627014Y-85605909D01*
X118567416Y-85531175D01*
X118368825Y-85332584D01*
X118149248Y-85157477D01*
X117911445Y-85008055D01*
X117911442Y-85008053D01*
X117658411Y-84886200D01*
X117393329Y-84793443D01*
X117393317Y-84793439D01*
X117119512Y-84730945D01*
X117119494Y-84730942D01*
X116840431Y-84699500D01*
X116840425Y-84699500D01*
X116559575Y-84699500D01*
X116559568Y-84699500D01*
X116404971Y-84716919D01*
X116336150Y-84704864D01*
X116303407Y-84681380D01*
X109627511Y-78005484D01*
X109436434Y-77866657D01*
X109225996Y-77759433D01*
X109001368Y-77686446D01*
X108768097Y-77649500D01*
X108768092Y-77649500D01*
X106561181Y-77649500D01*
X106522861Y-77643430D01*
X106501375Y-77636448D01*
X106501369Y-77636447D01*
X106268097Y-77599500D01*
X106268092Y-77599500D01*
X96374499Y-77599500D01*
X96307460Y-77579815D01*
X96261705Y-77527011D01*
X96250499Y-77475500D01*
X96250499Y-77452129D01*
X96250498Y-77452123D01*
X96250497Y-77452116D01*
X96244091Y-77392517D01*
X96193796Y-77257669D01*
X96193795Y-77257668D01*
X96193793Y-77257664D01*
X96107547Y-77142455D01*
X96107544Y-77142452D01*
X95992335Y-77056206D01*
X95992328Y-77056202D01*
X95857482Y-77005908D01*
X95857483Y-77005908D01*
X95797883Y-76999501D01*
X95797881Y-76999500D01*
X95797873Y-76999500D01*
X95797864Y-76999500D01*
X92502129Y-76999500D01*
X92502123Y-76999501D01*
X92442516Y-77005908D01*
X92307671Y-77056202D01*
X92307664Y-77056206D01*
X92192455Y-77142452D01*
X92192452Y-77142455D01*
X92106206Y-77257664D01*
X92106202Y-77257671D01*
X92055908Y-77392517D01*
X92049857Y-77448806D01*
X92049501Y-77452123D01*
X92049500Y-77452135D01*
X85550500Y-77452135D01*
X85550499Y-77074397D01*
X85550499Y-76552129D01*
X85550498Y-76552123D01*
X85550497Y-76552116D01*
X85544091Y-76492517D01*
X85493796Y-76357669D01*
X85493795Y-76357668D01*
X85493793Y-76357664D01*
X85407547Y-76242455D01*
X85407544Y-76242452D01*
X85292335Y-76156206D01*
X85292328Y-76156202D01*
X85157482Y-76105908D01*
X85157483Y-76105908D01*
X85097883Y-76099501D01*
X85097881Y-76099500D01*
X85097873Y-76099500D01*
X85097864Y-76099500D01*
X84002129Y-76099500D01*
X84002123Y-76099501D01*
X83942516Y-76105908D01*
X83807671Y-76156202D01*
X83807664Y-76156206D01*
X83692455Y-76242452D01*
X83692452Y-76242455D01*
X83606206Y-76357664D01*
X83606202Y-76357671D01*
X83555908Y-76492517D01*
X83549501Y-76552116D01*
X83549501Y-76552123D01*
X83549500Y-76552135D01*
X57204897Y-76552135D01*
X57293865Y-76429681D01*
X57381082Y-76258509D01*
X57440447Y-76075801D01*
X57470500Y-75886055D01*
X57470500Y-75693945D01*
X57440447Y-75504199D01*
X57381082Y-75321491D01*
X57293865Y-75150319D01*
X57180945Y-74994898D01*
X57045102Y-74859055D01*
X56889681Y-74746135D01*
X56718504Y-74658915D01*
X56653919Y-74637931D01*
X56596243Y-74598494D01*
X56569044Y-74534136D01*
X56580958Y-74465289D01*
X56628202Y-74413813D01*
X56653919Y-74402069D01*
X56718504Y-74381084D01*
X56718506Y-74381082D01*
X56718509Y-74381082D01*
X56889681Y-74293865D01*
X57045102Y-74180945D01*
X57180945Y-74045102D01*
X57180949Y-74045097D01*
X57181923Y-74043958D01*
X57182400Y-74043646D01*
X57184390Y-74041657D01*
X57184808Y-74042075D01*
X57240434Y-74005771D01*
X57276204Y-74000500D01*
X63924582Y-74000500D01*
X63991621Y-74020185D01*
X64024900Y-74051615D01*
X64058028Y-74097212D01*
X64058032Y-74097217D01*
X64202786Y-74241971D01*
X64357749Y-74354556D01*
X64368390Y-74362287D01*
X64484607Y-74421503D01*
X64550776Y-74455218D01*
X64550778Y-74455218D01*
X64550781Y-74455220D01*
X64655137Y-74489127D01*
X64745465Y-74518477D01*
X64844331Y-74534136D01*
X64947648Y-74550500D01*
X64947649Y-74550500D01*
X65152351Y-74550500D01*
X65152352Y-74550500D01*
X65354534Y-74518477D01*
X65549219Y-74455220D01*
X65731610Y-74362287D01*
X65897219Y-74241966D01*
X66041966Y-74097219D01*
X66041968Y-74097215D01*
X66041971Y-74097213D01*
X66149684Y-73948956D01*
X66162287Y-73931610D01*
X66255220Y-73749219D01*
X66318477Y-73554534D01*
X66350500Y-73352352D01*
X66350500Y-73147648D01*
X66323710Y-72978503D01*
X66318477Y-72945465D01*
X66255218Y-72750776D01*
X66177624Y-72598491D01*
X66162287Y-72568390D01*
X66112600Y-72500001D01*
X66041971Y-72402786D01*
X65998783Y-72359598D01*
X111100000Y-72359598D01*
X111100000Y-72640401D01*
X111131437Y-72919412D01*
X111131439Y-72919424D01*
X111193921Y-73193178D01*
X111193922Y-73193180D01*
X111286662Y-73458217D01*
X111408492Y-73711200D01*
X111557884Y-73948956D01*
X111664187Y-74082257D01*
X112737425Y-73009019D01*
X112823249Y-73137463D01*
X112962537Y-73276751D01*
X113090979Y-73362573D01*
X112017741Y-74435810D01*
X112017741Y-74435811D01*
X112151043Y-74542115D01*
X112388799Y-74691507D01*
X112641782Y-74813337D01*
X112906819Y-74906077D01*
X112906821Y-74906078D01*
X113180575Y-74968560D01*
X113180587Y-74968562D01*
X113459598Y-74999999D01*
X113459600Y-75000000D01*
X113740400Y-75000000D01*
X113740401Y-74999999D01*
X114019412Y-74968562D01*
X114019424Y-74968560D01*
X114293178Y-74906078D01*
X114293180Y-74906077D01*
X114558217Y-74813337D01*
X114811200Y-74691507D01*
X115048956Y-74542116D01*
X115182257Y-74435810D01*
X114109020Y-73362573D01*
X114237463Y-73276751D01*
X114376751Y-73137463D01*
X114462573Y-73009020D01*
X115535810Y-74082257D01*
X115642116Y-73948956D01*
X115791507Y-73711200D01*
X115913337Y-73458217D01*
X116006077Y-73193180D01*
X116006078Y-73193178D01*
X116047986Y-73009568D01*
X123349500Y-73009568D01*
X123349500Y-73290431D01*
X123380942Y-73569494D01*
X123380945Y-73569512D01*
X123443439Y-73843317D01*
X123443443Y-73843329D01*
X123536200Y-74108411D01*
X123658053Y-74361442D01*
X123658055Y-74361445D01*
X123807477Y-74599248D01*
X123982584Y-74818825D01*
X124181175Y-75017416D01*
X124400752Y-75192523D01*
X124638555Y-75341945D01*
X124891592Y-75463801D01*
X125090680Y-75533465D01*
X125156670Y-75556556D01*
X125156682Y-75556560D01*
X125430491Y-75619055D01*
X125430497Y-75619055D01*
X125430505Y-75619057D01*
X125616547Y-75640018D01*
X125709569Y-75650499D01*
X125709572Y-75650500D01*
X125709575Y-75650500D01*
X125990428Y-75650500D01*
X125990429Y-75650499D01*
X126133055Y-75634429D01*
X126269494Y-75619057D01*
X126269499Y-75619056D01*
X126269509Y-75619055D01*
X126543318Y-75556560D01*
X126808408Y-75463801D01*
X127061445Y-75341945D01*
X127299248Y-75192523D01*
X127518825Y-75017416D01*
X127717416Y-74818825D01*
X127892523Y-74599248D01*
X128041945Y-74361445D01*
X128163801Y-74108408D01*
X128256560Y-73843318D01*
X128319055Y-73569509D01*
X128320743Y-73554534D01*
X128339710Y-73386189D01*
X128350500Y-73290425D01*
X128350500Y-73009575D01*
X128332921Y-72853554D01*
X128319057Y-72730505D01*
X128319054Y-72730487D01*
X128256560Y-72456682D01*
X128256556Y-72456670D01*
X128233465Y-72390680D01*
X128163801Y-72191592D01*
X128041945Y-71938555D01*
X127892523Y-71700752D01*
X127717416Y-71481175D01*
X127518825Y-71282584D01*
X127299248Y-71107477D01*
X127061445Y-70958055D01*
X127061442Y-70958053D01*
X126808411Y-70836200D01*
X126543329Y-70743443D01*
X126543317Y-70743439D01*
X126269512Y-70680945D01*
X126269494Y-70680942D01*
X125990431Y-70649500D01*
X125990425Y-70649500D01*
X125709575Y-70649500D01*
X125709568Y-70649500D01*
X125430505Y-70680942D01*
X125430487Y-70680945D01*
X125156682Y-70743439D01*
X125156670Y-70743443D01*
X124891588Y-70836200D01*
X124638557Y-70958053D01*
X124400753Y-71107476D01*
X124181175Y-71282583D01*
X123982583Y-71481175D01*
X123807476Y-71700753D01*
X123658053Y-71938557D01*
X123536200Y-72191588D01*
X123443443Y-72456670D01*
X123443439Y-72456682D01*
X123380945Y-72730487D01*
X123380942Y-72730505D01*
X123349500Y-73009568D01*
X116047986Y-73009568D01*
X116055077Y-72978503D01*
X116055077Y-72978502D01*
X116068560Y-72919429D01*
X116068562Y-72919412D01*
X116099999Y-72640401D01*
X116100000Y-72640399D01*
X116100000Y-72359600D01*
X116099999Y-72359598D01*
X116068562Y-72080587D01*
X116068560Y-72080575D01*
X116006078Y-71806821D01*
X116006077Y-71806819D01*
X115913337Y-71541782D01*
X115791507Y-71288799D01*
X115642115Y-71051043D01*
X115535810Y-70917741D01*
X114462573Y-71990978D01*
X114376751Y-71862537D01*
X114237463Y-71723249D01*
X114109020Y-71637425D01*
X115182257Y-70564187D01*
X115048956Y-70457884D01*
X114811200Y-70308492D01*
X114558217Y-70186662D01*
X114293180Y-70093922D01*
X114293178Y-70093921D01*
X114019424Y-70031439D01*
X114019412Y-70031437D01*
X113740401Y-70000000D01*
X113459598Y-70000000D01*
X113180587Y-70031437D01*
X113180575Y-70031439D01*
X112906821Y-70093921D01*
X112906819Y-70093922D01*
X112641782Y-70186662D01*
X112388799Y-70308492D01*
X112151043Y-70457884D01*
X112017741Y-70564187D01*
X113090979Y-71637425D01*
X112962537Y-71723249D01*
X112823249Y-71862537D01*
X112737426Y-71990979D01*
X111664187Y-70917741D01*
X111557884Y-71051043D01*
X111408492Y-71288799D01*
X111286662Y-71541782D01*
X111193922Y-71806819D01*
X111193921Y-71806821D01*
X111131439Y-72080575D01*
X111131437Y-72080587D01*
X111100000Y-72359598D01*
X65998783Y-72359598D01*
X65897213Y-72258028D01*
X65731613Y-72137715D01*
X65731612Y-72137714D01*
X65731610Y-72137713D01*
X65674653Y-72108691D01*
X65549223Y-72044781D01*
X65354534Y-71981522D01*
X65154454Y-71949833D01*
X65152352Y-71949500D01*
X64947648Y-71949500D01*
X64945546Y-71949833D01*
X64745465Y-71981522D01*
X64550776Y-72044781D01*
X64368386Y-72137715D01*
X64202786Y-72258028D01*
X64058032Y-72402782D01*
X64058028Y-72402787D01*
X64024900Y-72448385D01*
X63969571Y-72491051D01*
X63924582Y-72499500D01*
X57276204Y-72499500D01*
X57209165Y-72479815D01*
X57184469Y-72458263D01*
X57184390Y-72458343D01*
X57183226Y-72457179D01*
X57181923Y-72456042D01*
X57180949Y-72454902D01*
X57045104Y-72319057D01*
X57045102Y-72319055D01*
X56889681Y-72206135D01*
X56861131Y-72191588D01*
X56718506Y-72118916D01*
X56535802Y-72059553D01*
X56427047Y-72042328D01*
X56346055Y-72029500D01*
X56153945Y-72029500D01*
X56090696Y-72039517D01*
X55964197Y-72059553D01*
X55781493Y-72118916D01*
X55610318Y-72206135D01*
X55538894Y-72258028D01*
X55454898Y-72319055D01*
X55454896Y-72319057D01*
X55454895Y-72319057D01*
X55319050Y-72454902D01*
X55318077Y-72456042D01*
X55317599Y-72456353D01*
X55315610Y-72458343D01*
X55315191Y-72457924D01*
X55259566Y-72494229D01*
X55223796Y-72499500D01*
X51075418Y-72499500D01*
X51008379Y-72479815D01*
X50975100Y-72448385D01*
X50941971Y-72402787D01*
X50941967Y-72402782D01*
X50797213Y-72258028D01*
X50631613Y-72137715D01*
X50631612Y-72137714D01*
X50631610Y-72137713D01*
X50574653Y-72108691D01*
X50449223Y-72044781D01*
X50254534Y-71981522D01*
X50054454Y-71949833D01*
X50052352Y-71949500D01*
X49847648Y-71949500D01*
X49845546Y-71949833D01*
X49645465Y-71981522D01*
X49450776Y-72044781D01*
X49268386Y-72137715D01*
X49102786Y-72258028D01*
X48958028Y-72402786D01*
X48837715Y-72568386D01*
X48744781Y-72750776D01*
X48681522Y-72945465D01*
X48649500Y-73147648D01*
X38196527Y-73147648D01*
X38200532Y-69950000D01*
X83064791Y-69950000D01*
X84387639Y-69950000D01*
X84380743Y-69966649D01*
X84350000Y-70121207D01*
X84350000Y-70278793D01*
X84380743Y-70433351D01*
X84387639Y-70450000D01*
X83064792Y-70450000D01*
X83085930Y-70610565D01*
X83157180Y-70876471D01*
X83262520Y-71130787D01*
X83262527Y-71130802D01*
X83400166Y-71369201D01*
X83567749Y-71587597D01*
X83567757Y-71587606D01*
X83762394Y-71782243D01*
X83762402Y-71782250D01*
X83980798Y-71949833D01*
X84219197Y-72087472D01*
X84219212Y-72087479D01*
X84473528Y-72192819D01*
X84739431Y-72264068D01*
X84739438Y-72264069D01*
X84899999Y-72285206D01*
X84900000Y-72285206D01*
X84900000Y-70962360D01*
X84916649Y-70969257D01*
X85071207Y-71000000D01*
X85228793Y-71000000D01*
X85383351Y-70969257D01*
X85400000Y-70962360D01*
X85400000Y-72285206D01*
X85560561Y-72264069D01*
X85560568Y-72264068D01*
X85826471Y-72192819D01*
X86080787Y-72087479D01*
X86080802Y-72087472D01*
X86319201Y-71949833D01*
X86537597Y-71782250D01*
X86537606Y-71782243D01*
X86732243Y-71587606D01*
X86732250Y-71587597D01*
X86899833Y-71369201D01*
X87037472Y-71130802D01*
X87037479Y-71130787D01*
X87142819Y-70876471D01*
X87214069Y-70610565D01*
X87235208Y-70450000D01*
X85912361Y-70450000D01*
X85919257Y-70433351D01*
X85950000Y-70278793D01*
X85950000Y-70121207D01*
X85919257Y-69966649D01*
X85912361Y-69950000D01*
X87235208Y-69950000D01*
X87214069Y-69789434D01*
X87142819Y-69523528D01*
X87037479Y-69269212D01*
X87037472Y-69269197D01*
X86899833Y-69030798D01*
X86732250Y-68812402D01*
X86732243Y-68812394D01*
X86537606Y-68617757D01*
X86537597Y-68617749D01*
X86452088Y-68552135D01*
X103049500Y-68552135D01*
X103049500Y-71847870D01*
X103049501Y-71847876D01*
X103055908Y-71907483D01*
X103106202Y-72042328D01*
X103106206Y-72042335D01*
X103192452Y-72157544D01*
X103192455Y-72157547D01*
X103307664Y-72243793D01*
X103307671Y-72243797D01*
X103442517Y-72294091D01*
X103442516Y-72294091D01*
X103449444Y-72294835D01*
X103502127Y-72300500D01*
X106797872Y-72300499D01*
X106857483Y-72294091D01*
X106992331Y-72243796D01*
X107107546Y-72157546D01*
X107193796Y-72042331D01*
X107244091Y-71907483D01*
X107250500Y-71847873D01*
X107250499Y-70272887D01*
X107270184Y-70205849D01*
X107286813Y-70185212D01*
X111285208Y-66186819D01*
X111346531Y-66153334D01*
X111372889Y-66150500D01*
X123788634Y-66150500D01*
X123855673Y-66170185D01*
X123885580Y-66197186D01*
X123982584Y-66318825D01*
X124181175Y-66517416D01*
X124400752Y-66692523D01*
X124638555Y-66841945D01*
X124891592Y-66963801D01*
X125090680Y-67033465D01*
X125156670Y-67056556D01*
X125156682Y-67056560D01*
X125430491Y-67119055D01*
X125430497Y-67119055D01*
X125430505Y-67119057D01*
X125616547Y-67140018D01*
X125709569Y-67150499D01*
X125709572Y-67150500D01*
X125709575Y-67150500D01*
X125990428Y-67150500D01*
X125990429Y-67150499D01*
X126133055Y-67134429D01*
X126269494Y-67119057D01*
X126269499Y-67119056D01*
X126269509Y-67119055D01*
X126543318Y-67056560D01*
X126808408Y-66963801D01*
X127061445Y-66841945D01*
X127299248Y-66692523D01*
X127518825Y-66517416D01*
X127717416Y-66318825D01*
X127892523Y-66099248D01*
X128041945Y-65861445D01*
X128163801Y-65608408D01*
X128256560Y-65343318D01*
X128319055Y-65069509D01*
X128326831Y-65000500D01*
X128342937Y-64857546D01*
X128350500Y-64790425D01*
X128350500Y-64509575D01*
X128319055Y-64230491D01*
X128256560Y-63956682D01*
X128252051Y-63943797D01*
X128217058Y-63843793D01*
X128163801Y-63691592D01*
X128041945Y-63438555D01*
X127892523Y-63200752D01*
X127717416Y-62981175D01*
X127518825Y-62782584D01*
X127299248Y-62607477D01*
X127061445Y-62458055D01*
X127061442Y-62458053D01*
X126808411Y-62336200D01*
X126543329Y-62243443D01*
X126543317Y-62243439D01*
X126269512Y-62180945D01*
X126269494Y-62180942D01*
X125990431Y-62149500D01*
X125990425Y-62149500D01*
X125709575Y-62149500D01*
X125709568Y-62149500D01*
X125430505Y-62180942D01*
X125430487Y-62180945D01*
X125156682Y-62243439D01*
X125156670Y-62243443D01*
X124891588Y-62336200D01*
X124638557Y-62458053D01*
X124400753Y-62607476D01*
X124181175Y-62782583D01*
X123982583Y-62981175D01*
X123885581Y-63102813D01*
X123828393Y-63142953D01*
X123788634Y-63149500D01*
X110581903Y-63149500D01*
X110348631Y-63186446D01*
X110177976Y-63241896D01*
X110136125Y-63255495D01*
X110131880Y-63256874D01*
X110124006Y-63259432D01*
X109913565Y-63366657D01*
X109722488Y-63505484D01*
X109722487Y-63505485D01*
X105164790Y-68063181D01*
X105103467Y-68096666D01*
X105077109Y-68099500D01*
X103502129Y-68099500D01*
X103502123Y-68099501D01*
X103442516Y-68105908D01*
X103307671Y-68156202D01*
X103307664Y-68156206D01*
X103192455Y-68242452D01*
X103192452Y-68242455D01*
X103106206Y-68357664D01*
X103106202Y-68357671D01*
X103055908Y-68492517D01*
X103049501Y-68552116D01*
X103049500Y-68552135D01*
X86452088Y-68552135D01*
X86319201Y-68450166D01*
X86080802Y-68312527D01*
X86080787Y-68312520D01*
X85826471Y-68207180D01*
X85560565Y-68135930D01*
X85400000Y-68114791D01*
X85400000Y-69437639D01*
X85383351Y-69430743D01*
X85228793Y-69400000D01*
X85071207Y-69400000D01*
X84916649Y-69430743D01*
X84900000Y-69437639D01*
X84900000Y-68114791D01*
X84739434Y-68135930D01*
X84473528Y-68207180D01*
X84219212Y-68312520D01*
X84219197Y-68312527D01*
X83980798Y-68450166D01*
X83762402Y-68617749D01*
X83567749Y-68812402D01*
X83400166Y-69030798D01*
X83262527Y-69269197D01*
X83262520Y-69269212D01*
X83157180Y-69523528D01*
X83085930Y-69789434D01*
X83064791Y-69950000D01*
X38200532Y-69950000D01*
X38204492Y-66787648D01*
X48649500Y-66787648D01*
X48649500Y-66992351D01*
X48681522Y-67194534D01*
X48744781Y-67389223D01*
X48837715Y-67571613D01*
X48958028Y-67737213D01*
X49102786Y-67881971D01*
X49257749Y-67994556D01*
X49268390Y-68002287D01*
X49384607Y-68061503D01*
X49450776Y-68095218D01*
X49450778Y-68095218D01*
X49450781Y-68095220D01*
X49555137Y-68129127D01*
X49645465Y-68158477D01*
X49746557Y-68174488D01*
X49847648Y-68190500D01*
X49847649Y-68190500D01*
X50052351Y-68190500D01*
X50052352Y-68190500D01*
X50254534Y-68158477D01*
X50449219Y-68095220D01*
X50631610Y-68002287D01*
X50725787Y-67933864D01*
X50797213Y-67881971D01*
X50797215Y-67881968D01*
X50797219Y-67881966D01*
X50941966Y-67737219D01*
X50944650Y-67733524D01*
X50975100Y-67691615D01*
X51030429Y-67648949D01*
X51075418Y-67640500D01*
X55223796Y-67640500D01*
X55290835Y-67660185D01*
X55315530Y-67681736D01*
X55315610Y-67681657D01*
X55316773Y-67682820D01*
X55318077Y-67683958D01*
X55319050Y-67685097D01*
X55319055Y-67685102D01*
X55454898Y-67820945D01*
X55610319Y-67933865D01*
X55744598Y-68002284D01*
X55781493Y-68021083D01*
X55872845Y-68050764D01*
X55964199Y-68080447D01*
X56153945Y-68110500D01*
X56153946Y-68110500D01*
X56346054Y-68110500D01*
X56346055Y-68110500D01*
X56535801Y-68080447D01*
X56718509Y-68021082D01*
X56889681Y-67933865D01*
X57045102Y-67820945D01*
X57180945Y-67685102D01*
X57180949Y-67685097D01*
X57181923Y-67683958D01*
X57182400Y-67683646D01*
X57184390Y-67681657D01*
X57184808Y-67682075D01*
X57240434Y-67645771D01*
X57276204Y-67640500D01*
X63974582Y-67640500D01*
X64041621Y-67660185D01*
X64074900Y-67691615D01*
X64108028Y-67737212D01*
X64108032Y-67737217D01*
X64252786Y-67881971D01*
X64407749Y-67994556D01*
X64418390Y-68002287D01*
X64534607Y-68061503D01*
X64600776Y-68095218D01*
X64600778Y-68095218D01*
X64600781Y-68095220D01*
X64705137Y-68129127D01*
X64795465Y-68158477D01*
X64896557Y-68174488D01*
X64997648Y-68190500D01*
X64997649Y-68190500D01*
X65202351Y-68190500D01*
X65202352Y-68190500D01*
X65404534Y-68158477D01*
X65599219Y-68095220D01*
X65781610Y-68002287D01*
X65875787Y-67933864D01*
X65947213Y-67881971D01*
X65947215Y-67881968D01*
X65947219Y-67881966D01*
X66091966Y-67737219D01*
X66091968Y-67737215D01*
X66091971Y-67737213D01*
X66162236Y-67640500D01*
X66212287Y-67571610D01*
X66305220Y-67389219D01*
X66368477Y-67194534D01*
X66400500Y-66992352D01*
X66400500Y-66787648D01*
X66399704Y-66782621D01*
X66368477Y-66585465D01*
X66305218Y-66390776D01*
X66271503Y-66324607D01*
X66212287Y-66208390D01*
X66162236Y-66139500D01*
X66091971Y-66042786D01*
X65947213Y-65898028D01*
X65781613Y-65777715D01*
X65781612Y-65777714D01*
X65781610Y-65777713D01*
X65680485Y-65726187D01*
X65599223Y-65684781D01*
X65404534Y-65621522D01*
X65229995Y-65593878D01*
X65202352Y-65589500D01*
X64997648Y-65589500D01*
X64973329Y-65593351D01*
X64795465Y-65621522D01*
X64600776Y-65684781D01*
X64418386Y-65777715D01*
X64252786Y-65898028D01*
X64108032Y-66042782D01*
X64108028Y-66042787D01*
X64074900Y-66088385D01*
X64019571Y-66131051D01*
X63974582Y-66139500D01*
X57276204Y-66139500D01*
X57209165Y-66119815D01*
X57184469Y-66098263D01*
X57184390Y-66098343D01*
X57183226Y-66097179D01*
X57181923Y-66096042D01*
X57180949Y-66094902D01*
X57045104Y-65959057D01*
X57045102Y-65959055D01*
X56889681Y-65846135D01*
X56718504Y-65758915D01*
X56653919Y-65737931D01*
X56596243Y-65698494D01*
X56569044Y-65634136D01*
X56580958Y-65565289D01*
X56628202Y-65513813D01*
X56653919Y-65502069D01*
X56718504Y-65481084D01*
X56718506Y-65481082D01*
X56718509Y-65481082D01*
X56889681Y-65393865D01*
X57045102Y-65280945D01*
X57180945Y-65145102D01*
X57293865Y-64989681D01*
X57381082Y-64818509D01*
X57440447Y-64635801D01*
X57470500Y-64446055D01*
X57470500Y-64253945D01*
X57440447Y-64064199D01*
X57401325Y-63943793D01*
X57381083Y-63881493D01*
X57293864Y-63710318D01*
X57280256Y-63691588D01*
X57180945Y-63554898D01*
X57045102Y-63419055D01*
X56889681Y-63306135D01*
X56718509Y-63218918D01*
X56718508Y-63218917D01*
X56718505Y-63218916D01*
X56653108Y-63197667D01*
X56595432Y-63158229D01*
X56568234Y-63093871D01*
X56580149Y-63025024D01*
X56627393Y-62973549D01*
X56653108Y-62961805D01*
X56718319Y-62940616D01*
X56889419Y-62853436D01*
X56918646Y-62832201D01*
X56918646Y-62832200D01*
X56296447Y-62210000D01*
X56302661Y-62210000D01*
X56404394Y-62182741D01*
X56495606Y-62130080D01*
X56570080Y-62055606D01*
X56622741Y-61964394D01*
X56650000Y-61862661D01*
X56650000Y-61856446D01*
X57272200Y-62478646D01*
X57272201Y-62478646D01*
X57291463Y-62452135D01*
X69349500Y-62452135D01*
X69349500Y-63547870D01*
X69349501Y-63547876D01*
X69355908Y-63607483D01*
X69406202Y-63742328D01*
X69406206Y-63742335D01*
X69492452Y-63857544D01*
X69492455Y-63857547D01*
X69607664Y-63943793D01*
X69607671Y-63943797D01*
X69742517Y-63994091D01*
X69742516Y-63994091D01*
X69749444Y-63994835D01*
X69802127Y-64000500D01*
X70897872Y-64000499D01*
X70957483Y-63994091D01*
X71092331Y-63943796D01*
X71207546Y-63857546D01*
X71293796Y-63742331D01*
X71344091Y-63607483D01*
X71350500Y-63547873D01*
X71350499Y-62452135D01*
X73749500Y-62452135D01*
X73749500Y-63547870D01*
X73749501Y-63547876D01*
X73755908Y-63607483D01*
X73806202Y-63742328D01*
X73806206Y-63742335D01*
X73892452Y-63857544D01*
X73892455Y-63857547D01*
X74007664Y-63943793D01*
X74007671Y-63943797D01*
X74142517Y-63994091D01*
X74142516Y-63994091D01*
X74149444Y-63994835D01*
X74202127Y-64000500D01*
X75297872Y-64000499D01*
X75357483Y-63994091D01*
X75492331Y-63943796D01*
X75607546Y-63857546D01*
X75693796Y-63742331D01*
X75744091Y-63607483D01*
X75750500Y-63547873D01*
X75750499Y-62452128D01*
X75744091Y-62392517D01*
X75729027Y-62352129D01*
X75693797Y-62257671D01*
X75693793Y-62257664D01*
X75607547Y-62142455D01*
X75607544Y-62142452D01*
X75492335Y-62056206D01*
X75492328Y-62056202D01*
X75357482Y-62005908D01*
X75357483Y-62005908D01*
X75297883Y-61999501D01*
X75297881Y-61999500D01*
X75297873Y-61999500D01*
X75297864Y-61999500D01*
X74202129Y-61999500D01*
X74202123Y-61999501D01*
X74142516Y-62005908D01*
X74007671Y-62056202D01*
X74007664Y-62056206D01*
X73892455Y-62142452D01*
X73892452Y-62142455D01*
X73806206Y-62257664D01*
X73806202Y-62257671D01*
X73755908Y-62392517D01*
X73749791Y-62449419D01*
X73749501Y-62452123D01*
X73749500Y-62452135D01*
X71350499Y-62452135D01*
X71350499Y-62452128D01*
X71344091Y-62392517D01*
X71329027Y-62352129D01*
X71293797Y-62257671D01*
X71293793Y-62257664D01*
X71207547Y-62142455D01*
X71207544Y-62142452D01*
X71092335Y-62056206D01*
X71092328Y-62056202D01*
X70957482Y-62005908D01*
X70957483Y-62005908D01*
X70897883Y-61999501D01*
X70897881Y-61999500D01*
X70897873Y-61999500D01*
X70897864Y-61999500D01*
X69802129Y-61999500D01*
X69802123Y-61999501D01*
X69742516Y-62005908D01*
X69607671Y-62056202D01*
X69607664Y-62056206D01*
X69492455Y-62142452D01*
X69492452Y-62142455D01*
X69406206Y-62257664D01*
X69406202Y-62257671D01*
X69355908Y-62392517D01*
X69349791Y-62449419D01*
X69349501Y-62452123D01*
X69349500Y-62452135D01*
X57291463Y-62452135D01*
X57293436Y-62449419D01*
X57322433Y-62392511D01*
X57380616Y-62278321D01*
X57439959Y-62095684D01*
X57470000Y-61906015D01*
X57470000Y-61713984D01*
X57439959Y-61524315D01*
X57380616Y-61341678D01*
X57293434Y-61170577D01*
X57272201Y-61141352D01*
X57272200Y-61141351D01*
X56650000Y-61763552D01*
X56650000Y-61757339D01*
X56622741Y-61655606D01*
X56570080Y-61564394D01*
X56495606Y-61489920D01*
X56404394Y-61437259D01*
X56302661Y-61410000D01*
X56296447Y-61410000D01*
X56632525Y-61073920D01*
X75499499Y-61073920D01*
X75528340Y-61218907D01*
X75528343Y-61218917D01*
X75584914Y-61355492D01*
X75617812Y-61404727D01*
X75617813Y-61404730D01*
X75667046Y-61478414D01*
X75667052Y-61478421D01*
X77113181Y-62924549D01*
X77146666Y-62985872D01*
X77149500Y-63012230D01*
X77149500Y-63447870D01*
X77149501Y-63447876D01*
X77155908Y-63507483D01*
X77206202Y-63642328D01*
X77206206Y-63642335D01*
X77292452Y-63757544D01*
X77292455Y-63757547D01*
X77407664Y-63843793D01*
X77407671Y-63843797D01*
X77542517Y-63894091D01*
X77542516Y-63894091D01*
X77549444Y-63894835D01*
X77602127Y-63900500D01*
X78697872Y-63900499D01*
X78757483Y-63894091D01*
X78892331Y-63843796D01*
X79007546Y-63757546D01*
X79093796Y-63642331D01*
X79144091Y-63507483D01*
X79150500Y-63447873D01*
X79150499Y-62452135D01*
X83049500Y-62452135D01*
X83049500Y-63547870D01*
X83049501Y-63547876D01*
X83055908Y-63607483D01*
X83106202Y-63742328D01*
X83106206Y-63742335D01*
X83192452Y-63857544D01*
X83192455Y-63857547D01*
X83307664Y-63943793D01*
X83307671Y-63943797D01*
X83442517Y-63994091D01*
X83442516Y-63994091D01*
X83449444Y-63994835D01*
X83502127Y-64000500D01*
X84597872Y-64000499D01*
X84657483Y-63994091D01*
X84792331Y-63943796D01*
X84907546Y-63857546D01*
X84993796Y-63742331D01*
X85044091Y-63607483D01*
X85050500Y-63547873D01*
X85050499Y-62922228D01*
X85070183Y-62855190D01*
X85086813Y-62834553D01*
X86669230Y-61252135D01*
X93649500Y-61252135D01*
X93649500Y-64547870D01*
X93649501Y-64547876D01*
X93655908Y-64607483D01*
X93706202Y-64742328D01*
X93706206Y-64742335D01*
X93792452Y-64857544D01*
X93792455Y-64857547D01*
X93907664Y-64943793D01*
X93907671Y-64943797D01*
X94042517Y-64994091D01*
X94042516Y-64994091D01*
X94049444Y-64994835D01*
X94102127Y-65000500D01*
X97397872Y-65000499D01*
X97457483Y-64994091D01*
X97592331Y-64943796D01*
X97707546Y-64857546D01*
X97793796Y-64742331D01*
X97844091Y-64607483D01*
X97850500Y-64547873D01*
X97850499Y-61252128D01*
X97844091Y-61192517D01*
X97835908Y-61170578D01*
X97793797Y-61057671D01*
X97793793Y-61057664D01*
X97707547Y-60942455D01*
X97707544Y-60942452D01*
X97592335Y-60856206D01*
X97592328Y-60856202D01*
X97457482Y-60805908D01*
X97457483Y-60805908D01*
X97397883Y-60799501D01*
X97397881Y-60799500D01*
X97397873Y-60799500D01*
X97397864Y-60799500D01*
X94102129Y-60799500D01*
X94102123Y-60799501D01*
X94042516Y-60805908D01*
X93907671Y-60856202D01*
X93907664Y-60856206D01*
X93792455Y-60942452D01*
X93792452Y-60942455D01*
X93706206Y-61057664D01*
X93706202Y-61057671D01*
X93655908Y-61192517D01*
X93649501Y-61252116D01*
X93649501Y-61252123D01*
X93649500Y-61252135D01*
X86669230Y-61252135D01*
X88094894Y-59826471D01*
X88156215Y-59792988D01*
X88201970Y-59791681D01*
X88257648Y-59800500D01*
X88257649Y-59800500D01*
X88462351Y-59800500D01*
X88462352Y-59800500D01*
X88664534Y-59768477D01*
X88859219Y-59705220D01*
X89041610Y-59612287D01*
X89153474Y-59531014D01*
X89207213Y-59491971D01*
X89207215Y-59491968D01*
X89207219Y-59491966D01*
X89239617Y-59459568D01*
X114399500Y-59459568D01*
X114399500Y-59740431D01*
X114430942Y-60019494D01*
X114430945Y-60019512D01*
X114493439Y-60293317D01*
X114493443Y-60293329D01*
X114586200Y-60558411D01*
X114708053Y-60811442D01*
X114708055Y-60811445D01*
X114857477Y-61049248D01*
X114930927Y-61141351D01*
X115019268Y-61252128D01*
X115032584Y-61268825D01*
X115231175Y-61467416D01*
X115450752Y-61642523D01*
X115688555Y-61791945D01*
X115941592Y-61913801D01*
X116140680Y-61983465D01*
X116206670Y-62006556D01*
X116206682Y-62006560D01*
X116480491Y-62069055D01*
X116480497Y-62069055D01*
X116480505Y-62069057D01*
X116666547Y-62090018D01*
X116759569Y-62100499D01*
X116759572Y-62100500D01*
X116759575Y-62100500D01*
X117040428Y-62100500D01*
X117040429Y-62100499D01*
X117183055Y-62084429D01*
X117319494Y-62069057D01*
X117319499Y-62069056D01*
X117319509Y-62069055D01*
X117593318Y-62006560D01*
X117858408Y-61913801D01*
X118111445Y-61791945D01*
X118349248Y-61642523D01*
X118568825Y-61467416D01*
X118767416Y-61268825D01*
X118942523Y-61049248D01*
X119091945Y-60811445D01*
X119213801Y-60558408D01*
X119306560Y-60293318D01*
X119369055Y-60019509D01*
X119400500Y-59740425D01*
X119400500Y-59459575D01*
X119377619Y-59256500D01*
X119369057Y-59180505D01*
X119369054Y-59180487D01*
X119306560Y-58906682D01*
X119306556Y-58906670D01*
X119257020Y-58765105D01*
X119213801Y-58641592D01*
X119091945Y-58388555D01*
X118942523Y-58150752D01*
X118767416Y-57931175D01*
X118568825Y-57732584D01*
X118555510Y-57721966D01*
X118468763Y-57652787D01*
X118349248Y-57557477D01*
X118111445Y-57408055D01*
X118111442Y-57408053D01*
X117858411Y-57286200D01*
X117593329Y-57193443D01*
X117593317Y-57193439D01*
X117319512Y-57130945D01*
X117319494Y-57130942D01*
X117040431Y-57099500D01*
X117040425Y-57099500D01*
X116759575Y-57099500D01*
X116759568Y-57099500D01*
X116480505Y-57130942D01*
X116480487Y-57130945D01*
X116206682Y-57193439D01*
X116206670Y-57193443D01*
X115941588Y-57286200D01*
X115688557Y-57408053D01*
X115450753Y-57557476D01*
X115231175Y-57732583D01*
X115032583Y-57931175D01*
X114857476Y-58150753D01*
X114708053Y-58388557D01*
X114586200Y-58641588D01*
X114493443Y-58906670D01*
X114493439Y-58906682D01*
X114430945Y-59180487D01*
X114430942Y-59180505D01*
X114399500Y-59459568D01*
X89239617Y-59459568D01*
X89351966Y-59347219D01*
X89387247Y-59298658D01*
X89389566Y-59295833D01*
X89415543Y-59278139D01*
X89440429Y-59258949D01*
X89444969Y-59258096D01*
X89447313Y-59256500D01*
X89454492Y-59256307D01*
X89485418Y-59250500D01*
X99453920Y-59250500D01*
X99551462Y-59231096D01*
X99598913Y-59221658D01*
X99735495Y-59165084D01*
X99784729Y-59132186D01*
X99858416Y-59082952D01*
X105112048Y-53829317D01*
X105173371Y-53795833D01*
X105199729Y-53792999D01*
X106587871Y-53792999D01*
X106587872Y-53792999D01*
X106647483Y-53786591D01*
X106782331Y-53736296D01*
X106897546Y-53650046D01*
X106983796Y-53534831D01*
X107034091Y-53399983D01*
X107040500Y-53340373D01*
X107040499Y-51424499D01*
X107060184Y-51357461D01*
X107112987Y-51311706D01*
X107164499Y-51300500D01*
X109618097Y-51300500D01*
X109851368Y-51263553D01*
X109901737Y-51247187D01*
X110075992Y-51190568D01*
X110286434Y-51083343D01*
X110477510Y-50944517D01*
X111862459Y-49559568D01*
X114299500Y-49559568D01*
X114299500Y-49840431D01*
X114330942Y-50119494D01*
X114330945Y-50119512D01*
X114393439Y-50393317D01*
X114393443Y-50393329D01*
X114486200Y-50658411D01*
X114608053Y-50911442D01*
X114619767Y-50930085D01*
X114757477Y-51149248D01*
X114829217Y-51239207D01*
X114923521Y-51357461D01*
X114932584Y-51368825D01*
X115131175Y-51567416D01*
X115350752Y-51742523D01*
X115588555Y-51891945D01*
X115588557Y-51891946D01*
X115606318Y-51900499D01*
X115841592Y-52013801D01*
X116040680Y-52083465D01*
X116106670Y-52106556D01*
X116106682Y-52106560D01*
X116380491Y-52169055D01*
X116380497Y-52169055D01*
X116380505Y-52169057D01*
X116566547Y-52190018D01*
X116659569Y-52200499D01*
X116659572Y-52200500D01*
X116659575Y-52200500D01*
X116940428Y-52200500D01*
X116940429Y-52200499D01*
X117083055Y-52184429D01*
X117219494Y-52169057D01*
X117219499Y-52169056D01*
X117219509Y-52169055D01*
X117493318Y-52106560D01*
X117758408Y-52013801D01*
X118011445Y-51891945D01*
X118249248Y-51742523D01*
X118468825Y-51567416D01*
X118667416Y-51368825D01*
X118764419Y-51247186D01*
X118821607Y-51207047D01*
X118861366Y-51200500D01*
X123888634Y-51200500D01*
X123955673Y-51220185D01*
X123985581Y-51247187D01*
X124059290Y-51339616D01*
X124082584Y-51368825D01*
X124281175Y-51567416D01*
X124500752Y-51742523D01*
X124738555Y-51891945D01*
X124738557Y-51891946D01*
X124756318Y-51900499D01*
X124991592Y-52013801D01*
X125190680Y-52083465D01*
X125256670Y-52106556D01*
X125256682Y-52106560D01*
X125530491Y-52169055D01*
X125530497Y-52169055D01*
X125530505Y-52169057D01*
X125716547Y-52190018D01*
X125809569Y-52200499D01*
X125809572Y-52200500D01*
X125809575Y-52200500D01*
X126090428Y-52200500D01*
X126090429Y-52200499D01*
X126233055Y-52184429D01*
X126369494Y-52169057D01*
X126369499Y-52169056D01*
X126369509Y-52169055D01*
X126643318Y-52106560D01*
X126908408Y-52013801D01*
X127161445Y-51891945D01*
X127399248Y-51742523D01*
X127618825Y-51567416D01*
X127817416Y-51368825D01*
X127992523Y-51149248D01*
X128141945Y-50911445D01*
X128263801Y-50658408D01*
X128356560Y-50393318D01*
X128419055Y-50119509D01*
X128420957Y-50102633D01*
X128438997Y-49942517D01*
X128450500Y-49840425D01*
X128450500Y-49559575D01*
X128437304Y-49442454D01*
X128419057Y-49280505D01*
X128419054Y-49280487D01*
X128356560Y-49006682D01*
X128356556Y-49006670D01*
X128333465Y-48940680D01*
X128263801Y-48741592D01*
X128141945Y-48488555D01*
X127992523Y-48250752D01*
X127817416Y-48031175D01*
X127618825Y-47832584D01*
X127399248Y-47657477D01*
X127235004Y-47554275D01*
X127161442Y-47508053D01*
X126908411Y-47386200D01*
X126643329Y-47293443D01*
X126643317Y-47293439D01*
X126369512Y-47230945D01*
X126369494Y-47230942D01*
X126090431Y-47199500D01*
X126090425Y-47199500D01*
X125809575Y-47199500D01*
X125809568Y-47199500D01*
X125530505Y-47230942D01*
X125530487Y-47230945D01*
X125256682Y-47293439D01*
X125256670Y-47293443D01*
X124991588Y-47386200D01*
X124738557Y-47508053D01*
X124500753Y-47657476D01*
X124281175Y-47832583D01*
X124082583Y-48031175D01*
X123985581Y-48152813D01*
X123928393Y-48192953D01*
X123888634Y-48199500D01*
X118861366Y-48199500D01*
X118794327Y-48179815D01*
X118764419Y-48152813D01*
X118667416Y-48031175D01*
X118468824Y-47832583D01*
X118302708Y-47700110D01*
X118249248Y-47657477D01*
X118085004Y-47554275D01*
X118011442Y-47508053D01*
X117758411Y-47386200D01*
X117493329Y-47293443D01*
X117493317Y-47293439D01*
X117219512Y-47230945D01*
X117219494Y-47230942D01*
X116940431Y-47199500D01*
X116940425Y-47199500D01*
X116659575Y-47199500D01*
X116659568Y-47199500D01*
X116380505Y-47230942D01*
X116380487Y-47230945D01*
X116106682Y-47293439D01*
X116106670Y-47293443D01*
X115841588Y-47386200D01*
X115588557Y-47508053D01*
X115350753Y-47657476D01*
X115131175Y-47832583D01*
X114932583Y-48031175D01*
X114757476Y-48250753D01*
X114608053Y-48488557D01*
X114486200Y-48741588D01*
X114393443Y-49006670D01*
X114393439Y-49006682D01*
X114330945Y-49280487D01*
X114330942Y-49280505D01*
X114299500Y-49559568D01*
X111862459Y-49559568D01*
X116403408Y-45018617D01*
X116464729Y-44985134D01*
X116504971Y-44983080D01*
X116659570Y-45000499D01*
X116659571Y-45000500D01*
X116659575Y-45000500D01*
X116940428Y-45000500D01*
X116940429Y-45000499D01*
X117095033Y-44983080D01*
X117219494Y-44969057D01*
X117219499Y-44969056D01*
X117219509Y-44969055D01*
X117493318Y-44906560D01*
X117758408Y-44813801D01*
X118011445Y-44691945D01*
X118249248Y-44542523D01*
X118468825Y-44367416D01*
X118667416Y-44168825D01*
X118764419Y-44047186D01*
X118821607Y-44007047D01*
X118861366Y-44000500D01*
X123888634Y-44000500D01*
X123955673Y-44020185D01*
X123985580Y-44047186D01*
X124011748Y-44080000D01*
X124082583Y-44168824D01*
X124281174Y-44367415D01*
X124281173Y-44367415D01*
X124374994Y-44442234D01*
X124500752Y-44542523D01*
X124738555Y-44691945D01*
X124991592Y-44813801D01*
X125106266Y-44853927D01*
X125256670Y-44906556D01*
X125256682Y-44906560D01*
X125530491Y-44969055D01*
X125530497Y-44969055D01*
X125530505Y-44969057D01*
X125716547Y-44990018D01*
X125809569Y-45000499D01*
X125809572Y-45000500D01*
X125809575Y-45000500D01*
X126090428Y-45000500D01*
X126090429Y-45000499D01*
X126245033Y-44983080D01*
X126369494Y-44969057D01*
X126369499Y-44969056D01*
X126369509Y-44969055D01*
X126643318Y-44906560D01*
X126908408Y-44813801D01*
X127161445Y-44691945D01*
X127399248Y-44542523D01*
X127618825Y-44367416D01*
X127817416Y-44168825D01*
X127992523Y-43949248D01*
X128141945Y-43711445D01*
X128263801Y-43458408D01*
X128356560Y-43193318D01*
X128419055Y-42919509D01*
X128419564Y-42914996D01*
X128448303Y-42659920D01*
X128450500Y-42640425D01*
X128450500Y-42359575D01*
X128419055Y-42080491D01*
X128356560Y-41806682D01*
X128263801Y-41541592D01*
X128141945Y-41288555D01*
X127992523Y-41050752D01*
X127817416Y-40831175D01*
X127618825Y-40632584D01*
X127399248Y-40457477D01*
X127161445Y-40308055D01*
X127161442Y-40308053D01*
X126908411Y-40186200D01*
X126643329Y-40093443D01*
X126643317Y-40093439D01*
X126369512Y-40030945D01*
X126369494Y-40030942D01*
X126090431Y-39999500D01*
X126090425Y-39999500D01*
X125809575Y-39999500D01*
X125809568Y-39999500D01*
X125530505Y-40030942D01*
X125530487Y-40030945D01*
X125256682Y-40093439D01*
X125256670Y-40093443D01*
X124991588Y-40186200D01*
X124738557Y-40308053D01*
X124500753Y-40457476D01*
X124281175Y-40632583D01*
X124082583Y-40831175D01*
X123985581Y-40952813D01*
X123928393Y-40992953D01*
X123888634Y-40999500D01*
X118861366Y-40999500D01*
X118794327Y-40979815D01*
X118764419Y-40952813D01*
X118667416Y-40831175D01*
X118468824Y-40632583D01*
X118413060Y-40588113D01*
X118249248Y-40457477D01*
X118011445Y-40308055D01*
X118011442Y-40308053D01*
X117758411Y-40186200D01*
X117493329Y-40093443D01*
X117493317Y-40093439D01*
X117219512Y-40030945D01*
X117219494Y-40030942D01*
X116940431Y-39999500D01*
X116940425Y-39999500D01*
X116659575Y-39999500D01*
X116659568Y-39999500D01*
X116380505Y-40030942D01*
X116380487Y-40030945D01*
X116106682Y-40093439D01*
X116106670Y-40093443D01*
X115841588Y-40186200D01*
X115588557Y-40308053D01*
X115350753Y-40457476D01*
X115131175Y-40632583D01*
X114932583Y-40831175D01*
X114835581Y-40952813D01*
X114778393Y-40992953D01*
X114738634Y-40999500D01*
X96675323Y-40999500D01*
X96627870Y-40990061D01*
X96603134Y-40979815D01*
X96426632Y-40906705D01*
X96160666Y-40835440D01*
X96160660Y-40835439D01*
X96160655Y-40835438D01*
X95887684Y-40799501D01*
X95887679Y-40799500D01*
X95887674Y-40799500D01*
X95612326Y-40799500D01*
X95612320Y-40799500D01*
X95612315Y-40799501D01*
X95339344Y-40835438D01*
X95339337Y-40835439D01*
X95339334Y-40835440D01*
X95283125Y-40850500D01*
X95073369Y-40906704D01*
X94818982Y-41012075D01*
X94818971Y-41012080D01*
X94580516Y-41149754D01*
X94362073Y-41317370D01*
X94362066Y-41317376D01*
X94167376Y-41512066D01*
X94167370Y-41512073D01*
X93999754Y-41730516D01*
X93862080Y-41968971D01*
X93862075Y-41968982D01*
X93756704Y-42223369D01*
X93685441Y-42489331D01*
X93685438Y-42489344D01*
X93649501Y-42762315D01*
X93649500Y-42762332D01*
X93649500Y-43037667D01*
X93649501Y-43037684D01*
X93685438Y-43310655D01*
X93685439Y-43310660D01*
X93685440Y-43310666D01*
X93721072Y-43443649D01*
X93756704Y-43576630D01*
X93862075Y-43831017D01*
X93862080Y-43831028D01*
X93915585Y-43923700D01*
X93999751Y-44069479D01*
X93999753Y-44069482D01*
X93999754Y-44069483D01*
X94167370Y-44287926D01*
X94167376Y-44287933D01*
X94362066Y-44482623D01*
X94362072Y-44482628D01*
X94580521Y-44650249D01*
X94733778Y-44738732D01*
X94818971Y-44787919D01*
X94818976Y-44787921D01*
X94818979Y-44787923D01*
X95073368Y-44893295D01*
X95339334Y-44964560D01*
X95612326Y-45000500D01*
X95612333Y-45000500D01*
X95887667Y-45000500D01*
X95887674Y-45000500D01*
X96160666Y-44964560D01*
X96426632Y-44893295D01*
X96681021Y-44787923D01*
X96919479Y-44650249D01*
X97137928Y-44482628D01*
X97332628Y-44287928D01*
X97500249Y-44069479D01*
X97502365Y-44065813D01*
X97504280Y-44062498D01*
X97554848Y-44014283D01*
X97611666Y-44000500D01*
X104731908Y-44000500D01*
X112878111Y-44000500D01*
X112945150Y-44020185D01*
X112990905Y-44072989D01*
X113000849Y-44142147D01*
X112971824Y-44205703D01*
X112965792Y-44212181D01*
X108914792Y-48263181D01*
X108853469Y-48296666D01*
X108827111Y-48299500D01*
X106871011Y-48299500D01*
X106803972Y-48279815D01*
X106758217Y-48227011D01*
X106748273Y-48157853D01*
X106770693Y-48102614D01*
X106829788Y-48021276D01*
X106933582Y-47817570D01*
X107004234Y-47600128D01*
X107018509Y-47510000D01*
X106030748Y-47510000D01*
X106052518Y-47472292D01*
X106090000Y-47332409D01*
X106090000Y-47187591D01*
X106052518Y-47047708D01*
X106030748Y-47010000D01*
X107018509Y-47010000D01*
X107004234Y-46919871D01*
X106933582Y-46702429D01*
X106829788Y-46498723D01*
X106695402Y-46313757D01*
X106533742Y-46152097D01*
X106348776Y-46017711D01*
X106145068Y-45913917D01*
X105927625Y-45843265D01*
X105927626Y-45843265D01*
X105790000Y-45821467D01*
X105790000Y-46769252D01*
X105752292Y-46747482D01*
X105612409Y-46710000D01*
X105467591Y-46710000D01*
X105327708Y-46747482D01*
X105290000Y-46769252D01*
X105290000Y-45821467D01*
X105152374Y-45843265D01*
X104934931Y-45913917D01*
X104731223Y-46017711D01*
X104546257Y-46152097D01*
X104384597Y-46313757D01*
X104250211Y-46498723D01*
X104146417Y-46702429D01*
X104075765Y-46919871D01*
X104061491Y-47010000D01*
X105049252Y-47010000D01*
X105027482Y-47047708D01*
X104990000Y-47187591D01*
X104990000Y-47332409D01*
X105027482Y-47472292D01*
X105049252Y-47510000D01*
X104061491Y-47510000D01*
X104075765Y-47600128D01*
X104146417Y-47817570D01*
X104250211Y-48021276D01*
X104384597Y-48206242D01*
X104546257Y-48367902D01*
X104546263Y-48367907D01*
X104614207Y-48417271D01*
X104656873Y-48472600D01*
X104662852Y-48542214D01*
X104630247Y-48604009D01*
X104614209Y-48617906D01*
X104562490Y-48655482D01*
X104395485Y-48822487D01*
X104395485Y-48822488D01*
X104395483Y-48822490D01*
X104335862Y-48904550D01*
X104256657Y-49013566D01*
X104149433Y-49224003D01*
X104076446Y-49448631D01*
X104039500Y-49681902D01*
X104039500Y-49918097D01*
X104076446Y-50151368D01*
X104149433Y-50375996D01*
X104240092Y-50553922D01*
X104256657Y-50586433D01*
X104373702Y-50747532D01*
X104397182Y-50813336D01*
X104381357Y-50881390D01*
X104331251Y-50930085D01*
X104316721Y-50936596D01*
X104297676Y-50943699D01*
X104297664Y-50943706D01*
X104182455Y-51029952D01*
X104182452Y-51029955D01*
X104096206Y-51145164D01*
X104096202Y-51145171D01*
X104045908Y-51280017D01*
X104039501Y-51339616D01*
X104039500Y-51339635D01*
X104039500Y-52727770D01*
X104019815Y-52794809D01*
X104003181Y-52815451D01*
X99105451Y-57713181D01*
X99044128Y-57746666D01*
X99017770Y-57749500D01*
X89485418Y-57749500D01*
X89418379Y-57729815D01*
X89385100Y-57698385D01*
X89351971Y-57652787D01*
X89351967Y-57652782D01*
X89207213Y-57508028D01*
X89041613Y-57387715D01*
X89041612Y-57387714D01*
X89041610Y-57387713D01*
X88960229Y-57346247D01*
X88859223Y-57294781D01*
X88664534Y-57231522D01*
X88489995Y-57203878D01*
X88462352Y-57199500D01*
X88257648Y-57199500D01*
X88233329Y-57203351D01*
X88055465Y-57231522D01*
X87860776Y-57294781D01*
X87678386Y-57387715D01*
X87512786Y-57508028D01*
X87368028Y-57652786D01*
X87247715Y-57818386D01*
X87154781Y-58000776D01*
X87091522Y-58195465D01*
X87059500Y-58397648D01*
X87059500Y-58602351D01*
X87068318Y-58658026D01*
X87059363Y-58727320D01*
X87033526Y-58765105D01*
X83835449Y-61963181D01*
X83774126Y-61996666D01*
X83747768Y-61999500D01*
X83502130Y-61999500D01*
X83502123Y-61999501D01*
X83442516Y-62005908D01*
X83307671Y-62056202D01*
X83307664Y-62056206D01*
X83192455Y-62142452D01*
X83192452Y-62142455D01*
X83106206Y-62257664D01*
X83106202Y-62257671D01*
X83055908Y-62392517D01*
X83049791Y-62449419D01*
X83049501Y-62452123D01*
X83049500Y-62452135D01*
X79150499Y-62452135D01*
X79150499Y-62352128D01*
X79144091Y-62292517D01*
X79138796Y-62278321D01*
X79093797Y-62157671D01*
X79093793Y-62157664D01*
X79007547Y-62042455D01*
X79007544Y-62042452D01*
X78892335Y-61956206D01*
X78892328Y-61956202D01*
X78757482Y-61905908D01*
X78757483Y-61905908D01*
X78697883Y-61899501D01*
X78697881Y-61899500D01*
X78697873Y-61899500D01*
X78697865Y-61899500D01*
X78262230Y-61899500D01*
X78195191Y-61879815D01*
X78174549Y-61863181D01*
X77036819Y-60725451D01*
X77003334Y-60664128D01*
X77000500Y-60637770D01*
X77000500Y-59653752D01*
X77020185Y-59586713D01*
X77072989Y-59540958D01*
X77142147Y-59531014D01*
X77197385Y-59553434D01*
X77278390Y-59612287D01*
X77359770Y-59653752D01*
X77460776Y-59705218D01*
X77460778Y-59705218D01*
X77460781Y-59705220D01*
X77565137Y-59739127D01*
X77655465Y-59768477D01*
X77739564Y-59781797D01*
X77857648Y-59800500D01*
X77857649Y-59800500D01*
X78062351Y-59800500D01*
X78062352Y-59800500D01*
X78264534Y-59768477D01*
X78459219Y-59705220D01*
X78641610Y-59612287D01*
X78753474Y-59531014D01*
X78807213Y-59491971D01*
X78807215Y-59491968D01*
X78807219Y-59491966D01*
X78951966Y-59347219D01*
X78954650Y-59343524D01*
X78985100Y-59301615D01*
X79040429Y-59258949D01*
X79085418Y-59250500D01*
X79614582Y-59250500D01*
X79681621Y-59270185D01*
X79714900Y-59301615D01*
X79748028Y-59347212D01*
X79748032Y-59347217D01*
X79892786Y-59491971D01*
X80023190Y-59586713D01*
X80058390Y-59612287D01*
X80139770Y-59653752D01*
X80240776Y-59705218D01*
X80240778Y-59705218D01*
X80240781Y-59705220D01*
X80345137Y-59739127D01*
X80435465Y-59768477D01*
X80519564Y-59781797D01*
X80637648Y-59800500D01*
X80637649Y-59800500D01*
X80842351Y-59800500D01*
X80842352Y-59800500D01*
X81044534Y-59768477D01*
X81239219Y-59705220D01*
X81421610Y-59612287D01*
X81533474Y-59531014D01*
X81587213Y-59491971D01*
X81587215Y-59491968D01*
X81587219Y-59491966D01*
X81731966Y-59347219D01*
X81731968Y-59347215D01*
X81731971Y-59347213D01*
X81802236Y-59250500D01*
X81852287Y-59181610D01*
X81945220Y-58999219D01*
X82008477Y-58804534D01*
X82040500Y-58602352D01*
X82040500Y-58397648D01*
X82008477Y-58195466D01*
X81945220Y-58000781D01*
X81945218Y-58000778D01*
X81945218Y-58000776D01*
X81909754Y-57931175D01*
X81852287Y-57818390D01*
X81800177Y-57746666D01*
X81731971Y-57652786D01*
X81587213Y-57508028D01*
X81421613Y-57387715D01*
X81421612Y-57387714D01*
X81421610Y-57387713D01*
X81340229Y-57346247D01*
X81239223Y-57294781D01*
X81044534Y-57231522D01*
X80869995Y-57203878D01*
X80842352Y-57199500D01*
X80637648Y-57199500D01*
X80613329Y-57203351D01*
X80435465Y-57231522D01*
X80240776Y-57294781D01*
X80058386Y-57387715D01*
X79892786Y-57508028D01*
X79748032Y-57652782D01*
X79748028Y-57652787D01*
X79714900Y-57698385D01*
X79659571Y-57741051D01*
X79614582Y-57749500D01*
X79085418Y-57749500D01*
X79018379Y-57729815D01*
X78985100Y-57698385D01*
X78951971Y-57652787D01*
X78951967Y-57652782D01*
X78807213Y-57508028D01*
X78641613Y-57387715D01*
X78641612Y-57387714D01*
X78641610Y-57387713D01*
X78560229Y-57346247D01*
X78459223Y-57294781D01*
X78264534Y-57231522D01*
X78089995Y-57203878D01*
X78062352Y-57199500D01*
X77857648Y-57199500D01*
X77833329Y-57203351D01*
X77655465Y-57231522D01*
X77460776Y-57294781D01*
X77278390Y-57387712D01*
X77197385Y-57446566D01*
X77185524Y-57450797D01*
X77176011Y-57459041D01*
X77153245Y-57462314D01*
X77131578Y-57470045D01*
X77119314Y-57467193D01*
X77106853Y-57468985D01*
X77085928Y-57459429D01*
X77063524Y-57454219D01*
X77054749Y-57445190D01*
X77043297Y-57439960D01*
X77030860Y-57420608D01*
X77014830Y-57404113D01*
X77011426Y-57390367D01*
X77005523Y-57381182D01*
X77000500Y-57346247D01*
X77000500Y-57312229D01*
X77020185Y-57245190D01*
X77036819Y-57224548D01*
X79274548Y-54986819D01*
X79335871Y-54953334D01*
X79362229Y-54950500D01*
X79945396Y-54950500D01*
X79992844Y-54959937D01*
X80016503Y-54969737D01*
X80016508Y-54969738D01*
X80016511Y-54969739D01*
X80171153Y-55000499D01*
X80171156Y-55000500D01*
X80171158Y-55000500D01*
X80328844Y-55000500D01*
X80328845Y-55000499D01*
X80483497Y-54969737D01*
X80629179Y-54909394D01*
X80760289Y-54821789D01*
X80871789Y-54710289D01*
X80959394Y-54579179D01*
X81019737Y-54433497D01*
X81050500Y-54278842D01*
X81050500Y-54121158D01*
X81050500Y-54121155D01*
X81050499Y-54121153D01*
X81019738Y-53966510D01*
X81019737Y-53966503D01*
X80986171Y-53885466D01*
X80959397Y-53820827D01*
X80959390Y-53820814D01*
X80871789Y-53689711D01*
X80871786Y-53689707D01*
X80760292Y-53578213D01*
X80760288Y-53578210D01*
X80629185Y-53490609D01*
X80629172Y-53490602D01*
X80483501Y-53430264D01*
X80483489Y-53430261D01*
X80328845Y-53399500D01*
X80328842Y-53399500D01*
X80171158Y-53399500D01*
X80171155Y-53399500D01*
X80016511Y-53430260D01*
X80016506Y-53430262D01*
X80016504Y-53430262D01*
X80016503Y-53430263D01*
X79992844Y-53440062D01*
X79945396Y-53449500D01*
X78926080Y-53449500D01*
X78781092Y-53478340D01*
X78781082Y-53478343D01*
X78644511Y-53534912D01*
X78644498Y-53534919D01*
X78521584Y-53617048D01*
X78521580Y-53617051D01*
X75667050Y-56471580D01*
X75667044Y-56471588D01*
X75617812Y-56545268D01*
X75617813Y-56545269D01*
X75584921Y-56594496D01*
X75584914Y-56594508D01*
X75528342Y-56731086D01*
X75528340Y-56731092D01*
X75499500Y-56876079D01*
X75499500Y-56876082D01*
X75499500Y-61073918D01*
X75499500Y-61073920D01*
X75499499Y-61073920D01*
X56632525Y-61073920D01*
X56918646Y-60787798D01*
X56889415Y-60766561D01*
X56718321Y-60679383D01*
X56535684Y-60620040D01*
X56346015Y-60590000D01*
X56153985Y-60590000D01*
X55964315Y-60620040D01*
X55781678Y-60679383D01*
X55610578Y-60766564D01*
X55581352Y-60787798D01*
X55581351Y-60787798D01*
X56203554Y-61410000D01*
X56197339Y-61410000D01*
X56095606Y-61437259D01*
X56004394Y-61489920D01*
X55929920Y-61564394D01*
X55877259Y-61655606D01*
X55850000Y-61757339D01*
X55850000Y-61763553D01*
X55227798Y-61141351D01*
X55227798Y-61141352D01*
X55206564Y-61170578D01*
X55119383Y-61341678D01*
X55060040Y-61524315D01*
X55030000Y-61713984D01*
X55030000Y-61906015D01*
X55060040Y-62095684D01*
X55119383Y-62278321D01*
X55206561Y-62449415D01*
X55227798Y-62478646D01*
X55850000Y-61856445D01*
X55850000Y-61862661D01*
X55877259Y-61964394D01*
X55929920Y-62055606D01*
X56004394Y-62130080D01*
X56095606Y-62182741D01*
X56197339Y-62210000D01*
X56203554Y-62210000D01*
X55581351Y-62832200D01*
X55581352Y-62832201D01*
X55610577Y-62853434D01*
X55781680Y-62940616D01*
X55846891Y-62961805D01*
X55904567Y-63001242D01*
X55931765Y-63065601D01*
X55919850Y-63134447D01*
X55872606Y-63185923D01*
X55846892Y-63197667D01*
X55781492Y-63218917D01*
X55610318Y-63306135D01*
X55527018Y-63366657D01*
X55454898Y-63419055D01*
X55454896Y-63419057D01*
X55454895Y-63419057D01*
X55319057Y-63554895D01*
X55319057Y-63554896D01*
X55319055Y-63554898D01*
X55280850Y-63607483D01*
X55206135Y-63710318D01*
X55118916Y-63881493D01*
X55059553Y-64064197D01*
X55029500Y-64253945D01*
X55029500Y-64446054D01*
X55059553Y-64635802D01*
X55118916Y-64818506D01*
X55118918Y-64818509D01*
X55206135Y-64989681D01*
X55319055Y-65145102D01*
X55454898Y-65280945D01*
X55610319Y-65393865D01*
X55781491Y-65481082D01*
X55781493Y-65481083D01*
X55846081Y-65502069D01*
X55903756Y-65541506D01*
X55930955Y-65605865D01*
X55919041Y-65674711D01*
X55871797Y-65726187D01*
X55846081Y-65737931D01*
X55781493Y-65758916D01*
X55610318Y-65846135D01*
X55538894Y-65898028D01*
X55454898Y-65959055D01*
X55454896Y-65959057D01*
X55454895Y-65959057D01*
X55319050Y-66094902D01*
X55318077Y-66096042D01*
X55317599Y-66096353D01*
X55315610Y-66098343D01*
X55315191Y-66097924D01*
X55259566Y-66134229D01*
X55223796Y-66139500D01*
X51075418Y-66139500D01*
X51008379Y-66119815D01*
X50975100Y-66088385D01*
X50941971Y-66042787D01*
X50941967Y-66042782D01*
X50797213Y-65898028D01*
X50631613Y-65777715D01*
X50631612Y-65777714D01*
X50631610Y-65777713D01*
X50530485Y-65726187D01*
X50449223Y-65684781D01*
X50254534Y-65621522D01*
X50079995Y-65593878D01*
X50052352Y-65589500D01*
X49847648Y-65589500D01*
X49823329Y-65593351D01*
X49645465Y-65621522D01*
X49450776Y-65684781D01*
X49268386Y-65777715D01*
X49102786Y-65898028D01*
X48958028Y-66042786D01*
X48837715Y-66208386D01*
X48744781Y-66390776D01*
X48681522Y-66585465D01*
X48649500Y-66787648D01*
X38204492Y-66787648D01*
X38214999Y-58397648D01*
X69039500Y-58397648D01*
X69039500Y-58602351D01*
X69071522Y-58804534D01*
X69134781Y-58999223D01*
X69227715Y-59181613D01*
X69348028Y-59347213D01*
X69492786Y-59491971D01*
X69623190Y-59586713D01*
X69658390Y-59612287D01*
X69739770Y-59653752D01*
X69840776Y-59705218D01*
X69840778Y-59705218D01*
X69840781Y-59705220D01*
X69945137Y-59739127D01*
X70035465Y-59768477D01*
X70119564Y-59781797D01*
X70237648Y-59800500D01*
X70237649Y-59800500D01*
X70442351Y-59800500D01*
X70442352Y-59800500D01*
X70644534Y-59768477D01*
X70839219Y-59705220D01*
X71021610Y-59612287D01*
X71133474Y-59531014D01*
X71187213Y-59491971D01*
X71187215Y-59491968D01*
X71187219Y-59491966D01*
X71331966Y-59347219D01*
X71331968Y-59347215D01*
X71331971Y-59347213D01*
X71402236Y-59250500D01*
X71452287Y-59181610D01*
X71545220Y-58999219D01*
X71608477Y-58804534D01*
X71640500Y-58602352D01*
X71640500Y-58397648D01*
X71608477Y-58195466D01*
X71545220Y-58000781D01*
X71545218Y-58000778D01*
X71545218Y-58000776D01*
X71509754Y-57931175D01*
X71452287Y-57818390D01*
X71400177Y-57746666D01*
X71331971Y-57652786D01*
X71187213Y-57508028D01*
X71021613Y-57387715D01*
X71021612Y-57387714D01*
X71021610Y-57387713D01*
X70940229Y-57346247D01*
X70839223Y-57294781D01*
X70644534Y-57231522D01*
X70469995Y-57203878D01*
X70442352Y-57199500D01*
X70237648Y-57199500D01*
X70213329Y-57203351D01*
X70035465Y-57231522D01*
X69840776Y-57294781D01*
X69658386Y-57387715D01*
X69492786Y-57508028D01*
X69348028Y-57652786D01*
X69227715Y-57818386D01*
X69134781Y-58000776D01*
X69071522Y-58195465D01*
X69039500Y-58397648D01*
X38214999Y-58397648D01*
X38217216Y-56627648D01*
X48649500Y-56627648D01*
X48649500Y-56832351D01*
X48681522Y-57034534D01*
X48744781Y-57229223D01*
X48804409Y-57346247D01*
X48825536Y-57387712D01*
X48837715Y-57411613D01*
X48958028Y-57577213D01*
X49102786Y-57721971D01*
X49235493Y-57818386D01*
X49268390Y-57842287D01*
X49384607Y-57901503D01*
X49450776Y-57935218D01*
X49450778Y-57935218D01*
X49450781Y-57935220D01*
X49555137Y-57969127D01*
X49645465Y-57998477D01*
X49746557Y-58014488D01*
X49847648Y-58030500D01*
X49847649Y-58030500D01*
X50052351Y-58030500D01*
X50052352Y-58030500D01*
X50254534Y-57998477D01*
X50449219Y-57935220D01*
X50631610Y-57842287D01*
X50724590Y-57774732D01*
X50797213Y-57721971D01*
X50797215Y-57721968D01*
X50797219Y-57721966D01*
X50941966Y-57577219D01*
X50941968Y-57577215D01*
X50941971Y-57577213D01*
X51021904Y-57467193D01*
X51062287Y-57411610D01*
X51155220Y-57229219D01*
X51218477Y-57034534D01*
X51250500Y-56832352D01*
X51250500Y-56627648D01*
X51225782Y-56471588D01*
X51218477Y-56425465D01*
X51155218Y-56230776D01*
X51121503Y-56164607D01*
X51062287Y-56048390D01*
X51054556Y-56037749D01*
X50941971Y-55882786D01*
X50797213Y-55738028D01*
X50631613Y-55617715D01*
X50631612Y-55617714D01*
X50631610Y-55617713D01*
X50574653Y-55588691D01*
X50449223Y-55524781D01*
X50254534Y-55461522D01*
X50079995Y-55433878D01*
X50052352Y-55429500D01*
X49847648Y-55429500D01*
X49823329Y-55433351D01*
X49645465Y-55461522D01*
X49450776Y-55524781D01*
X49268386Y-55617715D01*
X49102786Y-55738028D01*
X48958028Y-55882786D01*
X48837715Y-56048386D01*
X48744781Y-56230776D01*
X48681522Y-56425465D01*
X48649500Y-56627648D01*
X38217216Y-56627648D01*
X38220397Y-54087648D01*
X63799500Y-54087648D01*
X63799500Y-54292351D01*
X63831522Y-54494534D01*
X63894781Y-54689223D01*
X63987715Y-54871613D01*
X64108028Y-55037213D01*
X64252786Y-55181971D01*
X64407749Y-55294556D01*
X64418390Y-55302287D01*
X64534607Y-55361503D01*
X64600776Y-55395218D01*
X64600778Y-55395218D01*
X64600781Y-55395220D01*
X64682543Y-55421786D01*
X64795465Y-55458477D01*
X64814697Y-55461523D01*
X64997648Y-55490500D01*
X64997649Y-55490500D01*
X65202351Y-55490500D01*
X65202352Y-55490500D01*
X65404534Y-55458477D01*
X65599219Y-55395220D01*
X65781610Y-55302287D01*
X65874590Y-55234732D01*
X65947213Y-55181971D01*
X65947215Y-55181968D01*
X65947219Y-55181966D01*
X66091966Y-55037219D01*
X66094676Y-55033489D01*
X66125100Y-54991615D01*
X66180429Y-54948949D01*
X66225418Y-54940500D01*
X68877770Y-54940500D01*
X68907210Y-54949144D01*
X68937197Y-54955668D01*
X68942212Y-54959422D01*
X68944809Y-54960185D01*
X68965451Y-54976819D01*
X69103927Y-55115295D01*
X69130806Y-55155521D01*
X69140606Y-55179179D01*
X69140607Y-55179181D01*
X69228207Y-55310284D01*
X69228213Y-55310292D01*
X69339707Y-55421786D01*
X69339711Y-55421789D01*
X69470814Y-55509390D01*
X69470827Y-55509397D01*
X69616498Y-55569735D01*
X69616503Y-55569737D01*
X69771153Y-55600499D01*
X69771156Y-55600500D01*
X69771158Y-55600500D01*
X69928844Y-55600500D01*
X69928845Y-55600499D01*
X70083497Y-55569737D01*
X70229179Y-55509394D01*
X70360289Y-55421789D01*
X70471789Y-55310289D01*
X70559394Y-55179179D01*
X70619737Y-55033497D01*
X70650500Y-54878842D01*
X70650500Y-54721158D01*
X70650500Y-54721155D01*
X70650499Y-54721153D01*
X70644147Y-54689219D01*
X70619737Y-54566503D01*
X70589927Y-54494534D01*
X70559397Y-54420827D01*
X70559390Y-54420814D01*
X70471789Y-54289711D01*
X70471786Y-54289707D01*
X70360292Y-54178213D01*
X70360284Y-54178207D01*
X70229181Y-54090607D01*
X70229179Y-54090606D01*
X70205521Y-54080806D01*
X70165295Y-54053927D01*
X69718421Y-53607052D01*
X69718414Y-53607046D01*
X69644729Y-53557812D01*
X69644729Y-53557813D01*
X69595491Y-53524913D01*
X69458917Y-53468343D01*
X69458907Y-53468340D01*
X69313920Y-53439500D01*
X69313918Y-53439500D01*
X66225418Y-53439500D01*
X66158379Y-53419815D01*
X66125100Y-53388385D01*
X66091971Y-53342787D01*
X66091967Y-53342782D01*
X65947213Y-53198028D01*
X65781613Y-53077715D01*
X65781612Y-53077714D01*
X65781610Y-53077713D01*
X65724653Y-53048691D01*
X65599223Y-52984781D01*
X65404534Y-52921522D01*
X65229995Y-52893878D01*
X65202352Y-52889500D01*
X64997648Y-52889500D01*
X64973329Y-52893351D01*
X64795465Y-52921522D01*
X64600776Y-52984781D01*
X64418386Y-53077715D01*
X64252786Y-53198028D01*
X64108028Y-53342786D01*
X63987715Y-53508386D01*
X63894781Y-53690776D01*
X63831522Y-53885465D01*
X63799500Y-54087648D01*
X38220397Y-54087648D01*
X38225826Y-49752135D01*
X48649500Y-49752135D01*
X48649500Y-51447870D01*
X48649501Y-51447876D01*
X48655908Y-51507483D01*
X48706202Y-51642328D01*
X48706206Y-51642335D01*
X48792452Y-51757544D01*
X48792455Y-51757547D01*
X48907664Y-51843793D01*
X48907671Y-51843797D01*
X49042517Y-51894091D01*
X49042516Y-51894091D01*
X49049444Y-51894835D01*
X49102127Y-51900500D01*
X50797872Y-51900499D01*
X50857483Y-51894091D01*
X50992331Y-51843796D01*
X51107546Y-51757546D01*
X51193796Y-51642331D01*
X51244091Y-51507483D01*
X51249062Y-51461242D01*
X51275799Y-51396694D01*
X51333191Y-51356846D01*
X51372351Y-51350500D01*
X53062820Y-51350500D01*
X53129859Y-51370185D01*
X53162085Y-51400187D01*
X53242454Y-51507546D01*
X53273110Y-51530495D01*
X53357664Y-51593793D01*
X53357671Y-51593797D01*
X53492517Y-51644091D01*
X53492516Y-51644091D01*
X53499444Y-51644835D01*
X53552127Y-51650500D01*
X54747872Y-51650499D01*
X54807483Y-51644091D01*
X54942331Y-51593796D01*
X55057546Y-51507546D01*
X55064228Y-51498620D01*
X55604931Y-51498620D01*
X55604932Y-51498621D01*
X55652633Y-51530495D01*
X55652639Y-51530498D01*
X55843725Y-51609649D01*
X55843733Y-51609651D01*
X56046579Y-51649999D01*
X56046583Y-51650000D01*
X56253417Y-51650000D01*
X56253420Y-51649999D01*
X56456266Y-51609651D01*
X56456274Y-51609649D01*
X56647366Y-51530495D01*
X56695066Y-51498621D01*
X56695067Y-51498620D01*
X56150001Y-50953554D01*
X56150000Y-50953554D01*
X55604931Y-51498620D01*
X55064228Y-51498620D01*
X55143796Y-51392331D01*
X55194091Y-51257483D01*
X55197497Y-51225800D01*
X55201783Y-51213025D01*
X55214373Y-51194981D01*
X55222793Y-51174656D01*
X55231664Y-51164780D01*
X55796446Y-50600000D01*
X55750368Y-50553922D01*
X55800000Y-50553922D01*
X55800000Y-50646078D01*
X55823852Y-50735095D01*
X55869930Y-50814905D01*
X55935095Y-50880070D01*
X56014905Y-50926148D01*
X56103922Y-50950000D01*
X56196078Y-50950000D01*
X56285095Y-50926148D01*
X56364905Y-50880070D01*
X56430070Y-50814905D01*
X56476148Y-50735095D01*
X56500000Y-50646078D01*
X56500000Y-50599999D01*
X56503554Y-50599999D01*
X56503554Y-50600001D01*
X57048620Y-51145067D01*
X57048621Y-51145066D01*
X57080495Y-51097366D01*
X57159649Y-50906274D01*
X57159651Y-50906266D01*
X57199999Y-50703420D01*
X57200000Y-50703417D01*
X57200000Y-50496583D01*
X57199999Y-50496579D01*
X57159651Y-50293733D01*
X57159649Y-50293725D01*
X57080498Y-50102639D01*
X57080495Y-50102633D01*
X57048621Y-50054932D01*
X57048620Y-50054931D01*
X56503554Y-50599999D01*
X56500000Y-50599999D01*
X56500000Y-50553922D01*
X56476148Y-50464905D01*
X56430070Y-50385095D01*
X56364905Y-50319930D01*
X56285095Y-50273852D01*
X56196078Y-50250000D01*
X56103922Y-50250000D01*
X56014905Y-50273852D01*
X55935095Y-50319930D01*
X55869930Y-50385095D01*
X55823852Y-50464905D01*
X55800000Y-50553922D01*
X55750368Y-50553922D01*
X55231664Y-50035218D01*
X55201783Y-49986973D01*
X55197496Y-49974193D01*
X55194091Y-49942517D01*
X55143796Y-49807669D01*
X55137913Y-49799811D01*
X55064226Y-49701377D01*
X55604932Y-49701377D01*
X55604932Y-49701378D01*
X56150000Y-50246446D01*
X56150001Y-50246446D01*
X56695067Y-49701378D01*
X56695067Y-49701377D01*
X56647359Y-49669500D01*
X56456274Y-49590350D01*
X56456266Y-49590348D01*
X56253420Y-49550000D01*
X56046579Y-49550000D01*
X55843733Y-49590348D01*
X55843725Y-49590350D01*
X55652641Y-49669500D01*
X55652631Y-49669505D01*
X55604932Y-49701377D01*
X55064226Y-49701377D01*
X55057547Y-49692455D01*
X55057544Y-49692453D01*
X55026883Y-49669500D01*
X54950188Y-49612085D01*
X54908318Y-49556151D01*
X54900500Y-49512819D01*
X54900500Y-49162230D01*
X54920185Y-49095191D01*
X54936819Y-49074549D01*
X55224549Y-48786819D01*
X55285872Y-48753334D01*
X55312230Y-48750500D01*
X76187770Y-48750500D01*
X76254809Y-48770185D01*
X76275451Y-48786819D01*
X76953181Y-49464548D01*
X76967884Y-49491475D01*
X76984477Y-49517294D01*
X76985368Y-49523494D01*
X76986666Y-49525871D01*
X76989500Y-49552229D01*
X76989500Y-49791081D01*
X76969815Y-49858120D01*
X76953181Y-49878762D01*
X76915843Y-49916099D01*
X76815874Y-50053694D01*
X76738658Y-50205238D01*
X76686106Y-50366980D01*
X76659500Y-50534963D01*
X76659500Y-50705036D01*
X76686106Y-50873019D01*
X76738658Y-51034761D01*
X76738660Y-51034764D01*
X76738661Y-51034768D01*
X76815874Y-51186305D01*
X76915841Y-51323898D01*
X76915843Y-51323900D01*
X77029762Y-51437819D01*
X77063247Y-51499142D01*
X77058263Y-51568834D01*
X77016391Y-51624767D01*
X76950927Y-51649184D01*
X76942081Y-51649500D01*
X73917020Y-51649500D01*
X73849981Y-51629815D01*
X73804226Y-51577011D01*
X73793617Y-51513347D01*
X73795067Y-51498620D01*
X73250001Y-50953554D01*
X73250000Y-50953554D01*
X72704931Y-51498620D01*
X72706382Y-51513347D01*
X72693363Y-51581993D01*
X72645297Y-51632703D01*
X72582979Y-51649500D01*
X72299002Y-51649500D01*
X72231963Y-51629815D01*
X72186208Y-51577011D01*
X72176264Y-51507853D01*
X72199735Y-51451189D01*
X72237913Y-51400189D01*
X72243796Y-51392331D01*
X72294091Y-51257483D01*
X72296056Y-51239203D01*
X72322793Y-51174656D01*
X72331664Y-51164780D01*
X72896446Y-50600000D01*
X72850368Y-50553922D01*
X72900000Y-50553922D01*
X72900000Y-50646078D01*
X72923852Y-50735095D01*
X72969930Y-50814905D01*
X73035095Y-50880070D01*
X73114905Y-50926148D01*
X73203922Y-50950000D01*
X73296078Y-50950000D01*
X73385095Y-50926148D01*
X73464905Y-50880070D01*
X73530070Y-50814905D01*
X73576148Y-50735095D01*
X73600000Y-50646078D01*
X73600000Y-50599999D01*
X73603554Y-50599999D01*
X73603554Y-50600000D01*
X74148620Y-51145067D01*
X74148621Y-51145066D01*
X74180495Y-51097366D01*
X74259649Y-50906274D01*
X74259651Y-50906266D01*
X74299999Y-50703420D01*
X74300000Y-50703417D01*
X74300000Y-50496583D01*
X74299999Y-50496579D01*
X74259651Y-50293733D01*
X74259649Y-50293725D01*
X74180498Y-50102639D01*
X74180495Y-50102633D01*
X74148621Y-50054932D01*
X74148620Y-50054931D01*
X73603554Y-50599999D01*
X73600000Y-50599999D01*
X73600000Y-50553922D01*
X73576148Y-50464905D01*
X73530070Y-50385095D01*
X73464905Y-50319930D01*
X73385095Y-50273852D01*
X73296078Y-50250000D01*
X73203922Y-50250000D01*
X73114905Y-50273852D01*
X73035095Y-50319930D01*
X72969930Y-50385095D01*
X72923852Y-50464905D01*
X72900000Y-50553922D01*
X72850368Y-50553922D01*
X72331664Y-50035218D01*
X72301783Y-49986973D01*
X72297496Y-49974193D01*
X72294091Y-49942517D01*
X72243796Y-49807669D01*
X72237913Y-49799811D01*
X72164226Y-49701377D01*
X72704932Y-49701377D01*
X72704932Y-49701378D01*
X73250000Y-50246446D01*
X73250001Y-50246446D01*
X73795067Y-49701378D01*
X73795067Y-49701377D01*
X73747359Y-49669500D01*
X73556274Y-49590350D01*
X73556266Y-49590348D01*
X73353420Y-49550000D01*
X73146579Y-49550000D01*
X72943733Y-49590348D01*
X72943725Y-49590350D01*
X72752641Y-49669500D01*
X72752631Y-49669505D01*
X72704932Y-49701377D01*
X72164226Y-49701377D01*
X72157547Y-49692455D01*
X72157544Y-49692452D01*
X72042335Y-49606206D01*
X72042328Y-49606202D01*
X71907482Y-49555908D01*
X71907483Y-49555908D01*
X71847883Y-49549501D01*
X71847881Y-49549500D01*
X71847873Y-49549500D01*
X71847864Y-49549500D01*
X70652129Y-49549500D01*
X70652123Y-49549501D01*
X70592516Y-49555908D01*
X70457671Y-49606202D01*
X70457664Y-49606206D01*
X70342456Y-49692452D01*
X70342455Y-49692453D01*
X70342454Y-49692454D01*
X70265057Y-49795843D01*
X70262087Y-49799811D01*
X70206153Y-49841682D01*
X70162820Y-49849500D01*
X66522351Y-49849500D01*
X66455312Y-49829815D01*
X66409557Y-49777011D01*
X66399061Y-49738752D01*
X66394091Y-49692516D01*
X66343797Y-49557671D01*
X66343793Y-49557664D01*
X66257547Y-49442455D01*
X66257544Y-49442452D01*
X66142335Y-49356206D01*
X66142328Y-49356202D01*
X66007482Y-49305908D01*
X66007483Y-49305908D01*
X65947883Y-49299501D01*
X65947881Y-49299500D01*
X65947873Y-49299500D01*
X65947864Y-49299500D01*
X64252129Y-49299500D01*
X64252123Y-49299501D01*
X64192516Y-49305908D01*
X64057671Y-49356202D01*
X64057664Y-49356206D01*
X63942455Y-49442452D01*
X63942452Y-49442455D01*
X63856206Y-49557664D01*
X63856202Y-49557671D01*
X63805908Y-49692517D01*
X63799501Y-49752116D01*
X63799500Y-49752135D01*
X63799500Y-51447870D01*
X63799501Y-51447876D01*
X63805908Y-51507483D01*
X63856202Y-51642328D01*
X63856206Y-51642335D01*
X63942452Y-51757544D01*
X63942455Y-51757547D01*
X64057664Y-51843793D01*
X64057671Y-51843797D01*
X64192517Y-51894091D01*
X64192516Y-51894091D01*
X64199444Y-51894835D01*
X64252127Y-51900500D01*
X65947872Y-51900499D01*
X66007483Y-51894091D01*
X66142331Y-51843796D01*
X66257546Y-51757546D01*
X66343796Y-51642331D01*
X66394091Y-51507483D01*
X66399062Y-51461242D01*
X66425799Y-51396694D01*
X66483191Y-51356846D01*
X66522351Y-51350500D01*
X70162820Y-51350500D01*
X70229859Y-51370185D01*
X70262085Y-51400187D01*
X70342454Y-51507546D01*
X70449811Y-51587914D01*
X70491682Y-51643847D01*
X70499500Y-51687180D01*
X70499500Y-51873918D01*
X70499500Y-51873920D01*
X70499499Y-51873920D01*
X70528340Y-52018907D01*
X70528343Y-52018917D01*
X70584912Y-52155488D01*
X70584916Y-52155495D01*
X70602014Y-52181084D01*
X70602015Y-52181087D01*
X70667046Y-52278414D01*
X70667052Y-52278421D01*
X71267049Y-52878416D01*
X71371584Y-52982951D01*
X71371585Y-52982952D01*
X71494498Y-53065080D01*
X71494511Y-53065087D01*
X71631082Y-53121656D01*
X71631087Y-53121658D01*
X71631091Y-53121658D01*
X71631092Y-53121659D01*
X71776079Y-53150500D01*
X71776082Y-53150500D01*
X83653920Y-53150500D01*
X83751462Y-53131096D01*
X83798913Y-53121658D01*
X83935495Y-53065084D01*
X84018451Y-53009655D01*
X84058416Y-52982952D01*
X85304548Y-51736818D01*
X85365871Y-51703334D01*
X85392229Y-51700500D01*
X85445036Y-51700500D01*
X85445037Y-51700500D01*
X85613018Y-51673894D01*
X85774768Y-51621339D01*
X85926305Y-51544126D01*
X86063898Y-51444159D01*
X86184159Y-51323898D01*
X86284126Y-51186305D01*
X86361339Y-51034768D01*
X86413894Y-50873018D01*
X86440500Y-50705037D01*
X86440500Y-50534963D01*
X86413894Y-50366982D01*
X86361339Y-50205232D01*
X86284126Y-50053695D01*
X86184159Y-49916102D01*
X86063898Y-49795841D01*
X85926305Y-49695874D01*
X85774768Y-49618661D01*
X85774764Y-49618660D01*
X85774761Y-49618658D01*
X85613019Y-49566106D01*
X85508180Y-49549501D01*
X85445037Y-49539500D01*
X85274963Y-49539500D01*
X85218969Y-49548368D01*
X85106980Y-49566106D01*
X84945238Y-49618658D01*
X84793694Y-49695874D01*
X84656099Y-49795843D01*
X84535843Y-49916099D01*
X84435874Y-50053694D01*
X84358658Y-50205238D01*
X84306106Y-50366980D01*
X84279500Y-50534963D01*
X84279500Y-50587770D01*
X84270855Y-50617210D01*
X84264332Y-50647197D01*
X84260577Y-50652212D01*
X84259815Y-50654809D01*
X84243185Y-50675446D01*
X84171102Y-50747530D01*
X84111423Y-50807209D01*
X84050100Y-50840693D01*
X83980408Y-50835709D01*
X83924475Y-50793837D01*
X83900058Y-50728373D01*
X83900125Y-50709785D01*
X83900498Y-50705047D01*
X83900500Y-50705037D01*
X83900500Y-50534963D01*
X83873894Y-50366982D01*
X83821339Y-50205232D01*
X83744126Y-50053695D01*
X83644159Y-49916102D01*
X83523898Y-49795841D01*
X83386305Y-49695874D01*
X83234768Y-49618661D01*
X83234764Y-49618660D01*
X83234761Y-49618658D01*
X83073019Y-49566106D01*
X82968180Y-49549501D01*
X82905037Y-49539500D01*
X82734963Y-49539500D01*
X82678969Y-49548368D01*
X82566980Y-49566106D01*
X82405238Y-49618658D01*
X82253694Y-49695874D01*
X82116099Y-49795843D01*
X81995843Y-49916099D01*
X81895874Y-50053694D01*
X81818658Y-50205238D01*
X81766106Y-50366980D01*
X81739500Y-50534963D01*
X81739500Y-50705036D01*
X81766106Y-50873019D01*
X81818658Y-51034761D01*
X81818660Y-51034764D01*
X81818661Y-51034768D01*
X81895874Y-51186305D01*
X81995841Y-51323898D01*
X81995843Y-51323900D01*
X82109762Y-51437819D01*
X82143247Y-51499142D01*
X82138263Y-51568834D01*
X82096391Y-51624767D01*
X82030927Y-51649184D01*
X82022081Y-51649500D01*
X81077919Y-51649500D01*
X81010880Y-51629815D01*
X80965125Y-51577011D01*
X80955181Y-51507853D01*
X80984206Y-51444297D01*
X80990238Y-51437819D01*
X81035729Y-51392328D01*
X81104159Y-51323898D01*
X81204126Y-51186305D01*
X81281339Y-51034768D01*
X81333894Y-50873018D01*
X81360500Y-50705037D01*
X81360500Y-50534963D01*
X81333894Y-50366982D01*
X81281339Y-50205232D01*
X81204126Y-50053695D01*
X81104159Y-49916102D01*
X81066819Y-49878762D01*
X81033334Y-49817439D01*
X81030500Y-49791081D01*
X81030500Y-47050549D01*
X81030500Y-46956082D01*
X81024763Y-46927241D01*
X81001659Y-46811088D01*
X80947408Y-46680117D01*
X80945764Y-46675522D01*
X80862954Y-46551588D01*
X80862953Y-46551587D01*
X80862951Y-46551584D01*
X80758416Y-46447049D01*
X80254913Y-45943546D01*
X78728421Y-44417052D01*
X78728414Y-44417046D01*
X78654234Y-44367481D01*
X78654135Y-44367416D01*
X78605495Y-44334916D01*
X78605494Y-44334915D01*
X78605492Y-44334914D01*
X78468917Y-44278343D01*
X78468907Y-44278340D01*
X78323920Y-44249500D01*
X78323918Y-44249500D01*
X78172296Y-44249500D01*
X78105257Y-44229815D01*
X78059502Y-44177011D01*
X78049558Y-44107853D01*
X78078583Y-44044297D01*
X78133978Y-44007569D01*
X78154573Y-44000877D01*
X78154576Y-44000876D01*
X78306040Y-43923700D01*
X78306042Y-43923699D01*
X78308418Y-43921971D01*
X77766448Y-43380000D01*
X77790028Y-43380000D01*
X77886675Y-43354104D01*
X77973325Y-43304076D01*
X78044076Y-43233325D01*
X78094104Y-43146675D01*
X78120000Y-43050028D01*
X78120000Y-43026447D01*
X78661971Y-43568418D01*
X78663699Y-43566042D01*
X78663700Y-43566040D01*
X78740876Y-43414576D01*
X78740877Y-43414573D01*
X78793406Y-43252902D01*
X78820000Y-43085003D01*
X78820000Y-42914996D01*
X79200000Y-42914996D01*
X79200000Y-43085003D01*
X79226593Y-43252902D01*
X79279122Y-43414573D01*
X79279123Y-43414576D01*
X79356302Y-43566045D01*
X79358027Y-43568418D01*
X79900000Y-43026445D01*
X79900000Y-43050028D01*
X79925896Y-43146675D01*
X79975924Y-43233325D01*
X80046675Y-43304076D01*
X80133325Y-43354104D01*
X80229972Y-43380000D01*
X80253553Y-43380000D01*
X79711580Y-43921971D01*
X79713955Y-43923698D01*
X79865423Y-44000876D01*
X79865426Y-44000877D01*
X80027097Y-44053406D01*
X80194997Y-44080000D01*
X80365003Y-44080000D01*
X80532902Y-44053406D01*
X80694573Y-44000877D01*
X80694576Y-44000876D01*
X80846040Y-43923700D01*
X80846042Y-43923699D01*
X80848418Y-43921971D01*
X80306448Y-43380000D01*
X80330028Y-43380000D01*
X80426675Y-43354104D01*
X80513325Y-43304076D01*
X80584076Y-43233325D01*
X80634104Y-43146675D01*
X80660000Y-43050028D01*
X80660000Y-43026447D01*
X81201971Y-43568418D01*
X81203699Y-43566042D01*
X81203700Y-43566040D01*
X81280876Y-43414576D01*
X81280877Y-43414573D01*
X81333406Y-43252902D01*
X81360000Y-43085003D01*
X81360000Y-42914996D01*
X81740000Y-42914996D01*
X81740000Y-43085003D01*
X81766593Y-43252902D01*
X81819122Y-43414573D01*
X81819123Y-43414576D01*
X81896302Y-43566045D01*
X81898027Y-43568418D01*
X82440000Y-43026445D01*
X82440000Y-43050028D01*
X82465896Y-43146675D01*
X82515924Y-43233325D01*
X82586675Y-43304076D01*
X82673325Y-43354104D01*
X82769972Y-43380000D01*
X82793553Y-43380000D01*
X82251580Y-43921971D01*
X82253955Y-43923698D01*
X82405423Y-44000876D01*
X82405426Y-44000877D01*
X82567097Y-44053406D01*
X82734997Y-44080000D01*
X82905003Y-44080000D01*
X83072902Y-44053406D01*
X83234573Y-44000877D01*
X83234576Y-44000876D01*
X83386040Y-43923700D01*
X83386042Y-43923699D01*
X83388418Y-43921971D01*
X82846448Y-43380000D01*
X82870028Y-43380000D01*
X82966675Y-43354104D01*
X83053325Y-43304076D01*
X83124076Y-43233325D01*
X83174104Y-43146675D01*
X83200000Y-43050028D01*
X83200000Y-43026447D01*
X83741971Y-43568418D01*
X83743699Y-43566042D01*
X83743700Y-43566040D01*
X83820876Y-43414576D01*
X83820877Y-43414573D01*
X83873406Y-43252902D01*
X83885074Y-43179240D01*
X83900000Y-43085003D01*
X83900000Y-42914996D01*
X83873406Y-42747097D01*
X83820877Y-42585426D01*
X83820876Y-42585423D01*
X83743699Y-42433958D01*
X83743695Y-42433952D01*
X83741971Y-42431580D01*
X83200000Y-42973551D01*
X83200000Y-42949972D01*
X83174104Y-42853325D01*
X83124076Y-42766675D01*
X83053325Y-42695924D01*
X82966675Y-42645896D01*
X82870028Y-42620000D01*
X82846447Y-42620000D01*
X83094292Y-42372155D01*
X84280000Y-42372155D01*
X84280000Y-42750000D01*
X85072599Y-42750000D01*
X85055924Y-42766675D01*
X85005896Y-42853325D01*
X84980000Y-42949972D01*
X84980000Y-43050028D01*
X85005896Y-43146675D01*
X85055924Y-43233325D01*
X85072599Y-43250000D01*
X84280000Y-43250000D01*
X84280000Y-43627844D01*
X84286401Y-43687372D01*
X84286403Y-43687379D01*
X84336645Y-43822086D01*
X84336649Y-43822093D01*
X84422809Y-43937187D01*
X84422812Y-43937190D01*
X84537906Y-44023350D01*
X84537913Y-44023354D01*
X84672620Y-44073596D01*
X84672627Y-44073598D01*
X84732155Y-44079999D01*
X84732172Y-44080000D01*
X85110000Y-44080000D01*
X85110000Y-43287401D01*
X85126675Y-43304076D01*
X85213325Y-43354104D01*
X85309972Y-43380000D01*
X85410028Y-43380000D01*
X85506675Y-43354104D01*
X85593325Y-43304076D01*
X85610000Y-43287401D01*
X85610000Y-44080000D01*
X85987828Y-44080000D01*
X85987844Y-44079999D01*
X86047372Y-44073598D01*
X86047379Y-44073596D01*
X86182086Y-44023354D01*
X86182093Y-44023350D01*
X86297187Y-43937190D01*
X86297190Y-43937187D01*
X86383350Y-43822093D01*
X86383354Y-43822086D01*
X86433596Y-43687379D01*
X86433598Y-43687372D01*
X86439999Y-43627844D01*
X86440000Y-43627827D01*
X86440000Y-43250000D01*
X85647401Y-43250000D01*
X85664076Y-43233325D01*
X85714104Y-43146675D01*
X85740000Y-43050028D01*
X85740000Y-42949972D01*
X85714104Y-42853325D01*
X85664076Y-42766675D01*
X85647401Y-42750000D01*
X86440000Y-42750000D01*
X86440000Y-42372172D01*
X86439999Y-42372155D01*
X86433598Y-42312627D01*
X86433596Y-42312620D01*
X86383354Y-42177913D01*
X86383350Y-42177906D01*
X86297190Y-42062812D01*
X86297187Y-42062809D01*
X86182093Y-41976649D01*
X86182086Y-41976645D01*
X86047379Y-41926403D01*
X86047372Y-41926401D01*
X85987844Y-41920000D01*
X85610000Y-41920000D01*
X85610000Y-42712599D01*
X85593325Y-42695924D01*
X85506675Y-42645896D01*
X85410028Y-42620000D01*
X85309972Y-42620000D01*
X85213325Y-42645896D01*
X85126675Y-42695924D01*
X85110000Y-42712599D01*
X85110000Y-41920000D01*
X84732155Y-41920000D01*
X84672627Y-41926401D01*
X84672620Y-41926403D01*
X84537913Y-41976645D01*
X84537906Y-41976649D01*
X84422812Y-42062809D01*
X84422809Y-42062812D01*
X84336649Y-42177906D01*
X84336645Y-42177913D01*
X84286403Y-42312620D01*
X84286401Y-42312627D01*
X84280000Y-42372155D01*
X83094292Y-42372155D01*
X83388419Y-42078027D01*
X83386045Y-42076302D01*
X83234576Y-41999123D01*
X83234573Y-41999122D01*
X83072902Y-41946593D01*
X82905003Y-41920000D01*
X82734997Y-41920000D01*
X82567097Y-41946593D01*
X82405426Y-41999122D01*
X82405423Y-41999123D01*
X82253962Y-42076298D01*
X82253951Y-42076304D01*
X82251579Y-42078027D01*
X82793554Y-42620000D01*
X82769972Y-42620000D01*
X82673325Y-42645896D01*
X82586675Y-42695924D01*
X82515924Y-42766675D01*
X82465896Y-42853325D01*
X82440000Y-42949972D01*
X82440000Y-42973552D01*
X81898027Y-42431579D01*
X81896304Y-42433951D01*
X81896298Y-42433962D01*
X81819123Y-42585423D01*
X81819122Y-42585426D01*
X81766593Y-42747097D01*
X81740000Y-42914996D01*
X81360000Y-42914996D01*
X81333406Y-42747097D01*
X81280877Y-42585426D01*
X81280876Y-42585423D01*
X81203698Y-42433955D01*
X81201971Y-42431580D01*
X80660000Y-42973551D01*
X80660000Y-42949972D01*
X80634104Y-42853325D01*
X80584076Y-42766675D01*
X80513325Y-42695924D01*
X80426675Y-42645896D01*
X80330028Y-42620000D01*
X80306447Y-42620000D01*
X80848418Y-42078027D01*
X80846045Y-42076302D01*
X80694576Y-41999123D01*
X80694573Y-41999122D01*
X80532902Y-41946593D01*
X80365003Y-41920000D01*
X80194997Y-41920000D01*
X80027097Y-41946593D01*
X79865426Y-41999122D01*
X79865423Y-41999123D01*
X79713962Y-42076298D01*
X79713951Y-42076304D01*
X79711579Y-42078027D01*
X80253554Y-42620000D01*
X80229972Y-42620000D01*
X80133325Y-42645896D01*
X80046675Y-42695924D01*
X79975924Y-42766675D01*
X79925896Y-42853325D01*
X79900000Y-42949972D01*
X79900000Y-42973552D01*
X79358027Y-42431579D01*
X79356304Y-42433951D01*
X79356298Y-42433962D01*
X79279123Y-42585423D01*
X79279122Y-42585426D01*
X79226593Y-42747097D01*
X79200000Y-42914996D01*
X78820000Y-42914996D01*
X78793406Y-42747097D01*
X78740877Y-42585426D01*
X78740876Y-42585423D01*
X78663698Y-42433955D01*
X78661971Y-42431580D01*
X78120000Y-42973551D01*
X78120000Y-42949972D01*
X78094104Y-42853325D01*
X78044076Y-42766675D01*
X77973325Y-42695924D01*
X77886675Y-42645896D01*
X77790028Y-42620000D01*
X77766447Y-42620000D01*
X78308418Y-42078027D01*
X78306045Y-42076302D01*
X78154576Y-41999123D01*
X78154573Y-41999122D01*
X77992902Y-41946593D01*
X77825003Y-41920000D01*
X77654997Y-41920000D01*
X77487097Y-41946593D01*
X77325426Y-41999122D01*
X77325423Y-41999123D01*
X77173962Y-42076298D01*
X77173951Y-42076304D01*
X77171579Y-42078027D01*
X77713554Y-42620000D01*
X77689972Y-42620000D01*
X77593325Y-42645896D01*
X77506675Y-42695924D01*
X77435924Y-42766675D01*
X77385896Y-42853325D01*
X77360000Y-42949972D01*
X77360000Y-42973552D01*
X76818027Y-42431579D01*
X76816304Y-42433951D01*
X76816298Y-42433962D01*
X76739123Y-42585423D01*
X76739122Y-42585426D01*
X76686593Y-42747097D01*
X76660000Y-42914996D01*
X76660000Y-43085003D01*
X76686593Y-43252902D01*
X76739122Y-43414573D01*
X76739123Y-43414576D01*
X76816302Y-43566045D01*
X76818027Y-43568418D01*
X77360000Y-43026445D01*
X77360000Y-43050028D01*
X77385896Y-43146675D01*
X77435924Y-43233325D01*
X77506675Y-43304076D01*
X77593325Y-43354104D01*
X77689972Y-43380000D01*
X77713553Y-43380000D01*
X77171580Y-43921971D01*
X77173955Y-43923698D01*
X77325423Y-44000876D01*
X77325426Y-44000877D01*
X77346022Y-44007569D01*
X77403697Y-44047006D01*
X77430896Y-44111365D01*
X77418982Y-44180211D01*
X77371737Y-44231687D01*
X77307704Y-44249500D01*
X65946009Y-44249500D01*
X65878970Y-44229815D01*
X65833215Y-44177011D01*
X65823271Y-44107853D01*
X65852296Y-44044297D01*
X65873123Y-44025182D01*
X65946894Y-43971582D01*
X65946895Y-43971582D01*
X66091582Y-43826895D01*
X66091582Y-43826894D01*
X66211859Y-43661349D01*
X66304755Y-43479029D01*
X66367990Y-43284413D01*
X66376609Y-43230000D01*
X65415686Y-43230000D01*
X65420080Y-43225606D01*
X65472741Y-43134394D01*
X65500000Y-43032661D01*
X65500000Y-42927339D01*
X65472741Y-42825606D01*
X65420080Y-42734394D01*
X65415686Y-42730000D01*
X66376609Y-42730000D01*
X66367990Y-42675586D01*
X66304755Y-42480970D01*
X66211859Y-42298650D01*
X66138856Y-42198171D01*
X66138855Y-42198169D01*
X66091587Y-42133110D01*
X66091582Y-42133104D01*
X65946895Y-41988417D01*
X65781349Y-41868140D01*
X65599029Y-41775244D01*
X65404413Y-41712009D01*
X65350000Y-41703390D01*
X65350000Y-42664314D01*
X65345606Y-42659920D01*
X65254394Y-42607259D01*
X65152661Y-42580000D01*
X65047339Y-42580000D01*
X64945606Y-42607259D01*
X64854394Y-42659920D01*
X64850000Y-42664314D01*
X64850000Y-41703390D01*
X64795586Y-41712009D01*
X64600970Y-41775244D01*
X64418650Y-41868140D01*
X64253105Y-41988417D01*
X64253104Y-41988417D01*
X64108417Y-42133104D01*
X64108417Y-42133105D01*
X63988140Y-42298650D01*
X63895244Y-42480970D01*
X63832009Y-42675586D01*
X63823391Y-42730000D01*
X64784314Y-42730000D01*
X64779920Y-42734394D01*
X64727259Y-42825606D01*
X64700000Y-42927339D01*
X64700000Y-43032661D01*
X64727259Y-43134394D01*
X64779920Y-43225606D01*
X64784314Y-43230000D01*
X63823391Y-43230000D01*
X63832009Y-43284413D01*
X63895244Y-43479029D01*
X63988140Y-43661349D01*
X64108417Y-43826894D01*
X64108417Y-43826895D01*
X64253104Y-43971582D01*
X64326877Y-44025182D01*
X64369542Y-44080512D01*
X64375521Y-44150126D01*
X64342915Y-44211921D01*
X64282076Y-44246278D01*
X64253991Y-44249500D01*
X59076080Y-44249500D01*
X58931092Y-44278340D01*
X58931082Y-44278343D01*
X58794508Y-44334913D01*
X58671584Y-44417048D01*
X58671584Y-44417049D01*
X58234704Y-44853927D01*
X58194478Y-44880806D01*
X58170826Y-44890603D01*
X58170814Y-44890609D01*
X58039711Y-44978210D01*
X58039707Y-44978213D01*
X57928213Y-45089707D01*
X57928210Y-45089711D01*
X57840609Y-45220814D01*
X57840602Y-45220827D01*
X57780264Y-45366498D01*
X57780261Y-45366510D01*
X57749500Y-45521153D01*
X57749500Y-45678846D01*
X57780261Y-45833489D01*
X57780264Y-45833501D01*
X57840602Y-45979172D01*
X57840609Y-45979185D01*
X57928210Y-46110288D01*
X57928213Y-46110292D01*
X58039707Y-46221786D01*
X58039711Y-46221789D01*
X58170814Y-46309390D01*
X58170827Y-46309397D01*
X58316498Y-46369735D01*
X58316503Y-46369737D01*
X58471153Y-46400499D01*
X58471156Y-46400500D01*
X58471158Y-46400500D01*
X58628844Y-46400500D01*
X58628845Y-46400499D01*
X58783497Y-46369737D01*
X58929179Y-46309394D01*
X59060289Y-46221789D01*
X59171789Y-46110289D01*
X59259394Y-45979179D01*
X59269192Y-45955521D01*
X59273823Y-45948590D01*
X59274921Y-45943546D01*
X59296065Y-45915300D01*
X59424549Y-45786817D01*
X59485872Y-45753334D01*
X59512229Y-45750500D01*
X77887770Y-45750500D01*
X77954809Y-45770185D01*
X77975451Y-45786819D01*
X79493181Y-47304548D01*
X79526666Y-47365871D01*
X79529500Y-47392229D01*
X79529500Y-49791081D01*
X79509815Y-49858120D01*
X79493181Y-49878762D01*
X79455843Y-49916099D01*
X79355874Y-50053694D01*
X79278658Y-50205238D01*
X79226106Y-50366980D01*
X79199500Y-50534963D01*
X79199500Y-50705036D01*
X79226106Y-50873019D01*
X79278658Y-51034761D01*
X79278660Y-51034764D01*
X79278661Y-51034768D01*
X79355874Y-51186305D01*
X79455841Y-51323898D01*
X79455843Y-51323900D01*
X79569762Y-51437819D01*
X79603247Y-51499142D01*
X79598263Y-51568834D01*
X79556391Y-51624767D01*
X79490927Y-51649184D01*
X79482081Y-51649500D01*
X78537919Y-51649500D01*
X78470880Y-51629815D01*
X78425125Y-51577011D01*
X78415181Y-51507853D01*
X78444206Y-51444297D01*
X78450238Y-51437819D01*
X78495729Y-51392328D01*
X78564159Y-51323898D01*
X78664126Y-51186305D01*
X78741339Y-51034768D01*
X78793894Y-50873018D01*
X78820500Y-50705037D01*
X78820500Y-50534963D01*
X78793894Y-50366982D01*
X78741339Y-50205232D01*
X78664126Y-50053695D01*
X78564159Y-49916102D01*
X78526819Y-49878762D01*
X78493334Y-49817439D01*
X78490500Y-49791081D01*
X78490500Y-49116079D01*
X78461659Y-48971092D01*
X78461658Y-48971091D01*
X78461658Y-48971087D01*
X78461656Y-48971082D01*
X78405087Y-48834511D01*
X78405080Y-48834498D01*
X78322952Y-48711585D01*
X78322951Y-48711584D01*
X78218416Y-48607049D01*
X77932947Y-48321580D01*
X77028421Y-47417052D01*
X77028414Y-47417046D01*
X76954729Y-47367812D01*
X76954729Y-47367813D01*
X76905491Y-47334913D01*
X76768917Y-47278343D01*
X76768907Y-47278340D01*
X76623920Y-47249500D01*
X76623918Y-47249500D01*
X54876082Y-47249500D01*
X54876080Y-47249500D01*
X54731092Y-47278340D01*
X54731086Y-47278342D01*
X54594508Y-47334914D01*
X54594496Y-47334921D01*
X54545269Y-47367813D01*
X54471588Y-47417044D01*
X54471580Y-47417050D01*
X53567050Y-48321580D01*
X53567044Y-48321588D01*
X53517812Y-48395268D01*
X53517813Y-48395269D01*
X53484921Y-48444496D01*
X53484914Y-48444508D01*
X53428342Y-48581086D01*
X53428340Y-48581092D01*
X53399500Y-48726079D01*
X53399500Y-49512819D01*
X53379815Y-49579858D01*
X53349812Y-49612085D01*
X53242454Y-49692453D01*
X53235774Y-49701377D01*
X53165059Y-49795841D01*
X53162087Y-49799811D01*
X53106153Y-49841682D01*
X53062820Y-49849500D01*
X51372351Y-49849500D01*
X51305312Y-49829815D01*
X51259557Y-49777011D01*
X51249061Y-49738752D01*
X51244091Y-49692516D01*
X51193797Y-49557671D01*
X51193793Y-49557664D01*
X51107547Y-49442455D01*
X51107544Y-49442452D01*
X50992335Y-49356206D01*
X50992328Y-49356202D01*
X50857482Y-49305908D01*
X50857483Y-49305908D01*
X50797883Y-49299501D01*
X50797881Y-49299500D01*
X50797873Y-49299500D01*
X50797864Y-49299500D01*
X49102129Y-49299500D01*
X49102123Y-49299501D01*
X49042516Y-49305908D01*
X48907671Y-49356202D01*
X48907664Y-49356206D01*
X48792455Y-49442452D01*
X48792452Y-49442455D01*
X48706206Y-49557664D01*
X48706202Y-49557671D01*
X48655908Y-49692517D01*
X48649501Y-49752116D01*
X48649500Y-49752135D01*
X38225826Y-49752135D01*
X38230132Y-46313757D01*
X38234041Y-43192782D01*
X38234395Y-42909975D01*
X38234574Y-42766908D01*
X38234620Y-42730000D01*
X48673391Y-42730000D01*
X49634314Y-42730000D01*
X49629920Y-42734394D01*
X49577259Y-42825606D01*
X49550000Y-42927339D01*
X49550000Y-43032661D01*
X49577259Y-43134394D01*
X49629920Y-43225606D01*
X49634314Y-43230000D01*
X48673391Y-43230000D01*
X48682009Y-43284413D01*
X48745244Y-43479029D01*
X48838140Y-43661349D01*
X48958417Y-43826894D01*
X48958417Y-43826895D01*
X49103104Y-43971582D01*
X49268650Y-44091859D01*
X49450968Y-44184754D01*
X49645578Y-44247988D01*
X49700000Y-44256607D01*
X49700000Y-43295686D01*
X49704394Y-43300080D01*
X49795606Y-43352741D01*
X49897339Y-43380000D01*
X50002661Y-43380000D01*
X50104394Y-43352741D01*
X50195606Y-43300080D01*
X50200000Y-43295686D01*
X50200000Y-44256606D01*
X50254421Y-44247988D01*
X50449031Y-44184754D01*
X50631349Y-44091859D01*
X50796894Y-43971582D01*
X50796895Y-43971582D01*
X50941582Y-43826895D01*
X50941582Y-43826894D01*
X51061859Y-43661349D01*
X51154755Y-43479029D01*
X51217990Y-43284413D01*
X51226609Y-43230000D01*
X50265686Y-43230000D01*
X50270080Y-43225606D01*
X50322741Y-43134394D01*
X50350000Y-43032661D01*
X50350000Y-42927339D01*
X50322741Y-42825606D01*
X50270080Y-42734394D01*
X50265686Y-42730000D01*
X51226609Y-42730000D01*
X51217990Y-42675586D01*
X51154755Y-42480970D01*
X51061859Y-42298650D01*
X50941582Y-42133105D01*
X50941582Y-42133104D01*
X50796895Y-41988417D01*
X50631349Y-41868140D01*
X50449029Y-41775244D01*
X50254413Y-41712009D01*
X50200000Y-41703390D01*
X50200000Y-42664314D01*
X50195606Y-42659920D01*
X50104394Y-42607259D01*
X50002661Y-42580000D01*
X49897339Y-42580000D01*
X49795606Y-42607259D01*
X49704394Y-42659920D01*
X49700000Y-42664314D01*
X49700000Y-41703390D01*
X49645586Y-41712009D01*
X49450970Y-41775244D01*
X49268650Y-41868140D01*
X49103105Y-41988417D01*
X49103104Y-41988417D01*
X48958417Y-42133104D01*
X48958417Y-42133105D01*
X48838140Y-42298650D01*
X48745244Y-42480970D01*
X48682009Y-42675586D01*
X48673391Y-42730000D01*
X38234620Y-42730000D01*
X38240661Y-37906095D01*
X38244641Y-34728034D01*
X42249500Y-34728034D01*
X42249500Y-35071965D01*
X42283210Y-35414249D01*
X42350308Y-35751572D01*
X42450150Y-36080706D01*
X42581770Y-36398464D01*
X42581772Y-36398469D01*
X42743893Y-36701775D01*
X42743904Y-36701793D01*
X42934975Y-36987751D01*
X42934985Y-36987765D01*
X43153176Y-37253632D01*
X43396367Y-37496823D01*
X43396372Y-37496827D01*
X43396373Y-37496828D01*
X43662240Y-37715019D01*
X43948213Y-37906100D01*
X43948222Y-37906105D01*
X43948224Y-37906106D01*
X44251530Y-38068227D01*
X44251532Y-38068227D01*
X44251538Y-38068231D01*
X44569295Y-38199850D01*
X44898422Y-38299690D01*
X45235750Y-38366789D01*
X45578031Y-38400500D01*
X45578034Y-38400500D01*
X45921966Y-38400500D01*
X45921969Y-38400500D01*
X46264250Y-38366789D01*
X46601578Y-38299690D01*
X46930705Y-38199850D01*
X47248462Y-38068231D01*
X47551787Y-37906100D01*
X47837760Y-37715019D01*
X48103627Y-37496828D01*
X48346828Y-37253627D01*
X48565019Y-36987760D01*
X48756100Y-36701787D01*
X48918231Y-36398462D01*
X49049850Y-36080705D01*
X49149690Y-35751578D01*
X49216789Y-35414250D01*
X49250500Y-35071969D01*
X49250500Y-34728034D01*
X119249500Y-34728034D01*
X119249500Y-35071965D01*
X119283210Y-35414249D01*
X119350308Y-35751572D01*
X119450150Y-36080706D01*
X119581770Y-36398464D01*
X119581772Y-36398469D01*
X119743893Y-36701775D01*
X119743904Y-36701793D01*
X119934975Y-36987751D01*
X119934985Y-36987765D01*
X120153176Y-37253632D01*
X120396367Y-37496823D01*
X120396372Y-37496827D01*
X120396373Y-37496828D01*
X120662240Y-37715019D01*
X120948213Y-37906100D01*
X120948222Y-37906105D01*
X120948224Y-37906106D01*
X121251530Y-38068227D01*
X121251532Y-38068227D01*
X121251538Y-38068231D01*
X121569295Y-38199850D01*
X121898422Y-38299690D01*
X122235750Y-38366789D01*
X122578031Y-38400500D01*
X122578034Y-38400500D01*
X122921966Y-38400500D01*
X122921969Y-38400500D01*
X123264250Y-38366789D01*
X123601578Y-38299690D01*
X123930705Y-38199850D01*
X124248462Y-38068231D01*
X124551787Y-37906100D01*
X124837760Y-37715019D01*
X125103627Y-37496828D01*
X125346828Y-37253627D01*
X125565019Y-36987760D01*
X125756100Y-36701787D01*
X125918231Y-36398462D01*
X126049850Y-36080705D01*
X126149690Y-35751578D01*
X126216789Y-35414250D01*
X126250500Y-35071969D01*
X126250500Y-34728031D01*
X126216789Y-34385750D01*
X126149690Y-34048422D01*
X126049850Y-33719295D01*
X125918231Y-33401538D01*
X125756100Y-33098213D01*
X125565019Y-32812240D01*
X125346828Y-32546373D01*
X125346827Y-32546372D01*
X125346823Y-32546367D01*
X125103632Y-32303176D01*
X124837765Y-32084985D01*
X124837764Y-32084984D01*
X124837760Y-32084981D01*
X124551787Y-31893900D01*
X124551782Y-31893897D01*
X124551775Y-31893893D01*
X124248469Y-31731772D01*
X124248464Y-31731770D01*
X123930706Y-31600150D01*
X123601572Y-31500308D01*
X123264248Y-31433210D01*
X123264249Y-31433210D01*
X123006456Y-31407821D01*
X122921969Y-31399500D01*
X122578031Y-31399500D01*
X122499966Y-31407188D01*
X122235750Y-31433210D01*
X121898427Y-31500308D01*
X121569293Y-31600150D01*
X121251535Y-31731770D01*
X121251530Y-31731772D01*
X120948224Y-31893893D01*
X120948206Y-31893904D01*
X120662248Y-32084975D01*
X120662234Y-32084985D01*
X120396367Y-32303176D01*
X120153176Y-32546367D01*
X119934985Y-32812234D01*
X119934975Y-32812248D01*
X119743904Y-33098206D01*
X119743893Y-33098224D01*
X119581772Y-33401530D01*
X119581770Y-33401535D01*
X119450150Y-33719293D01*
X119350308Y-34048427D01*
X119283210Y-34385750D01*
X119249500Y-34728034D01*
X49250500Y-34728034D01*
X49250500Y-34728031D01*
X49216789Y-34385750D01*
X49149690Y-34048422D01*
X49049850Y-33719295D01*
X48918231Y-33401538D01*
X48756100Y-33098213D01*
X48565019Y-32812240D01*
X48346828Y-32546373D01*
X48346827Y-32546372D01*
X48346823Y-32546367D01*
X48103632Y-32303176D01*
X47837765Y-32084985D01*
X47837764Y-32084984D01*
X47837760Y-32084981D01*
X47551787Y-31893900D01*
X47551782Y-31893897D01*
X47551775Y-31893893D01*
X47248469Y-31731772D01*
X47248464Y-31731770D01*
X46930706Y-31600150D01*
X46601572Y-31500308D01*
X46264248Y-31433210D01*
X46264249Y-31433210D01*
X46006456Y-31407821D01*
X45921969Y-31399500D01*
X45578031Y-31399500D01*
X45499966Y-31407188D01*
X45235750Y-31433210D01*
X44898427Y-31500308D01*
X44569293Y-31600150D01*
X44251535Y-31731770D01*
X44251530Y-31731772D01*
X43948224Y-31893893D01*
X43948206Y-31893904D01*
X43662248Y-32084975D01*
X43662234Y-32084985D01*
X43396367Y-32303176D01*
X43153176Y-32546367D01*
X42934985Y-32812234D01*
X42934975Y-32812248D01*
X42743904Y-33098206D01*
X42743893Y-33098224D01*
X42581772Y-33401530D01*
X42581770Y-33401535D01*
X42450150Y-33719293D01*
X42350308Y-34048427D01*
X42283210Y-34385750D01*
X42249500Y-34728034D01*
X38244641Y-34728034D01*
X38249718Y-30674345D01*
X38269487Y-30607330D01*
X38322348Y-30561641D01*
X38373718Y-30550500D01*
X129673934Y-30550500D01*
X129740973Y-30570185D01*
G37*
G04 #@! TD.AperFunction*
M02*
