%TF.GenerationSoftware,KiCad,Pcbnew,9.0.1*%
%TF.CreationDate,2025-07-15T15:54:51+03:00*%
%TF.ProjectId,pcb_no_div,7063625f-6e6f-45f6-9469-762e6b696361,rev?*%
%TF.SameCoordinates,Original*%
%TF.FileFunction,Drillmap*%
%TF.FilePolarity,Positive*%
%FSLAX45Y45*%
G04 Gerber Fmt 4.5, Leading zero omitted, Abs format (unit mm)*
G04 Created by KiCad (PCBNEW 9.0.1) date 2025-07-15 15:54:51*
%MOMM*%
%LPD*%
G01*
G04 APERTURE LIST*
%ADD10C,0.038100*%
%ADD11C,0.200000*%
%ADD12C,0.100000*%
%ADD13C,0.110000*%
%ADD14C,0.160000*%
G04 APERTURE END LIST*
D10*
X13030000Y-3005000D02*
X13010000Y-10990000D01*
X3775000Y-3005000D02*
X3765000Y-10990000D01*
X13010000Y-10990000D02*
X3765000Y-10990000D01*
X13030000Y-3005000D02*
X3775000Y-3005000D01*
D11*
D12*
X4015000Y-7780000D02*
X4055000Y-7820000D01*
X4055000Y-7780000D02*
X4015000Y-7820000D01*
X4015000Y-7945000D02*
X4055000Y-7985000D01*
X4055000Y-7945000D02*
X4015000Y-7985000D01*
X4015000Y-8125000D02*
X4055000Y-8165000D01*
X4055000Y-8125000D02*
X4015000Y-8165000D01*
X4015000Y-8295000D02*
X4055000Y-8335000D01*
X4055000Y-8295000D02*
X4015000Y-8335000D01*
X4015000Y-8460000D02*
X4055000Y-8500000D01*
X4055000Y-8460000D02*
X4015000Y-8500000D01*
X4015000Y-8615000D02*
X4055000Y-8655000D01*
X4055000Y-8615000D02*
X4015000Y-8655000D01*
X4015000Y-8785000D02*
X4055000Y-8825000D01*
X4055000Y-8785000D02*
X4015000Y-8825000D01*
X4015000Y-8950000D02*
X4055000Y-8990000D01*
X4055000Y-8950000D02*
X4015000Y-8990000D01*
X4015000Y-9245000D02*
X4055000Y-9285000D01*
X4055000Y-9245000D02*
X4015000Y-9285000D01*
X4015000Y-9415000D02*
X4055000Y-9455000D01*
X4055000Y-9415000D02*
X4015000Y-9455000D01*
X4015000Y-9580000D02*
X4055000Y-9620000D01*
X4055000Y-9580000D02*
X4015000Y-9620000D01*
X4015000Y-9735000D02*
X4055000Y-9775000D01*
X4055000Y-9735000D02*
X4015000Y-9775000D01*
X4015000Y-9905000D02*
X4055000Y-9945000D01*
X4055000Y-9905000D02*
X4015000Y-9945000D01*
X4015000Y-10070000D02*
X4055000Y-10110000D01*
X4055000Y-10070000D02*
X4015000Y-10110000D01*
X4120000Y-3930000D02*
X4160000Y-3970000D01*
X4160000Y-3930000D02*
X4120000Y-3970000D01*
X4120000Y-4095000D02*
X4160000Y-4135000D01*
X4160000Y-4095000D02*
X4120000Y-4135000D01*
X4120000Y-4275000D02*
X4160000Y-4315000D01*
X4160000Y-4275000D02*
X4120000Y-4315000D01*
X4120000Y-4445000D02*
X4160000Y-4485000D01*
X4160000Y-4445000D02*
X4120000Y-4485000D01*
X4120000Y-4610000D02*
X4160000Y-4650000D01*
X4160000Y-4610000D02*
X4120000Y-4650000D01*
X4120000Y-4765000D02*
X4160000Y-4805000D01*
X4160000Y-4765000D02*
X4120000Y-4805000D01*
X4120000Y-4935000D02*
X4160000Y-4975000D01*
X4160000Y-4935000D02*
X4120000Y-4975000D01*
X4120000Y-5100000D02*
X4160000Y-5140000D01*
X4160000Y-5100000D02*
X4120000Y-5140000D01*
X4125000Y-6040000D02*
X4165000Y-6080000D01*
X4165000Y-6040000D02*
X4125000Y-6080000D01*
X4125000Y-6205000D02*
X4165000Y-6245000D01*
X4165000Y-6205000D02*
X4125000Y-6245000D01*
X4125000Y-6385000D02*
X4165000Y-6425000D01*
X4165000Y-6385000D02*
X4125000Y-6425000D01*
X4125000Y-6555000D02*
X4165000Y-6595000D01*
X4165000Y-6555000D02*
X4125000Y-6595000D01*
X4125000Y-6720000D02*
X4165000Y-6760000D01*
X4165000Y-6720000D02*
X4125000Y-6760000D01*
X4125000Y-6875000D02*
X4165000Y-6915000D01*
X4165000Y-6875000D02*
X4125000Y-6915000D01*
X4125000Y-7045000D02*
X4165000Y-7085000D01*
X4165000Y-7045000D02*
X4125000Y-7085000D01*
X4125000Y-7210000D02*
X4165000Y-7250000D01*
X4165000Y-7210000D02*
X4125000Y-7250000D01*
X4210000Y-7785000D02*
X4250000Y-7825000D01*
X4250000Y-7785000D02*
X4210000Y-7825000D01*
X4210000Y-7950000D02*
X4250000Y-7990000D01*
X4250000Y-7950000D02*
X4210000Y-7990000D01*
X4210000Y-8130000D02*
X4250000Y-8170000D01*
X4250000Y-8130000D02*
X4210000Y-8170000D01*
X4210000Y-8300000D02*
X4250000Y-8340000D01*
X4250000Y-8300000D02*
X4210000Y-8340000D01*
X4210000Y-8465000D02*
X4250000Y-8505000D01*
X4250000Y-8465000D02*
X4210000Y-8505000D01*
X4210000Y-8620000D02*
X4250000Y-8660000D01*
X4250000Y-8620000D02*
X4210000Y-8660000D01*
X4210000Y-8790000D02*
X4250000Y-8830000D01*
X4250000Y-8790000D02*
X4210000Y-8830000D01*
X4210000Y-8955000D02*
X4250000Y-8995000D01*
X4250000Y-8955000D02*
X4210000Y-8995000D01*
X4210000Y-9250000D02*
X4250000Y-9290000D01*
X4250000Y-9250000D02*
X4210000Y-9290000D01*
X4210000Y-9420000D02*
X4250000Y-9460000D01*
X4250000Y-9420000D02*
X4210000Y-9460000D01*
X4210000Y-9585000D02*
X4250000Y-9625000D01*
X4250000Y-9585000D02*
X4210000Y-9625000D01*
X4210000Y-9740000D02*
X4250000Y-9780000D01*
X4250000Y-9740000D02*
X4210000Y-9780000D01*
X4210000Y-9910000D02*
X4250000Y-9950000D01*
X4250000Y-9910000D02*
X4210000Y-9950000D01*
X4210000Y-10075000D02*
X4250000Y-10115000D01*
X4250000Y-10075000D02*
X4210000Y-10115000D01*
X4315000Y-3935000D02*
X4355000Y-3975000D01*
X4355000Y-3935000D02*
X4315000Y-3975000D01*
X4315000Y-4100000D02*
X4355000Y-4140000D01*
X4355000Y-4100000D02*
X4315000Y-4140000D01*
X4315000Y-4280000D02*
X4355000Y-4320000D01*
X4355000Y-4280000D02*
X4315000Y-4320000D01*
X4315000Y-4450000D02*
X4355000Y-4490000D01*
X4355000Y-4450000D02*
X4315000Y-4490000D01*
X4315000Y-4615000D02*
X4355000Y-4655000D01*
X4355000Y-4615000D02*
X4315000Y-4655000D01*
X4315000Y-4770000D02*
X4355000Y-4810000D01*
X4355000Y-4770000D02*
X4315000Y-4810000D01*
X4315000Y-4940000D02*
X4355000Y-4980000D01*
X4355000Y-4940000D02*
X4315000Y-4980000D01*
X4315000Y-5105000D02*
X4355000Y-5145000D01*
X4355000Y-5105000D02*
X4315000Y-5145000D01*
X4320000Y-6045000D02*
X4360000Y-6085000D01*
X4360000Y-6045000D02*
X4320000Y-6085000D01*
X4320000Y-6210000D02*
X4360000Y-6250000D01*
X4360000Y-6210000D02*
X4320000Y-6250000D01*
X4320000Y-6390000D02*
X4360000Y-6430000D01*
X4360000Y-6390000D02*
X4320000Y-6430000D01*
X4320000Y-6560000D02*
X4360000Y-6600000D01*
X4360000Y-6560000D02*
X4320000Y-6600000D01*
X4320000Y-6725000D02*
X4360000Y-6765000D01*
X4360000Y-6725000D02*
X4320000Y-6765000D01*
X4320000Y-6880000D02*
X4360000Y-6920000D01*
X4360000Y-6880000D02*
X4320000Y-6920000D01*
X4320000Y-7050000D02*
X4360000Y-7090000D01*
X4360000Y-7050000D02*
X4320000Y-7090000D01*
X4320000Y-7215000D02*
X4360000Y-7255000D01*
X4360000Y-7215000D02*
X4320000Y-7255000D01*
X4445000Y-9720000D02*
X4485000Y-9760000D01*
X4485000Y-9720000D02*
X4445000Y-9760000D01*
X4445000Y-9890000D02*
X4485000Y-9930000D01*
X4485000Y-9890000D02*
X4445000Y-9930000D01*
X4445000Y-10055000D02*
X4485000Y-10095000D01*
X4485000Y-10055000D02*
X4445000Y-10095000D01*
X4455000Y-8020000D02*
X4495000Y-8060000D01*
X4495000Y-8020000D02*
X4455000Y-8060000D01*
X4455000Y-8185000D02*
X4495000Y-8225000D01*
X4495000Y-8185000D02*
X4455000Y-8225000D01*
X4455000Y-8365000D02*
X4495000Y-8405000D01*
X4495000Y-8365000D02*
X4455000Y-8405000D01*
X4455000Y-8535000D02*
X4495000Y-8575000D01*
X4495000Y-8535000D02*
X4455000Y-8575000D01*
X4465000Y-9220000D02*
X4505000Y-9260000D01*
X4505000Y-9220000D02*
X4465000Y-9260000D01*
X4465000Y-9390000D02*
X4505000Y-9430000D01*
X4505000Y-9390000D02*
X4465000Y-9430000D01*
X4465000Y-9555000D02*
X4505000Y-9595000D01*
X4505000Y-9555000D02*
X4465000Y-9595000D01*
X4570000Y-6750000D02*
X4610000Y-6790000D01*
X4610000Y-6750000D02*
X4570000Y-6790000D01*
X4570000Y-6915000D02*
X4610000Y-6955000D01*
X4610000Y-6915000D02*
X4570000Y-6955000D01*
X4570000Y-7095000D02*
X4610000Y-7135000D01*
X4610000Y-7095000D02*
X4570000Y-7135000D01*
X4570000Y-7265000D02*
X4610000Y-7305000D01*
X4610000Y-7265000D02*
X4570000Y-7305000D01*
X4640000Y-9725000D02*
X4680000Y-9765000D01*
X4680000Y-9725000D02*
X4640000Y-9765000D01*
X4640000Y-9895000D02*
X4680000Y-9935000D01*
X4680000Y-9895000D02*
X4640000Y-9935000D01*
X4640000Y-10060000D02*
X4680000Y-10100000D01*
X4680000Y-10060000D02*
X4640000Y-10100000D01*
X4650000Y-8025000D02*
X4690000Y-8065000D01*
X4690000Y-8025000D02*
X4650000Y-8065000D01*
X4650000Y-8190000D02*
X4690000Y-8230000D01*
X4690000Y-8190000D02*
X4650000Y-8230000D01*
X4650000Y-8370000D02*
X4690000Y-8410000D01*
X4690000Y-8370000D02*
X4650000Y-8410000D01*
X4650000Y-8540000D02*
X4690000Y-8580000D01*
X4690000Y-8540000D02*
X4650000Y-8580000D01*
X4660000Y-9225000D02*
X4700000Y-9265000D01*
X4700000Y-9225000D02*
X4660000Y-9265000D01*
X4660000Y-9395000D02*
X4700000Y-9435000D01*
X4700000Y-9395000D02*
X4660000Y-9435000D01*
X4660000Y-9560000D02*
X4700000Y-9600000D01*
X4700000Y-9560000D02*
X4660000Y-9600000D01*
X4765000Y-6755000D02*
X4805000Y-6795000D01*
X4805000Y-6755000D02*
X4765000Y-6795000D01*
X4765000Y-6920000D02*
X4805000Y-6960000D01*
X4805000Y-6920000D02*
X4765000Y-6960000D01*
X4765000Y-7100000D02*
X4805000Y-7140000D01*
X4805000Y-7100000D02*
X4765000Y-7140000D01*
X4765000Y-7270000D02*
X4805000Y-7310000D01*
X4805000Y-7270000D02*
X4765000Y-7310000D01*
X5075000Y-10250000D02*
X5115000Y-10290000D01*
X5115000Y-10250000D02*
X5075000Y-10290000D01*
X5080000Y-10055000D02*
X5120000Y-10095000D01*
X5120000Y-10055000D02*
X5080000Y-10095000D01*
X5080000Y-10690000D02*
X5120000Y-10730000D01*
X5120000Y-10690000D02*
X5080000Y-10730000D01*
X5085000Y-10495000D02*
X5125000Y-10535000D01*
X5125000Y-10495000D02*
X5085000Y-10535000D01*
X5110000Y-7075000D02*
X5150000Y-7115000D01*
X5150000Y-7075000D02*
X5110000Y-7115000D01*
X5115000Y-3465000D02*
X5155000Y-3505000D01*
X5155000Y-3465000D02*
X5115000Y-3505000D01*
X5115000Y-6880000D02*
X5155000Y-6920000D01*
X5155000Y-6880000D02*
X5115000Y-6920000D01*
X5120000Y-3270000D02*
X5160000Y-3310000D01*
X5160000Y-3270000D02*
X5120000Y-3310000D01*
X5215000Y-8450000D02*
X5255000Y-8490000D01*
X5255000Y-8450000D02*
X5215000Y-8490000D01*
X5220000Y-8255000D02*
X5260000Y-8295000D01*
X5260000Y-8255000D02*
X5220000Y-8295000D01*
X5240000Y-10250000D02*
X5280000Y-10290000D01*
X5280000Y-10250000D02*
X5240000Y-10290000D01*
X5245000Y-10055000D02*
X5285000Y-10095000D01*
X5285000Y-10055000D02*
X5245000Y-10095000D01*
X5245000Y-10690000D02*
X5285000Y-10730000D01*
X5285000Y-10690000D02*
X5245000Y-10730000D01*
X5250000Y-10495000D02*
X5290000Y-10535000D01*
X5290000Y-10495000D02*
X5250000Y-10535000D01*
X5275000Y-7075000D02*
X5315000Y-7115000D01*
X5315000Y-7075000D02*
X5275000Y-7115000D01*
X5280000Y-3465000D02*
X5320000Y-3505000D01*
X5320000Y-3465000D02*
X5280000Y-3505000D01*
X5280000Y-6880000D02*
X5320000Y-6920000D01*
X5320000Y-6880000D02*
X5280000Y-6920000D01*
X5285000Y-3270000D02*
X5325000Y-3310000D01*
X5325000Y-3270000D02*
X5285000Y-3310000D01*
X5380000Y-8450000D02*
X5420000Y-8490000D01*
X5420000Y-8450000D02*
X5380000Y-8490000D01*
X5385000Y-8255000D02*
X5425000Y-8295000D01*
X5425000Y-8255000D02*
X5385000Y-8295000D01*
X5410000Y-10250000D02*
X5450000Y-10290000D01*
X5450000Y-10250000D02*
X5410000Y-10290000D01*
X5415000Y-10055000D02*
X5455000Y-10095000D01*
X5455000Y-10055000D02*
X5415000Y-10095000D01*
X5415000Y-10690000D02*
X5455000Y-10730000D01*
X5455000Y-10690000D02*
X5415000Y-10730000D01*
X5420000Y-10495000D02*
X5460000Y-10535000D01*
X5460000Y-10495000D02*
X5420000Y-10535000D01*
X5450000Y-3465000D02*
X5490000Y-3505000D01*
X5490000Y-3465000D02*
X5450000Y-3505000D01*
X5455000Y-3270000D02*
X5495000Y-3310000D01*
X5495000Y-3270000D02*
X5455000Y-3310000D01*
X5455000Y-7075000D02*
X5495000Y-7115000D01*
X5495000Y-7075000D02*
X5455000Y-7115000D01*
X5460000Y-6880000D02*
X5500000Y-6920000D01*
X5500000Y-6880000D02*
X5460000Y-6920000D01*
X5560000Y-8450000D02*
X5600000Y-8490000D01*
X5600000Y-8450000D02*
X5560000Y-8490000D01*
X5565000Y-8255000D02*
X5605000Y-8295000D01*
X5605000Y-8255000D02*
X5565000Y-8295000D01*
X5565000Y-10250000D02*
X5605000Y-10290000D01*
X5605000Y-10250000D02*
X5565000Y-10290000D01*
X5570000Y-10055000D02*
X5610000Y-10095000D01*
X5610000Y-10055000D02*
X5570000Y-10095000D01*
X5570000Y-10690000D02*
X5610000Y-10730000D01*
X5610000Y-10690000D02*
X5570000Y-10730000D01*
X5575000Y-10495000D02*
X5615000Y-10535000D01*
X5615000Y-10495000D02*
X5575000Y-10535000D01*
X5605000Y-3465000D02*
X5645000Y-3505000D01*
X5645000Y-3465000D02*
X5605000Y-3505000D01*
X5610000Y-3270000D02*
X5650000Y-3310000D01*
X5650000Y-3270000D02*
X5610000Y-3310000D01*
X5625000Y-7075000D02*
X5665000Y-7115000D01*
X5665000Y-7075000D02*
X5625000Y-7115000D01*
X5630000Y-6880000D02*
X5670000Y-6920000D01*
X5670000Y-6880000D02*
X5630000Y-6920000D01*
X5730000Y-8450000D02*
X5770000Y-8490000D01*
X5770000Y-8450000D02*
X5730000Y-8490000D01*
X5730000Y-10250000D02*
X5770000Y-10290000D01*
X5770000Y-10250000D02*
X5730000Y-10290000D01*
X5735000Y-8255000D02*
X5775000Y-8295000D01*
X5775000Y-8255000D02*
X5735000Y-8295000D01*
X5735000Y-10055000D02*
X5775000Y-10095000D01*
X5775000Y-10055000D02*
X5735000Y-10095000D01*
X5735000Y-10690000D02*
X5775000Y-10730000D01*
X5775000Y-10690000D02*
X5735000Y-10730000D01*
X5740000Y-10495000D02*
X5780000Y-10535000D01*
X5780000Y-10495000D02*
X5740000Y-10535000D01*
X5770000Y-3465000D02*
X5810000Y-3505000D01*
X5810000Y-3465000D02*
X5770000Y-3505000D01*
X5775000Y-3270000D02*
X5815000Y-3310000D01*
X5815000Y-3270000D02*
X5775000Y-3310000D01*
X5790000Y-7075000D02*
X5830000Y-7115000D01*
X5830000Y-7075000D02*
X5790000Y-7115000D01*
X5795000Y-6880000D02*
X5835000Y-6920000D01*
X5835000Y-6880000D02*
X5795000Y-6920000D01*
X5900000Y-10250000D02*
X5940000Y-10290000D01*
X5940000Y-10250000D02*
X5900000Y-10290000D01*
X5905000Y-10055000D02*
X5945000Y-10095000D01*
X5945000Y-10055000D02*
X5905000Y-10095000D01*
X5905000Y-10690000D02*
X5945000Y-10730000D01*
X5945000Y-10690000D02*
X5905000Y-10730000D01*
X5910000Y-10495000D02*
X5950000Y-10535000D01*
X5950000Y-10495000D02*
X5910000Y-10535000D01*
X5940000Y-3465000D02*
X5980000Y-3505000D01*
X5980000Y-3465000D02*
X5940000Y-3505000D01*
X5945000Y-3270000D02*
X5985000Y-3310000D01*
X5985000Y-3270000D02*
X5945000Y-3310000D01*
X5945000Y-7075000D02*
X5985000Y-7115000D01*
X5985000Y-7075000D02*
X5945000Y-7115000D01*
X5950000Y-6880000D02*
X5990000Y-6920000D01*
X5990000Y-6880000D02*
X5950000Y-6920000D01*
X6080000Y-10250000D02*
X6120000Y-10290000D01*
X6120000Y-10250000D02*
X6080000Y-10290000D01*
X6085000Y-10055000D02*
X6125000Y-10095000D01*
X6125000Y-10055000D02*
X6085000Y-10095000D01*
X6085000Y-10690000D02*
X6125000Y-10730000D01*
X6125000Y-10690000D02*
X6085000Y-10730000D01*
X6090000Y-10495000D02*
X6130000Y-10535000D01*
X6130000Y-10495000D02*
X6090000Y-10535000D01*
X6115000Y-7075000D02*
X6155000Y-7115000D01*
X6155000Y-7075000D02*
X6115000Y-7115000D01*
X6120000Y-3465000D02*
X6160000Y-3505000D01*
X6160000Y-3465000D02*
X6120000Y-3505000D01*
X6120000Y-6880000D02*
X6160000Y-6920000D01*
X6160000Y-6880000D02*
X6120000Y-6920000D01*
X6125000Y-3270000D02*
X6165000Y-3310000D01*
X6165000Y-3270000D02*
X6125000Y-3310000D01*
X6245000Y-10250000D02*
X6285000Y-10290000D01*
X6285000Y-10250000D02*
X6245000Y-10290000D01*
X6250000Y-10055000D02*
X6290000Y-10095000D01*
X6290000Y-10055000D02*
X6250000Y-10095000D01*
X6250000Y-10690000D02*
X6290000Y-10730000D01*
X6290000Y-10690000D02*
X6250000Y-10730000D01*
X6255000Y-10495000D02*
X6295000Y-10535000D01*
X6295000Y-10495000D02*
X6255000Y-10535000D01*
X6280000Y-7075000D02*
X6320000Y-7115000D01*
X6320000Y-7075000D02*
X6280000Y-7115000D01*
X6285000Y-3465000D02*
X6325000Y-3505000D01*
X6325000Y-3465000D02*
X6285000Y-3505000D01*
X6285000Y-3945000D02*
X6325000Y-3985000D01*
X6325000Y-3945000D02*
X6285000Y-3985000D01*
X6285000Y-6880000D02*
X6325000Y-6920000D01*
X6325000Y-6880000D02*
X6285000Y-6920000D01*
X6290000Y-3270000D02*
X6330000Y-3310000D01*
X6330000Y-3270000D02*
X6290000Y-3310000D01*
X6290000Y-3750000D02*
X6330000Y-3790000D01*
X6330000Y-3750000D02*
X6290000Y-3790000D01*
X6450000Y-3945000D02*
X6490000Y-3985000D01*
X6490000Y-3945000D02*
X6450000Y-3985000D01*
X6455000Y-3465000D02*
X6495000Y-3505000D01*
X6495000Y-3465000D02*
X6455000Y-3505000D01*
X6455000Y-3750000D02*
X6495000Y-3790000D01*
X6495000Y-3750000D02*
X6455000Y-3790000D01*
X6460000Y-3270000D02*
X6500000Y-3310000D01*
X6500000Y-3270000D02*
X6460000Y-3310000D01*
X6460000Y-10250000D02*
X6500000Y-10290000D01*
X6500000Y-10250000D02*
X6460000Y-10290000D01*
X6465000Y-10055000D02*
X6505000Y-10095000D01*
X6505000Y-10055000D02*
X6465000Y-10095000D01*
X6465000Y-10690000D02*
X6505000Y-10730000D01*
X6505000Y-10690000D02*
X6465000Y-10730000D01*
X6470000Y-10495000D02*
X6510000Y-10535000D01*
X6510000Y-10495000D02*
X6470000Y-10535000D01*
X6620000Y-3945000D02*
X6660000Y-3985000D01*
X6660000Y-3945000D02*
X6620000Y-3985000D01*
X6625000Y-3750000D02*
X6665000Y-3790000D01*
X6665000Y-3750000D02*
X6625000Y-3790000D01*
X6630000Y-10250000D02*
X6670000Y-10290000D01*
X6670000Y-10250000D02*
X6630000Y-10290000D01*
X6635000Y-10055000D02*
X6675000Y-10095000D01*
X6675000Y-10055000D02*
X6635000Y-10095000D01*
X6635000Y-10690000D02*
X6675000Y-10730000D01*
X6675000Y-10690000D02*
X6635000Y-10730000D01*
X6640000Y-10495000D02*
X6680000Y-10535000D01*
X6680000Y-10495000D02*
X6640000Y-10535000D01*
X6655000Y-3465000D02*
X6695000Y-3505000D01*
X6695000Y-3465000D02*
X6655000Y-3505000D01*
X6660000Y-3270000D02*
X6700000Y-3310000D01*
X6700000Y-3270000D02*
X6660000Y-3310000D01*
X6775000Y-3945000D02*
X6815000Y-3985000D01*
X6815000Y-3945000D02*
X6775000Y-3985000D01*
X6780000Y-3750000D02*
X6820000Y-3790000D01*
X6820000Y-3750000D02*
X6780000Y-3790000D01*
X6810000Y-10250000D02*
X6850000Y-10290000D01*
X6850000Y-10250000D02*
X6810000Y-10290000D01*
X6815000Y-10055000D02*
X6855000Y-10095000D01*
X6855000Y-10055000D02*
X6815000Y-10095000D01*
X6815000Y-10690000D02*
X6855000Y-10730000D01*
X6855000Y-10690000D02*
X6815000Y-10730000D01*
X6820000Y-3465000D02*
X6860000Y-3505000D01*
X6860000Y-3465000D02*
X6820000Y-3505000D01*
X6820000Y-10495000D02*
X6860000Y-10535000D01*
X6860000Y-10495000D02*
X6820000Y-10535000D01*
X6825000Y-3270000D02*
X6865000Y-3310000D01*
X6865000Y-3270000D02*
X6825000Y-3310000D01*
X6940000Y-3945000D02*
X6980000Y-3985000D01*
X6980000Y-3945000D02*
X6940000Y-3985000D01*
X6945000Y-3750000D02*
X6985000Y-3790000D01*
X6985000Y-3750000D02*
X6945000Y-3790000D01*
X6975000Y-10250000D02*
X7015000Y-10290000D01*
X7015000Y-10250000D02*
X6975000Y-10290000D01*
X6980000Y-10055000D02*
X7020000Y-10095000D01*
X7020000Y-10055000D02*
X6980000Y-10095000D01*
X6980000Y-10690000D02*
X7020000Y-10730000D01*
X7020000Y-10690000D02*
X6980000Y-10730000D01*
X6985000Y-7125000D02*
X7025000Y-7165000D01*
X7025000Y-7125000D02*
X6985000Y-7165000D01*
X6985000Y-10495000D02*
X7025000Y-10535000D01*
X7025000Y-10495000D02*
X6985000Y-10535000D01*
X6990000Y-3465000D02*
X7030000Y-3505000D01*
X7030000Y-3465000D02*
X6990000Y-3505000D01*
X6990000Y-6930000D02*
X7030000Y-6970000D01*
X7030000Y-6930000D02*
X6990000Y-6970000D01*
X6995000Y-3270000D02*
X7035000Y-3310000D01*
X7035000Y-3270000D02*
X6995000Y-3310000D01*
X7110000Y-3945000D02*
X7150000Y-3985000D01*
X7150000Y-3945000D02*
X7110000Y-3985000D01*
X7115000Y-3750000D02*
X7155000Y-3790000D01*
X7155000Y-3750000D02*
X7115000Y-3790000D01*
X7150000Y-7125000D02*
X7190000Y-7165000D01*
X7190000Y-7125000D02*
X7150000Y-7165000D01*
X7155000Y-6930000D02*
X7195000Y-6970000D01*
X7195000Y-6930000D02*
X7155000Y-6970000D01*
X7225000Y-3465000D02*
X7265000Y-3505000D01*
X7265000Y-3465000D02*
X7225000Y-3505000D01*
X7225000Y-10255000D02*
X7265000Y-10295000D01*
X7265000Y-10255000D02*
X7225000Y-10295000D01*
X7230000Y-3270000D02*
X7270000Y-3310000D01*
X7270000Y-3270000D02*
X7230000Y-3310000D01*
X7230000Y-10060000D02*
X7270000Y-10100000D01*
X7270000Y-10060000D02*
X7230000Y-10100000D01*
X7230000Y-10695000D02*
X7270000Y-10735000D01*
X7270000Y-10695000D02*
X7230000Y-10735000D01*
X7235000Y-10500000D02*
X7275000Y-10540000D01*
X7275000Y-10500000D02*
X7235000Y-10540000D01*
X7290000Y-3945000D02*
X7330000Y-3985000D01*
X7330000Y-3945000D02*
X7290000Y-3985000D01*
X7295000Y-3750000D02*
X7335000Y-3790000D01*
X7335000Y-3750000D02*
X7295000Y-3790000D01*
X7330000Y-7125000D02*
X7370000Y-7165000D01*
X7370000Y-7125000D02*
X7330000Y-7165000D01*
X7335000Y-6930000D02*
X7375000Y-6970000D01*
X7375000Y-6930000D02*
X7335000Y-6970000D01*
X7390000Y-3465000D02*
X7430000Y-3505000D01*
X7430000Y-3465000D02*
X7390000Y-3505000D01*
X7395000Y-3270000D02*
X7435000Y-3310000D01*
X7435000Y-3270000D02*
X7395000Y-3310000D01*
X7395000Y-10255000D02*
X7435000Y-10295000D01*
X7435000Y-10255000D02*
X7395000Y-10295000D01*
X7400000Y-10060000D02*
X7440000Y-10100000D01*
X7440000Y-10060000D02*
X7400000Y-10100000D01*
X7400000Y-10695000D02*
X7440000Y-10735000D01*
X7440000Y-10695000D02*
X7400000Y-10735000D01*
X7405000Y-10500000D02*
X7445000Y-10540000D01*
X7445000Y-10500000D02*
X7405000Y-10540000D01*
X7455000Y-3945000D02*
X7495000Y-3985000D01*
X7495000Y-3945000D02*
X7455000Y-3985000D01*
X7460000Y-3750000D02*
X7500000Y-3790000D01*
X7500000Y-3750000D02*
X7460000Y-3790000D01*
X7500000Y-7125000D02*
X7540000Y-7165000D01*
X7540000Y-7125000D02*
X7500000Y-7165000D01*
X7505000Y-6930000D02*
X7545000Y-6970000D01*
X7545000Y-6930000D02*
X7505000Y-6970000D01*
X7560000Y-3465000D02*
X7600000Y-3505000D01*
X7600000Y-3465000D02*
X7560000Y-3505000D01*
X7565000Y-3270000D02*
X7605000Y-3310000D01*
X7605000Y-3270000D02*
X7565000Y-3310000D01*
X7575000Y-10255000D02*
X7615000Y-10295000D01*
X7615000Y-10255000D02*
X7575000Y-10295000D01*
X7580000Y-10060000D02*
X7620000Y-10100000D01*
X7620000Y-10060000D02*
X7580000Y-10100000D01*
X7580000Y-10695000D02*
X7620000Y-10735000D01*
X7620000Y-10695000D02*
X7580000Y-10735000D01*
X7585000Y-10500000D02*
X7625000Y-10540000D01*
X7625000Y-10500000D02*
X7585000Y-10540000D01*
X7665000Y-7125000D02*
X7705000Y-7165000D01*
X7705000Y-7125000D02*
X7665000Y-7165000D01*
X7670000Y-3945000D02*
X7710000Y-3985000D01*
X7710000Y-3945000D02*
X7670000Y-3985000D01*
X7670000Y-6930000D02*
X7710000Y-6970000D01*
X7710000Y-6930000D02*
X7670000Y-6970000D01*
X7675000Y-3750000D02*
X7715000Y-3790000D01*
X7715000Y-3750000D02*
X7675000Y-3790000D01*
X7740000Y-10255000D02*
X7780000Y-10295000D01*
X7780000Y-10255000D02*
X7740000Y-10295000D01*
X7745000Y-10060000D02*
X7785000Y-10100000D01*
X7785000Y-10060000D02*
X7745000Y-10100000D01*
X7745000Y-10695000D02*
X7785000Y-10735000D01*
X7785000Y-10695000D02*
X7745000Y-10735000D01*
X7750000Y-10500000D02*
X7790000Y-10540000D01*
X7790000Y-10500000D02*
X7750000Y-10540000D01*
X7785000Y-3465000D02*
X7825000Y-3505000D01*
X7825000Y-3465000D02*
X7785000Y-3505000D01*
X7790000Y-3270000D02*
X7830000Y-3310000D01*
X7830000Y-3270000D02*
X7790000Y-3310000D01*
X7820000Y-7125000D02*
X7860000Y-7165000D01*
X7860000Y-7125000D02*
X7820000Y-7165000D01*
X7825000Y-6930000D02*
X7865000Y-6970000D01*
X7865000Y-6930000D02*
X7825000Y-6970000D01*
X7840000Y-3945000D02*
X7880000Y-3985000D01*
X7880000Y-3945000D02*
X7840000Y-3985000D01*
X7845000Y-3750000D02*
X7885000Y-3790000D01*
X7885000Y-3750000D02*
X7845000Y-3790000D01*
X7950000Y-3465000D02*
X7990000Y-3505000D01*
X7990000Y-3465000D02*
X7950000Y-3505000D01*
X7955000Y-3270000D02*
X7995000Y-3310000D01*
X7995000Y-3270000D02*
X7955000Y-3310000D01*
X7965000Y-10245000D02*
X8005000Y-10285000D01*
X8005000Y-10245000D02*
X7965000Y-10285000D01*
X7970000Y-10050000D02*
X8010000Y-10090000D01*
X8010000Y-10050000D02*
X7970000Y-10090000D01*
X7970000Y-10685000D02*
X8010000Y-10725000D01*
X8010000Y-10685000D02*
X7970000Y-10725000D01*
X7975000Y-10490000D02*
X8015000Y-10530000D01*
X8015000Y-10490000D02*
X7975000Y-10530000D01*
X7990000Y-7125000D02*
X8030000Y-7165000D01*
X8030000Y-7125000D02*
X7990000Y-7165000D01*
X7995000Y-6930000D02*
X8035000Y-6970000D01*
X8035000Y-6930000D02*
X7995000Y-6970000D01*
X8020000Y-3945000D02*
X8060000Y-3985000D01*
X8060000Y-3945000D02*
X8020000Y-3985000D01*
X8025000Y-3750000D02*
X8065000Y-3790000D01*
X8065000Y-3750000D02*
X8025000Y-3790000D01*
X8120000Y-3465000D02*
X8160000Y-3505000D01*
X8160000Y-3465000D02*
X8120000Y-3505000D01*
X8125000Y-3270000D02*
X8165000Y-3310000D01*
X8165000Y-3270000D02*
X8125000Y-3310000D01*
X8130000Y-10245000D02*
X8170000Y-10285000D01*
X8170000Y-10245000D02*
X8130000Y-10285000D01*
X8135000Y-10050000D02*
X8175000Y-10090000D01*
X8175000Y-10050000D02*
X8135000Y-10090000D01*
X8135000Y-10685000D02*
X8175000Y-10725000D01*
X8175000Y-10685000D02*
X8135000Y-10725000D01*
X8140000Y-10490000D02*
X8180000Y-10530000D01*
X8180000Y-10490000D02*
X8140000Y-10530000D01*
X8155000Y-7125000D02*
X8195000Y-7165000D01*
X8195000Y-7125000D02*
X8155000Y-7165000D01*
X8160000Y-6930000D02*
X8200000Y-6970000D01*
X8200000Y-6930000D02*
X8160000Y-6970000D01*
X8185000Y-3945000D02*
X8225000Y-3985000D01*
X8225000Y-3945000D02*
X8185000Y-3985000D01*
X8190000Y-3750000D02*
X8230000Y-3790000D01*
X8230000Y-3750000D02*
X8190000Y-3790000D01*
X8245000Y-10805000D02*
X8285000Y-10845000D01*
X8285000Y-10805000D02*
X8245000Y-10845000D01*
X8250000Y-10610000D02*
X8290000Y-10650000D01*
X8290000Y-10610000D02*
X8250000Y-10650000D01*
X8295000Y-3465000D02*
X8335000Y-3505000D01*
X8335000Y-3465000D02*
X8295000Y-3505000D01*
X8300000Y-3270000D02*
X8340000Y-3310000D01*
X8340000Y-3270000D02*
X8300000Y-3310000D01*
X8410000Y-10805000D02*
X8450000Y-10845000D01*
X8450000Y-10805000D02*
X8410000Y-10845000D01*
X8415000Y-10610000D02*
X8455000Y-10650000D01*
X8455000Y-10610000D02*
X8415000Y-10650000D01*
X8460000Y-3465000D02*
X8500000Y-3505000D01*
X8500000Y-3465000D02*
X8460000Y-3505000D01*
X8465000Y-3270000D02*
X8505000Y-3310000D01*
X8505000Y-3270000D02*
X8465000Y-3310000D01*
X8580000Y-10805000D02*
X8620000Y-10845000D01*
X8620000Y-10805000D02*
X8580000Y-10845000D01*
X8585000Y-10610000D02*
X8625000Y-10650000D01*
X8625000Y-10610000D02*
X8585000Y-10650000D01*
X8635000Y-3270000D02*
X8675000Y-3310000D01*
X8675000Y-3270000D02*
X8635000Y-3310000D01*
X8735000Y-10805000D02*
X8775000Y-10845000D01*
X8775000Y-10805000D02*
X8735000Y-10845000D01*
X8740000Y-10610000D02*
X8780000Y-10650000D01*
X8780000Y-10610000D02*
X8740000Y-10650000D01*
X8875000Y-3280000D02*
X8915000Y-3320000D01*
X8915000Y-3280000D02*
X8875000Y-3320000D01*
X8900000Y-10805000D02*
X8940000Y-10845000D01*
X8940000Y-10805000D02*
X8900000Y-10845000D01*
X8905000Y-10610000D02*
X8945000Y-10650000D01*
X8945000Y-10610000D02*
X8905000Y-10650000D01*
X8940000Y-6740000D02*
X8980000Y-6780000D01*
X8980000Y-6740000D02*
X8940000Y-6780000D01*
X8940000Y-6905000D02*
X8980000Y-6945000D01*
X8980000Y-6905000D02*
X8940000Y-6945000D01*
X8940000Y-7085000D02*
X8980000Y-7125000D01*
X8980000Y-7085000D02*
X8940000Y-7125000D01*
X8940000Y-7255000D02*
X8980000Y-7295000D01*
X8980000Y-7255000D02*
X8940000Y-7295000D01*
X8980000Y-8665000D02*
X9020000Y-8705000D01*
X9020000Y-8665000D02*
X8980000Y-8705000D01*
X8980000Y-8830000D02*
X9020000Y-8870000D01*
X9020000Y-8830000D02*
X8980000Y-8870000D01*
X8980000Y-9010000D02*
X9020000Y-9050000D01*
X9020000Y-9010000D02*
X8980000Y-9050000D01*
X8980000Y-9180000D02*
X9020000Y-9220000D01*
X9020000Y-9180000D02*
X8980000Y-9220000D01*
X9040000Y-3280000D02*
X9080000Y-3320000D01*
X9080000Y-3280000D02*
X9040000Y-3320000D01*
X9070000Y-10805000D02*
X9110000Y-10845000D01*
X9110000Y-10805000D02*
X9070000Y-10845000D01*
X9075000Y-10610000D02*
X9115000Y-10650000D01*
X9115000Y-10610000D02*
X9075000Y-10650000D01*
X9135000Y-6745000D02*
X9175000Y-6785000D01*
X9175000Y-6745000D02*
X9135000Y-6785000D01*
X9135000Y-6910000D02*
X9175000Y-6950000D01*
X9175000Y-6910000D02*
X9135000Y-6950000D01*
X9135000Y-7090000D02*
X9175000Y-7130000D01*
X9175000Y-7090000D02*
X9135000Y-7130000D01*
X9135000Y-7260000D02*
X9175000Y-7300000D01*
X9175000Y-7260000D02*
X9135000Y-7300000D01*
X9150000Y-4955000D02*
X9190000Y-4995000D01*
X9190000Y-4955000D02*
X9150000Y-4995000D01*
X9150000Y-5120000D02*
X9190000Y-5160000D01*
X9190000Y-5120000D02*
X9150000Y-5160000D01*
X9150000Y-5300000D02*
X9190000Y-5340000D01*
X9190000Y-5300000D02*
X9150000Y-5340000D01*
X9150000Y-5470000D02*
X9190000Y-5510000D01*
X9190000Y-5470000D02*
X9150000Y-5510000D01*
X9175000Y-8670000D02*
X9215000Y-8710000D01*
X9215000Y-8670000D02*
X9175000Y-8710000D01*
X9175000Y-8835000D02*
X9215000Y-8875000D01*
X9215000Y-8835000D02*
X9175000Y-8875000D01*
X9175000Y-9015000D02*
X9215000Y-9055000D01*
X9215000Y-9015000D02*
X9175000Y-9055000D01*
X9175000Y-9185000D02*
X9215000Y-9225000D01*
X9215000Y-9185000D02*
X9175000Y-9225000D01*
X9210000Y-3280000D02*
X9250000Y-3320000D01*
X9250000Y-3280000D02*
X9210000Y-3320000D01*
X9250000Y-10805000D02*
X9290000Y-10845000D01*
X9290000Y-10805000D02*
X9250000Y-10845000D01*
X9255000Y-10610000D02*
X9295000Y-10650000D01*
X9295000Y-10610000D02*
X9255000Y-10650000D01*
X9345000Y-4960000D02*
X9385000Y-5000000D01*
X9385000Y-4960000D02*
X9345000Y-5000000D01*
X9345000Y-5125000D02*
X9385000Y-5165000D01*
X9385000Y-5125000D02*
X9345000Y-5165000D01*
X9345000Y-5305000D02*
X9385000Y-5345000D01*
X9385000Y-5305000D02*
X9345000Y-5345000D01*
X9345000Y-5475000D02*
X9385000Y-5515000D01*
X9385000Y-5475000D02*
X9345000Y-5515000D01*
X9365000Y-3280000D02*
X9405000Y-3320000D01*
X9405000Y-3280000D02*
X9365000Y-3320000D01*
X9415000Y-10805000D02*
X9455000Y-10845000D01*
X9455000Y-10805000D02*
X9415000Y-10845000D01*
X9420000Y-10610000D02*
X9460000Y-10650000D01*
X9460000Y-10610000D02*
X9420000Y-10650000D01*
X9485000Y-8665000D02*
X9525000Y-8705000D01*
X9525000Y-8665000D02*
X9485000Y-8705000D01*
X9485000Y-8830000D02*
X9525000Y-8870000D01*
X9525000Y-8830000D02*
X9485000Y-8870000D01*
X9485000Y-9010000D02*
X9525000Y-9050000D01*
X9525000Y-9010000D02*
X9485000Y-9050000D01*
X9485000Y-9180000D02*
X9525000Y-9220000D01*
X9525000Y-9180000D02*
X9485000Y-9220000D01*
X9530000Y-3280000D02*
X9570000Y-3320000D01*
X9570000Y-3280000D02*
X9530000Y-3320000D01*
X9615000Y-6745000D02*
X9655000Y-6785000D01*
X9655000Y-6745000D02*
X9615000Y-6785000D01*
X9615000Y-6910000D02*
X9655000Y-6950000D01*
X9655000Y-6910000D02*
X9615000Y-6950000D01*
X9615000Y-7090000D02*
X9655000Y-7130000D01*
X9655000Y-7090000D02*
X9615000Y-7130000D01*
X9615000Y-7260000D02*
X9655000Y-7300000D01*
X9655000Y-7260000D02*
X9615000Y-7300000D01*
X9630000Y-10805000D02*
X9670000Y-10845000D01*
X9670000Y-10805000D02*
X9630000Y-10845000D01*
X9635000Y-10610000D02*
X9675000Y-10650000D01*
X9675000Y-10610000D02*
X9635000Y-10650000D01*
X9680000Y-8670000D02*
X9720000Y-8710000D01*
X9720000Y-8670000D02*
X9680000Y-8710000D01*
X9680000Y-8835000D02*
X9720000Y-8875000D01*
X9720000Y-8835000D02*
X9680000Y-8875000D01*
X9680000Y-9015000D02*
X9720000Y-9055000D01*
X9720000Y-9015000D02*
X9680000Y-9055000D01*
X9680000Y-9185000D02*
X9720000Y-9225000D01*
X9720000Y-9185000D02*
X9680000Y-9225000D01*
X9700000Y-3280000D02*
X9740000Y-3320000D01*
X9740000Y-3280000D02*
X9700000Y-3320000D01*
X9730000Y-4965000D02*
X9770000Y-5005000D01*
X9770000Y-4965000D02*
X9730000Y-5005000D01*
X9730000Y-5130000D02*
X9770000Y-5170000D01*
X9770000Y-5130000D02*
X9730000Y-5170000D01*
X9730000Y-5310000D02*
X9770000Y-5350000D01*
X9770000Y-5310000D02*
X9730000Y-5350000D01*
X9730000Y-5480000D02*
X9770000Y-5520000D01*
X9770000Y-5480000D02*
X9730000Y-5520000D01*
X9800000Y-10805000D02*
X9840000Y-10845000D01*
X9840000Y-10805000D02*
X9800000Y-10845000D01*
X9805000Y-10610000D02*
X9845000Y-10650000D01*
X9845000Y-10610000D02*
X9805000Y-10650000D01*
X9810000Y-6750000D02*
X9850000Y-6790000D01*
X9850000Y-6750000D02*
X9810000Y-6790000D01*
X9810000Y-6915000D02*
X9850000Y-6955000D01*
X9850000Y-6915000D02*
X9810000Y-6955000D01*
X9810000Y-7095000D02*
X9850000Y-7135000D01*
X9850000Y-7095000D02*
X9810000Y-7135000D01*
X9810000Y-7265000D02*
X9850000Y-7305000D01*
X9850000Y-7265000D02*
X9810000Y-7305000D01*
X9880000Y-3280000D02*
X9920000Y-3320000D01*
X9920000Y-3280000D02*
X9880000Y-3320000D01*
X9925000Y-4970000D02*
X9965000Y-5010000D01*
X9965000Y-4970000D02*
X9925000Y-5010000D01*
X9925000Y-5135000D02*
X9965000Y-5175000D01*
X9965000Y-5135000D02*
X9925000Y-5175000D01*
X9925000Y-5315000D02*
X9965000Y-5355000D01*
X9965000Y-5315000D02*
X9925000Y-5355000D01*
X9925000Y-5485000D02*
X9965000Y-5525000D01*
X9965000Y-5485000D02*
X9925000Y-5525000D01*
X9980000Y-10805000D02*
X10020000Y-10845000D01*
X10020000Y-10805000D02*
X9980000Y-10845000D01*
X9985000Y-10610000D02*
X10025000Y-10650000D01*
X10025000Y-10610000D02*
X9985000Y-10650000D01*
X10045000Y-3280000D02*
X10085000Y-3320000D01*
X10085000Y-3280000D02*
X10045000Y-3320000D01*
X10145000Y-10805000D02*
X10185000Y-10845000D01*
X10185000Y-10805000D02*
X10145000Y-10845000D01*
X10150000Y-10610000D02*
X10190000Y-10650000D01*
X10190000Y-10610000D02*
X10150000Y-10650000D01*
X10215000Y-3280000D02*
X10255000Y-3320000D01*
X10255000Y-3280000D02*
X10215000Y-3320000D01*
X10415000Y-3280000D02*
X10455000Y-3320000D01*
X10455000Y-3280000D02*
X10415000Y-3320000D01*
X10595000Y-3295000D02*
X10635000Y-3335000D01*
X10635000Y-3295000D02*
X10595000Y-3335000D01*
X10760000Y-3295000D02*
X10800000Y-3335000D01*
X10800000Y-3295000D02*
X10760000Y-3335000D01*
X10930000Y-3295000D02*
X10970000Y-3335000D01*
X10970000Y-3295000D02*
X10930000Y-3335000D01*
X11085000Y-3295000D02*
X11125000Y-3335000D01*
X11125000Y-3295000D02*
X11085000Y-3335000D01*
X11250000Y-3295000D02*
X11290000Y-3335000D01*
X11290000Y-3295000D02*
X11250000Y-3335000D01*
X11420000Y-3295000D02*
X11460000Y-3335000D01*
X11460000Y-3295000D02*
X11420000Y-3335000D01*
X11600000Y-3295000D02*
X11640000Y-3335000D01*
X11640000Y-3295000D02*
X11600000Y-3335000D01*
X11765000Y-3295000D02*
X11805000Y-3335000D01*
X11805000Y-3295000D02*
X11765000Y-3335000D01*
X11875000Y-7575000D02*
X11915000Y-7615000D01*
X11915000Y-7575000D02*
X11875000Y-7615000D01*
X11875000Y-7740000D02*
X11915000Y-7780000D01*
X11915000Y-7740000D02*
X11875000Y-7780000D01*
X11875000Y-7920000D02*
X11915000Y-7960000D01*
X11915000Y-7920000D02*
X11875000Y-7960000D01*
X11875000Y-8090000D02*
X11915000Y-8130000D01*
X11915000Y-8090000D02*
X11875000Y-8130000D01*
X11880000Y-6790000D02*
X11920000Y-6830000D01*
X11920000Y-6790000D02*
X11880000Y-6830000D01*
X11880000Y-6955000D02*
X11920000Y-6995000D01*
X11920000Y-6955000D02*
X11880000Y-6995000D01*
X11880000Y-7135000D02*
X11920000Y-7175000D01*
X11920000Y-7135000D02*
X11880000Y-7175000D01*
X11880000Y-7305000D02*
X11920000Y-7345000D01*
X11920000Y-7305000D02*
X11880000Y-7345000D01*
X12070000Y-7580000D02*
X12110000Y-7620000D01*
X12110000Y-7580000D02*
X12070000Y-7620000D01*
X12070000Y-7745000D02*
X12110000Y-7785000D01*
X12110000Y-7745000D02*
X12070000Y-7785000D01*
X12070000Y-7925000D02*
X12110000Y-7965000D01*
X12110000Y-7925000D02*
X12070000Y-7965000D01*
X12070000Y-8095000D02*
X12110000Y-8135000D01*
X12110000Y-8095000D02*
X12070000Y-8135000D01*
X12075000Y-6795000D02*
X12115000Y-6835000D01*
X12115000Y-6795000D02*
X12075000Y-6835000D01*
X12075000Y-6960000D02*
X12115000Y-7000000D01*
X12115000Y-6960000D02*
X12075000Y-7000000D01*
X12075000Y-7140000D02*
X12115000Y-7180000D01*
X12115000Y-7140000D02*
X12075000Y-7180000D01*
X12075000Y-7310000D02*
X12115000Y-7350000D01*
X12115000Y-7310000D02*
X12075000Y-7350000D01*
X12090000Y-5335000D02*
X12130000Y-5375000D01*
X12130000Y-5335000D02*
X12090000Y-5375000D01*
X12090000Y-5500000D02*
X12130000Y-5540000D01*
X12130000Y-5500000D02*
X12090000Y-5540000D01*
X12090000Y-5680000D02*
X12130000Y-5720000D01*
X12130000Y-5680000D02*
X12090000Y-5720000D01*
X12090000Y-5850000D02*
X12130000Y-5890000D01*
X12130000Y-5850000D02*
X12090000Y-5890000D01*
X12285000Y-5340000D02*
X12325000Y-5380000D01*
X12325000Y-5340000D02*
X12285000Y-5380000D01*
X12285000Y-5505000D02*
X12325000Y-5545000D01*
X12325000Y-5505000D02*
X12285000Y-5545000D01*
X12285000Y-5685000D02*
X12325000Y-5725000D01*
X12325000Y-5685000D02*
X12285000Y-5725000D01*
X12285000Y-5855000D02*
X12325000Y-5895000D01*
X12325000Y-5855000D02*
X12285000Y-5895000D01*
X4425000Y-5673000D02*
G75*
G02*
X4375000Y-5673000I-25000J0D01*
G01*
X4375000Y-5673000D02*
G75*
G02*
X4425000Y-5673000I25000J0D01*
G01*
X4540000Y-8954000D02*
G75*
G02*
X4490000Y-8954000I-25000J0D01*
G01*
X4490000Y-8954000D02*
G75*
G02*
X4540000Y-8954000I25000J0D01*
G01*
X4580000Y-7725000D02*
G75*
G02*
X4530000Y-7725000I-25000J0D01*
G01*
X4530000Y-7725000D02*
G75*
G02*
X4580000Y-7725000I25000J0D01*
G01*
X5880000Y-3920000D02*
G75*
G02*
X5830000Y-3920000I-25000J0D01*
G01*
X5830000Y-3920000D02*
G75*
G02*
X5880000Y-3920000I25000J0D01*
G01*
X7059000Y-6315000D02*
G75*
G02*
X7009000Y-6315000I-25000J0D01*
G01*
X7009000Y-6315000D02*
G75*
G02*
X7059000Y-6315000I25000J0D01*
G01*
X7060000Y-7845000D02*
G75*
G02*
X7010000Y-7845000I-25000J0D01*
G01*
X7010000Y-7845000D02*
G75*
G02*
X7060000Y-7845000I25000J0D01*
G01*
X8820000Y-10405000D02*
G75*
G02*
X8770000Y-10405000I-25000J0D01*
G01*
X8770000Y-10405000D02*
G75*
G02*
X8820000Y-10405000I25000J0D01*
G01*
X8860000Y-3585000D02*
G75*
G02*
X8810000Y-3585000I-25000J0D01*
G01*
X8810000Y-3585000D02*
G75*
G02*
X8860000Y-3585000I25000J0D01*
G01*
X9640000Y-3820000D02*
G75*
G02*
X9590000Y-3820000I-25000J0D01*
G01*
X9590000Y-3820000D02*
G75*
G02*
X9640000Y-3820000I25000J0D01*
G01*
X10680000Y-10695000D02*
G75*
G02*
X10630000Y-10695000I-25000J0D01*
G01*
X10630000Y-10695000D02*
G75*
G02*
X10680000Y-10695000I25000J0D01*
G01*
X5415000Y-5025000D02*
X5415000Y-5095000D01*
X5380000Y-5060000D02*
X5450000Y-5060000D01*
X5415000Y-8919000D02*
X5415000Y-8989000D01*
X5380000Y-8954000D02*
X5450000Y-8954000D01*
X5615000Y-5025000D02*
X5615000Y-5095000D01*
X5580000Y-5060000D02*
X5650000Y-5060000D01*
X5615000Y-8919000D02*
X5615000Y-8989000D01*
X5580000Y-8954000D02*
X5650000Y-8954000D01*
X7125000Y-5025000D02*
X7125000Y-5095000D01*
X7090000Y-5060000D02*
X7160000Y-5060000D01*
X7125000Y-8919000D02*
X7125000Y-8989000D01*
X7090000Y-8954000D02*
X7160000Y-8954000D01*
X7325000Y-5025000D02*
X7325000Y-5095000D01*
X7290000Y-5060000D02*
X7360000Y-5060000D01*
X7325000Y-8919000D02*
X7325000Y-8989000D01*
X7290000Y-8954000D02*
X7360000Y-8954000D01*
X7800870Y-4326870D02*
X7800870Y-4273130D01*
X7747130Y-4273130D01*
X7747130Y-4326870D01*
X7800870Y-4326870D01*
X7800870Y-5088870D02*
X7800870Y-5035130D01*
X7747130Y-5035130D01*
X7747130Y-5088870D01*
X7800870Y-5088870D01*
X7800870Y-8974870D02*
X7800870Y-8921130D01*
X7747130Y-8921130D01*
X7747130Y-8974870D01*
X7800870Y-8974870D01*
X7800870Y-9736870D02*
X7800870Y-9683130D01*
X7747130Y-9683130D01*
X7747130Y-9736870D01*
X7800870Y-9736870D01*
X8054870Y-4326870D02*
X8054870Y-4273130D01*
X8001130Y-4273130D01*
X8001130Y-4326870D01*
X8054870Y-4326870D01*
X8054870Y-5088870D02*
X8054870Y-5035130D01*
X8001130Y-5035130D01*
X8001130Y-5088870D01*
X8054870Y-5088870D01*
X8054870Y-8974870D02*
X8054870Y-8921130D01*
X8001130Y-8921130D01*
X8001130Y-8974870D01*
X8054870Y-8974870D01*
X8054870Y-9736870D02*
X8054870Y-9683130D01*
X8001130Y-9683130D01*
X8001130Y-9736870D01*
X8054870Y-9736870D01*
X8308870Y-4326870D02*
X8308870Y-4273130D01*
X8255130Y-4273130D01*
X8255130Y-4326870D01*
X8308870Y-4326870D01*
X8308870Y-5088870D02*
X8308870Y-5035130D01*
X8255130Y-5035130D01*
X8255130Y-5088870D01*
X8308870Y-5088870D01*
X8308870Y-8974870D02*
X8308870Y-8921130D01*
X8255130Y-8921130D01*
X8255130Y-8974870D01*
X8308870Y-8974870D01*
X8308870Y-9736870D02*
X8308870Y-9683130D01*
X8255130Y-9683130D01*
X8255130Y-9736870D01*
X8308870Y-9736870D01*
X8562870Y-4326870D02*
X8562870Y-4273130D01*
X8509130Y-4273130D01*
X8509130Y-4326870D01*
X8562870Y-4326870D01*
X8562870Y-5088870D02*
X8562870Y-5035130D01*
X8509130Y-5035130D01*
X8509130Y-5088870D01*
X8562870Y-5088870D01*
X8562870Y-8974870D02*
X8562870Y-8921130D01*
X8509130Y-8921130D01*
X8509130Y-8974870D01*
X8562870Y-8974870D01*
X8562870Y-9736870D02*
X8562870Y-9683130D01*
X8509130Y-9683130D01*
X8509130Y-9736870D01*
X8562870Y-9736870D01*
X4995000Y-4338000D02*
X5035000Y-4298000D01*
X4995000Y-4258000D01*
X4955000Y-4298000D01*
X4995000Y-4338000D01*
X4995000Y-5100000D02*
X5035000Y-5060000D01*
X4995000Y-5020000D01*
X4955000Y-5060000D01*
X4995000Y-5100000D01*
X4995000Y-5713000D02*
X5035000Y-5673000D01*
X4995000Y-5633000D01*
X4955000Y-5673000D01*
X4995000Y-5713000D01*
X4995000Y-6729000D02*
X5035000Y-6689000D01*
X4995000Y-6649000D01*
X4955000Y-6689000D01*
X4995000Y-6729000D01*
X4995000Y-7365000D02*
X5035000Y-7325000D01*
X4995000Y-7285000D01*
X4955000Y-7325000D01*
X4995000Y-7365000D01*
X4995000Y-8381000D02*
X5035000Y-8341000D01*
X4995000Y-8301000D01*
X4955000Y-8341000D01*
X4995000Y-8381000D01*
X4995000Y-8994000D02*
X5035000Y-8954000D01*
X4995000Y-8914000D01*
X4955000Y-8954000D01*
X4995000Y-8994000D01*
X4995000Y-9756000D02*
X5035000Y-9716000D01*
X4995000Y-9676000D01*
X4955000Y-9716000D01*
X4995000Y-9756000D01*
X5625000Y-6221000D02*
X5665000Y-6181000D01*
X5625000Y-6141000D01*
X5585000Y-6181000D01*
X5625000Y-6221000D01*
X5625000Y-6475000D02*
X5665000Y-6435000D01*
X5625000Y-6395000D01*
X5585000Y-6435000D01*
X5625000Y-6475000D01*
X5625000Y-6729000D02*
X5665000Y-6689000D01*
X5625000Y-6649000D01*
X5585000Y-6689000D01*
X5625000Y-6729000D01*
X5625000Y-7365000D02*
X5665000Y-7325000D01*
X5625000Y-7285000D01*
X5585000Y-7325000D01*
X5625000Y-7365000D01*
X5625000Y-7619000D02*
X5665000Y-7579000D01*
X5625000Y-7539000D01*
X5585000Y-7579000D01*
X5625000Y-7619000D01*
X5625000Y-7873000D02*
X5665000Y-7833000D01*
X5625000Y-7793000D01*
X5585000Y-7833000D01*
X5625000Y-7873000D01*
X6505000Y-7365000D02*
X6545000Y-7325000D01*
X6505000Y-7285000D01*
X6465000Y-7325000D01*
X6505000Y-7365000D01*
X6505000Y-8635000D02*
X6545000Y-8595000D01*
X6505000Y-8555000D01*
X6465000Y-8595000D01*
X6505000Y-8635000D01*
X6510000Y-5459000D02*
X6550000Y-5419000D01*
X6510000Y-5379000D01*
X6470000Y-5419000D01*
X6510000Y-5459000D01*
X6510000Y-6729000D02*
X6550000Y-6689000D01*
X6510000Y-6649000D01*
X6470000Y-6689000D01*
X6510000Y-6729000D01*
X7034000Y-5890000D02*
X7074000Y-5850000D01*
X7034000Y-5810000D01*
X6994000Y-5850000D01*
X7034000Y-5890000D01*
X7034000Y-8240000D02*
X7074000Y-8200000D01*
X7034000Y-8160000D01*
X6994000Y-8200000D01*
X7034000Y-8240000D01*
X7796000Y-5890000D02*
X7836000Y-5850000D01*
X7796000Y-5810000D01*
X7756000Y-5850000D01*
X7796000Y-5890000D01*
X7796000Y-8240000D02*
X7836000Y-8200000D01*
X7796000Y-8160000D01*
X7756000Y-8200000D01*
X7796000Y-8240000D01*
X8034000Y-8240000D02*
X8074000Y-8200000D01*
X8034000Y-8160000D01*
X7994000Y-8200000D01*
X8034000Y-8240000D01*
X8074000Y-5890000D02*
X8114000Y-5850000D01*
X8074000Y-5810000D01*
X8034000Y-5850000D01*
X8074000Y-5890000D01*
X8796000Y-8240000D02*
X8836000Y-8200000D01*
X8796000Y-8160000D01*
X8756000Y-8200000D01*
X8796000Y-8240000D01*
X8836000Y-5890000D02*
X8876000Y-5850000D01*
X8836000Y-5810000D01*
X8796000Y-5850000D01*
X8836000Y-5890000D01*
X6460000Y-8909000D02*
X6550000Y-8999000D01*
X6550000Y-8909000D02*
X6460000Y-8999000D01*
X6550000Y-8954000D02*
G75*
G02*
X6460000Y-8954000I-45000J0D01*
G01*
X6460000Y-8954000D02*
G75*
G02*
X6550000Y-8954000I45000J0D01*
G01*
X6460000Y-9671000D02*
X6550000Y-9761000D01*
X6550000Y-9671000D02*
X6460000Y-9761000D01*
X6550000Y-9716000D02*
G75*
G02*
X6460000Y-9716000I-45000J0D01*
G01*
X6460000Y-9716000D02*
G75*
G02*
X6550000Y-9716000I45000J0D01*
G01*
X6465000Y-4253000D02*
X6555000Y-4343000D01*
X6555000Y-4253000D02*
X6465000Y-4343000D01*
X6555000Y-4298000D02*
G75*
G02*
X6465000Y-4298000I-45000J0D01*
G01*
X6465000Y-4298000D02*
G75*
G02*
X6555000Y-4298000I45000J0D01*
G01*
X6465000Y-5015000D02*
X6555000Y-5105000D01*
X6555000Y-5015000D02*
X6465000Y-5105000D01*
X6555000Y-5060000D02*
G75*
G02*
X6465000Y-5060000I-45000J0D01*
G01*
X6465000Y-5060000D02*
G75*
G02*
X6555000Y-5060000I45000J0D01*
G01*
D13*
X10346000Y-10363000D02*
X10456000Y-10473000D01*
X10456000Y-10363000D02*
X10346000Y-10473000D01*
X10401000Y-10363000D02*
X10401000Y-10473000D01*
X10346000Y-10418000D02*
X10456000Y-10418000D01*
X10476000Y-3632000D02*
X10586000Y-3742000D01*
X10586000Y-3632000D02*
X10476000Y-3742000D01*
X10531000Y-3632000D02*
X10531000Y-3742000D01*
X10476000Y-3687000D02*
X10586000Y-3687000D01*
X10600000Y-10363000D02*
X10710000Y-10473000D01*
X10710000Y-10363000D02*
X10600000Y-10473000D01*
X10655000Y-10363000D02*
X10655000Y-10473000D01*
X10600000Y-10418000D02*
X10710000Y-10418000D01*
X10730000Y-3632000D02*
X10840000Y-3742000D01*
X10840000Y-3632000D02*
X10730000Y-3742000D01*
X10785000Y-3632000D02*
X10785000Y-3742000D01*
X10730000Y-3687000D02*
X10840000Y-3687000D01*
X10854000Y-10363000D02*
X10964000Y-10473000D01*
X10964000Y-10363000D02*
X10854000Y-10473000D01*
X10909000Y-10363000D02*
X10909000Y-10473000D01*
X10854000Y-10418000D02*
X10964000Y-10418000D01*
X10984000Y-3632000D02*
X11094000Y-3742000D01*
X11094000Y-3632000D02*
X10984000Y-3742000D01*
X11039000Y-3632000D02*
X11039000Y-3742000D01*
X10984000Y-3687000D02*
X11094000Y-3687000D01*
D14*
X8435000Y-6940000D02*
X8595000Y-7100000D01*
X8595000Y-6940000D02*
X8435000Y-7100000D01*
X8571569Y-7076569D02*
X8571569Y-6963431D01*
X8458431Y-6963431D01*
X8458431Y-7076569D01*
X8571569Y-7076569D01*
X9335000Y-7830000D02*
X9495000Y-7990000D01*
X9495000Y-7830000D02*
X9335000Y-7990000D01*
X9471569Y-7966569D02*
X9471569Y-7853431D01*
X9358431Y-7853431D01*
X9358431Y-7966569D01*
X9471569Y-7966569D01*
X9335000Y-9830000D02*
X9495000Y-9990000D01*
X9495000Y-9830000D02*
X9335000Y-9990000D01*
X9471569Y-9966569D02*
X9471569Y-9853431D01*
X9358431Y-9853431D01*
X9358431Y-9966569D01*
X9471569Y-9966569D01*
X9495000Y-4210000D02*
X9655000Y-4370000D01*
X9655000Y-4210000D02*
X9495000Y-4370000D01*
X9631569Y-4346569D02*
X9631569Y-4233431D01*
X9518431Y-4233431D01*
X9518431Y-4346569D01*
X9631569Y-4346569D01*
X9495000Y-6210000D02*
X9655000Y-6370000D01*
X9655000Y-6210000D02*
X9495000Y-6370000D01*
X9631569Y-6346569D02*
X9631569Y-6233431D01*
X9518431Y-6233431D01*
X9518431Y-6346569D01*
X9631569Y-6346569D01*
X10435000Y-6940000D02*
X10595000Y-7100000D01*
X10595000Y-6940000D02*
X10435000Y-7100000D01*
X10571569Y-7076569D02*
X10571569Y-6963431D01*
X10458431Y-6963431D01*
X10458431Y-7076569D01*
X10571569Y-7076569D01*
D11*
X11260000Y-7150000D02*
X11460000Y-7350000D01*
X11460000Y-7150000D02*
X11260000Y-7350000D01*
X11360000Y-7350000D02*
X11460000Y-7250000D01*
X11360000Y-7150000D01*
X11260000Y-7250000D01*
X11360000Y-7350000D01*
X11380000Y-10430000D02*
X11580000Y-10630000D01*
X11580000Y-10430000D02*
X11380000Y-10630000D01*
X11480000Y-10630000D02*
X11580000Y-10530000D01*
X11480000Y-10430000D01*
X11380000Y-10530000D01*
X11480000Y-10630000D01*
X11570000Y-8620000D02*
X11770000Y-8820000D01*
X11770000Y-8620000D02*
X11570000Y-8820000D01*
X11670000Y-8820000D02*
X11770000Y-8720000D01*
X11670000Y-8620000D01*
X11570000Y-8720000D01*
X11670000Y-8820000D01*
X11570000Y-9620000D02*
X11770000Y-9820000D01*
X11770000Y-9620000D02*
X11570000Y-9820000D01*
X11670000Y-9820000D02*
X11770000Y-9720000D01*
X11670000Y-9620000D01*
X11570000Y-9720000D01*
X11670000Y-9820000D01*
X11580000Y-4150000D02*
X11780000Y-4350000D01*
X11780000Y-4150000D02*
X11580000Y-4350000D01*
X11680000Y-4350000D02*
X11780000Y-4250000D01*
X11680000Y-4150000D01*
X11580000Y-4250000D01*
X11680000Y-4350000D01*
X11580000Y-4870000D02*
X11780000Y-5070000D01*
X11780000Y-4870000D02*
X11580000Y-5070000D01*
X11680000Y-5070000D02*
X11780000Y-4970000D01*
X11680000Y-4870000D01*
X11580000Y-4970000D01*
X11680000Y-5070000D01*
X11590000Y-5860000D02*
X11790000Y-6060000D01*
X11790000Y-5860000D02*
X11590000Y-6060000D01*
X11690000Y-6060000D02*
X11790000Y-5960000D01*
X11690000Y-5860000D01*
X11590000Y-5960000D01*
X11690000Y-6060000D01*
X12485000Y-6365000D02*
X12685000Y-6565000D01*
X12685000Y-6365000D02*
X12485000Y-6565000D01*
X12585000Y-6565000D02*
X12685000Y-6465000D01*
X12585000Y-6365000D01*
X12485000Y-6465000D01*
X12585000Y-6565000D01*
X12485000Y-7215000D02*
X12685000Y-7415000D01*
X12685000Y-7215000D02*
X12485000Y-7415000D01*
X12585000Y-7415000D02*
X12685000Y-7315000D01*
X12585000Y-7215000D01*
X12485000Y-7315000D01*
X12585000Y-7415000D01*
X12485000Y-8620000D02*
X12685000Y-8820000D01*
X12685000Y-8620000D02*
X12485000Y-8820000D01*
X12585000Y-8820000D02*
X12685000Y-8720000D01*
X12585000Y-8620000D01*
X12485000Y-8720000D01*
X12585000Y-8820000D01*
X12485000Y-9620000D02*
X12685000Y-9820000D01*
X12685000Y-9620000D02*
X12485000Y-9820000D01*
X12585000Y-9820000D02*
X12685000Y-9720000D01*
X12585000Y-9620000D01*
X12485000Y-9720000D01*
X12585000Y-9820000D01*
X12495000Y-4150000D02*
X12695000Y-4350000D01*
X12695000Y-4150000D02*
X12495000Y-4350000D01*
X12595000Y-4350000D02*
X12695000Y-4250000D01*
X12595000Y-4150000D01*
X12495000Y-4250000D01*
X12595000Y-4350000D01*
X12495000Y-4870000D02*
X12695000Y-5070000D01*
X12695000Y-4870000D02*
X12495000Y-5070000D01*
X12595000Y-5070000D02*
X12695000Y-4970000D01*
X12595000Y-4870000D01*
X12495000Y-4970000D01*
X12595000Y-5070000D01*
X4023872Y-11303389D02*
X4023872Y-11103389D01*
X4023872Y-11103389D02*
X4071491Y-11103389D01*
X4071491Y-11103389D02*
X4100062Y-11112913D01*
X4100062Y-11112913D02*
X4119110Y-11131960D01*
X4119110Y-11131960D02*
X4128634Y-11151008D01*
X4128634Y-11151008D02*
X4138157Y-11189103D01*
X4138157Y-11189103D02*
X4138157Y-11217674D01*
X4138157Y-11217674D02*
X4128634Y-11255770D01*
X4128634Y-11255770D02*
X4119110Y-11274817D01*
X4119110Y-11274817D02*
X4100062Y-11293865D01*
X4100062Y-11293865D02*
X4071491Y-11303389D01*
X4071491Y-11303389D02*
X4023872Y-11303389D01*
X4223872Y-11303389D02*
X4223872Y-11170055D01*
X4223872Y-11208151D02*
X4233396Y-11189103D01*
X4233396Y-11189103D02*
X4242919Y-11179579D01*
X4242919Y-11179579D02*
X4261967Y-11170055D01*
X4261967Y-11170055D02*
X4281015Y-11170055D01*
X4347681Y-11303389D02*
X4347681Y-11170055D01*
X4347681Y-11103389D02*
X4338158Y-11112913D01*
X4338158Y-11112913D02*
X4347681Y-11122436D01*
X4347681Y-11122436D02*
X4357205Y-11112913D01*
X4357205Y-11112913D02*
X4347681Y-11103389D01*
X4347681Y-11103389D02*
X4347681Y-11122436D01*
X4471491Y-11303389D02*
X4452443Y-11293865D01*
X4452443Y-11293865D02*
X4442919Y-11274817D01*
X4442919Y-11274817D02*
X4442919Y-11103389D01*
X4576253Y-11303389D02*
X4557205Y-11293865D01*
X4557205Y-11293865D02*
X4547681Y-11274817D01*
X4547681Y-11274817D02*
X4547681Y-11103389D01*
X4804824Y-11303389D02*
X4804824Y-11103389D01*
X4804824Y-11103389D02*
X4871491Y-11246246D01*
X4871491Y-11246246D02*
X4938158Y-11103389D01*
X4938158Y-11103389D02*
X4938158Y-11303389D01*
X5119110Y-11303389D02*
X5119110Y-11198627D01*
X5119110Y-11198627D02*
X5109586Y-11179579D01*
X5109586Y-11179579D02*
X5090539Y-11170055D01*
X5090539Y-11170055D02*
X5052443Y-11170055D01*
X5052443Y-11170055D02*
X5033396Y-11179579D01*
X5119110Y-11293865D02*
X5100062Y-11303389D01*
X5100062Y-11303389D02*
X5052443Y-11303389D01*
X5052443Y-11303389D02*
X5033396Y-11293865D01*
X5033396Y-11293865D02*
X5023872Y-11274817D01*
X5023872Y-11274817D02*
X5023872Y-11255770D01*
X5023872Y-11255770D02*
X5033396Y-11236722D01*
X5033396Y-11236722D02*
X5052443Y-11227198D01*
X5052443Y-11227198D02*
X5100062Y-11227198D01*
X5100062Y-11227198D02*
X5119110Y-11217674D01*
X5214348Y-11170055D02*
X5214348Y-11370055D01*
X5214348Y-11179579D02*
X5233396Y-11170055D01*
X5233396Y-11170055D02*
X5271491Y-11170055D01*
X5271491Y-11170055D02*
X5290539Y-11179579D01*
X5290539Y-11179579D02*
X5300062Y-11189103D01*
X5300062Y-11189103D02*
X5309586Y-11208151D01*
X5309586Y-11208151D02*
X5309586Y-11265293D01*
X5309586Y-11265293D02*
X5300062Y-11284341D01*
X5300062Y-11284341D02*
X5290539Y-11293865D01*
X5290539Y-11293865D02*
X5271491Y-11303389D01*
X5271491Y-11303389D02*
X5233396Y-11303389D01*
X5233396Y-11303389D02*
X5214348Y-11293865D01*
X5395300Y-11284341D02*
X5404824Y-11293865D01*
X5404824Y-11293865D02*
X5395300Y-11303389D01*
X5395300Y-11303389D02*
X5385777Y-11293865D01*
X5385777Y-11293865D02*
X5395300Y-11284341D01*
X5395300Y-11284341D02*
X5395300Y-11303389D01*
X5395300Y-11179579D02*
X5404824Y-11189103D01*
X5404824Y-11189103D02*
X5395300Y-11198627D01*
X5395300Y-11198627D02*
X5385777Y-11189103D01*
X5385777Y-11189103D02*
X5395300Y-11179579D01*
X5395300Y-11179579D02*
X5395300Y-11198627D01*
D12*
X3723095Y-11611905D02*
X3763095Y-11651905D01*
X3763095Y-11611905D02*
X3723095Y-11651905D01*
D11*
X4061967Y-11523389D02*
X4081015Y-11523389D01*
X4081015Y-11523389D02*
X4100062Y-11532913D01*
X4100062Y-11532913D02*
X4109586Y-11542436D01*
X4109586Y-11542436D02*
X4119110Y-11561484D01*
X4119110Y-11561484D02*
X4128634Y-11599579D01*
X4128634Y-11599579D02*
X4128634Y-11647198D01*
X4128634Y-11647198D02*
X4119110Y-11685293D01*
X4119110Y-11685293D02*
X4109586Y-11704341D01*
X4109586Y-11704341D02*
X4100062Y-11713865D01*
X4100062Y-11713865D02*
X4081015Y-11723389D01*
X4081015Y-11723389D02*
X4061967Y-11723389D01*
X4061967Y-11723389D02*
X4042919Y-11713865D01*
X4042919Y-11713865D02*
X4033396Y-11704341D01*
X4033396Y-11704341D02*
X4023872Y-11685293D01*
X4023872Y-11685293D02*
X4014348Y-11647198D01*
X4014348Y-11647198D02*
X4014348Y-11599579D01*
X4014348Y-11599579D02*
X4023872Y-11561484D01*
X4023872Y-11561484D02*
X4033396Y-11542436D01*
X4033396Y-11542436D02*
X4042919Y-11532913D01*
X4042919Y-11532913D02*
X4061967Y-11523389D01*
X4214348Y-11704341D02*
X4223872Y-11713865D01*
X4223872Y-11713865D02*
X4214348Y-11723389D01*
X4214348Y-11723389D02*
X4204824Y-11713865D01*
X4204824Y-11713865D02*
X4214348Y-11704341D01*
X4214348Y-11704341D02*
X4214348Y-11723389D01*
X4395300Y-11590055D02*
X4395300Y-11723389D01*
X4347681Y-11513865D02*
X4300062Y-11656722D01*
X4300062Y-11656722D02*
X4423872Y-11656722D01*
X4538158Y-11523389D02*
X4557205Y-11523389D01*
X4557205Y-11523389D02*
X4576253Y-11532913D01*
X4576253Y-11532913D02*
X4585777Y-11542436D01*
X4585777Y-11542436D02*
X4595300Y-11561484D01*
X4595300Y-11561484D02*
X4604824Y-11599579D01*
X4604824Y-11599579D02*
X4604824Y-11647198D01*
X4604824Y-11647198D02*
X4595300Y-11685293D01*
X4595300Y-11685293D02*
X4585777Y-11704341D01*
X4585777Y-11704341D02*
X4576253Y-11713865D01*
X4576253Y-11713865D02*
X4557205Y-11723389D01*
X4557205Y-11723389D02*
X4538158Y-11723389D01*
X4538158Y-11723389D02*
X4519110Y-11713865D01*
X4519110Y-11713865D02*
X4509586Y-11704341D01*
X4509586Y-11704341D02*
X4500062Y-11685293D01*
X4500062Y-11685293D02*
X4490539Y-11647198D01*
X4490539Y-11647198D02*
X4490539Y-11599579D01*
X4490539Y-11599579D02*
X4500062Y-11561484D01*
X4500062Y-11561484D02*
X4509586Y-11542436D01*
X4509586Y-11542436D02*
X4519110Y-11532913D01*
X4519110Y-11532913D02*
X4538158Y-11523389D01*
X4728634Y-11523389D02*
X4747681Y-11523389D01*
X4747681Y-11523389D02*
X4766729Y-11532913D01*
X4766729Y-11532913D02*
X4776253Y-11542436D01*
X4776253Y-11542436D02*
X4785777Y-11561484D01*
X4785777Y-11561484D02*
X4795300Y-11599579D01*
X4795300Y-11599579D02*
X4795300Y-11647198D01*
X4795300Y-11647198D02*
X4785777Y-11685293D01*
X4785777Y-11685293D02*
X4776253Y-11704341D01*
X4776253Y-11704341D02*
X4766729Y-11713865D01*
X4766729Y-11713865D02*
X4747681Y-11723389D01*
X4747681Y-11723389D02*
X4728634Y-11723389D01*
X4728634Y-11723389D02*
X4709586Y-11713865D01*
X4709586Y-11713865D02*
X4700062Y-11704341D01*
X4700062Y-11704341D02*
X4690539Y-11685293D01*
X4690539Y-11685293D02*
X4681015Y-11647198D01*
X4681015Y-11647198D02*
X4681015Y-11599579D01*
X4681015Y-11599579D02*
X4690539Y-11561484D01*
X4690539Y-11561484D02*
X4700062Y-11542436D01*
X4700062Y-11542436D02*
X4709586Y-11532913D01*
X4709586Y-11532913D02*
X4728634Y-11523389D01*
X4881015Y-11723389D02*
X4881015Y-11590055D01*
X4881015Y-11609103D02*
X4890539Y-11599579D01*
X4890539Y-11599579D02*
X4909586Y-11590055D01*
X4909586Y-11590055D02*
X4938158Y-11590055D01*
X4938158Y-11590055D02*
X4957205Y-11599579D01*
X4957205Y-11599579D02*
X4966729Y-11618627D01*
X4966729Y-11618627D02*
X4966729Y-11723389D01*
X4966729Y-11618627D02*
X4976253Y-11599579D01*
X4976253Y-11599579D02*
X4995300Y-11590055D01*
X4995300Y-11590055D02*
X5023872Y-11590055D01*
X5023872Y-11590055D02*
X5042920Y-11599579D01*
X5042920Y-11599579D02*
X5052443Y-11618627D01*
X5052443Y-11618627D02*
X5052443Y-11723389D01*
X5147681Y-11723389D02*
X5147681Y-11590055D01*
X5147681Y-11609103D02*
X5157205Y-11599579D01*
X5157205Y-11599579D02*
X5176253Y-11590055D01*
X5176253Y-11590055D02*
X5204824Y-11590055D01*
X5204824Y-11590055D02*
X5223872Y-11599579D01*
X5223872Y-11599579D02*
X5233396Y-11618627D01*
X5233396Y-11618627D02*
X5233396Y-11723389D01*
X5233396Y-11618627D02*
X5242920Y-11599579D01*
X5242920Y-11599579D02*
X5261967Y-11590055D01*
X5261967Y-11590055D02*
X5290539Y-11590055D01*
X5290539Y-11590055D02*
X5309586Y-11599579D01*
X5309586Y-11599579D02*
X5319110Y-11618627D01*
X5319110Y-11618627D02*
X5319110Y-11723389D01*
X5709586Y-11513865D02*
X5538158Y-11771008D01*
X5966729Y-11523389D02*
X5985777Y-11523389D01*
X5985777Y-11523389D02*
X6004824Y-11532913D01*
X6004824Y-11532913D02*
X6014348Y-11542436D01*
X6014348Y-11542436D02*
X6023872Y-11561484D01*
X6023872Y-11561484D02*
X6033396Y-11599579D01*
X6033396Y-11599579D02*
X6033396Y-11647198D01*
X6033396Y-11647198D02*
X6023872Y-11685293D01*
X6023872Y-11685293D02*
X6014348Y-11704341D01*
X6014348Y-11704341D02*
X6004824Y-11713865D01*
X6004824Y-11713865D02*
X5985777Y-11723389D01*
X5985777Y-11723389D02*
X5966729Y-11723389D01*
X5966729Y-11723389D02*
X5947681Y-11713865D01*
X5947681Y-11713865D02*
X5938158Y-11704341D01*
X5938158Y-11704341D02*
X5928634Y-11685293D01*
X5928634Y-11685293D02*
X5919110Y-11647198D01*
X5919110Y-11647198D02*
X5919110Y-11599579D01*
X5919110Y-11599579D02*
X5928634Y-11561484D01*
X5928634Y-11561484D02*
X5938158Y-11542436D01*
X5938158Y-11542436D02*
X5947681Y-11532913D01*
X5947681Y-11532913D02*
X5966729Y-11523389D01*
X6119110Y-11704341D02*
X6128634Y-11713865D01*
X6128634Y-11713865D02*
X6119110Y-11723389D01*
X6119110Y-11723389D02*
X6109586Y-11713865D01*
X6109586Y-11713865D02*
X6119110Y-11704341D01*
X6119110Y-11704341D02*
X6119110Y-11723389D01*
X6252443Y-11523389D02*
X6271491Y-11523389D01*
X6271491Y-11523389D02*
X6290539Y-11532913D01*
X6290539Y-11532913D02*
X6300062Y-11542436D01*
X6300062Y-11542436D02*
X6309586Y-11561484D01*
X6309586Y-11561484D02*
X6319110Y-11599579D01*
X6319110Y-11599579D02*
X6319110Y-11647198D01*
X6319110Y-11647198D02*
X6309586Y-11685293D01*
X6309586Y-11685293D02*
X6300062Y-11704341D01*
X6300062Y-11704341D02*
X6290539Y-11713865D01*
X6290539Y-11713865D02*
X6271491Y-11723389D01*
X6271491Y-11723389D02*
X6252443Y-11723389D01*
X6252443Y-11723389D02*
X6233396Y-11713865D01*
X6233396Y-11713865D02*
X6223872Y-11704341D01*
X6223872Y-11704341D02*
X6214348Y-11685293D01*
X6214348Y-11685293D02*
X6204824Y-11647198D01*
X6204824Y-11647198D02*
X6204824Y-11599579D01*
X6204824Y-11599579D02*
X6214348Y-11561484D01*
X6214348Y-11561484D02*
X6223872Y-11542436D01*
X6223872Y-11542436D02*
X6233396Y-11532913D01*
X6233396Y-11532913D02*
X6252443Y-11523389D01*
X6509586Y-11723389D02*
X6395301Y-11723389D01*
X6452443Y-11723389D02*
X6452443Y-11523389D01*
X6452443Y-11523389D02*
X6433396Y-11551960D01*
X6433396Y-11551960D02*
X6414348Y-11571008D01*
X6414348Y-11571008D02*
X6395301Y-11580532D01*
X6690539Y-11523389D02*
X6595301Y-11523389D01*
X6595301Y-11523389D02*
X6585777Y-11618627D01*
X6585777Y-11618627D02*
X6595301Y-11609103D01*
X6595301Y-11609103D02*
X6614348Y-11599579D01*
X6614348Y-11599579D02*
X6661967Y-11599579D01*
X6661967Y-11599579D02*
X6681015Y-11609103D01*
X6681015Y-11609103D02*
X6690539Y-11618627D01*
X6690539Y-11618627D02*
X6700062Y-11637674D01*
X6700062Y-11637674D02*
X6700062Y-11685293D01*
X6700062Y-11685293D02*
X6690539Y-11704341D01*
X6690539Y-11704341D02*
X6681015Y-11713865D01*
X6681015Y-11713865D02*
X6661967Y-11723389D01*
X6661967Y-11723389D02*
X6614348Y-11723389D01*
X6614348Y-11723389D02*
X6595301Y-11713865D01*
X6595301Y-11713865D02*
X6585777Y-11704341D01*
X6766729Y-11523389D02*
X6900062Y-11523389D01*
X6900062Y-11523389D02*
X6814348Y-11723389D01*
X6966729Y-11523389D02*
X6966729Y-11561484D01*
X7042920Y-11523389D02*
X7042920Y-11561484D01*
X7338158Y-11799579D02*
X7328634Y-11790055D01*
X7328634Y-11790055D02*
X7309586Y-11761484D01*
X7309586Y-11761484D02*
X7300063Y-11742436D01*
X7300063Y-11742436D02*
X7290539Y-11713865D01*
X7290539Y-11713865D02*
X7281015Y-11666246D01*
X7281015Y-11666246D02*
X7281015Y-11628151D01*
X7281015Y-11628151D02*
X7290539Y-11580532D01*
X7290539Y-11580532D02*
X7300063Y-11551960D01*
X7300063Y-11551960D02*
X7309586Y-11532913D01*
X7309586Y-11532913D02*
X7328634Y-11504341D01*
X7328634Y-11504341D02*
X7338158Y-11494817D01*
X7395301Y-11523389D02*
X7519110Y-11523389D01*
X7519110Y-11523389D02*
X7452443Y-11599579D01*
X7452443Y-11599579D02*
X7481015Y-11599579D01*
X7481015Y-11599579D02*
X7500063Y-11609103D01*
X7500063Y-11609103D02*
X7509586Y-11618627D01*
X7509586Y-11618627D02*
X7519110Y-11637674D01*
X7519110Y-11637674D02*
X7519110Y-11685293D01*
X7519110Y-11685293D02*
X7509586Y-11704341D01*
X7509586Y-11704341D02*
X7500063Y-11713865D01*
X7500063Y-11713865D02*
X7481015Y-11723389D01*
X7481015Y-11723389D02*
X7423872Y-11723389D01*
X7423872Y-11723389D02*
X7404824Y-11713865D01*
X7404824Y-11713865D02*
X7395301Y-11704341D01*
X7585777Y-11523389D02*
X7719110Y-11523389D01*
X7719110Y-11523389D02*
X7633396Y-11723389D01*
X7804824Y-11723389D02*
X7842920Y-11723389D01*
X7842920Y-11723389D02*
X7861967Y-11713865D01*
X7861967Y-11713865D02*
X7871491Y-11704341D01*
X7871491Y-11704341D02*
X7890539Y-11675770D01*
X7890539Y-11675770D02*
X7900063Y-11637674D01*
X7900063Y-11637674D02*
X7900063Y-11561484D01*
X7900063Y-11561484D02*
X7890539Y-11542436D01*
X7890539Y-11542436D02*
X7881015Y-11532913D01*
X7881015Y-11532913D02*
X7861967Y-11523389D01*
X7861967Y-11523389D02*
X7823872Y-11523389D01*
X7823872Y-11523389D02*
X7804824Y-11532913D01*
X7804824Y-11532913D02*
X7795301Y-11542436D01*
X7795301Y-11542436D02*
X7785777Y-11561484D01*
X7785777Y-11561484D02*
X7785777Y-11609103D01*
X7785777Y-11609103D02*
X7795301Y-11628151D01*
X7795301Y-11628151D02*
X7804824Y-11637674D01*
X7804824Y-11637674D02*
X7823872Y-11647198D01*
X7823872Y-11647198D02*
X7861967Y-11647198D01*
X7861967Y-11647198D02*
X7881015Y-11637674D01*
X7881015Y-11637674D02*
X7890539Y-11628151D01*
X7890539Y-11628151D02*
X7900063Y-11609103D01*
X8138158Y-11723389D02*
X8138158Y-11523389D01*
X8223872Y-11723389D02*
X8223872Y-11618627D01*
X8223872Y-11618627D02*
X8214348Y-11599579D01*
X8214348Y-11599579D02*
X8195301Y-11590055D01*
X8195301Y-11590055D02*
X8166729Y-11590055D01*
X8166729Y-11590055D02*
X8147682Y-11599579D01*
X8147682Y-11599579D02*
X8138158Y-11609103D01*
X8347682Y-11723389D02*
X8328634Y-11713865D01*
X8328634Y-11713865D02*
X8319110Y-11704341D01*
X8319110Y-11704341D02*
X8309586Y-11685293D01*
X8309586Y-11685293D02*
X8309586Y-11628151D01*
X8309586Y-11628151D02*
X8319110Y-11609103D01*
X8319110Y-11609103D02*
X8328634Y-11599579D01*
X8328634Y-11599579D02*
X8347682Y-11590055D01*
X8347682Y-11590055D02*
X8376253Y-11590055D01*
X8376253Y-11590055D02*
X8395301Y-11599579D01*
X8395301Y-11599579D02*
X8404825Y-11609103D01*
X8404825Y-11609103D02*
X8414348Y-11628151D01*
X8414348Y-11628151D02*
X8414348Y-11685293D01*
X8414348Y-11685293D02*
X8404825Y-11704341D01*
X8404825Y-11704341D02*
X8395301Y-11713865D01*
X8395301Y-11713865D02*
X8376253Y-11723389D01*
X8376253Y-11723389D02*
X8347682Y-11723389D01*
X8528634Y-11723389D02*
X8509587Y-11713865D01*
X8509587Y-11713865D02*
X8500063Y-11694817D01*
X8500063Y-11694817D02*
X8500063Y-11523389D01*
X8681015Y-11713865D02*
X8661968Y-11723389D01*
X8661968Y-11723389D02*
X8623872Y-11723389D01*
X8623872Y-11723389D02*
X8604825Y-11713865D01*
X8604825Y-11713865D02*
X8595301Y-11694817D01*
X8595301Y-11694817D02*
X8595301Y-11618627D01*
X8595301Y-11618627D02*
X8604825Y-11599579D01*
X8604825Y-11599579D02*
X8623872Y-11590055D01*
X8623872Y-11590055D02*
X8661968Y-11590055D01*
X8661968Y-11590055D02*
X8681015Y-11599579D01*
X8681015Y-11599579D02*
X8690539Y-11618627D01*
X8690539Y-11618627D02*
X8690539Y-11637674D01*
X8690539Y-11637674D02*
X8595301Y-11656722D01*
X8766729Y-11713865D02*
X8785777Y-11723389D01*
X8785777Y-11723389D02*
X8823872Y-11723389D01*
X8823872Y-11723389D02*
X8842920Y-11713865D01*
X8842920Y-11713865D02*
X8852444Y-11694817D01*
X8852444Y-11694817D02*
X8852444Y-11685293D01*
X8852444Y-11685293D02*
X8842920Y-11666246D01*
X8842920Y-11666246D02*
X8823872Y-11656722D01*
X8823872Y-11656722D02*
X8795301Y-11656722D01*
X8795301Y-11656722D02*
X8776253Y-11647198D01*
X8776253Y-11647198D02*
X8766729Y-11628151D01*
X8766729Y-11628151D02*
X8766729Y-11618627D01*
X8766729Y-11618627D02*
X8776253Y-11599579D01*
X8776253Y-11599579D02*
X8795301Y-11590055D01*
X8795301Y-11590055D02*
X8823872Y-11590055D01*
X8823872Y-11590055D02*
X8842920Y-11599579D01*
X8919110Y-11799579D02*
X8928634Y-11790055D01*
X8928634Y-11790055D02*
X8947682Y-11761484D01*
X8947682Y-11761484D02*
X8957206Y-11742436D01*
X8957206Y-11742436D02*
X8966729Y-11713865D01*
X8966729Y-11713865D02*
X8976253Y-11666246D01*
X8976253Y-11666246D02*
X8976253Y-11628151D01*
X8976253Y-11628151D02*
X8966729Y-11580532D01*
X8966729Y-11580532D02*
X8957206Y-11551960D01*
X8957206Y-11551960D02*
X8947682Y-11532913D01*
X8947682Y-11532913D02*
X8928634Y-11504341D01*
X8928634Y-11504341D02*
X8919110Y-11494817D01*
D12*
X3763095Y-11895905D02*
G75*
G02*
X3713095Y-11895905I-25000J0D01*
G01*
X3713095Y-11895905D02*
G75*
G02*
X3763095Y-11895905I25000J0D01*
G01*
D11*
X4061967Y-11787389D02*
X4081015Y-11787389D01*
X4081015Y-11787389D02*
X4100062Y-11796913D01*
X4100062Y-11796913D02*
X4109586Y-11806436D01*
X4109586Y-11806436D02*
X4119110Y-11825484D01*
X4119110Y-11825484D02*
X4128634Y-11863579D01*
X4128634Y-11863579D02*
X4128634Y-11911198D01*
X4128634Y-11911198D02*
X4119110Y-11949293D01*
X4119110Y-11949293D02*
X4109586Y-11968341D01*
X4109586Y-11968341D02*
X4100062Y-11977865D01*
X4100062Y-11977865D02*
X4081015Y-11987389D01*
X4081015Y-11987389D02*
X4061967Y-11987389D01*
X4061967Y-11987389D02*
X4042919Y-11977865D01*
X4042919Y-11977865D02*
X4033396Y-11968341D01*
X4033396Y-11968341D02*
X4023872Y-11949293D01*
X4023872Y-11949293D02*
X4014348Y-11911198D01*
X4014348Y-11911198D02*
X4014348Y-11863579D01*
X4014348Y-11863579D02*
X4023872Y-11825484D01*
X4023872Y-11825484D02*
X4033396Y-11806436D01*
X4033396Y-11806436D02*
X4042919Y-11796913D01*
X4042919Y-11796913D02*
X4061967Y-11787389D01*
X4214348Y-11968341D02*
X4223872Y-11977865D01*
X4223872Y-11977865D02*
X4214348Y-11987389D01*
X4214348Y-11987389D02*
X4204824Y-11977865D01*
X4204824Y-11977865D02*
X4214348Y-11968341D01*
X4214348Y-11968341D02*
X4214348Y-11987389D01*
X4404824Y-11787389D02*
X4309586Y-11787389D01*
X4309586Y-11787389D02*
X4300062Y-11882627D01*
X4300062Y-11882627D02*
X4309586Y-11873103D01*
X4309586Y-11873103D02*
X4328634Y-11863579D01*
X4328634Y-11863579D02*
X4376253Y-11863579D01*
X4376253Y-11863579D02*
X4395300Y-11873103D01*
X4395300Y-11873103D02*
X4404824Y-11882627D01*
X4404824Y-11882627D02*
X4414348Y-11901674D01*
X4414348Y-11901674D02*
X4414348Y-11949293D01*
X4414348Y-11949293D02*
X4404824Y-11968341D01*
X4404824Y-11968341D02*
X4395300Y-11977865D01*
X4395300Y-11977865D02*
X4376253Y-11987389D01*
X4376253Y-11987389D02*
X4328634Y-11987389D01*
X4328634Y-11987389D02*
X4309586Y-11977865D01*
X4309586Y-11977865D02*
X4300062Y-11968341D01*
X4538158Y-11787389D02*
X4557205Y-11787389D01*
X4557205Y-11787389D02*
X4576253Y-11796913D01*
X4576253Y-11796913D02*
X4585777Y-11806436D01*
X4585777Y-11806436D02*
X4595300Y-11825484D01*
X4595300Y-11825484D02*
X4604824Y-11863579D01*
X4604824Y-11863579D02*
X4604824Y-11911198D01*
X4604824Y-11911198D02*
X4595300Y-11949293D01*
X4595300Y-11949293D02*
X4585777Y-11968341D01*
X4585777Y-11968341D02*
X4576253Y-11977865D01*
X4576253Y-11977865D02*
X4557205Y-11987389D01*
X4557205Y-11987389D02*
X4538158Y-11987389D01*
X4538158Y-11987389D02*
X4519110Y-11977865D01*
X4519110Y-11977865D02*
X4509586Y-11968341D01*
X4509586Y-11968341D02*
X4500062Y-11949293D01*
X4500062Y-11949293D02*
X4490539Y-11911198D01*
X4490539Y-11911198D02*
X4490539Y-11863579D01*
X4490539Y-11863579D02*
X4500062Y-11825484D01*
X4500062Y-11825484D02*
X4509586Y-11806436D01*
X4509586Y-11806436D02*
X4519110Y-11796913D01*
X4519110Y-11796913D02*
X4538158Y-11787389D01*
X4728634Y-11787389D02*
X4747681Y-11787389D01*
X4747681Y-11787389D02*
X4766729Y-11796913D01*
X4766729Y-11796913D02*
X4776253Y-11806436D01*
X4776253Y-11806436D02*
X4785777Y-11825484D01*
X4785777Y-11825484D02*
X4795300Y-11863579D01*
X4795300Y-11863579D02*
X4795300Y-11911198D01*
X4795300Y-11911198D02*
X4785777Y-11949293D01*
X4785777Y-11949293D02*
X4776253Y-11968341D01*
X4776253Y-11968341D02*
X4766729Y-11977865D01*
X4766729Y-11977865D02*
X4747681Y-11987389D01*
X4747681Y-11987389D02*
X4728634Y-11987389D01*
X4728634Y-11987389D02*
X4709586Y-11977865D01*
X4709586Y-11977865D02*
X4700062Y-11968341D01*
X4700062Y-11968341D02*
X4690539Y-11949293D01*
X4690539Y-11949293D02*
X4681015Y-11911198D01*
X4681015Y-11911198D02*
X4681015Y-11863579D01*
X4681015Y-11863579D02*
X4690539Y-11825484D01*
X4690539Y-11825484D02*
X4700062Y-11806436D01*
X4700062Y-11806436D02*
X4709586Y-11796913D01*
X4709586Y-11796913D02*
X4728634Y-11787389D01*
X4881015Y-11987389D02*
X4881015Y-11854055D01*
X4881015Y-11873103D02*
X4890539Y-11863579D01*
X4890539Y-11863579D02*
X4909586Y-11854055D01*
X4909586Y-11854055D02*
X4938158Y-11854055D01*
X4938158Y-11854055D02*
X4957205Y-11863579D01*
X4957205Y-11863579D02*
X4966729Y-11882627D01*
X4966729Y-11882627D02*
X4966729Y-11987389D01*
X4966729Y-11882627D02*
X4976253Y-11863579D01*
X4976253Y-11863579D02*
X4995300Y-11854055D01*
X4995300Y-11854055D02*
X5023872Y-11854055D01*
X5023872Y-11854055D02*
X5042920Y-11863579D01*
X5042920Y-11863579D02*
X5052443Y-11882627D01*
X5052443Y-11882627D02*
X5052443Y-11987389D01*
X5147681Y-11987389D02*
X5147681Y-11854055D01*
X5147681Y-11873103D02*
X5157205Y-11863579D01*
X5157205Y-11863579D02*
X5176253Y-11854055D01*
X5176253Y-11854055D02*
X5204824Y-11854055D01*
X5204824Y-11854055D02*
X5223872Y-11863579D01*
X5223872Y-11863579D02*
X5233396Y-11882627D01*
X5233396Y-11882627D02*
X5233396Y-11987389D01*
X5233396Y-11882627D02*
X5242920Y-11863579D01*
X5242920Y-11863579D02*
X5261967Y-11854055D01*
X5261967Y-11854055D02*
X5290539Y-11854055D01*
X5290539Y-11854055D02*
X5309586Y-11863579D01*
X5309586Y-11863579D02*
X5319110Y-11882627D01*
X5319110Y-11882627D02*
X5319110Y-11987389D01*
X5709586Y-11777865D02*
X5538158Y-12035008D01*
X5966729Y-11787389D02*
X5985777Y-11787389D01*
X5985777Y-11787389D02*
X6004824Y-11796913D01*
X6004824Y-11796913D02*
X6014348Y-11806436D01*
X6014348Y-11806436D02*
X6023872Y-11825484D01*
X6023872Y-11825484D02*
X6033396Y-11863579D01*
X6033396Y-11863579D02*
X6033396Y-11911198D01*
X6033396Y-11911198D02*
X6023872Y-11949293D01*
X6023872Y-11949293D02*
X6014348Y-11968341D01*
X6014348Y-11968341D02*
X6004824Y-11977865D01*
X6004824Y-11977865D02*
X5985777Y-11987389D01*
X5985777Y-11987389D02*
X5966729Y-11987389D01*
X5966729Y-11987389D02*
X5947681Y-11977865D01*
X5947681Y-11977865D02*
X5938158Y-11968341D01*
X5938158Y-11968341D02*
X5928634Y-11949293D01*
X5928634Y-11949293D02*
X5919110Y-11911198D01*
X5919110Y-11911198D02*
X5919110Y-11863579D01*
X5919110Y-11863579D02*
X5928634Y-11825484D01*
X5928634Y-11825484D02*
X5938158Y-11806436D01*
X5938158Y-11806436D02*
X5947681Y-11796913D01*
X5947681Y-11796913D02*
X5966729Y-11787389D01*
X6119110Y-11968341D02*
X6128634Y-11977865D01*
X6128634Y-11977865D02*
X6119110Y-11987389D01*
X6119110Y-11987389D02*
X6109586Y-11977865D01*
X6109586Y-11977865D02*
X6119110Y-11968341D01*
X6119110Y-11968341D02*
X6119110Y-11987389D01*
X6252443Y-11787389D02*
X6271491Y-11787389D01*
X6271491Y-11787389D02*
X6290539Y-11796913D01*
X6290539Y-11796913D02*
X6300062Y-11806436D01*
X6300062Y-11806436D02*
X6309586Y-11825484D01*
X6309586Y-11825484D02*
X6319110Y-11863579D01*
X6319110Y-11863579D02*
X6319110Y-11911198D01*
X6319110Y-11911198D02*
X6309586Y-11949293D01*
X6309586Y-11949293D02*
X6300062Y-11968341D01*
X6300062Y-11968341D02*
X6290539Y-11977865D01*
X6290539Y-11977865D02*
X6271491Y-11987389D01*
X6271491Y-11987389D02*
X6252443Y-11987389D01*
X6252443Y-11987389D02*
X6233396Y-11977865D01*
X6233396Y-11977865D02*
X6223872Y-11968341D01*
X6223872Y-11968341D02*
X6214348Y-11949293D01*
X6214348Y-11949293D02*
X6204824Y-11911198D01*
X6204824Y-11911198D02*
X6204824Y-11863579D01*
X6204824Y-11863579D02*
X6214348Y-11825484D01*
X6214348Y-11825484D02*
X6223872Y-11806436D01*
X6223872Y-11806436D02*
X6233396Y-11796913D01*
X6233396Y-11796913D02*
X6252443Y-11787389D01*
X6509586Y-11987389D02*
X6395301Y-11987389D01*
X6452443Y-11987389D02*
X6452443Y-11787389D01*
X6452443Y-11787389D02*
X6433396Y-11815960D01*
X6433396Y-11815960D02*
X6414348Y-11835008D01*
X6414348Y-11835008D02*
X6395301Y-11844532D01*
X6604824Y-11987389D02*
X6642920Y-11987389D01*
X6642920Y-11987389D02*
X6661967Y-11977865D01*
X6661967Y-11977865D02*
X6671491Y-11968341D01*
X6671491Y-11968341D02*
X6690539Y-11939770D01*
X6690539Y-11939770D02*
X6700062Y-11901674D01*
X6700062Y-11901674D02*
X6700062Y-11825484D01*
X6700062Y-11825484D02*
X6690539Y-11806436D01*
X6690539Y-11806436D02*
X6681015Y-11796913D01*
X6681015Y-11796913D02*
X6661967Y-11787389D01*
X6661967Y-11787389D02*
X6623872Y-11787389D01*
X6623872Y-11787389D02*
X6604824Y-11796913D01*
X6604824Y-11796913D02*
X6595301Y-11806436D01*
X6595301Y-11806436D02*
X6585777Y-11825484D01*
X6585777Y-11825484D02*
X6585777Y-11873103D01*
X6585777Y-11873103D02*
X6595301Y-11892151D01*
X6595301Y-11892151D02*
X6604824Y-11901674D01*
X6604824Y-11901674D02*
X6623872Y-11911198D01*
X6623872Y-11911198D02*
X6661967Y-11911198D01*
X6661967Y-11911198D02*
X6681015Y-11901674D01*
X6681015Y-11901674D02*
X6690539Y-11892151D01*
X6690539Y-11892151D02*
X6700062Y-11873103D01*
X6766729Y-11787389D02*
X6900062Y-11787389D01*
X6900062Y-11787389D02*
X6814348Y-11987389D01*
X6966729Y-11787389D02*
X6966729Y-11825484D01*
X7042920Y-11787389D02*
X7042920Y-11825484D01*
X7338158Y-12063579D02*
X7328634Y-12054055D01*
X7328634Y-12054055D02*
X7309586Y-12025484D01*
X7309586Y-12025484D02*
X7300063Y-12006436D01*
X7300063Y-12006436D02*
X7290539Y-11977865D01*
X7290539Y-11977865D02*
X7281015Y-11930246D01*
X7281015Y-11930246D02*
X7281015Y-11892151D01*
X7281015Y-11892151D02*
X7290539Y-11844532D01*
X7290539Y-11844532D02*
X7300063Y-11815960D01*
X7300063Y-11815960D02*
X7309586Y-11796913D01*
X7309586Y-11796913D02*
X7328634Y-11768341D01*
X7328634Y-11768341D02*
X7338158Y-11758817D01*
X7519110Y-11987389D02*
X7404824Y-11987389D01*
X7461967Y-11987389D02*
X7461967Y-11787389D01*
X7461967Y-11787389D02*
X7442920Y-11815960D01*
X7442920Y-11815960D02*
X7423872Y-11835008D01*
X7423872Y-11835008D02*
X7404824Y-11844532D01*
X7642920Y-11787389D02*
X7661967Y-11787389D01*
X7661967Y-11787389D02*
X7681015Y-11796913D01*
X7681015Y-11796913D02*
X7690539Y-11806436D01*
X7690539Y-11806436D02*
X7700063Y-11825484D01*
X7700063Y-11825484D02*
X7709586Y-11863579D01*
X7709586Y-11863579D02*
X7709586Y-11911198D01*
X7709586Y-11911198D02*
X7700063Y-11949293D01*
X7700063Y-11949293D02*
X7690539Y-11968341D01*
X7690539Y-11968341D02*
X7681015Y-11977865D01*
X7681015Y-11977865D02*
X7661967Y-11987389D01*
X7661967Y-11987389D02*
X7642920Y-11987389D01*
X7642920Y-11987389D02*
X7623872Y-11977865D01*
X7623872Y-11977865D02*
X7614348Y-11968341D01*
X7614348Y-11968341D02*
X7604824Y-11949293D01*
X7604824Y-11949293D02*
X7595301Y-11911198D01*
X7595301Y-11911198D02*
X7595301Y-11863579D01*
X7595301Y-11863579D02*
X7604824Y-11825484D01*
X7604824Y-11825484D02*
X7614348Y-11806436D01*
X7614348Y-11806436D02*
X7623872Y-11796913D01*
X7623872Y-11796913D02*
X7642920Y-11787389D01*
X7947682Y-11987389D02*
X7947682Y-11787389D01*
X8033396Y-11987389D02*
X8033396Y-11882627D01*
X8033396Y-11882627D02*
X8023872Y-11863579D01*
X8023872Y-11863579D02*
X8004825Y-11854055D01*
X8004825Y-11854055D02*
X7976253Y-11854055D01*
X7976253Y-11854055D02*
X7957205Y-11863579D01*
X7957205Y-11863579D02*
X7947682Y-11873103D01*
X8157205Y-11987389D02*
X8138158Y-11977865D01*
X8138158Y-11977865D02*
X8128634Y-11968341D01*
X8128634Y-11968341D02*
X8119110Y-11949293D01*
X8119110Y-11949293D02*
X8119110Y-11892151D01*
X8119110Y-11892151D02*
X8128634Y-11873103D01*
X8128634Y-11873103D02*
X8138158Y-11863579D01*
X8138158Y-11863579D02*
X8157205Y-11854055D01*
X8157205Y-11854055D02*
X8185777Y-11854055D01*
X8185777Y-11854055D02*
X8204825Y-11863579D01*
X8204825Y-11863579D02*
X8214348Y-11873103D01*
X8214348Y-11873103D02*
X8223872Y-11892151D01*
X8223872Y-11892151D02*
X8223872Y-11949293D01*
X8223872Y-11949293D02*
X8214348Y-11968341D01*
X8214348Y-11968341D02*
X8204825Y-11977865D01*
X8204825Y-11977865D02*
X8185777Y-11987389D01*
X8185777Y-11987389D02*
X8157205Y-11987389D01*
X8338158Y-11987389D02*
X8319110Y-11977865D01*
X8319110Y-11977865D02*
X8309586Y-11958817D01*
X8309586Y-11958817D02*
X8309586Y-11787389D01*
X8490539Y-11977865D02*
X8471491Y-11987389D01*
X8471491Y-11987389D02*
X8433396Y-11987389D01*
X8433396Y-11987389D02*
X8414348Y-11977865D01*
X8414348Y-11977865D02*
X8404825Y-11958817D01*
X8404825Y-11958817D02*
X8404825Y-11882627D01*
X8404825Y-11882627D02*
X8414348Y-11863579D01*
X8414348Y-11863579D02*
X8433396Y-11854055D01*
X8433396Y-11854055D02*
X8471491Y-11854055D01*
X8471491Y-11854055D02*
X8490539Y-11863579D01*
X8490539Y-11863579D02*
X8500063Y-11882627D01*
X8500063Y-11882627D02*
X8500063Y-11901674D01*
X8500063Y-11901674D02*
X8404825Y-11920722D01*
X8576253Y-11977865D02*
X8595301Y-11987389D01*
X8595301Y-11987389D02*
X8633396Y-11987389D01*
X8633396Y-11987389D02*
X8652444Y-11977865D01*
X8652444Y-11977865D02*
X8661968Y-11958817D01*
X8661968Y-11958817D02*
X8661968Y-11949293D01*
X8661968Y-11949293D02*
X8652444Y-11930246D01*
X8652444Y-11930246D02*
X8633396Y-11920722D01*
X8633396Y-11920722D02*
X8604825Y-11920722D01*
X8604825Y-11920722D02*
X8585777Y-11911198D01*
X8585777Y-11911198D02*
X8576253Y-11892151D01*
X8576253Y-11892151D02*
X8576253Y-11882627D01*
X8576253Y-11882627D02*
X8585777Y-11863579D01*
X8585777Y-11863579D02*
X8604825Y-11854055D01*
X8604825Y-11854055D02*
X8633396Y-11854055D01*
X8633396Y-11854055D02*
X8652444Y-11863579D01*
X8728634Y-12063579D02*
X8738158Y-12054055D01*
X8738158Y-12054055D02*
X8757206Y-12025484D01*
X8757206Y-12025484D02*
X8766729Y-12006436D01*
X8766729Y-12006436D02*
X8776253Y-11977865D01*
X8776253Y-11977865D02*
X8785777Y-11930246D01*
X8785777Y-11930246D02*
X8785777Y-11892151D01*
X8785777Y-11892151D02*
X8776253Y-11844532D01*
X8776253Y-11844532D02*
X8766729Y-11815960D01*
X8766729Y-11815960D02*
X8757206Y-11796913D01*
X8757206Y-11796913D02*
X8738158Y-11768341D01*
X8738158Y-11768341D02*
X8728634Y-11758817D01*
D12*
X3728095Y-12124905D02*
X3728095Y-12194905D01*
X3693095Y-12159905D02*
X3763095Y-12159905D01*
D11*
X4061967Y-12051389D02*
X4081015Y-12051389D01*
X4081015Y-12051389D02*
X4100062Y-12060913D01*
X4100062Y-12060913D02*
X4109586Y-12070436D01*
X4109586Y-12070436D02*
X4119110Y-12089484D01*
X4119110Y-12089484D02*
X4128634Y-12127579D01*
X4128634Y-12127579D02*
X4128634Y-12175198D01*
X4128634Y-12175198D02*
X4119110Y-12213293D01*
X4119110Y-12213293D02*
X4109586Y-12232341D01*
X4109586Y-12232341D02*
X4100062Y-12241865D01*
X4100062Y-12241865D02*
X4081015Y-12251389D01*
X4081015Y-12251389D02*
X4061967Y-12251389D01*
X4061967Y-12251389D02*
X4042919Y-12241865D01*
X4042919Y-12241865D02*
X4033396Y-12232341D01*
X4033396Y-12232341D02*
X4023872Y-12213293D01*
X4023872Y-12213293D02*
X4014348Y-12175198D01*
X4014348Y-12175198D02*
X4014348Y-12127579D01*
X4014348Y-12127579D02*
X4023872Y-12089484D01*
X4023872Y-12089484D02*
X4033396Y-12070436D01*
X4033396Y-12070436D02*
X4042919Y-12060913D01*
X4042919Y-12060913D02*
X4061967Y-12051389D01*
X4214348Y-12232341D02*
X4223872Y-12241865D01*
X4223872Y-12241865D02*
X4214348Y-12251389D01*
X4214348Y-12251389D02*
X4204824Y-12241865D01*
X4204824Y-12241865D02*
X4214348Y-12232341D01*
X4214348Y-12232341D02*
X4214348Y-12251389D01*
X4290539Y-12051389D02*
X4423872Y-12051389D01*
X4423872Y-12051389D02*
X4338158Y-12251389D01*
X4538158Y-12051389D02*
X4557205Y-12051389D01*
X4557205Y-12051389D02*
X4576253Y-12060913D01*
X4576253Y-12060913D02*
X4585777Y-12070436D01*
X4585777Y-12070436D02*
X4595300Y-12089484D01*
X4595300Y-12089484D02*
X4604824Y-12127579D01*
X4604824Y-12127579D02*
X4604824Y-12175198D01*
X4604824Y-12175198D02*
X4595300Y-12213293D01*
X4595300Y-12213293D02*
X4585777Y-12232341D01*
X4585777Y-12232341D02*
X4576253Y-12241865D01*
X4576253Y-12241865D02*
X4557205Y-12251389D01*
X4557205Y-12251389D02*
X4538158Y-12251389D01*
X4538158Y-12251389D02*
X4519110Y-12241865D01*
X4519110Y-12241865D02*
X4509586Y-12232341D01*
X4509586Y-12232341D02*
X4500062Y-12213293D01*
X4500062Y-12213293D02*
X4490539Y-12175198D01*
X4490539Y-12175198D02*
X4490539Y-12127579D01*
X4490539Y-12127579D02*
X4500062Y-12089484D01*
X4500062Y-12089484D02*
X4509586Y-12070436D01*
X4509586Y-12070436D02*
X4519110Y-12060913D01*
X4519110Y-12060913D02*
X4538158Y-12051389D01*
X4728634Y-12051389D02*
X4747681Y-12051389D01*
X4747681Y-12051389D02*
X4766729Y-12060913D01*
X4766729Y-12060913D02*
X4776253Y-12070436D01*
X4776253Y-12070436D02*
X4785777Y-12089484D01*
X4785777Y-12089484D02*
X4795300Y-12127579D01*
X4795300Y-12127579D02*
X4795300Y-12175198D01*
X4795300Y-12175198D02*
X4785777Y-12213293D01*
X4785777Y-12213293D02*
X4776253Y-12232341D01*
X4776253Y-12232341D02*
X4766729Y-12241865D01*
X4766729Y-12241865D02*
X4747681Y-12251389D01*
X4747681Y-12251389D02*
X4728634Y-12251389D01*
X4728634Y-12251389D02*
X4709586Y-12241865D01*
X4709586Y-12241865D02*
X4700062Y-12232341D01*
X4700062Y-12232341D02*
X4690539Y-12213293D01*
X4690539Y-12213293D02*
X4681015Y-12175198D01*
X4681015Y-12175198D02*
X4681015Y-12127579D01*
X4681015Y-12127579D02*
X4690539Y-12089484D01*
X4690539Y-12089484D02*
X4700062Y-12070436D01*
X4700062Y-12070436D02*
X4709586Y-12060913D01*
X4709586Y-12060913D02*
X4728634Y-12051389D01*
X4881015Y-12251389D02*
X4881015Y-12118055D01*
X4881015Y-12137103D02*
X4890539Y-12127579D01*
X4890539Y-12127579D02*
X4909586Y-12118055D01*
X4909586Y-12118055D02*
X4938158Y-12118055D01*
X4938158Y-12118055D02*
X4957205Y-12127579D01*
X4957205Y-12127579D02*
X4966729Y-12146627D01*
X4966729Y-12146627D02*
X4966729Y-12251389D01*
X4966729Y-12146627D02*
X4976253Y-12127579D01*
X4976253Y-12127579D02*
X4995300Y-12118055D01*
X4995300Y-12118055D02*
X5023872Y-12118055D01*
X5023872Y-12118055D02*
X5042920Y-12127579D01*
X5042920Y-12127579D02*
X5052443Y-12146627D01*
X5052443Y-12146627D02*
X5052443Y-12251389D01*
X5147681Y-12251389D02*
X5147681Y-12118055D01*
X5147681Y-12137103D02*
X5157205Y-12127579D01*
X5157205Y-12127579D02*
X5176253Y-12118055D01*
X5176253Y-12118055D02*
X5204824Y-12118055D01*
X5204824Y-12118055D02*
X5223872Y-12127579D01*
X5223872Y-12127579D02*
X5233396Y-12146627D01*
X5233396Y-12146627D02*
X5233396Y-12251389D01*
X5233396Y-12146627D02*
X5242920Y-12127579D01*
X5242920Y-12127579D02*
X5261967Y-12118055D01*
X5261967Y-12118055D02*
X5290539Y-12118055D01*
X5290539Y-12118055D02*
X5309586Y-12127579D01*
X5309586Y-12127579D02*
X5319110Y-12146627D01*
X5319110Y-12146627D02*
X5319110Y-12251389D01*
X5709586Y-12041865D02*
X5538158Y-12299008D01*
X5966729Y-12051389D02*
X5985777Y-12051389D01*
X5985777Y-12051389D02*
X6004824Y-12060913D01*
X6004824Y-12060913D02*
X6014348Y-12070436D01*
X6014348Y-12070436D02*
X6023872Y-12089484D01*
X6023872Y-12089484D02*
X6033396Y-12127579D01*
X6033396Y-12127579D02*
X6033396Y-12175198D01*
X6033396Y-12175198D02*
X6023872Y-12213293D01*
X6023872Y-12213293D02*
X6014348Y-12232341D01*
X6014348Y-12232341D02*
X6004824Y-12241865D01*
X6004824Y-12241865D02*
X5985777Y-12251389D01*
X5985777Y-12251389D02*
X5966729Y-12251389D01*
X5966729Y-12251389D02*
X5947681Y-12241865D01*
X5947681Y-12241865D02*
X5938158Y-12232341D01*
X5938158Y-12232341D02*
X5928634Y-12213293D01*
X5928634Y-12213293D02*
X5919110Y-12175198D01*
X5919110Y-12175198D02*
X5919110Y-12127579D01*
X5919110Y-12127579D02*
X5928634Y-12089484D01*
X5928634Y-12089484D02*
X5938158Y-12070436D01*
X5938158Y-12070436D02*
X5947681Y-12060913D01*
X5947681Y-12060913D02*
X5966729Y-12051389D01*
X6119110Y-12232341D02*
X6128634Y-12241865D01*
X6128634Y-12241865D02*
X6119110Y-12251389D01*
X6119110Y-12251389D02*
X6109586Y-12241865D01*
X6109586Y-12241865D02*
X6119110Y-12232341D01*
X6119110Y-12232341D02*
X6119110Y-12251389D01*
X6252443Y-12051389D02*
X6271491Y-12051389D01*
X6271491Y-12051389D02*
X6290539Y-12060913D01*
X6290539Y-12060913D02*
X6300062Y-12070436D01*
X6300062Y-12070436D02*
X6309586Y-12089484D01*
X6309586Y-12089484D02*
X6319110Y-12127579D01*
X6319110Y-12127579D02*
X6319110Y-12175198D01*
X6319110Y-12175198D02*
X6309586Y-12213293D01*
X6309586Y-12213293D02*
X6300062Y-12232341D01*
X6300062Y-12232341D02*
X6290539Y-12241865D01*
X6290539Y-12241865D02*
X6271491Y-12251389D01*
X6271491Y-12251389D02*
X6252443Y-12251389D01*
X6252443Y-12251389D02*
X6233396Y-12241865D01*
X6233396Y-12241865D02*
X6223872Y-12232341D01*
X6223872Y-12232341D02*
X6214348Y-12213293D01*
X6214348Y-12213293D02*
X6204824Y-12175198D01*
X6204824Y-12175198D02*
X6204824Y-12127579D01*
X6204824Y-12127579D02*
X6214348Y-12089484D01*
X6214348Y-12089484D02*
X6223872Y-12070436D01*
X6223872Y-12070436D02*
X6233396Y-12060913D01*
X6233396Y-12060913D02*
X6252443Y-12051389D01*
X6395301Y-12070436D02*
X6404824Y-12060913D01*
X6404824Y-12060913D02*
X6423872Y-12051389D01*
X6423872Y-12051389D02*
X6471491Y-12051389D01*
X6471491Y-12051389D02*
X6490539Y-12060913D01*
X6490539Y-12060913D02*
X6500062Y-12070436D01*
X6500062Y-12070436D02*
X6509586Y-12089484D01*
X6509586Y-12089484D02*
X6509586Y-12108532D01*
X6509586Y-12108532D02*
X6500062Y-12137103D01*
X6500062Y-12137103D02*
X6385777Y-12251389D01*
X6385777Y-12251389D02*
X6509586Y-12251389D01*
X6576253Y-12051389D02*
X6709586Y-12051389D01*
X6709586Y-12051389D02*
X6623872Y-12251389D01*
X6871491Y-12051389D02*
X6833396Y-12051389D01*
X6833396Y-12051389D02*
X6814348Y-12060913D01*
X6814348Y-12060913D02*
X6804824Y-12070436D01*
X6804824Y-12070436D02*
X6785777Y-12099008D01*
X6785777Y-12099008D02*
X6776253Y-12137103D01*
X6776253Y-12137103D02*
X6776253Y-12213293D01*
X6776253Y-12213293D02*
X6785777Y-12232341D01*
X6785777Y-12232341D02*
X6795301Y-12241865D01*
X6795301Y-12241865D02*
X6814348Y-12251389D01*
X6814348Y-12251389D02*
X6852443Y-12251389D01*
X6852443Y-12251389D02*
X6871491Y-12241865D01*
X6871491Y-12241865D02*
X6881015Y-12232341D01*
X6881015Y-12232341D02*
X6890539Y-12213293D01*
X6890539Y-12213293D02*
X6890539Y-12165674D01*
X6890539Y-12165674D02*
X6881015Y-12146627D01*
X6881015Y-12146627D02*
X6871491Y-12137103D01*
X6871491Y-12137103D02*
X6852443Y-12127579D01*
X6852443Y-12127579D02*
X6814348Y-12127579D01*
X6814348Y-12127579D02*
X6795301Y-12137103D01*
X6795301Y-12137103D02*
X6785777Y-12146627D01*
X6785777Y-12146627D02*
X6776253Y-12165674D01*
X6966729Y-12051389D02*
X6966729Y-12089484D01*
X7042920Y-12051389D02*
X7042920Y-12089484D01*
X7338158Y-12327579D02*
X7328634Y-12318055D01*
X7328634Y-12318055D02*
X7309586Y-12289484D01*
X7309586Y-12289484D02*
X7300063Y-12270436D01*
X7300063Y-12270436D02*
X7290539Y-12241865D01*
X7290539Y-12241865D02*
X7281015Y-12194246D01*
X7281015Y-12194246D02*
X7281015Y-12156151D01*
X7281015Y-12156151D02*
X7290539Y-12108532D01*
X7290539Y-12108532D02*
X7300063Y-12079960D01*
X7300063Y-12079960D02*
X7309586Y-12060913D01*
X7309586Y-12060913D02*
X7328634Y-12032341D01*
X7328634Y-12032341D02*
X7338158Y-12022817D01*
X7442920Y-12137103D02*
X7423872Y-12127579D01*
X7423872Y-12127579D02*
X7414348Y-12118055D01*
X7414348Y-12118055D02*
X7404824Y-12099008D01*
X7404824Y-12099008D02*
X7404824Y-12089484D01*
X7404824Y-12089484D02*
X7414348Y-12070436D01*
X7414348Y-12070436D02*
X7423872Y-12060913D01*
X7423872Y-12060913D02*
X7442920Y-12051389D01*
X7442920Y-12051389D02*
X7481015Y-12051389D01*
X7481015Y-12051389D02*
X7500063Y-12060913D01*
X7500063Y-12060913D02*
X7509586Y-12070436D01*
X7509586Y-12070436D02*
X7519110Y-12089484D01*
X7519110Y-12089484D02*
X7519110Y-12099008D01*
X7519110Y-12099008D02*
X7509586Y-12118055D01*
X7509586Y-12118055D02*
X7500063Y-12127579D01*
X7500063Y-12127579D02*
X7481015Y-12137103D01*
X7481015Y-12137103D02*
X7442920Y-12137103D01*
X7442920Y-12137103D02*
X7423872Y-12146627D01*
X7423872Y-12146627D02*
X7414348Y-12156151D01*
X7414348Y-12156151D02*
X7404824Y-12175198D01*
X7404824Y-12175198D02*
X7404824Y-12213293D01*
X7404824Y-12213293D02*
X7414348Y-12232341D01*
X7414348Y-12232341D02*
X7423872Y-12241865D01*
X7423872Y-12241865D02*
X7442920Y-12251389D01*
X7442920Y-12251389D02*
X7481015Y-12251389D01*
X7481015Y-12251389D02*
X7500063Y-12241865D01*
X7500063Y-12241865D02*
X7509586Y-12232341D01*
X7509586Y-12232341D02*
X7519110Y-12213293D01*
X7519110Y-12213293D02*
X7519110Y-12175198D01*
X7519110Y-12175198D02*
X7509586Y-12156151D01*
X7509586Y-12156151D02*
X7500063Y-12146627D01*
X7500063Y-12146627D02*
X7481015Y-12137103D01*
X7757205Y-12251389D02*
X7757205Y-12051389D01*
X7842920Y-12251389D02*
X7842920Y-12146627D01*
X7842920Y-12146627D02*
X7833396Y-12127579D01*
X7833396Y-12127579D02*
X7814348Y-12118055D01*
X7814348Y-12118055D02*
X7785777Y-12118055D01*
X7785777Y-12118055D02*
X7766729Y-12127579D01*
X7766729Y-12127579D02*
X7757205Y-12137103D01*
X7966729Y-12251389D02*
X7947682Y-12241865D01*
X7947682Y-12241865D02*
X7938158Y-12232341D01*
X7938158Y-12232341D02*
X7928634Y-12213293D01*
X7928634Y-12213293D02*
X7928634Y-12156151D01*
X7928634Y-12156151D02*
X7938158Y-12137103D01*
X7938158Y-12137103D02*
X7947682Y-12127579D01*
X7947682Y-12127579D02*
X7966729Y-12118055D01*
X7966729Y-12118055D02*
X7995301Y-12118055D01*
X7995301Y-12118055D02*
X8014348Y-12127579D01*
X8014348Y-12127579D02*
X8023872Y-12137103D01*
X8023872Y-12137103D02*
X8033396Y-12156151D01*
X8033396Y-12156151D02*
X8033396Y-12213293D01*
X8033396Y-12213293D02*
X8023872Y-12232341D01*
X8023872Y-12232341D02*
X8014348Y-12241865D01*
X8014348Y-12241865D02*
X7995301Y-12251389D01*
X7995301Y-12251389D02*
X7966729Y-12251389D01*
X8147682Y-12251389D02*
X8128634Y-12241865D01*
X8128634Y-12241865D02*
X8119110Y-12222817D01*
X8119110Y-12222817D02*
X8119110Y-12051389D01*
X8300063Y-12241865D02*
X8281015Y-12251389D01*
X8281015Y-12251389D02*
X8242920Y-12251389D01*
X8242920Y-12251389D02*
X8223872Y-12241865D01*
X8223872Y-12241865D02*
X8214348Y-12222817D01*
X8214348Y-12222817D02*
X8214348Y-12146627D01*
X8214348Y-12146627D02*
X8223872Y-12127579D01*
X8223872Y-12127579D02*
X8242920Y-12118055D01*
X8242920Y-12118055D02*
X8281015Y-12118055D01*
X8281015Y-12118055D02*
X8300063Y-12127579D01*
X8300063Y-12127579D02*
X8309586Y-12146627D01*
X8309586Y-12146627D02*
X8309586Y-12165674D01*
X8309586Y-12165674D02*
X8214348Y-12184722D01*
X8385777Y-12241865D02*
X8404825Y-12251389D01*
X8404825Y-12251389D02*
X8442920Y-12251389D01*
X8442920Y-12251389D02*
X8461968Y-12241865D01*
X8461968Y-12241865D02*
X8471491Y-12222817D01*
X8471491Y-12222817D02*
X8471491Y-12213293D01*
X8471491Y-12213293D02*
X8461968Y-12194246D01*
X8461968Y-12194246D02*
X8442920Y-12184722D01*
X8442920Y-12184722D02*
X8414348Y-12184722D01*
X8414348Y-12184722D02*
X8395301Y-12175198D01*
X8395301Y-12175198D02*
X8385777Y-12156151D01*
X8385777Y-12156151D02*
X8385777Y-12146627D01*
X8385777Y-12146627D02*
X8395301Y-12127579D01*
X8395301Y-12127579D02*
X8414348Y-12118055D01*
X8414348Y-12118055D02*
X8442920Y-12118055D01*
X8442920Y-12118055D02*
X8461968Y-12127579D01*
X8538158Y-12327579D02*
X8547682Y-12318055D01*
X8547682Y-12318055D02*
X8566729Y-12289484D01*
X8566729Y-12289484D02*
X8576253Y-12270436D01*
X8576253Y-12270436D02*
X8585777Y-12241865D01*
X8585777Y-12241865D02*
X8595301Y-12194246D01*
X8595301Y-12194246D02*
X8595301Y-12156151D01*
X8595301Y-12156151D02*
X8585777Y-12108532D01*
X8585777Y-12108532D02*
X8576253Y-12079960D01*
X8576253Y-12079960D02*
X8566729Y-12060913D01*
X8566729Y-12060913D02*
X8547682Y-12032341D01*
X8547682Y-12032341D02*
X8538158Y-12022817D01*
D12*
X3751965Y-12450775D02*
X3751965Y-12397035D01*
X3698225Y-12397035D01*
X3698225Y-12450775D01*
X3751965Y-12450775D01*
D11*
X4061967Y-12315389D02*
X4081015Y-12315389D01*
X4081015Y-12315389D02*
X4100062Y-12324913D01*
X4100062Y-12324913D02*
X4109586Y-12334436D01*
X4109586Y-12334436D02*
X4119110Y-12353484D01*
X4119110Y-12353484D02*
X4128634Y-12391579D01*
X4128634Y-12391579D02*
X4128634Y-12439198D01*
X4128634Y-12439198D02*
X4119110Y-12477293D01*
X4119110Y-12477293D02*
X4109586Y-12496341D01*
X4109586Y-12496341D02*
X4100062Y-12505865D01*
X4100062Y-12505865D02*
X4081015Y-12515389D01*
X4081015Y-12515389D02*
X4061967Y-12515389D01*
X4061967Y-12515389D02*
X4042919Y-12505865D01*
X4042919Y-12505865D02*
X4033396Y-12496341D01*
X4033396Y-12496341D02*
X4023872Y-12477293D01*
X4023872Y-12477293D02*
X4014348Y-12439198D01*
X4014348Y-12439198D02*
X4014348Y-12391579D01*
X4014348Y-12391579D02*
X4023872Y-12353484D01*
X4023872Y-12353484D02*
X4033396Y-12334436D01*
X4033396Y-12334436D02*
X4042919Y-12324913D01*
X4042919Y-12324913D02*
X4061967Y-12315389D01*
X4214348Y-12496341D02*
X4223872Y-12505865D01*
X4223872Y-12505865D02*
X4214348Y-12515389D01*
X4214348Y-12515389D02*
X4204824Y-12505865D01*
X4204824Y-12505865D02*
X4214348Y-12496341D01*
X4214348Y-12496341D02*
X4214348Y-12515389D01*
X4290539Y-12315389D02*
X4423872Y-12315389D01*
X4423872Y-12315389D02*
X4338158Y-12515389D01*
X4585777Y-12315389D02*
X4547681Y-12315389D01*
X4547681Y-12315389D02*
X4528634Y-12324913D01*
X4528634Y-12324913D02*
X4519110Y-12334436D01*
X4519110Y-12334436D02*
X4500062Y-12363008D01*
X4500062Y-12363008D02*
X4490539Y-12401103D01*
X4490539Y-12401103D02*
X4490539Y-12477293D01*
X4490539Y-12477293D02*
X4500062Y-12496341D01*
X4500062Y-12496341D02*
X4509586Y-12505865D01*
X4509586Y-12505865D02*
X4528634Y-12515389D01*
X4528634Y-12515389D02*
X4566729Y-12515389D01*
X4566729Y-12515389D02*
X4585777Y-12505865D01*
X4585777Y-12505865D02*
X4595300Y-12496341D01*
X4595300Y-12496341D02*
X4604824Y-12477293D01*
X4604824Y-12477293D02*
X4604824Y-12429674D01*
X4604824Y-12429674D02*
X4595300Y-12410627D01*
X4595300Y-12410627D02*
X4585777Y-12401103D01*
X4585777Y-12401103D02*
X4566729Y-12391579D01*
X4566729Y-12391579D02*
X4528634Y-12391579D01*
X4528634Y-12391579D02*
X4509586Y-12401103D01*
X4509586Y-12401103D02*
X4500062Y-12410627D01*
X4500062Y-12410627D02*
X4490539Y-12429674D01*
X4728634Y-12315389D02*
X4747681Y-12315389D01*
X4747681Y-12315389D02*
X4766729Y-12324913D01*
X4766729Y-12324913D02*
X4776253Y-12334436D01*
X4776253Y-12334436D02*
X4785777Y-12353484D01*
X4785777Y-12353484D02*
X4795300Y-12391579D01*
X4795300Y-12391579D02*
X4795300Y-12439198D01*
X4795300Y-12439198D02*
X4785777Y-12477293D01*
X4785777Y-12477293D02*
X4776253Y-12496341D01*
X4776253Y-12496341D02*
X4766729Y-12505865D01*
X4766729Y-12505865D02*
X4747681Y-12515389D01*
X4747681Y-12515389D02*
X4728634Y-12515389D01*
X4728634Y-12515389D02*
X4709586Y-12505865D01*
X4709586Y-12505865D02*
X4700062Y-12496341D01*
X4700062Y-12496341D02*
X4690539Y-12477293D01*
X4690539Y-12477293D02*
X4681015Y-12439198D01*
X4681015Y-12439198D02*
X4681015Y-12391579D01*
X4681015Y-12391579D02*
X4690539Y-12353484D01*
X4690539Y-12353484D02*
X4700062Y-12334436D01*
X4700062Y-12334436D02*
X4709586Y-12324913D01*
X4709586Y-12324913D02*
X4728634Y-12315389D01*
X4881015Y-12515389D02*
X4881015Y-12382055D01*
X4881015Y-12401103D02*
X4890539Y-12391579D01*
X4890539Y-12391579D02*
X4909586Y-12382055D01*
X4909586Y-12382055D02*
X4938158Y-12382055D01*
X4938158Y-12382055D02*
X4957205Y-12391579D01*
X4957205Y-12391579D02*
X4966729Y-12410627D01*
X4966729Y-12410627D02*
X4966729Y-12515389D01*
X4966729Y-12410627D02*
X4976253Y-12391579D01*
X4976253Y-12391579D02*
X4995300Y-12382055D01*
X4995300Y-12382055D02*
X5023872Y-12382055D01*
X5023872Y-12382055D02*
X5042920Y-12391579D01*
X5042920Y-12391579D02*
X5052443Y-12410627D01*
X5052443Y-12410627D02*
X5052443Y-12515389D01*
X5147681Y-12515389D02*
X5147681Y-12382055D01*
X5147681Y-12401103D02*
X5157205Y-12391579D01*
X5157205Y-12391579D02*
X5176253Y-12382055D01*
X5176253Y-12382055D02*
X5204824Y-12382055D01*
X5204824Y-12382055D02*
X5223872Y-12391579D01*
X5223872Y-12391579D02*
X5233396Y-12410627D01*
X5233396Y-12410627D02*
X5233396Y-12515389D01*
X5233396Y-12410627D02*
X5242920Y-12391579D01*
X5242920Y-12391579D02*
X5261967Y-12382055D01*
X5261967Y-12382055D02*
X5290539Y-12382055D01*
X5290539Y-12382055D02*
X5309586Y-12391579D01*
X5309586Y-12391579D02*
X5319110Y-12410627D01*
X5319110Y-12410627D02*
X5319110Y-12515389D01*
X5709586Y-12305865D02*
X5538158Y-12563008D01*
X5966729Y-12315389D02*
X5985777Y-12315389D01*
X5985777Y-12315389D02*
X6004824Y-12324913D01*
X6004824Y-12324913D02*
X6014348Y-12334436D01*
X6014348Y-12334436D02*
X6023872Y-12353484D01*
X6023872Y-12353484D02*
X6033396Y-12391579D01*
X6033396Y-12391579D02*
X6033396Y-12439198D01*
X6033396Y-12439198D02*
X6023872Y-12477293D01*
X6023872Y-12477293D02*
X6014348Y-12496341D01*
X6014348Y-12496341D02*
X6004824Y-12505865D01*
X6004824Y-12505865D02*
X5985777Y-12515389D01*
X5985777Y-12515389D02*
X5966729Y-12515389D01*
X5966729Y-12515389D02*
X5947681Y-12505865D01*
X5947681Y-12505865D02*
X5938158Y-12496341D01*
X5938158Y-12496341D02*
X5928634Y-12477293D01*
X5928634Y-12477293D02*
X5919110Y-12439198D01*
X5919110Y-12439198D02*
X5919110Y-12391579D01*
X5919110Y-12391579D02*
X5928634Y-12353484D01*
X5928634Y-12353484D02*
X5938158Y-12334436D01*
X5938158Y-12334436D02*
X5947681Y-12324913D01*
X5947681Y-12324913D02*
X5966729Y-12315389D01*
X6119110Y-12496341D02*
X6128634Y-12505865D01*
X6128634Y-12505865D02*
X6119110Y-12515389D01*
X6119110Y-12515389D02*
X6109586Y-12505865D01*
X6109586Y-12505865D02*
X6119110Y-12496341D01*
X6119110Y-12496341D02*
X6119110Y-12515389D01*
X6252443Y-12315389D02*
X6271491Y-12315389D01*
X6271491Y-12315389D02*
X6290539Y-12324913D01*
X6290539Y-12324913D02*
X6300062Y-12334436D01*
X6300062Y-12334436D02*
X6309586Y-12353484D01*
X6309586Y-12353484D02*
X6319110Y-12391579D01*
X6319110Y-12391579D02*
X6319110Y-12439198D01*
X6319110Y-12439198D02*
X6309586Y-12477293D01*
X6309586Y-12477293D02*
X6300062Y-12496341D01*
X6300062Y-12496341D02*
X6290539Y-12505865D01*
X6290539Y-12505865D02*
X6271491Y-12515389D01*
X6271491Y-12515389D02*
X6252443Y-12515389D01*
X6252443Y-12515389D02*
X6233396Y-12505865D01*
X6233396Y-12505865D02*
X6223872Y-12496341D01*
X6223872Y-12496341D02*
X6214348Y-12477293D01*
X6214348Y-12477293D02*
X6204824Y-12439198D01*
X6204824Y-12439198D02*
X6204824Y-12391579D01*
X6204824Y-12391579D02*
X6214348Y-12353484D01*
X6214348Y-12353484D02*
X6223872Y-12334436D01*
X6223872Y-12334436D02*
X6233396Y-12324913D01*
X6233396Y-12324913D02*
X6252443Y-12315389D01*
X6395301Y-12334436D02*
X6404824Y-12324913D01*
X6404824Y-12324913D02*
X6423872Y-12315389D01*
X6423872Y-12315389D02*
X6471491Y-12315389D01*
X6471491Y-12315389D02*
X6490539Y-12324913D01*
X6490539Y-12324913D02*
X6500062Y-12334436D01*
X6500062Y-12334436D02*
X6509586Y-12353484D01*
X6509586Y-12353484D02*
X6509586Y-12372532D01*
X6509586Y-12372532D02*
X6500062Y-12401103D01*
X6500062Y-12401103D02*
X6385777Y-12515389D01*
X6385777Y-12515389D02*
X6509586Y-12515389D01*
X6604824Y-12515389D02*
X6642920Y-12515389D01*
X6642920Y-12515389D02*
X6661967Y-12505865D01*
X6661967Y-12505865D02*
X6671491Y-12496341D01*
X6671491Y-12496341D02*
X6690539Y-12467770D01*
X6690539Y-12467770D02*
X6700062Y-12429674D01*
X6700062Y-12429674D02*
X6700062Y-12353484D01*
X6700062Y-12353484D02*
X6690539Y-12334436D01*
X6690539Y-12334436D02*
X6681015Y-12324913D01*
X6681015Y-12324913D02*
X6661967Y-12315389D01*
X6661967Y-12315389D02*
X6623872Y-12315389D01*
X6623872Y-12315389D02*
X6604824Y-12324913D01*
X6604824Y-12324913D02*
X6595301Y-12334436D01*
X6595301Y-12334436D02*
X6585777Y-12353484D01*
X6585777Y-12353484D02*
X6585777Y-12401103D01*
X6585777Y-12401103D02*
X6595301Y-12420151D01*
X6595301Y-12420151D02*
X6604824Y-12429674D01*
X6604824Y-12429674D02*
X6623872Y-12439198D01*
X6623872Y-12439198D02*
X6661967Y-12439198D01*
X6661967Y-12439198D02*
X6681015Y-12429674D01*
X6681015Y-12429674D02*
X6690539Y-12420151D01*
X6690539Y-12420151D02*
X6700062Y-12401103D01*
X6795301Y-12515389D02*
X6833396Y-12515389D01*
X6833396Y-12515389D02*
X6852443Y-12505865D01*
X6852443Y-12505865D02*
X6861967Y-12496341D01*
X6861967Y-12496341D02*
X6881015Y-12467770D01*
X6881015Y-12467770D02*
X6890539Y-12429674D01*
X6890539Y-12429674D02*
X6890539Y-12353484D01*
X6890539Y-12353484D02*
X6881015Y-12334436D01*
X6881015Y-12334436D02*
X6871491Y-12324913D01*
X6871491Y-12324913D02*
X6852443Y-12315389D01*
X6852443Y-12315389D02*
X6814348Y-12315389D01*
X6814348Y-12315389D02*
X6795301Y-12324913D01*
X6795301Y-12324913D02*
X6785777Y-12334436D01*
X6785777Y-12334436D02*
X6776253Y-12353484D01*
X6776253Y-12353484D02*
X6776253Y-12401103D01*
X6776253Y-12401103D02*
X6785777Y-12420151D01*
X6785777Y-12420151D02*
X6795301Y-12429674D01*
X6795301Y-12429674D02*
X6814348Y-12439198D01*
X6814348Y-12439198D02*
X6852443Y-12439198D01*
X6852443Y-12439198D02*
X6871491Y-12429674D01*
X6871491Y-12429674D02*
X6881015Y-12420151D01*
X6881015Y-12420151D02*
X6890539Y-12401103D01*
X6966729Y-12315389D02*
X6966729Y-12353484D01*
X7042920Y-12315389D02*
X7042920Y-12353484D01*
X7338158Y-12591579D02*
X7328634Y-12582055D01*
X7328634Y-12582055D02*
X7309586Y-12553484D01*
X7309586Y-12553484D02*
X7300063Y-12534436D01*
X7300063Y-12534436D02*
X7290539Y-12505865D01*
X7290539Y-12505865D02*
X7281015Y-12458246D01*
X7281015Y-12458246D02*
X7281015Y-12420151D01*
X7281015Y-12420151D02*
X7290539Y-12372532D01*
X7290539Y-12372532D02*
X7300063Y-12343960D01*
X7300063Y-12343960D02*
X7309586Y-12324913D01*
X7309586Y-12324913D02*
X7328634Y-12296341D01*
X7328634Y-12296341D02*
X7338158Y-12286817D01*
X7519110Y-12515389D02*
X7404824Y-12515389D01*
X7461967Y-12515389D02*
X7461967Y-12315389D01*
X7461967Y-12315389D02*
X7442920Y-12343960D01*
X7442920Y-12343960D02*
X7423872Y-12363008D01*
X7423872Y-12363008D02*
X7404824Y-12372532D01*
X7690539Y-12315389D02*
X7652443Y-12315389D01*
X7652443Y-12315389D02*
X7633396Y-12324913D01*
X7633396Y-12324913D02*
X7623872Y-12334436D01*
X7623872Y-12334436D02*
X7604824Y-12363008D01*
X7604824Y-12363008D02*
X7595301Y-12401103D01*
X7595301Y-12401103D02*
X7595301Y-12477293D01*
X7595301Y-12477293D02*
X7604824Y-12496341D01*
X7604824Y-12496341D02*
X7614348Y-12505865D01*
X7614348Y-12505865D02*
X7633396Y-12515389D01*
X7633396Y-12515389D02*
X7671491Y-12515389D01*
X7671491Y-12515389D02*
X7690539Y-12505865D01*
X7690539Y-12505865D02*
X7700063Y-12496341D01*
X7700063Y-12496341D02*
X7709586Y-12477293D01*
X7709586Y-12477293D02*
X7709586Y-12429674D01*
X7709586Y-12429674D02*
X7700063Y-12410627D01*
X7700063Y-12410627D02*
X7690539Y-12401103D01*
X7690539Y-12401103D02*
X7671491Y-12391579D01*
X7671491Y-12391579D02*
X7633396Y-12391579D01*
X7633396Y-12391579D02*
X7614348Y-12401103D01*
X7614348Y-12401103D02*
X7604824Y-12410627D01*
X7604824Y-12410627D02*
X7595301Y-12429674D01*
X7947682Y-12515389D02*
X7947682Y-12315389D01*
X8033396Y-12515389D02*
X8033396Y-12410627D01*
X8033396Y-12410627D02*
X8023872Y-12391579D01*
X8023872Y-12391579D02*
X8004825Y-12382055D01*
X8004825Y-12382055D02*
X7976253Y-12382055D01*
X7976253Y-12382055D02*
X7957205Y-12391579D01*
X7957205Y-12391579D02*
X7947682Y-12401103D01*
X8157205Y-12515389D02*
X8138158Y-12505865D01*
X8138158Y-12505865D02*
X8128634Y-12496341D01*
X8128634Y-12496341D02*
X8119110Y-12477293D01*
X8119110Y-12477293D02*
X8119110Y-12420151D01*
X8119110Y-12420151D02*
X8128634Y-12401103D01*
X8128634Y-12401103D02*
X8138158Y-12391579D01*
X8138158Y-12391579D02*
X8157205Y-12382055D01*
X8157205Y-12382055D02*
X8185777Y-12382055D01*
X8185777Y-12382055D02*
X8204825Y-12391579D01*
X8204825Y-12391579D02*
X8214348Y-12401103D01*
X8214348Y-12401103D02*
X8223872Y-12420151D01*
X8223872Y-12420151D02*
X8223872Y-12477293D01*
X8223872Y-12477293D02*
X8214348Y-12496341D01*
X8214348Y-12496341D02*
X8204825Y-12505865D01*
X8204825Y-12505865D02*
X8185777Y-12515389D01*
X8185777Y-12515389D02*
X8157205Y-12515389D01*
X8338158Y-12515389D02*
X8319110Y-12505865D01*
X8319110Y-12505865D02*
X8309586Y-12486817D01*
X8309586Y-12486817D02*
X8309586Y-12315389D01*
X8490539Y-12505865D02*
X8471491Y-12515389D01*
X8471491Y-12515389D02*
X8433396Y-12515389D01*
X8433396Y-12515389D02*
X8414348Y-12505865D01*
X8414348Y-12505865D02*
X8404825Y-12486817D01*
X8404825Y-12486817D02*
X8404825Y-12410627D01*
X8404825Y-12410627D02*
X8414348Y-12391579D01*
X8414348Y-12391579D02*
X8433396Y-12382055D01*
X8433396Y-12382055D02*
X8471491Y-12382055D01*
X8471491Y-12382055D02*
X8490539Y-12391579D01*
X8490539Y-12391579D02*
X8500063Y-12410627D01*
X8500063Y-12410627D02*
X8500063Y-12429674D01*
X8500063Y-12429674D02*
X8404825Y-12448722D01*
X8576253Y-12505865D02*
X8595301Y-12515389D01*
X8595301Y-12515389D02*
X8633396Y-12515389D01*
X8633396Y-12515389D02*
X8652444Y-12505865D01*
X8652444Y-12505865D02*
X8661968Y-12486817D01*
X8661968Y-12486817D02*
X8661968Y-12477293D01*
X8661968Y-12477293D02*
X8652444Y-12458246D01*
X8652444Y-12458246D02*
X8633396Y-12448722D01*
X8633396Y-12448722D02*
X8604825Y-12448722D01*
X8604825Y-12448722D02*
X8585777Y-12439198D01*
X8585777Y-12439198D02*
X8576253Y-12420151D01*
X8576253Y-12420151D02*
X8576253Y-12410627D01*
X8576253Y-12410627D02*
X8585777Y-12391579D01*
X8585777Y-12391579D02*
X8604825Y-12382055D01*
X8604825Y-12382055D02*
X8633396Y-12382055D01*
X8633396Y-12382055D02*
X8652444Y-12391579D01*
X8728634Y-12591579D02*
X8738158Y-12582055D01*
X8738158Y-12582055D02*
X8757206Y-12553484D01*
X8757206Y-12553484D02*
X8766729Y-12534436D01*
X8766729Y-12534436D02*
X8776253Y-12505865D01*
X8776253Y-12505865D02*
X8785777Y-12458246D01*
X8785777Y-12458246D02*
X8785777Y-12420151D01*
X8785777Y-12420151D02*
X8776253Y-12372532D01*
X8776253Y-12372532D02*
X8766729Y-12343960D01*
X8766729Y-12343960D02*
X8757206Y-12324913D01*
X8757206Y-12324913D02*
X8738158Y-12296341D01*
X8738158Y-12296341D02*
X8728634Y-12286817D01*
D12*
X3723095Y-12727905D02*
X3763095Y-12687905D01*
X3723095Y-12647905D01*
X3683095Y-12687905D01*
X3723095Y-12727905D01*
D11*
X4061967Y-12579389D02*
X4081015Y-12579389D01*
X4081015Y-12579389D02*
X4100062Y-12588913D01*
X4100062Y-12588913D02*
X4109586Y-12598436D01*
X4109586Y-12598436D02*
X4119110Y-12617484D01*
X4119110Y-12617484D02*
X4128634Y-12655579D01*
X4128634Y-12655579D02*
X4128634Y-12703198D01*
X4128634Y-12703198D02*
X4119110Y-12741293D01*
X4119110Y-12741293D02*
X4109586Y-12760341D01*
X4109586Y-12760341D02*
X4100062Y-12769865D01*
X4100062Y-12769865D02*
X4081015Y-12779389D01*
X4081015Y-12779389D02*
X4061967Y-12779389D01*
X4061967Y-12779389D02*
X4042919Y-12769865D01*
X4042919Y-12769865D02*
X4033396Y-12760341D01*
X4033396Y-12760341D02*
X4023872Y-12741293D01*
X4023872Y-12741293D02*
X4014348Y-12703198D01*
X4014348Y-12703198D02*
X4014348Y-12655579D01*
X4014348Y-12655579D02*
X4023872Y-12617484D01*
X4023872Y-12617484D02*
X4033396Y-12598436D01*
X4033396Y-12598436D02*
X4042919Y-12588913D01*
X4042919Y-12588913D02*
X4061967Y-12579389D01*
X4214348Y-12760341D02*
X4223872Y-12769865D01*
X4223872Y-12769865D02*
X4214348Y-12779389D01*
X4214348Y-12779389D02*
X4204824Y-12769865D01*
X4204824Y-12769865D02*
X4214348Y-12760341D01*
X4214348Y-12760341D02*
X4214348Y-12779389D01*
X4338158Y-12665103D02*
X4319110Y-12655579D01*
X4319110Y-12655579D02*
X4309586Y-12646055D01*
X4309586Y-12646055D02*
X4300062Y-12627008D01*
X4300062Y-12627008D02*
X4300062Y-12617484D01*
X4300062Y-12617484D02*
X4309586Y-12598436D01*
X4309586Y-12598436D02*
X4319110Y-12588913D01*
X4319110Y-12588913D02*
X4338158Y-12579389D01*
X4338158Y-12579389D02*
X4376253Y-12579389D01*
X4376253Y-12579389D02*
X4395300Y-12588913D01*
X4395300Y-12588913D02*
X4404824Y-12598436D01*
X4404824Y-12598436D02*
X4414348Y-12617484D01*
X4414348Y-12617484D02*
X4414348Y-12627008D01*
X4414348Y-12627008D02*
X4404824Y-12646055D01*
X4404824Y-12646055D02*
X4395300Y-12655579D01*
X4395300Y-12655579D02*
X4376253Y-12665103D01*
X4376253Y-12665103D02*
X4338158Y-12665103D01*
X4338158Y-12665103D02*
X4319110Y-12674627D01*
X4319110Y-12674627D02*
X4309586Y-12684151D01*
X4309586Y-12684151D02*
X4300062Y-12703198D01*
X4300062Y-12703198D02*
X4300062Y-12741293D01*
X4300062Y-12741293D02*
X4309586Y-12760341D01*
X4309586Y-12760341D02*
X4319110Y-12769865D01*
X4319110Y-12769865D02*
X4338158Y-12779389D01*
X4338158Y-12779389D02*
X4376253Y-12779389D01*
X4376253Y-12779389D02*
X4395300Y-12769865D01*
X4395300Y-12769865D02*
X4404824Y-12760341D01*
X4404824Y-12760341D02*
X4414348Y-12741293D01*
X4414348Y-12741293D02*
X4414348Y-12703198D01*
X4414348Y-12703198D02*
X4404824Y-12684151D01*
X4404824Y-12684151D02*
X4395300Y-12674627D01*
X4395300Y-12674627D02*
X4376253Y-12665103D01*
X4538158Y-12579389D02*
X4557205Y-12579389D01*
X4557205Y-12579389D02*
X4576253Y-12588913D01*
X4576253Y-12588913D02*
X4585777Y-12598436D01*
X4585777Y-12598436D02*
X4595300Y-12617484D01*
X4595300Y-12617484D02*
X4604824Y-12655579D01*
X4604824Y-12655579D02*
X4604824Y-12703198D01*
X4604824Y-12703198D02*
X4595300Y-12741293D01*
X4595300Y-12741293D02*
X4585777Y-12760341D01*
X4585777Y-12760341D02*
X4576253Y-12769865D01*
X4576253Y-12769865D02*
X4557205Y-12779389D01*
X4557205Y-12779389D02*
X4538158Y-12779389D01*
X4538158Y-12779389D02*
X4519110Y-12769865D01*
X4519110Y-12769865D02*
X4509586Y-12760341D01*
X4509586Y-12760341D02*
X4500062Y-12741293D01*
X4500062Y-12741293D02*
X4490539Y-12703198D01*
X4490539Y-12703198D02*
X4490539Y-12655579D01*
X4490539Y-12655579D02*
X4500062Y-12617484D01*
X4500062Y-12617484D02*
X4509586Y-12598436D01*
X4509586Y-12598436D02*
X4519110Y-12588913D01*
X4519110Y-12588913D02*
X4538158Y-12579389D01*
X4728634Y-12579389D02*
X4747681Y-12579389D01*
X4747681Y-12579389D02*
X4766729Y-12588913D01*
X4766729Y-12588913D02*
X4776253Y-12598436D01*
X4776253Y-12598436D02*
X4785777Y-12617484D01*
X4785777Y-12617484D02*
X4795300Y-12655579D01*
X4795300Y-12655579D02*
X4795300Y-12703198D01*
X4795300Y-12703198D02*
X4785777Y-12741293D01*
X4785777Y-12741293D02*
X4776253Y-12760341D01*
X4776253Y-12760341D02*
X4766729Y-12769865D01*
X4766729Y-12769865D02*
X4747681Y-12779389D01*
X4747681Y-12779389D02*
X4728634Y-12779389D01*
X4728634Y-12779389D02*
X4709586Y-12769865D01*
X4709586Y-12769865D02*
X4700062Y-12760341D01*
X4700062Y-12760341D02*
X4690539Y-12741293D01*
X4690539Y-12741293D02*
X4681015Y-12703198D01*
X4681015Y-12703198D02*
X4681015Y-12655579D01*
X4681015Y-12655579D02*
X4690539Y-12617484D01*
X4690539Y-12617484D02*
X4700062Y-12598436D01*
X4700062Y-12598436D02*
X4709586Y-12588913D01*
X4709586Y-12588913D02*
X4728634Y-12579389D01*
X4881015Y-12779389D02*
X4881015Y-12646055D01*
X4881015Y-12665103D02*
X4890539Y-12655579D01*
X4890539Y-12655579D02*
X4909586Y-12646055D01*
X4909586Y-12646055D02*
X4938158Y-12646055D01*
X4938158Y-12646055D02*
X4957205Y-12655579D01*
X4957205Y-12655579D02*
X4966729Y-12674627D01*
X4966729Y-12674627D02*
X4966729Y-12779389D01*
X4966729Y-12674627D02*
X4976253Y-12655579D01*
X4976253Y-12655579D02*
X4995300Y-12646055D01*
X4995300Y-12646055D02*
X5023872Y-12646055D01*
X5023872Y-12646055D02*
X5042920Y-12655579D01*
X5042920Y-12655579D02*
X5052443Y-12674627D01*
X5052443Y-12674627D02*
X5052443Y-12779389D01*
X5147681Y-12779389D02*
X5147681Y-12646055D01*
X5147681Y-12665103D02*
X5157205Y-12655579D01*
X5157205Y-12655579D02*
X5176253Y-12646055D01*
X5176253Y-12646055D02*
X5204824Y-12646055D01*
X5204824Y-12646055D02*
X5223872Y-12655579D01*
X5223872Y-12655579D02*
X5233396Y-12674627D01*
X5233396Y-12674627D02*
X5233396Y-12779389D01*
X5233396Y-12674627D02*
X5242920Y-12655579D01*
X5242920Y-12655579D02*
X5261967Y-12646055D01*
X5261967Y-12646055D02*
X5290539Y-12646055D01*
X5290539Y-12646055D02*
X5309586Y-12655579D01*
X5309586Y-12655579D02*
X5319110Y-12674627D01*
X5319110Y-12674627D02*
X5319110Y-12779389D01*
X5709586Y-12569865D02*
X5538158Y-12827008D01*
X5966729Y-12579389D02*
X5985777Y-12579389D01*
X5985777Y-12579389D02*
X6004824Y-12588913D01*
X6004824Y-12588913D02*
X6014348Y-12598436D01*
X6014348Y-12598436D02*
X6023872Y-12617484D01*
X6023872Y-12617484D02*
X6033396Y-12655579D01*
X6033396Y-12655579D02*
X6033396Y-12703198D01*
X6033396Y-12703198D02*
X6023872Y-12741293D01*
X6023872Y-12741293D02*
X6014348Y-12760341D01*
X6014348Y-12760341D02*
X6004824Y-12769865D01*
X6004824Y-12769865D02*
X5985777Y-12779389D01*
X5985777Y-12779389D02*
X5966729Y-12779389D01*
X5966729Y-12779389D02*
X5947681Y-12769865D01*
X5947681Y-12769865D02*
X5938158Y-12760341D01*
X5938158Y-12760341D02*
X5928634Y-12741293D01*
X5928634Y-12741293D02*
X5919110Y-12703198D01*
X5919110Y-12703198D02*
X5919110Y-12655579D01*
X5919110Y-12655579D02*
X5928634Y-12617484D01*
X5928634Y-12617484D02*
X5938158Y-12598436D01*
X5938158Y-12598436D02*
X5947681Y-12588913D01*
X5947681Y-12588913D02*
X5966729Y-12579389D01*
X6119110Y-12760341D02*
X6128634Y-12769865D01*
X6128634Y-12769865D02*
X6119110Y-12779389D01*
X6119110Y-12779389D02*
X6109586Y-12769865D01*
X6109586Y-12769865D02*
X6119110Y-12760341D01*
X6119110Y-12760341D02*
X6119110Y-12779389D01*
X6252443Y-12579389D02*
X6271491Y-12579389D01*
X6271491Y-12579389D02*
X6290539Y-12588913D01*
X6290539Y-12588913D02*
X6300062Y-12598436D01*
X6300062Y-12598436D02*
X6309586Y-12617484D01*
X6309586Y-12617484D02*
X6319110Y-12655579D01*
X6319110Y-12655579D02*
X6319110Y-12703198D01*
X6319110Y-12703198D02*
X6309586Y-12741293D01*
X6309586Y-12741293D02*
X6300062Y-12760341D01*
X6300062Y-12760341D02*
X6290539Y-12769865D01*
X6290539Y-12769865D02*
X6271491Y-12779389D01*
X6271491Y-12779389D02*
X6252443Y-12779389D01*
X6252443Y-12779389D02*
X6233396Y-12769865D01*
X6233396Y-12769865D02*
X6223872Y-12760341D01*
X6223872Y-12760341D02*
X6214348Y-12741293D01*
X6214348Y-12741293D02*
X6204824Y-12703198D01*
X6204824Y-12703198D02*
X6204824Y-12655579D01*
X6204824Y-12655579D02*
X6214348Y-12617484D01*
X6214348Y-12617484D02*
X6223872Y-12598436D01*
X6223872Y-12598436D02*
X6233396Y-12588913D01*
X6233396Y-12588913D02*
X6252443Y-12579389D01*
X6385777Y-12579389D02*
X6509586Y-12579389D01*
X6509586Y-12579389D02*
X6442920Y-12655579D01*
X6442920Y-12655579D02*
X6471491Y-12655579D01*
X6471491Y-12655579D02*
X6490539Y-12665103D01*
X6490539Y-12665103D02*
X6500062Y-12674627D01*
X6500062Y-12674627D02*
X6509586Y-12693674D01*
X6509586Y-12693674D02*
X6509586Y-12741293D01*
X6509586Y-12741293D02*
X6500062Y-12760341D01*
X6500062Y-12760341D02*
X6490539Y-12769865D01*
X6490539Y-12769865D02*
X6471491Y-12779389D01*
X6471491Y-12779389D02*
X6414348Y-12779389D01*
X6414348Y-12779389D02*
X6395301Y-12769865D01*
X6395301Y-12769865D02*
X6385777Y-12760341D01*
X6700062Y-12779389D02*
X6585777Y-12779389D01*
X6642920Y-12779389D02*
X6642920Y-12579389D01*
X6642920Y-12579389D02*
X6623872Y-12607960D01*
X6623872Y-12607960D02*
X6604824Y-12627008D01*
X6604824Y-12627008D02*
X6585777Y-12636532D01*
X6881015Y-12579389D02*
X6785777Y-12579389D01*
X6785777Y-12579389D02*
X6776253Y-12674627D01*
X6776253Y-12674627D02*
X6785777Y-12665103D01*
X6785777Y-12665103D02*
X6804824Y-12655579D01*
X6804824Y-12655579D02*
X6852443Y-12655579D01*
X6852443Y-12655579D02*
X6871491Y-12665103D01*
X6871491Y-12665103D02*
X6881015Y-12674627D01*
X6881015Y-12674627D02*
X6890539Y-12693674D01*
X6890539Y-12693674D02*
X6890539Y-12741293D01*
X6890539Y-12741293D02*
X6881015Y-12760341D01*
X6881015Y-12760341D02*
X6871491Y-12769865D01*
X6871491Y-12769865D02*
X6852443Y-12779389D01*
X6852443Y-12779389D02*
X6804824Y-12779389D01*
X6804824Y-12779389D02*
X6785777Y-12769865D01*
X6785777Y-12769865D02*
X6776253Y-12760341D01*
X6966729Y-12579389D02*
X6966729Y-12617484D01*
X7042920Y-12579389D02*
X7042920Y-12617484D01*
X7338158Y-12855579D02*
X7328634Y-12846055D01*
X7328634Y-12846055D02*
X7309586Y-12817484D01*
X7309586Y-12817484D02*
X7300063Y-12798436D01*
X7300063Y-12798436D02*
X7290539Y-12769865D01*
X7290539Y-12769865D02*
X7281015Y-12722246D01*
X7281015Y-12722246D02*
X7281015Y-12684151D01*
X7281015Y-12684151D02*
X7290539Y-12636532D01*
X7290539Y-12636532D02*
X7300063Y-12607960D01*
X7300063Y-12607960D02*
X7309586Y-12588913D01*
X7309586Y-12588913D02*
X7328634Y-12560341D01*
X7328634Y-12560341D02*
X7338158Y-12550817D01*
X7404824Y-12598436D02*
X7414348Y-12588913D01*
X7414348Y-12588913D02*
X7433396Y-12579389D01*
X7433396Y-12579389D02*
X7481015Y-12579389D01*
X7481015Y-12579389D02*
X7500063Y-12588913D01*
X7500063Y-12588913D02*
X7509586Y-12598436D01*
X7509586Y-12598436D02*
X7519110Y-12617484D01*
X7519110Y-12617484D02*
X7519110Y-12636532D01*
X7519110Y-12636532D02*
X7509586Y-12665103D01*
X7509586Y-12665103D02*
X7395301Y-12779389D01*
X7395301Y-12779389D02*
X7519110Y-12779389D01*
X7690539Y-12579389D02*
X7652443Y-12579389D01*
X7652443Y-12579389D02*
X7633396Y-12588913D01*
X7633396Y-12588913D02*
X7623872Y-12598436D01*
X7623872Y-12598436D02*
X7604824Y-12627008D01*
X7604824Y-12627008D02*
X7595301Y-12665103D01*
X7595301Y-12665103D02*
X7595301Y-12741293D01*
X7595301Y-12741293D02*
X7604824Y-12760341D01*
X7604824Y-12760341D02*
X7614348Y-12769865D01*
X7614348Y-12769865D02*
X7633396Y-12779389D01*
X7633396Y-12779389D02*
X7671491Y-12779389D01*
X7671491Y-12779389D02*
X7690539Y-12769865D01*
X7690539Y-12769865D02*
X7700063Y-12760341D01*
X7700063Y-12760341D02*
X7709586Y-12741293D01*
X7709586Y-12741293D02*
X7709586Y-12693674D01*
X7709586Y-12693674D02*
X7700063Y-12674627D01*
X7700063Y-12674627D02*
X7690539Y-12665103D01*
X7690539Y-12665103D02*
X7671491Y-12655579D01*
X7671491Y-12655579D02*
X7633396Y-12655579D01*
X7633396Y-12655579D02*
X7614348Y-12665103D01*
X7614348Y-12665103D02*
X7604824Y-12674627D01*
X7604824Y-12674627D02*
X7595301Y-12693674D01*
X7947682Y-12779389D02*
X7947682Y-12579389D01*
X8033396Y-12779389D02*
X8033396Y-12674627D01*
X8033396Y-12674627D02*
X8023872Y-12655579D01*
X8023872Y-12655579D02*
X8004825Y-12646055D01*
X8004825Y-12646055D02*
X7976253Y-12646055D01*
X7976253Y-12646055D02*
X7957205Y-12655579D01*
X7957205Y-12655579D02*
X7947682Y-12665103D01*
X8157205Y-12779389D02*
X8138158Y-12769865D01*
X8138158Y-12769865D02*
X8128634Y-12760341D01*
X8128634Y-12760341D02*
X8119110Y-12741293D01*
X8119110Y-12741293D02*
X8119110Y-12684151D01*
X8119110Y-12684151D02*
X8128634Y-12665103D01*
X8128634Y-12665103D02*
X8138158Y-12655579D01*
X8138158Y-12655579D02*
X8157205Y-12646055D01*
X8157205Y-12646055D02*
X8185777Y-12646055D01*
X8185777Y-12646055D02*
X8204825Y-12655579D01*
X8204825Y-12655579D02*
X8214348Y-12665103D01*
X8214348Y-12665103D02*
X8223872Y-12684151D01*
X8223872Y-12684151D02*
X8223872Y-12741293D01*
X8223872Y-12741293D02*
X8214348Y-12760341D01*
X8214348Y-12760341D02*
X8204825Y-12769865D01*
X8204825Y-12769865D02*
X8185777Y-12779389D01*
X8185777Y-12779389D02*
X8157205Y-12779389D01*
X8338158Y-12779389D02*
X8319110Y-12769865D01*
X8319110Y-12769865D02*
X8309586Y-12750817D01*
X8309586Y-12750817D02*
X8309586Y-12579389D01*
X8490539Y-12769865D02*
X8471491Y-12779389D01*
X8471491Y-12779389D02*
X8433396Y-12779389D01*
X8433396Y-12779389D02*
X8414348Y-12769865D01*
X8414348Y-12769865D02*
X8404825Y-12750817D01*
X8404825Y-12750817D02*
X8404825Y-12674627D01*
X8404825Y-12674627D02*
X8414348Y-12655579D01*
X8414348Y-12655579D02*
X8433396Y-12646055D01*
X8433396Y-12646055D02*
X8471491Y-12646055D01*
X8471491Y-12646055D02*
X8490539Y-12655579D01*
X8490539Y-12655579D02*
X8500063Y-12674627D01*
X8500063Y-12674627D02*
X8500063Y-12693674D01*
X8500063Y-12693674D02*
X8404825Y-12712722D01*
X8576253Y-12769865D02*
X8595301Y-12779389D01*
X8595301Y-12779389D02*
X8633396Y-12779389D01*
X8633396Y-12779389D02*
X8652444Y-12769865D01*
X8652444Y-12769865D02*
X8661968Y-12750817D01*
X8661968Y-12750817D02*
X8661968Y-12741293D01*
X8661968Y-12741293D02*
X8652444Y-12722246D01*
X8652444Y-12722246D02*
X8633396Y-12712722D01*
X8633396Y-12712722D02*
X8604825Y-12712722D01*
X8604825Y-12712722D02*
X8585777Y-12703198D01*
X8585777Y-12703198D02*
X8576253Y-12684151D01*
X8576253Y-12684151D02*
X8576253Y-12674627D01*
X8576253Y-12674627D02*
X8585777Y-12655579D01*
X8585777Y-12655579D02*
X8604825Y-12646055D01*
X8604825Y-12646055D02*
X8633396Y-12646055D01*
X8633396Y-12646055D02*
X8652444Y-12655579D01*
X8728634Y-12855579D02*
X8738158Y-12846055D01*
X8738158Y-12846055D02*
X8757206Y-12817484D01*
X8757206Y-12817484D02*
X8766729Y-12798436D01*
X8766729Y-12798436D02*
X8776253Y-12769865D01*
X8776253Y-12769865D02*
X8785777Y-12722246D01*
X8785777Y-12722246D02*
X8785777Y-12684151D01*
X8785777Y-12684151D02*
X8776253Y-12636532D01*
X8776253Y-12636532D02*
X8766729Y-12607960D01*
X8766729Y-12607960D02*
X8757206Y-12588913D01*
X8757206Y-12588913D02*
X8738158Y-12560341D01*
X8738158Y-12560341D02*
X8728634Y-12550817D01*
D12*
X3673095Y-12906905D02*
X3763095Y-12996905D01*
X3763095Y-12906905D02*
X3673095Y-12996905D01*
X3763095Y-12951905D02*
G75*
G02*
X3673095Y-12951905I-45000J0D01*
G01*
X3673095Y-12951905D02*
G75*
G02*
X3763095Y-12951905I45000J0D01*
G01*
D11*
X4061967Y-12843389D02*
X4081015Y-12843389D01*
X4081015Y-12843389D02*
X4100062Y-12852913D01*
X4100062Y-12852913D02*
X4109586Y-12862436D01*
X4109586Y-12862436D02*
X4119110Y-12881484D01*
X4119110Y-12881484D02*
X4128634Y-12919579D01*
X4128634Y-12919579D02*
X4128634Y-12967198D01*
X4128634Y-12967198D02*
X4119110Y-13005293D01*
X4119110Y-13005293D02*
X4109586Y-13024341D01*
X4109586Y-13024341D02*
X4100062Y-13033865D01*
X4100062Y-13033865D02*
X4081015Y-13043389D01*
X4081015Y-13043389D02*
X4061967Y-13043389D01*
X4061967Y-13043389D02*
X4042919Y-13033865D01*
X4042919Y-13033865D02*
X4033396Y-13024341D01*
X4033396Y-13024341D02*
X4023872Y-13005293D01*
X4023872Y-13005293D02*
X4014348Y-12967198D01*
X4014348Y-12967198D02*
X4014348Y-12919579D01*
X4014348Y-12919579D02*
X4023872Y-12881484D01*
X4023872Y-12881484D02*
X4033396Y-12862436D01*
X4033396Y-12862436D02*
X4042919Y-12852913D01*
X4042919Y-12852913D02*
X4061967Y-12843389D01*
X4214348Y-13024341D02*
X4223872Y-13033865D01*
X4223872Y-13033865D02*
X4214348Y-13043389D01*
X4214348Y-13043389D02*
X4204824Y-13033865D01*
X4204824Y-13033865D02*
X4214348Y-13024341D01*
X4214348Y-13024341D02*
X4214348Y-13043389D01*
X4319110Y-13043389D02*
X4357205Y-13043389D01*
X4357205Y-13043389D02*
X4376253Y-13033865D01*
X4376253Y-13033865D02*
X4385777Y-13024341D01*
X4385777Y-13024341D02*
X4404824Y-12995770D01*
X4404824Y-12995770D02*
X4414348Y-12957674D01*
X4414348Y-12957674D02*
X4414348Y-12881484D01*
X4414348Y-12881484D02*
X4404824Y-12862436D01*
X4404824Y-12862436D02*
X4395300Y-12852913D01*
X4395300Y-12852913D02*
X4376253Y-12843389D01*
X4376253Y-12843389D02*
X4338158Y-12843389D01*
X4338158Y-12843389D02*
X4319110Y-12852913D01*
X4319110Y-12852913D02*
X4309586Y-12862436D01*
X4309586Y-12862436D02*
X4300062Y-12881484D01*
X4300062Y-12881484D02*
X4300062Y-12929103D01*
X4300062Y-12929103D02*
X4309586Y-12948151D01*
X4309586Y-12948151D02*
X4319110Y-12957674D01*
X4319110Y-12957674D02*
X4338158Y-12967198D01*
X4338158Y-12967198D02*
X4376253Y-12967198D01*
X4376253Y-12967198D02*
X4395300Y-12957674D01*
X4395300Y-12957674D02*
X4404824Y-12948151D01*
X4404824Y-12948151D02*
X4414348Y-12929103D01*
X4538158Y-12843389D02*
X4557205Y-12843389D01*
X4557205Y-12843389D02*
X4576253Y-12852913D01*
X4576253Y-12852913D02*
X4585777Y-12862436D01*
X4585777Y-12862436D02*
X4595300Y-12881484D01*
X4595300Y-12881484D02*
X4604824Y-12919579D01*
X4604824Y-12919579D02*
X4604824Y-12967198D01*
X4604824Y-12967198D02*
X4595300Y-13005293D01*
X4595300Y-13005293D02*
X4585777Y-13024341D01*
X4585777Y-13024341D02*
X4576253Y-13033865D01*
X4576253Y-13033865D02*
X4557205Y-13043389D01*
X4557205Y-13043389D02*
X4538158Y-13043389D01*
X4538158Y-13043389D02*
X4519110Y-13033865D01*
X4519110Y-13033865D02*
X4509586Y-13024341D01*
X4509586Y-13024341D02*
X4500062Y-13005293D01*
X4500062Y-13005293D02*
X4490539Y-12967198D01*
X4490539Y-12967198D02*
X4490539Y-12919579D01*
X4490539Y-12919579D02*
X4500062Y-12881484D01*
X4500062Y-12881484D02*
X4509586Y-12862436D01*
X4509586Y-12862436D02*
X4519110Y-12852913D01*
X4519110Y-12852913D02*
X4538158Y-12843389D01*
X4728634Y-12843389D02*
X4747681Y-12843389D01*
X4747681Y-12843389D02*
X4766729Y-12852913D01*
X4766729Y-12852913D02*
X4776253Y-12862436D01*
X4776253Y-12862436D02*
X4785777Y-12881484D01*
X4785777Y-12881484D02*
X4795300Y-12919579D01*
X4795300Y-12919579D02*
X4795300Y-12967198D01*
X4795300Y-12967198D02*
X4785777Y-13005293D01*
X4785777Y-13005293D02*
X4776253Y-13024341D01*
X4776253Y-13024341D02*
X4766729Y-13033865D01*
X4766729Y-13033865D02*
X4747681Y-13043389D01*
X4747681Y-13043389D02*
X4728634Y-13043389D01*
X4728634Y-13043389D02*
X4709586Y-13033865D01*
X4709586Y-13033865D02*
X4700062Y-13024341D01*
X4700062Y-13024341D02*
X4690539Y-13005293D01*
X4690539Y-13005293D02*
X4681015Y-12967198D01*
X4681015Y-12967198D02*
X4681015Y-12919579D01*
X4681015Y-12919579D02*
X4690539Y-12881484D01*
X4690539Y-12881484D02*
X4700062Y-12862436D01*
X4700062Y-12862436D02*
X4709586Y-12852913D01*
X4709586Y-12852913D02*
X4728634Y-12843389D01*
X4881015Y-13043389D02*
X4881015Y-12910055D01*
X4881015Y-12929103D02*
X4890539Y-12919579D01*
X4890539Y-12919579D02*
X4909586Y-12910055D01*
X4909586Y-12910055D02*
X4938158Y-12910055D01*
X4938158Y-12910055D02*
X4957205Y-12919579D01*
X4957205Y-12919579D02*
X4966729Y-12938627D01*
X4966729Y-12938627D02*
X4966729Y-13043389D01*
X4966729Y-12938627D02*
X4976253Y-12919579D01*
X4976253Y-12919579D02*
X4995300Y-12910055D01*
X4995300Y-12910055D02*
X5023872Y-12910055D01*
X5023872Y-12910055D02*
X5042920Y-12919579D01*
X5042920Y-12919579D02*
X5052443Y-12938627D01*
X5052443Y-12938627D02*
X5052443Y-13043389D01*
X5147681Y-13043389D02*
X5147681Y-12910055D01*
X5147681Y-12929103D02*
X5157205Y-12919579D01*
X5157205Y-12919579D02*
X5176253Y-12910055D01*
X5176253Y-12910055D02*
X5204824Y-12910055D01*
X5204824Y-12910055D02*
X5223872Y-12919579D01*
X5223872Y-12919579D02*
X5233396Y-12938627D01*
X5233396Y-12938627D02*
X5233396Y-13043389D01*
X5233396Y-12938627D02*
X5242920Y-12919579D01*
X5242920Y-12919579D02*
X5261967Y-12910055D01*
X5261967Y-12910055D02*
X5290539Y-12910055D01*
X5290539Y-12910055D02*
X5309586Y-12919579D01*
X5309586Y-12919579D02*
X5319110Y-12938627D01*
X5319110Y-12938627D02*
X5319110Y-13043389D01*
X5709586Y-12833865D02*
X5538158Y-13091008D01*
X5966729Y-12843389D02*
X5985777Y-12843389D01*
X5985777Y-12843389D02*
X6004824Y-12852913D01*
X6004824Y-12852913D02*
X6014348Y-12862436D01*
X6014348Y-12862436D02*
X6023872Y-12881484D01*
X6023872Y-12881484D02*
X6033396Y-12919579D01*
X6033396Y-12919579D02*
X6033396Y-12967198D01*
X6033396Y-12967198D02*
X6023872Y-13005293D01*
X6023872Y-13005293D02*
X6014348Y-13024341D01*
X6014348Y-13024341D02*
X6004824Y-13033865D01*
X6004824Y-13033865D02*
X5985777Y-13043389D01*
X5985777Y-13043389D02*
X5966729Y-13043389D01*
X5966729Y-13043389D02*
X5947681Y-13033865D01*
X5947681Y-13033865D02*
X5938158Y-13024341D01*
X5938158Y-13024341D02*
X5928634Y-13005293D01*
X5928634Y-13005293D02*
X5919110Y-12967198D01*
X5919110Y-12967198D02*
X5919110Y-12919579D01*
X5919110Y-12919579D02*
X5928634Y-12881484D01*
X5928634Y-12881484D02*
X5938158Y-12862436D01*
X5938158Y-12862436D02*
X5947681Y-12852913D01*
X5947681Y-12852913D02*
X5966729Y-12843389D01*
X6119110Y-13024341D02*
X6128634Y-13033865D01*
X6128634Y-13033865D02*
X6119110Y-13043389D01*
X6119110Y-13043389D02*
X6109586Y-13033865D01*
X6109586Y-13033865D02*
X6119110Y-13024341D01*
X6119110Y-13024341D02*
X6119110Y-13043389D01*
X6252443Y-12843389D02*
X6271491Y-12843389D01*
X6271491Y-12843389D02*
X6290539Y-12852913D01*
X6290539Y-12852913D02*
X6300062Y-12862436D01*
X6300062Y-12862436D02*
X6309586Y-12881484D01*
X6309586Y-12881484D02*
X6319110Y-12919579D01*
X6319110Y-12919579D02*
X6319110Y-12967198D01*
X6319110Y-12967198D02*
X6309586Y-13005293D01*
X6309586Y-13005293D02*
X6300062Y-13024341D01*
X6300062Y-13024341D02*
X6290539Y-13033865D01*
X6290539Y-13033865D02*
X6271491Y-13043389D01*
X6271491Y-13043389D02*
X6252443Y-13043389D01*
X6252443Y-13043389D02*
X6233396Y-13033865D01*
X6233396Y-13033865D02*
X6223872Y-13024341D01*
X6223872Y-13024341D02*
X6214348Y-13005293D01*
X6214348Y-13005293D02*
X6204824Y-12967198D01*
X6204824Y-12967198D02*
X6204824Y-12919579D01*
X6204824Y-12919579D02*
X6214348Y-12881484D01*
X6214348Y-12881484D02*
X6223872Y-12862436D01*
X6223872Y-12862436D02*
X6233396Y-12852913D01*
X6233396Y-12852913D02*
X6252443Y-12843389D01*
X6385777Y-12843389D02*
X6509586Y-12843389D01*
X6509586Y-12843389D02*
X6442920Y-12919579D01*
X6442920Y-12919579D02*
X6471491Y-12919579D01*
X6471491Y-12919579D02*
X6490539Y-12929103D01*
X6490539Y-12929103D02*
X6500062Y-12938627D01*
X6500062Y-12938627D02*
X6509586Y-12957674D01*
X6509586Y-12957674D02*
X6509586Y-13005293D01*
X6509586Y-13005293D02*
X6500062Y-13024341D01*
X6500062Y-13024341D02*
X6490539Y-13033865D01*
X6490539Y-13033865D02*
X6471491Y-13043389D01*
X6471491Y-13043389D02*
X6414348Y-13043389D01*
X6414348Y-13043389D02*
X6395301Y-13033865D01*
X6395301Y-13033865D02*
X6385777Y-13024341D01*
X6690539Y-12843389D02*
X6595301Y-12843389D01*
X6595301Y-12843389D02*
X6585777Y-12938627D01*
X6585777Y-12938627D02*
X6595301Y-12929103D01*
X6595301Y-12929103D02*
X6614348Y-12919579D01*
X6614348Y-12919579D02*
X6661967Y-12919579D01*
X6661967Y-12919579D02*
X6681015Y-12929103D01*
X6681015Y-12929103D02*
X6690539Y-12938627D01*
X6690539Y-12938627D02*
X6700062Y-12957674D01*
X6700062Y-12957674D02*
X6700062Y-13005293D01*
X6700062Y-13005293D02*
X6690539Y-13024341D01*
X6690539Y-13024341D02*
X6681015Y-13033865D01*
X6681015Y-13033865D02*
X6661967Y-13043389D01*
X6661967Y-13043389D02*
X6614348Y-13043389D01*
X6614348Y-13043389D02*
X6595301Y-13033865D01*
X6595301Y-13033865D02*
X6585777Y-13024341D01*
X6871491Y-12910055D02*
X6871491Y-13043389D01*
X6823872Y-12833865D02*
X6776253Y-12976722D01*
X6776253Y-12976722D02*
X6900062Y-12976722D01*
X6966729Y-12843389D02*
X6966729Y-12881484D01*
X7042920Y-12843389D02*
X7042920Y-12881484D01*
X7338158Y-13119579D02*
X7328634Y-13110055D01*
X7328634Y-13110055D02*
X7309586Y-13081484D01*
X7309586Y-13081484D02*
X7300063Y-13062436D01*
X7300063Y-13062436D02*
X7290539Y-13033865D01*
X7290539Y-13033865D02*
X7281015Y-12986246D01*
X7281015Y-12986246D02*
X7281015Y-12948151D01*
X7281015Y-12948151D02*
X7290539Y-12900532D01*
X7290539Y-12900532D02*
X7300063Y-12871960D01*
X7300063Y-12871960D02*
X7309586Y-12852913D01*
X7309586Y-12852913D02*
X7328634Y-12824341D01*
X7328634Y-12824341D02*
X7338158Y-12814817D01*
X7500063Y-12910055D02*
X7500063Y-13043389D01*
X7452443Y-12833865D02*
X7404824Y-12976722D01*
X7404824Y-12976722D02*
X7528634Y-12976722D01*
X7757205Y-13043389D02*
X7757205Y-12843389D01*
X7842920Y-13043389D02*
X7842920Y-12938627D01*
X7842920Y-12938627D02*
X7833396Y-12919579D01*
X7833396Y-12919579D02*
X7814348Y-12910055D01*
X7814348Y-12910055D02*
X7785777Y-12910055D01*
X7785777Y-12910055D02*
X7766729Y-12919579D01*
X7766729Y-12919579D02*
X7757205Y-12929103D01*
X7966729Y-13043389D02*
X7947682Y-13033865D01*
X7947682Y-13033865D02*
X7938158Y-13024341D01*
X7938158Y-13024341D02*
X7928634Y-13005293D01*
X7928634Y-13005293D02*
X7928634Y-12948151D01*
X7928634Y-12948151D02*
X7938158Y-12929103D01*
X7938158Y-12929103D02*
X7947682Y-12919579D01*
X7947682Y-12919579D02*
X7966729Y-12910055D01*
X7966729Y-12910055D02*
X7995301Y-12910055D01*
X7995301Y-12910055D02*
X8014348Y-12919579D01*
X8014348Y-12919579D02*
X8023872Y-12929103D01*
X8023872Y-12929103D02*
X8033396Y-12948151D01*
X8033396Y-12948151D02*
X8033396Y-13005293D01*
X8033396Y-13005293D02*
X8023872Y-13024341D01*
X8023872Y-13024341D02*
X8014348Y-13033865D01*
X8014348Y-13033865D02*
X7995301Y-13043389D01*
X7995301Y-13043389D02*
X7966729Y-13043389D01*
X8147682Y-13043389D02*
X8128634Y-13033865D01*
X8128634Y-13033865D02*
X8119110Y-13014817D01*
X8119110Y-13014817D02*
X8119110Y-12843389D01*
X8300063Y-13033865D02*
X8281015Y-13043389D01*
X8281015Y-13043389D02*
X8242920Y-13043389D01*
X8242920Y-13043389D02*
X8223872Y-13033865D01*
X8223872Y-13033865D02*
X8214348Y-13014817D01*
X8214348Y-13014817D02*
X8214348Y-12938627D01*
X8214348Y-12938627D02*
X8223872Y-12919579D01*
X8223872Y-12919579D02*
X8242920Y-12910055D01*
X8242920Y-12910055D02*
X8281015Y-12910055D01*
X8281015Y-12910055D02*
X8300063Y-12919579D01*
X8300063Y-12919579D02*
X8309586Y-12938627D01*
X8309586Y-12938627D02*
X8309586Y-12957674D01*
X8309586Y-12957674D02*
X8214348Y-12976722D01*
X8385777Y-13033865D02*
X8404825Y-13043389D01*
X8404825Y-13043389D02*
X8442920Y-13043389D01*
X8442920Y-13043389D02*
X8461968Y-13033865D01*
X8461968Y-13033865D02*
X8471491Y-13014817D01*
X8471491Y-13014817D02*
X8471491Y-13005293D01*
X8471491Y-13005293D02*
X8461968Y-12986246D01*
X8461968Y-12986246D02*
X8442920Y-12976722D01*
X8442920Y-12976722D02*
X8414348Y-12976722D01*
X8414348Y-12976722D02*
X8395301Y-12967198D01*
X8395301Y-12967198D02*
X8385777Y-12948151D01*
X8385777Y-12948151D02*
X8385777Y-12938627D01*
X8385777Y-12938627D02*
X8395301Y-12919579D01*
X8395301Y-12919579D02*
X8414348Y-12910055D01*
X8414348Y-12910055D02*
X8442920Y-12910055D01*
X8442920Y-12910055D02*
X8461968Y-12919579D01*
X8538158Y-13119579D02*
X8547682Y-13110055D01*
X8547682Y-13110055D02*
X8566729Y-13081484D01*
X8566729Y-13081484D02*
X8576253Y-13062436D01*
X8576253Y-13062436D02*
X8585777Y-13033865D01*
X8585777Y-13033865D02*
X8595301Y-12986246D01*
X8595301Y-12986246D02*
X8595301Y-12948151D01*
X8595301Y-12948151D02*
X8585777Y-12900532D01*
X8585777Y-12900532D02*
X8576253Y-12871960D01*
X8576253Y-12871960D02*
X8566729Y-12852913D01*
X8566729Y-12852913D02*
X8547682Y-12824341D01*
X8547682Y-12824341D02*
X8538158Y-12814817D01*
D13*
X3653095Y-13160905D02*
X3763095Y-13270905D01*
X3763095Y-13160905D02*
X3653095Y-13270905D01*
X3708095Y-13160905D02*
X3708095Y-13270905D01*
X3653095Y-13215905D02*
X3763095Y-13215905D01*
D11*
X4128634Y-13307389D02*
X4014348Y-13307389D01*
X4071491Y-13307389D02*
X4071491Y-13107389D01*
X4071491Y-13107389D02*
X4052443Y-13135960D01*
X4052443Y-13135960D02*
X4033396Y-13155008D01*
X4033396Y-13155008D02*
X4014348Y-13164532D01*
X4214348Y-13288341D02*
X4223872Y-13297865D01*
X4223872Y-13297865D02*
X4214348Y-13307389D01*
X4214348Y-13307389D02*
X4204824Y-13297865D01*
X4204824Y-13297865D02*
X4214348Y-13288341D01*
X4214348Y-13288341D02*
X4214348Y-13307389D01*
X4414348Y-13307389D02*
X4300062Y-13307389D01*
X4357205Y-13307389D02*
X4357205Y-13107389D01*
X4357205Y-13107389D02*
X4338158Y-13135960D01*
X4338158Y-13135960D02*
X4319110Y-13155008D01*
X4319110Y-13155008D02*
X4300062Y-13164532D01*
X4538158Y-13107389D02*
X4557205Y-13107389D01*
X4557205Y-13107389D02*
X4576253Y-13116913D01*
X4576253Y-13116913D02*
X4585777Y-13126436D01*
X4585777Y-13126436D02*
X4595300Y-13145484D01*
X4595300Y-13145484D02*
X4604824Y-13183579D01*
X4604824Y-13183579D02*
X4604824Y-13231198D01*
X4604824Y-13231198D02*
X4595300Y-13269293D01*
X4595300Y-13269293D02*
X4585777Y-13288341D01*
X4585777Y-13288341D02*
X4576253Y-13297865D01*
X4576253Y-13297865D02*
X4557205Y-13307389D01*
X4557205Y-13307389D02*
X4538158Y-13307389D01*
X4538158Y-13307389D02*
X4519110Y-13297865D01*
X4519110Y-13297865D02*
X4509586Y-13288341D01*
X4509586Y-13288341D02*
X4500062Y-13269293D01*
X4500062Y-13269293D02*
X4490539Y-13231198D01*
X4490539Y-13231198D02*
X4490539Y-13183579D01*
X4490539Y-13183579D02*
X4500062Y-13145484D01*
X4500062Y-13145484D02*
X4509586Y-13126436D01*
X4509586Y-13126436D02*
X4519110Y-13116913D01*
X4519110Y-13116913D02*
X4538158Y-13107389D01*
X4728634Y-13107389D02*
X4747681Y-13107389D01*
X4747681Y-13107389D02*
X4766729Y-13116913D01*
X4766729Y-13116913D02*
X4776253Y-13126436D01*
X4776253Y-13126436D02*
X4785777Y-13145484D01*
X4785777Y-13145484D02*
X4795300Y-13183579D01*
X4795300Y-13183579D02*
X4795300Y-13231198D01*
X4795300Y-13231198D02*
X4785777Y-13269293D01*
X4785777Y-13269293D02*
X4776253Y-13288341D01*
X4776253Y-13288341D02*
X4766729Y-13297865D01*
X4766729Y-13297865D02*
X4747681Y-13307389D01*
X4747681Y-13307389D02*
X4728634Y-13307389D01*
X4728634Y-13307389D02*
X4709586Y-13297865D01*
X4709586Y-13297865D02*
X4700062Y-13288341D01*
X4700062Y-13288341D02*
X4690539Y-13269293D01*
X4690539Y-13269293D02*
X4681015Y-13231198D01*
X4681015Y-13231198D02*
X4681015Y-13183579D01*
X4681015Y-13183579D02*
X4690539Y-13145484D01*
X4690539Y-13145484D02*
X4700062Y-13126436D01*
X4700062Y-13126436D02*
X4709586Y-13116913D01*
X4709586Y-13116913D02*
X4728634Y-13107389D01*
X4881015Y-13307389D02*
X4881015Y-13174055D01*
X4881015Y-13193103D02*
X4890539Y-13183579D01*
X4890539Y-13183579D02*
X4909586Y-13174055D01*
X4909586Y-13174055D02*
X4938158Y-13174055D01*
X4938158Y-13174055D02*
X4957205Y-13183579D01*
X4957205Y-13183579D02*
X4966729Y-13202627D01*
X4966729Y-13202627D02*
X4966729Y-13307389D01*
X4966729Y-13202627D02*
X4976253Y-13183579D01*
X4976253Y-13183579D02*
X4995300Y-13174055D01*
X4995300Y-13174055D02*
X5023872Y-13174055D01*
X5023872Y-13174055D02*
X5042920Y-13183579D01*
X5042920Y-13183579D02*
X5052443Y-13202627D01*
X5052443Y-13202627D02*
X5052443Y-13307389D01*
X5147681Y-13307389D02*
X5147681Y-13174055D01*
X5147681Y-13193103D02*
X5157205Y-13183579D01*
X5157205Y-13183579D02*
X5176253Y-13174055D01*
X5176253Y-13174055D02*
X5204824Y-13174055D01*
X5204824Y-13174055D02*
X5223872Y-13183579D01*
X5223872Y-13183579D02*
X5233396Y-13202627D01*
X5233396Y-13202627D02*
X5233396Y-13307389D01*
X5233396Y-13202627D02*
X5242920Y-13183579D01*
X5242920Y-13183579D02*
X5261967Y-13174055D01*
X5261967Y-13174055D02*
X5290539Y-13174055D01*
X5290539Y-13174055D02*
X5309586Y-13183579D01*
X5309586Y-13183579D02*
X5319110Y-13202627D01*
X5319110Y-13202627D02*
X5319110Y-13307389D01*
X5709586Y-13097865D02*
X5538158Y-13355008D01*
X5966729Y-13107389D02*
X5985777Y-13107389D01*
X5985777Y-13107389D02*
X6004824Y-13116913D01*
X6004824Y-13116913D02*
X6014348Y-13126436D01*
X6014348Y-13126436D02*
X6023872Y-13145484D01*
X6023872Y-13145484D02*
X6033396Y-13183579D01*
X6033396Y-13183579D02*
X6033396Y-13231198D01*
X6033396Y-13231198D02*
X6023872Y-13269293D01*
X6023872Y-13269293D02*
X6014348Y-13288341D01*
X6014348Y-13288341D02*
X6004824Y-13297865D01*
X6004824Y-13297865D02*
X5985777Y-13307389D01*
X5985777Y-13307389D02*
X5966729Y-13307389D01*
X5966729Y-13307389D02*
X5947681Y-13297865D01*
X5947681Y-13297865D02*
X5938158Y-13288341D01*
X5938158Y-13288341D02*
X5928634Y-13269293D01*
X5928634Y-13269293D02*
X5919110Y-13231198D01*
X5919110Y-13231198D02*
X5919110Y-13183579D01*
X5919110Y-13183579D02*
X5928634Y-13145484D01*
X5928634Y-13145484D02*
X5938158Y-13126436D01*
X5938158Y-13126436D02*
X5947681Y-13116913D01*
X5947681Y-13116913D02*
X5966729Y-13107389D01*
X6119110Y-13288341D02*
X6128634Y-13297865D01*
X6128634Y-13297865D02*
X6119110Y-13307389D01*
X6119110Y-13307389D02*
X6109586Y-13297865D01*
X6109586Y-13297865D02*
X6119110Y-13288341D01*
X6119110Y-13288341D02*
X6119110Y-13307389D01*
X6252443Y-13107389D02*
X6271491Y-13107389D01*
X6271491Y-13107389D02*
X6290539Y-13116913D01*
X6290539Y-13116913D02*
X6300062Y-13126436D01*
X6300062Y-13126436D02*
X6309586Y-13145484D01*
X6309586Y-13145484D02*
X6319110Y-13183579D01*
X6319110Y-13183579D02*
X6319110Y-13231198D01*
X6319110Y-13231198D02*
X6309586Y-13269293D01*
X6309586Y-13269293D02*
X6300062Y-13288341D01*
X6300062Y-13288341D02*
X6290539Y-13297865D01*
X6290539Y-13297865D02*
X6271491Y-13307389D01*
X6271491Y-13307389D02*
X6252443Y-13307389D01*
X6252443Y-13307389D02*
X6233396Y-13297865D01*
X6233396Y-13297865D02*
X6223872Y-13288341D01*
X6223872Y-13288341D02*
X6214348Y-13269293D01*
X6214348Y-13269293D02*
X6204824Y-13231198D01*
X6204824Y-13231198D02*
X6204824Y-13183579D01*
X6204824Y-13183579D02*
X6214348Y-13145484D01*
X6214348Y-13145484D02*
X6223872Y-13126436D01*
X6223872Y-13126436D02*
X6233396Y-13116913D01*
X6233396Y-13116913D02*
X6252443Y-13107389D01*
X6490539Y-13174055D02*
X6490539Y-13307389D01*
X6442920Y-13097865D02*
X6395301Y-13240722D01*
X6395301Y-13240722D02*
X6519110Y-13240722D01*
X6576253Y-13107389D02*
X6700062Y-13107389D01*
X6700062Y-13107389D02*
X6633396Y-13183579D01*
X6633396Y-13183579D02*
X6661967Y-13183579D01*
X6661967Y-13183579D02*
X6681015Y-13193103D01*
X6681015Y-13193103D02*
X6690539Y-13202627D01*
X6690539Y-13202627D02*
X6700062Y-13221674D01*
X6700062Y-13221674D02*
X6700062Y-13269293D01*
X6700062Y-13269293D02*
X6690539Y-13288341D01*
X6690539Y-13288341D02*
X6681015Y-13297865D01*
X6681015Y-13297865D02*
X6661967Y-13307389D01*
X6661967Y-13307389D02*
X6604824Y-13307389D01*
X6604824Y-13307389D02*
X6585777Y-13297865D01*
X6585777Y-13297865D02*
X6576253Y-13288341D01*
X6766729Y-13107389D02*
X6890539Y-13107389D01*
X6890539Y-13107389D02*
X6823872Y-13183579D01*
X6823872Y-13183579D02*
X6852443Y-13183579D01*
X6852443Y-13183579D02*
X6871491Y-13193103D01*
X6871491Y-13193103D02*
X6881015Y-13202627D01*
X6881015Y-13202627D02*
X6890539Y-13221674D01*
X6890539Y-13221674D02*
X6890539Y-13269293D01*
X6890539Y-13269293D02*
X6881015Y-13288341D01*
X6881015Y-13288341D02*
X6871491Y-13297865D01*
X6871491Y-13297865D02*
X6852443Y-13307389D01*
X6852443Y-13307389D02*
X6795301Y-13307389D01*
X6795301Y-13307389D02*
X6776253Y-13297865D01*
X6776253Y-13297865D02*
X6766729Y-13288341D01*
X6966729Y-13107389D02*
X6966729Y-13145484D01*
X7042920Y-13107389D02*
X7042920Y-13145484D01*
X7338158Y-13383579D02*
X7328634Y-13374055D01*
X7328634Y-13374055D02*
X7309586Y-13345484D01*
X7309586Y-13345484D02*
X7300063Y-13326436D01*
X7300063Y-13326436D02*
X7290539Y-13297865D01*
X7290539Y-13297865D02*
X7281015Y-13250246D01*
X7281015Y-13250246D02*
X7281015Y-13212151D01*
X7281015Y-13212151D02*
X7290539Y-13164532D01*
X7290539Y-13164532D02*
X7300063Y-13135960D01*
X7300063Y-13135960D02*
X7309586Y-13116913D01*
X7309586Y-13116913D02*
X7328634Y-13088341D01*
X7328634Y-13088341D02*
X7338158Y-13078817D01*
X7500063Y-13107389D02*
X7461967Y-13107389D01*
X7461967Y-13107389D02*
X7442920Y-13116913D01*
X7442920Y-13116913D02*
X7433396Y-13126436D01*
X7433396Y-13126436D02*
X7414348Y-13155008D01*
X7414348Y-13155008D02*
X7404824Y-13193103D01*
X7404824Y-13193103D02*
X7404824Y-13269293D01*
X7404824Y-13269293D02*
X7414348Y-13288341D01*
X7414348Y-13288341D02*
X7423872Y-13297865D01*
X7423872Y-13297865D02*
X7442920Y-13307389D01*
X7442920Y-13307389D02*
X7481015Y-13307389D01*
X7481015Y-13307389D02*
X7500063Y-13297865D01*
X7500063Y-13297865D02*
X7509586Y-13288341D01*
X7509586Y-13288341D02*
X7519110Y-13269293D01*
X7519110Y-13269293D02*
X7519110Y-13221674D01*
X7519110Y-13221674D02*
X7509586Y-13202627D01*
X7509586Y-13202627D02*
X7500063Y-13193103D01*
X7500063Y-13193103D02*
X7481015Y-13183579D01*
X7481015Y-13183579D02*
X7442920Y-13183579D01*
X7442920Y-13183579D02*
X7423872Y-13193103D01*
X7423872Y-13193103D02*
X7414348Y-13202627D01*
X7414348Y-13202627D02*
X7404824Y-13221674D01*
X7757205Y-13307389D02*
X7757205Y-13107389D01*
X7842920Y-13307389D02*
X7842920Y-13202627D01*
X7842920Y-13202627D02*
X7833396Y-13183579D01*
X7833396Y-13183579D02*
X7814348Y-13174055D01*
X7814348Y-13174055D02*
X7785777Y-13174055D01*
X7785777Y-13174055D02*
X7766729Y-13183579D01*
X7766729Y-13183579D02*
X7757205Y-13193103D01*
X7966729Y-13307389D02*
X7947682Y-13297865D01*
X7947682Y-13297865D02*
X7938158Y-13288341D01*
X7938158Y-13288341D02*
X7928634Y-13269293D01*
X7928634Y-13269293D02*
X7928634Y-13212151D01*
X7928634Y-13212151D02*
X7938158Y-13193103D01*
X7938158Y-13193103D02*
X7947682Y-13183579D01*
X7947682Y-13183579D02*
X7966729Y-13174055D01*
X7966729Y-13174055D02*
X7995301Y-13174055D01*
X7995301Y-13174055D02*
X8014348Y-13183579D01*
X8014348Y-13183579D02*
X8023872Y-13193103D01*
X8023872Y-13193103D02*
X8033396Y-13212151D01*
X8033396Y-13212151D02*
X8033396Y-13269293D01*
X8033396Y-13269293D02*
X8023872Y-13288341D01*
X8023872Y-13288341D02*
X8014348Y-13297865D01*
X8014348Y-13297865D02*
X7995301Y-13307389D01*
X7995301Y-13307389D02*
X7966729Y-13307389D01*
X8147682Y-13307389D02*
X8128634Y-13297865D01*
X8128634Y-13297865D02*
X8119110Y-13278817D01*
X8119110Y-13278817D02*
X8119110Y-13107389D01*
X8300063Y-13297865D02*
X8281015Y-13307389D01*
X8281015Y-13307389D02*
X8242920Y-13307389D01*
X8242920Y-13307389D02*
X8223872Y-13297865D01*
X8223872Y-13297865D02*
X8214348Y-13278817D01*
X8214348Y-13278817D02*
X8214348Y-13202627D01*
X8214348Y-13202627D02*
X8223872Y-13183579D01*
X8223872Y-13183579D02*
X8242920Y-13174055D01*
X8242920Y-13174055D02*
X8281015Y-13174055D01*
X8281015Y-13174055D02*
X8300063Y-13183579D01*
X8300063Y-13183579D02*
X8309586Y-13202627D01*
X8309586Y-13202627D02*
X8309586Y-13221674D01*
X8309586Y-13221674D02*
X8214348Y-13240722D01*
X8385777Y-13297865D02*
X8404825Y-13307389D01*
X8404825Y-13307389D02*
X8442920Y-13307389D01*
X8442920Y-13307389D02*
X8461968Y-13297865D01*
X8461968Y-13297865D02*
X8471491Y-13278817D01*
X8471491Y-13278817D02*
X8471491Y-13269293D01*
X8471491Y-13269293D02*
X8461968Y-13250246D01*
X8461968Y-13250246D02*
X8442920Y-13240722D01*
X8442920Y-13240722D02*
X8414348Y-13240722D01*
X8414348Y-13240722D02*
X8395301Y-13231198D01*
X8395301Y-13231198D02*
X8385777Y-13212151D01*
X8385777Y-13212151D02*
X8385777Y-13202627D01*
X8385777Y-13202627D02*
X8395301Y-13183579D01*
X8395301Y-13183579D02*
X8414348Y-13174055D01*
X8414348Y-13174055D02*
X8442920Y-13174055D01*
X8442920Y-13174055D02*
X8461968Y-13183579D01*
X8538158Y-13383579D02*
X8547682Y-13374055D01*
X8547682Y-13374055D02*
X8566729Y-13345484D01*
X8566729Y-13345484D02*
X8576253Y-13326436D01*
X8576253Y-13326436D02*
X8585777Y-13297865D01*
X8585777Y-13297865D02*
X8595301Y-13250246D01*
X8595301Y-13250246D02*
X8595301Y-13212151D01*
X8595301Y-13212151D02*
X8585777Y-13164532D01*
X8585777Y-13164532D02*
X8576253Y-13135960D01*
X8576253Y-13135960D02*
X8566729Y-13116913D01*
X8566729Y-13116913D02*
X8547682Y-13088341D01*
X8547682Y-13088341D02*
X8538158Y-13078817D01*
D14*
X3603095Y-13399905D02*
X3763095Y-13559905D01*
X3763095Y-13399905D02*
X3603095Y-13559905D01*
X3739664Y-13536474D02*
X3739664Y-13423336D01*
X3626526Y-13423336D01*
X3626526Y-13536474D01*
X3739664Y-13536474D01*
D11*
X4128634Y-13571389D02*
X4014348Y-13571389D01*
X4071491Y-13571389D02*
X4071491Y-13371389D01*
X4071491Y-13371389D02*
X4052443Y-13399960D01*
X4052443Y-13399960D02*
X4033396Y-13419008D01*
X4033396Y-13419008D02*
X4014348Y-13428532D01*
X4214348Y-13552341D02*
X4223872Y-13561865D01*
X4223872Y-13561865D02*
X4214348Y-13571389D01*
X4214348Y-13571389D02*
X4204824Y-13561865D01*
X4204824Y-13561865D02*
X4214348Y-13552341D01*
X4214348Y-13552341D02*
X4214348Y-13571389D01*
X4395300Y-13371389D02*
X4357205Y-13371389D01*
X4357205Y-13371389D02*
X4338158Y-13380913D01*
X4338158Y-13380913D02*
X4328634Y-13390436D01*
X4328634Y-13390436D02*
X4309586Y-13419008D01*
X4309586Y-13419008D02*
X4300062Y-13457103D01*
X4300062Y-13457103D02*
X4300062Y-13533293D01*
X4300062Y-13533293D02*
X4309586Y-13552341D01*
X4309586Y-13552341D02*
X4319110Y-13561865D01*
X4319110Y-13561865D02*
X4338158Y-13571389D01*
X4338158Y-13571389D02*
X4376253Y-13571389D01*
X4376253Y-13571389D02*
X4395300Y-13561865D01*
X4395300Y-13561865D02*
X4404824Y-13552341D01*
X4404824Y-13552341D02*
X4414348Y-13533293D01*
X4414348Y-13533293D02*
X4414348Y-13485674D01*
X4414348Y-13485674D02*
X4404824Y-13466627D01*
X4404824Y-13466627D02*
X4395300Y-13457103D01*
X4395300Y-13457103D02*
X4376253Y-13447579D01*
X4376253Y-13447579D02*
X4338158Y-13447579D01*
X4338158Y-13447579D02*
X4319110Y-13457103D01*
X4319110Y-13457103D02*
X4309586Y-13466627D01*
X4309586Y-13466627D02*
X4300062Y-13485674D01*
X4538158Y-13371389D02*
X4557205Y-13371389D01*
X4557205Y-13371389D02*
X4576253Y-13380913D01*
X4576253Y-13380913D02*
X4585777Y-13390436D01*
X4585777Y-13390436D02*
X4595300Y-13409484D01*
X4595300Y-13409484D02*
X4604824Y-13447579D01*
X4604824Y-13447579D02*
X4604824Y-13495198D01*
X4604824Y-13495198D02*
X4595300Y-13533293D01*
X4595300Y-13533293D02*
X4585777Y-13552341D01*
X4585777Y-13552341D02*
X4576253Y-13561865D01*
X4576253Y-13561865D02*
X4557205Y-13571389D01*
X4557205Y-13571389D02*
X4538158Y-13571389D01*
X4538158Y-13571389D02*
X4519110Y-13561865D01*
X4519110Y-13561865D02*
X4509586Y-13552341D01*
X4509586Y-13552341D02*
X4500062Y-13533293D01*
X4500062Y-13533293D02*
X4490539Y-13495198D01*
X4490539Y-13495198D02*
X4490539Y-13447579D01*
X4490539Y-13447579D02*
X4500062Y-13409484D01*
X4500062Y-13409484D02*
X4509586Y-13390436D01*
X4509586Y-13390436D02*
X4519110Y-13380913D01*
X4519110Y-13380913D02*
X4538158Y-13371389D01*
X4728634Y-13371389D02*
X4747681Y-13371389D01*
X4747681Y-13371389D02*
X4766729Y-13380913D01*
X4766729Y-13380913D02*
X4776253Y-13390436D01*
X4776253Y-13390436D02*
X4785777Y-13409484D01*
X4785777Y-13409484D02*
X4795300Y-13447579D01*
X4795300Y-13447579D02*
X4795300Y-13495198D01*
X4795300Y-13495198D02*
X4785777Y-13533293D01*
X4785777Y-13533293D02*
X4776253Y-13552341D01*
X4776253Y-13552341D02*
X4766729Y-13561865D01*
X4766729Y-13561865D02*
X4747681Y-13571389D01*
X4747681Y-13571389D02*
X4728634Y-13571389D01*
X4728634Y-13571389D02*
X4709586Y-13561865D01*
X4709586Y-13561865D02*
X4700062Y-13552341D01*
X4700062Y-13552341D02*
X4690539Y-13533293D01*
X4690539Y-13533293D02*
X4681015Y-13495198D01*
X4681015Y-13495198D02*
X4681015Y-13447579D01*
X4681015Y-13447579D02*
X4690539Y-13409484D01*
X4690539Y-13409484D02*
X4700062Y-13390436D01*
X4700062Y-13390436D02*
X4709586Y-13380913D01*
X4709586Y-13380913D02*
X4728634Y-13371389D01*
X4881015Y-13571389D02*
X4881015Y-13438055D01*
X4881015Y-13457103D02*
X4890539Y-13447579D01*
X4890539Y-13447579D02*
X4909586Y-13438055D01*
X4909586Y-13438055D02*
X4938158Y-13438055D01*
X4938158Y-13438055D02*
X4957205Y-13447579D01*
X4957205Y-13447579D02*
X4966729Y-13466627D01*
X4966729Y-13466627D02*
X4966729Y-13571389D01*
X4966729Y-13466627D02*
X4976253Y-13447579D01*
X4976253Y-13447579D02*
X4995300Y-13438055D01*
X4995300Y-13438055D02*
X5023872Y-13438055D01*
X5023872Y-13438055D02*
X5042920Y-13447579D01*
X5042920Y-13447579D02*
X5052443Y-13466627D01*
X5052443Y-13466627D02*
X5052443Y-13571389D01*
X5147681Y-13571389D02*
X5147681Y-13438055D01*
X5147681Y-13457103D02*
X5157205Y-13447579D01*
X5157205Y-13447579D02*
X5176253Y-13438055D01*
X5176253Y-13438055D02*
X5204824Y-13438055D01*
X5204824Y-13438055D02*
X5223872Y-13447579D01*
X5223872Y-13447579D02*
X5233396Y-13466627D01*
X5233396Y-13466627D02*
X5233396Y-13571389D01*
X5233396Y-13466627D02*
X5242920Y-13447579D01*
X5242920Y-13447579D02*
X5261967Y-13438055D01*
X5261967Y-13438055D02*
X5290539Y-13438055D01*
X5290539Y-13438055D02*
X5309586Y-13447579D01*
X5309586Y-13447579D02*
X5319110Y-13466627D01*
X5319110Y-13466627D02*
X5319110Y-13571389D01*
X5709586Y-13361865D02*
X5538158Y-13619008D01*
X5966729Y-13371389D02*
X5985777Y-13371389D01*
X5985777Y-13371389D02*
X6004824Y-13380913D01*
X6004824Y-13380913D02*
X6014348Y-13390436D01*
X6014348Y-13390436D02*
X6023872Y-13409484D01*
X6023872Y-13409484D02*
X6033396Y-13447579D01*
X6033396Y-13447579D02*
X6033396Y-13495198D01*
X6033396Y-13495198D02*
X6023872Y-13533293D01*
X6023872Y-13533293D02*
X6014348Y-13552341D01*
X6014348Y-13552341D02*
X6004824Y-13561865D01*
X6004824Y-13561865D02*
X5985777Y-13571389D01*
X5985777Y-13571389D02*
X5966729Y-13571389D01*
X5966729Y-13571389D02*
X5947681Y-13561865D01*
X5947681Y-13561865D02*
X5938158Y-13552341D01*
X5938158Y-13552341D02*
X5928634Y-13533293D01*
X5928634Y-13533293D02*
X5919110Y-13495198D01*
X5919110Y-13495198D02*
X5919110Y-13447579D01*
X5919110Y-13447579D02*
X5928634Y-13409484D01*
X5928634Y-13409484D02*
X5938158Y-13390436D01*
X5938158Y-13390436D02*
X5947681Y-13380913D01*
X5947681Y-13380913D02*
X5966729Y-13371389D01*
X6119110Y-13552341D02*
X6128634Y-13561865D01*
X6128634Y-13561865D02*
X6119110Y-13571389D01*
X6119110Y-13571389D02*
X6109586Y-13561865D01*
X6109586Y-13561865D02*
X6119110Y-13552341D01*
X6119110Y-13552341D02*
X6119110Y-13571389D01*
X6252443Y-13371389D02*
X6271491Y-13371389D01*
X6271491Y-13371389D02*
X6290539Y-13380913D01*
X6290539Y-13380913D02*
X6300062Y-13390436D01*
X6300062Y-13390436D02*
X6309586Y-13409484D01*
X6309586Y-13409484D02*
X6319110Y-13447579D01*
X6319110Y-13447579D02*
X6319110Y-13495198D01*
X6319110Y-13495198D02*
X6309586Y-13533293D01*
X6309586Y-13533293D02*
X6300062Y-13552341D01*
X6300062Y-13552341D02*
X6290539Y-13561865D01*
X6290539Y-13561865D02*
X6271491Y-13571389D01*
X6271491Y-13571389D02*
X6252443Y-13571389D01*
X6252443Y-13571389D02*
X6233396Y-13561865D01*
X6233396Y-13561865D02*
X6223872Y-13552341D01*
X6223872Y-13552341D02*
X6214348Y-13533293D01*
X6214348Y-13533293D02*
X6204824Y-13495198D01*
X6204824Y-13495198D02*
X6204824Y-13447579D01*
X6204824Y-13447579D02*
X6214348Y-13409484D01*
X6214348Y-13409484D02*
X6223872Y-13390436D01*
X6223872Y-13390436D02*
X6233396Y-13380913D01*
X6233396Y-13380913D02*
X6252443Y-13371389D01*
X6490539Y-13371389D02*
X6452443Y-13371389D01*
X6452443Y-13371389D02*
X6433396Y-13380913D01*
X6433396Y-13380913D02*
X6423872Y-13390436D01*
X6423872Y-13390436D02*
X6404824Y-13419008D01*
X6404824Y-13419008D02*
X6395301Y-13457103D01*
X6395301Y-13457103D02*
X6395301Y-13533293D01*
X6395301Y-13533293D02*
X6404824Y-13552341D01*
X6404824Y-13552341D02*
X6414348Y-13561865D01*
X6414348Y-13561865D02*
X6433396Y-13571389D01*
X6433396Y-13571389D02*
X6471491Y-13571389D01*
X6471491Y-13571389D02*
X6490539Y-13561865D01*
X6490539Y-13561865D02*
X6500062Y-13552341D01*
X6500062Y-13552341D02*
X6509586Y-13533293D01*
X6509586Y-13533293D02*
X6509586Y-13485674D01*
X6509586Y-13485674D02*
X6500062Y-13466627D01*
X6500062Y-13466627D02*
X6490539Y-13457103D01*
X6490539Y-13457103D02*
X6471491Y-13447579D01*
X6471491Y-13447579D02*
X6433396Y-13447579D01*
X6433396Y-13447579D02*
X6414348Y-13457103D01*
X6414348Y-13457103D02*
X6404824Y-13466627D01*
X6404824Y-13466627D02*
X6395301Y-13485674D01*
X6576253Y-13371389D02*
X6700062Y-13371389D01*
X6700062Y-13371389D02*
X6633396Y-13447579D01*
X6633396Y-13447579D02*
X6661967Y-13447579D01*
X6661967Y-13447579D02*
X6681015Y-13457103D01*
X6681015Y-13457103D02*
X6690539Y-13466627D01*
X6690539Y-13466627D02*
X6700062Y-13485674D01*
X6700062Y-13485674D02*
X6700062Y-13533293D01*
X6700062Y-13533293D02*
X6690539Y-13552341D01*
X6690539Y-13552341D02*
X6681015Y-13561865D01*
X6681015Y-13561865D02*
X6661967Y-13571389D01*
X6661967Y-13571389D02*
X6604824Y-13571389D01*
X6604824Y-13571389D02*
X6585777Y-13561865D01*
X6585777Y-13561865D02*
X6576253Y-13552341D01*
X6823872Y-13371389D02*
X6842920Y-13371389D01*
X6842920Y-13371389D02*
X6861967Y-13380913D01*
X6861967Y-13380913D02*
X6871491Y-13390436D01*
X6871491Y-13390436D02*
X6881015Y-13409484D01*
X6881015Y-13409484D02*
X6890539Y-13447579D01*
X6890539Y-13447579D02*
X6890539Y-13495198D01*
X6890539Y-13495198D02*
X6881015Y-13533293D01*
X6881015Y-13533293D02*
X6871491Y-13552341D01*
X6871491Y-13552341D02*
X6861967Y-13561865D01*
X6861967Y-13561865D02*
X6842920Y-13571389D01*
X6842920Y-13571389D02*
X6823872Y-13571389D01*
X6823872Y-13571389D02*
X6804824Y-13561865D01*
X6804824Y-13561865D02*
X6795301Y-13552341D01*
X6795301Y-13552341D02*
X6785777Y-13533293D01*
X6785777Y-13533293D02*
X6776253Y-13495198D01*
X6776253Y-13495198D02*
X6776253Y-13447579D01*
X6776253Y-13447579D02*
X6785777Y-13409484D01*
X6785777Y-13409484D02*
X6795301Y-13390436D01*
X6795301Y-13390436D02*
X6804824Y-13380913D01*
X6804824Y-13380913D02*
X6823872Y-13371389D01*
X6966729Y-13371389D02*
X6966729Y-13409484D01*
X7042920Y-13371389D02*
X7042920Y-13409484D01*
X7338158Y-13647579D02*
X7328634Y-13638055D01*
X7328634Y-13638055D02*
X7309586Y-13609484D01*
X7309586Y-13609484D02*
X7300063Y-13590436D01*
X7300063Y-13590436D02*
X7290539Y-13561865D01*
X7290539Y-13561865D02*
X7281015Y-13514246D01*
X7281015Y-13514246D02*
X7281015Y-13476151D01*
X7281015Y-13476151D02*
X7290539Y-13428532D01*
X7290539Y-13428532D02*
X7300063Y-13399960D01*
X7300063Y-13399960D02*
X7309586Y-13380913D01*
X7309586Y-13380913D02*
X7328634Y-13352341D01*
X7328634Y-13352341D02*
X7338158Y-13342817D01*
X7500063Y-13371389D02*
X7461967Y-13371389D01*
X7461967Y-13371389D02*
X7442920Y-13380913D01*
X7442920Y-13380913D02*
X7433396Y-13390436D01*
X7433396Y-13390436D02*
X7414348Y-13419008D01*
X7414348Y-13419008D02*
X7404824Y-13457103D01*
X7404824Y-13457103D02*
X7404824Y-13533293D01*
X7404824Y-13533293D02*
X7414348Y-13552341D01*
X7414348Y-13552341D02*
X7423872Y-13561865D01*
X7423872Y-13561865D02*
X7442920Y-13571389D01*
X7442920Y-13571389D02*
X7481015Y-13571389D01*
X7481015Y-13571389D02*
X7500063Y-13561865D01*
X7500063Y-13561865D02*
X7509586Y-13552341D01*
X7509586Y-13552341D02*
X7519110Y-13533293D01*
X7519110Y-13533293D02*
X7519110Y-13485674D01*
X7519110Y-13485674D02*
X7509586Y-13466627D01*
X7509586Y-13466627D02*
X7500063Y-13457103D01*
X7500063Y-13457103D02*
X7481015Y-13447579D01*
X7481015Y-13447579D02*
X7442920Y-13447579D01*
X7442920Y-13447579D02*
X7423872Y-13457103D01*
X7423872Y-13457103D02*
X7414348Y-13466627D01*
X7414348Y-13466627D02*
X7404824Y-13485674D01*
X7757205Y-13571389D02*
X7757205Y-13371389D01*
X7842920Y-13571389D02*
X7842920Y-13466627D01*
X7842920Y-13466627D02*
X7833396Y-13447579D01*
X7833396Y-13447579D02*
X7814348Y-13438055D01*
X7814348Y-13438055D02*
X7785777Y-13438055D01*
X7785777Y-13438055D02*
X7766729Y-13447579D01*
X7766729Y-13447579D02*
X7757205Y-13457103D01*
X7966729Y-13571389D02*
X7947682Y-13561865D01*
X7947682Y-13561865D02*
X7938158Y-13552341D01*
X7938158Y-13552341D02*
X7928634Y-13533293D01*
X7928634Y-13533293D02*
X7928634Y-13476151D01*
X7928634Y-13476151D02*
X7938158Y-13457103D01*
X7938158Y-13457103D02*
X7947682Y-13447579D01*
X7947682Y-13447579D02*
X7966729Y-13438055D01*
X7966729Y-13438055D02*
X7995301Y-13438055D01*
X7995301Y-13438055D02*
X8014348Y-13447579D01*
X8014348Y-13447579D02*
X8023872Y-13457103D01*
X8023872Y-13457103D02*
X8033396Y-13476151D01*
X8033396Y-13476151D02*
X8033396Y-13533293D01*
X8033396Y-13533293D02*
X8023872Y-13552341D01*
X8023872Y-13552341D02*
X8014348Y-13561865D01*
X8014348Y-13561865D02*
X7995301Y-13571389D01*
X7995301Y-13571389D02*
X7966729Y-13571389D01*
X8147682Y-13571389D02*
X8128634Y-13561865D01*
X8128634Y-13561865D02*
X8119110Y-13542817D01*
X8119110Y-13542817D02*
X8119110Y-13371389D01*
X8300063Y-13561865D02*
X8281015Y-13571389D01*
X8281015Y-13571389D02*
X8242920Y-13571389D01*
X8242920Y-13571389D02*
X8223872Y-13561865D01*
X8223872Y-13561865D02*
X8214348Y-13542817D01*
X8214348Y-13542817D02*
X8214348Y-13466627D01*
X8214348Y-13466627D02*
X8223872Y-13447579D01*
X8223872Y-13447579D02*
X8242920Y-13438055D01*
X8242920Y-13438055D02*
X8281015Y-13438055D01*
X8281015Y-13438055D02*
X8300063Y-13447579D01*
X8300063Y-13447579D02*
X8309586Y-13466627D01*
X8309586Y-13466627D02*
X8309586Y-13485674D01*
X8309586Y-13485674D02*
X8214348Y-13504722D01*
X8385777Y-13561865D02*
X8404825Y-13571389D01*
X8404825Y-13571389D02*
X8442920Y-13571389D01*
X8442920Y-13571389D02*
X8461968Y-13561865D01*
X8461968Y-13561865D02*
X8471491Y-13542817D01*
X8471491Y-13542817D02*
X8471491Y-13533293D01*
X8471491Y-13533293D02*
X8461968Y-13514246D01*
X8461968Y-13514246D02*
X8442920Y-13504722D01*
X8442920Y-13504722D02*
X8414348Y-13504722D01*
X8414348Y-13504722D02*
X8395301Y-13495198D01*
X8395301Y-13495198D02*
X8385777Y-13476151D01*
X8385777Y-13476151D02*
X8385777Y-13466627D01*
X8385777Y-13466627D02*
X8395301Y-13447579D01*
X8395301Y-13447579D02*
X8414348Y-13438055D01*
X8414348Y-13438055D02*
X8442920Y-13438055D01*
X8442920Y-13438055D02*
X8461968Y-13447579D01*
X8538158Y-13647579D02*
X8547682Y-13638055D01*
X8547682Y-13638055D02*
X8566729Y-13609484D01*
X8566729Y-13609484D02*
X8576253Y-13590436D01*
X8576253Y-13590436D02*
X8585777Y-13561865D01*
X8585777Y-13561865D02*
X8595301Y-13514246D01*
X8595301Y-13514246D02*
X8595301Y-13476151D01*
X8595301Y-13476151D02*
X8585777Y-13428532D01*
X8585777Y-13428532D02*
X8576253Y-13399960D01*
X8576253Y-13399960D02*
X8566729Y-13380913D01*
X8566729Y-13380913D02*
X8547682Y-13352341D01*
X8547682Y-13352341D02*
X8538158Y-13342817D01*
X3563095Y-13659905D02*
X3763095Y-13859905D01*
X3763095Y-13659905D02*
X3563095Y-13859905D01*
X3663095Y-13859905D02*
X3763095Y-13759905D01*
X3663095Y-13659905D01*
X3563095Y-13759905D01*
X3663095Y-13859905D01*
X4014348Y-13670436D02*
X4023872Y-13660913D01*
X4023872Y-13660913D02*
X4042919Y-13651389D01*
X4042919Y-13651389D02*
X4090538Y-13651389D01*
X4090538Y-13651389D02*
X4109586Y-13660913D01*
X4109586Y-13660913D02*
X4119110Y-13670436D01*
X4119110Y-13670436D02*
X4128634Y-13689484D01*
X4128634Y-13689484D02*
X4128634Y-13708532D01*
X4128634Y-13708532D02*
X4119110Y-13737103D01*
X4119110Y-13737103D02*
X4004824Y-13851389D01*
X4004824Y-13851389D02*
X4128634Y-13851389D01*
X4214348Y-13832341D02*
X4223872Y-13841865D01*
X4223872Y-13841865D02*
X4214348Y-13851389D01*
X4214348Y-13851389D02*
X4204824Y-13841865D01*
X4204824Y-13841865D02*
X4214348Y-13832341D01*
X4214348Y-13832341D02*
X4214348Y-13851389D01*
X4347681Y-13651389D02*
X4366729Y-13651389D01*
X4366729Y-13651389D02*
X4385777Y-13660913D01*
X4385777Y-13660913D02*
X4395300Y-13670436D01*
X4395300Y-13670436D02*
X4404824Y-13689484D01*
X4404824Y-13689484D02*
X4414348Y-13727579D01*
X4414348Y-13727579D02*
X4414348Y-13775198D01*
X4414348Y-13775198D02*
X4404824Y-13813293D01*
X4404824Y-13813293D02*
X4395300Y-13832341D01*
X4395300Y-13832341D02*
X4385777Y-13841865D01*
X4385777Y-13841865D02*
X4366729Y-13851389D01*
X4366729Y-13851389D02*
X4347681Y-13851389D01*
X4347681Y-13851389D02*
X4328634Y-13841865D01*
X4328634Y-13841865D02*
X4319110Y-13832341D01*
X4319110Y-13832341D02*
X4309586Y-13813293D01*
X4309586Y-13813293D02*
X4300062Y-13775198D01*
X4300062Y-13775198D02*
X4300062Y-13727579D01*
X4300062Y-13727579D02*
X4309586Y-13689484D01*
X4309586Y-13689484D02*
X4319110Y-13670436D01*
X4319110Y-13670436D02*
X4328634Y-13660913D01*
X4328634Y-13660913D02*
X4347681Y-13651389D01*
X4538158Y-13651389D02*
X4557205Y-13651389D01*
X4557205Y-13651389D02*
X4576253Y-13660913D01*
X4576253Y-13660913D02*
X4585777Y-13670436D01*
X4585777Y-13670436D02*
X4595300Y-13689484D01*
X4595300Y-13689484D02*
X4604824Y-13727579D01*
X4604824Y-13727579D02*
X4604824Y-13775198D01*
X4604824Y-13775198D02*
X4595300Y-13813293D01*
X4595300Y-13813293D02*
X4585777Y-13832341D01*
X4585777Y-13832341D02*
X4576253Y-13841865D01*
X4576253Y-13841865D02*
X4557205Y-13851389D01*
X4557205Y-13851389D02*
X4538158Y-13851389D01*
X4538158Y-13851389D02*
X4519110Y-13841865D01*
X4519110Y-13841865D02*
X4509586Y-13832341D01*
X4509586Y-13832341D02*
X4500062Y-13813293D01*
X4500062Y-13813293D02*
X4490539Y-13775198D01*
X4490539Y-13775198D02*
X4490539Y-13727579D01*
X4490539Y-13727579D02*
X4500062Y-13689484D01*
X4500062Y-13689484D02*
X4509586Y-13670436D01*
X4509586Y-13670436D02*
X4519110Y-13660913D01*
X4519110Y-13660913D02*
X4538158Y-13651389D01*
X4728634Y-13651389D02*
X4747681Y-13651389D01*
X4747681Y-13651389D02*
X4766729Y-13660913D01*
X4766729Y-13660913D02*
X4776253Y-13670436D01*
X4776253Y-13670436D02*
X4785777Y-13689484D01*
X4785777Y-13689484D02*
X4795300Y-13727579D01*
X4795300Y-13727579D02*
X4795300Y-13775198D01*
X4795300Y-13775198D02*
X4785777Y-13813293D01*
X4785777Y-13813293D02*
X4776253Y-13832341D01*
X4776253Y-13832341D02*
X4766729Y-13841865D01*
X4766729Y-13841865D02*
X4747681Y-13851389D01*
X4747681Y-13851389D02*
X4728634Y-13851389D01*
X4728634Y-13851389D02*
X4709586Y-13841865D01*
X4709586Y-13841865D02*
X4700062Y-13832341D01*
X4700062Y-13832341D02*
X4690539Y-13813293D01*
X4690539Y-13813293D02*
X4681015Y-13775198D01*
X4681015Y-13775198D02*
X4681015Y-13727579D01*
X4681015Y-13727579D02*
X4690539Y-13689484D01*
X4690539Y-13689484D02*
X4700062Y-13670436D01*
X4700062Y-13670436D02*
X4709586Y-13660913D01*
X4709586Y-13660913D02*
X4728634Y-13651389D01*
X4881015Y-13851389D02*
X4881015Y-13718055D01*
X4881015Y-13737103D02*
X4890539Y-13727579D01*
X4890539Y-13727579D02*
X4909586Y-13718055D01*
X4909586Y-13718055D02*
X4938158Y-13718055D01*
X4938158Y-13718055D02*
X4957205Y-13727579D01*
X4957205Y-13727579D02*
X4966729Y-13746627D01*
X4966729Y-13746627D02*
X4966729Y-13851389D01*
X4966729Y-13746627D02*
X4976253Y-13727579D01*
X4976253Y-13727579D02*
X4995300Y-13718055D01*
X4995300Y-13718055D02*
X5023872Y-13718055D01*
X5023872Y-13718055D02*
X5042920Y-13727579D01*
X5042920Y-13727579D02*
X5052443Y-13746627D01*
X5052443Y-13746627D02*
X5052443Y-13851389D01*
X5147681Y-13851389D02*
X5147681Y-13718055D01*
X5147681Y-13737103D02*
X5157205Y-13727579D01*
X5157205Y-13727579D02*
X5176253Y-13718055D01*
X5176253Y-13718055D02*
X5204824Y-13718055D01*
X5204824Y-13718055D02*
X5223872Y-13727579D01*
X5223872Y-13727579D02*
X5233396Y-13746627D01*
X5233396Y-13746627D02*
X5233396Y-13851389D01*
X5233396Y-13746627D02*
X5242920Y-13727579D01*
X5242920Y-13727579D02*
X5261967Y-13718055D01*
X5261967Y-13718055D02*
X5290539Y-13718055D01*
X5290539Y-13718055D02*
X5309586Y-13727579D01*
X5309586Y-13727579D02*
X5319110Y-13746627D01*
X5319110Y-13746627D02*
X5319110Y-13851389D01*
X5709586Y-13641865D02*
X5538158Y-13899008D01*
X5966729Y-13651389D02*
X5985777Y-13651389D01*
X5985777Y-13651389D02*
X6004824Y-13660913D01*
X6004824Y-13660913D02*
X6014348Y-13670436D01*
X6014348Y-13670436D02*
X6023872Y-13689484D01*
X6023872Y-13689484D02*
X6033396Y-13727579D01*
X6033396Y-13727579D02*
X6033396Y-13775198D01*
X6033396Y-13775198D02*
X6023872Y-13813293D01*
X6023872Y-13813293D02*
X6014348Y-13832341D01*
X6014348Y-13832341D02*
X6004824Y-13841865D01*
X6004824Y-13841865D02*
X5985777Y-13851389D01*
X5985777Y-13851389D02*
X5966729Y-13851389D01*
X5966729Y-13851389D02*
X5947681Y-13841865D01*
X5947681Y-13841865D02*
X5938158Y-13832341D01*
X5938158Y-13832341D02*
X5928634Y-13813293D01*
X5928634Y-13813293D02*
X5919110Y-13775198D01*
X5919110Y-13775198D02*
X5919110Y-13727579D01*
X5919110Y-13727579D02*
X5928634Y-13689484D01*
X5928634Y-13689484D02*
X5938158Y-13670436D01*
X5938158Y-13670436D02*
X5947681Y-13660913D01*
X5947681Y-13660913D02*
X5966729Y-13651389D01*
X6119110Y-13832341D02*
X6128634Y-13841865D01*
X6128634Y-13841865D02*
X6119110Y-13851389D01*
X6119110Y-13851389D02*
X6109586Y-13841865D01*
X6109586Y-13841865D02*
X6119110Y-13832341D01*
X6119110Y-13832341D02*
X6119110Y-13851389D01*
X6252443Y-13651389D02*
X6271491Y-13651389D01*
X6271491Y-13651389D02*
X6290539Y-13660913D01*
X6290539Y-13660913D02*
X6300062Y-13670436D01*
X6300062Y-13670436D02*
X6309586Y-13689484D01*
X6309586Y-13689484D02*
X6319110Y-13727579D01*
X6319110Y-13727579D02*
X6319110Y-13775198D01*
X6319110Y-13775198D02*
X6309586Y-13813293D01*
X6309586Y-13813293D02*
X6300062Y-13832341D01*
X6300062Y-13832341D02*
X6290539Y-13841865D01*
X6290539Y-13841865D02*
X6271491Y-13851389D01*
X6271491Y-13851389D02*
X6252443Y-13851389D01*
X6252443Y-13851389D02*
X6233396Y-13841865D01*
X6233396Y-13841865D02*
X6223872Y-13832341D01*
X6223872Y-13832341D02*
X6214348Y-13813293D01*
X6214348Y-13813293D02*
X6204824Y-13775198D01*
X6204824Y-13775198D02*
X6204824Y-13727579D01*
X6204824Y-13727579D02*
X6214348Y-13689484D01*
X6214348Y-13689484D02*
X6223872Y-13670436D01*
X6223872Y-13670436D02*
X6233396Y-13660913D01*
X6233396Y-13660913D02*
X6252443Y-13651389D01*
X6385777Y-13651389D02*
X6519110Y-13651389D01*
X6519110Y-13651389D02*
X6433396Y-13851389D01*
X6623872Y-13737103D02*
X6604824Y-13727579D01*
X6604824Y-13727579D02*
X6595301Y-13718055D01*
X6595301Y-13718055D02*
X6585777Y-13699008D01*
X6585777Y-13699008D02*
X6585777Y-13689484D01*
X6585777Y-13689484D02*
X6595301Y-13670436D01*
X6595301Y-13670436D02*
X6604824Y-13660913D01*
X6604824Y-13660913D02*
X6623872Y-13651389D01*
X6623872Y-13651389D02*
X6661967Y-13651389D01*
X6661967Y-13651389D02*
X6681015Y-13660913D01*
X6681015Y-13660913D02*
X6690539Y-13670436D01*
X6690539Y-13670436D02*
X6700062Y-13689484D01*
X6700062Y-13689484D02*
X6700062Y-13699008D01*
X6700062Y-13699008D02*
X6690539Y-13718055D01*
X6690539Y-13718055D02*
X6681015Y-13727579D01*
X6681015Y-13727579D02*
X6661967Y-13737103D01*
X6661967Y-13737103D02*
X6623872Y-13737103D01*
X6623872Y-13737103D02*
X6604824Y-13746627D01*
X6604824Y-13746627D02*
X6595301Y-13756151D01*
X6595301Y-13756151D02*
X6585777Y-13775198D01*
X6585777Y-13775198D02*
X6585777Y-13813293D01*
X6585777Y-13813293D02*
X6595301Y-13832341D01*
X6595301Y-13832341D02*
X6604824Y-13841865D01*
X6604824Y-13841865D02*
X6623872Y-13851389D01*
X6623872Y-13851389D02*
X6661967Y-13851389D01*
X6661967Y-13851389D02*
X6681015Y-13841865D01*
X6681015Y-13841865D02*
X6690539Y-13832341D01*
X6690539Y-13832341D02*
X6700062Y-13813293D01*
X6700062Y-13813293D02*
X6700062Y-13775198D01*
X6700062Y-13775198D02*
X6690539Y-13756151D01*
X6690539Y-13756151D02*
X6681015Y-13746627D01*
X6681015Y-13746627D02*
X6661967Y-13737103D01*
X6766729Y-13651389D02*
X6900062Y-13651389D01*
X6900062Y-13651389D02*
X6814348Y-13851389D01*
X6966729Y-13651389D02*
X6966729Y-13689484D01*
X7042920Y-13651389D02*
X7042920Y-13689484D01*
X7338158Y-13927579D02*
X7328634Y-13918055D01*
X7328634Y-13918055D02*
X7309586Y-13889484D01*
X7309586Y-13889484D02*
X7300063Y-13870436D01*
X7300063Y-13870436D02*
X7290539Y-13841865D01*
X7290539Y-13841865D02*
X7281015Y-13794246D01*
X7281015Y-13794246D02*
X7281015Y-13756151D01*
X7281015Y-13756151D02*
X7290539Y-13708532D01*
X7290539Y-13708532D02*
X7300063Y-13679960D01*
X7300063Y-13679960D02*
X7309586Y-13660913D01*
X7309586Y-13660913D02*
X7328634Y-13632341D01*
X7328634Y-13632341D02*
X7338158Y-13622817D01*
X7519110Y-13851389D02*
X7404824Y-13851389D01*
X7461967Y-13851389D02*
X7461967Y-13651389D01*
X7461967Y-13651389D02*
X7442920Y-13679960D01*
X7442920Y-13679960D02*
X7423872Y-13699008D01*
X7423872Y-13699008D02*
X7404824Y-13708532D01*
X7585777Y-13651389D02*
X7709586Y-13651389D01*
X7709586Y-13651389D02*
X7642920Y-13727579D01*
X7642920Y-13727579D02*
X7671491Y-13727579D01*
X7671491Y-13727579D02*
X7690539Y-13737103D01*
X7690539Y-13737103D02*
X7700063Y-13746627D01*
X7700063Y-13746627D02*
X7709586Y-13765674D01*
X7709586Y-13765674D02*
X7709586Y-13813293D01*
X7709586Y-13813293D02*
X7700063Y-13832341D01*
X7700063Y-13832341D02*
X7690539Y-13841865D01*
X7690539Y-13841865D02*
X7671491Y-13851389D01*
X7671491Y-13851389D02*
X7614348Y-13851389D01*
X7614348Y-13851389D02*
X7595301Y-13841865D01*
X7595301Y-13841865D02*
X7585777Y-13832341D01*
X7947682Y-13851389D02*
X7947682Y-13651389D01*
X8033396Y-13851389D02*
X8033396Y-13746627D01*
X8033396Y-13746627D02*
X8023872Y-13727579D01*
X8023872Y-13727579D02*
X8004825Y-13718055D01*
X8004825Y-13718055D02*
X7976253Y-13718055D01*
X7976253Y-13718055D02*
X7957205Y-13727579D01*
X7957205Y-13727579D02*
X7947682Y-13737103D01*
X8157205Y-13851389D02*
X8138158Y-13841865D01*
X8138158Y-13841865D02*
X8128634Y-13832341D01*
X8128634Y-13832341D02*
X8119110Y-13813293D01*
X8119110Y-13813293D02*
X8119110Y-13756151D01*
X8119110Y-13756151D02*
X8128634Y-13737103D01*
X8128634Y-13737103D02*
X8138158Y-13727579D01*
X8138158Y-13727579D02*
X8157205Y-13718055D01*
X8157205Y-13718055D02*
X8185777Y-13718055D01*
X8185777Y-13718055D02*
X8204825Y-13727579D01*
X8204825Y-13727579D02*
X8214348Y-13737103D01*
X8214348Y-13737103D02*
X8223872Y-13756151D01*
X8223872Y-13756151D02*
X8223872Y-13813293D01*
X8223872Y-13813293D02*
X8214348Y-13832341D01*
X8214348Y-13832341D02*
X8204825Y-13841865D01*
X8204825Y-13841865D02*
X8185777Y-13851389D01*
X8185777Y-13851389D02*
X8157205Y-13851389D01*
X8338158Y-13851389D02*
X8319110Y-13841865D01*
X8319110Y-13841865D02*
X8309586Y-13822817D01*
X8309586Y-13822817D02*
X8309586Y-13651389D01*
X8490539Y-13841865D02*
X8471491Y-13851389D01*
X8471491Y-13851389D02*
X8433396Y-13851389D01*
X8433396Y-13851389D02*
X8414348Y-13841865D01*
X8414348Y-13841865D02*
X8404825Y-13822817D01*
X8404825Y-13822817D02*
X8404825Y-13746627D01*
X8404825Y-13746627D02*
X8414348Y-13727579D01*
X8414348Y-13727579D02*
X8433396Y-13718055D01*
X8433396Y-13718055D02*
X8471491Y-13718055D01*
X8471491Y-13718055D02*
X8490539Y-13727579D01*
X8490539Y-13727579D02*
X8500063Y-13746627D01*
X8500063Y-13746627D02*
X8500063Y-13765674D01*
X8500063Y-13765674D02*
X8404825Y-13784722D01*
X8576253Y-13841865D02*
X8595301Y-13851389D01*
X8595301Y-13851389D02*
X8633396Y-13851389D01*
X8633396Y-13851389D02*
X8652444Y-13841865D01*
X8652444Y-13841865D02*
X8661968Y-13822817D01*
X8661968Y-13822817D02*
X8661968Y-13813293D01*
X8661968Y-13813293D02*
X8652444Y-13794246D01*
X8652444Y-13794246D02*
X8633396Y-13784722D01*
X8633396Y-13784722D02*
X8604825Y-13784722D01*
X8604825Y-13784722D02*
X8585777Y-13775198D01*
X8585777Y-13775198D02*
X8576253Y-13756151D01*
X8576253Y-13756151D02*
X8576253Y-13746627D01*
X8576253Y-13746627D02*
X8585777Y-13727579D01*
X8585777Y-13727579D02*
X8604825Y-13718055D01*
X8604825Y-13718055D02*
X8633396Y-13718055D01*
X8633396Y-13718055D02*
X8652444Y-13727579D01*
X8728634Y-13927579D02*
X8738158Y-13918055D01*
X8738158Y-13918055D02*
X8757206Y-13889484D01*
X8757206Y-13889484D02*
X8766729Y-13870436D01*
X8766729Y-13870436D02*
X8776253Y-13841865D01*
X8776253Y-13841865D02*
X8785777Y-13794246D01*
X8785777Y-13794246D02*
X8785777Y-13756151D01*
X8785777Y-13756151D02*
X8776253Y-13708532D01*
X8776253Y-13708532D02*
X8766729Y-13679960D01*
X8766729Y-13679960D02*
X8757206Y-13660913D01*
X8757206Y-13660913D02*
X8738158Y-13632341D01*
X8738158Y-13632341D02*
X8728634Y-13622817D01*
M02*
