M48
; DRILL file {KiCad 9.0.1} date 2025-07-15T15:54:51+0300
; FORMAT={-:-/ absolute / metric / decimal}
; #@! TF.CreationDate,2025-07-15T15:54:51+03:00
; #@! TF.GenerationSoftware,Kicad,Pcbnew,9.0.1
; #@! TF.FileFunction,Plated,1,2,PTH
FMAT,2
METRIC
; #@! TA.AperFunction,Plated,PTH,ViaDrill
T1C0.400
; #@! TA.AperFunction,Plated,PTH,ComponentDrill
T2C0.500
; #@! TA.AperFunction,Plated,PTH,ComponentDrill
T3C0.700
; #@! TA.AperFunction,Plated,PTH,ComponentDrill
T4C0.760
; #@! TA.AperFunction,Plated,PTH,ComponentDrill
T5C0.800
; #@! TA.AperFunction,Plated,PTH,ComponentDrill
T6C0.900
; #@! TA.AperFunction,Plated,PTH,ComponentDrill
T7C1.100
; #@! TA.AperFunction,Plated,PTH,ComponentDrill
T8C1.600
; #@! TA.AperFunction,Plated,PTH,ComponentDrill
T9C2.000
%
G90
G05
T1
X40.35Y-78.0
X40.35Y-79.65
X40.35Y-81.45
X40.35Y-83.15
X40.35Y-84.8
X40.35Y-86.35
X40.35Y-88.05
X40.35Y-89.7
X40.35Y-92.65
X40.35Y-94.35
X40.35Y-96.0
X40.35Y-97.55
X40.35Y-99.25
X40.35Y-100.9
X41.4Y-39.5
X41.4Y-41.15
X41.4Y-42.95
X41.4Y-44.65
X41.4Y-46.3
X41.4Y-47.85
X41.4Y-49.55
X41.4Y-51.2
X41.45Y-60.6
X41.45Y-62.25
X41.45Y-64.05
X41.45Y-65.75
X41.45Y-67.4
X41.45Y-68.95
X41.45Y-70.65
X41.45Y-72.3
X42.3Y-78.05
X42.3Y-79.7
X42.3Y-81.5
X42.3Y-83.2
X42.3Y-84.85
X42.3Y-86.4
X42.3Y-88.1
X42.3Y-89.75
X42.3Y-92.7
X42.3Y-94.4
X42.3Y-96.05
X42.3Y-97.6
X42.3Y-99.3
X42.3Y-100.95
X43.35Y-39.55
X43.35Y-41.2
X43.35Y-43.0
X43.35Y-44.7
X43.35Y-46.35
X43.35Y-47.9
X43.35Y-49.6
X43.35Y-51.25
X43.4Y-60.65
X43.4Y-62.3
X43.4Y-64.1
X43.4Y-65.8
X43.4Y-67.45
X43.4Y-69.0
X43.4Y-70.7
X43.4Y-72.35
X44.65Y-97.4
X44.65Y-99.1
X44.65Y-100.75
X44.75Y-80.4
X44.75Y-82.05
X44.75Y-83.85
X44.75Y-85.55
X44.85Y-92.4
X44.85Y-94.1
X44.85Y-95.75
X45.9Y-67.7
X45.9Y-69.35
X45.9Y-71.15
X45.9Y-72.85
X46.6Y-97.45
X46.6Y-99.15
X46.6Y-100.8
X46.7Y-80.45
X46.7Y-82.1
X46.7Y-83.9
X46.7Y-85.6
X46.8Y-92.45
X46.8Y-94.15
X46.8Y-95.8
X47.85Y-67.75
X47.85Y-69.4
X47.85Y-71.2
X47.85Y-72.9
X50.95Y-102.7
X51.0Y-100.75
X51.0Y-107.1
X51.05Y-105.15
X51.3Y-70.95
X51.35Y-34.85
X51.35Y-69.0
X51.4Y-32.9
X52.35Y-84.7
X52.4Y-82.75
X52.6Y-102.7
X52.65Y-100.75
X52.65Y-107.1
X52.7Y-105.15
X52.95Y-70.95
X53.0Y-34.85
X53.0Y-69.0
X53.05Y-32.9
X54.0Y-84.7
X54.05Y-82.75
X54.3Y-102.7
X54.35Y-100.75
X54.35Y-107.1
X54.4Y-105.15
X54.7Y-34.85
X54.75Y-32.9
X54.75Y-70.95
X54.8Y-69.0
X55.8Y-84.7
X55.85Y-82.75
X55.85Y-102.7
X55.9Y-100.75
X55.9Y-107.1
X55.95Y-105.15
X56.25Y-34.85
X56.3Y-32.9
X56.45Y-70.95
X56.5Y-69.0
X57.5Y-84.7
X57.5Y-102.7
X57.55Y-82.75
X57.55Y-100.75
X57.55Y-107.1
X57.6Y-105.15
X57.9Y-34.85
X57.95Y-32.9
X58.1Y-70.95
X58.15Y-69.0
X59.2Y-102.7
X59.25Y-100.75
X59.25Y-107.1
X59.3Y-105.15
X59.6Y-34.85
X59.65Y-32.9
X59.65Y-70.95
X59.7Y-69.0
X61.0Y-102.7
X61.05Y-100.75
X61.05Y-107.1
X61.1Y-105.15
X61.35Y-70.95
X61.4Y-34.85
X61.4Y-69.0
X61.45Y-32.9
X62.65Y-102.7
X62.7Y-100.75
X62.7Y-107.1
X62.75Y-105.15
X63.0Y-70.95
X63.05Y-34.85
X63.05Y-39.65
X63.05Y-69.0
X63.1Y-32.9
X63.1Y-37.7
X64.7Y-39.65
X64.75Y-34.85
X64.75Y-37.7
X64.8Y-32.9
X64.8Y-102.7
X64.85Y-100.75
X64.85Y-107.1
X64.9Y-105.15
X66.4Y-39.65
X66.45Y-37.7
X66.5Y-102.7
X66.55Y-100.75
X66.55Y-107.1
X66.6Y-105.15
X66.75Y-34.85
X66.8Y-32.9
X67.95Y-39.65
X68.0Y-37.7
X68.3Y-102.7
X68.35Y-100.75
X68.35Y-107.1
X68.4Y-34.85
X68.4Y-105.15
X68.45Y-32.9
X69.6Y-39.65
X69.65Y-37.7
X69.95Y-102.7
X70.0Y-100.75
X70.0Y-107.1
X70.05Y-71.45
X70.05Y-105.15
X70.1Y-34.85
X70.1Y-69.5
X70.15Y-32.9
X71.3Y-39.65
X71.35Y-37.7
X71.7Y-71.45
X71.75Y-69.5
X72.45Y-34.85
X72.45Y-102.75
X72.5Y-32.9
X72.5Y-100.8
X72.5Y-107.15
X72.55Y-105.2
X73.1Y-39.65
X73.15Y-37.7
X73.5Y-71.45
X73.55Y-69.5
X74.1Y-34.85
X74.15Y-32.9
X74.15Y-102.75
X74.2Y-100.8
X74.2Y-107.15
X74.25Y-105.2
X74.75Y-39.65
X74.8Y-37.7
X75.2Y-71.45
X75.25Y-69.5
X75.8Y-34.85
X75.85Y-32.9
X75.95Y-102.75
X76.0Y-100.8
X76.0Y-107.15
X76.05Y-105.2
X76.85Y-71.45
X76.9Y-39.65
X76.9Y-69.5
X76.95Y-37.7
X77.6Y-102.75
X77.65Y-100.8
X77.65Y-107.15
X77.7Y-105.2
X78.05Y-34.85
X78.1Y-32.9
X78.4Y-71.45
X78.45Y-69.5
X78.6Y-39.65
X78.65Y-37.7
X79.7Y-34.85
X79.75Y-32.9
X79.85Y-102.65
X79.9Y-100.7
X79.9Y-107.05
X79.95Y-105.1
X80.1Y-71.45
X80.15Y-69.5
X80.4Y-39.65
X80.45Y-37.7
X81.4Y-34.85
X81.45Y-32.9
X81.5Y-102.65
X81.55Y-100.7
X81.55Y-107.05
X81.6Y-105.1
X81.75Y-71.45
X81.8Y-69.5
X82.05Y-39.65
X82.1Y-37.7
X82.65Y-108.25
X82.7Y-106.3
X83.15Y-34.85
X83.2Y-32.9
X84.3Y-108.25
X84.35Y-106.3
X84.8Y-34.85
X84.85Y-32.9
X86.0Y-108.25
X86.05Y-106.3
X86.55Y-32.9
X87.55Y-108.25
X87.6Y-106.3
X88.95Y-33.0
X89.2Y-108.25
X89.25Y-106.3
X89.6Y-67.6
X89.6Y-69.25
X89.6Y-71.05
X89.6Y-72.75
X90.0Y-86.85
X90.0Y-88.5
X90.0Y-90.3
X90.0Y-92.0
X90.6Y-33.0
X90.9Y-108.25
X90.95Y-106.3
X91.55Y-67.65
X91.55Y-69.3
X91.55Y-71.1
X91.55Y-72.8
X91.7Y-49.75
X91.7Y-51.4
X91.7Y-53.2
X91.7Y-54.9
X91.95Y-86.9
X91.95Y-88.55
X91.95Y-90.35
X91.95Y-92.05
X92.3Y-33.0
X92.7Y-108.25
X92.75Y-106.3
X93.65Y-49.8
X93.65Y-51.45
X93.65Y-53.25
X93.65Y-54.95
X93.85Y-33.0
X94.35Y-108.25
X94.4Y-106.3
X95.05Y-86.85
X95.05Y-88.5
X95.05Y-90.3
X95.05Y-92.0
X95.5Y-33.0
X96.35Y-67.65
X96.35Y-69.3
X96.35Y-71.1
X96.35Y-72.8
X96.5Y-108.25
X96.55Y-106.3
X97.0Y-86.9
X97.0Y-88.55
X97.0Y-90.35
X97.0Y-92.05
X97.2Y-33.0
X97.5Y-49.85
X97.5Y-51.5
X97.5Y-53.3
X97.5Y-55.0
X98.2Y-108.25
X98.25Y-106.3
X98.3Y-67.7
X98.3Y-69.35
X98.3Y-71.15
X98.3Y-72.85
X99.0Y-33.0
X99.45Y-49.9
X99.45Y-51.55
X99.45Y-53.35
X99.45Y-55.05
X100.0Y-108.25
X100.05Y-106.3
X100.65Y-33.0
X101.65Y-108.25
X101.7Y-106.3
X102.35Y-33.0
X104.35Y-33.0
X106.15Y-33.15
X107.8Y-33.15
X109.5Y-33.15
X111.05Y-33.15
X112.7Y-33.15
X114.4Y-33.15
X116.2Y-33.15
X117.85Y-33.15
X118.95Y-75.95
X118.95Y-77.6
X118.95Y-79.4
X118.95Y-81.1
X119.0Y-68.1
X119.0Y-69.75
X119.0Y-71.55
X119.0Y-73.25
X120.9Y-76.0
X120.9Y-77.65
X120.9Y-79.45
X120.9Y-81.15
X120.95Y-68.15
X120.95Y-69.8
X120.95Y-71.6
X120.95Y-73.3
X121.1Y-53.55
X121.1Y-55.2
X121.1Y-57.0
X121.1Y-58.7
X123.05Y-53.6
X123.05Y-55.25
X123.05Y-57.05
X123.05Y-58.75
T2
X44.0Y-56.73
X45.15Y-89.54
X45.55Y-77.25
X58.55Y-39.2
X70.34Y-63.15
X70.35Y-78.45
X87.95Y-104.05
X88.35Y-35.85
X96.15Y-38.2
X106.55Y-106.95
T3
X54.15Y-50.6
X54.15Y-89.54
X56.15Y-50.6
X56.15Y-89.54
X71.25Y-50.6
X71.25Y-89.54
X73.25Y-50.6
X73.25Y-89.54
T4
X77.74Y-43.0
X77.74Y-50.62
X77.74Y-89.48
X77.74Y-97.1
X80.28Y-43.0
X80.28Y-50.62
X80.28Y-89.48
X80.28Y-97.1
X82.82Y-43.0
X82.82Y-50.62
X82.82Y-89.48
X82.82Y-97.1
X85.36Y-43.0
X85.36Y-50.62
X85.36Y-89.48
X85.36Y-97.1
T5
X49.95Y-42.98
X49.95Y-50.6
X49.95Y-56.73
X49.95Y-66.89
X49.95Y-73.25
X49.95Y-83.41
X49.95Y-89.54
X49.95Y-97.16
X56.25Y-61.81
X56.25Y-64.35
X56.25Y-66.89
X56.25Y-73.25
X56.25Y-75.79
X56.25Y-78.33
X65.05Y-73.25
X65.05Y-85.95
X65.1Y-54.19
X65.1Y-66.89
X70.34Y-58.5
X70.34Y-82.0
X77.96Y-58.5
X77.96Y-82.0
X80.34Y-82.0
X80.74Y-58.5
X87.96Y-82.0
X88.36Y-58.5
T6
X65.05Y-89.54
X65.05Y-97.16
X65.1Y-42.98
X65.1Y-50.6
T7
X104.01Y-104.18
X105.31Y-36.87
X106.55Y-104.18
X107.85Y-36.87
X109.09Y-104.18
X110.39Y-36.87
T8
X85.15Y-70.2
X94.15Y-79.1
X94.15Y-99.1
X95.75Y-42.9
X95.75Y-62.9
X105.15Y-70.2
T9
X113.6Y-72.5
X114.8Y-105.3
X116.7Y-87.2
X116.7Y-97.2
X116.8Y-42.5
X116.8Y-49.7
X116.9Y-59.6
X125.85Y-64.65
X125.85Y-73.15
X125.85Y-87.2
X125.85Y-97.2
X125.95Y-42.5
X125.95Y-49.7
M30
